<?xml version="1.0" encoding="utf-8"?>
<!-- Generator: Adobe Illustrator 17.1.0, SVG Export Plug-In . SVG Version: 6.00 Build 0)  -->
<!DOCTYPE svg PUBLIC "-//W3C//DTD SVG 1.1//EN" "http://www.w3.org/Graphics/SVG/1.1/DTD/svg11.dtd">
<svg version="1.1" id="Layer_1" xmlns="http://www.w3.org/2000/svg" xmlns:xlink="http://www.w3.org/1999/xlink" x="0px" y="0px"
	 viewBox="0 0 370 140" enable-background="new 0 0 370 140" xml:space="preserve">
<g>
	<g>
		
			<line fill="none" stroke="#FF7BAC" stroke-width="4" stroke-linecap="round" stroke-linejoin="round" stroke-miterlimit="10" x1="221.8" y1="20.7" x2="213.8" y2="60.3"/>
		<g>
			
				<polyline fill="none" stroke="#FF7BAC" stroke-width="4" stroke-linecap="round" stroke-linejoin="round" stroke-miterlimit="10" points="
				148.5,21.4 133.7,21.4 125.7,61.4 140.5,61.4 			"/>
			
				<line fill="none" stroke="#FF7BAC" stroke-width="4" stroke-linecap="round" stroke-linejoin="round" stroke-miterlimit="10" x1="130.5" y1="41.4" x2="140.5" y2="41.4"/>
		</g>
		<g>
			
				<line fill="none" stroke="#FF7BAC" stroke-width="4" stroke-linecap="round" stroke-linejoin="round" stroke-miterlimit="10" x1="170.7" y1="22.7" x2="162.6" y2="60.3"/>
			
				<line fill="none" stroke="#FF7BAC" stroke-width="4" stroke-linecap="round" stroke-linejoin="round" stroke-miterlimit="10" x1="157.5" y1="21.4" x2="180.5" y2="21.4"/>
		</g>
		<g>
			
				<line fill="none" stroke="#FF7BAC" stroke-width="4" stroke-linecap="round" stroke-linejoin="round" stroke-miterlimit="10" x1="199.6" y1="22.7" x2="193.6" y2="60.3"/>
			
				<line fill="none" stroke="#FF7BAC" stroke-width="4" stroke-linecap="round" stroke-linejoin="round" stroke-miterlimit="10" x1="188.5" y1="21.4" x2="211.5" y2="21.4"/>
		</g>
		<g>
			
				<line fill="none" stroke="#FF7BAC" stroke-width="4" stroke-linecap="round" stroke-linejoin="round" stroke-miterlimit="10" x1="234.6" y1="20.7" x2="226.5" y2="60.3"/>
			
				<line fill="none" stroke="#FF7BAC" stroke-width="4" stroke-linecap="round" stroke-linejoin="round" stroke-miterlimit="10" x1="256.8" y1="20.7" x2="248.7" y2="60.3"/>
			
				<line fill="none" stroke="#FF7BAC" stroke-width="4" stroke-linecap="round" stroke-linejoin="round" stroke-miterlimit="10" x1="235.2" y1="21.1" x2="248.7" y2="60.2"/>
		</g>
		<path fill="none" stroke="#FF7BAC" stroke-width="4" stroke-linecap="round" stroke-linejoin="round" stroke-miterlimit="10" d="
			M117.3,27.1c0,0-3.1-8.8-16.5-7.4c-16.3,1.7-27.1,37-6.4,41.3c5.4,1.1,11.3-0.3,14.4-3.5c2.5-2.6,4.7-6.8,3.9-13.5l-11.9,0.7"/>
		<path fill="none" stroke="#FF7BAC" stroke-width="4" stroke-linecap="round" stroke-linejoin="round" stroke-miterlimit="10" d="
			M296.8,27.1c0,0-3.1-8.8-16.5-7.4c-16.3,1.7-27.1,37-6.4,41.3c5.4,1.1,11.3-0.3,14.4-3.5c2.5-2.6,4.7-6.8,3.9-13.5l-11.9,0.7"/>
	</g>
	<g>
		
			<line fill="none" stroke="#FF7BAC" stroke-width="4" stroke-linecap="round" stroke-linejoin="round" stroke-miterlimit="10" x1="213" y1="78.8" x2="206.2" y2="118.5"/>
		
			<line fill="none" stroke="#FF7BAC" stroke-width="4" stroke-linecap="round" stroke-linejoin="round" stroke-miterlimit="10" x1="268.1" y1="78.8" x2="261.4" y2="118.5"/>
		
			<line fill="none" stroke="#FF7BAC" stroke-width="4" stroke-linecap="round" stroke-linejoin="round" stroke-miterlimit="10" x1="315.8" y1="78.8" x2="309.1" y2="118.5"/>
		<path fill="none" stroke="#FF7BAC" stroke-width="4" stroke-linecap="round" stroke-linejoin="round" stroke-miterlimit="10" d="
			M171.9,119l6.7-41.9c0,0,18.8-1.4,22.2,13.6S194.8,119,171.9,119z"/>
		<g>
			
				<polyline fill="none" stroke="#FF7BAC" stroke-width="4" stroke-linecap="round" stroke-linejoin="round" stroke-miterlimit="10" points="
				133.5,79.4 118.2,79.4 111.4,120.4 126.5,120.4 			"/>
			
				<line fill="none" stroke="#FF7BAC" stroke-width="4" stroke-linecap="round" stroke-linejoin="round" stroke-miterlimit="10" x1="115.5" y1="99.4" x2="126.5" y2="99.4"/>
		</g>
		<g>
			
				<line fill="none" stroke="#FF7BAC" stroke-width="4" stroke-linecap="round" stroke-linejoin="round" stroke-miterlimit="10" x1="290.3" y1="80.8" x2="283.6" y2="118.5"/>
			
				<line fill="none" stroke="#FF7BAC" stroke-width="4" stroke-linecap="round" stroke-linejoin="round" stroke-miterlimit="10" x1="279.5" y1="79.4" x2="302.5" y2="79.4"/>
		</g>
		<path fill="none" stroke="#FF7BAC" stroke-width="4" stroke-linecap="round" stroke-linejoin="round" stroke-miterlimit="10" d="
			M56.3,119.2L63,79.5c0,0,18.6-2.6,17.9,13.4c-0.5,0.2,0.6,9.4-15,8.6"/>
		<path fill="none" stroke="#FF7BAC" stroke-width="4" stroke-linecap="round" stroke-linejoin="round" stroke-miterlimit="10" d="
			M83.9,119.2l6.7-39.7c0,0,18.6-2.6,17.9,13.4c-0.5,0.2,0.6,9.4-15,8.6"/>
		<g>
			
				<polyline fill="none" stroke="#FF7BAC" stroke-width="4" stroke-linecap="round" stroke-linejoin="round" stroke-miterlimit="10" points="
				14.8,118.9 33.5,78.3 46.7,119.1 			"/>
			
				<line fill="none" stroke="#FF7BAC" stroke-width="4" stroke-linecap="round" stroke-linejoin="round" stroke-miterlimit="10" x1="24.5" y1="100.4" x2="39.5" y2="100.4"/>
		</g>
		<g>
			
				<line fill="none" stroke="#FF7BAC" stroke-width="4" stroke-linecap="round" stroke-linejoin="round" stroke-miterlimit="10" x1="145.7" y1="78.8" x2="139" y2="118.5"/>
			
				<line fill="none" stroke="#FF7BAC" stroke-width="4" stroke-linecap="round" stroke-linejoin="round" stroke-miterlimit="10" x1="167.9" y1="78.8" x2="161.2" y2="118.5"/>
			
				<line fill="none" stroke="#FF7BAC" stroke-width="4" stroke-linecap="round" stroke-linejoin="round" stroke-miterlimit="10" x1="146.3" y1="79.3" x2="161.2" y2="118.4"/>
		</g>
		<path fill="none" stroke="#FF7BAC" stroke-width="4" stroke-linecap="round" stroke-linejoin="round" stroke-miterlimit="10" d="
			M256,85.3c0,0-3.1-8.8-16.5-7.4c-16.3,1.7-25.7,36.3-5.1,40.6c5.4,1.1,11.3-0.3,14.4-3.5"/>
		<path fill="none" stroke="#FF7BAC" stroke-width="4" stroke-linecap="round" stroke-linejoin="round" stroke-miterlimit="10" d="
			M321.8,111c0,0,9.3,10.1,22.7,7.5c5.7-1.1,8.2-3.2,9.2-6.4c0.9-2.9,2.2-7-3.9-11.4c-11.7-8.2-18.8-15.3-10.3-22.9
			c1.5-1.4,4.2-1.8,6.8-1.9c3.6,0,8,1.2,9,7.2"/>
	</g>
</g>
</svg>
