<?xml version="1.0" encoding="utf-8"?>
<!-- Generator: Adobe Illustrator 17.1.0, SVG Export Plug-In . SVG Version: 6.00 Build 0)  -->
<!DOCTYPE svg PUBLIC "-//W3C//DTD SVG 1.1//EN" "http://www.w3.org/Graphics/SVG/1.1/DTD/svg11.dtd">
<svg version="1.1" id="Layer_1" xmlns="http://www.w3.org/2000/svg" xmlns:xlink="http://www.w3.org/1999/xlink" x="0px" y="0px"
	 viewBox="0 0 138 138" enable-background="new 0 0 138 138" xml:space="preserve">
<g>
	<path fill="#FFFFFF" stroke="#000000" stroke-width="0.6811" stroke-miterlimit="10" d="M89.1,123.3c7-2.5,9.2-2.1,11.4,2.1
		c-1.9,1.8-3.9,3.5-5.8,5.3c-1.2,1.1-2.6,1.8-4,1c-0.9-0.6-1.6-2.1-1.8-3.2C88.7,126.8,89.1,125,89.1,123.3z"/>
	<path fill="#21937D" stroke="#000000" stroke-miterlimit="10" d="M28.1,35.2c0,0-25.9-2.2-17.9,27.8c0,0-1.7,18.6-4.7,20.7
		s9.2,4.1,12.9,1.6s22-7.3,22-7.3l7.9-1.8l10.2,0.2l5.2,4.3l4.3,3.6l5.2,5.2l5.7,3.9l1.8,4.5l2,4.5l7.5,5h6.1l7,1
		c0,0,4.3-1.6,5.7-6.8c1.4-5.2,11.6-18.7,13.8-19c2.3-0.2,8.2-20.7,8.2-20.7l0.7-7.5l-1.8-4.8l-3.9-4.8l-7.7-14.3l-4.5-9.3l-3.6-7.7
		l-3.2-5.9c0,0-3.6-6.4-8.2-0.5c-4.5,5.9-1.8,7.9-1.8,7.9l-0.5,4.5l-1.6,3l-6.4-2.3l-4.4-3.9l-1.9-3.9V8.8l-1.6-1.4l-4-1.4L71.3,5
		c0,0-5.5,1.6-7.5,7c-2,5.4-5,0.7-5,0.7l-6.4-0.5l-4,2l-3.1,1.3L40.3,20l-4.1,8l-3.8,4.6L28.1,35.2z"/>
	<path stroke="#000000" stroke-width="0.6811" stroke-miterlimit="10" d="M95.6,20.8c0.3-2.6,0.8-5.1,0.8-7.6
		c-0.1-3,1.1-5.5,2.5-7.9c1.5-2.6,4.2-2.9,6.9-1.3c1.9,1.1,2.9,2.8,4,4.6c3.5,5.3,4.5,11.6,7.4,17.1c1.9,3.5,4,6.9,6,10.4
		c3,5.1,6,10.1,8.9,15.2c0.7,1.2,1.1,2.9,0.9,4.3c-0.7,6.6-0.8,13.3-4.4,19.2c-0.7,1.1-1.2,2.4-1.6,3.7c-1.1,3.6-4.1,5.8-6.4,8.4
		c-4.4,4.8-8.1,10.1-9.7,16.3c-1.4,5.3-7.5,7.2-11.7,6.4c-3.5-0.7-7-1.5-10.5-2.2c-4-0.9-6.9-3-8.1-7.2c-0.7-2.7-2-4.9-4.7-6.2
		c-4-1.9-7.1-4.9-9.6-8.5c-3-4.4-7.2-6.5-12.2-7.5c-5.2-1.1-10.2-0.2-15.1,1.8c-3,1.2-5.6,2.4-9.2,1c0.6-0.5,3.7-2.3,4.3-2.5
		c3.1-1.1,6.2-2.2,9.4-3.1c4.9-1.4,9.9-1.5,14.9-0.1c4.1,1.1,7.3,3.4,9.6,7c2,3.3,4.9,5.7,8.1,7.8c2.6,1.7,4.8,3.5,5.8,6.7
		c1.3,4.4,4.3,7.3,9.1,8c3.3,0.4,6.5,1.4,9.8,1.8c4.1,0.5,5.7-0.7,7.3-4.6c1.2-2.8,2.2-5.8,3.9-8.3c2.4-3.7,4.8-7.5,7.9-10.6
		c5.6-5.6,8.1-12.5,9.8-19.9c0.5-2,0.6-4.1,1-6.2c0.5-2.5-0.3-4.6-1.6-6.6c-3.1-5-6.2-10.1-9.5-15c-3.8-5.7-6-12.1-8.7-18.3
		c-1.4-3.1-3.1-6.1-5-9c-1.7-2.6-3.6-2.4-5.7-0.1c-2.3,2.5-1.9,5.5-1.8,8.4c0.1,2.3-0.3,4.4-1.3,6.4c-0.2,0.4-0.6,0.7-0.9,1.1
		c-9.1-0.9-14.5-6.6-13.3-14.4c-1.2-0.5-2.5-1.2-3.8-1.6c-1.8-0.5-3.6-0.9-5.4-1.3c-3.4-0.8-5.6,0.3-7.3,3.4
		c-3.2,6-4.4,6.4-10.5,3.3c-0.6-0.3-1.4-0.6-2-0.5c-4.7,1.4-8.8,3.4-11.6,7.8c-2.8,4.5-6.1,8.6-9.3,12.8c-2,2.6-4.5,3.5-7.9,3.5
		c-7.3,0-12.2,2.7-14,8.9c-1.4,4.6-1.8,9.2-1,13.8c0.9,5.3,1.2,10.5,0.1,15.7c-0.7,3.1-1.8,6.1-2.7,9.1c2.2,1.9,4.5,1.5,6.6,1
		c4.3-1.1,8.5-2.5,12.8-3.6c1.9-0.5,8.2-3.5,10.8-1.7c-1.2,0.7-6.4,3.2-7.4,3.5c-5.2,1.5-10.4,3-15.6,4.1c-2.1,0.4-4.4,0-6.5-0.4
		c-2.5-0.5-2.9-1.1-2.5-3.6c0.4-2.3,0.8-4.6,1.6-6.8c1.7-5,2.3-9.9,1.1-15.1c-1.3-6.1-1.1-12.2,1.4-18.1c2.1-5.1,6-7.9,11.3-8.9
		c1.8-0.3,3.7-0.7,5.5-0.6c2.1,0.1,3.5-0.7,4.7-2.3c3.2-4.2,6.8-7.9,9.4-12.7c2.6-4.8,7.4-7.5,12.8-8.6c1.9-0.4,4.1,0.2,6.1,0.7
		c3.6,1,4,1,5.8-2.3C68,4,71.5,2.6,77,4.2c1.7,0.5,3.4,0.7,5,1.1c3.1,0.8,3.4,1.3,3.7,4.6c0,0.1,0,0.2,0,0.4c0,2.2-0.4,4.4,1.4,6.2
		C89.4,18.6,91.4,20.7,95.6,20.8z"/>
	<polygon fill="#21937D" stroke="#000000" stroke-miterlimit="10" points="94.4,120 91.5,120.6 88.6,123.2 87.5,126.1 87.5,129.4 
		90.1,132 93.7,132.1 98.3,129.8 100.3,127.3 100.9,124.4 99,121.5 97.6,121 	"/>
	<path stroke="#000000" stroke-width="0.6811" stroke-miterlimit="10" d="M87.8,125c-0.2-4.9,3.3-6.5,8.2-5.8c2.7,0.4,5.2,1,6.3,4
		c0.9,2.7,0.5,4.3-1.8,6c-1.8,1.3-3.4,2.8-5.1,4.2c-1.4,1.2-2.9,2.2-5,1.4c-1.6-0.6-2.7-1.5-2.5-3.5C88.4,127.5,87.9,128.1,87.8,125
		z M89.1,123.3c-0.1,1.8-0.4,3.5-0.2,5.1c0.2,1.2,0.9,2.6,1.8,3.2c1.3,0.9,2.8,0.1,4-1c1.9-1.8,3.9-3.6,5.8-5.3
		C98.4,121.2,96.1,120.7,89.1,123.3z"/>
</g>
</svg>
