<?xml version="1.0" encoding="utf-8"?>
<!-- Generator: Adobe Illustrator 17.1.0, SVG Export Plug-In . SVG Version: 6.00 Build 0)  -->
<!DOCTYPE svg PUBLIC "-//W3C//DTD SVG 1.1//EN" "http://www.w3.org/Graphics/SVG/1.1/DTD/svg11.dtd">
<svg version="1.1" id="Layer_1" xmlns="http://www.w3.org/2000/svg" xmlns:xlink="http://www.w3.org/1999/xlink" x="0px" y="0px"
	 viewBox="0 0 1000 1178" enable-background="new 0 0 1000 1178" xml:space="preserve">
<rect x="136.3" y="388.5" fill="#0DB6A5" width="48.9" height="44.3"/>
<rect x="198" y="358.1" fill="#0DB6A5" width="48.9" height="74.8"/>
<rect x="259.7" y="352.1" fill="#0DB6A5" width="48.9" height="80.8"/>
<rect x="321.3" y="321.2" fill="#0DB6A5" width="48.9" height="111.7"/>
<rect x="383" y="314.4" fill="#0DB6A5" width="48.9" height="118.4"/>
<rect x="444.7" y="305.7" fill="#0DB6A5" width="48.9" height="127.1"/>
<rect x="506.4" y="304.2" fill="#0DB6A5" width="48.9" height="128.6"/>
<rect x="568.1" y="284.2" fill="#0DB6A5" width="48.9" height="148.6"/>
<rect x="629.8" y="272.8" fill="#0DB6A5" width="48.9" height="160.1"/>
<rect x="691.5" y="270.1" fill="#0DB6A5" width="48.9" height="162.7"/>
<rect x="753.2" y="205.9" fill="#0DB6A5" width="48.9" height="226.9"/>
<rect x="814.9" y="123.8" fill="#0DB6A5" width="48.9" height="309"/>
<rect x="136.3" y="486.7" fill="#D84748" width="48.9" height="145.4"/>
<rect x="198" y="486.7" fill="#D84748" width="48.9" height="219.3"/>
<rect x="259.7" y="486.7" fill="#D84748" width="48.9" height="293.2"/>
<rect x="321.3" y="486.7" fill="#D84748" width="48.9" height="367.1"/>
<rect x="383" y="486.7" fill="#D84748" width="48.9" height="442.5"/>
<rect x="445.4" y="486.7" fill="#D84748" width="47.5" height="367.1"/>
<rect x="507.3" y="486.7" fill="#D84748" width="47" height="221.3"/>
<rect x="568.1" y="486.7" fill="#D84748" width="48.9" height="221.3"/>
<rect x="629.8" y="486.7" fill="#D84748" width="48.9" height="221.3"/>
<rect x="691.5" y="486.7" fill="#D84748" width="48.9" height="291.7"/>
<rect x="753.2" y="485.6" fill="#D84748" width="48.9" height="292.8"/>
<rect x="814.9" y="485.6" fill="#D84748" width="48.9" height="71.1"/>
<g>
	<path fill="#D84748" d="M157.9,645.4c-0.8,1.2,0.2,2.1,0.9,3.2c1.1,1.7,0.4,4.2-1.3,5c-1.4,0.6-3.2,0.3-4.2-0.8
		c-0.7-0.8-0.9-1.9-0.6-2.9c0.3-1.1,0-1.7-1-2.2c-0.9-0.4-0.9-1.4-1-2.2c-0.3-1.3,0-2.5,0.6-3.6c0.4-0.8,1.1-1.3,2.1-1.3
		c0.3,0,0.5,0.2,0.7,0.3c0.5,0.3,0.9,0.8,1.4,1C157.1,642.5,157.6,643.6,157.9,645.4z M153.3,644.9c0.1,0.4,0,0.8,0.2,1
		c0.2,0.3,0.6,0.7,0.9,0.7c0.8,0,1.5-0.9,1.5-1.8c0-0.6-1-1.5-1.7-1.5c-0.2,0-0.5,0.2-0.6,0.4C153.4,644.1,153.3,644.5,153.3,644.9z
		 M155.1,650.5c0,0.3,0,0.6,0.1,0.7c0.3,0.3,0.7,0.7,1.1,0.9c0.2,0.1,0.7-0.2,0.8-0.3c0.1-0.7,0.2-1.5,0.1-2.2c-0.1-0.4-0.6-0.7-1-1
		c-0.3,0.4-0.6,0.7-0.9,1.1C155.1,650,155.1,650.3,155.1,650.5z"/>
	<path fill="#D84748" d="M170.8,647.7c-0.1,0.7-0.1,1.4-0.2,2.1c-0.2,2.1-3,3.2-4.8,2.3c-2.5-1.3-2.6-3.5-2.9-5.7
		c-0.2-1.5,0.2-3,0.9-4.4c0.8-1.6,3.1-2,4.3-0.7C169.9,643,170.9,645.1,170.8,647.7z M165.3,646.2c-0.1,1.4,0.3,2.6,1.2,3.6
		c0.3,0.3,0.7,0.6,1.1,0.5c0.3,0,0.6-0.5,0.8-0.8c0.8-1.8-0.1-5.1-1.6-6.4c-0.7-0.6-0.9-0.3-1,0.3
		C165.6,644.4,165.5,645.3,165.3,646.2z"/>
</g>
<g>
	<path fill="#D84748" d="M771.2,785.7c0.4,0.2,0.9,0.3,1.2,0.6c1.4,1,2.2,2.4,2.2,4.2c0,0.3,0,0.6,0.2,0.8c0.8,1.4,0.7,2.8,0.3,4.3
		c-0.1,0.3-0.3,0.6-0.5,0.7c-1.3,1-2.5,1.2-3.6,0.6c-1.3-0.7-2.1-2.4-1.8-3.8c0.3-0.9,0.3-1.7-0.5-2.5c-0.8-0.8-0.8-1.9-0.6-3
		C768.5,786.3,769.5,785.7,771.2,785.7z M773.4,793.3c0-0.1-0.1-0.4-0.2-0.7c-0.1-0.2-0.5-0.5-0.6-0.4c-0.7,0.3-0.9,1-0.7,1.7
		c0.2,0.5,0.5,0.9,0.8,1.4c0.2-0.5,0.5-1,0.7-1.5C773.4,793.7,773.4,793.6,773.4,793.3z M772.5,789c0-0.6-0.6-1.3-1.1-1.2
		c-0.5,0-0.7,0.3-0.7,0.8c0.1,0.6,0.2,1.2,1.1,1.2C772.4,789.7,772.6,789.5,772.5,789z"/>
	<path fill="#D84748" d="M784.4,790.2c-0.3,1.2-0.6,2.5-1,3.7c-0.2,0.7,0.1,0.9,0.7,0.9c0.5,0,1.1-0.1,1.6-0.1
		c0.8,0,1.3,0.4,1.3,1.2c0.1,0.9-0.5,1.2-1.2,1.1c-1.6-0.1-3.1-0.3-4.6-0.5c-0.9-0.1-0.8-0.9-0.6-1.5c0.1-0.5,0.4-0.9,0.6-1.3
		c0.4-1.1,0.7-2.2,1-3.4c0.1-0.3-0.1-0.6-0.2-0.9c-0.3,0.1-0.6,0.2-0.9,0.3c-0.4,0.2-0.8,0.5-1.2,0.5c-0.9,0.2-1.3-0.5-1-1.3
		c0.5-1,2-2.1,3.3-1.8c1.4,0.4,2.1,1.3,2,2.9c0,0.1,0,0.2,0,0.3C784.3,790.2,784.4,790.2,784.4,790.2z"/>
</g>
<g>
	<path fill="#D84748" d="M709.5,785.7c0.4,0.2,0.9,0.3,1.2,0.6c1.4,1,2.2,2.4,2.2,4.2c0,0.3,0,0.6,0.2,0.8c0.8,1.4,0.7,2.8,0.3,4.3
		c-0.1,0.3-0.3,0.6-0.5,0.7c-1.3,1-2.5,1.2-3.6,0.6c-1.3-0.7-2.1-2.4-1.8-3.8c0.3-0.9,0.3-1.7-0.5-2.5c-0.8-0.8-0.8-1.9-0.6-3
		C706.8,786.3,707.8,785.7,709.5,785.7z M711.7,793.3c0-0.1-0.1-0.4-0.2-0.7c-0.1-0.2-0.5-0.5-0.6-0.4c-0.7,0.3-0.9,1-0.7,1.7
		c0.2,0.5,0.5,0.9,0.8,1.4c0.2-0.5,0.5-1,0.7-1.5C711.7,793.7,711.7,793.6,711.7,793.3z M710.9,789c0-0.6-0.6-1.3-1.1-1.2
		c-0.5,0-0.7,0.3-0.7,0.8c0.1,0.6,0.2,1.2,1.1,1.2C710.7,789.7,710.9,789.5,710.9,789z"/>
	<path fill="#D84748" d="M722.7,790.2c-0.3,1.2-0.6,2.5-1,3.7c-0.2,0.7,0.1,0.9,0.7,0.9c0.5,0,1.1-0.1,1.6-0.1
		c0.8,0,1.3,0.4,1.3,1.2c0.1,0.9-0.5,1.2-1.2,1.1c-1.6-0.1-3.1-0.3-4.6-0.5c-0.9-0.1-0.8-0.9-0.6-1.5c0.1-0.5,0.4-0.9,0.6-1.3
		c0.4-1.1,0.7-2.2,1-3.4c0.1-0.3-0.1-0.6-0.2-0.9c-0.3,0.1-0.6,0.2-0.9,0.3c-0.4,0.2-0.8,0.5-1.2,0.5c-0.9,0.2-1.3-0.5-1-1.3
		c0.5-1,2-2.1,3.3-1.8c1.4,0.4,2.1,1.3,2,2.9c0,0.1,0,0.2,0,0.3C722.6,790.2,722.7,790.2,722.7,790.2z"/>
</g>
<g>
	<path fill="#D84748" d="M277.7,787.7c0.4,0.2,0.9,0.3,1.2,0.6c1.4,1,2.2,2.4,2.2,4.2c0,0.3,0,0.6,0.2,0.8c0.8,1.4,0.7,2.8,0.3,4.3
		c-0.1,0.3-0.3,0.6-0.5,0.7c-1.3,1-2.5,1.2-3.6,0.6c-1.3-0.7-2.1-2.4-1.8-3.8c0.3-0.9,0.3-1.7-0.5-2.5c-0.8-0.8-0.8-1.9-0.6-3
		C275,788.3,276,787.7,277.7,787.7z M279.8,795.3c0-0.1-0.1-0.4-0.2-0.7c-0.1-0.2-0.5-0.5-0.6-0.4c-0.7,0.3-0.9,1-0.7,1.7
		c0.2,0.5,0.5,0.9,0.8,1.4c0.2-0.5,0.5-1,0.7-1.5C279.9,795.7,279.8,795.6,279.8,795.3z M279,791c0-0.6-0.6-1.3-1.1-1.2
		c-0.5,0-0.7,0.3-0.7,0.8c0.1,0.6,0.2,1.2,1.1,1.2C278.8,791.7,279.1,791.5,279,791z"/>
	<path fill="#D84748" d="M290.9,792.2c-0.3,1.2-0.6,2.5-1,3.7c-0.2,0.7,0.1,0.9,0.7,0.9c0.5,0,1.1-0.1,1.6-0.1
		c0.8,0,1.3,0.4,1.3,1.2c0.1,0.9-0.5,1.2-1.2,1.1c-1.6-0.1-3.1-0.3-4.6-0.5c-0.9-0.1-0.8-0.9-0.6-1.5c0.1-0.5,0.4-0.9,0.6-1.3
		c0.4-1.1,0.7-2.2,1-3.4c0.1-0.3-0.1-0.6-0.2-0.9c-0.3,0.1-0.6,0.2-0.9,0.3c-0.4,0.2-0.8,0.5-1.2,0.5c-0.9,0.2-1.3-0.5-1-1.3
		c0.5-1,2-2.1,3.3-1.8c1.4,0.4,2.1,1.3,2,2.9c0,0.1,0,0.2,0,0.3C290.8,792.2,290.8,792.2,290.9,792.2z"/>
</g>
<g>
	<path fill="#D84748" d="M462.9,862c1.3-0.1,2.4,0.4,3.3,1.4c0.9,1,0.8,2.2,0.7,3.3c0,0.4,0.1,0.8,0.2,1.2c0.6,1.3,0.9,2.5-0.2,3.7
		c-0.1,0.1-0.2,0.2-0.2,0.3c0,1.7-1.1,2.3-2.6,2.5c-1.8,0.3-3.1-0.3-4-1.9c-0.5-1-0.3-2.1,0-3c0.3-0.8,0.3-1.4-0.3-2.1
		c-1.1-1.3-1-3.3,0.1-4.6C460.7,862.1,461.4,861.9,462.9,862z M463.4,872.5c1.4,0,2.7-1.8,2.3-2.8c-0.2-0.4-0.4-0.8-1-0.6
		c-0.4,0.2-0.8,0.1-1.2,0.3c-0.6,0.2-1.1,1.2-0.9,2.1C462.6,871.9,463.2,872.3,463.4,872.5z M463.7,866.2c1.1,0,1.3-0.1,1.3-0.9
		c0-0.6-0.6-1.4-1.2-1.5c-1-0.2-2,0.3-2.1,1.1c0,0.5,0.3,1.1,0.5,1.6c0,0.1,0.6-0.1,0.9-0.2C463.4,866.2,463.7,866.2,463.7,866.2z"
		/>
	<path fill="#D84748" d="M474.3,865.4c-0.7-0.1-1.4,0-1.9-0.2c-0.5-0.2-1-0.6-1.3-1c-0.1-0.1,0.3-0.7,0.5-1c0.1-0.1,0.3-0.2,0.5-0.2
		c1.2,0,2.3,0,3.5,0c0.3,0,0.6,0.1,0.9,0c0.7,0,1.2,0.2,1.5,0.8c0.3,0.6,0.2,1.2-0.3,1.6c-0.1,0.1-0.2,0.1-0.3,0.2
		c-0.9,0.9-0.9,1,0.1,1.7c2,1.5,2.1,3.6,0.5,5.4c-1,1.1-2.3,1-3.5,0.6c-0.9-0.3-1.6-0.9-2.3-1.5c-0.2-0.2-0.2-0.9,0-1.2
		c0.2-0.3,0.8-0.6,1.2-0.6c0.5,0,1.1,0.2,1.2,0.9c0.1,0.6,0.4,1,1.1,0.9c0.7-0.1,1-0.4,1.1-1.1c0-0.7,0-1.3-0.8-1.5
		c-0.4-0.1-0.7-0.1-1.1-0.1c-0.4,0-0.8,0.1-1.1,0c-1.1-0.3-1.4-1.1-0.6-2c0.3-0.3,0.5-0.7,0.8-1C474,866,474.1,865.8,474.3,865.4z"
		/>
</g>
<g>
	<path fill="#D84748" d="M339.6,862c1.3-0.1,2.4,0.4,3.3,1.4c0.9,1,0.8,2.2,0.7,3.3c0,0.4,0.1,0.8,0.2,1.2c0.6,1.3,0.9,2.5-0.2,3.7
		c-0.1,0.1-0.2,0.2-0.2,0.3c0,1.7-1.1,2.3-2.6,2.5c-1.8,0.3-3.1-0.3-4-1.9c-0.5-1-0.3-2.1,0-3c0.3-0.8,0.3-1.4-0.3-2.1
		c-1.1-1.3-1-3.3,0.1-4.6C337.4,862.1,338,861.9,339.6,862z M340,872.5c1.4,0,2.7-1.8,2.3-2.8c-0.2-0.4-0.4-0.8-1-0.6
		c-0.4,0.2-0.8,0.1-1.2,0.3c-0.6,0.2-1.1,1.2-0.9,2.1C339.2,871.9,339.8,872.3,340,872.5z M340.3,866.2c1.1,0,1.3-0.1,1.3-0.9
		c0-0.6-0.6-1.4-1.2-1.5c-1-0.2-2,0.3-2.1,1.1c0,0.5,0.3,1.1,0.5,1.6c0,0.1,0.6-0.1,0.9-0.2C340,866.2,340.3,866.2,340.3,866.2z"/>
	<path fill="#D84748" d="M350.9,865.4c-0.7-0.1-1.4,0-1.9-0.2c-0.5-0.2-1-0.6-1.3-1c-0.1-0.1,0.3-0.7,0.5-1c0.1-0.1,0.3-0.2,0.5-0.2
		c1.2,0,2.3,0,3.5,0c0.3,0,0.6,0.1,0.9,0c0.7,0,1.2,0.2,1.5,0.8c0.3,0.6,0.2,1.2-0.3,1.6c-0.1,0.1-0.2,0.1-0.3,0.2
		c-0.9,0.9-0.9,1,0.1,1.7c2,1.5,2.1,3.6,0.5,5.4c-1,1.1-2.3,1-3.5,0.6c-0.9-0.3-1.6-0.9-2.3-1.5c-0.2-0.2-0.2-0.9,0-1.2
		c0.2-0.3,0.8-0.6,1.2-0.6c0.5,0,1.1,0.2,1.2,0.9c0.1,0.6,0.4,1,1.1,0.9c0.7-0.1,1-0.4,1.1-1.1c0-0.7,0-1.3-0.8-1.5
		c-0.4-0.1-0.7-0.1-1.1-0.1c-0.4,0-0.8,0.1-1.1,0c-1.1-0.3-1.4-1.1-0.6-2c0.3-0.3,0.5-0.7,0.8-1C350.6,866,350.7,865.8,350.9,865.4z
		"/>
</g>
<g>
	<path fill="#D84748" d="M401.4,951.7c-1.6-0.2-3-1.9-2.8-3.7c0.1-1,0.5-1.9,0.7-2.9c0.1-0.3,0-0.7-0.2-0.8c-2-1.8-1.9-4.9,0.2-6.5
		c0.7-0.6,2.2-0.5,3,0.2c0.4,0.3,0.9,0.6,1.3,0.9c1,0.7,1.3,1.7,1.1,2.9c0,0.3-0.1,0.6-0.2,0.9c-0.2,0.8-0.3,1.6,0.2,2.4
		c0.8,1.3,0.7,2.8,0.2,4.2c-0.4,0.9-1,1.6-2,1.9C402.4,951.4,401.9,951.6,401.4,951.7z M403.8,947c-0.3-0.5-0.6-1-0.9-1.3
		c-0.2-0.2-0.8-0.1-1.1,0.1c-0.9,0.6-1.2,2.2-0.7,3.2c0.4,0.8,1.1,1,1.6,0.2C403.1,948.7,403.4,947.9,403.8,947z M399.9,941.4
		c0.3,0.5,0.6,1.1,1,1.4c0.3,0.2,0.9,0.1,1.2-0.1c0.7-0.4,0.9-1.5,0.6-2.2c-0.3-0.9-1.5-1.3-2-0.7
		C400.4,940.2,400.2,940.7,399.9,941.4z"/>
	<path fill="#D84748" d="M416.6,940c0,2.3-0.1,4.6,0,6.8c0,1.1,0.4,2.1,0.5,3.1c0.2,1.7,0.4,1.7-0.9,2.4c-0.5,0.3-1.1-0.1-1.2-0.7
		c-0.3-1.4-0.5-2.8-0.9-4.1c-0.1-0.3-0.7-0.6-1.2-0.6c-0.9-0.2-1.8-0.1-2.7-0.3c-1.3-0.2-1.6-1.2-0.7-2.2c1.4-1.7,2.8-3.5,4.2-5.3
		c0.4-0.5,0.8-1.2,1.7-1C416.2,938.2,416.5,938.6,416.6,940z M413.9,943.1c-0.1,0-0.2,0-0.3-0.1c-0.2,0.3-0.5,0.5-0.7,0.8
		c-0.1,0.2-0.2,0.5-0.3,0.7c0.3,0.1,0.6,0.2,0.9,0.2c0.2,0,0.4-0.4,0.4-0.6C414,943.9,413.9,943.5,413.9,943.1z"/>
</g>
<g>
	<path fill="#D84748" d="M849.6,572.3c0.1,1.2,0.2,2.4,0.3,3.6c0.1,1.2-1.3,1.7-2,1.1c-0.4-0.3-0.6-1.2-0.6-1.8c-0.1-1-0.2-2-0.2-3
		c-0.1-1.4-0.2-1.5-1.5-1c-0.6,0.2-1.3,0.4-1.9,0.5c-0.6,0.1-1.9-0.9-2.2-1.6c-0.7-1.6,0.3-4.4,2-5.1c0.6-0.2,1.4-0.2,2.1-0.1
		c1,0.2,2,0.7,2.9,1.1c0.3,0.1,0.6,0.6,0.7,0.9c0.2,0.9,0.2,1.8,0.3,2.7c0.1,0.9,0.2,1.7,0.3,2.6
		C849.7,572.3,849.6,572.3,849.6,572.3z M843.7,569c0,0.8,0.4,1,1,0.6c0.5-0.4,0.9-0.9,1.3-1.4c0.4-0.5,0.2-0.9-0.4-1.1
		C844.5,566.7,843.7,567.6,843.7,569z"/>
	<path fill="#D84748" d="M834,567.9c-0.6-0.1-1.2-0.1-1.8-0.2c-0.5-0.1-1-0.1-1.4-0.2c-0.4-0.1-0.8-0.1-1.2-0.3
		c-0.6-0.2-1.1-0.7-0.9-1.4c0.2-0.7,0.8-0.7,1.5-0.6c2.2,0.3,4.4,0.5,6.6,0.8c1.9,0.3,2.1,0.8,1.7,2.7c-0.3,1.9-0.4,3.8-0.6,5.6
		c-0.1,0.5,0,1-0.3,1.4c-0.1,0.3-0.6,0.6-1,0.5c-0.3,0-0.7-0.4-0.9-0.7c-0.2-0.2-0.3-0.5-0.2-0.8c0.1-1.7,0.1-3.3,0.3-5
		C836.1,567.9,836,568.1,834,567.9z"/>
</g>
<g>
	<path fill="#D84748" d="M649,717.2c0.7-1.5,2.8-1.1,3.9,0.2c1.1,1.3,1.4,2.8,0.9,4.4c-0.3,0.8,0.3,1.2,0.7,1.5
		c1.6,1.3,1.7,3.4,0.4,4.9c-1.7,2-3.8,2.4-5.7,0.9c-1.1-0.8-1.3-2.2-0.9-3.5c0.4-1.3,0.2-2-0.7-3.1c-1.2-1.3-1.1-3.1-0.8-4.8
		C646.9,717,647.8,716.8,649,717.2z M649,717.7c0.1,1,0,1.9,0.2,2.6c0.2,0.6,0.7,1.3,1.3,1.7c0.4,0.3,1.2-0.8,1.4-1.6
		c0-0.1,0-0.2,0.1-0.3c0.1-0.9,0-1.6-1-1.8C650.4,718,649.8,717.9,649,717.7z M650.7,726.4c-0.1,0-0.1,0.1-0.2,0.1
		c0.3,0.5,0.5,1.1,0.9,1.3c0.3,0.2,0.9-0.2,1.4-0.4c0.2-0.1,0.3-0.2,0.4-0.3c0.5-0.6,0.8-1.4,0.3-2.1c-0.3-0.4-0.9-1-1.4-1
		c-0.8,0-1.2,0.8-1.4,1.6C650.8,726,650.8,726.2,650.7,726.4z"/>
	<path fill="#D84748" d="M661.4,719.1c0,2,0,4.1,0,6.1c0,0.7,0.2,1.5,0.4,2.2c0.2,0.9-0.2,1.7-0.9,1.9c-0.6,0.1-1.5-0.6-1.6-1.3
		c-0.2-2.5-0.2-5-0.3-7.6c0-0.6-0.1-1.3-0.1-1.9c0-1.1,0.4-1.4,1.2-1.4c0.7,0,1.2,0.6,1.3,1.5C661.4,718.8,661.4,719,661.4,719.1
		C661.4,719.1,661.4,719.1,661.4,719.1z"/>
</g>
<g>
	<path fill="#D84748" d="M587.3,717.2c0.7-1.5,2.8-1.1,3.9,0.2c1.1,1.3,1.4,2.8,0.9,4.4c-0.3,0.8,0.3,1.2,0.7,1.5
		c1.6,1.3,1.7,3.4,0.4,4.9c-1.7,2-3.8,2.4-5.7,0.9c-1.1-0.8-1.3-2.2-0.9-3.5c0.4-1.3,0.2-2-0.7-3.1c-1.2-1.3-1.1-3.1-0.8-4.8
		C585.2,717,586.1,716.8,587.3,717.2z M587.3,717.7c0.1,1,0,1.9,0.2,2.6c0.2,0.6,0.7,1.3,1.3,1.7c0.4,0.3,1.2-0.8,1.4-1.6
		c0-0.1,0-0.2,0.1-0.3c0.1-0.9,0-1.6-1-1.8C588.7,718,588.2,717.9,587.3,717.7z M589,726.4c-0.1,0-0.1,0.1-0.2,0.1
		c0.3,0.5,0.5,1.1,0.9,1.3c0.3,0.2,0.9-0.2,1.4-0.4c0.2-0.1,0.3-0.2,0.4-0.3c0.5-0.6,0.8-1.4,0.3-2.1c-0.3-0.4-0.9-1-1.4-1
		c-0.8,0-1.2,0.8-1.4,1.6C589.1,726,589.1,726.2,589,726.4z"/>
	<path fill="#D84748" d="M599.7,719.1c0,2,0,4.1,0,6.1c0,0.7,0.2,1.5,0.4,2.2c0.2,0.9-0.2,1.7-0.9,1.9c-0.6,0.1-1.5-0.6-1.6-1.3
		c-0.2-2.5-0.2-5-0.3-7.6c0-0.6-0.1-1.3-0.1-1.9c0-1.1,0.4-1.4,1.2-1.4c0.7,0,1.2,0.6,1.3,1.5C599.7,718.8,599.7,719,599.7,719.1
		C599.7,719.1,599.7,719.1,599.7,719.1z"/>
</g>
<g>
	<path fill="#D84748" d="M525.6,717.2c0.7-1.5,2.8-1.1,3.9,0.2c1.1,1.3,1.4,2.8,0.9,4.4c-0.3,0.8,0.3,1.2,0.7,1.5
		c1.6,1.3,1.7,3.4,0.4,4.9c-1.7,2-3.8,2.4-5.7,0.9c-1.1-0.8-1.3-2.2-0.9-3.5c0.4-1.3,0.2-2-0.7-3.1c-1.2-1.3-1.1-3.1-0.8-4.8
		C523.5,717,524.5,716.8,525.6,717.2z M525.6,717.7c0.1,1,0,1.9,0.2,2.6c0.2,0.6,0.7,1.3,1.3,1.7c0.4,0.3,1.2-0.8,1.4-1.6
		c0-0.1,0-0.2,0.1-0.3c0.1-0.9,0-1.6-1-1.8C527,718,526.5,717.9,525.6,717.7z M527.4,726.4c-0.1,0-0.1,0.1-0.2,0.1
		c0.3,0.5,0.5,1.1,0.9,1.3c0.3,0.2,0.9-0.2,1.4-0.4c0.2-0.1,0.3-0.2,0.4-0.3c0.5-0.6,0.8-1.4,0.3-2.1c-0.3-0.4-0.9-1-1.4-1
		c-0.8,0-1.2,0.8-1.4,1.6C527.4,726,527.4,726.2,527.4,726.4z"/>
	<path fill="#D84748" d="M538,719.1c0,2,0,4.1,0,6.1c0,0.7,0.2,1.5,0.4,2.2c0.2,0.9-0.2,1.7-0.9,1.9c-0.6,0.1-1.5-0.6-1.6-1.3
		c-0.2-2.5-0.2-5-0.3-7.6c0-0.6-0.1-1.3-0.1-1.9c0-1.1,0.4-1.4,1.2-1.4c0.7,0,1.2,0.6,1.3,1.5C538,718.8,538,719,538,719.1
		C538,719.1,538,719.1,538,719.1z"/>
</g>
<g>
	<path fill="#D84748" d="M217.2,717.2c0.7-1.5,2.8-1.1,3.9,0.2c1.1,1.3,1.4,2.8,0.9,4.4c-0.3,0.8,0.3,1.2,0.7,1.5
		c1.6,1.3,1.7,3.4,0.4,4.9c-1.7,2-3.8,2.4-5.7,0.9c-1.1-0.8-1.3-2.2-0.9-3.5c0.4-1.3,0.2-2-0.7-3.1c-1.2-1.3-1.1-3.1-0.8-4.8
		C215.1,717,216,716.8,217.2,717.2z M217.2,717.7c0.1,1,0,1.9,0.2,2.6c0.2,0.6,0.7,1.3,1.3,1.7c0.4,0.3,1.2-0.8,1.4-1.6
		c0-0.1,0-0.2,0.1-0.3c0.1-0.9,0-1.6-1-1.8C218.6,718,218,717.9,217.2,717.7z M218.9,726.4c-0.1,0-0.1,0.1-0.2,0.1
		c0.3,0.5,0.5,1.1,0.9,1.3c0.3,0.2,0.9-0.2,1.4-0.4c0.2-0.1,0.3-0.2,0.4-0.3c0.5-0.6,0.8-1.4,0.3-2.1c-0.3-0.4-0.9-1-1.4-1
		c-0.8,0-1.2,0.8-1.4,1.6C218.9,726,218.9,726.2,218.9,726.4z"/>
	<path fill="#D84748" d="M229.6,719.1c0,2,0,4.1,0,6.1c0,0.7,0.2,1.5,0.4,2.2c0.2,0.9-0.2,1.7-0.9,1.9c-0.6,0.1-1.5-0.6-1.6-1.3
		c-0.2-2.5-0.2-5-0.3-7.6c0-0.6-0.1-1.3-0.1-1.9c0-1.1,0.4-1.4,1.2-1.4c0.7,0,1.2,0.6,1.3,1.5C229.5,718.8,229.5,719,229.6,719.1
		C229.5,719.1,229.5,719.1,229.6,719.1z"/>
</g>
<g>
	<path fill="#0DB6A5" d="M396.4,305.1c-0.5-0.2-1-0.5-1.6-0.6c-0.7-0.2-1-0.6-1.3-1.1c-0.2-0.4,0-0.6,0.2-0.8
		c0.3-0.3,0.5-0.1,0.7,0.1c0.2,0.2,0.4,0.4,0.5,0.6c0.3,0.6,0.8,0.8,1.4,0.8c0.7,0,1.2-0.8,1-1.5c-0.3-0.8-0.3-0.8-1.2-1
		c-0.3,0-0.6-0.2-0.7-0.4c-0.1-0.2,0.1-0.5,0.2-0.7c0-0.1,0.1-0.1,0.1-0.2c0.1-0.2,0.2-0.4,0.4-0.6c-0.3-0.1-0.5-0.1-0.8-0.2
		c-0.7-0.1-1.3-0.2-2-0.4c-0.2-0.1-0.4-0.3-0.5-0.5c0.2-0.2,0.4-0.5,0.6-0.5c0.5-0.1,0.9,0,1.4,0.1c0.9,0.1,1.7,0.2,2.6,0.3
		c0.6,0.1,0.9,0.6,0.6,1.1c-0.1,0.1-0.2,0.3-0.3,0.4c-0.2,0.3-0.3,0.5,0.1,0.8c0.6,0.4,0.8,1.7,0.6,2.4c0,0.1-0.1,0.3-0.1,0.4
		C398,304.7,397.4,304.9,396.4,305.1z"/>
	<path fill="#0DB6A5" d="M407.2,298.1c1.6,0,2.9,1.6,2.3,3.1c-0.3,0.7-0.6,1.4-0.9,2.1c-0.2,0.4-0.1,0.6,0.3,0.6
		c0.2,0,0.5,0,0.7,0.1c0.2,0,0.4,0,0.4,0.1c0.2,0.3,0.3,0.6,0.5,0.9c-0.4,0.2-0.7,0.5-1.1,0.4c-0.8,0-1.5-0.2-2.3-0.3
		c-0.1,0-0.3-0.1-0.4-0.1c-0.5-0.2-0.6-0.5-0.3-1c0.4-0.6,0.8-1.2,1.1-1.8c0.2-0.6,0.4-1.2,0.4-1.8c0-0.2-0.2-0.6-0.5-0.7
		c-0.4-0.2-0.6,0.1-0.8,0.3c-0.3,0.3-0.6,0.6-0.9,0.8c-0.2,0.1-0.6,0-0.7-0.1c-0.1-0.1-0.1-0.5,0-0.6c0.3-0.5,0.7-1,1.1-1.4
		C406.5,298.4,406.9,298.3,407.2,298.1z"/>
	<path fill="#0DB6A5" d="M412.2,300.7c0.1-0.5,0.1-0.9,0.2-1.4c0.5-1.5,1.7-1.7,2.8-0.8c1.5,1.2,2,3.7,0.7,5.5
		c-0.3,0.4-0.8,0.6-1.4,0.5c-1-0.2-1.7-0.8-2-1.8C412.4,302,412.3,301.3,412.2,300.7z M413.6,301c0.2,0.6,0.5,1.3,0.7,2
		c0.1,0.3,0.4,0.4,0.7,0.1c0.5-0.5,0.7-1.8,0.4-2.5c-0.2-0.4-0.4-0.7-0.6-1.1c-0.2-0.4-0.6-0.5-0.7-0.2
		C413.9,299.9,413.8,300.4,413.6,301z"/>
	<path fill="#0DB6A5" d="M421.8,299.9c0.1,1.4,0.2,2.8,0.3,4.2c0.1,0.6,0,0.8-0.6,0.9c-0.4,0.1-0.5-0.3-0.6-0.6
		c-0.1-0.4-0.1-0.7-0.1-1.1c0-0.6-0.2-0.8-0.8-0.9c-0.4,0-0.9,0-1.3,0c-0.2,0-0.5-0.1-0.7-0.2c-0.5-0.3-0.6-0.6-0.2-1
		c0.5-0.6,1-1.2,1.5-1.8c0.2-0.2,0.4-0.4,0.5-0.7c0.4-0.6,0.6-0.7,1.2-0.6c0.5,0.1,0.9,0.6,0.9,1.2
		C421.9,299.6,421.8,299.8,421.8,299.9C421.8,299.9,421.8,299.9,421.8,299.9z M419.6,301.1c0,0.1,0,0.1,0,0.2c0.2,0,0.5,0.1,0.7,0
		c0.1-0.1,0.1-0.4,0.1-0.6c0-0.1-0.1-0.2-0.1-0.2c-0.1,0-0.2,0-0.3,0.1C419.9,300.7,419.8,300.9,419.6,301.1z"/>
	<path fill="#0DB6A5" d="M401.4,306.3c-0.2-0.4-0.3-0.8-0.6-1.1c-0.3-0.3-0.4-0.7-0.1-1c0.3-0.3,0.7-0.1,1,0.1
		c0.5,0.4,0.8,0.9,0.9,1.5c0.1,0.6-0.6,2-1.2,2.2c-0.3,0.1-0.7,0-0.9-0.2c-0.3-0.2-0.1-0.5,0.2-0.7
		C401,306.9,401.2,306.6,401.4,306.3z"/>
</g>
<g>
	<path fill="#0DB6A5" d="M519.5,287.4c-0.6,0-1.2,0-1.8,0c-0.5,0-0.9-0.1-1.4-0.2c-0.2,0-0.3-0.2-0.4-0.3c-0.1-0.1-0.2-0.4-0.1-0.5
		c0-0.1,0.3-0.2,0.5-0.2c1,0,2,0,2.9,0c0.5,0,0.9-0.1,1.4-0.1c0.3,0,0.8,0.1,1,0.3c0.1,0.1,0,0.6-0.1,0.9c-0.3,0.6-0.6,1.1-1,1.6
		c-0.2,0.3-0.1,0.4,0.1,0.6c0.4,0.5,0.9,1,1.1,1.5c0.5,1.5,0.1,2.4-1.4,2.8c-1,0.2-2,0.2-3-0.2c-0.4-0.1-0.6-0.5-0.5-0.8
		c0.1-0.3,0.3-0.6,0.5-0.7c0.3-0.1,0.7,0.1,0.9,0.3c0.5,0.4,2,0.4,2.3-0.1c0.1-0.1,0.1-0.3,0.1-0.5c-0.1-0.8-0.7-1.3-1.4-1.4
		c-0.1,0-0.2-0.1-0.3-0.1c-0.8-0.3-0.9-0.5-0.3-1.2c0.4-0.5,0.7-0.9,1.1-1.4C519.6,287.5,519.5,287.4,519.5,287.4z"/>
	<path fill="#0DB6A5" d="M537.3,285.9c0.2,0.1,0.5,0.4,0.8,0.6c0.5,0.4,1.1,0.7,1,1.5c0,0.2,0,0.5-0.1,0.6c-0.4,0.6-0.3,1.1,0,1.7
		c0.6,1,0.1,2.5-0.9,3c-0.6,0.3-1.4,0.3-1.8,0c-0.8-0.7-1.1-1.5-0.7-2.4c0.1-0.2,0.1-0.4,0.2-0.6c0.2-0.4,0.1-0.7-0.2-1
		c-0.7-0.9-0.7-1.8,0-2.8C536.3,286,536.5,285.9,537.3,285.9z M536.8,288c0,0.5,0.2,0.8,0.5,0.8c0.5,0,1-0.6,1-1.1
		c0-0.4-0.3-0.7-0.7-0.7C537.1,287,536.8,287.4,536.8,288z M538.2,291.3c0-0.2,0-0.4-0.1-0.5c-0.1-0.2-0.2-0.3-0.3-0.5
		c-0.1,0.1-0.3,0.2-0.4,0.3c-0.2,0.4-0.3,0.7-0.4,1.1c0,0.2,0.2,0.5,0.3,0.5c0.2,0,0.4-0.1,0.6-0.3
		C538.1,291.8,538.2,291.5,538.2,291.3z"/>
	<path fill="#0DB6A5" d="M532.8,287.3c0.1,1.4,0.2,2.9,0.3,4.4c0,0.3,0.1,0.7,0,1c0,0.2-0.3,0.5-0.4,0.5c-0.2,0-0.7-0.1-0.8-0.3
		c-0.2-0.4-0.3-0.8-0.3-1.2c0-0.4-0.2-0.4-0.4-0.4c-0.7,0-1.4-0.1-2.1-0.2c-0.3,0-0.6-0.1-0.8-0.3c-0.4-0.4-0.4-0.6,0-1.1
		c0.8-1,1.5-2,2.3-3c0.1-0.1,0.1-0.2,0.2-0.3c0.3-0.1,0.4-0.2,0.5-0.6c0.1-0.4,0.7-0.5,1.1-0.2C532.6,286.2,532.9,286.6,532.8,287.3
		z M531.4,288.4c0,0-0.1,0-0.1-0.1c-0.4,0.5-0.8,1-1.3,1.5c0.2,0.1,0.3,0.1,0.4,0.1c0.9,0.2,1.3,0,1.1-0.9
		C531.4,288.8,531.4,288.6,531.4,288.4z"/>
	<path fill="#0DB6A5" d="M545.9,290.1c-0.1,1.7-0.5,2.8-1.5,3.8c-0.6,0.6-1.3,0.5-2,0c-0.9-0.5-1.3-1.4-1.6-2.3
		c-0.4-1.4-0.2-2.7,0.4-4c0.3-0.7,0.9-0.8,1.6-0.8c1.2,0.1,2.1,0.6,2.5,1.7C545.6,289.1,545.8,289.7,545.9,290.1z M544.8,290.7
		c0-1.4-0.5-2.2-1.2-2.8c-0.3-0.3-0.8-0.1-1,0.2c-0.2,0.4-0.3,0.7-0.5,1.1c-0.5,1.3,0,2.4,0.8,3.4c0.4,0.5,0.8,0.4,1.1-0.1
		C544.5,291.9,544.8,291.1,544.8,290.7z"/>
	<path fill="#0DB6A5" d="M525.5,295c0,1-0.8,1.5-1.4,2.1c-0.3,0.3-0.7,0.1-1-0.2c-0.3-0.3-0.2-0.5,0.1-0.8c0.3-0.2,0.6-0.5,0.7-0.8
		c0.1-0.2,0.1-0.5,0.1-0.8c-0.1-0.4-0.5-0.7,0-1.1c0.4-0.3,0.8,0.1,1.1,0.4C525.2,294.2,525.3,294.7,525.5,295z"/>
</g>
<g>
	<path fill="#0DB6A5" d="M668.4,256.3c-0.1,0.8-0.1,1.5-0.1,2.3c0,0.2,0.2,0.5,0.1,0.7c-0.2,0.9,0,1.7,0.2,2.5c0.1,0.3,0,0.7-0.1,1
		c-0.1,0.2-0.4,0.4-0.6,0.5c-0.3,0.1-0.6-0.1-0.6-0.5c0-0.5-0.1-1-0.1-1.5c0-0.5-0.1-1-0.1-1.6c0-0.2-0.2-0.4-0.3-0.4
		c-0.4,0-0.8,0-1.2,0c-0.6,0-1.1,0.1-1.7,0.1c-0.5,0-0.7-0.6-0.4-1c0.2-0.3,0.5-0.6,0.7-1c0.5-0.9,1-1.8,1.5-2.7
		c0.2-0.3,0.4-0.6,0.8-0.7c0.1,0,0.3-0.1,0.3-0.3c0.2-0.3,0.4-0.5,0.8-0.3c0.4,0.1,0.7,0.3,0.8,0.8c0,0.7,0,1.4,0,2.1
		C668.2,256.3,668.3,256.3,668.4,256.3z M666.6,256.4c0,0-0.1,0-0.1,0c-0.3,0.5-0.6,0.9-1,1.5c0.5,0,0.7,0,1,0
		c0.1,0,0.2-0.2,0.2-0.2C666.7,257.2,666.6,256.8,666.6,256.4z"/>
	<path fill="#0DB6A5" d="M655.5,257.3c0.1,1.3,0.2,2.5,0.3,3.8c0,0.4-0.1,0.8-0.1,1.2c0,0.4-0.2,0.6-0.6,0.6c-0.4,0-0.8,0-0.8-0.6
		c-0.1-0.8-0.2-1.6-0.2-2.3c0-0.4-0.2-0.6-0.6-0.6c-0.7,0-1.4-0.1-2.1-0.2c-0.6-0.1-0.8-0.7-0.4-1.2c0.9-0.9,1.3-2,1.8-3.1
		c0.2-0.4,0.3-0.7,0.9-0.6c0.1,0,0.3-0.1,0.4-0.2c0.5-0.5,1.3-0.4,1.5,0.3c0.1,0.5,0.1,1.1,0.1,1.7
		C655.6,256.6,655.6,257,655.5,257.3C655.6,257.3,655.5,257.3,655.5,257.3z M653.9,256.2c-0.1,0-0.1,0-0.2,0
		c-0.3,0.6-0.6,1.1-0.9,1.7c0.7,0.2,1,0.2,1.1-0.1C654,257.2,653.9,256.7,653.9,256.2z"/>
	<path fill="#0DB6A5" d="M657.3,257.7c0-1.1,0.2-2.1,0.7-2.9c0.4-0.6,1.3-1,2.1-0.3c1.1,1,1.7,2.4,1.8,3.9c0,0.7,0,1.4-0.2,2
		c-0.2,0.8-0.6,1.4-1.5,1.7c-0.7,0.2-1.2-0.2-1.6-0.6C657.5,260.4,657.4,259,657.3,257.7z M659.3,256c-0.1,0-0.1,0-0.2,0
		c-0.1,0.5-0.2,1-0.2,1.5c0.1,0.9,0.2,1.8,0.4,2.7c0,0.2,0.3,0.4,0.6,0.5c0.1,0,0.3-0.2,0.4-0.3c0.1-0.2,0.2-0.4,0.2-0.6
		C660.7,258.3,660.2,257.1,659.3,256z"/>
	<path fill="#0DB6A5" d="M644.2,257.3c0,0.9,0,1.9,0,2.8c0,0.4,0.2,0.9,0.2,1.3c0,0.2,0.1,0.4,0.1,0.5c-0.1,0.3,0,0.7-0.5,0.8
		c-0.5,0.1-0.9-0.2-1-0.7c-0.1-0.7-0.2-1.3-0.2-2c0-0.5-0.3-0.7-0.7-0.6c-0.4,0-0.9,0.2-1.3,0.2c-0.3,0-0.6-0.1-0.8-0.3
		c-0.1-0.1,0-0.5,0.1-0.7c0.5-1,1-2,1.5-3c0.3-0.6,1.3-1,1.9-0.8c0.2,0.1,0.4,0.3,0.5,0.5c0.1,0.3,0.1,0.6,0.2,1
		C644.2,256.6,644.2,256.9,644.2,257.3C644.2,257.3,644.2,257.3,644.2,257.3z M641.9,258.1c0,0,0,0.1,0.1,0.1c0.2,0,0.6,0,0.7-0.1
		c0.1-0.3,0-0.6,0-1c-0.1,0-0.1,0-0.2,0C642.3,257.4,642.1,257.7,641.9,258.1z"/>
	<path fill="#0DB6A5" d="M646.6,266c-0.2-0.1-0.4-0.2-0.6-0.4c0,0,0.2-0.4,0.3-0.5c0.6-0.6,0.7-1.1,0.2-1.9c-0.2-0.3-0.3-0.6,0-0.8
		c0.2-0.1,0.5-0.1,0.7,0c0.4,0.1,0.8,0.4,1,0.8c0.4,0.9-0.3,2.6-1.3,2.8C646.8,266,646.8,266,646.6,266z"/>
</g>
<g>
	<path fill="#0DB6A5" d="M171.2,376.1c0-0.5,0-1,0-1.5c0-0.3-0.1-0.4-0.4-0.3c-0.3,0.1-0.7,0.1-1,0c-1.1-0.2-1.3-0.9-1.1-1.9
		c0.1-0.4,0.4-0.8,0.6-1.2c0.7-0.9,1.4-0.7,2.6-0.1c0.5,0.3,0.8,0.7,0.7,1.3c-0.1,1.2-0.1,2.4,0,3.6c0,0.7,0.1,1.3,0.1,2
		c0,0.6-0.2,0.9-0.8,1c-0.5,0.1-0.6-0.4-0.6-0.7C171.2,377.6,171.2,376.9,171.2,376.1C171.2,376.1,171.2,376.1,171.2,376.1z
		 M171.2,372.1c-0.1,0-0.1-0.1-0.2-0.1c-0.5,0.1-0.6,0.5-0.8,0.8c0,0.1,0,0.3,0,0.3c0.1,0,0.3,0.1,0.3,0
		C170.8,372.8,171,372.4,171.2,372.1z"/>
	<path fill="#0DB6A5" d="M162.3,373.3c0-1.8,1.8-2.9,3.2-2.2c0.3,0.1,0.5,0.3,0.8,0.5c0.4,0.2,0.4,0.6,0.4,1c-0.1,0.8-0.1,1.6,0,2.5
		c0.1,0.9,0.2,1.8,0.4,2.7c0,0.4,0.2,0.9-0.4,1c-0.5,0.1-0.9-0.1-1-0.7c-0.2-0.9-0.3-1.8-0.4-2.8c-0.1-0.4-0.2-0.6-0.7-0.6
		c-0.5,0-1-0.1-1.4-0.2C162.5,374.2,162.3,373.7,162.3,373.3z M165,372.5c0,0-0.1-0.2-0.3-0.3c-0.4-0.1-0.9,0.5-0.8,0.9
		c0,0.1,0.2,0.4,0.3,0.4C164.5,373.6,164.9,373,165,372.5z"/>
	<path fill="#0DB6A5" d="M151,377.8c-0.1,0.4,0.1,1-0.6,1.1c-0.6,0.1-1-0.2-1-0.8c-0.1-1-0.1-2.1-0.2-3.1c-0.1-1.1-0.4-2.1-0.6-3.2
		c-0.1-0.6,0-0.9,0.5-1c0.4-0.1,0.8,0.2,0.9,0.7c0.3,1.8,0.6,3.5,1,5.3C151,377.2,151,377.5,151,377.8z"/>
	<path fill="#0DB6A5" d="M158.6,376.5c-0.2-1.3-0.4-2.5-0.7-3.8c-0.1-0.6,0-1,0.3-1.2c0.4-0.1,1,0.3,1.1,0.8
		c0.1,0.8,0.2,1.6,0.3,2.4c0.1,1,0.3,2.1,0.4,3.1c0.1,0.4,0,0.7-0.4,0.9c-0.4,0.2-0.9-0.1-1-0.5c-0.1-0.6-0.2-1.1-0.3-1.7
		C158.5,376.5,158.6,376.5,158.6,376.5z"/>
	<path fill="#0DB6A5" d="M155.5,379.1c-0.1,0.3-0.3,0.7-0.4,1c-0.1,0.2-0.3,0.4-0.3,0.6c0,0.6-0.5,0.5-0.8,0.5
		c-0.4-0.1-0.5-0.4-0.4-0.8c0.1-0.3,0.3-0.5,0.3-0.8c0-0.3-0.1-0.7-0.2-1c-0.2-0.3-0.5-0.7-0.2-1c0.2-0.2,0.8-0.1,1.1,0
		C155.1,377.9,155.4,378.4,155.5,379.1z"/>
</g>
<g>
	<path fill="#0DB6A5" d="M234.2,340.9c1,0.1,1.1,0.1,1.3,1c0.1,0.2-0.1,0.6-0.3,0.8c-0.2,0.2-0.1,0.3,0.1,0.5
		c0.4,0.4,0.8,0.9,1.1,1.4c0.5,0.8,0.2,1.8-0.5,2.4c-0.5,0.4-0.9,0.5-1.5,0.4c-0.2-0.1-0.5,0-0.7,0c-0.3,0-0.7,0-0.8-0.4
		c-0.1-0.3,0-0.7,0-1c0.3,0,0.7,0,1,0.1c0.3,0.1,0.5,0.4,0.8,0.2c0.2-0.2,0.4-0.6,0.5-0.9c0.1-0.6-0.3-1-0.9-1.2
		c-0.2,0-0.3-0.1-0.5-0.1c-0.6-0.2-0.8-0.5-0.5-1.1c0.1-0.1,0.1-0.3,0.1-0.5c-0.2,0-0.4,0-0.5-0.1c-0.3-0.1-0.6-0.1-0.9-0.2
		c-0.1-0.1-0.3-0.4-0.2-0.5c0-0.2,0.2-0.4,0.4-0.4C232.7,341.1,233.4,341,234.2,340.9z"/>
	<path fill="#0DB6A5" d="M219.7,342.9c0-0.3,0-0.7,0.1-1c0.1-0.5,0.7-0.8,1.4-0.7c1.5,0.2,2.7,1.1,2.8,2.9c0.1,1.1-0.1,2.2-1.1,3
		c-0.7,0.5-1.9,0.1-2.4-0.6C219.9,345.3,219.9,344.1,219.7,342.9z M222.8,344.3c0.1-0.7-0.2-1.3-0.8-1.8c-0.5-0.3-0.8-0.2-0.8,0.4
		c0.1,0.9,0.3,1.9,0.5,2.8c0,0.2,0.3,0.3,0.4,0.4c0.1-0.1,0.3-0.3,0.3-0.4C222.6,345.3,222.6,344.8,222.8,344.3z"/>
	<path fill="#0DB6A5" d="M229.4,347.7c-0.3,0-0.7,0.1-1.1,0.1c-0.3,0-0.6,0-0.9,0c-0.4-0.1-0.6-0.3-0.5-0.7c0.2-0.5,0.4-0.9,0.6-1.4
		c0.2-0.8,0.4-1.5,0.5-2.3c0-0.5-0.2-0.6-0.7-0.3c-0.5,0.3-0.8,0.3-1.1,0c-0.2-0.3-0.2-0.6,0.1-0.8c0.5-0.3,1.1-0.5,1.6-0.7
		c0.6-0.1,1.2,0.6,1.4,1.2c0.4,1.2-0.2,2.2-0.5,3.2c-0.1,0.5,0,0.5,0.4,0.5c0.3,0,0.7-0.1,1,0c0.3,0.1,0.5,0.4,0.3,0.7
		c-0.1,0.2-0.5,0.3-0.7,0.5C229.7,347.8,229.6,347.7,229.4,347.7z"/>
	<path fill="#0DB6A5" d="M211.3,345.8c0.5,0,0.9,0,1.4,0c0.2,0,0.4,0.2,0.6,0.3c0.1,0.1,0.1,0.4,0,0.4c-0.2,0.1-0.5,0.3-0.8,0.3
		c-0.3,0.1-0.5,0-0.8,0.1c-0.6,0.1-1.2,0.2-1.7,0.3c-0.2,0-0.6-0.2-0.6-0.3c0-0.2,0.1-0.6,0.2-0.8c0.5-0.8,1-1.5,0.8-2.5
		c0-0.2-0.2-0.5-0.3-0.5c-0.2,0-0.5,0.1-0.6,0.2c-0.3,0.4-0.7,0.5-1.1,0.3c-0.1-0.1-0.2-0.3-0.2-0.4c0.3-1,1.6-1.7,2.5-1.1
		c1.2,0.7,1.3,1.4,0.9,2.4C211.4,344.8,211.4,345.3,211.3,345.8z"/>
	<path fill="#0DB6A5" d="M217.2,348.2c0,0.5-0.1,1-0.1,1.5c0,0.4-0.2,0.7-0.7,0.6c-0.5-0.1-0.6-0.3-0.6-0.8c0-0.7,0-1.5,0-2.2
		c0-0.4,0.1-0.8,0.5-0.8c0.3,0,0.6,0.3,0.9,0.5c0,0,0,0.1,0,0.2C217.1,347.6,217.1,347.9,217.2,348.2z"/>
</g>
<g>
	<path fill="#0DB6A5" d="M827.1,104.6c0.6,0.2,1.4,0.3,2,0.6c0.6,0.2,0.9,1.3,0.7,1.9c-0.2,0.4-0.5,0.8-0.6,1.3
		c-0.1,0.1,0,0.4,0,0.5c0.2,0.4,0.5,0.8,0.7,1.2c0.4,1.2-0.1,2.9-1.1,3.7c-1,0.8-2.1,0.6-2.9-0.3c-0.5-0.6-0.8-1.2-0.7-1.9
		c0-0.8,0.3-1.7,0.6-2.4c0.1-0.3,0.2-0.6,0-0.9c-0.5-0.7-0.6-2.2-0.1-3C826,104.7,826.5,104.5,827.1,104.6z M829,110.9
		c-0.1-0.4-0.2-0.8-0.3-1.2c-0.2-0.4-1.3-0.6-1.6-0.3c-0.8,0.8-0.9,2.5-0.1,3.4c0.3,0.3,0.6,0.4,0.9,0.1
		C828.5,112.4,829,111.8,829,110.9z M826.7,106.8c0,0.6,0.3,1.1,0.8,1.1c0.6,0,1.4-0.7,1.4-1.5c0-0.6-0.5-1.1-1.2-1.1
		C827.1,105.3,826.7,105.9,826.7,106.8z"/>
	<path fill="#0DB6A5" d="M838.8,108.9c0.6,0.5,1.2,0.9,1.7,1.4c0.6,0.5,0.9,1.7,0.6,2.4c0,0.1-0.1,0.2-0.1,0.2
		c-0.4,1.4-1.2,1.7-2.4,1.7c-0.5,0-0.9,0-1.4-0.1c-0.2-0.1-0.5-0.5-0.6-0.7c-0.1-0.2,0.1-0.5,0.3-0.7c0.4-0.3,0.8-0.2,1,0.1
		c0.3,0.3,0.6,0.5,1,0.3c0.4-0.2,0.8-0.5,0.9-1c0.2-0.9-0.2-1.6-1-2c-0.1-0.1-0.3-0.1-0.4-0.1c-0.1,0-0.3,0.2-0.4,0.2
		c-0.4,0-0.8,0.2-1.1,0c-0.4-0.3-0.1-0.7,0-1c0.4-0.8,0.7-1.6,1.1-2.3c0.1-0.2,0.2-0.5,0.1-0.6c-0.1-0.1-0.4-0.2-0.6-0.2
		c-0.6,0.1-1.2,0.2-1.9,0.3c-0.1,0-0.2,0-0.3,0c-0.4,0-0.8-0.1-0.8-0.5c0-0.4,0.4-0.6,0.8-0.6c0.6-0.1,1.2-0.2,1.8-0.3
		c0.2,0,0.4,0,0.7,0c0.4,0,0.9,0,1.3,0.1c0.3,0.1,0.7,0.2,0.8,0.4c0.1,0.2,0,0.6-0.1,0.9C839.5,107.6,839.2,108.3,838.8,108.9z"/>
	<path fill="#0DB6A5" d="M843.5,110.7c0.2-0.3,0.3-0.5,0.4-0.6c0.3-0.6,0.9-0.8,1.4-0.7c0.6,0.1,1.1,0.7,1.3,1.2
		c0.3,0.8,0.3,1.5-0.2,2.2c-0.3,0.4-0.7,1-1.1,1.1c-0.5,0.1-1.3,0.1-1.8-0.2c-1-0.7-1.5-1.8-1.5-3.1c0-0.9,0-1.7,0.1-2.6
		c0-0.4,0.2-0.8,0.4-1.2c0.2-0.5,0.6-0.7,1-0.4c0.4,0.2,0.4,0.6,0.2,1c-0.4,1-0.7,2.1-0.4,3.2C843.4,110.4,843.4,110.5,843.5,110.7z
		 M844.7,112.2c0.1,0,0.1,0,0.2,0.1c0.5-0.3,0.7-0.8,0.6-1.3c0-0.1-0.1-0.1-0.2-0.2c0,0-0.1,0-0.2,0.1
		C845,111.4,844.9,111.8,844.7,112.2z"/>
	<path fill="#0DB6A5" d="M851.5,113.8c-0.6,0-1.3,0-1.9-0.1c-0.7-0.1-1-0.7-0.7-1.4c0.4-1.1,0.7-2.2,1.2-3.3
		c0.3-0.7,0.5-1.4,0.4-2.2c0-0.1-0.1-0.2-0.2-0.4c-0.1,0.1-0.2,0.1-0.3,0.2c-0.2,0.2-0.4,0.4-0.7,0.7c-0.2,0.2-0.8,0.2-1-0.1
		c-0.1-0.1-0.1-0.3,0-0.4c0.3-0.7,0.8-1.3,1.5-1.7c0.6-0.4,2.1,0.3,2.1,1.3c0,0.9-0.3,1.9-0.4,2.8c0,0.2-0.1,0.4-0.2,0.5
		c-0.2,0.7-0.5,1.3-0.7,2c-0.2,0.6-0.1,0.8,0.6,0.8c0.4,0,0.8-0.1,1.2-0.1c0.3,0,0.7,0.1,0.9,0.3c0.3,0.3,0.1,0.7-0.2,0.9
		c-0.3,0.2-0.6,0.2-0.9,0.2C851.9,113.8,851.7,113.8,851.5,113.8C851.5,113.8,851.5,113.8,851.5,113.8z"/>
	<path fill="#0DB6A5" d="M833.8,114.1c0,0.7,0,1.4,0,2c0,0.5-0.4,0.8-0.9,0.7c-0.5-0.1-0.6-0.4-0.5-0.8c0.1-0.5,0.2-0.9,0.3-1.4
		c0-0.3,0-0.7,0-1c0-0.2,0.1-0.6,0.3-0.6c0.3-0.1,0.7,0,0.8,0.4c0.1,0.2,0.1,0.4,0.2,0.6C833.8,114.1,833.8,114.1,833.8,114.1z"/>
</g>
<g>
	<path fill="#0DB6A5" d="M334.8,304.2c-0.9-0.1-1.7-0.2-2.5-0.3c-0.1,0-0.1,0-0.2,0c-0.2-0.1-0.4-0.3-0.6-0.5
		c0.2-0.1,0.5-0.4,0.7-0.4c1,0,2.1,0.1,3.1,0.2c0.3,0,0.7,0.1,1,0.2c0.5,0.1,0.4,0.4,0.2,0.7c-0.3,0.5-0.7,0.9-0.9,1.3
		c0.5,0.4,1,0.7,1.2,1.2c0.6,0.9,0.5,1.8-0.1,2.7c-0.7,1.1-1.3,1.3-2.6,1c-0.2-0.1-0.6,0.1-0.8-0.1c-0.2-0.1-0.5-0.4-0.5-0.7
		c0-0.2,0.2-0.5,0.5-0.7c0.3-0.2,0.5-0.1,0.8,0.2c0.4,0.5,1.2,0.4,1.6-0.2c0.3-0.5,0.4-1,0.2-1.6c-0.2-0.6-0.7-0.8-1.3-0.5
		c-0.2,0.1-0.4,0.2-0.6,0.2c-0.2,0-0.5-0.2-0.7-0.3c-0.1-0.1,0-0.5,0.1-0.6c0.3-0.4,0.6-0.8,1-1.2
		C334.6,304.7,334.6,304.5,334.8,304.2z"/>
	<path fill="#0DB6A5" d="M348.4,306.6c-0.1,1-0.4,1.8-0.9,2.5c-0.5,0.6-1.5,0.6-2.2,0.1c-1.1-0.9-1.4-2.1-1.4-3.4
		c0-0.6,0-1.1,0.2-1.7c0.2-0.9,0.7-1.1,1.6-1.1c0.7,0,1.2,0.2,1.7,0.8c0.4,0.5,0.7,1.1,0.8,1.7C348.2,306,348.3,306.3,348.4,306.6z
		 M345.2,305.8C345.2,305.8,345.3,305.8,345.2,305.8c0.1,0.2,0,0.3,0.1,0.5c0.2,0.6,0.2,1.2,0.5,1.7c0.3,0.6,0.7,0.6,0.9,0
		c0.2-0.5,0.2-1.1,0.3-1.6c0.1-0.7-0.1-1.4-0.8-1.8c-0.3-0.2-0.7-0.2-0.8,0.1C345.3,305,345.3,305.4,345.2,305.8z"/>
	<path fill="#0DB6A5" d="M359,305.9c-0.2,0.6-0.6,1.4-0.9,2.3c-0.1,0.2-0.1,0.4-0.2,0.6c0.2,0,0.4,0,0.7,0c0.2,0,0.3-0.1,0.5-0.1
		c0.6,0,0.9,0.2,0.9,0.8c0,0.3-0.5,0.6-0.9,0.5c-0.4-0.1-0.9-0.1-1.3-0.2c-0.3,0-0.7,0-1,0c-0.5-0.1-0.7-0.3-0.5-0.9
		c0.1-0.4,0.4-0.8,0.5-1.2c0.3-0.8,0.7-1.5,1-2.3c0.2-0.5-0.1-0.7-0.6-0.5c-0.3,0.1-0.5,0.3-0.8,0.3c-0.3,0-0.6-0.1-0.8-0.2
		c-0.2-0.3,0-0.5,0.3-0.7c0.5-0.4,1.1-0.7,1.8-0.7C358.6,303.9,359,304.4,359,305.9z"/>
	<path fill="#0DB6A5" d="M352.6,308.8c0.3,0,0.5,0.1,0.8,0.1c0.3,0,0.6,0.1,0.6,0.4c0,0.3-0.2,0.6-0.4,0.8c-0.1,0.1-0.4,0.1-0.6,0.1
		c-0.6,0-1.2-0.1-1.7-0.2c-0.6-0.1-0.8-0.6-0.4-1c0.6-0.7,0.8-1.5,1.1-2.3c0.1-0.3,0.1-0.7,0.1-1.1c0-0.4-0.1-0.5-0.5-0.3
		c-0.2,0.1-0.4,0.2-0.6,0.3c-0.2,0-0.6-0.1-0.7-0.2c-0.1-0.1,0-0.5,0.1-0.7c0.6-0.7,1.5-1,2.2-0.6c0.6,0.2,0.9,0.8,0.9,1.3
		c0.1,0.6-0.1,1.1-0.3,1.7C352.8,307.6,352.7,308.2,352.6,308.8z"/>
	<path fill="#0DB6A5" d="M341.2,311.1c-0.1,0.7-0.3,1.3-0.7,1.9c-0.3,0.4-0.6,0.3-0.9,0.1c-0.3-0.2-0.3-0.5-0.1-0.8
		c0.4-0.6,0.4-1.2,0.4-1.9c0-0.2,0.2-0.5,0.5-0.7c0.1-0.1,0.5,0.1,0.6,0.2c0.2,0.3,0.2,0.6,0.3,0.9
		C341.2,310.9,341.2,311,341.2,311.1z"/>
</g>
<g>
	<path fill="#0DB6A5" d="M596.4,270.4c0.2-0.7,0.3-1.5,0.7-2.2c0.3-0.5,0.8-0.9,1.3-1.3c0.2-0.1,0.8,0.1,0.9,0.4
		c0.9,1.2,1.7,2.5,1.4,4.1c-0.1,0.8-0.5,1.6-1.2,2c-0.9,0.6-2.3,0.1-2.7-0.9C596.7,271.8,596.6,271.2,596.4,270.4z M598.5,268
		c-0.4,0.9-0.6,1.8-0.6,2.7c0,0.4,0.1,0.8,0.3,1.2c0.3,0.6,0.7,0.7,1,0.1c0.2-0.5,0.4-1,0.3-1.5C599.5,269.6,599.4,268.7,598.5,268z
		"/>
	<path fill="#0DB6A5" d="M593.9,269.4c0,1-0.3,1.9-0.7,2.7c0,0-0.1,0.1-0.1,0.1c-0.1,0.3-0.1,0.6-0.2,0.8c0.2,0,0.5,0,0.7,0
		c0.3,0,0.6,0,0.9,0.1c0.2,0.1,0.4,0.3,0.4,0.5c0,0.2-0.3,0.5-0.4,0.5c-0.8,0.1-1.7,0.1-2.6,0.2c-0.1,0-0.3,0.1-0.4,0
		c-0.2,0-0.4-0.1-0.4-0.2c-0.1-0.1,0-0.3,0-0.5c0.3-0.8,0.7-1.6,1-2.5c0.2-0.5,0.3-1,0.4-1.5c0.1-0.5,0.2-1.1-0.3-1.3
		c-0.5-0.2-0.7,0.4-1,0.7c-0.3,0.4-0.6,0.8-1.1,0.7c-0.3,0-0.4-0.1-0.3-0.4c0.2-0.8,0.7-1.4,1.3-1.9c0.5-0.5,1.1-0.3,1.7-0.1
		c0.7,0.3,1.1,0.8,1.1,1.5C593.9,269,593.9,269.2,593.9,269.4z"/>
	<path fill="#0DB6A5" d="M583,270.5c-0.5-0.1-1-0.1-1.5-0.2c-0.2-0.1-0.4-0.3-0.5-0.5c-0.1-0.2,0-0.5,0.3-0.6
		c0.3-0.1,0.7-0.3,0.8-0.6c0.2-0.6,0.7-0.9,1.1-1.3c0.3-0.3,0.6-0.6,0.9-0.8c0.3-0.2,0.9,0.1,1,0.6c0.1,0.4,0.2,0.7,0.2,1.1
		c0,1.1-0.1,2.1-0.1,3.2c0,0.7,0.1,1.3,0.1,2c0,0.2-0.2,0.6-0.4,0.6c-0.3,0-0.6-0.1-0.7-0.5c0-0.2-0.1-0.4-0.1-0.6
		c0-0.5-0.1-1.1-0.1-1.6c0-0.6-0.3-0.8-0.8-0.7C583.1,270.5,583,270.5,583,270.5C583,270.5,583,270.5,583,270.5z M582.5,269.3
		c0,0.1,0.1,0.2,0.1,0.3c0.4,0,1,0.1,1.2-0.1c0.2-0.2,0.1-0.8,0.1-1.4C583.4,268.6,582.9,269,582.5,269.3z"/>
	<path fill="#0DB6A5" d="M602,267c0.1-0.2,0.2-0.6,0.4-0.6c0.2-0.1,0.5,0.1,0.7,0.2c0.2,0.2,0.4,0.5,0.4,0.7
		c0.2,1.2,0.3,2.4,0.5,3.6c0.1,0.7,0.2,1.3,0.2,2c0,0.2-0.3,0.6-0.4,0.6c-0.3,0-0.6-0.1-0.8-0.4c-0.2-0.2-0.2-0.6-0.2-0.8
		c-0.2-1.6-0.5-3.3-0.7-4.9C602.1,267.3,602.1,267.2,602,267C602,267,602,267,602,267z"/>
	<path fill="#0DB6A5" d="M587.7,277.6c-0.3-0.2-0.5-0.4-0.6-0.5c0-0.1,0.1-0.3,0.2-0.4c0.1-0.2,0.4-0.4,0.5-0.6
		c0.2-0.4,0.3-0.8-0.1-1.3c-0.2-0.2-0.2-0.5-0.3-0.8c0-0.1,0.1-0.3,0.2-0.5c0.1,0.1,0.1,0.2,0.2,0.2c0.1,0.1,0.3,0.1,0.4,0.2
		c0.7,0.4,0.7,1.2,0.8,1.8c0.1,0.2,0.2,0.9-0.5,1c-0.1,0-0.1,0.2-0.2,0.2C588.1,277.1,588,277.3,587.7,277.6z"/>
</g>
<g>
	<path fill="#0DB6A5" d="M288.4,342.1c-1.2-0.2-1.9-0.9-1.9-2.2c0-0.5,0.1-0.9,0.2-1.4c0-0.2-0.1-0.4-0.2-0.5
		c-0.9-0.8-0.9-2.3-0.2-3.1c0.5-0.5,1-0.2,1.5-0.1c0.3,0.1,0.6,0.2,0.9,0.4c0.8,0.5,1,1.2,0.7,2.1c-0.1,0.3,0,0.6,0.1,0.9
		c0.8,1.3,0.4,2.6-0.4,3.6C289,341.9,288.7,342,288.4,342.1z M289.1,339.8C289.1,339.8,289.1,339.8,289.1,339.8
		c-0.1-0.3-0.1-0.5-0.2-0.7c-0.1-0.2-0.3-0.3-0.4-0.4c-0.1,0-0.2,0.1-0.3,0.1c-0.4,0.6-0.4,1.3-0.1,1.9c0.1,0.3,0.4,0.4,0.6,0.1
		C288.8,340.5,289,340.1,289.1,339.8z M287.1,336.6c0.3,0.3,0.4,0.5,0.6,0.6c0.3,0.1,0.7-0.4,0.7-0.8c0-0.4-0.3-0.7-0.7-0.6
		C287.5,335.8,287.3,336.2,287.1,336.6z"/>
	<path fill="#0DB6A5" d="M293.7,338.1c0.5-0.2,1-0.5,1.4-0.6c1.1-0.3,1.9,0.6,1.6,1.7c-0.2,0.8-0.5,1.6-1.4,2
		c-0.9,0.4-1.8,0.4-2.5-0.6c-1-1.5-0.9-3-0.2-4.6c0.1-0.2,0.2-0.5,0.4-0.7c0.2-0.4,0.5-0.5,0.9-0.4c0.4,0.1,0.5,0.5,0.4,0.9
		c-0.1,0.4-0.3,0.7-0.4,1C293.9,337.2,293.8,337.6,293.7,338.1z M294.6,340.1c0,0,0.1,0.1,0.1,0.1c0.5-0.2,0.8-0.6,0.9-1.1
		c0-0.1,0-0.2,0-0.3c-0.1,0-0.3,0.1-0.3,0.1C295,339.3,294.8,339.7,294.6,340.1z"/>
	<path fill="#0DB6A5" d="M274.7,340c0.3,0,0.7,0,1,0c0.4,0,0.7,0.2,0.6,0.6c0,0.4-0.5,0.7-0.9,0.6c-0.7-0.4-1.3-0.2-1.9,0
		c-0.2,0.1-0.5,0-0.7-0.1c-0.4-0.1-0.5-0.6-0.1-0.9c0.2-0.2,0.3-0.3,0.4-0.5c0.4-0.8,0.8-1.7,1.1-2.6c0.1-0.3,0.1-0.8,0-1.1
		c-0.3-0.8-0.8-0.8-1.4-0.3c-0.3,0.2-0.6,0.4-1,0.6c-0.1,0.1-0.4,0-0.5-0.1c-0.1-0.1,0-0.3,0.1-0.4c0.7-0.7,1.4-1.6,2.6-1.3
		c0.3,0.1,0.8,0.4,0.9,0.7c0.2,0.5,0.4,1.1,0.3,1.7c-0.1,0.7-0.4,1.5-0.6,2.2c0,0.1-0.1,0.3-0.2,0.4c-0.1,0.2-0.2,0.3-0.2,0.5
		c0,0.1,0.3,0.1,0.4,0.2C274.6,340.1,274.7,340.1,274.7,340z"/>
	<path fill="#0DB6A5" d="M282.4,339.6c-0.1-1.6-0.3-3.2-0.4-4.8c0-0.2,0.1-0.5,0.2-0.6c0.3-0.3,0.7-0.2,0.8,0.2
		c0.2,0.5,0.3,1,0.4,1.6c0.1,0.9,0.2,1.7,0.3,2.6c0.1,0.7,0.1,1.4,0.1,2.2c0,0.2-0.2,0.5-0.2,0.5c-0.3,0-0.7,0.3-0.9-0.2
		c-0.2-0.4-0.3-0.9-0.4-1.4C282.3,339.6,282.4,339.6,282.4,339.6z"/>
	<path fill="#0DB6A5" d="M280.3,341.9c-0.3,0.7-0.5,1.2-0.9,1.7c-0.1,0.2-0.6,0.2-0.9,0.1c-0.2,0-0.5-0.3-0.5-0.5
		c0-0.2,0.2-0.5,0.4-0.6c0.5-0.3,0.7-0.9,0.4-1.4c-0.1-0.2-0.4-0.5,0-0.6c0.2-0.1,0.6-0.1,0.7,0C279.9,341.1,280,341.5,280.3,341.9z
		"/>
</g>
<g>
	<path fill="#0DB6A5" d="M471.8,293.1c0.1,0.7,0.2,1.4,0.3,2c0.1,0.4,0,0.7-0.4,0.8c-0.5,0.1-0.6-0.3-0.7-0.7
		c-0.1-0.3-0.1-0.7-0.2-1.1c-0.1-0.2-0.3-0.3-0.5-0.4c-0.7-0.5-1.5-0.1-2.3-0.2c-0.3,0-0.6-0.2-0.8-0.4c-0.2-0.2-0.2-0.5,0.1-0.7
		c0.8-0.9,1.5-1.9,1.9-3c0.1-0.4,0.4-0.5,0.8-0.5c0.2,0,0.4,0,0.6,0c0.6-0.1,1.1,0.1,1.1,0.7c0.1,1.1,0.2,2.3,0.4,3.4
		C471.9,293.1,471.8,293.1,471.8,293.1z M468.8,292.3c0,0.1,0.1,0.1,0.1,0.2c0.4,0,0.9-0.1,1.3-0.1c0.1,0,0.2-0.1,0.2-0.2
		c0.1-0.7,0.1-1.3-0.2-2C469.7,290.9,469.3,291.6,468.8,292.3z"/>
	<path fill="#0DB6A5" d="M478.1,290.6c0.1,1.4,0.2,2.8,0.3,4.2c0.1,0.6,0,0.8-0.6,0.9c-0.4,0.1-0.5-0.3-0.6-0.6
		c-0.1-0.4-0.1-0.7-0.1-1.1c0-0.6-0.2-0.8-0.8-0.9c-0.4,0-0.9,0-1.3,0c-0.2,0-0.5-0.1-0.7-0.2c-0.5-0.3-0.6-0.6-0.2-1
		c0.5-0.6,1-1.2,1.5-1.8c0.2-0.2,0.4-0.4,0.5-0.7c0.4-0.6,0.6-0.7,1.2-0.6c0.5,0.1,0.9,0.6,0.9,1.2
		C478.2,290.3,478.2,290.4,478.1,290.6C478.1,290.6,478.1,290.6,478.1,290.6z M476,291.8c0,0.1,0,0.1,0,0.2c0.2,0,0.5,0.1,0.7,0
		c0.1-0.1,0.1-0.4,0.1-0.6c0-0.1-0.1-0.2-0.1-0.2c-0.1,0-0.2,0-0.3,0.1C476.3,291.4,476.1,291.6,476,291.8z"/>
	<path fill="#0DB6A5" d="M457.7,288.9c1.4,0,2.3,0.9,2.4,2c0,0.2-0.1,0.5-0.2,0.7c-0.2,0.3-0.2,0.6,0.1,0.8c0.8,0.9,0.7,1.9,0.3,2.9
		c-0.2,0.5-0.6,0.7-1.2,0.7c-0.4,0-0.8,0-1.2,0c-0.5,0-0.6-0.3-0.8-0.6c-0.1-0.2-0.1-0.5,0.1-0.7c0.1-0.1,0.4-0.1,0.7-0.1
		c0.2,0,0.4,0.2,0.6,0.2c0.2,0,0.6,0.1,0.7,0c0.2-0.2,0.2-0.5,0.2-0.8c-0.2-0.9-0.3-0.9-1.2-0.9c-0.4,0-0.7-0.1-0.8-0.5
		c-0.1-0.4,0.2-0.5,0.5-0.7c0.3-0.2,0.6-0.5,0.9-0.8c0.3-0.3,0.3-0.8,0-1.1c-0.3-0.3-0.7-0.5-1.1-0.1c-0.3,0.3-0.7,0.5-1.1,0.2
		c-0.3-0.2-0.4-0.5,0-0.7C456.8,289.2,457.4,289,457.7,288.9z"/>
	<path fill="#0DB6A5" d="M481.8,290.1c0.1,0.8,0.1,1.5,0.2,2.3c0.1,1.1,0.1,2.3,0.2,3.4c0,0.3,0,0.7-0.4,0.7
		c-0.4,0.1-0.7-0.1-0.8-0.5c-0.1-0.5-0.1-1.1-0.2-1.6c-0.1-1.6-0.2-3.2-0.3-4.9c0-0.3-0.2-0.7,0.3-0.9c0.5-0.1,0.7,0.1,0.8,0.7
		C481.7,289.6,481.8,289.8,481.8,290.1C481.8,290.1,481.8,290.1,481.8,290.1z"/>
	<path fill="#0DB6A5" d="M464.3,296.7c-0.3,0.7-0.3,1.6-1,2.1c-0.3,0.2-0.5,0.1-0.7-0.1c-0.1-0.2-0.2-0.5-0.1-0.7
		c0-0.1,0.2-0.3,0.3-0.4c0.3-0.4,0.3-0.8,0.2-1.2c-0.1-0.2,0.1-0.5,0.1-0.7c0.3,0.1,0.7,0,0.9,0.2
		C464.2,296,464.2,296.4,464.3,296.7z"/>
</g>
<g>
	<path fill="#0DB6A5" d="M714.6,253.1c0.4,0,0.8,0,1.2,0.1c0.6,0.1,0.9,0.6,0.6,1.1c-0.3,0.5-0.6,1-0.9,1.5
		c-0.2,0.2-0.2,0.4,0.1,0.6c1.2,0.7,1.5,1.9,1.6,3.1c0,0.3-0.2,0.7-0.4,0.8c-0.5,0.4-1.1,0.7-1.7,0.6c-0.5-0.1-1.1-0.2-1.6-0.3
		c-0.7-0.1-0.9-1.1-0.7-1.6c0.1-0.2,0.4-0.3,0.7-0.4c0.3,0,0.6,0.2,0.6,0.6c0.1,0.6,0.5,0.9,1.1,0.8c0.6-0.1,0.8-0.3,0.7-1
		c0-0.2-0.1-0.5-0.1-0.7c-0.2-0.8-0.5-0.9-1.3-0.8c-0.3,0.1-0.6,0-1,0c-0.5-0.1-0.5-0.3-0.3-0.7c0.5-0.7,1-1.4,1.5-2.1
		c0.1-0.1,0.1-0.3,0.2-0.5c-0.2,0-0.3,0-0.5,0c-0.7,0-1.4,0.1-2,0.1c-0.2,0-0.4-0.3-0.5-0.4c0.1-0.1,0.3-0.4,0.5-0.4
		c0.4-0.1,0.8-0.2,1.3-0.3C713.8,253.1,714.3,253.1,714.6,253.1z"/>
	<path fill="#0DB6A5" d="M720.9,253.5c-0.4-0.1-0.8-0.1-1.2-0.1c-0.2,0-0.5-0.1-0.6-0.2c-0.2-0.1-0.4-0.4-0.4-0.5
		c0.1-0.2,0.3-0.5,0.5-0.5c0.5,0,1.1,0.1,1.6,0.1c0.3,0,0.6,0.1,1,0.2c0.7,0.1,1,0.6,0.5,1.2c-0.3,0.4-0.6,0.8-1,1.2
		c-0.2,0.2-0.2,0.4,0.1,0.6c0.3,0.2,0.6,0.6,0.9,0.9c0.8,0.9,0.9,2.1,0.8,3.3c0,0.4-0.5,0.9-0.9,0.9c-0.5,0-1-0.1-1.4-0.2
		c-0.3-0.1-0.6-0.1-0.8-0.2c-0.4-0.1-0.7-0.6-0.5-1c0.1-0.4,0.5-0.5,0.9-0.2c0.3,0.2,0.6,0.5,0.9,0.7c0.5,0.2,0.8,0,0.8-0.5
		c0-0.8-0.3-1.6-0.8-2.2c-0.3-0.3-0.7-0.6-1.2-0.3c-0.1,0.1-0.3,0.1-0.4,0.1c-0.3-0.1-0.6-0.2-0.9-0.3c0.1-0.2,0.2-0.5,0.4-0.7
		c0.5-0.6,1-1.1,1.5-1.6C720.8,253.7,720.8,253.6,720.9,253.5z"/>
	<path fill="#0DB6A5" d="M727.3,253.5c-0.4,0.4-0.7,0.7-0.9,1.1c-0.1,0.2-0.2,0.4-0.4,0.5c-0.1,0.1-0.4,0.1-0.6,0
		c-0.1,0-0.2-0.3-0.2-0.4c0.2-1,0.7-1.8,1.5-2.2c1-0.5,2.1,0.2,2.2,1.4c0,0.6,0,1.2-0.1,1.8c-0.2,0.9-0.4,1.9-0.9,2.7
		c-0.1,0.1-0.1,0.3-0.1,0.4c0.2,0,0.3,0.1,0.5,0c0.4-0.1,0.8-0.2,1.2-0.3c0.4-0.1,0.6,0,0.7,0.4c0.1,0.5-0.1,0.9-0.5,0.9
		c-0.9,0.1-1.8,0.2-2.8,0.3c-0.1,0-0.2,0.1-0.3,0c-0.3-0.1-0.6-0.3-0.9-0.5c-0.1-0.1,0.1-0.4,0.2-0.6c0.9-1.1,1.2-2.5,1.6-3.8
		C727.7,254.9,727.6,254.1,727.3,253.5z"/>
	<path fill="#0DB6A5" d="M706.1,253.7c0,1.4,0,2.8,0,4.2c0,0.5,0.1,1,0.1,1.5c0,0.2-0.1,0.5-0.2,0.5c-0.3,0.1-0.6,0.1-0.8-0.3
		c-0.3-0.7-0.3-1.4-0.4-2.1c0-0.2,0-0.5,0-0.7c0-0.8-0.4-1-1.1-0.7c-0.5,0.2-1.1,0.1-1.6,0.1c-0.1,0-0.3-0.2-0.3-0.3
		c0-0.2,0-0.4,0.1-0.5c0.3-0.4,0.7-0.7,1-1.1c0.4-0.5,0.8-1.1,1.2-1.6c0.2-0.3,0.5-0.5,0.8-0.7c0.3-0.2,0.8,0,0.9,0.5
		C705.9,252.9,706,253.3,706.1,253.7z M703.6,255.1c0.4,0,1,0,1-0.1c0.2-0.4,0.1-0.8,0.2-1.2c-0.1,0-0.2,0-0.2-0.1
		C704.3,254.1,704,254.5,703.6,255.1z"/>
	<path fill="#0DB6A5" d="M708.7,259.6c1-0.1,1.5,0.3,1.4,1.2c0,0.5-0.2,1-0.4,1.5c-0.2,0.4-0.9,0.6-1.3,0.5
		c-0.2-0.1-0.3-0.3-0.4-0.4c0-0.1,0.1-0.4,0.2-0.4c0.3-0.1,0.6,0,0.7-0.4c0-0.4,0-0.8-0.1-1.3C708.9,260.1,708.8,259.9,708.7,259.6z
		"/>
</g>
<g>
	<path fill="#0DB6A5" d="M766.6,194c0.3-0.6,0.5-1,0.7-1.4c0.5-1.1,1.5-1.2,2.3-0.3c0.6,0.7,0.7,1.8,0.2,2.7
		c-0.1,0.2-0.2,0.4-0.3,0.6c-0.2,0.5-0.6,0.8-1.1,0.8c-0.5,0.1-1,0.1-1.5,0c-0.2,0-0.4-0.4-0.6-0.7c-0.8-1.2-1.4-2.4-1.4-3.8
		c0.1-1.1,0-2.3,0.6-3.2c0.1-0.2,0.4-0.3,0.6-0.5c0.1,0.2,0.3,0.5,0.3,0.7c0,0.6-0.2,1.1-0.3,1.7C766.1,191.8,766.2,192.8,766.6,194
		z M769.1,193.6c-0.2-0.3-0.3-0.4-0.4-0.6c-0.2,0.1-0.4,0.2-0.4,0.4c-0.2,0.6-0.5,1.1-0.6,1.7c0,0.2,0.2,0.4,0.3,0.6
		c0.1,0.1,0.4-0.1,0.5-0.3C768.8,194.8,768.9,194.2,769.1,193.6z"/>
	<path fill="#0DB6A5" d="M790.3,193.6c-0.1,0.5-0.1,0.9-0.2,1.3c-0.4,1.9-1.7,2.1-3.1,1.1c-0.9-0.6-1.3-1.7-1.5-2.7
		c-0.2-1.2-0.1-2.3,0.4-3.4c0.5-1.1,1.9-1.1,2.6-0.4C789.7,190.6,790.1,192.1,790.3,193.6z M789.4,193.9c-0.1-0.6-0.1-1-0.2-1.4
		c-0.3-0.9-0.5-1.7-1.2-2.4c-0.2-0.2-0.5-0.3-0.6,0.1c-0.2,0.6-0.5,1.2-0.6,1.8c-0.2,1,0.3,1.9,0.7,2.8c0.3,0.5,1,0.7,1.3,0.4
		C789,194.7,789.2,194.2,789.4,193.9z"/>
	<path fill="#0DB6A5" d="M783.8,192.4c0.1,1,0.1,2.1,0.2,3.1c0,0.4,0.1,0.8,0.1,1.1c0,0.2-0.3,0.4-0.4,0.4c-0.3,0-0.6-0.2-0.7-0.4
		c-0.2-0.4-0.2-0.8-0.3-1.3c0-0.1,0-0.2,0-0.3c0-1.1-0.2-1.3-1.3-1.4c-0.4,0-0.9-0.1-1.3-0.2c-0.5-0.2-0.6-0.6-0.2-1
		c0.3-0.4,0.7-0.7,0.9-1.1c0.3-0.5,0.6-1,0.8-1.5c0.2-0.6,0.7-0.8,1.2-1c0.5-0.2,0.8,0.1,0.9,0.7
		C783.8,190.6,783.8,191.5,783.8,192.4C783.8,192.4,783.8,192.4,783.8,192.4z M782.5,191.6c0,0-0.1,0-0.1-0.1
		c-0.2,0.2-0.3,0.3-0.5,0.5c-0.1,0.1-0.2,0.3-0.1,0.4c0.1,0.1,0.3,0.2,0.4,0.2c0.1,0,0.3-0.2,0.3-0.3
		C782.5,192.1,782.5,191.8,782.5,191.6z"/>
	<path fill="#0DB6A5" d="M776.6,195c-0.2-1.8-0.4-3.5-0.7-5.3c-0.1-0.4,0-0.6,0.4-0.7c0.4-0.1,0.8-0.1,0.9,0.3
		c0.2,1.1,0.2,2.1,0.4,3.2c0.1,1,0.2,1.9,0.3,2.9c0,0.4,0.2,0.8-0.3,0.9c-0.5,0.2-0.9-0.2-1-0.7c0-0.2,0-0.4-0.1-0.7
		C776.5,195,776.5,195,776.6,195z"/>
	<path fill="#0DB6A5" d="M773.3,197.3c0,0.8-0.6,2-1.2,2.2c-0.2,0.1-0.3,0-0.5,0c0-0.2,0-0.3,0.1-0.5c0.1-0.4,0.3-0.7,0.5-1.1
		c0.1-0.3,0.1-0.6,0-0.8c0-0.4,0-0.7,0.4-0.8c0.4-0.1,0.7,0.2,0.7,0.7C773.3,197.1,773.3,197.2,773.3,197.3z"/>
</g>
<path fill="none" stroke="#000000" stroke-width="2" stroke-linecap="round" stroke-linejoin="round" stroke-miterlimit="10" d="
	M702,465.8v-13.6c0,0,5.1-0.4,6.1,4.3C709,461.3,709,465.8,702,465.8z"/>
<polyline fill="none" stroke="#000000" stroke-width="2" stroke-linecap="round" stroke-linejoin="round" stroke-miterlimit="10" points="
	718,453 713,453 713,466 718,466 "/>
<line fill="none" stroke="#000000" stroke-width="2" stroke-linecap="round" stroke-linejoin="round" stroke-miterlimit="10" x1="714" y1="459" x2="716" y2="459"/>
<path fill="none" stroke="#000000" stroke-width="2" stroke-linecap="round" stroke-linejoin="round" stroke-miterlimit="10" d="
	M722.6,452.2c0,0-1.4,13.9,3.2,13.7c4.6-0.2,3.9-13.8,3.9-13.8"/>
<polyline fill="none" stroke="#000000" stroke-width="2" stroke-linecap="round" stroke-linejoin="round" stroke-miterlimit="10" points="
	349.3,465.7 352.6,452.1 358,465.7 "/>
<line fill="none" stroke="#000000" stroke-width="2" stroke-linecap="round" stroke-linejoin="round" stroke-miterlimit="10" x1="351" y1="459" x2="355" y2="459"/>
<line fill="none" stroke="#000000" stroke-width="2" stroke-linecap="round" stroke-linejoin="round" stroke-miterlimit="10" x1="333" y1="453" x2="333" y2="466"/>
<line fill="none" stroke="#000000" stroke-width="2" stroke-linecap="round" stroke-linejoin="round" stroke-miterlimit="10" x1="342" y1="453" x2="342" y2="466"/>
<line fill="none" stroke="#000000" stroke-width="2" stroke-linecap="round" stroke-linejoin="round" stroke-miterlimit="10" x1="340" y1="453" x2="346" y2="453"/>
<path fill="none" stroke="#000000" stroke-width="2" stroke-linecap="round" stroke-linejoin="round" stroke-miterlimit="10" d="
	M528,466v-13.9c0,0,4.8-0.9,4.6,4.6c-0.1,0.1,0.4,3.4-3.9,3.1"/>
<path fill="none" stroke="#000000" stroke-width="2" stroke-linecap="round" stroke-linejoin="round" stroke-miterlimit="10" d="
	M528.2,459.8c0,0,5.1-0.7,4.9,3.5c-0.1,0,0.2,2.5-4.1,2.3"/>
<path fill="none" stroke="#000000" stroke-width="2" stroke-linecap="round" stroke-linejoin="round" stroke-miterlimit="10" d="
	M538,466v-13.8c0,0,5.1-0.9,4.9,4.6c-0.1,0.1,0.2,3.2-4,2.9c0,0,6.1,6.3,7.7,5.9"/>
<path fill="none" stroke="#000000" stroke-width="2" stroke-linecap="round" stroke-linejoin="round" stroke-miterlimit="10" d="
	M522,454.8c0,0-0.1-3-3.9-2.7c-4,0.4-3.8,12.4-0.1,13.3c4.4,1.1,4.7-4.5,4.6-4.4l-4.1,0"/>
<polyline fill="none" stroke="#000000" stroke-width="2" stroke-linecap="round" stroke-linejoin="round" stroke-miterlimit="10" points="
	583,452 577,452 577,466 "/>
<line fill="none" stroke="#000000" stroke-width="2" stroke-linecap="round" stroke-linejoin="round" stroke-miterlimit="10" x1="578" y1="458" x2="581" y2="458"/>
<path fill="none" stroke="#000000" stroke-width="2" stroke-linecap="round" stroke-linejoin="round" stroke-miterlimit="10" d="
	M587,465v-13.3c0,0,5.7-0.9,5.5,4.6c-0.1,0.1,0.5,3.2-3.7,2.9c0,0,5.6,6,7.2,5.6"/>
<polyline fill="none" stroke="#000000" stroke-width="2" stroke-linecap="round" stroke-linejoin="round" stroke-miterlimit="10" points="
	598.9,465.1 602.1,451.5 607.6,465.2 "/>
<line fill="none" stroke="#000000" stroke-width="2" stroke-linecap="round" stroke-linejoin="round" stroke-miterlimit="10" x1="601" y1="458" x2="604" y2="458"/>
<path fill="none" stroke="#000000" stroke-width="2" stroke-linecap="round" stroke-linejoin="round" stroke-miterlimit="10" d="
	M780.1,458.8c0,3.8-1.6,6.6-3.6,6.6c-2,0-3.6-2.8-3.6-6.6c0-3.8,1.6-6.6,3.6-6.6C778.5,452.2,780.1,455,780.1,458.8z"/>
<path fill="none" stroke="#000000" stroke-width="2" stroke-linecap="round" stroke-linejoin="round" stroke-miterlimit="10" d="
	M783,466v-13.8c0,0,5.6-0.9,5.4,4.6c-0.1,0.1,0.5,3.2-3.8,2.9c0,0,5.7,6.3,7.3,5.9"/>
<line fill="none" stroke="#000000" stroke-width="2" stroke-linecap="round" stroke-linejoin="round" stroke-miterlimit="10" x1="762" y1="453" x2="762" y2="466"/>
<line fill="none" stroke="#000000" stroke-width="2" stroke-linecap="round" stroke-linejoin="round" stroke-miterlimit="10" x1="768" y1="453" x2="768" y2="466"/>
<line fill="none" stroke="#000000" stroke-width="2" stroke-linecap="round" stroke-linejoin="round" stroke-miterlimit="10" x1="762.5" y1="452.5" x2="768.5" y2="466"/>
<path fill="none" stroke="#000000" stroke-width="2" stroke-linecap="round" stroke-linejoin="round" stroke-miterlimit="10" d="
	M646.1,454.9c0,0-0.1-3-3.9-2.7c-4,0.4-3.8,12.4-0.1,13.3c4.4,1.1,4.7-2.5,4.6-2.4"/>
<polyline fill="none" stroke="#000000" stroke-width="2" stroke-linecap="round" stroke-linejoin="round" stroke-miterlimit="10" points="
	649.5,465.8 652.8,452.2 658.2,465.8 "/>
<line fill="none" stroke="#000000" stroke-width="2" stroke-linecap="round" stroke-linejoin="round" stroke-miterlimit="10" x1="652" y1="459" x2="655" y2="459"/>
<line fill="none" stroke="#000000" stroke-width="2" stroke-linecap="round" stroke-linejoin="round" stroke-miterlimit="10" x1="662" y1="452" x2="662" y2="466"/>
<line fill="none" stroke="#000000" stroke-width="2" stroke-linecap="round" stroke-linejoin="round" stroke-miterlimit="10" x1="669" y1="452" x2="669" y2="466"/>
<line fill="none" stroke="#000000" stroke-width="2" stroke-linecap="round" stroke-linejoin="round" stroke-miterlimit="10" x1="662.6" y1="452" x2="669.2" y2="466.1"/>
<path fill="none" stroke="#000000" stroke-width="2" stroke-linecap="round" stroke-linejoin="round" stroke-miterlimit="10" d="
	M406,466v-13.8c0,0,5.1-0.9,4.9,4.6c-0.1,0.1,0.2,3.7-4.1,3.4"/>
<path fill="none" stroke="#000000" stroke-width="2" stroke-linecap="round" stroke-linejoin="round" stroke-miterlimit="10" d="
	M400.6,451.9v11.3c0,0.6-0.2,1.3-0.7,1.9c-0.8,1-4.9,2.1-6.1-0.7"/>
<line fill="none" stroke="#000000" stroke-width="2" stroke-linecap="round" stroke-linejoin="round" stroke-miterlimit="10" x1="414" y1="453" x2="414" y2="466"/>
<line fill="none" stroke="#000000" stroke-width="2" stroke-linecap="round" stroke-linejoin="round" stroke-miterlimit="10" x1="421" y1="453" x2="421" y2="466"/>
<line fill="none" stroke="#000000" stroke-width="2" stroke-linecap="round" stroke-linejoin="round" stroke-miterlimit="10" x1="414.5" y1="453.1" x2="421.4" y2="465.8"/>
<line fill="none" stroke="#000000" stroke-width="2" stroke-linecap="round" stroke-linejoin="round" stroke-miterlimit="10" x1="271" y1="453" x2="271" y2="466"/>
<polyline fill="none" stroke="#000000" stroke-width="2" stroke-linecap="round" stroke-linejoin="round" stroke-miterlimit="10" points="
	291,453 291,466 296,466 "/>
<path fill="none" stroke="#000000" stroke-width="2" stroke-linecap="round" stroke-linejoin="round" stroke-miterlimit="10" d="
	M278.1,462.4c0,0,0.5,3.3,4.2,2.8c1.6-0.2,2.8-1,3.1-1.9c0.3-0.8,0.2-2.1-1.4-3.5c-3-2.8-5.9-5-2.4-7.1c0.5-0.3,1.2-0.5,1.9-0.4
	c1,0.1,2.2,0.6,2.3,2.4"/>
<polyline fill="none" stroke="#000000" stroke-width="2" stroke-linecap="round" stroke-linejoin="round" stroke-miterlimit="10" points="
	452.7,465.8 456,452.2 461.4,465.8 "/>
<line fill="none" stroke="#000000" stroke-width="2" stroke-linecap="round" stroke-linejoin="round" stroke-miterlimit="10" x1="455" y1="459" x2="459" y2="459"/>
<path fill="none" stroke="#000000" stroke-width="2" stroke-linecap="round" stroke-linejoin="round" stroke-miterlimit="10" d="
	M465.9,452.2c0,0-1.4,13.9,3.2,13.7c4.6-0.2,3.9-13.8,3.9-13.8"/>
<path fill="none" stroke="#000000" stroke-width="2" stroke-linecap="round" stroke-linejoin="round" stroke-miterlimit="10" d="
	M477.8,462.6c0,0,0.5,3.3,4.2,2.8c1.6-0.2,2.8-1,3.1-1.9c0.3-0.8,0.2-2.1-1.4-3.5c-3-2.8-5.9-5-2.4-7.1c0.5-0.3,1.2-0.5,1.9-0.4
	c1,0.1,2.2,0.6,2.3,2.4"/>
<polyline fill="none" stroke="#000000" stroke-width="2" stroke-linecap="round" stroke-linejoin="round" stroke-miterlimit="10" points="
	846.4,465.8 849.6,452.2 855.1,465.8 "/>
<line fill="none" stroke="#000000" stroke-width="2" stroke-linecap="round" stroke-linejoin="round" stroke-miterlimit="10" x1="849" y1="459" x2="852" y2="459"/>
<path fill="none" stroke="#000000" stroke-width="2" stroke-linecap="round" stroke-linejoin="round" stroke-miterlimit="10" d="
	M823.7,452.2c0,0-1.4,13.9,3.2,13.7c4.6-0.2,3.9-13.8,3.9-13.8"/>
<path fill="none" stroke="#000000" stroke-width="2" stroke-linecap="round" stroke-linejoin="round" stroke-miterlimit="10" d="
	M834.5,462.6c0,0,0.5,3.3,4.2,2.8c1.6-0.2,2.8-1,3.1-1.9c0.3-0.8,0.2-2.1-1.4-3.5c-3-2.8-5.9-5-2.4-7.1c0.5-0.3,1.2-0.5,1.9-0.4
	c1,0.1,2.2,0.6,2.3,2.4"/>
<path fill="none" stroke="#000000" stroke-width="2" stroke-linecap="round" stroke-linejoin="round" stroke-miterlimit="10" d="
	M224.2,458.8c0,3.8-1.6,6.6-3.6,6.6c-2,0-3.6-2.8-3.6-6.6s1.6-6.6,3.6-6.6C222.6,452.2,224.2,455,224.2,458.8z"/>
<path fill="none" stroke="#000000" stroke-width="2" stroke-linecap="round" stroke-linejoin="round" stroke-miterlimit="10" d="
	M230,466v-13.8c0,0,5.4-0.9,5.2,4.6c-0.1,0.1,0.4,3.2-3.9,2.9c0,0,5.9,6.3,7.5,5.9"/>
<line fill="none" stroke="#000000" stroke-width="2" stroke-linecap="round" stroke-linejoin="round" stroke-miterlimit="10" x1="205" y1="453" x2="205" y2="466"/>
<line fill="none" stroke="#000000" stroke-width="2" stroke-linecap="round" stroke-linejoin="round" stroke-miterlimit="10" x1="206" y1="458.5" x2="211.9" y2="452.2"/>
<line fill="none" stroke="#000000" stroke-width="2" stroke-linecap="round" stroke-linejoin="round" stroke-miterlimit="10" x1="212.1" y1="465.5" x2="206" y2="458"/>
<path fill="none" stroke="#000000" stroke-width="2" stroke-linecap="round" stroke-linejoin="round" stroke-miterlimit="10" d="
	M152.1,454.8c0,0-0.1-3-3.9-2.7c-4,0.4-3.8,12.4-0.1,13.3c4.4,1.1,4.7-2.5,4.6-2.4"/>
<polyline fill="none" stroke="#000000" stroke-width="2" stroke-linecap="round" stroke-linejoin="round" stroke-miterlimit="10" points="
	170,453 170,466 176,466 "/>
<line fill="none" stroke="#000000" stroke-width="2" stroke-linecap="round" stroke-linejoin="round" stroke-miterlimit="10" x1="157" y1="453" x2="157" y2="466"/>
<line fill="none" stroke="#000000" stroke-width="2" stroke-linecap="round" stroke-linejoin="round" stroke-miterlimit="10" x1="165" y1="453" x2="165" y2="466"/>
<line fill="none" stroke="#000000" stroke-width="2" stroke-linecap="round" stroke-linejoin="round" stroke-miterlimit="10" x1="158" y1="459" x2="164" y2="459"/>
<g>
	<g>
		<g>
			
				<line fill="none" stroke="#000000" stroke-width="2" stroke-linecap="round" stroke-linejoin="round" stroke-miterlimit="10" x1="646.4" y1="102.8" x2="646.3" y2="122.5"/>
			<g>
				
					<path fill="none" stroke="#000000" stroke-width="2" stroke-linecap="round" stroke-linejoin="round" stroke-miterlimit="10" d="
					M576.9,122.6l0-19.5c0,0,7-1.3,6.8,6.7c-0.2,0.1,0.2,4.7-5.8,4.3c0,0,8.7,8.9,11,8.3"/>
			</g>
			<g>
				
					<path fill="none" stroke="#000000" stroke-width="2" stroke-linecap="round" stroke-linejoin="round" stroke-miterlimit="10" d="
					M553.4,122.6l0-19.5c0,0,7-1.3,6.8,6.7c-0.2,0.1,0.2,4.7-5.8,4.3"/>
			</g>
			<g>
				
					<path fill="none" stroke="#000000" stroke-width="2" stroke-linecap="round" stroke-linejoin="round" stroke-miterlimit="10" d="
					M631.7,122.6l0-19.5c0,0,7-1.3,6.8,6.7c-0.2,0.1,0.2,4.7-5.8,4.3"/>
			</g>
			<g>
				
					<polyline fill="none" stroke="#000000" stroke-width="2" stroke-linecap="round" stroke-linejoin="round" stroke-miterlimit="10" points="
					570.9,102.9 565.6,102.9 565.6,122.5 570.9,122.5 				"/>
				
					<line fill="none" stroke="#000000" stroke-width="2" stroke-linecap="round" stroke-linejoin="round" stroke-miterlimit="10" x1="566.2" y1="112.3" x2="570.2" y2="112.3"/>
			</g>
			<g>
				
					<line fill="none" stroke="#000000" stroke-width="2" stroke-linecap="round" stroke-linejoin="round" stroke-miterlimit="10" x1="656.6" y1="103.5" x2="656.6" y2="122.6"/>
				
					<line fill="none" stroke="#000000" stroke-width="2" stroke-linecap="round" stroke-linejoin="round" stroke-miterlimit="10" x1="652" y1="103.1" x2="660.5" y2="103.1"/>
			</g>
			<path fill="none" stroke="#000000" stroke-width="2" stroke-linecap="round" stroke-linejoin="round" stroke-miterlimit="10" d="
				M611.7,107c0,0-0.1-4.4-5.4-4c-5.6,0.5-5.6,18-0.5,19.4c6.1,1.6,6.6-3.6,6.5-3.4"/>
			<g>
				
					<polyline fill="none" stroke="#000000" stroke-width="2" stroke-linecap="round" stroke-linejoin="round" stroke-miterlimit="10" points="
					616.2,122.7 620.9,102.8 628.1,122.6 				"/>
				
					<line fill="none" stroke="#000000" stroke-width="2" stroke-linecap="round" stroke-linejoin="round" stroke-miterlimit="10" x1="619.4" y1="112.8" x2="624" y2="112.8"/>
			</g>
			<g>
				
					<polyline fill="none" stroke="#000000" stroke-width="2" stroke-linecap="round" stroke-linejoin="round" stroke-miterlimit="10" points="
					663.2,122.7 667.9,102.8 675.2,122.6 				"/>
				
					<line fill="none" stroke="#000000" stroke-width="2" stroke-linecap="round" stroke-linejoin="round" stroke-miterlimit="10" x1="666.5" y1="112.8" x2="671.1" y2="112.8"/>
			</g>
		</g>
		<g>
			<g>
				
					<line fill="none" stroke="#000000" stroke-width="2" stroke-linecap="round" stroke-linejoin="round" stroke-miterlimit="10" x1="419.2" y1="102.9" x2="419.3" y2="122.8"/>
				
					<line fill="none" stroke="#000000" stroke-width="2" stroke-linecap="round" stroke-linejoin="round" stroke-miterlimit="10" x1="427.7" y1="102.9" x2="427.8" y2="123"/>
				
					<line fill="none" stroke="#000000" stroke-width="2" stroke-linecap="round" stroke-linejoin="round" stroke-miterlimit="10" x1="419.6" y1="112.5" x2="427.1" y2="112.4"/>
			</g>
			<g>
				
					<line fill="none" stroke="#000000" stroke-width="2" stroke-linecap="round" stroke-linejoin="round" stroke-miterlimit="10" x1="477.4" y1="102.9" x2="477.4" y2="122.8"/>
				
					<line fill="none" stroke="#000000" stroke-width="2" stroke-linecap="round" stroke-linejoin="round" stroke-miterlimit="10" x1="485.9" y1="102.9" x2="485.9" y2="123"/>
				
					<line fill="none" stroke="#000000" stroke-width="2" stroke-linecap="round" stroke-linejoin="round" stroke-miterlimit="10" x1="477.8" y1="112.5" x2="485.3" y2="112.4"/>
			</g>
			
				<polyline fill="none" stroke="#000000" stroke-width="2" stroke-linecap="round" stroke-linejoin="round" stroke-miterlimit="10" points="
				457.1,102.8 457,122.5 465.1,122.5 			"/>
			<g>
				
					<path fill="none" stroke="#000000" stroke-width="2" stroke-linecap="round" stroke-linejoin="round" stroke-miterlimit="10" d="
					M519.8,122.6l0-19.5c0,0,7-1.3,6.8,6.7c-0.2,0.1,0.2,4.7-5.8,4.3c0,0,8.7,8.9,11,8.3"/>
			</g>
			<g>
				
					<polyline fill="none" stroke="#000000" stroke-width="2" stroke-linecap="round" stroke-linejoin="round" stroke-miterlimit="10" points="
					438.3,102.9 433,102.9 433,122.5 438.3,122.5 				"/>
				
					<line fill="none" stroke="#000000" stroke-width="2" stroke-linecap="round" stroke-linejoin="round" stroke-miterlimit="10" x1="433.6" y1="112.3" x2="437.6" y2="112.3"/>
			</g>
			<g>
				
					<polyline fill="none" stroke="#000000" stroke-width="2" stroke-linecap="round" stroke-linejoin="round" stroke-miterlimit="10" points="
					539.7,102.9 534.4,102.9 534.4,122.5 539.7,122.5 				"/>
				
					<line fill="none" stroke="#000000" stroke-width="2" stroke-linecap="round" stroke-linejoin="round" stroke-miterlimit="10" x1="535" y1="112.3" x2="539" y2="112.3"/>
			</g>
			<g>
				
					<line fill="none" stroke="#000000" stroke-width="2" stroke-linecap="round" stroke-linejoin="round" stroke-miterlimit="10" x1="470.7" y1="103.5" x2="470.7" y2="122.6"/>
				
					<line fill="none" stroke="#000000" stroke-width="2" stroke-linecap="round" stroke-linejoin="round" stroke-miterlimit="10" x1="466.1" y1="103.1" x2="474.6" y2="103.1"/>
			</g>
			<g>
				
					<line fill="none" stroke="#000000" stroke-width="2" stroke-linecap="round" stroke-linejoin="round" stroke-miterlimit="10" x1="368.3" y1="103.5" x2="368.5" y2="122.6"/>
				
					<line fill="none" stroke="#000000" stroke-width="2" stroke-linecap="round" stroke-linejoin="round" stroke-miterlimit="10" x1="363.7" y1="103.2" x2="372.2" y2="103.1"/>
			</g>
			<g>
				
					<line fill="none" stroke="#000000" stroke-width="2" stroke-linecap="round" stroke-linejoin="round" stroke-miterlimit="10" x1="401.4" y1="103.5" x2="401.7" y2="122.6"/>
				
					<line fill="none" stroke="#000000" stroke-width="2" stroke-linecap="round" stroke-linejoin="round" stroke-miterlimit="10" x1="401.6" y1="103.2" x2="408.2" y2="103.1"/>
				
					<line fill="none" stroke="#000000" stroke-width="2" stroke-linecap="round" stroke-linejoin="round" stroke-miterlimit="10" x1="401.6" y1="110.4" x2="408.2" y2="110.3"/>
			</g>
			<path fill="none" stroke="#000000" stroke-width="2" stroke-linecap="round" stroke-linejoin="round" stroke-miterlimit="10" d="
				M334.5,107c0,0-0.1-4.4-5.4-4c-5.6,0.5-5.6,18-0.5,19.4c6.1,1.6,6.6-3.6,6.5-3.4"/>
			<path fill="none" stroke="#000000" stroke-width="2" stroke-linecap="round" stroke-linejoin="round" stroke-miterlimit="10" d="
				M500.2,107c0,0-0.1-4.4-5.4-4c-5.6,0.5-5.6,18-0.5,19.4c6.1,1.6,6.6-3.6,6.5-3.4"/>
			<g>
				
					<polyline fill="none" stroke="#000000" stroke-width="2" stroke-linecap="round" stroke-linejoin="round" stroke-miterlimit="10" points="
					442.3,122.7 447,102.8 454.2,122.6 				"/>
				
					<line fill="none" stroke="#000000" stroke-width="2" stroke-linecap="round" stroke-linejoin="round" stroke-miterlimit="10" x1="445.5" y1="112.8" x2="450.1" y2="112.8"/>
			</g>
			<g>
				
					<polyline fill="none" stroke="#000000" stroke-width="2" stroke-linecap="round" stroke-linejoin="round" stroke-miterlimit="10" points="
					504.3,122.7 509,102.8 516.2,122.6 				"/>
				
					<line fill="none" stroke="#000000" stroke-width="2" stroke-linecap="round" stroke-linejoin="round" stroke-miterlimit="10" x1="507.5" y1="112.8" x2="512.1" y2="112.8"/>
			</g>
			
				<ellipse transform="matrix(0.9999 1.695777e-02 -1.695777e-02 0.9999 1.9632 -5.8267)" fill="none" stroke="#000000" stroke-width="2" stroke-linecap="round" stroke-linejoin="round" stroke-miterlimit="10" cx="344.6" cy="112.8" rx="6.3" ry="9.8"/>
			
				<ellipse transform="matrix(0.9999 1.695777e-02 -1.695777e-02 0.9999 1.9697 -6.5927)" fill="none" stroke="#000000" stroke-width="2" stroke-linecap="round" stroke-linejoin="round" stroke-miterlimit="10" cx="389.7" cy="112.8" rx="6.3" ry="9.8"/>
			<path fill="none" stroke="#000000" stroke-width="2" stroke-linecap="round" stroke-linejoin="round" stroke-miterlimit="10" d="
				M353.7,118.3c0,0,0.6,5,3.9,4.1c1.4-0.4,2.5-1.5,2.7-2.9c0.2-1.3,0.1-3.1-1.4-5.2c-2.8-4.1-5.5-7.4-2.5-10.6
				c0.4-0.5,1-0.7,1.6-0.7c0.9,0.1,1.9,0.8,2.2,3.5"/>
		</g>
	</g>
	<g>
		
			<path fill="none" stroke="#000000" stroke-width="0.9329" stroke-linecap="round" stroke-linejoin="round" stroke-miterlimit="10" d="
			M540.5,149.7c0,0,0.4,3.9,3.2,3.4c1.2-0.2,2.1-1.1,2.4-2.3c0.2-1,0.2-2.4-1-4.2c-2.3-3.3-4.5-5.9-1.8-8.4c0.4-0.3,0.9-0.5,1.4-0.5
			c0.7,0.1,1.6,0.7,1.7,2.8"/>
		<g>
			
				<line fill="none" stroke="#000000" stroke-linecap="round" stroke-linejoin="round" stroke-miterlimit="10" x1="454.2" y1="137.9" x2="454.1" y2="152.9"/>
			<g>
				
					<line fill="none" stroke="#000000" stroke-linecap="round" stroke-linejoin="round" stroke-miterlimit="10" x1="458.2" y1="137.9" x2="458.1" y2="152.9"/>
				
					<line fill="none" stroke="#000000" stroke-linecap="round" stroke-linejoin="round" stroke-miterlimit="10" x1="465.2" y1="137.9" x2="465.1" y2="152.9"/>
				
					<line fill="none" stroke="#000000" stroke-width="0.9947" stroke-linecap="round" stroke-linejoin="round" stroke-miterlimit="10" x1="458.4" y1="137.8" x2="465.1" y2="152.7"/>
			</g>
		</g>
		<path fill="none" stroke="#000000" stroke-linecap="round" stroke-linejoin="round" stroke-miterlimit="10" d="M474.1,153.3
			l0-15.8c0,0,5.6-0.5,6.6,5.1C481.7,148.1,481.1,153.3,474.1,153.3z"/>
		<polyline fill="none" stroke="#000000" stroke-linecap="round" stroke-linejoin="round" stroke-miterlimit="10" points="
			497.2,138 497.1,152.5 502.6,152.5 		"/>
		<polyline fill="none" stroke="#000000" stroke-linecap="round" stroke-linejoin="round" stroke-miterlimit="10" points="
			506.2,138 506.1,152.5 511.6,152.5 		"/>
		<path fill="none" stroke="#000000" stroke-linecap="round" stroke-linejoin="round" stroke-miterlimit="10" d="M529.1,153.1
			l0-15.3c0,0,5.8-1,5.6,5.3c-0.1,0.1,0.4,3.7-4.2,3.4c0,0,6.3,6.9,8.1,6.5"/>
		<g>
			
				<polyline fill="none" stroke="#000000" stroke-width="0.9947" stroke-linecap="round" stroke-linejoin="round" stroke-miterlimit="10" points="
				516.1,153.4 519.7,137.5 525.5,153.4 			"/>
			
				<line fill="none" stroke="#000000" stroke-linecap="round" stroke-linejoin="round" stroke-miterlimit="10" x1="517.6" y1="146.5" x2="522.6" y2="146.5"/>
		</g>
		
			<path fill="none" stroke="#000000" stroke-width="0.9947" stroke-linecap="round" stroke-linejoin="round" stroke-miterlimit="10" d="
			M492.9,145.4c0,4.5-1.8,7.7-3.9,7.7c-2.1,0-3.9-3.2-3.9-7.7c0-4.5,1.8-7.7,3.9-7.7C491.1,137.7,492.9,141,492.9,145.4z"/>
		<path fill="none" stroke="#000000" stroke-linecap="round" stroke-linejoin="round" stroke-miterlimit="10" d="M448.6,133.2
			c0,0-11.9,11.2,0,24.2"/>
		<path fill="none" stroke="#000000" stroke-linecap="round" stroke-linejoin="round" stroke-miterlimit="10" d="M551.5,133.3
			c0,0,11.8,11.2,0,24.2"/>
	</g>
</g>
<g>
	<g>
		
			<line fill="none" stroke="#000000" stroke-width="2" stroke-linecap="round" stroke-linejoin="round" stroke-miterlimit="10" x1="428.7" y1="1048.8" x2="428.6" y2="1068.1"/>
		
			<line fill="none" stroke="#000000" stroke-width="2" stroke-linecap="round" stroke-linejoin="round" stroke-miterlimit="10" x1="480.9" y1="1068.1" x2="474.4" y2="1048.8"/>
		
			<line fill="none" stroke="#000000" stroke-width="2" stroke-linecap="round" stroke-linejoin="round" stroke-miterlimit="10" x1="480.9" y1="1048.8" x2="474.4" y2="1068.1"/>
		<g>
			<path fill="none" stroke="#000000" stroke-width="2" stroke-linecap="round" stroke-linejoin="round" stroke-miterlimit="10" d="
				M485.9,1068.2l0-19.1c0,0,6.9-1.3,6.6,6.6c-0.2,0.1,0.2,4.6-5.6,4.2"/>
		</g>
		<g>
			
				<polyline fill="none" stroke="#000000" stroke-width="2" stroke-linecap="round" stroke-linejoin="round" stroke-miterlimit="10" points="
				449.4,1048.9 444.2,1048.9 444.2,1068.1 449.4,1068.1 			"/>
			
				<line fill="none" stroke="#000000" stroke-width="2" stroke-linecap="round" stroke-linejoin="round" stroke-miterlimit="10" x1="444.8" y1="1058.1" x2="448.7" y2="1058.1"/>
		</g>
		<g>
			
				<polyline fill="none" stroke="#000000" stroke-width="2" stroke-linecap="round" stroke-linejoin="round" stroke-miterlimit="10" points="
				502.1,1048.9 496.9,1048.9 496.9,1068.1 502.1,1068.1 			"/>
			
				<line fill="none" stroke="#000000" stroke-width="2" stroke-linecap="round" stroke-linejoin="round" stroke-miterlimit="10" x1="497.5" y1="1058.1" x2="501.4" y2="1058.1"/>
		</g>
		<g>
			
				<polyline fill="none" stroke="#000000" stroke-width="2" stroke-linecap="round" stroke-linejoin="round" stroke-miterlimit="10" points="
				470.6,1048.9 465.4,1048.9 465.4,1068.1 470.6,1068.1 			"/>
			
				<line fill="none" stroke="#000000" stroke-width="2" stroke-linecap="round" stroke-linejoin="round" stroke-miterlimit="10" x1="466" y1="1058.1" x2="469.9" y2="1058.1"/>
		</g>
		<g>
			
				<polyline fill="none" stroke="#000000" stroke-width="2" stroke-linecap="round" stroke-linejoin="round" stroke-miterlimit="10" points="
				440.5,1048.9 435.3,1048.9 435.2,1068.1 			"/>
			
				<line fill="none" stroke="#000000" stroke-width="2" stroke-linecap="round" stroke-linejoin="round" stroke-miterlimit="10" x1="435.8" y1="1058.1" x2="439.8" y2="1058.1"/>
		</g>
		<g>
			
				<line fill="none" stroke="#000000" stroke-width="2" stroke-linecap="round" stroke-linejoin="round" stroke-miterlimit="10" x1="523" y1="1049.5" x2="523.1" y2="1068.2"/>
			
				<line fill="none" stroke="#000000" stroke-width="2" stroke-linecap="round" stroke-linejoin="round" stroke-miterlimit="10" x1="518.5" y1="1049.1" x2="526.9" y2="1049.1"/>
		</g>
		<path fill="none" stroke="#000000" stroke-width="2" stroke-linecap="round" stroke-linejoin="round" stroke-miterlimit="10" d="
			M514.3,1052.9c0,0-0.1-4.3-5.3-3.9c-5.5,0.5-5.5,17.6-0.5,19c5.9,1.6,6.5-3.5,6.4-3.3"/>
		<path fill="none" stroke="#000000" stroke-width="2" stroke-linecap="round" stroke-linejoin="round" stroke-miterlimit="10" d="
			M573.3,1052.9c0,0-0.1-4.3-5.3-3.9c-5.5,0.5-5.5,17.6-0.5,19c5.9,1.6,6.5-3.5,6.4-3.3"/>
		<g>
			
				<polyline fill="none" stroke="#000000" stroke-width="2" stroke-linecap="round" stroke-linejoin="round" stroke-miterlimit="10" points="
				529.5,1068.3 534.1,1048.8 541.2,1068.2 			"/>
			
				<line fill="none" stroke="#000000" stroke-width="2" stroke-linecap="round" stroke-linejoin="round" stroke-miterlimit="10" x1="532.7" y1="1058.7" x2="537.2" y2="1058.6"/>
		</g>
		
			<polyline fill="none" stroke="#000000" stroke-width="2" stroke-linecap="round" stroke-linejoin="round" stroke-miterlimit="10" points="
			545,1069 545,1048.9 559,1068.2 559,1049 		"/>
		
			<polyline fill="none" stroke="#000000" stroke-width="2" stroke-linecap="round" stroke-linejoin="round" stroke-miterlimit="10" points="
			415.6,1049.2 416,1068.2 423.9,1068.2 		"/>
		<g>
			
				<polyline fill="none" stroke="#000000" stroke-width="2" stroke-linecap="round" stroke-linejoin="round" stroke-miterlimit="10" points="
				577.2,1049.2 580.6,1058.6 584.4,1049.2 			"/>
			
				<line fill="none" stroke="#000000" stroke-width="2" stroke-linecap="round" stroke-linejoin="round" stroke-miterlimit="10" x1="580.7" y1="1058.1" x2="580.6" y2="1068.2"/>
		</g>
	</g>
	<g>
		
			<line fill="none" stroke="#000000" stroke-linecap="round" stroke-linejoin="round" stroke-miterlimit="10" x1="495.1" y1="1091.5" x2="499.1" y2="1091.5"/>
		
			<line fill="none" stroke="#000000" stroke-linecap="round" stroke-linejoin="round" stroke-miterlimit="10" x1="506.1" y1="1091.5" x2="510.1" y2="1091.5"/>
		<g>
			
				<polyline fill="none" stroke="#000000" stroke-width="0.9947" stroke-linecap="round" stroke-linejoin="round" stroke-miterlimit="10" points="
				483.5,1084 487.6,1088.3 491.2,1083.9 			"/>
			<g>
				<g>
					
						<line fill="none" stroke="#000000" stroke-linecap="round" stroke-linejoin="round" stroke-miterlimit="10" x1="464.7" y1="1083.9" x2="464.6" y2="1098.9"/>
					<g>
						
							<line fill="none" stroke="#000000" stroke-linecap="round" stroke-linejoin="round" stroke-miterlimit="10" x1="468.7" y1="1083.9" x2="468.6" y2="1098.9"/>
						
							<line fill="none" stroke="#000000" stroke-linecap="round" stroke-linejoin="round" stroke-miterlimit="10" x1="475.7" y1="1083.9" x2="475.6" y2="1098.9"/>
						
							<line fill="none" stroke="#000000" stroke-width="0.9947" stroke-linecap="round" stroke-linejoin="round" stroke-miterlimit="10" x1="468.9" y1="1083.9" x2="475.4" y2="1098.8"/>
					</g>
				</g>
				
					<line fill="none" stroke="#000000" stroke-linecap="round" stroke-linejoin="round" stroke-miterlimit="10" x1="487.7" y1="1088" x2="487.6" y2="1099"/>
				<path fill="none" stroke="#000000" stroke-linecap="round" stroke-linejoin="round" stroke-miterlimit="10" d="M516.6,1099
					l0-15.2c0,0,5.7-1,5.5,5.3c-0.1,0.1,0.3,3.7-4.3,3.4c0,0,6.4,6.9,8.2,6.4"/>
				<polyline fill="none" stroke="#000000" stroke-linecap="round" stroke-linejoin="round" stroke-miterlimit="10" points="
					500.2,1084.5 494.7,1084.5 494.6,1099.5 500.1,1099.5 				"/>
				
					<polyline fill="none" stroke="#000000" stroke-width="0.9947" stroke-linecap="round" stroke-linejoin="round" stroke-miterlimit="10" points="
					503.5,1099.4 507.1,1083.6 513,1099.5 				"/>
				
					<path fill="none" stroke="#000000" stroke-width="0.9329" stroke-linecap="round" stroke-linejoin="round" stroke-miterlimit="10" d="
					M529.3,1096.1c0,0,0.4,3.9,3.2,3.4c1.2-0.2,2.1-1.1,2.4-2.3c0.2-1,0.2-2.4-1-4.2c-2.3-3.3-4.5-5.9-1.8-8.4
					c0.4-0.3,0.9-0.5,1.4-0.5c0.7,0.1,1.6,0.7,1.7,2.8"/>
				<path fill="none" stroke="#000000" stroke-linecap="round" stroke-linejoin="round" stroke-miterlimit="10" d="M459.1,1079.1
					c0,0-11.9,11.2-0.1,24.2"/>
				<path fill="none" stroke="#000000" stroke-linecap="round" stroke-linejoin="round" stroke-miterlimit="10" d="M541,1079.4
					c0,0,11.8,11.2-0.1,24.2"/>
			</g>
		</g>
	</g>
</g>
</svg>
