<?xml version="1.0" encoding="utf-8"?>
<!-- Generator: Adobe Illustrator 17.1.0, SVG Export Plug-In . SVG Version: 6.00 Build 0)  -->
<!DOCTYPE svg PUBLIC "-//W3C//DTD SVG 1.1//EN" "http://www.w3.org/Graphics/SVG/1.1/DTD/svg11.dtd">
<svg version="1.1" id="Layer_1" xmlns="http://www.w3.org/2000/svg" xmlns:xlink="http://www.w3.org/1999/xlink" x="0px" y="0px"
	 viewBox="0 0 269.5 205.5" enable-background="new 0 0 269.5 205.5" xml:space="preserve">
<g>
	<g>
		
			<path fill="none" stroke="#918D8D" stroke-width="2.8701" stroke-linecap="round" stroke-linejoin="round" stroke-miterlimit="10" d="
			M115.9,97.5l-1.7-30.8c0,0,14.6-6.3,12,7.4c0,0-1.4,5.1-7.7,4.3c0,0,11.7-2.4,12.1,7.6c0.4,10-11.7,12-11.7,12"/>
		
			<polyline fill="none" stroke="#918D8D" stroke-width="2.8701" stroke-linecap="round" stroke-linejoin="round" stroke-miterlimit="10" points="
			157,86.7 155.3,55.8 175.9,81.5 174.1,50.7 		"/>
		
			<polyline fill="none" stroke="#918D8D" stroke-width="2.8701" stroke-linecap="round" stroke-linejoin="round" stroke-miterlimit="10" points="
			192.1,45.5 185,47.8 186.7,78.7 194.8,76.5 		"/>
		
			<line fill="none" stroke="#918D8D" stroke-width="2.8701" stroke-linecap="round" stroke-linejoin="round" stroke-miterlimit="10" x1="218.1" y1="39.8" x2="219.8" y2="70.7"/>
		<g>
			
				<polyline fill="none" stroke="#918D8D" stroke-width="2.8701" stroke-linecap="round" stroke-linejoin="round" stroke-miterlimit="10" points="
				144,59.8 135.3,62.1 137,92.9 147.7,90.1 			"/>
			
				<line fill="none" stroke="#918D8D" stroke-width="2.8701" stroke-linecap="round" stroke-linejoin="round" stroke-miterlimit="10" x1="136.6" y1="76.4" x2="144.2" y2="74.2"/>
		</g>
		
			<line fill="none" stroke="#918D8D" stroke-width="2.8701" stroke-linecap="round" stroke-linejoin="round" stroke-miterlimit="10" x1="185.8" y1="61.8" x2="193.6" y2="59.2"/>
		<g>
			
				<polyline fill="none" stroke="#918D8D" stroke-width="2.8701" stroke-linecap="round" stroke-linejoin="round" stroke-miterlimit="10" points="
				203.8,74.7 202.1,43.8 210.1,41.1 			"/>
			
				<line fill="none" stroke="#918D8D" stroke-width="2.8701" stroke-linecap="round" stroke-linejoin="round" stroke-miterlimit="10" x1="203.3" y1="58.2" x2="211.3" y2="55.7"/>
		</g>
		<g>
			
				<line fill="none" stroke="#918D8D" stroke-width="2.8701" stroke-linecap="round" stroke-linejoin="round" stroke-miterlimit="10" x1="233" y1="36.4" x2="234.7" y2="67.2"/>
			
				<line fill="none" stroke="#918D8D" stroke-width="2.8701" stroke-linecap="round" stroke-linejoin="round" stroke-miterlimit="10" x1="224.3" y1="37.8" x2="242.1" y2="33.6"/>
		</g>
		<g>
			<g>
				
					<polyline fill="none" stroke="#918D8D" stroke-width="2.8701" stroke-linecap="round" stroke-linejoin="round" stroke-miterlimit="10" points="
					206.4,3.3 199.3,5.6 201,36.4 209.1,34.3 				"/>
				
					<line fill="none" stroke="#918D8D" stroke-width="2.8701" stroke-linecap="round" stroke-linejoin="round" stroke-miterlimit="10" x1="200.1" y1="19.6" x2="207.8" y2="17"/>
			</g>
			<g>
				
					<line fill="none" stroke="#918D8D" stroke-width="2.8701" stroke-linecap="round" stroke-linejoin="round" stroke-miterlimit="10" x1="183.8" y1="40.4" x2="182.1" y2="9.6"/>
				
					<line fill="none" stroke="#918D8D" stroke-width="2.8701" stroke-linecap="round" stroke-linejoin="round" stroke-miterlimit="10" x1="193.6" y1="38.1" x2="191.8" y2="7.3"/>
				
					<line fill="none" stroke="#918D8D" stroke-width="2.8701" stroke-linecap="round" stroke-linejoin="round" stroke-miterlimit="10" x1="183.3" y1="24" x2="191.3" y2="21.4"/>
			</g>
			<g>
				
					<line fill="none" stroke="#918D8D" stroke-width="2.8701" stroke-linecap="round" stroke-linejoin="round" stroke-miterlimit="10" x1="166.7" y1="14.1" x2="168.4" y2="45"/>
				
					<line fill="none" stroke="#918D8D" stroke-width="2.8701" stroke-linecap="round" stroke-linejoin="round" stroke-miterlimit="10" x1="158" y1="15.6" x2="175.9" y2="11.3"/>
			</g>
		</g>
		
			<path fill="none" stroke="#918D8D" stroke-width="2.8701" stroke-linecap="round" stroke-linejoin="round" stroke-miterlimit="10" d="
			M261.1,34.7c0,0-0.6-8.1-8.1-5.6c-7.6,2.6,1.4,12.7,1.4,12.7s12.1,16,4.1,20.8c-1.9,1.1-4.1,1.4-6.2,0.8c-2.3-0.6-5-2.2-5.6-6.2"
			/>
		<g>
			<g>
				
					<polyline fill="none" stroke="#918D8D" stroke-width="2.8701" stroke-linecap="round" stroke-linejoin="round" stroke-miterlimit="10" points="
					194.7,114.6 193,83.8 201,81.1 				"/>
				
					<line fill="none" stroke="#918D8D" stroke-width="2.8701" stroke-linecap="round" stroke-linejoin="round" stroke-miterlimit="10" x1="194.1" y1="98.2" x2="202.1" y2="95.6"/>
			</g>
			
				<ellipse fill="none" stroke="#918D8D" stroke-width="2.8701" stroke-linecap="round" stroke-linejoin="round" stroke-miterlimit="10" cx="180.2" cy="102.5" rx="5.9" ry="15.2"/>
		</g>
		<g>
			
				<path fill="none" stroke="#918D8D" stroke-width="2.8701" stroke-linecap="round" stroke-linejoin="round" stroke-miterlimit="10" d="
				M147.3,162.6l-1.7-30.8c0,0,14.6-6.3,12,7.4c0,0-1.4,5.1-7.7,4.3c0,0,11.7-2.4,12.1,7.6c0.4,10-11.7,12-11.7,12"/>
			
				<polyline fill="none" stroke="#918D8D" stroke-width="2.8701" stroke-linecap="round" stroke-linejoin="round" stroke-miterlimit="10" points="
				203.3,148.9 201.6,118.1 222.1,143.8 220.4,112.9 			"/>
			
				<line fill="none" stroke="#918D8D" stroke-width="2.8701" stroke-linecap="round" stroke-linejoin="round" stroke-miterlimit="10" x1="190.1" y1="121.5" x2="191.8" y2="152.3"/>
			<g>
				
					<polyline fill="none" stroke="#918D8D" stroke-width="2.8701" stroke-linecap="round" stroke-linejoin="round" stroke-miterlimit="10" points="
					176.6,124.9 167.9,127.2 169.6,158 180.3,155.2 				"/>
				
					<line fill="none" stroke="#918D8D" stroke-width="2.8701" stroke-linecap="round" stroke-linejoin="round" stroke-miterlimit="10" x1="169.1" y1="141.5" x2="176.7" y2="139.3"/>
			</g>
			
				<path fill="none" stroke="#918D8D" stroke-width="2.8701" stroke-linecap="round" stroke-linejoin="round" stroke-miterlimit="10" d="
				M244.6,115c0,0-1.7-6.5-8.4-5.3c-8.1,1.4-8.7,27,1.7,30c2.7,0.8,5.6-0.3,7.1-2.7c1.2-1.9,2.2-5,1.7-10l-5.9,0.6"/>
		</g>
		<g>
			
				<path fill="none" stroke="#918D8D" stroke-width="2.8701" stroke-linecap="round" stroke-linejoin="round" stroke-miterlimit="10" d="
				M215.8,186l-1.7-30.8c0,0,14.6-6.3,12,7.4c0,0-1.4,5.1-7.7,4.3c0,0,8.9,17.8,13.4,15.9"/>
			<g>
				
					<polyline fill="none" stroke="#918D8D" stroke-width="2.8701" stroke-linecap="round" stroke-linejoin="round" stroke-miterlimit="10" points="
					206.3,157.5 197.6,159.8 199.3,190.6 210,187.7 				"/>
				
					<line fill="none" stroke="#918D8D" stroke-width="2.8701" stroke-linecap="round" stroke-linejoin="round" stroke-miterlimit="10" x1="198.8" y1="174" x2="206.4" y2="171.9"/>
			</g>
			<g>
				
					<polyline fill="none" stroke="#918D8D" stroke-width="2.8701" stroke-linecap="round" stroke-linejoin="round" stroke-miterlimit="10" points="
					242.8,148.3 234.1,150.6 235.8,181.5 246.5,178.6 				"/>
				
					<line fill="none" stroke="#918D8D" stroke-width="2.8701" stroke-linecap="round" stroke-linejoin="round" stroke-miterlimit="10" x1="235.4" y1="164.9" x2="243" y2="162.7"/>
			</g>
			
				<path fill="none" stroke="#918D8D" stroke-width="2.8701" stroke-linecap="round" stroke-linejoin="round" stroke-miterlimit="10" d="
				M150.9,177.3c0,0-1.7-6.5-8.4-5.3c-8.1,1.4-8.7,27,1.7,30c2.7,0.8,5.6-0.3,7.1-2.7c1.2-1.9,2.2-5,1.7-10"/>
			
				<ellipse fill="none" stroke="#918D8D" stroke-width="2.8701" stroke-linecap="round" stroke-linejoin="round" stroke-miterlimit="10" cx="165.3" cy="183.2" rx="8.5" ry="15.4"/>
			
				<polyline fill="none" stroke="#918D8D" stroke-width="2.8701" stroke-linecap="round" stroke-linejoin="round" stroke-miterlimit="10" points="
				175.7,165.7 187.8,193.4 190.3,162 			"/>
			
				<path fill="none" stroke="#918D8D" stroke-width="2.8701" stroke-linecap="round" stroke-linejoin="round" stroke-miterlimit="10" d="
				M252.6,177.1l-2.3-30.8c0,0,13.3-3.5,14.8,11.8C266.8,174.6,252.6,177.1,252.6,177.1z"/>
		</g>
	</g>
	<g>
		
			<polyline fill="none" stroke="#918D8D" stroke-width="4" stroke-linecap="round" stroke-linejoin="round" stroke-miterlimit="10" points="
			41.8,102.8 4.2,102.8 8.5,108.1 		"/>
		
			<line fill="none" stroke="#918D8D" stroke-width="4" stroke-linecap="round" stroke-linejoin="round" stroke-miterlimit="10" x1="4.2" y1="102.4" x2="8.2" y2="97.4"/>
	</g>
</g>
</svg>
