<?xml version="1.0" encoding="utf-8"?>
<!-- Generator: Adobe Illustrator 17.1.0, SVG Export Plug-In . SVG Version: 6.00 Build 0)  -->
<!DOCTYPE svg PUBLIC "-//W3C//DTD SVG 1.1//EN" "http://www.w3.org/Graphics/SVG/1.1/DTD/svg11.dtd">
<svg version="1.1" id="Layer_1" xmlns="http://www.w3.org/2000/svg" xmlns:xlink="http://www.w3.org/1999/xlink" x="0px" y="0px"
	 viewBox="0 0 500 500" enable-background="new 0 0 500 500" xml:space="preserve">
<g>
	
		<path fill="none" stroke="#4F4FB7" stroke-width="6.9239" stroke-linecap="round" stroke-linejoin="round" stroke-miterlimit="10" d="
		M115.3,240.6l-3.1-56.3c0,0,26.6-11.5,21.9,13.5c0,0-2.6,9.4-14.1,7.8c0,0,21.4-4.4,22.1,13.8c0.8,18.2-21.4,21.9-21.4,21.9"/>
	
		<polyline fill="none" stroke="#4F4FB7" stroke-width="6.9239" stroke-linecap="round" stroke-linejoin="round" stroke-miterlimit="10" points="
		190.3,220.8 187.2,164.5 224.7,211.4 221.6,155.1 	"/>
	
		<polyline fill="none" stroke="#4F4FB7" stroke-width="6.9239" stroke-linecap="round" stroke-linejoin="round" stroke-miterlimit="10" points="
		254.4,145.7 241.4,149.9 244.5,206.2 259.3,202.3 	"/>
	
		<line fill="none" stroke="#4F4FB7" stroke-width="6.9239" stroke-linecap="round" stroke-linejoin="round" stroke-miterlimit="10" x1="301.8" y1="135.3" x2="304.9" y2="191.6"/>
	<g>
		
			<polyline fill="none" stroke="#4F4FB7" stroke-width="6.9239" stroke-linecap="round" stroke-linejoin="round" stroke-miterlimit="10" points="
			166.6,171.8 150.7,176 153.8,232.2 173.4,227 		"/>
		
			<line fill="none" stroke="#4F4FB7" stroke-width="6.9239" stroke-linecap="round" stroke-linejoin="round" stroke-miterlimit="10" x1="153.1" y1="202" x2="166.9" y2="198.1"/>
	</g>
	
		<line fill="none" stroke="#4F4FB7" stroke-width="6.9239" stroke-linecap="round" stroke-linejoin="round" stroke-miterlimit="10" x1="242.9" y1="175.4" x2="257" y2="170.8"/>
	<g>
		
			<polyline fill="none" stroke="#4F4FB7" stroke-width="6.9239" stroke-linecap="round" stroke-linejoin="round" stroke-miterlimit="10" points="
			275.7,198.9 272.6,142.6 287.2,137.7 		"/>
		
			<line fill="none" stroke="#4F4FB7" stroke-width="6.9239" stroke-linecap="round" stroke-linejoin="round" stroke-miterlimit="10" x1="274.7" y1="168.9" x2="289.3" y2="164.2"/>
	</g>
	<g>
		
			<line fill="none" stroke="#4F4FB7" stroke-width="6.9239" stroke-linecap="round" stroke-linejoin="round" stroke-miterlimit="10" x1="328.9" y1="129.1" x2="332" y2="185.3"/>
		
			<line fill="none" stroke="#4F4FB7" stroke-width="6.9239" stroke-linecap="round" stroke-linejoin="round" stroke-miterlimit="10" x1="313" y1="131.7" x2="345.6" y2="123.9"/>
	</g>
	<g>
		<g>
			
				<polyline fill="none" stroke="#4F4FB7" stroke-width="6.9239" stroke-linecap="round" stroke-linejoin="round" stroke-miterlimit="10" points="
				280.4,68.7 267.4,72.8 270.5,129.1 285.4,125.2 			"/>
			
				<line fill="none" stroke="#4F4FB7" stroke-width="6.9239" stroke-linecap="round" stroke-linejoin="round" stroke-miterlimit="10" x1="269" y1="98.3" x2="283" y2="93.7"/>
		</g>
		<g>
			
				<line fill="none" stroke="#4F4FB7" stroke-width="6.9239" stroke-linecap="round" stroke-linejoin="round" stroke-miterlimit="10" x1="239.3" y1="136.4" x2="236.2" y2="80.1"/>
			
				<line fill="none" stroke="#4F4FB7" stroke-width="6.9239" stroke-linecap="round" stroke-linejoin="round" stroke-miterlimit="10" x1="257" y1="132.2" x2="253.9" y2="75.9"/>
			
				<line fill="none" stroke="#4F4FB7" stroke-width="6.9239" stroke-linecap="round" stroke-linejoin="round" stroke-miterlimit="10" x1="238.2" y1="106.4" x2="252.8" y2="101.7"/>
		</g>
		<g>
			
				<line fill="none" stroke="#4F4FB7" stroke-width="6.9239" stroke-linecap="round" stroke-linejoin="round" stroke-miterlimit="10" x1="208" y1="88.4" x2="211.1" y2="144.7"/>
			
				<line fill="none" stroke="#4F4FB7" stroke-width="6.9239" stroke-linecap="round" stroke-linejoin="round" stroke-miterlimit="10" x1="192.1" y1="91.1" x2="224.7" y2="83.3"/>
		</g>
	</g>
	
		<path fill="none" stroke="#4F4FB7" stroke-width="6.9239" stroke-linecap="round" stroke-linejoin="round" stroke-miterlimit="10" d="
		M380.2,125.8c0,0-1-14.8-14.8-10.2c-13.8,4.7,2.6,23.2,2.6,23.2s22,29.1,7.6,37.9c-3.4,2.1-7.5,2.6-11.4,1.5
		c-4.1-1.1-9.2-4-10.2-11.3"/>
	<g>
		<g>
			
				<polyline fill="none" stroke="#4F4FB7" stroke-width="6.9239" stroke-linecap="round" stroke-linejoin="round" stroke-miterlimit="10" points="
				259.1,271.8 255.9,215.6 270.5,210.6 			"/>
			
				<line fill="none" stroke="#4F4FB7" stroke-width="6.9239" stroke-linecap="round" stroke-linejoin="round" stroke-miterlimit="10" x1="258" y1="241.9" x2="272.6" y2="237.2"/>
		</g>
		
			<ellipse fill="none" stroke="#4F4FB7" stroke-width="6.9239" stroke-linecap="round" stroke-linejoin="round" stroke-miterlimit="10" cx="232.7" cy="249.6" rx="10.8" ry="27.8"/>
	</g>
	<g>
		
			<path fill="none" stroke="#4F4FB7" stroke-width="6.9239" stroke-linecap="round" stroke-linejoin="round" stroke-miterlimit="10" d="
			M172.6,359.3l-3.1-56.3c0,0,26.6-11.5,21.9,13.5c0,0-2.6,9.4-14.1,7.8c0,0,21.4-4.4,22.1,13.8c0.8,18.2-21.4,21.9-21.4,21.9"/>
		
			<polyline fill="none" stroke="#4F4FB7" stroke-width="6.9239" stroke-linecap="round" stroke-linejoin="round" stroke-miterlimit="10" points="
			274.7,334.3 271.6,278.1 309.1,324.9 306,268.7 		"/>
		
			<line fill="none" stroke="#4F4FB7" stroke-width="6.9239" stroke-linecap="round" stroke-linejoin="round" stroke-miterlimit="10" x1="250.7" y1="284.3" x2="253.9" y2="340.6"/>
		<g>
			
				<polyline fill="none" stroke="#4F4FB7" stroke-width="6.9239" stroke-linecap="round" stroke-linejoin="round" stroke-miterlimit="10" points="
				226,290.6 210.1,294.7 213.2,351 232.8,345.8 			"/>
			
				<line fill="none" stroke="#4F4FB7" stroke-width="6.9239" stroke-linecap="round" stroke-linejoin="round" stroke-miterlimit="10" x1="212.4" y1="320.8" x2="226.3" y2="316.9"/>
		</g>
		
			<path fill="none" stroke="#4F4FB7" stroke-width="6.9239" stroke-linecap="round" stroke-linejoin="round" stroke-miterlimit="10" d="
			M350.1,272.4c0,0-3.1-11.8-15.3-9.7c-14.7,2.5-15.9,49.3,3.1,54.8c4.9,1.4,10.3-0.6,13-4.9c2.2-3.5,4-9.2,3-18.3l-10.8,1"/>
	</g>
	<g>
		
			<path fill="none" stroke="#4F4FB7" stroke-width="6.9239" stroke-linecap="round" stroke-linejoin="round" stroke-miterlimit="10" d="
			M297.6,402l-3.1-56.3c0,0,26.6-11.5,21.9,13.5c0,0-2.6,9.4-14.1,7.8c0,0,16.1,32.5,24.5,29"/>
		<g>
			
				<polyline fill="none" stroke="#4F4FB7" stroke-width="6.9239" stroke-linecap="round" stroke-linejoin="round" stroke-miterlimit="10" points="
				280.2,350 264.3,354.1 267.4,410.4 286.9,405.2 			"/>
			
				<line fill="none" stroke="#4F4FB7" stroke-width="6.9239" stroke-linecap="round" stroke-linejoin="round" stroke-miterlimit="10" x1="266.6" y1="380.2" x2="280.4" y2="376.3"/>
		</g>
		<g>
			
				<polyline fill="none" stroke="#4F4FB7" stroke-width="6.9239" stroke-linecap="round" stroke-linejoin="round" stroke-miterlimit="10" points="
				346.8,333.3 331,337.5 334.1,393.7 353.6,388.5 			"/>
			
				<line fill="none" stroke="#4F4FB7" stroke-width="6.9239" stroke-linecap="round" stroke-linejoin="round" stroke-miterlimit="10" x1="333.3" y1="363.5" x2="347.1" y2="359.6"/>
		</g>
		
			<path fill="none" stroke="#4F4FB7" stroke-width="6.9239" stroke-linecap="round" stroke-linejoin="round" stroke-miterlimit="10" d="
			M179.2,386c0,0-3.1-11.8-15.3-9.7c-14.7,2.5-15.9,49.3,3.1,54.8c4.9,1.4,10.3-0.6,13-4.9c2.2-3.5,4-9.2,3-18.3"/>
		
			<ellipse fill="none" stroke="#4F4FB7" stroke-width="6.9239" stroke-linecap="round" stroke-linejoin="round" stroke-miterlimit="10" cx="205.4" cy="396.8" rx="15.5" ry="28.1"/>
		
			<polyline fill="none" stroke="#4F4FB7" stroke-width="6.9239" stroke-linecap="round" stroke-linejoin="round" stroke-miterlimit="10" points="
			224.3,364.9 246.6,415.6 251.1,358.3 		"/>
		
			<path fill="none" stroke="#4F4FB7" stroke-width="6.9239" stroke-linecap="round" stroke-linejoin="round" stroke-miterlimit="10" d="
			M364.6,385.7l-4.2-56.3c0,0,24.2-6.4,27.1,21.5C390.7,381.2,364.6,385.7,364.6,385.7z"/>
	</g>
</g>
</svg>
