<?xml version="1.0" encoding="utf-8"?>
<!-- Generator: Adobe Illustrator 17.1.0, SVG Export Plug-In . SVG Version: 6.00 Build 0)  -->
<!DOCTYPE svg PUBLIC "-//W3C//DTD SVG 1.1//EN" "http://www.w3.org/Graphics/SVG/1.1/DTD/svg11.dtd">
<svg version="1.1" id="Layer_1" xmlns="http://www.w3.org/2000/svg" xmlns:xlink="http://www.w3.org/1999/xlink" x="0px" y="0px"
	 viewBox="0 0 269.5 205.5" enable-background="new 0 0 269.5 205.5" xml:space="preserve">
<g>
	<g>
		
			<path fill="none" stroke="#918D8D" stroke-width="2.8701" stroke-linecap="round" stroke-linejoin="round" stroke-miterlimit="10" d="
			M7.4,97.4L5.7,66.6c0,0,14.6-6.3,12,7.4c0,0-1.4,5.1-7.7,4.3c0,0,11.7-2.4,12.1,7.6c0.4,10-11.7,12-11.7,12"/>
		
			<polyline fill="none" stroke="#918D8D" stroke-width="2.8701" stroke-linecap="round" stroke-linejoin="round" stroke-miterlimit="10" points="
			48.5,86.6 46.8,55.7 67.4,81.4 65.7,50.6 		"/>
		
			<polyline fill="none" stroke="#918D8D" stroke-width="2.8701" stroke-linecap="round" stroke-linejoin="round" stroke-miterlimit="10" points="
			83.7,45.4 76.5,47.7 78.2,78.6 86.4,76.4 		"/>
		
			<line fill="none" stroke="#918D8D" stroke-width="2.8701" stroke-linecap="round" stroke-linejoin="round" stroke-miterlimit="10" x1="109.6" y1="39.7" x2="111.4" y2="70.6"/>
		<g>
			
				<polyline fill="none" stroke="#918D8D" stroke-width="2.8701" stroke-linecap="round" stroke-linejoin="round" stroke-miterlimit="10" points="
				35.6,59.7 26.8,62 28.6,92.8 39.3,90 			"/>
			
				<line fill="none" stroke="#918D8D" stroke-width="2.8701" stroke-linecap="round" stroke-linejoin="round" stroke-miterlimit="10" x1="28.1" y1="76.3" x2="35.7" y2="74.1"/>
		</g>
		
			<line fill="none" stroke="#918D8D" stroke-width="2.8701" stroke-linecap="round" stroke-linejoin="round" stroke-miterlimit="10" x1="77.4" y1="61.7" x2="85.1" y2="59.1"/>
		<g>
			
				<polyline fill="none" stroke="#918D8D" stroke-width="2.8701" stroke-linecap="round" stroke-linejoin="round" stroke-miterlimit="10" points="
				95.4,74.6 93.7,43.7 101.7,41 			"/>
			
				<line fill="none" stroke="#918D8D" stroke-width="2.8701" stroke-linecap="round" stroke-linejoin="round" stroke-miterlimit="10" x1="94.8" y1="58.2" x2="102.8" y2="55.6"/>
		</g>
		<g>
			
				<line fill="none" stroke="#918D8D" stroke-width="2.8701" stroke-linecap="round" stroke-linejoin="round" stroke-miterlimit="10" x1="124.5" y1="36.3" x2="126.2" y2="67.1"/>
			
				<line fill="none" stroke="#918D8D" stroke-width="2.8701" stroke-linecap="round" stroke-linejoin="round" stroke-miterlimit="10" x1="115.8" y1="37.7" x2="133.7" y2="33.5"/>
		</g>
		<g>
			<g>
				
					<polyline fill="none" stroke="#918D8D" stroke-width="2.8701" stroke-linecap="round" stroke-linejoin="round" stroke-miterlimit="10" points="
					97.9,3.2 90.8,5.5 92.5,36.3 100.7,34.2 				"/>
				
					<line fill="none" stroke="#918D8D" stroke-width="2.8701" stroke-linecap="round" stroke-linejoin="round" stroke-miterlimit="10" x1="91.7" y1="19.5" x2="99.4" y2="16.9"/>
			</g>
			<g>
				
					<line fill="none" stroke="#918D8D" stroke-width="2.8701" stroke-linecap="round" stroke-linejoin="round" stroke-miterlimit="10" x1="75.4" y1="40.3" x2="73.7" y2="9.5"/>
				
					<line fill="none" stroke="#918D8D" stroke-width="2.8701" stroke-linecap="round" stroke-linejoin="round" stroke-miterlimit="10" x1="85.1" y1="38" x2="83.4" y2="7.2"/>
				
					<line fill="none" stroke="#918D8D" stroke-width="2.8701" stroke-linecap="round" stroke-linejoin="round" stroke-miterlimit="10" x1="74.8" y1="23.9" x2="82.8" y2="21.3"/>
			</g>
			<g>
				
					<line fill="none" stroke="#918D8D" stroke-width="2.8701" stroke-linecap="round" stroke-linejoin="round" stroke-miterlimit="10" x1="58.3" y1="14" x2="60" y2="44.9"/>
				
					<line fill="none" stroke="#918D8D" stroke-width="2.8701" stroke-linecap="round" stroke-linejoin="round" stroke-miterlimit="10" x1="49.5" y1="15.5" x2="67.4" y2="11.2"/>
			</g>
		</g>
		
			<path fill="none" stroke="#918D8D" stroke-width="2.8701" stroke-linecap="round" stroke-linejoin="round" stroke-miterlimit="10" d="
			M152.6,34.8c0,0-0.6-8.1-8.1-5.6s1.4,12.7,1.4,12.7s12.1,16,4.1,20.8c-1.9,1.1-4.1,1.4-6.2,0.8c-2.3-0.6-5-2.2-5.6-6.2"/>
		<g>
			<g>
				
					<polyline fill="none" stroke="#918D8D" stroke-width="2.8701" stroke-linecap="round" stroke-linejoin="round" stroke-miterlimit="10" points="
					86.2,114.5 84.5,83.7 92.5,81 				"/>
				
					<line fill="none" stroke="#918D8D" stroke-width="2.8701" stroke-linecap="round" stroke-linejoin="round" stroke-miterlimit="10" x1="85.7" y1="98.1" x2="93.7" y2="95.6"/>
			</g>
			
				<ellipse fill="none" stroke="#918D8D" stroke-width="2.8701" stroke-linecap="round" stroke-linejoin="round" stroke-miterlimit="10" cx="71.8" cy="102.4" rx="5.9" ry="15.2"/>
		</g>
		<g>
			
				<path fill="none" stroke="#918D8D" stroke-width="2.8701" stroke-linecap="round" stroke-linejoin="round" stroke-miterlimit="10" d="
				M38.8,162.5l-1.7-30.8c0,0,14.6-6.3,12,7.4c0,0-1.4,5.1-7.7,4.3c0,0,11.7-2.4,12.1,7.6c0.4,10-11.7,12-11.7,12"/>
			
				<polyline fill="none" stroke="#918D8D" stroke-width="2.8701" stroke-linecap="round" stroke-linejoin="round" stroke-miterlimit="10" points="
				94.8,148.8 93.1,118 113.6,143.7 111.9,112.8 			"/>
			
				<line fill="none" stroke="#918D8D" stroke-width="2.8701" stroke-linecap="round" stroke-linejoin="round" stroke-miterlimit="10" x1="81.7" y1="121.4" x2="83.4" y2="152.2"/>
			<g>
				
					<polyline fill="none" stroke="#918D8D" stroke-width="2.8701" stroke-linecap="round" stroke-linejoin="round" stroke-miterlimit="10" points="
					68.1,124.8 59.4,127.1 61.1,157.9 71.8,155.1 				"/>
				
					<line fill="none" stroke="#918D8D" stroke-width="2.8701" stroke-linecap="round" stroke-linejoin="round" stroke-miterlimit="10" x1="60.7" y1="141.4" x2="68.2" y2="139.2"/>
			</g>
			
				<path fill="none" stroke="#918D8D" stroke-width="2.8701" stroke-linecap="round" stroke-linejoin="round" stroke-miterlimit="10" d="
				M136.1,115.1c0,0-1.7-6.5-8.4-5.3c-8.1,1.4-8.7,27,1.7,30c2.7,0.8,5.6-0.3,7.1-2.7c1.2-1.9,2.2-5,1.7-10l-5.9,0.6"/>
		</g>
		<g>
			
				<path fill="none" stroke="#918D8D" stroke-width="2.8701" stroke-linecap="round" stroke-linejoin="round" stroke-miterlimit="10" d="
				M107.4,185.9l-1.7-30.8c0,0,14.6-6.3,12,7.4c0,0-1.4,5.1-7.7,4.3c0,0,8.9,17.8,13.4,15.9"/>
			<g>
				
					<polyline fill="none" stroke="#918D8D" stroke-width="2.8701" stroke-linecap="round" stroke-linejoin="round" stroke-miterlimit="10" points="
					97.8,157.4 89.1,159.7 90.8,190.5 101.5,187.6 				"/>
				
					<line fill="none" stroke="#918D8D" stroke-width="2.8701" stroke-linecap="round" stroke-linejoin="round" stroke-miterlimit="10" x1="90.4" y1="173.9" x2="97.9" y2="171.8"/>
			</g>
			<g>
				
					<polyline fill="none" stroke="#918D8D" stroke-width="2.8701" stroke-linecap="round" stroke-linejoin="round" stroke-miterlimit="10" points="
					134.3,148.2 125.6,150.5 127.4,181.4 138.1,178.5 				"/>
				
					<line fill="none" stroke="#918D8D" stroke-width="2.8701" stroke-linecap="round" stroke-linejoin="round" stroke-miterlimit="10" x1="126.9" y1="164.8" x2="134.5" y2="162.7"/>
			</g>
			
				<path fill="none" stroke="#918D8D" stroke-width="2.8701" stroke-linecap="round" stroke-linejoin="round" stroke-miterlimit="10" d="
				M42.5,177.4c0,0-1.7-6.5-8.4-5.3c-8.1,1.4-8.7,27,1.7,30c2.7,0.8,5.6-0.3,7.1-2.7c1.2-1.9,2.2-5,1.7-10"/>
			
				<ellipse fill="none" stroke="#918D8D" stroke-width="2.8701" stroke-linecap="round" stroke-linejoin="round" stroke-miterlimit="10" cx="56.8" cy="183.1" rx="8.5" ry="15.4"/>
			
				<polyline fill="none" stroke="#918D8D" stroke-width="2.8701" stroke-linecap="round" stroke-linejoin="round" stroke-miterlimit="10" points="
				67.2,165.6 79.4,193.4 81.9,161.9 			"/>
			
				<path fill="none" stroke="#918D8D" stroke-width="2.8701" stroke-linecap="round" stroke-linejoin="round" stroke-miterlimit="10" d="
				M144.1,177l-2.3-30.8c0,0,13.3-3.5,14.8,11.8C158.4,174.5,144.1,177,144.1,177z"/>
		</g>
	</g>
	<g>
		
			<polyline fill="none" stroke="#918D8D" stroke-width="4" stroke-linecap="round" stroke-linejoin="round" stroke-miterlimit="10" points="
			227.2,102.8 263.8,102.8 260,97.4 		"/>
		
			<line fill="none" stroke="#918D8D" stroke-width="4" stroke-linecap="round" stroke-linejoin="round" stroke-miterlimit="10" x1="263.8" y1="103.1" x2="259.8" y2="108.1"/>
	</g>
</g>
</svg>
