<?xml version="1.0" encoding="utf-8"?>
<!-- Generator: Adobe Illustrator 17.1.0, SVG Export Plug-In . SVG Version: 6.00 Build 0)  -->
<!DOCTYPE svg PUBLIC "-//W3C//DTD SVG 1.1//EN" "http://www.w3.org/Graphics/SVG/1.1/DTD/svg11.dtd">
<svg version="1.1" id="Layer_1" xmlns="http://www.w3.org/2000/svg" xmlns:xlink="http://www.w3.org/1999/xlink" x="0px" y="0px"
	 viewBox="0 0 500 500" enable-background="new 0 0 500 500" xml:space="preserve">
<g>
	
		<path fill="none" stroke="#4F4FB7" stroke-width="8.2048" stroke-linecap="round" stroke-linejoin="round" stroke-miterlimit="10" d="
		M90.4,238.8l-3.7-66.7c0,0,31.5-13.6,25.9,16c0,0-3.1,11.1-16.7,9.3c0,0,25.3-5.2,26.2,16.4c0.9,21.6-25.3,25.9-25.3,25.9"/>
	
		<polyline fill="none" stroke="#4F4FB7" stroke-width="8.2048" stroke-linecap="round" stroke-linejoin="round" stroke-miterlimit="10" points="
		179.3,215.3 175.6,148.7 220,204.2 216.3,137.6 	"/>
	
		<polyline fill="none" stroke="#4F4FB7" stroke-width="8.2048" stroke-linecap="round" stroke-linejoin="round" stroke-miterlimit="10" points="
		255.2,126.4 239.8,131.4 243.5,198.1 261.1,193.4 	"/>
	
		<line fill="none" stroke="#4F4FB7" stroke-width="8.2048" stroke-linecap="round" stroke-linejoin="round" stroke-miterlimit="10" x1="311.4" y1="114.1" x2="315.1" y2="180.8"/>
	<g>
		
			<polyline fill="none" stroke="#4F4FB7" stroke-width="8.2048" stroke-linecap="round" stroke-linejoin="round" stroke-miterlimit="10" points="
			151.2,157.3 132.4,162.3 136.1,228.9 159.2,222.7 		"/>
		
			<line fill="none" stroke="#4F4FB7" stroke-width="8.2048" stroke-linecap="round" stroke-linejoin="round" stroke-miterlimit="10" x1="135.1" y1="193.1" x2="151.5" y2="188.5"/>
	</g>
	
		<line fill="none" stroke="#4F4FB7" stroke-width="8.2048" stroke-linecap="round" stroke-linejoin="round" stroke-miterlimit="10" x1="241.6" y1="161.6" x2="258.3" y2="156.1"/>
	<g>
		
			<polyline fill="none" stroke="#4F4FB7" stroke-width="8.2048" stroke-linecap="round" stroke-linejoin="round" stroke-miterlimit="10" points="
			280.5,189.4 276.8,122.7 294.1,116.9 		"/>
		
			<line fill="none" stroke="#4F4FB7" stroke-width="8.2048" stroke-linecap="round" stroke-linejoin="round" stroke-miterlimit="10" x1="279.3" y1="153.9" x2="296.6" y2="148.4"/>
	</g>
	<g>
		
			<line fill="none" stroke="#4F4FB7" stroke-width="8.2048" stroke-linecap="round" stroke-linejoin="round" stroke-miterlimit="10" x1="343.5" y1="106.7" x2="347.2" y2="173.4"/>
		
			<line fill="none" stroke="#4F4FB7" stroke-width="8.2048" stroke-linecap="round" stroke-linejoin="round" stroke-miterlimit="10" x1="324.6" y1="109.8" x2="363.3" y2="100.5"/>
	</g>
	<g>
		<g>
			
				<polyline fill="none" stroke="#4F4FB7" stroke-width="8.2048" stroke-linecap="round" stroke-linejoin="round" stroke-miterlimit="10" points="
				286.1,35.1 270.6,40 274.3,106.7 291.9,102.1 			"/>
			
				<line fill="none" stroke="#4F4FB7" stroke-width="8.2048" stroke-linecap="round" stroke-linejoin="round" stroke-miterlimit="10" x1="272.5" y1="70.3" x2="289.1" y2="64.7"/>
		</g>
		<g>
			
				<line fill="none" stroke="#4F4FB7" stroke-width="8.2048" stroke-linecap="round" stroke-linejoin="round" stroke-miterlimit="10" x1="237.3" y1="115.3" x2="233.6" y2="48.7"/>
			
				<line fill="none" stroke="#4F4FB7" stroke-width="8.2048" stroke-linecap="round" stroke-linejoin="round" stroke-miterlimit="10" x1="258.3" y1="110.4" x2="254.6" y2="43.7"/>
			
				<line fill="none" stroke="#4F4FB7" stroke-width="8.2048" stroke-linecap="round" stroke-linejoin="round" stroke-miterlimit="10" x1="236.1" y1="79.8" x2="253.3" y2="74.3"/>
		</g>
		<g>
			
				<line fill="none" stroke="#4F4FB7" stroke-width="8.2048" stroke-linecap="round" stroke-linejoin="round" stroke-miterlimit="10" x1="200.3" y1="58.5" x2="204" y2="125.2"/>
			
				<line fill="none" stroke="#4F4FB7" stroke-width="8.2048" stroke-linecap="round" stroke-linejoin="round" stroke-miterlimit="10" x1="181.4" y1="61.6" x2="220.1" y2="52.4"/>
		</g>
	</g>
	
		<path fill="none" stroke="#4F4FB7" stroke-width="8.2048" stroke-linecap="round" stroke-linejoin="round" stroke-miterlimit="10" d="
		M404.3,102.8c0,0-1.2-17.6-17.6-12s3.1,27.5,3.1,27.5s26.1,34.5,9,44.9c-4,2.4-8.9,3-13.5,1.8c-4.9-1.3-10.9-4.7-12.1-13.4"/>
	<g>
		<g>
			
				<polyline fill="none" stroke="#4F4FB7" stroke-width="8.2048" stroke-linecap="round" stroke-linejoin="round" stroke-miterlimit="10" points="
				260.8,275.8 257,209.2 274.3,203.3 			"/>
			
				<line fill="none" stroke="#4F4FB7" stroke-width="8.2048" stroke-linecap="round" stroke-linejoin="round" stroke-miterlimit="10" x1="259.5" y1="240.3" x2="276.8" y2="234.8"/>
		</g>
		
			<ellipse fill="none" stroke="#4F4FB7" stroke-width="8.2048" stroke-linecap="round" stroke-linejoin="round" stroke-miterlimit="10" cx="229.5" cy="249.5" rx="12.8" ry="32.9"/>
	</g>
	<g>
		
			<path fill="none" stroke="#4F4FB7" stroke-width="8.2048" stroke-linecap="round" stroke-linejoin="round" stroke-miterlimit="10" d="
			M158.3,379.5l-3.7-66.7c0,0,31.5-13.6,25.9,16c0,0-3.1,11.1-16.7,9.3c0,0,25.3-5.2,26.2,16.4c0.9,21.6-25.3,25.9-25.3,25.9"/>
		
			<polyline fill="none" stroke="#4F4FB7" stroke-width="8.2048" stroke-linecap="round" stroke-linejoin="round" stroke-miterlimit="10" points="
			279.3,349.9 275.6,283.2 320,338.8 316.3,272.1 		"/>
		
			<line fill="none" stroke="#4F4FB7" stroke-width="8.2048" stroke-linecap="round" stroke-linejoin="round" stroke-miterlimit="10" x1="250.9" y1="290.7" x2="254.6" y2="357.3"/>
		<g>
			
				<polyline fill="none" stroke="#4F4FB7" stroke-width="8.2048" stroke-linecap="round" stroke-linejoin="round" stroke-miterlimit="10" points="
				221.6,298.1 202.7,303 206.4,369.7 229.6,363.5 			"/>
			
				<line fill="none" stroke="#4F4FB7" stroke-width="8.2048" stroke-linecap="round" stroke-linejoin="round" stroke-miterlimit="10" x1="205.5" y1="333.9" x2="221.9" y2="329.2"/>
		</g>
		
			<path fill="none" stroke="#4F4FB7" stroke-width="8.2048" stroke-linecap="round" stroke-linejoin="round" stroke-miterlimit="10" d="
			M368.6,276.5c0,0-3.7-14-18.1-11.5c-17.5,3-18.8,58.4,3.6,64.9c5.8,1.7,12.2-0.7,15.4-5.9c2.6-4.1,4.8-10.9,3.6-21.6l-12.8,1.2"/>
	</g>
	<g>
		
			<path fill="none" stroke="#4F4FB7" stroke-width="8.2048" stroke-linecap="round" stroke-linejoin="round" stroke-miterlimit="10" d="
			M306.4,430.2l-3.7-66.7c0,0,31.5-13.6,25.9,16c0,0-3.1,11.1-16.7,9.3c0,0,19.1,38.5,29,34.4"/>
		<g>
			
				<polyline fill="none" stroke="#4F4FB7" stroke-width="8.2048" stroke-linecap="round" stroke-linejoin="round" stroke-miterlimit="10" points="
				285.8,368.4 266.9,373.4 270.6,440 293.8,433.9 			"/>
			
				<line fill="none" stroke="#4F4FB7" stroke-width="8.2048" stroke-linecap="round" stroke-linejoin="round" stroke-miterlimit="10" x1="269.7" y1="404.2" x2="286.1" y2="399.6"/>
		</g>
		<g>
			
				<polyline fill="none" stroke="#4F4FB7" stroke-width="8.2048" stroke-linecap="round" stroke-linejoin="round" stroke-miterlimit="10" points="
				364.8,348.7 345.9,353.6 349.6,420.3 372.8,414.1 			"/>
			
				<line fill="none" stroke="#4F4FB7" stroke-width="8.2048" stroke-linecap="round" stroke-linejoin="round" stroke-miterlimit="10" x1="348.7" y1="384.5" x2="365.1" y2="379.9"/>
		</g>
		
			<path fill="none" stroke="#4F4FB7" stroke-width="8.2048" stroke-linecap="round" stroke-linejoin="round" stroke-miterlimit="10" d="
			M166.1,411.1c0,0-3.7-14-18.1-11.5c-17.5,3-18.8,58.4,3.6,64.9c5.8,1.7,12.2-0.7,15.4-5.9c2.6-4.1,4.8-10.9,3.6-21.6"/>
		
			<ellipse fill="none" stroke="#4F4FB7" stroke-width="8.2048" stroke-linecap="round" stroke-linejoin="round" stroke-miterlimit="10" cx="197.2" cy="424" rx="18.3" ry="33.3"/>
		
			<polyline fill="none" stroke="#4F4FB7" stroke-width="8.2048" stroke-linecap="round" stroke-linejoin="round" stroke-miterlimit="10" points="
			219.6,386.1 245.9,446.2 251.3,378.3 		"/>
		
			<path fill="none" stroke="#4F4FB7" stroke-width="8.2048" stroke-linecap="round" stroke-linejoin="round" stroke-miterlimit="10" d="
			M385.9,410.8l-4.9-66.7c0,0,28.7-7.6,32.1,25.5C416.7,405.5,385.9,410.8,385.9,410.8z"/>
	</g>
</g>
</svg>
