<?xml version="1.0" encoding="utf-8"?>
<!-- Generator: Adobe Illustrator 17.1.0, SVG Export Plug-In . SVG Version: 6.00 Build 0)  -->
<!DOCTYPE svg PUBLIC "-//W3C//DTD SVG 1.1//EN" "http://www.w3.org/Graphics/SVG/1.1/DTD/svg11.dtd">
<svg version="1.1" id="Layer_1" xmlns="http://www.w3.org/2000/svg" xmlns:xlink="http://www.w3.org/1999/xlink" x="0px" y="0px"
	 viewBox="0 0 269.5 205.5" enable-background="new 0 0 269.5 205.5" xml:space="preserve">
<g>
	<g>
		
			<path fill="none" stroke="#4F4FB7" stroke-width="2.8701" stroke-linecap="round" stroke-linejoin="round" stroke-miterlimit="10" d="
			M115.9,97.3l-1.7-30.8c0,0,14.6-6.3,12,7.4c0,0-1.4,5.1-7.7,4.3c0,0,11.7-2.4,12.1,7.6c0.4,10-11.7,12-11.7,12"/>
		
			<polyline fill="none" stroke="#4F4FB7" stroke-width="2.8701" stroke-linecap="round" stroke-linejoin="round" stroke-miterlimit="10" points="
			157,86.5 155.3,55.6 175.9,81.3 174.1,50.5 		"/>
		
			<polyline fill="none" stroke="#4F4FB7" stroke-width="2.8701" stroke-linecap="round" stroke-linejoin="round" stroke-miterlimit="10" points="
			192.1,45.4 185,47.6 186.7,78.5 194.8,76.3 		"/>
		
			<line fill="none" stroke="#4F4FB7" stroke-width="2.8701" stroke-linecap="round" stroke-linejoin="round" stroke-miterlimit="10" x1="218.1" y1="39.6" x2="219.8" y2="70.5"/>
		<g>
			
				<polyline fill="none" stroke="#4F4FB7" stroke-width="2.8701" stroke-linecap="round" stroke-linejoin="round" stroke-miterlimit="10" points="
				144,59.6 135.3,61.9 137,92.8 147.7,89.9 			"/>
			
				<line fill="none" stroke="#4F4FB7" stroke-width="2.8701" stroke-linecap="round" stroke-linejoin="round" stroke-miterlimit="10" x1="136.6" y1="76.2" x2="144.2" y2="74"/>
		</g>
		
			<line fill="none" stroke="#4F4FB7" stroke-width="2.8701" stroke-linecap="round" stroke-linejoin="round" stroke-miterlimit="10" x1="185.8" y1="61.6" x2="193.6" y2="59.1"/>
		<g>
			
				<polyline fill="none" stroke="#4F4FB7" stroke-width="2.8701" stroke-linecap="round" stroke-linejoin="round" stroke-miterlimit="10" points="
				203.8,74.5 202.1,43.6 210.1,40.9 			"/>
			
				<line fill="none" stroke="#4F4FB7" stroke-width="2.8701" stroke-linecap="round" stroke-linejoin="round" stroke-miterlimit="10" x1="203.3" y1="58.1" x2="211.3" y2="55.5"/>
		</g>
		<g>
			
				<line fill="none" stroke="#4F4FB7" stroke-width="2.8701" stroke-linecap="round" stroke-linejoin="round" stroke-miterlimit="10" x1="233" y1="36.2" x2="234.7" y2="67.1"/>
			
				<line fill="none" stroke="#4F4FB7" stroke-width="2.8701" stroke-linecap="round" stroke-linejoin="round" stroke-miterlimit="10" x1="224.3" y1="37.6" x2="242.1" y2="33.4"/>
		</g>
		<g>
			<g>
				
					<polyline fill="none" stroke="#4F4FB7" stroke-width="2.8701" stroke-linecap="round" stroke-linejoin="round" stroke-miterlimit="10" points="
					206.4,3.1 199.3,5.4 201,36.2 209.1,34.1 				"/>
				
					<line fill="none" stroke="#4F4FB7" stroke-width="2.8701" stroke-linecap="round" stroke-linejoin="round" stroke-miterlimit="10" x1="200.1" y1="19.4" x2="207.8" y2="16.8"/>
			</g>
			<g>
				
					<line fill="none" stroke="#4F4FB7" stroke-width="2.8701" stroke-linecap="round" stroke-linejoin="round" stroke-miterlimit="10" x1="183.8" y1="40.2" x2="182.1" y2="9.4"/>
				
					<line fill="none" stroke="#4F4FB7" stroke-width="2.8701" stroke-linecap="round" stroke-linejoin="round" stroke-miterlimit="10" x1="193.6" y1="37.9" x2="191.8" y2="7.1"/>
				
					<line fill="none" stroke="#4F4FB7" stroke-width="2.8701" stroke-linecap="round" stroke-linejoin="round" stroke-miterlimit="10" x1="183.3" y1="23.8" x2="191.3" y2="21.2"/>
			</g>
			<g>
				
					<line fill="none" stroke="#4F4FB7" stroke-width="2.8701" stroke-linecap="round" stroke-linejoin="round" stroke-miterlimit="10" x1="166.7" y1="13.9" x2="168.4" y2="44.8"/>
				
					<line fill="none" stroke="#4F4FB7" stroke-width="2.8701" stroke-linecap="round" stroke-linejoin="round" stroke-miterlimit="10" x1="158" y1="15.4" x2="175.9" y2="11.1"/>
			</g>
		</g>
		
			<path fill="none" stroke="#4F4FB7" stroke-width="2.8701" stroke-linecap="round" stroke-linejoin="round" stroke-miterlimit="10" d="
			M261.1,34.7c0,0-0.6-8.1-8.1-5.6c-7.6,2.6,1.4,12.7,1.4,12.7s12.1,16,4.1,20.8c-1.9,1.1-4.1,1.4-6.2,0.8c-2.3-0.6-5-2.2-5.6-6.2"
			/>
		<g>
			<g>
				
					<polyline fill="none" stroke="#4F4FB7" stroke-width="2.8701" stroke-linecap="round" stroke-linejoin="round" stroke-miterlimit="10" points="
					194.7,114.5 193,83.6 201,80.9 				"/>
				
					<line fill="none" stroke="#4F4FB7" stroke-width="2.8701" stroke-linecap="round" stroke-linejoin="round" stroke-miterlimit="10" x1="194.1" y1="98" x2="202.1" y2="95.5"/>
			</g>
			
				<ellipse fill="none" stroke="#4F4FB7" stroke-width="2.8701" stroke-linecap="round" stroke-linejoin="round" stroke-miterlimit="10" cx="180.2" cy="102.3" rx="5.9" ry="15.2"/>
		</g>
		<g>
			
				<path fill="none" stroke="#4F4FB7" stroke-width="2.8701" stroke-linecap="round" stroke-linejoin="round" stroke-miterlimit="10" d="
				M147.3,162.4l-1.7-30.8c0,0,14.6-6.3,12,7.4c0,0-1.4,5.1-7.7,4.3c0,0,11.7-2.4,12.1,7.6c0.4,10-11.7,12-11.7,12"/>
			
				<polyline fill="none" stroke="#4F4FB7" stroke-width="2.8701" stroke-linecap="round" stroke-linejoin="round" stroke-miterlimit="10" points="
				203.3,148.7 201.6,117.9 222.1,143.6 220.4,112.7 			"/>
			
				<line fill="none" stroke="#4F4FB7" stroke-width="2.8701" stroke-linecap="round" stroke-linejoin="round" stroke-miterlimit="10" x1="190.1" y1="121.3" x2="191.8" y2="152.1"/>
			<g>
				
					<polyline fill="none" stroke="#4F4FB7" stroke-width="2.8701" stroke-linecap="round" stroke-linejoin="round" stroke-miterlimit="10" points="
					176.6,124.7 167.9,127 169.6,157.9 180.3,155 				"/>
				
					<line fill="none" stroke="#4F4FB7" stroke-width="2.8701" stroke-linecap="round" stroke-linejoin="round" stroke-miterlimit="10" x1="169.1" y1="141.3" x2="176.7" y2="139.2"/>
			</g>
			
				<path fill="none" stroke="#4F4FB7" stroke-width="2.8701" stroke-linecap="round" stroke-linejoin="round" stroke-miterlimit="10" d="
				M244.6,115c0,0-1.7-6.5-8.4-5.3c-8.1,1.4-8.7,27,1.7,30c2.7,0.8,5.6-0.3,7.1-2.7c1.2-1.9,2.2-5,1.7-10l-5.9,0.6"/>
		</g>
		<g>
			
				<path fill="none" stroke="#4F4FB7" stroke-width="2.8701" stroke-linecap="round" stroke-linejoin="round" stroke-miterlimit="10" d="
				M215.8,185.8l-1.7-30.8c0,0,14.6-6.3,12,7.4c0,0-1.4,5.1-7.7,4.3c0,0,8.9,17.8,13.4,15.9"/>
			<g>
				
					<polyline fill="none" stroke="#4F4FB7" stroke-width="2.8701" stroke-linecap="round" stroke-linejoin="round" stroke-miterlimit="10" points="
					206.3,157.3 197.6,159.6 199.3,190.4 210,187.6 				"/>
				
					<line fill="none" stroke="#4F4FB7" stroke-width="2.8701" stroke-linecap="round" stroke-linejoin="round" stroke-miterlimit="10" x1="198.8" y1="173.8" x2="206.4" y2="171.7"/>
			</g>
			<g>
				
					<polyline fill="none" stroke="#4F4FB7" stroke-width="2.8701" stroke-linecap="round" stroke-linejoin="round" stroke-miterlimit="10" points="
					242.8,148.1 234.1,150.4 235.8,181.3 246.5,178.4 				"/>
				
					<line fill="none" stroke="#4F4FB7" stroke-width="2.8701" stroke-linecap="round" stroke-linejoin="round" stroke-miterlimit="10" x1="235.4" y1="164.7" x2="243" y2="162.6"/>
			</g>
			
				<path fill="none" stroke="#4F4FB7" stroke-width="2.8701" stroke-linecap="round" stroke-linejoin="round" stroke-miterlimit="10" d="
				M150.9,177.3c0,0-1.7-6.5-8.4-5.3c-8.1,1.4-8.7,27,1.7,30c2.7,0.8,5.6-0.3,7.1-2.7c1.2-1.9,2.2-5,1.7-10"/>
			
				<ellipse fill="none" stroke="#4F4FB7" stroke-width="2.8701" stroke-linecap="round" stroke-linejoin="round" stroke-miterlimit="10" cx="165.3" cy="183" rx="8.5" ry="15.4"/>
			
				<polyline fill="none" stroke="#4F4FB7" stroke-width="2.8701" stroke-linecap="round" stroke-linejoin="round" stroke-miterlimit="10" points="
				175.7,165.5 187.8,193.3 190.3,161.9 			"/>
			
				<path fill="none" stroke="#4F4FB7" stroke-width="2.8701" stroke-linecap="round" stroke-linejoin="round" stroke-miterlimit="10" d="
				M252.6,176.9l-2.3-30.8c0,0,13.3-3.5,14.8,11.8C266.8,174.4,252.6,176.9,252.6,176.9z"/>
		</g>
	</g>
	<g>
		
			<polyline fill="none" stroke="#4F4FB7" stroke-width="4" stroke-linecap="round" stroke-linejoin="round" stroke-miterlimit="10" points="
			41.5,102.5 4.2,102.5 8.4,107.8 		"/>
		
			<line fill="none" stroke="#4F4FB7" stroke-width="4" stroke-linecap="round" stroke-linejoin="round" stroke-miterlimit="10" x1="4.2" y1="102.2" x2="8.2" y2="97.2"/>
	</g>
</g>
</svg>
