<?xml version="1.0" encoding="utf-8"?>
<!-- Generator: Adobe Illustrator 17.1.0, SVG Export Plug-In . SVG Version: 6.00 Build 0)  -->
<!DOCTYPE svg PUBLIC "-//W3C//DTD SVG 1.1//EN" "http://www.w3.org/Graphics/SVG/1.1/DTD/svg11.dtd">
<svg version="1.1" id="Layer_1" xmlns="http://www.w3.org/2000/svg" xmlns:xlink="http://www.w3.org/1999/xlink" x="0px" y="0px"
	 viewBox="0 0 300 140" enable-background="new 0 0 300 140" xml:space="preserve">
<g>
	<g>
		
			<line fill="none" stroke="#4B6FF7" stroke-width="3.8277" stroke-linecap="round" stroke-linejoin="round" stroke-miterlimit="10" x1="263.1" y1="75" x2="253.2" y2="114.8"/>
		
			<line fill="none" stroke="#4B6FF7" stroke-width="3.8277" stroke-linecap="round" stroke-linejoin="round" stroke-miterlimit="10" x1="291" y1="75" x2="281" y2="114.8"/>
		
			<line fill="none" stroke="#4B6FF7" stroke-width="3.8277" stroke-linecap="round" stroke-linejoin="round" stroke-miterlimit="10" x1="264" y1="74.8" x2="276.8" y2="83.5"/>
		
			<line fill="none" stroke="#4B6FF7" stroke-width="3.8277" stroke-linecap="round" stroke-linejoin="round" stroke-miterlimit="10" x1="290.1" y1="74.8" x2="277.3" y2="83.5"/>
	</g>
	<g>
		
			<polyline fill="none" stroke="#4B6FF7" stroke-width="3.8277" stroke-linecap="round" stroke-linejoin="round" stroke-miterlimit="10" points="
			168.8,114.6 190.5,74.4 200.2,114.8 		"/>
		
			<line fill="none" stroke="#4B6FF7" stroke-width="4" stroke-linecap="round" stroke-linejoin="round" stroke-miterlimit="10" x1="180" y1="96.4" x2="195" y2="96.4"/>
	</g>
	
		<path fill="none" stroke="#4B6FF7" stroke-width="3.8277" stroke-linecap="round" stroke-linejoin="round" stroke-miterlimit="10" d="
		M77.3,94.9c0,11.5-15.8,19.2-22.9,19.2s-7.9-5.7-7.9-17.3S57.2,75,64.3,75S77.3,83.4,77.3,94.9z"/>
	<g>
		
			<polyline fill="none" stroke="#4B6FF7" stroke-width="3.8277" stroke-linecap="round" stroke-linejoin="round" stroke-miterlimit="10" points="
			14.9,74.8 29.5,86.9 42.5,75.1 		"/>
		
			<line fill="none" stroke="#4B6FF7" stroke-width="3.8277" stroke-linecap="round" stroke-linejoin="round" stroke-miterlimit="10" x1="28.3" y1="86.9" x2="18.3" y2="114.8"/>
	</g>
	
		<line fill="none" stroke="#4B6FF7" stroke-width="3.8277" stroke-linecap="round" stroke-linejoin="round" stroke-miterlimit="10" x1="206.7" y1="25.9" x2="196.8" y2="65.7"/>
	<g>
		
			<polyline fill="none" stroke="#4B6FF7" stroke-width="4" stroke-linecap="round" stroke-linejoin="round" stroke-miterlimit="10" points="
			113,25.4 95.9,25.4 86,66.4 102,66.4 		"/>
		
			<line fill="none" stroke="#4B6FF7" stroke-width="4" stroke-linecap="round" stroke-linejoin="round" stroke-miterlimit="10" x1="94" y1="46.4" x2="105" y2="46.4"/>
	</g>
	<g>
		
			<path fill="none" stroke="#4B6FF7" stroke-width="3.8277" stroke-linecap="round" stroke-linejoin="round" stroke-miterlimit="10" d="
			M9,65.7l10-40.1c0,0,18.8-2.7,18.2,13.7c-0.5,0.2,0.5,9.8-14.9,9"/>
		
			<path fill="none" stroke="#4B6FF7" stroke-width="3.8277" stroke-linecap="round" stroke-linejoin="round" stroke-miterlimit="10" d="
			M23,48.6c0,0,8.3-2.7,7.7,9.9c-0.5,0.1,0.8,7.4-14.7,6.8"/>
	</g>
	
		<path fill="none" stroke="#4B6FF7" stroke-width="3.8277" stroke-linecap="round" stroke-linejoin="round" stroke-miterlimit="10" d="
		M212.7,114.8l10-39.9c0,0,18.5-2.7,17.9,13.7c-0.5,0.2,0.9,9.6-14.5,8.8c0,0,11.9,17.8,17.8,16.6"/>
	
		<path fill="none" stroke="#4B6FF7" stroke-width="3.8277" stroke-linecap="round" stroke-linejoin="round" stroke-miterlimit="10" d="
		M116.5,114.8l10-39.9c0,0,18.5-2.7,17.9,13.7c-0.5,0.2,0.9,9.6-14.5,8.8c0,0,11.9,17.8,17.8,16.6"/>
	
		<path fill="none" stroke="#4B6FF7" stroke-width="3.8277" stroke-linecap="round" stroke-linejoin="round" stroke-miterlimit="10" d="
		M45.5,65.7l10-39.9c0,0,18.5-2.7,17.9,13.7c-0.5,0.2,0.9,9.6-14.5,8.8c0,0,11.9,17.8,17.8,16.6"/>
	<g>
		
			<polyline fill="none" stroke="#4B6FF7" stroke-width="3.8277" stroke-linecap="round" stroke-linejoin="round" stroke-miterlimit="10" points="
			113.7,65.5 135.5,25.3 145.2,65.7 		"/>
		
			<line fill="none" stroke="#4B6FF7" stroke-width="4" stroke-linecap="round" stroke-linejoin="round" stroke-miterlimit="10" x1="125" y1="48.4" x2="139" y2="48.4"/>
	</g>
	
		<path fill="none" stroke="#4B6FF7" stroke-width="3.8277" stroke-linecap="round" stroke-linejoin="round" stroke-miterlimit="10" d="
		M89.4,74.4c0,0-14.9,41.1,1.7,40.6S115,74.2,115,74.2"/>
	<g>
		
			<line fill="none" stroke="#4B6FF7" stroke-width="3.8277" stroke-linecap="round" stroke-linejoin="round" stroke-miterlimit="10" x1="223.3" y1="25.9" x2="213.4" y2="65.7"/>
		
			<line fill="none" stroke="#4B6FF7" stroke-width="3.8277" stroke-linecap="round" stroke-linejoin="round" stroke-miterlimit="10" x1="245.2" y1="25.9" x2="235.3" y2="65.7"/>
		
			<line fill="none" stroke="#4B6FF7" stroke-width="3.8277" stroke-linecap="round" stroke-linejoin="round" stroke-miterlimit="10" x1="224.2" y1="26.2" x2="235.6" y2="64.9"/>
	</g>
	<g>
		
			<line fill="none" stroke="#4B6FF7" stroke-width="3.8277" stroke-linecap="round" stroke-linejoin="round" stroke-miterlimit="10" x1="166.3" y1="25.9" x2="156.3" y2="65.7"/>
		
			<line fill="none" stroke="#4B6FF7" stroke-width="3.8277" stroke-linecap="round" stroke-linejoin="round" stroke-miterlimit="10" x1="162.6" y1="44.9" x2="189.1" y2="26"/>
		
			<line fill="none" stroke="#4B6FF7" stroke-width="3.8277" stroke-linecap="round" stroke-linejoin="round" stroke-miterlimit="10" x1="180.2" y1="65.1" x2="162.6" y2="43.3"/>
	</g>
	
		<path fill="none" stroke="#4B6FF7" stroke-width="3.8277" stroke-linecap="round" stroke-linejoin="round" stroke-miterlimit="10" d="
		M285.4,32.6c0,0-3-8.7-16.3-7.3c-16.1,1.7-28.7,35.2-8.4,39.4c5.3,1.1,11.2-0.3,14.3-3.5c2.5-2.5,4.6-6.7,3.9-13.3l-11.7,0.6"/>
</g>
</svg>
