<?xml version="1.0" encoding="utf-8"?>
<!-- Generator: Adobe Illustrator 17.1.0, SVG Export Plug-In . SVG Version: 6.00 Build 0)  -->
<!DOCTYPE svg PUBLIC "-//W3C//DTD SVG 1.1//EN" "http://www.w3.org/Graphics/SVG/1.1/DTD/svg11.dtd">
<svg version="1.1" id="Layer_1" xmlns="http://www.w3.org/2000/svg" xmlns:xlink="http://www.w3.org/1999/xlink" x="0px" y="0px"
	 viewBox="0 0 65 65" enable-background="new 0 0 65 65" xml:space="preserve">
<path fill="#1691B2" stroke="#FFFFFF" stroke-width="0.5" stroke-miterlimit="10" d="M13.3,33.3c-0.5,0-0.8,0-1.1-0.1
	c-0.7-0.1-1.3-0.4-1.7-1c-0.8-1.2-0.8-2.5-0.5-3.8c0-0.2,0.5-0.5,0.7-0.6c1.3-0.4,2.6-0.7,3.5-1.7c0.1-0.1,0.1-0.1,0.2-0.2
	c1-1.6,2.6-1.8,4.3-2.1c1.2-0.2,2.4-0.5,3.6-0.7c0.2,0,0.4,0.1,0.6,0.1c1.8,0,3.6-0.1,5.4-0.1c0.9,0,1.8-0.1,2.7-0.1
	c0.4,0,0.5-0.2,0.5-0.5c0.2-1.4,0.4-2.9,0.7-4.3c0.1-0.5,0.4-0.9,0.7-1.3c0.1-0.1,0.4-0.1,0.6-0.2c0.3,0,0.5-0.1,0.8-0.2
	c-0.8-0.2-1.4-0.6-1.9-1.2c-0.4-0.6-1.1-1.1-0.8-1.8c0-0.6-0.1-1.1-0.1-1.5c0-0.1,0-0.2,0-0.3c0.6-1.3,0.6-2.8,1.3-4
	c0.4-0.6,0.5-1.3,0.9-1.9c0.2-0.3,0.7-0.6,1.1-0.7c0.1,0,0.4,0.4,0.5,0.7c0.4,1.2,0.8,2.5,1.1,3.7c0.2,1,0.3,2,0.2,2.9
	c-0.1,0.6-0.5,1.2-0.9,1.6c-0.3,0.3-0.8,0.3-1.1-0.1c-0.3-0.3-0.3-0.7,0-1.1c0.6-0.7,0.6-1.4,0.4-2.3c-0.2-0.6-0.2-1.3-0.4-1.9
	c-0.1-0.3-0.2-0.5-0.3-0.9c-0.2,0.3-0.3,0.5-0.3,0.7c-0.4,1.2-0.8,2.4-1.1,3.6c-0.2,0.9,0.1,1.7,0.7,2.4c0.2,0.2,0.5,0.4,0.7,0.7
	c0.3,0.4,0.4,1,0.7,1.2c0.6,0.4,0.5,0.9,0.5,1.3c0,1.4-0.1,2.7-0.2,4.1c-0.1,0.9-0.1,0.9,0.8,1c2.2,0.2,4.4,0.4,6.6,0.7
	c1.2,0.2,2.5,0.4,3.7,0.8c1.4,0.4,2.8,0.9,4.2,1.5c1.1,0.5,2,1.2,2.6,2.3c0.1,0.2,0.3,0.5,0.6,0.6c0.9,0.3,1.1,1.4,1.2,2.2
	c0,0.1,0,0.3,0,0.4c0.5,1.6-0.4,3.1-2.1,3.4c-0.3,0-0.5,0.2-0.8,0.2c0.8,1.5,0.3,3.1,0.2,4.6c-0.1,2.6-0.4,5.1-0.6,7.7
	c-0.1,1.4-0.2,2.8-0.2,4.3c0,0.7,0.1,1.3,0.2,2c0.1,0.6,0.1,1.2-0.3,1.7c-0.2,0.2-0.5,0.3-0.8,0.5c-0.8,0.3-1.6,0.7-2.4,1
	c-1.8,0.8-3.7,1.4-5.7,1.6c-0.9,0.1-1.9,0-2.8,0.3c-1,0.3-2,0.2-3,0.3c-0.6,0.1-1.3,0.3-1.9,0.4c-1.2,0.1-2.3,0.2-3.5,0.2
	c-1.6,0-3.3-0.1-4.9-0.1c-0.5,0-1.1-0.1-1.6-0.2c-1.2-0.2-2.4-0.3-3.6-0.6c-2.6-0.5-5.1-1.1-7.5-2.3c-0.3-0.1-0.6-0.6-0.6-0.9
	c-0.2-2.7-0.4-5.4-0.4-8c0-2.2,0.2-4.4,0.2-6.7c0.1-1.8,0.1-3.5,0.1-5.3C13.2,34.9,13.3,34.1,13.3,33.3z M15,34.4
	c0,0.3-0.1,0.5-0.1,0.8c0,1-0.1,2.1-0.1,3.1c0,2,0,3.9,0,5.9c0,2.7,0,5.4,0,8.1c0,0.9,0.1,1.7,0.2,2.6c0,0.1,0.1,0.3,0.3,0.3
	c0.5,0.2,1,0.5,1.6,0.6c2,0.5,3.9,1.1,5.9,1.5c1.7,0.3,3.4,0.6,5,0.6c2.8,0.1,5.6,0.1,8.3-0.3c1.4-0.2,2.9-0.4,4.4-0.6
	c0.2,0,0.5-0.2,0.8-0.3c0.1,0,0.3,0,0.6,0c0.4-0.1,0.8-0.2,1.2-0.3c1.3-0.4,2.5-0.9,3.8-1.3c0.6-0.2,1.1-0.4,1.7-0.6
	c0.4-0.2,0.9-0.2,0.9-0.7c0.1-1.7,0.2-3.3,0.3-5c0.1-1.9,0.2-3.8,0.2-5.8c0.1-2.1,0.2-4.1,0.3-6.3c-0.6,0.2-1.2,0.4-1.7,0.6
	c-0.4-0.6-1.1-0.6-1.7-0.2c-0.2,0.2-0.5,0.3-0.7,0.3c-0.8,0.2-1.5,0-2.1-0.5c-2.2,1.8-3.1,1.7-5.6-0.2c-2.4,1.4-4.7,2.1-6.7-0.6
	c-0.5,0.3-1,0.6-1.4,0.8c-0.9,0.6-1.9,0.7-2.9,0.2c-0.4-0.2-0.7-0.5-1.1-0.6c-0.1-0.1-0.4-0.1-0.5,0c-0.3,0.2-0.6,0.4-0.9,0.6
	c-1.6,1.4-3.7,1-5.2,0c-0.3-0.2-0.7-0.5-0.7-0.9c-0.1-0.9-0.6-0.9-1.3-1C16.9,35.2,16,34.8,15,34.4z M21,29.2
	c0.1-0.1,0.3-0.2,0.4-0.3c1.7-1.3,3.7-1.1,5.1,0.5c0.1,0.1,0.3,0.2,0.5,0.2c1.1,0,2.1-0.1,3.2-0.1c0.6,0,1.1,0.3,1.6,0.7
	c0.2,0.1,0.5,0.2,0.6,0.1c1-0.5,2-0.5,3.1-0.5c0.8,0,1.6,0.2,2.2,0.7c0.3,0.3,0.5,0.3,0.9,0c0.9-0.7,1.9-1.1,3.1-1.1
	c1.2,0,2.2,0.5,3.1,1.2c0.1,0.1,0.4,0.2,0.6,0.1c1.3-0.5,2.6-0.7,3.9-0.3c0.3,0.1,0.5,0,0.7-0.3c0.3-0.6,0.9-0.9,1.6-1.2
	c0.2-0.1,0.4-0.2,0.5-0.3c-0.1-0.2-0.2-0.5-0.4-0.6c-0.7-0.5-1.4-1-2.2-1.2c-0.9-0.3-1.9-0.5-2.8-0.9c-1.7-0.6-3.4-1-5.2-1
	c-0.9,0-1.8,0-2.7-0.1c-1.2-0.1-2.3-0.2-3.5-0.4c0,0.3-0.1,0.6-0.1,0.8c0.1,0.7-0.3,0.8-0.9,1c-0.4,0.1-0.6-0.2-0.8-0.4
	c-0.1-0.1-0.1-0.1-0.3-0.3c0,0.4-0.1,0.7-0.1,0.9c-0.1,0.6-0.6,0.7-1,0.7c-0.4,0-0.5-0.3-0.5-0.7c0-0.6-0.1-1.1-0.2-1.7
	c-0.2,0-0.4,0-0.6,0c-0.5,0-1,0.1-1.5,0.1c-1,0-1.9-0.1-2.9-0.1c-0.7,0-1.5,0.1-2.2,0.2c-1.2,0.1-2.5,0.3-3.7,0.4
	c-1.4,0.1-2.7,0.4-3.9,1c-0.3,0.2-0.6,0.4-1,0.7c0.4,0.3,0.7,0.4,0.9,0.7c0.5,0.6,1,0.5,1.6,0.3c0.9-0.3,1.7,0,2.3,0.7
	C20.5,28.8,20.8,29,21,29.2z M11.7,29.7c0,0-0.1,0.1-0.1,0.1c0.2,0.5,0.3,0.9,0.5,1.4c0.2,0.4,0.5,0.5,0.9,0.4
	c0.5-0.1,1.1-0.2,1.6-0.3c0.8-0.2,0.9-0.1,1.2,0.7c0.6,1.4,2,1.9,3.1,1.7c0.5-0.1,1-0.2,1.5-0.4c0.3-0.1,0.5-0.1,0.7,0.2
	c0.1,0.2,0.2,0.5,0.2,0.8c0,0.2-0.2,0.5-0.2,0.7c-0.2,0.6-0.1,0.9,0.5,1.2c1,0.5,2.3,0.2,3-0.6c0.3-0.3,0.5-0.6,0.8-0.9
	c0.1-0.1,0.3-0.2,0.4-0.2c0.5,0,1,0,1.4,0.5c0.2,0.3,0.6,0.5,0.9,0.7c0.4,0.2,0.8,0.4,1.2,0.1c0.5-0.3,1.1-0.7,1.5-1.1
	c0.9-0.9,1.6-0.9,2.4,0.1c0.2,0.2,0.3,0.5,0.5,0.7c0.5,0.6,1.5,1,2.2,0.7c0.6-0.3,1.1-0.7,1.6-1.1c0.7-0.7,1.4-0.7,2.1-0.1
	c0.5,0.5,1.1,0.9,1.7,1.3c0.2,0.1,0.5,0,0.7-0.1c0.3-0.2,0.5-0.4,0.7-0.7c0.6-0.8,1.9-1,2.7-0.4c0.4,0.3,0.7,0.4,1-0.1
	c0.1-0.1,0.2-0.2,0.2-0.3c0.7-0.7,1.5-0.7,2.1,0.1c0.1,0.1,0.3,0.3,0.4,0.3c0.6-0.1,1.1-0.4,1.4-0.9c0.3-0.6,0.8-0.9,1.5-0.8
	c0.6,0.1,1.1-0.2,1.3-0.7c0-0.1,0-0.4-0.1-0.4c-0.7-0.3-0.6-0.8-0.2-1.3c0.1-0.1,0.1-0.3,0.1-0.4c-0.1-0.1-0.3-0.2-0.4-0.1
	c-0.8,0-1.1,0.6-1.4,1.3c-0.3,0.9-1,1.2-1.9,0.6c-0.3-0.2-0.7-0.4-1-0.4c-1.1-0.2-2.1,0.1-2.9,0.9c-0.3,0.3-0.5,0.5-0.9,0.4
	c-0.5-0.1-0.9-0.2-1.1-0.8c-0.3-0.8-0.9-1.3-1.8-1.3c-1.1,0-1.8,0.6-2.5,1.3c-0.4,0.5-0.9,0.6-1.5,0.2c-0.3-0.2-0.7-0.4-1-0.7
	c-1.6-1-2.6-0.9-3.9,0.4c-0.1,0.1-0.1,0.2-0.2,0.2c-0.5,0.5-1.3,0.3-1.6-0.3c-0.5-1.2-2.6-1.8-3.6-1c-0.4,0.3-0.7,0.6-1,0.9
	c-0.6,0.5-1.5,0.4-1.7-0.4c-0.1-0.4-0.1-0.8-0.1-1.2c0-0.8-0.4-1.1-1.2-1c-0.7,0.2-1.1,0.8-1.5,1.3c-0.6,0.7-1.3,0.7-1.8,0
	c-0.3-0.4-0.6-0.7-0.9-1c-0.6-0.6-0.8-0.6-1.4-0.1c-0.8,0.7-1.8,0.5-2.2-0.5c-0.1-0.3-0.4-0.6-0.6-0.8c-0.7-0.5-1.6-0.2-1.8,0.6
	c-0.1,0.5-0.5,0.6-0.9,0.5C12,29.8,11.8,29.8,11.7,29.7z"/>
</svg>
