<?xml version="1.0" encoding="utf-8"?>
<!-- Generator: Adobe Illustrator 17.1.0, SVG Export Plug-In . SVG Version: 6.00 Build 0)  -->
<!DOCTYPE svg PUBLIC "-//W3C//DTD SVG 1.1//EN" "http://www.w3.org/Graphics/SVG/1.1/DTD/svg11.dtd">
<svg version="1.1" id="Layer_1" xmlns="http://www.w3.org/2000/svg" xmlns:xlink="http://www.w3.org/1999/xlink" x="0px" y="0px"
	 viewBox="0 0 65 65" enable-background="new 0 0 65 65" xml:space="preserve">
<g id="VYKDPS_2_">
	<g>
		<path fill="#1691B2" d="M43.6,51c-0.1,0.5-0.1,0.9-0.2,1.4c-0.1,0.3-0.3,0.4-0.5,0.5C42.5,53,42.2,53,42,53.1
			c-0.3,0.1-0.5,0.4-0.5,0.7c0,0.2,0,0.5,0.1,0.7c0,0.1,0.1,0.2,0.2,0.2c0.3,0,0.7,0.1,1,0.1c0.1,0,0.2,0,0.2,0
			c0.2,0,0.3-0.1,0.5-0.1c0.1,0,0.1,0,0.2-0.1c0,0,0.1,0,0.1,0c0.2,0,0.3-0.1,0.5-0.2c0.2-0.1,0.4-0.2,0.5-0.4
			c0.1-0.1,0.2-0.3,0.3-0.5c0.1-0.3,0.2-0.7,0.2-1.1c0-0.1,0.1-0.2,0.2-0.3c0.1-0.1,0.2,0,0.2,0.1c0,0.2,0,0.4,0,0.6
			c-0.1,0.3-0.1,0.6-0.2,0.8c-0.1,0.3-0.3,0.6-0.6,0.8c-0.1,0.1-0.3,0.2-0.4,0.3c-0.1,0.1-0.3,0.1-0.4,0.2c-0.3,0.1-0.5,0.2-0.8,0.2
			c-0.4,0.1-0.8,0.1-1.2,0.1c0,0-0.1,0-0.1,0c-0.3,0.3-0.9,0.2-1.1-0.3c-0.1-0.3,0-0.8,0.3-0.9c0,0,0.1-0.1,0.1-0.2
			c0-0.6,0.4-0.9,1-1c0.3,0,0.6,0,0.8-0.2c0,0,0.1-0.1,0.1-0.2c0,0,0-0.1,0-0.1c-0.3-0.1-0.6-0.1-0.8-0.2c-0.5-0.1-1.1,0-1.5,0.3
			c-0.3,0.2-0.6,0.4-0.8,0.8c-0.1,0.1-0.1,0.2-0.2,0.3c-0.2,0.3-0.2,0.6-0.2,0.9c0,0.2,0,0.3,0,0.5c0,0.1,0,0.2,0.2,0.2
			c0.1,0,0.2,0.1,0.2,0.1c0.2,0.1,0.3,0.3,0.5,0.4c0.1,0.1,0.2,0.2,0.3,0.3c0.1,0.1,0.1,0.1,0.2,0.2c-0.2-0.1-0.4-0.2-0.7-0.3
			c0.1,0.2,0.4,0.3,0.5,0.5c0,0,0,0,0,0c-0.1-0.1-0.2-0.1-0.4-0.2c0,0,0,0,0,0.1c0.1,0,0.1,0.1,0.2,0.1c0.3,0.2,0.6,0.3,0.9,0.5
			c0.1,0.1,0.1,0.2,0.2,0.3c-0.4,0-0.8-0.3-1.2-0.4c0.3,0.3,1.5,0.7,1.8,0.5c0,0-0.1,0-0.1,0c0.1,0,0.1-0.1,0.2,0c0,0,0.1,0.1,0.1,0
			c0.6-0.2,1.2-0.4,1.6-1c0.1-0.2,0.2-0.4,0.3-0.6c0-0.1,0.1-0.2,0.3-0.2c0.2,0,0.2,0,0.1-0.2c0-0.2,0-0.3,0.2-0.4
			c0,0,0.1,0,0.2,0.1c0,0.1,0.1,0.2,0.1,0.3c0,0.6-0.3,1-0.7,1.5c-0.3,0.3-0.6,0.5-1,0.7c-0.5,0.2-1,0.3-1.5,0.4
			c-0.7,0-1.3-0.1-1.8-0.6c-0.2-0.1-0.3-0.3-0.4-0.4c-0.3-0.3-0.5-0.7-0.5-1.2c-0.1-0.7-0.1-1.3,0.1-1.9c0.1-0.3,0.3-0.6,0.5-0.9
			c0.3-0.3,0.6-0.5,0.9-0.7c0.1,0,0.2-0.1,0.3-0.1c0.3-0.1,0.7-0.2,1.1-0.1c0.2,0,0.3,0,0.5,0c0.2,0,0.5,0,0.7,0.1
			c0.1,0,0.2,0,0.2-0.1c0-0.1,0.1-0.3,0.1-0.4c0-0.2,0-0.3,0.2-0.4c0,0,0,0,0,0c-0.1,0-0.3-0.1-0.4-0.1c-1-0.1-2-0.2-2.9-0.4
			c-0.6-0.1-1.3-0.3-1.9-0.4c-0.4-0.1-0.9-0.2-1.3-0.3c-0.7-0.2-1.3-0.3-2-0.5c-0.6-0.2-1.3-0.3-1.9-0.5c-0.5-0.2-1.1-0.3-1.6-0.5
			c-0.7-0.2-1.4-0.5-2.1-0.7c-0.5-0.1-0.9-0.3-1.4-0.4c-0.6-0.1-1.2-0.2-1.8-0.3c-0.6-0.1-1.2-0.4-1.8-0.6c-0.4-0.1-0.8-0.2-1.1-0.3
			c-0.3-0.1-0.6-0.1-0.8-0.2c-0.5-0.1-1-0.3-1.5-0.5c-0.3-0.1-0.7-0.2-1-0.4c-0.4-0.1-0.7-0.3-1.1-0.4c-0.5-0.2-0.9-0.4-1.4-0.6
			c-0.1-0.1-0.3-0.1-0.4-0.2c-0.5-0.3-0.9-0.6-1.2-1c-0.1-0.2-0.3-0.4-0.4-0.6c-0.1-0.2-0.1-0.3-0.2-0.5c-0.1-0.3-0.2-0.6-0.2-0.9
			c0-0.3-0.1-0.5-0.1-0.8c0-0.3,0-0.5,0-0.8c0-0.1,0-0.2,0.1-0.4c0-0.2,0.1-0.3,0.1-0.5c0-0.3,0.1-0.5,0.2-0.7
			c0.1-0.2,0.2-0.5,0.3-0.7c0.2-0.3,0.4-0.6,0.6-0.9c0.1-0.2,0.3-0.4,0.4-0.6c0.2-0.4,0.5-0.6,0.7-0.9c0.1-0.1,0.1-0.2,0.2-0.3
			c0.1-0.2,0.2-0.3,0.4-0.5c0.1-0.1,0.2-0.2,0.2-0.3c0.2-0.2,0.2-0.4,0.3-0.6c0-0.1,0.1-0.2,0.2-0.3c0.2-0.2,0.2-0.7,0.1-0.9
			c-0.1-0.2-0.2-0.4-0.2-0.7c0-0.1-0.1-0.3-0.1-0.4c-0.1-0.2-0.1-0.4-0.2-0.6c0-0.1-0.1-0.3-0.1-0.4c0-0.1-0.1-0.1-0.1-0.2
			c0-0.1-0.1-0.2-0.1-0.4c0-0.1-0.1-0.2-0.1-0.2c-0.1-0.3-0.3-0.7-0.4-1c-0.1-0.1-0.1-0.3-0.1-0.4c-0.1-0.2-0.2-0.5-0.3-0.7
			c0,0,0,0,0-0.1c0-0.3-0.1-0.6-0.2-0.9c0-0.1,0-0.2-0.1-0.2c0,0,0-0.1,0-0.1c0-0.6-0.2-1.1-0.4-1.6c-0.1-0.2-0.1-0.4-0.2-0.6
			c-0.1-0.3-0.1-0.6-0.3-0.8c-0.2-0.4-0.3-0.8-0.5-1.3c-0.2-0.5-0.3-1-0.5-1.4c-0.1-0.2-0.1-0.4-0.2-0.6c-0.1-0.3-0.2-0.6-0.3-0.8
			c-0.1-0.3-0.2-0.6-0.3-0.8c-0.1-0.2-0.1-0.5-0.2-0.7c-0.1-0.3-0.2-0.6-0.3-0.9c-0.1-0.2-0.1-0.4-0.2-0.6C13,15.1,13,15,12.9,14.8
			c-0.1-0.3-0.2-0.5-0.3-0.8c-0.1-0.2-0.1-0.5-0.2-0.7c-0.1-0.2-0.2-0.5-0.4-0.7c-0.1-0.1-0.1-0.3-0.2-0.4c-0.1-0.1-0.1-0.2-0.2-0.3
			c-0.4-0.4-0.9-0.7-1.3-1.1c-0.1-0.1-0.1-0.2-0.2-0.3c-0.1-0.1-0.1-0.1-0.2-0.1c-0.1-0.1-0.2-0.2-0.3-0.3C9.4,10,9.3,9.9,9.2,9.8
			C9.1,9.7,9,9.6,9,9.6C8.9,9.5,8.8,9.3,8.7,9.2C8.5,9,8.5,8.4,8.8,8.2C9.1,8,9.4,7.8,9.8,7.8c0.3,0,0.6-0.1,0.9-0.2
			c0.5-0.1,1.1-0.1,1.6-0.1c0.3,0,0.5,0,0.8-0.1c0.1,0,0.2,0,0.3,0c0.1,0,0.2,0,0.3,0c0.1,0,0.2,0,0.3,0c0.2,0,0.5,0,0.7,0
			c0.3,0,0.6,0,0.9,0c0.7,0,1.5,0,2.2,0c0.5,0,1,0,1.5,0c0.4,0,0.8,0,1.1,0c0.2,0,0.5,0,0.7,0.1c0.2,0,0.3,0,0.5,0
			c0.4,0,0.9,0,1.3,0c0.4,0,0.7,0.1,1.1,0.1c0.1,0,0.2,0.1,0.2,0.1c0.4,0.1,0.7,0.5,0.9,0.8c0.4,0.5,0.7,1,1,1.5
			c0.3,0.5,0.7,1,1.1,1.5c0.1,0.2,0.3,0.3,0.4,0.5c0.1,0.1,0.2,0.2,0.1,0.3c0,0.1,0.1,0.1,0.1,0.1c0.3,0,0.6,0.1,0.8,0.1
			c0.3,0,0.5,0,0.8,0.1c0.6,0.1,1.2,0.1,1.8,0.2c0.6,0.1,1.1,0.1,1.7,0.2c0.4,0,0.7,0.1,1.1,0.2c0.6,0.1,1.2,0.1,1.8,0.2
			c0.6,0,1.1,0.1,1.7,0.1c0.4,0,0.8,0.1,1.2,0.1c0.4,0,0.8,0.1,1.2,0.1c0.4,0,0.8,0.1,1.3,0.1c0.5,0,1,0,1.5,0.1
			c0.3,0,0.6,0.1,0.8,0.1c0.5,0.1,1,0.2,1.5,0.2c0,0,0.1,0,0.1,0c0.2-0.1,0.4,0,0.6,0.1c0.6,0.2,1.3,0.2,1.9,0.3
			c0.5,0,0.9,0.1,1.4,0.1c0.8,0.1,1.6,0.2,2.5,0.3c0.3,0,0.7,0.1,1,0.1c0.5,0.1,1,0.1,1.5,0.2c0.3,0.1,0.7,0.1,1,0.2
			c0.2,0,0.4,0.1,0.6,0.2c0.4,0.1,0.7,0.5,0.6,1c0,0.2,0,0.4-0.1,0.6c0,0.3,0,0.6-0.1,0.9c0,0.3,0,0.6-0.1,0.9
			c-0.1,0.9-0.2,1.9-0.2,2.8c0,0.2,0,0.5,0,0.7c0,0.4-0.1,0.8-0.1,1.2c-0.1,0.6-0.2,1.3-0.3,1.9c-0.1,0.4-0.1,0.8-0.2,1.2
			c-0.1,0.5-0.2,1-0.3,1.5c-0.1,0.6-0.3,1.3-0.4,1.9c0,0.1-0.1,0.2-0.1,0.3c0,0,0,0.1,0,0.1c0,0.3-0.3,0.4-0.5,0.5
			c-0.5,0.2-1,0.5-1.4,0.7c0,0-0.1,0.1-0.1,0.1c-0.5,0.3-1.1,0.6-1.6,0.9c-0.5,0.2-0.9,0.5-1.4,0.7c-0.5,0.3-1,0.5-1.5,0.7
			c-0.2,0.1-0.3,0.1-0.5,0.3c-0.1,0.1-0.3,0.2-0.4,0.2c-0.2,0.1-0.3,0.2-0.5,0.2c0,0-0.1,0-0.1,0c-0.4,0-0.8-0.1-1.1-0.1
			c-0.5,0-1.1-0.1-1.6-0.1c-0.6,0-1.1,0-1.7-0.1c-0.9,0-1.8-0.1-2.7-0.1c-0.8,0-1.6-0.1-2.4-0.1c-0.5,0-1.1-0.1-1.6-0.1
			c-1,0-1.9-0.1-2.9-0.1c-0.8,0-1.6-0.1-2.4-0.1c-0.7,0-1.4-0.1-2.2-0.1c-0.2,0-0.3,0.1-0.3,0.2c-0.4,0.5-0.6,1-0.8,1.5
			c-0.1,0.5,0,0.9,0.1,1.3c0.3,0.8,0.9,1.3,1.7,1.6c0.4,0.2,0.8,0.4,1.3,0.5c0.4,0.1,0.8,0.2,1.3,0.4c0.6,0.2,1.1,0.3,1.7,0.5
			c0.3,0.1,0.5,0.2,0.8,0.3c0.4,0.1,0.8,0.3,1.3,0.4c0.2,0.1,0.3,0.1,0.5,0.2c0,0,0.1,0,0.1,0.1c0.1,0.1,0.2,0.1,0.3,0.1
			c0.2,0,0.3,0.1,0.4,0.1c0.1,0.1,0.2,0,0.3,0.1c0,0,0,0,0.1,0c0.3,0.1,0.5,0.2,0.8,0.2c0.4,0.1,0.8,0.2,1.2,0.3
			c0.2,0,0.3,0.1,0.5,0.1c0.3,0.1,0.5,0.1,0.8,0.2c0.3,0.1,0.6,0.1,0.9,0.2c0.3,0.1,0.7,0.2,1,0.3c0.4,0.1,0.9,0.2,1.3,0.3
			c0.4,0.1,0.9,0.2,1.3,0.4c0.2,0.1,0.4,0.1,0.7,0.2c0.1,0,0.3,0.1,0.4,0.1c0.2,0,0.3,0.1,0.5,0.2c0.2,0,0.3,0.1,0.5,0.1
			c0.4,0,0.8,0.2,1.1,0.3c0.3,0.1,0.6,0.2,1,0.3c0.2,0,0.4,0.1,0.5,0.2c0.2,0.1,0.4,0.1,0.6,0.1c0.3,0,0.5,0.1,0.8,0.1
			c0.1,0,0.1,0,0.2,0.1c0,0,0.1,0,0.1,0c0.3,0,0.6,0,0.8,0.1c0.2,0.1,0.5,0,0.8,0.2c0.1,0,0.2,0,0.2,0.1c0.4,0.1,0.6,0.3,0.9,0.6
			c0.2,0.1,0.3,0.3,0.4,0.5c0.1,0.2,0.2,0.5,0.3,0.7c0,0.1,0,0.1,0,0.2c-0.4,0.4-0.8,0.9-1.2,1.3c-0.4,0.4-0.9,0.8-1.4,1.2
			c-0.3,0.3-0.7,0.6-1,0.9c-0.1,0.1-0.2,0.2-0.3,0.4c-0.1,0.2-0.4,0.3-0.6,0.4c-0.4,0.2-0.7,0.1-1.1,0c-0.3,0-0.6-0.1-0.9-0.1
			c-0.2,0-0.4-0.1-0.5-0.1c-0.5-0.1-1.1-0.3-1.6-0.4c-0.2-0.1-0.4-0.1-0.7-0.1c-0.2,0-0.4-0.1-0.6-0.1C43.6,51,43.6,51,43.6,51z
			 M19.5,32L19.5,32c0,0-0.1,0-0.1,0c-0.1,0-0.2-0.1-0.3-0.1c0,0.1,0,0.2-0.1,0.3c0,0.1,0,0.2,0.1,0.2c0.1,0.1,0.2,0.2,0.3,0.3
			c0,0,0,0.1,0,0.2c-0.1,0-0.1,0-0.2,0c-0.1,0-0.1-0.1-0.2-0.1c-0.1,0-0.2,0-0.2,0c-0.1,0-0.1,0.1,0,0.2C19,33,19,33,19,33.1
			c0,0.1,0,0.1,0,0.2c-0.1,0-0.1,0-0.2-0.1c0,0,0,0-0.1-0.1c0,0-0.1,0-0.1,0c-0.1,0.1-0.1,0.2,0,0.4c0,0,0,0,0,0c0,0,0,0.1,0,0.1
			c0,0-0.1,0-0.1,0c-0.1,0-0.1,0-0.2-0.1c-0.1,0-0.3,0.2-0.3,0.3c0,0,0,0,0,0.1c0,0.1,0.1,0.1,0.1,0.2c-0.1,0-0.2,0-0.2,0
			c0,0-0.1,0-0.1,0c-0.1,0.1-0.2,0.2-0.2,0.3c0,0.1,0,0.1,0.1,0.2c0,0.1,0,0.2,0,0.2c0,0-0.1,0-0.2,0c0,0,0,0-0.1,0
			c0,0-0.1,0.1-0.1,0.1c-0.1,0.1-0.2,0.2-0.1,0.4c0,0,0,0.1,0,0.2c0,0-0.1,0-0.2,0c0,0-0.1,0-0.1,0c0,0.1,0,0.1,0,0.2
			c0,0,0.1,0,0.1,0.1c0.1,0.1,0,0.3-0.1,0.3c-0.1,0.1-0.2,0-0.2-0.1c0,0-0.1-0.1-0.1-0.1c-0.1,0.1-0.1,0.2-0.2,0.3
			c0,0,0.1,0.1,0.1,0.2c0,0,0.1,0.1,0,0.1c0,0-0.1,0.1-0.1,0.1c0,0-0.1,0-0.1,0c-0.1,0-0.1,0.1-0.2,0.1c0,0,0,0.1,0.1,0.1
			c0,0,0.1,0.1,0.2,0.1c-0.1,0.2-0.2,0.2-0.4,0.2c-0.1,0-0.2,0-0.2,0.1c0,0.1,0.1,0.2,0.1,0.4c0,0.1-0.1,0.1-0.2,0.1
			c0,0-0.1,0.1-0.1,0.1c0,0,0,0.1,0,0.1c0.1,0.1,0.1,0.2-0.1,0.3c-0.1,0-0.2,0.1-0.1,0.2c0,0.1,0,0.2-0.1,0.4c0,0,0,0.1,0,0.2
			c0,0.1,0,0.3,0.1,0.4c0,0,0,0.1-0.1,0.1c-0.1,0.1-0.2,0.3-0.1,0.5c0,0,0-0.1,0-0.1c0.1,0,0.1,0,0.2,0c0,0,0.1,0.1,0.1,0.1
			c0,0.1-0.1,0.1-0.1,0.1c0,0-0.1,0-0.2,0c0,0-0.1,0-0.1,0.1c0,0.2,0,0.3,0,0.5c0,0,0,0,0,0c0,0,0-0.1,0-0.1c0,0,0.1-0.1,0.1-0.1
			c0,0.1,0.1,0.1,0.1,0.2c0,0.2,0,0.3-0.2,0.3c0,0.5,0.3,1,0.6,1.4c0.2,0.4,0.6,0.6,0.9,0.9c0.6,0.4,1.2,0.7,1.9,1
			c0.4,0.1,0.8,0.3,1.2,0.4c0.3,0.1,0.5,0.1,0.8,0.2c0.2,0,0.4,0.1,0.5,0.2c0.3,0.1,0.7,0.2,1,0.2c0.4,0.1,0.8,0.2,1.2,0.3
			c0.2,0.1,0.5,0.1,0.7,0.2c0.2,0.1,0.4,0.1,0.6,0.2c0.3,0.1,0.7,0.2,1,0.2c0.3,0.1,0.6,0.2,0.8,0.2c0.3,0.1,0.7,0.1,1,0.2
			c0.7,0.2,1.5,0.4,2.2,0.6c0.1,0,0.1,0,0.2,0.1c0.1,0.2,0.3,0.2,0.5,0.2c0.7,0.2,1.4,0.5,2.1,0.6c0.5,0.1,0.9,0.2,1.4,0.3
			c0.7,0.2,1.3,0.4,2,0.5c0.4,0.1,0.9,0.2,1.3,0.3c0.3,0.1,0.7,0.2,1,0.2c0.3,0.1,0.6,0.2,0.9,0.2c0.3,0,0.6,0.1,0.9,0.1
			c0.3,0,0.6,0.1,1,0.2c0.5,0.1,1,0.2,1.5,0.2c0.9,0.1,1.7,0.2,2.6,0.4c0.8,0.2,1.5,0.4,2.3,0.5c0.1,0,0.2,0,0.4,0
			c-0.1-0.1-0.1-0.2,0-0.2c0.3-0.1,0.6-0.3,0.9-0.4c0.2-0.1,0.4-0.2,0.6-0.3c-0.1-0.2-0.1-0.2,0.1-0.3c0.5-0.2,1-0.5,1.6-0.7
			c0,0,0.1,0,0.1,0c0,0,0.1,0,0.1,0c0.1,0,0.1-0.1,0.1-0.1c0.1-0.1,0.2-0.2,0.3-0.3c0,0,0,0,0,0c-0.1,0-0.2,0.1-0.3,0.1
			c-0.2,0.1-0.5,0.3-0.7,0.4c0,0-0.1,0-0.1,0c0-0.1,0-0.1,0-0.2c0,0,0,0,0.1-0.1c0.4-0.2,0.8-0.4,1.1-0.6c0.2-0.1,0.4-0.2,0.5-0.2
			c0.2-0.1,0.2-0.2,0.4-0.3c-0.1,0-0.2,0.1-0.3,0.1c-0.3,0.2-0.6,0.3-1,0.4c-0.1,0.1-0.2,0-0.3-0.1c0.5-0.2,0.9-0.4,1.4-0.6
			c0,0,0,0,0-0.1c-0.2,0.1-0.4,0.1-0.7,0.2c-0.1,0-0.1,0.1-0.2,0c0-0.1,0-0.2,0-0.2c0.1-0.1,0.3-0.3,0.5-0.3c0.2,0,0.3-0.1,0.5-0.2
			c0-0.1-0.1-0.1-0.2-0.1c-0.1,0-0.1,0.1-0.2,0.1c-0.1,0.1-0.3,0.2-0.4,0.2c-0.1,0-0.2,0-0.2-0.1c0-0.1,0-0.2,0.1-0.2
			c0,0,0.1,0,0.1,0C52,47,52,46.9,52,46.8c-0.2,0-0.4,0.1-0.5,0.1c-0.2,0-0.3-0.2-0.4-0.4c0.1-0.1,0.1-0.1,0.1-0.2
			c-0.1-0.2-0.2-0.3-0.4-0.2c-0.1,0.1-0.2,0.1-0.4,0.2c-0.1,0.1-0.2,0-0.2-0.1c0,0,0-0.1,0.1-0.2c0-0.1,0.1-0.1,0.2-0.1
			c0-0.1,0-0.2,0-0.2c0,0-0.2,0-0.2,0c-0.1,0.2-0.3,0.3-0.4,0.3c0,0-0.2,0-0.2-0.1c-0.1-0.1,0-0.1,0.1-0.1c0.1-0.1,0.2-0.1,0.3-0.2
			c0,0,0,0,0-0.1c-0.2,0-0.3-0.1-0.5-0.1c-0.1,0-0.1,0.1-0.2,0.1c0,0-0.1,0.1-0.1,0.1c-0.1,0.1-0.3,0-0.3-0.2c0-0.2,0-0.2-0.2-0.2
			c0,0.2-0.2,0.2-0.3,0.3c-0.1,0-0.2,0-0.2-0.1c0-0.1,0-0.1,0.1-0.2c0,0,0.1,0,0.1-0.1c-0.1,0-0.1-0.1-0.1-0.1
			c-0.1,0-0.2-0.1-0.3-0.1c0,0-0.1,0.1-0.1,0.2c0,0,0,0,0,0c-0.1,0-0.1,0.1-0.2,0.1c0,0-0.1-0.1-0.1-0.1c0-0.1,0-0.1,0.1-0.1
			c0,0,0-0.1,0-0.1c-0.1-0.1-0.3-0.1-0.4,0c-0.1,0.1-0.1,0.1-0.2,0.1c0,0-0.1-0.1-0.1-0.1c0-0.1,0-0.1,0.1-0.2
			c-0.1,0-0.2-0.1-0.3-0.1c0,0-0.1,0.1-0.1,0.2c0,0,0,0,0,0c-0.1,0.1-0.1,0.1-0.2,0c-0.1-0.1-0.1-0.1,0-0.2c0,0,0,0,0.1-0.1
			c-0.2-0.1-0.4-0.1-0.5-0.1c-0.1,0-0.2,0-0.3,0.1c0,0.1-0.1,0.1-0.2,0.2c0-0.1-0.1-0.1-0.1-0.2c0.1-0.1,0.1-0.1,0.2-0.2
			c-0.2-0.1-0.4-0.1-0.5-0.2c-0.1,0.1,0,0.3-0.2,0.3c-0.1,0-0.1-0.1-0.2-0.2c0,0,0.1-0.1,0.1-0.1c-0.1,0-0.1,0-0.2-0.1
			c-0.1,0-0.2-0.1-0.3-0.1c0,0.2,0,0.3,0,0.4c0,0,0,0-0.1,0c-0.1-0.1-0.2-0.2-0.3-0.3c-0.1,0.1-0.1,0.2-0.2,0.1
			c-0.1-0.1-0.1-0.2,0-0.3c0.1-0.1,0.2-0.1,0.3,0.1c0.1,0,0.1,0,0.2,0c-0.4-0.1-0.8-0.3-1.2-0.4c0,0.1,0,0.2-0.1,0.2
			c-0.1,0.1-0.2-0.1-0.3-0.2c-0.2,0.1-0.3,0-0.4-0.2c0,0-0.1-0.1-0.1-0.1c0,0.1,0,0.1,0,0.1c0,0.1-0.1,0.2-0.2,0.1
			c0,0-0.1,0-0.1-0.1c-0.1-0.1-0.2-0.2-0.3-0.1c0,0-0.1,0-0.1,0c-0.3-0.1-0.6-0.1-0.8-0.2c0,0-0.1,0-0.1-0.1c0,0,0-0.1,0-0.1
			c0,0,0,0,0.1-0.1c-0.1,0-0.2-0.1-0.3-0.1c-0.4-0.1-0.7-0.2-1.1-0.3c-0.2,0-0.4-0.1-0.5-0.1c-0.1,0-0.2,0-0.2,0
			c-0.3-0.2-0.6-0.1-1-0.2c-0.2,0-0.3-0.1-0.5-0.1c0,0-0.1,0-0.1,0c-0.1,0-0.2,0-0.3,0c-0.3-0.1-0.6-0.2-0.9-0.3
			c-0.1,0-0.2-0.1-0.3-0.1c-0.1,0-0.2-0.1-0.4-0.1c-0.1,0-0.3-0.1-0.4-0.2c-0.1,0-0.2-0.1-0.2-0.1c-0.2-0.1-0.4-0.1-0.5-0.2
			c-0.1-0.1-0.3-0.1-0.4-0.2c-0.1,0-0.2-0.1-0.3-0.1c-0.1,0-0.3-0.1-0.4-0.1c-0.3-0.1-0.6-0.3-0.9-0.3c-0.2,0-0.4-0.1-0.6-0.2
			c-0.4-0.1-0.8-0.2-1.2-0.3c-0.4-0.1-0.8-0.2-1.2-0.3c-0.2,0-0.3-0.1-0.5-0.1c-0.2-0.1-0.3-0.2-0.5-0.2c-0.3-0.1-0.6-0.4-0.8-0.7
			c-0.2-0.2-0.3-0.5-0.5-0.8c-0.2-0.2-0.3-0.5-0.2-0.8c0-0.1,0-0.1-0.1-0.2C26,36.8,26,36.6,26,36.4c0-0.4,0.2-0.7,0.3-1.1
			c0.1-0.2,0.2-0.5,0.3-0.7c0.1-0.2,0.2-0.4,0.3-0.6c-0.1,0-0.1,0-0.2,0c-0.4,0-0.8,0-1.2-0.1c-0.1,0-0.1,0-0.2,0.1
			c-0.1,0.3-0.3,0.6-0.4,0.9c-0.1,0.3-0.2,0.5-0.3,0.8c-0.2,0.7-0.3,1.3-0.3,2c0,0.4,0,0.8,0.3,1.1c0,0,0,0,0,0
			c0.1,0.1,0.1,0.2,0.2,0.3c0.2,0.2,0.5,0.4,0.7,0.5c0.4,0.2,0.8,0.4,1.2,0.6c0.5,0.2,1,0.4,1.4,0.5c0.6,0.2,1.1,0.4,1.7,0.6
			c0.4,0.1,0.8,0.2,1.3,0.4c0.2,0.1,0.5,0.1,0.7,0.2c0.3,0.2,0.7,0.2,1.1,0.3c0.4,0.1,0.8,0.2,1.2,0.3c0.1,0,0.2,0.1,0.4,0.1
			c0.3,0.1,0.6,0.1,0.9,0.2c0.4,0.1,0.9,0.3,1.3,0.4c0.4,0.1,0.8,0.2,1.2,0.3c0.4,0.1,0.8,0.2,1.2,0.3c0.4,0.1,0.8,0.2,1.3,0.4
			c0.2,0.1,0.5,0.1,0.7,0.2c0.3,0.1,0.6,0.2,0.9,0.2c0.2,0,0.3,0.1,0.5,0.2c0.2,0.1,0.4,0.1,0.5,0.2c0.2,0.1,0.4,0.2,0.6,0.2
			c0.3,0.1,0.7,0.2,1,0.3c0.1,0,0.3,0.1,0.4,0.1c0.4,0.1,0.8,0.2,1.1,0.3c0.2,0.1,0.4,0.1,0.6,0.2c0.2,0,0.3,0.1,0.5,0.1
			c0.3,0.1,0.6,0.1,0.9,0.2c0.2,0,0.5,0.1,0.8,0.1c0.1,0,0.1,0,0.2,0c0.1,0,0.2,0,0.3,0c0.2,0.1,0.3,0.2,0.5,0.3
			c0.1,0.1,0.1,0.3,0,0.3c-0.1,0.1-0.2,0.1-0.3,0.2c-0.4,0.4-0.8,0.7-1.1,1.1c-0.3,0.4-0.7,0.7-1.1,1.1c-0.3,0.3-0.7,0.3-1.1,0.4
			c0,0-0.1,0-0.1,0c-0.2,0-0.4,0-0.7-0.1c-0.2-0.1-0.4-0.1-0.6-0.1c0,0-0.1,0-0.1,0c-0.2-0.1-0.4-0.1-0.5-0.2
			c-0.1,0-0.2-0.1-0.3-0.1c-0.2-0.1-0.4-0.1-0.6-0.2c-0.2-0.1-0.4-0.1-0.7-0.2C42.5,49.1,42.3,49,42,49c-0.2,0-0.4-0.1-0.5-0.1
			c-0.3,0-0.5-0.1-0.8-0.2c-0.3-0.1-0.6-0.2-1-0.2c-0.2-0.1-0.4-0.1-0.6-0.1c-0.3-0.1-0.6-0.2-0.9-0.3c-0.3-0.1-0.6-0.1-0.9-0.2
			c-0.1,0-0.3-0.1-0.4-0.1c-0.2-0.1-0.5-0.1-0.7-0.2c-0.2-0.1-0.5-0.1-0.8-0.2c-0.1,0-0.3-0.1-0.4-0.1c0,0,0,0,0,0
			c-0.1,0-0.2-0.1-0.4-0.1c-0.1,0-0.2-0.1-0.3-0.1c-0.1,0-0.2,0-0.2,0c-0.2-0.1-0.4-0.1-0.6-0.1c-0.1,0-0.2,0.1-0.4,0
			c-0.1-0.1-0.2-0.1-0.3-0.1c-0.2,0-0.4,0-0.5-0.2c0,0,0,0.1,0,0.1c-0.1,0-0.2-0.1-0.3-0.1c-0.1,0-0.3,0-0.3,0
			c-0.1-0.1-0.2-0.1-0.3-0.1c0,0,0,0-0.1,0c-0.1-0.1-0.2-0.1-0.4-0.1c0,0-0.1,0-0.1,0c-0.3-0.1-0.5-0.2-0.8-0.3c0,0-0.1,0-0.1,0
			c-0.2,0-0.4-0.1-0.5-0.1c-0.1,0-0.2,0-0.2,0c-0.1-0.2-0.3-0.1-0.5-0.1c-0.1,0-0.3-0.1-0.4-0.1c-0.2,0-0.4-0.1-0.6-0.1
			c-0.4-0.1-0.8-0.2-1.3-0.3c-0.4-0.1-0.9-0.2-1.3-0.3c-0.6-0.2-1.2-0.3-1.8-0.5c-0.4-0.1-0.7-0.2-1.1-0.3c-0.6-0.2-1.2-0.3-1.7-0.5
			c-0.3-0.1-0.7-0.2-1-0.3c-0.4-0.1-0.8-0.3-1.2-0.5c-0.4-0.2-0.6-0.5-0.9-0.9c-0.1-0.2-0.3-0.4-0.4-0.7c-0.1-0.2-0.1-0.3-0.1-0.5
			c-0.1-0.4-0.2-0.7-0.2-1.1c0-0.1,0-0.1,0-0.2c0-0.2,0.1-0.5,0.1-0.7c0-0.1,0.1-0.2,0.1-0.2c0.1-0.3,0.2-0.6,0.4-0.9
			c0.3-0.5,0.6-0.9,0.9-1.4c0.3-0.5,0.6-0.9,0.9-1.4c0.2-0.3,0.4-0.6,0.6-0.8c0.4-0.4,0.6-0.9,0.8-1.4c0,0,0,0,0,0
			c0-0.2-0.1-0.3-0.1-0.5c0-0.1-0.1-0.2-0.1-0.3c-0.1-0.2-0.1-0.5-0.2-0.7c-0.1-0.2-0.1-0.4-0.2-0.6c-0.1-0.2-0.1-0.5-0.2-0.7
			c0,0,0-0.1,0-0.1c0-0.1-0.1-0.2-0.1-0.3c-0.1-0.2-0.1-0.4-0.2-0.6c-0.1-0.2-0.2-0.5-0.3-0.7c-0.1-0.2-0.1-0.3-0.2-0.5
			c-0.2-0.4-0.3-0.8-0.5-1.2c0-0.1,0-0.2,0-0.2c-0.1-0.3-0.3-0.5-0.3-0.8c0,0,0,0,0-0.1c-0.2-0.2-0.2-0.4-0.2-0.6c0,0,0-0.1-0.1-0.1
			c-0.1-0.1-0.1-0.1-0.1-0.2c0-0.1,0-0.2-0.1-0.3c-0.2-0.2-0.2-0.5-0.4-0.7c-0.1-0.1-0.1-0.3-0.2-0.4c0,0,0-0.1,0-0.2
			c0-0.1-0.1-0.2,0-0.2c-0.1-0.2-0.1-0.3-0.1-0.5c0,0,0,0,0-0.1c0-0.1,0-0.2-0.1-0.3c0,0,0,0,0,0c0,0,0,0-0.1,0.1c0-0.1,0-0.1,0-0.2
			c0,0,0,0-0.1,0c0,0,0-0.1,0-0.2c0,0-0.1,0-0.1,0c0-0.1-0.1-0.3-0.1-0.4c0,0-0.1-0.1-0.1-0.1c-0.1-0.2-0.2-0.4-0.2-0.6
			c0-0.1,0-0.1,0-0.2c0-0.1,0-0.1-0.1-0.2c0,0,0-0.1,0-0.1c0-0.1,0-0.2-0.1-0.3c-0.1-0.1-0.1-0.2-0.1-0.3c-0.1-0.2-0.2-0.5-0.2-0.7
			c-0.1-0.2-0.2-0.5-0.2-0.7c0-0.1,0-0.2-0.1-0.3c0-0.1-0.1-0.3-0.1-0.5c-0.1-0.2,0-0.4-0.1-0.5c0-0.2-0.1-0.3-0.1-0.5
			c0,0,0-0.1,0-0.1c0-0.1-0.1-0.2-0.1-0.3c-0.1-0.2-0.1-0.4-0.1-0.5c-0.1-0.4-0.3-0.7-0.4-1.1c-0.1-0.3-0.2-0.6-0.3-0.9
			c-0.1-0.3-0.1-0.6-0.2-0.8c-0.1-0.4-0.2-0.8-0.3-1.1c-0.1-0.3-0.2-0.6-0.5-0.8c-0.3-0.2-0.5-0.4-0.8-0.6c-0.3-0.2-0.4-0.4-0.5-0.6
			c0,0,0-0.1,0-0.1c0.1-0.2,0.2-0.4,0.5-0.4c0.2-0.1,0.5-0.1,0.7,0c0.4,0.1,0.7,0.2,1.1,0.2C14.6,9,14.9,9,15.2,9
			c0.2,0,0.4,0.1,0.7,0.1c0.3,0,0.7,0,1,0c0.3,0,0.6,0,1-0.1c0,0,0.1,0,0.2,0c0.1,0,0.2,0,0.2,0c0.4-0.1,0.9-0.1,1.4-0.1
			c0.6,0,1.1,0.1,1.7,0.1c0.1,0,0.1,0,0.2,0c0.1-0.1,0.3-0.1,0.4,0c0.1,0,0.2,0,0.2,0c0.3,0,0.6,0,0.9,0c0.2,0,0.4,0,0.6,0.1
			c0,0,0.1,0,0.1,0c0.2,0.1,0.4,0.2,0.6,0.3c0,0,0.1,0.1,0.1,0.1c0.1,0.2,0.3,0.4,0.4,0.6c0.2,0.3,0.5,0.5,0.7,0.8
			c0.2,0.2,0.4,0.5,0.6,0.7c0.1,0.2,0.2,0.3,0.3,0.5c0,0.1,0,0.1,0.1,0.2c0.2,0,0.4,0,0.6,0c0-0.1-0.1-0.1-0.1-0.1
			c-0.1-0.2-0.2-0.4-0.3-0.5c-0.1-0.1-0.2-0.3-0.2-0.4c-0.1-0.2-0.2-0.4-0.3-0.6c0,0,0-0.1,0-0.1c0-0.1-0.1-0.2-0.1-0.3
			c0,0-0.1-0.1-0.1-0.1c-0.2-0.2-0.3-0.5-0.5-0.7c0,0,0,0,0,0c0-0.1-0.1-0.3-0.2-0.4c-0.2-0.2-0.3-0.4-0.5-0.6
			c-0.3-0.2-0.6-0.2-0.9-0.3c0,0-0.1,0-0.1,0c-0.1,0.1-0.3,0.1-0.3,0c-0.1-0.1-0.2-0.1-0.4-0.1c-0.2,0-0.4,0-0.6-0.1
			c-0.1,0-0.2,0-0.2,0c0,0.1,0,0.2,0,0.2c0,0-0.1,0.1-0.2,0.1c-0.1,0-0.2-0.1-0.2-0.2c0,0-0.1-0.1-0.1-0.1c0,0,0,0.1-0.1,0.1
			c0,0.1-0.1,0.2-0.2,0.1c-0.1,0-0.2-0.1-0.2-0.2c-0.1-0.1-0.2-0.1-0.3,0c-0.1,0.1-0.2,0.1-0.3,0c0,0-0.1-0.1-0.1-0.1
			c-0.1,0.3-0.2,0.3-0.4,0.2c-0.1,0-0.2-0.1-0.2-0.2c-0.1-0.1-0.2-0.1-0.3-0.1c0.1,0.1,0,0.2-0.1,0.3c-0.1,0.1-0.2,0-0.2-0.1
			c0,0-0.1-0.1-0.1-0.1c-0.2,0.2-0.3,0.2-0.5,0c-0.1-0.1-0.1-0.1-0.2,0c0,0-0.1,0.1-0.2,0c-0.1,0-0.2-0.1-0.3-0.1
			c-0.1-0.1-0.2-0.1-0.3,0c0,0-0.1,0-0.2,0c-0.1,0-0.2-0.1-0.3-0.1c-0.1,0-0.1,0-0.2,0c-0.1,0.1-0.2,0.1-0.2,0.1c0,0-0.1,0-0.1,0
			c-0.1,0.1-0.2,0.1-0.3,0c-0.2,0-0.3-0.1-0.5,0c-0.1,0.1-0.2,0.1-0.3,0.1c-0.2,0-0.5-0.1-0.7,0.1c0,0-0.1,0-0.1,0
			c-0.1-0.1-0.2-0.1-0.3-0.1c-0.1,0-0.2,0-0.3,0c-0.1,0-0.1,0-0.2,0C13.5,8,13.2,8,12.9,8c0,0-0.1,0.1-0.1,0.1
			c-0.2,0.1-0.4,0.1-0.6,0.1c-0.1,0-0.2,0-0.2,0.1c-0.1,0.1-0.2,0.1-0.3,0.1c0,0-0.1,0-0.1,0c-0.1,0.1-0.3,0.1-0.4,0.1
			c-0.1,0-0.1,0-0.2,0c-0.2,0.1-0.3,0.1-0.5,0.1c0,0-0.1,0-0.1,0c0.1,0.1,0,0.2-0.1,0.3c0,0.1,0.1,0.1,0.1,0.1c0,0.1,0,0.1,0,0.2
			c-0.1,0-0.1,0-0.2,0C10,9.1,9.9,9,9.7,9c0,0,0,0,0,0c0.1,0.1,0.3,0.2,0.4,0.2c0.4,0,0.4,0.3,0.5,0.6c0,0.2,0.1,0.2,0.2,0.2
			c0,0,0.1,0,0.2,0c-0.1,0.2-0.3,0-0.4,0.2c0.1,0,0.1,0.1,0.1,0.1c0.2,0.1,0.3,0.2,0.5,0.3c0.1,0,0.1,0.1,0.2,0.1
			c0.1,0,0.2,0.1,0.3,0.1c0,0,0,0,0,0.1c-0.1,0-0.2,0-0.3,0c0,0,0,0,0,0c0.1,0.1,0.2,0.1,0.3,0.2c0.1,0,0.2,0.1,0.3,0.1
			c0.1,0,0.2,0.1,0.3,0.1c0.1,0,0.1,0,0.2,0.1c0.1,0,0.2,0.1,0.1,0.2c0,0,0,0.1,0.1,0.1c0.1,0.1,0.2,0.1,0.2,0.2c0,0,0,0.1,0,0.1
			c0,0-0.1,0-0.1,0.1c-0.1,0-0.2,0-0.2,0c0.1,0.4,0.3,0.6,0.5,0.6c0,0,0-0.1,0-0.1c0,0,0.1,0,0.1,0c0.1,0.1,0.2,0.2,0.3,0.2
			c0,0,0,0.1,0,0.1c0,0-0.1,0-0.1,0.1c-0.1,0-0.2,0-0.3,0c0,0.2,0.1,0.5,0.3,0.5c0,0-0.1-0.1-0.1-0.1c0,0,0-0.1,0-0.1
			c0,0,0.1,0,0.1,0c0.1,0.1,0.2,0.2,0.3,0.3c0,0-0.1,0.1-0.1,0.2c0,0,0,0,0,0c0,0,0.1,0.1,0.1,0.1c0.2,0.2,0.3,0.3,0.5,0.5
			c0.1,0.1,0.1,0.2-0.1,0.2c-0.1,0-0.2,0-0.2,0c-0.1,0-0.1,0-0.1,0.1c0.1,0.3,0.1,0.3,0.4,0.3c0,0,0.1,0,0.1,0c0.1,0,0.1,0,0.2,0.1
			c0,0-0.1,0.1-0.1,0.1c-0.1,0-0.1,0-0.2,0c-0.1,0-0.1,0-0.1,0.1c0,0.1,0.1,0.2,0.3,0.2c0.1,0,0.2,0,0.3,0.1c0,0,0.1,0.1,0.1,0.1
			c0,0-0.1,0.1-0.1,0.1c-0.1,0-0.2,0-0.2,0c0,0,0,0,0,0c0.1,0,0.1,0.1,0.2,0.1c0.1,0,0.1,0,0.2,0.1c0,0,0.1,0.1,0.1,0.1
			c0,0-0.1,0.1-0.1,0.1c0,0-0.1,0-0.1,0c0,0.2,0,0.3,0.2,0.3c0.1,0,0.3,0.1,0.4,0.2c0.1,0,0.1,0.1,0.2,0.1c0.1,0.1,0.1,0.1,0,0.1
			c-0.1,0-0.2,0-0.3,0c-0.1,0-0.1,0-0.2,0c0,0.3,0.2,0.4,0.4,0.5c0.1,0,0.3,0.1,0.3,0.2c-0.1,0.2-0.3,0.1-0.5,0.2
			c0.1,0.1,0.1,0.2,0.1,0.2c0.1,0.1,0.3,0.1,0.4,0.2c0,0,0.1,0.1,0.1,0.1c0,0.1,0,0.1-0.1,0.1c-0.1,0-0.2,0-0.3,0
			c0.1,0.2,0.1,0.3,0.2,0.5c0.2,0,0.5,0.1,0.6,0.2c-0.1,0.2-0.2,0-0.2,0c-0.1,0-0.2-0.1-0.3-0.1c0.1,0.2,0.1,0.4,0.2,0.6
			c0,0.1,0.1,0.2,0.2,0.1c0,0,0.1,0,0.1,0c0.1,0,0.2,0.1,0.2,0.1c0.1,0,0.2,0.1,0.3,0.1c-0.1,0.1-0.2,0.1-0.3,0.1
			c-0.1,0-0.2-0.1-0.4,0c0.1,0.2,0.1,0.3,0.2,0.5c0,0.1,0.1,0.2,0.2,0.1c0,0,0.1,0,0.1,0c0.1,0,0.1,0.1,0.2,0.1c0.1,0,0.2,0,0.2,0.1
			c0,0-0.1,0.1-0.2,0.1c0,0-0.1,0-0.1,0c-0.3,0-0.3,0-0.2,0.2c0,0,0,0.1,0,0.1c0,0,0,0.1,0.1,0.1c0.2,0.1,0.3,0.1,0.5,0.2
			c0.1,0,0.1,0.1,0.1,0.1c0,0.1-0.1,0.1-0.2,0.1c-0.1,0-0.2,0-0.3,0c0.1,0.1,0.1,0.3,0.2,0.4c0.1,0.1,0.3,0.2,0.5,0.2
			c0,0,0.1,0,0.2,0c0.1,0,0.1,0.1,0,0.2c-0.1,0.1-0.2,0-0.3,0c-0.1,0-0.1,0-0.2,0c0,0.1,0.1,0.2,0.1,0.3c0,0.1,0.1,0.2,0.2,0.2
			c0.2,0.1,0.4,0.1,0.5,0.2c0,0,0.1,0.1,0.1,0.1c0,0.1-0.1,0.1-0.1,0.1c0,0-0.1,0-0.2-0.1c-0.1-0.1-0.2-0.1-0.3-0.1c0,0,0,0.1,0,0.1
			c0,0.1,0.1,0.3,0.2,0.4c0,0.1,0.1,0.1,0.1,0.1c0.2,0.1,0.3,0.1,0.5,0.2c0,0,0.1,0.1,0.1,0.1c0,0.1-0.1,0.1-0.1,0.1
			c0,0-0.1-0.1-0.1-0.1c-0.1,0-0.2,0-0.3,0c0,0.1,0,0.1,0.1,0.2c0,0.2,0.1,0.2,0.3,0.3c0.2,0,0.3,0.1,0.4,0.2
			c-0.1,0.1-0.2,0.2-0.3,0.1c0,0-0.1,0-0.1,0c-0.1,0-0.1,0-0.1,0.1c0,0.2,0.1,0.3,0.1,0.5c0,0.1,0.3,0.3,0.4,0.2
			c0.1,0,0.2,0,0.3,0.1c0,0,0.1,0.1,0,0.1c0,0-0.1,0.1-0.2,0.1c-0.1,0-0.2,0-0.3-0.1c0,0-0.1,0-0.1,0c0,0.3,0.1,0.5,0.4,0.6
			c0.1,0,0.2,0,0.3,0.1c0.1,0,0.1,0.1,0.1,0.1c0,0-0.1,0.1-0.1,0.1c-0.1,0-0.2,0-0.3,0c0,0-0.1,0-0.1,0.1c0,0.1,0.1,0.3,0.2,0.4
			c0.1,0,0.3,0.1,0.4,0.1c0,0,0,0.1,0,0.1c0,0-0.1,0-0.1,0c-0.1,0-0.1,0-0.1,0c-0.1,0-0.1,0-0.2,0.1c0,0.1,0,0.1,0.1,0.2
			c0.1,0.1,0.2,0.1,0.3,0.2c0.1,0,0.2,0.1,0.3,0.1c0.1,0.1,0.1,0.1,0,0.2c0,0.1-0.1,0.1-0.2,0c-0.1-0.1-0.2-0.1-0.3-0.2
			c0,0.2,0.1,0.3,0.2,0.3c0.1,0,0.3,0.1,0.4,0.2c0.1,0,0.1,0.1,0.1,0.1c-0.1,0-0.1,0.1-0.2,0.1c0,0-0.1,0-0.1,0c-0.1,0-0.1,0-0.2,0
			c0,0.2,0.1,0.3,0.2,0.3c0.1,0,0.3,0.1,0.4,0.2c0,0,0.1,0.1,0.1,0.1c-0.1,0.2-0.3,0-0.5,0.1c0.2,0.1,0.4,0.2,0.6,0.3
			c-0.1,0.1-0.1,0.1-0.1,0.2c-0.1,0-0.2,0-0.3,0c0,0,0,0,0,0c0,0,0.1,0.1,0.1,0.1c0.1,0.1,0.3,0.2,0.4,0.3c0,0,0.1,0.1,0.1,0.1
			c0,0,0,0.1-0.1,0.1c-0.2-0.1-0.3-0.2-0.5-0.2c0,0.2,0,0.3,0.2,0.4c0.3,0.1,0.5,0.3,0.8,0.4c0.1,0,0.1,0.1,0.2,0.1
			c0,0,0,0.1,0.1,0.2c-0.1,0-0.1,0-0.2,0c-0.2,0-0.3-0.1-0.5-0.2c-0.1,0-0.1,0-0.2,0c0,0,0,0,0,0.1c0.1,0,0.1,0.1,0.2,0.1
			C19.5,31.9,19.5,32,19.5,32z M34,22.1c0.1,0,0.2,0,0.2,0c0.1,0,0.2,0,0.2,0c0.3,0,0.6,0.1,0.9,0.1c0.3,0,0.6,0.1,0.8,0.1
			c0.1,0,0.1,0,0.2,0c0.1,0,0.2,0,0.2-0.1c0-0.1,0-0.1,0-0.2c0-0.3,0-0.5,0-0.8c0-0.1,0-0.1,0-0.2c0-0.3,0-0.6-0.1-1
			c0-0.2,0-0.4,0-0.6c0-0.1,0-0.3,0-0.4c0-0.1,0-0.1,0-0.2c0,0,0-0.1,0-0.1c0-0.1,0-0.3,0-0.4c0-0.1,0.2-0.1,0.2-0.1
			c0.1,0,0.1,0.1,0.1,0.2c0,0.2,0,0.4,0,0.6c0,0.5,0,1,0.1,1.5c0,0.6,0.1,1.1,0.1,1.7c0,0.1,0,0.2,0.2,0.2c0.2,0,0.3,0,0.5,0.1
			c0.1,0,0.3,0.1,0.4,0.1c0.2,0,0.4,0.1,0.7,0.1c0.3,0,0.6,0.1,0.9,0.1c0.1,0,0.3,0,0.4,0c0.1,0,0.2,0,0.3,0c0.2,0,0.3,0,0.5,0
			c0.2,0,0.4,0,0.5,0.1c0.2,0,0.3,0.1,0.5,0.1c0.3,0,0.6,0.1,0.8,0.1c0.2,0,0.4,0,0.6,0.1c0.3,0,0.6,0.1,0.9,0.1c0,0,0.1,0,0.1,0
			c0.2,0,0.5,0.1,0.7,0.1c0,0,0.1,0.1,0.2,0.1c0,0.1,0,0.2-0.1,0.2c0,0.1-0.2,0.1-0.2,0.1c-0.1-0.1-0.2-0.1-0.3-0.1c0,0-0.1,0-0.1,0
			c-0.1,0-0.2-0.1-0.2-0.1c-0.2,0-0.3,0-0.5,0c0,0,0,0,0,0c-0.2,0-0.3,0-0.5,0c-0.2,0-0.5-0.1-0.7-0.1c-0.3,0-0.7-0.1-1-0.1
			c-0.2,0-0.4-0.1-0.6-0.1c-0.2,0-0.3,0-0.5-0.1c0,0-0.1-0.1-0.1-0.1c-0.2,0-0.4,0-0.6,0c0,0,0,0-0.1,0c0,0-0.1,0-0.1,0
			c-0.1,0-0.1,0-0.2,0c-0.1,0-0.2,0-0.3,0c0,0-0.1,0-0.1,0c-0.1,0-0.3,0-0.4,0c-0.3-0.1-0.7-0.1-1-0.1c-0.1,0-0.2,0-0.2,0.2
			c0,0.3,0.1,0.6,0.1,0.9c0.1,0.7,0.2,1.3,0.2,2c0.1,0.5,0.1,1,0.2,1.4c0,0.3,0.1,0.7,0.1,1c0,0.1,0.1,0.1,0.2,0.1
			c0.3,0,0.6,0,0.9,0c0.4,0,0.8,0,1.2,0c0.2,0,0.4,0,0.5,0c0.2,0,0.3,0,0.5,0c0.3,0,0.6,0,1,0.1c0.2,0,0.4,0,0.6,0
			c0.3,0,0.5,0.1,0.8,0.1c0.1,0,0.2,0,0.3,0c0.3,0,0.7,0.1,1,0.1c0.1,0,0.3,0.1,0.3,0.2c0,0.2-0.1,0.2-0.3,0.2c-0.1,0-0.1,0-0.2,0
			c-0.2,0-0.4,0-0.7-0.1c-0.2,0-0.3,0-0.4-0.1c-0.2-0.1-0.4,0-0.6-0.1c-0.1,0-0.2,0-0.2-0.1c-0.1,0-0.3,0-0.4,0.1
			c0,0-0.1-0.1-0.1-0.1c-0.2,0-0.3,0.1-0.5,0.1c-0.3,0-0.6,0-0.8,0c-0.3,0-0.5,0-0.8,0c-0.3,0-0.5,0-0.8,0c-0.3,0-0.6,0-0.9,0
			c-0.1,0-0.3,0-0.4,0c-0.1,0-0.2,0-0.1,0.1c0,0.3,0.1,0.7,0.2,1c0,0,0.1,0.1,0.1,0.1c0.1,0,0.1,0,0.2,0c0.4,0,0.7,0,1.1,0.1
			c0.4,0,0.9,0.1,1.3,0.1c0.4,0,0.8,0,1.2,0.1c0.6,0,1.2,0,1.8,0c0.5,0,1,0,1.4-0.1c0.1,0,0.2,0,0.2-0.2c0-0.7,0-1.4,0-2.1
			c0-0.4,0-0.9,0-1.3c0-0.3,0-0.7,0-1c0-0.2,0-0.4,0-0.6c0-0.4,0-0.8-0.1-1.2c0-0.3,0-0.6,0-0.9c0-0.2,0-0.5,0-0.7
			c0-0.1,0-0.2,0-0.2c0-0.1,0-0.2,0-0.3c0,0,0-0.1,0-0.1c0-0.3,0-0.6,0-1c0-0.6,0-1.2,0-1.8c0-0.1,0-0.1,0-0.2
			c-0.2-0.2-0.4-0.4-0.7-0.4c-0.3,0-0.5-0.1-0.8-0.2c-0.1,0-0.2,0-0.3,0c-0.2-0.1-0.4-0.1-0.6-0.1c-0.3,0-0.5-0.1-0.8-0.1
			c-0.4,0-0.8-0.1-1.1-0.1c-0.3,0-0.5-0.1-0.8-0.1c-0.2,0-0.3,0-0.5,0c-0.4-0.1-0.7-0.2-1.1-0.2c-0.3,0-0.6-0.1-0.9-0.2
			c-0.2,0-0.3-0.1-0.5-0.1c-0.3-0.1-0.6-0.1-0.9-0.2c0,0-0.1,0-0.1,0c-0.4,0-0.7-0.1-1.1-0.1c-0.3,0-0.6,0-0.9-0.1
			c-0.1,0-0.3,0-0.4-0.1c-0.1,0-0.2-0.1-0.4-0.1c-0.3,0-0.5-0.1-0.8-0.1c-0.1,0-0.2-0.1-0.3-0.1c-0.3,0-0.5,0-0.8-0.1
			c-0.3,0-0.7-0.1-1-0.1c-0.2,0-0.4-0.1-0.6-0.1c0,0-0.1,0-0.1,0c-0.2,0-0.4-0.1-0.6-0.1c0,0-0.1,0-0.1,0c-0.1,0-0.2,0-0.3,0
			c-0.3-0.1-0.6-0.2-1-0.2c-0.1,0-0.2,0.1-0.1,0.2c0,0.1,0,0.2,0,0.3c0,0.3,0.1,0.5,0.1,0.8c0,0.3,0,0.6,0.1,0.8
			c0.1,0.6,0.2,1.3,0.2,1.9c0,0.1,0,0.3,0,0.4c0,0.2,0.1,0.4,0.1,0.6c0,0.1,0,0.3,0.1,0.3c0.1,0.1,0.3,0.1,0.5,0.2
			c0.2,0,0.4,0,0.6,0.1c0,0,0,0,0,0c0.3-0.1,0.5,0.1,0.8,0.1c0.1,0,0.2,0,0.3,0c0.1,0,0.1-0.1,0.1-0.2c0-0.2-0.1-0.4-0.1-0.7
			c0-0.2,0-0.3,0-0.5c0,0,0,0,0-0.1c0-0.2,0-0.4,0-0.5c0,0,0-0.1,0-0.1c0-0.2-0.1-0.4,0-0.6c0-0.1-0.1-0.2-0.1-0.2
			c0-0.3-0.1-0.7-0.1-1c0-0.2,0-0.4,0.1-0.6c0-0.1,0.1-0.1,0.2-0.1c0.1,0,0.1,0.1,0.1,0.2c0,0.1,0,0.2,0,0.3c0,0.7,0.1,1.3,0.1,2
			c0.1,0.7,0.1,1.3,0.2,2c0,0.2,0.1,0.2,0.2,0.2c0.3,0,0.7,0,1,0.1c0.1,0,0.3,0,0.4,0.1C33,21.9,33.5,22,34,22.1
			C34,22,34,22.1,34,22.1z M46.3,48.6c0.1-0.1,0.1-0.1,0.2-0.2c0,0,0.1,0,0.1-0.1c0.1-0.1,0.1-0.1,0.2-0.2c0.1-0.1,0.2-0.1,0.3-0.2
			c0.4-0.2,0.8-0.3,1.3-0.1c0,0,0.1,0,0.1,0c0.1-0.1,0.2-0.2,0.4-0.3c0.1-0.1,0.2-0.2,0.2-0.3c0,0,0-0.1,0-0.1
			c-0.1-0.1-0.3-0.1-0.4-0.2c-0.1,0-0.2,0-0.3,0c-0.1,0-0.2-0.1-0.3-0.1c-0.1,0-0.3,0-0.4,0c-0.2,0-0.4-0.1-0.7-0.1
			c-0.3-0.1-0.5-0.1-0.8-0.2c-0.2-0.1-0.4-0.1-0.6-0.2c-0.1,0-0.2-0.1-0.3-0.1c-0.1,0-0.2-0.1-0.3-0.1c-0.2-0.1-0.3-0.1-0.5-0.2
			c-0.1,0-0.2,0-0.3-0.1c-0.3-0.1-0.5-0.2-0.8-0.3c-0.1,0-0.1,0-0.2,0c-0.4-0.1-0.8-0.3-1.2-0.4c-0.1,0-0.2,0-0.3-0.1
			c-0.2-0.1-0.4-0.1-0.5-0.2c-0.2-0.1-0.4-0.1-0.6-0.2c-0.1,0-0.2-0.1-0.3-0.1c-0.2,0-0.3-0.1-0.5-0.1c-0.3-0.1-0.5-0.2-0.8-0.2
			c-0.2,0-0.4-0.1-0.7-0.2c-0.2-0.1-0.4-0.2-0.6-0.2c-0.3,0-0.5-0.2-0.8-0.2c0,0-0.1,0-0.1,0c-0.1,0-0.2-0.1-0.2-0.1
			c-0.1,0-0.2,0-0.3-0.1c0,0,0,0-0.1,0c0,0-0.1,0-0.1,0c-0.1,0-0.1-0.1-0.2-0.1c-0.1,0-0.2-0.1-0.4-0.1c-0.2,0-0.4-0.1-0.5-0.1
			c-0.2-0.1-0.4,0-0.5-0.1C34.3,43,34.1,43,34,43c-0.2-0.1-0.4-0.1-0.6-0.2c0,0,0,0,0,0c-0.1,0-0.2,0-0.3,0c-0.2,0-0.3-0.1-0.5-0.1
			c-0.2,0-0.4-0.1-0.6-0.1c0,0-0.1-0.1-0.1-0.1c-0.2,0-0.4-0.1-0.6-0.1c-0.2,0-0.3-0.1-0.4-0.2c-0.3-0.1-0.6-0.2-0.9-0.3
			c-0.1,0-0.2,0-0.3,0c-0.2,0.1-0.3,0.2-0.5,0.3c-0.1,0.1-0.3,0-0.4,0.2c-0.2,0.2-0.5,0.3-0.7,0.4c-0.4,0.2-0.7,0.4-1.1,0.7
			c-0.3,0.2-0.6,0.4-0.9,0.6c-0.2,0.1-0.3,0.2-0.5,0.4c0,0,0,0,0.1,0c0.3,0.1,0.6,0.2,0.9,0.3c0.3,0.1,0.5,0.1,0.8,0.2
			c0.3,0.1,0.6,0.1,0.9,0.2c0.3,0.1,0.5,0.2,0.8,0.2c0.6,0.2,1.3,0.4,1.9,0.5c0.4,0.1,0.8,0.2,1.2,0.3c0.1,0,0.2,0,0.3,0.1
			c0.2,0.1,0.4,0.1,0.6,0.2c0.3,0.1,0.5,0.1,0.8,0.1c0.1,0,0.2,0,0.2,0c0.2,0,0.3,0.1,0.5,0.1c0.5,0.1,1,0.2,1.5,0.3
			c0.2,0,0.3,0.1,0.5,0.1c0,0,0,0,0.1,0c0.3,0.1,0.6,0.2,0.9,0.3c0.3,0.1,0.7,0.2,1,0.3c0.3,0.1,0.6,0.2,0.9,0.2
			c0.4,0.1,0.8,0.2,1.2,0.3c0.2,0.1,0.5,0.1,0.7,0.2c0.5,0.1,1,0.2,1.4,0.4c0.2,0,0.4,0.1,0.6,0.2c0.2,0.1,0.5,0.1,0.8,0.2
			c0.2,0.1,0.5,0.1,0.7,0.2c0.3,0.1,0.6,0.1,0.9,0.2c0.2,0,0.4,0,0.6,0c0.3-0.1,0.5-0.2,0.7-0.4c0.2-0.2,0.5-0.4,0.7-0.6
			c0.1-0.1,0.2-0.2,0.2-0.3c-0.2-0.1-0.3-0.1-0.5,0c-0.1,0-0.2,0.1-0.3,0.1c-0.2,0.1-0.4,0.2-0.6,0.4C46.6,48.7,46.5,48.7,46.3,48.6
			z M54.8,16.1C54.8,16,54.8,16,54.8,16.1c-0.2,0-0.3-0.1-0.5-0.1c-0.5-0.1-1-0.1-1.5-0.2c-0.6-0.1-1.2-0.2-1.8-0.2
			c-0.4-0.1-0.9-0.1-1.3-0.2c-0.9-0.1-1.8-0.2-2.6-0.3c-0.5-0.1-1.1-0.1-1.6-0.2c-0.4,0-0.9-0.1-1.3-0.1c-0.6-0.1-1.2-0.1-1.8-0.2
			c-0.6-0.1-1.1-0.1-1.7-0.2c-0.7-0.1-1.4-0.1-2.1-0.2c-0.5-0.1-1.1-0.1-1.6-0.2c-0.3,0-0.7,0-1-0.1c-0.3,0-0.6-0.1-0.9-0.1
			c-0.2,0-0.3,0-0.5,0c-0.2,0-0.5-0.1-0.7-0.1c-0.1,0-0.2-0.1-0.3-0.1c-0.2,0-0.5-0.1-0.7-0.1c-0.5,0-1,0-1.4-0.1
			c-0.6-0.1-1.2-0.2-1.7-0.3c-0.3,0-0.6-0.1-0.9-0.1c-0.3,0-0.7,0-1-0.1c0,0-0.1,0-0.1,0c-0.1,0-0.3,0-0.4,0c0,0-0.1,0.1-0.1,0.1
			c0,0.4,0,0.7,0,1.1c0,0.4,0.1,0.7,0.2,1.1c0,0.1,0.1,0.2,0.1,0.2c0.2,0,0.4,0.1,0.6,0.1c0.1,0,0.2,0,0.4,0.1
			c0.4,0.1,0.8,0.2,1.2,0.2c0.2,0,0.4,0,0.6,0c0.2,0,0.4,0.1,0.6,0.1c0.2,0,0.3,0,0.5,0c0.2,0,0.4,0,0.6,0.1c0.2,0,0.5,0.1,0.7,0.1
			c0.2,0,0.4,0.2,0.7,0.1c0,0,0,0,0.1,0c0.4,0,0.7,0.1,1.1,0.1c0.1,0,0.2,0,0.3,0c0.1,0,0.2,0,0.2,0.1c0.1,0,0.2,0.1,0.3,0.1
			c0,0,0.1,0,0.1,0c0.1-0.1,0.3-0.1,0.4,0c0.1,0,0.3,0.1,0.4,0c0.3,0,0.5,0,0.8,0c0,0,0,0,0.1,0c0.2,0,0.3,0,0.5,0
			c0.2,0,0.4,0.1,0.6,0.1c0.2,0,0.4,0.2,0.6,0.1c0.2,0,0.4,0.1,0.5,0.1c0.2,0,0.3,0.1,0.5,0.1c0.2,0,0.5,0,0.7,0
			c0.1,0,0.3,0,0.4,0.1c0.3,0.1,0.6,0.1,0.9,0.2c0.3,0.1,0.5,0.1,0.8,0.2c0.1,0,0.3,0,0.4,0.1c0.3,0.1,0.6,0.1,0.9,0.2
			c0.3,0.1,0.7,0.2,1,0.2c0.1,0,0.2,0,0.2,0c0.1,0,0.2,0,0.3,0c0.2,0.1,0.4,0.1,0.5,0c0.2,0,0.5-0.1,0.7-0.1c0.1,0,0.3,0,0.4,0
			c0.1,0,0.2-0.1,0.3-0.1c0.4-0.1,0.8-0.1,1.2-0.2c0,0,0,0,0.1,0c0.3-0.1,0.6-0.2,0.9-0.2c0.3-0.1,0.6-0.1,0.9-0.2
			c0.4-0.1,0.7-0.2,1.1-0.2c0.4-0.1,0.9-0.2,1.3-0.3c0.2-0.1,0.5-0.1,0.7-0.1C54,16.3,54.4,16.2,54.8,16.1z M51.7,21.7
			c0-0.1,0-0.3,0-0.4c0-0.1,0-0.2,0-0.3c0-0.1,0-0.2,0-0.4c0-0.2,0-0.5,0-0.7c0-0.2,0-0.3,0.1-0.5c0-0.1,0.1-0.3,0.2-0.4
			c0-0.1,0.2-0.1,0.2-0.1c0.1,0,0.1,0.1,0.1,0.2c-0.1,0.3-0.1,0.6-0.2,0.9c0,0.5-0.1,1-0.1,1.5c0,0.1,0,0.2,0,0.3
			c0,0,0.1,0.1,0.1,0.1c0.2,0,0.5-0.1,0.7-0.1c0.1,0,0.2-0.1,0.3-0.1c0.1,0,0.3,0,0.4-0.1c0,0,0.1-0.1,0.1-0.1c0.1,0,0.3,0,0.4-0.1
			c0.2-0.1,0.5-0.2,0.7-0.3c0.2-0.1,0.3-0.1,0.5-0.1c0.1,0,0.1,0,0.1-0.1c0.1-0.4,0.1-0.7,0.2-1.1c0.1-0.3,0.1-0.7,0.1-1
			c0.1-0.5,0.1-1.1,0.2-1.6c0-0.2,0-0.5,0-0.8c0-0.1,0-0.1-0.1-0.1c-0.2,0-0.4,0.1-0.6,0.2c-0.3,0.1-0.6,0.2-0.9,0.2
			c-0.5,0.1-1,0.2-1.6,0.3c-0.3,0.1-0.6,0.2-1,0.2c-0.5,0.1-1,0.2-1.5,0.3c-0.5,0.1-1.1,0.2-1.6,0.4c-0.4,0.1-0.8,0.2-1.2,0.3
			c-0.4,0.1-0.7,0.2-1.1,0.2c-0.1,0-0.2,0.1-0.2,0.2c0,0.3,0,0.5,0,0.8c0,0.5,0,1.1-0.1,1.6c0,0.4,0,0.7,0,1.1c0,0.4,0,0.7,0,1.1
			c0,0.8,0,1.7,0,2.5c0,0.4,0,0.7,0,1.1c0,0.4,0,0.9,0,1.3c0,0.6,0,1.2,0,1.9c0,0,0,0.1,0,0.1c0.1,0,0.2,0.1,0.3,0c0,0,0.1,0,0.1,0
			c0.1,0.1,0.3,0,0.4,0c0.1,0,0.3,0,0.4,0c0.3,0,0.5,0,0.8,0c0.1,0,0.3,0,0.4,0c0.2,0,0.4,0,0.6,0c0,0,0-0.1,0-0.1
			c0-0.2,0-0.3-0.1-0.5c0-0.2-0.1-0.4-0.1-0.5c0-0.2,0-0.5-0.1-0.7c0-0.1-0.1-0.1-0.2-0.1c-0.3,0.1-0.5,0.2-0.8,0.3
			c-0.4,0.2-0.9,0.3-1.3,0.5c-0.1,0-0.2,0.1-0.2-0.1c-0.1-0.2,0-0.3,0.1-0.3c0.3-0.1,0.6-0.2,0.9-0.3c0.4-0.1,0.8-0.3,1.2-0.4
			c0.1,0,0.2-0.1,0.1-0.2c0-0.1,0-0.2,0-0.3c0-0.2,0-0.4-0.1-0.6c0-0.4-0.1-0.7-0.2-1c0-0.1,0-0.3-0.1-0.4c0-0.2,0-0.5-0.1-0.7
			c0-0.1,0-0.3,0-0.4c0-0.2-0.1-0.4-0.1-0.6c0-0.1-0.1-0.1-0.2-0.1c-0.2,0-0.3,0.1-0.5,0.1c-0.1,0-0.3,0.1-0.4,0
			c0,0-0.1,0.1-0.1,0.1c-0.1,0-0.1,0.1-0.2,0.1c-0.1,0-0.2,0.1-0.3,0.1c-0.1,0-0.2,0-0.3-0.1c0,0-0.1,0-0.1,0c0,0,0,0,0.1-0.1
			c0.3-0.1,0.6-0.2,0.9-0.3c0.3-0.1,0.5-0.1,0.8-0.2c0.2-0.1,0.3-0.2,0.3-0.4c0-0.2,0-0.3,0-0.5c0-0.1,0-0.2,0-0.3
			c0-0.2,0-0.4,0-0.5c0-0.4,0-0.8,0-1.3c0-0.1,0.1-0.2,0.2-0.2c0.1,0,0.2,0.1,0.2,0.2c0,0.6,0,1.1,0,1.7c0,0.3,0,0.6,0,1
			c0,0.1,0,0.1,0.1,0.1c0.1,0,0.1,0,0.2,0c0.1,0,0.2-0.1,0.3-0.1c0.2-0.1,0.5-0.1,0.7-0.2c0.2,0,0.3-0.1,0.5-0.2c0.1,0,0.2,0,0.3,0
			c0.2,0,0.4-0.1,0.7-0.2c0.1,0,0.2-0.1,0.2-0.1C51.7,22,51.7,21.8,51.7,21.7C51.8,21.7,51.8,21.7,51.7,21.7
			C51.7,21.7,51.7,21.7,51.7,21.7z M21.9,33c0,0,0.1,0.1,0.2,0.1c0.2,0,0.4,0.1,0.6,0.1c0.1,0,0.2,0.1,0.3,0
			c0.2-0.1,0.4-0.1,0.5-0.1c0.4,0,0.9,0.1,1.3,0.1c0.3,0,0.5,0.1,0.8,0.1c0.4,0,0.8,0,1.2,0c0.2,0,0.5,0,0.7,0c0.4,0,0.8,0,1.1,0
			c0.7,0,1.3,0.1,2,0.1c0.4,0,0.8,0,1.1,0c0.3,0,0.6,0,0.8,0c0.4,0,0.8,0,1.1,0c0.3,0,0.6,0,0.8,0c0.3,0,0.6,0,0.9,0
			c0.2,0,0.4,0,0.6,0c0.4,0,0.9,0,1.3,0c0.4,0,0.9,0,1.3,0c0.3,0,0.6,0,0.9,0c0.4,0,0.8,0.1,1.2,0.1c0.3,0,0.6,0.1,0.9,0.1
			c0.3,0,0.5,0,0.8,0c0.5,0,1,0,1.5,0c0.4,0,0.9,0,1.3,0c0.1,0,0.1,0,0.1-0.1c0-0.2,0.1-0.5,0-0.7c0,0,0-0.1,0-0.1
			c0-0.1,0-0.2,0-0.4c0-0.3-0.1-0.5,0-0.8c0-0.2,0-0.4,0-0.6c0-0.1,0-0.2,0-0.2c0,0-0.1-0.1-0.1-0.1c-0.1,0-0.2,0-0.4,0
			c-0.3,0-0.6,0-1,0.1c-0.2,0-0.5,0-0.7,0c-0.5,0-1.1,0-1.6,0c-0.1,0-0.2,0-0.3-0.1c-0.2,0-0.4,0-0.7,0c-0.1,0-0.1,0-0.1,0
			c-0.5,0-1-0.1-1.6-0.1c-0.2,0-0.3,0-0.5,0c-0.1,0-0.1,0-0.1,0.1c0,0.2,0.1,0.4,0.1,0.5c0,0.2,0.1,0.3,0.2,0.5c0,0.1,0,0.2-0.1,0.3
			c-0.1,0-0.1,0-0.2,0c-0.1,0-0.2-0.1-0.2-0.2c0,0,0,0,0-0.1c0-0.2-0.1-0.4-0.1-0.5c0-0.2-0.1-0.4-0.1-0.5c0-0.1-0.1-0.2-0.2-0.2
			c-0.3,0-0.6-0.1-0.9-0.1c-0.6,0-1.2,0-1.8-0.1c-0.1,0-0.3,0-0.4,0c-0.5,0-1,0-1.5,0c-0.2,0-0.5,0-0.7,0c-0.1,0-0.1,0-0.1,0.1
			c0.1,0.2,0.1,0.5,0.2,0.7c0.1,0.2,0.1,0.3,0.1,0.6c-0.1,0-0.2,0-0.3,0c-0.1,0-0.2,0-0.2-0.2c0-0.2-0.1-0.5-0.2-0.7
			c0-0.1-0.1-0.2-0.1-0.3c0,0,0,0,0-0.1c0,0,0-0.1,0-0.1c-0.1-0.1-0.2-0.1-0.3-0.1c-0.6,0-1.1-0.1-1.7-0.1c-0.1,0-0.3,0-0.4,0
			c-0.4,0.1-0.7,0.2-1.1,0.4c-0.2,0.1-0.2,0.1-0.2,0.4c0,0.1,0.1,0.3,0.1,0.4c0,0.1-0.1,0.1-0.2,0.1c-0.1,0-0.1,0-0.2-0.1
			c-0.1-0.1-0.1-0.2-0.2-0.3c0-0.1,0-0.2-0.1-0.2c-0.1,0-0.2,0-0.3,0.1c0,0,0,0,0,0c-0.2,0.1-0.3,0.2-0.6,0.2c0,0,0,0,0,0
			c-0.3,0.1-0.5,0.3-0.8,0.4c-0.2,0.1-0.3,0.1-0.5,0.2c-0.2,0.1-0.4,0.2-0.6,0.2c-0.2,0.1-0.4,0.1-0.6,0.2c-0.2,0.1-0.4,0.2-0.6,0.2
			c-0.1,0-0.1,0-0.2,0.1c-0.1,0-0.2,0.1-0.2,0.1c-0.2,0.1-0.5,0.2-0.7,0.3C22.2,32.8,22.1,32.9,21.9,33z M19.8,15.5
			c0.2-0.1,0.3-0.1,0.3,0.1c0.1,0.3,0.2,0.6,0.2,1c0.1,0.4,0.1,0.8,0.2,1.1c0.1,0.5,0.3,1,0.4,1.5c0.1,0.4,0.2,0.7,0.2,1.1
			c0,0.1,0.1,0.1,0.2,0.1c0.2,0,0.4,0.1,0.6,0.1c0.4,0,0.7,0.1,1.1,0.1c0.2,0,0.4,0,0.6,0c0.2,0,0.5,0.1,0.7,0c0.2,0,0.3,0,0.5,0
			c0.1,0,0.1,0,0.1-0.1c0-0.3-0.1-0.5-0.1-0.8c0-0.1,0-0.3,0-0.4c-0.1-0.2-0.1-0.4-0.1-0.6c0-0.1,0-0.1,0-0.2
			c-0.1-0.2-0.1-0.4,0.1-0.4c0,0-0.1-0.1-0.2-0.1c0,0,0.1-0.1,0.1-0.1c0-0.2-0.1-0.3-0.1-0.4c0-0.2,0-0.4,0-0.6
			c0-0.1-0.1-0.3-0.1-0.4c0-0.1,0-0.1,0-0.2c0-0.1,0-0.2,0-0.2c-0.1-0.2,0-0.3,0.1-0.4c0,0.1,0.1,0.1,0.1,0.2c0,0.2,0.1,0.5,0.1,0.7
			c0.1,0.4,0.1,0.7,0.1,1.1c0.1,0.5,0.1,0.9,0.2,1.4c0.1,0.5,0.2,1,0.2,1.4c0,0.1,0.1,0.1,0.2,0.1c0.3,0,0.6,0.1,1,0.1
			c0.2,0,0.5,0.1,0.7,0.1c0.1,0,0.2,0,0.3,0c0-0.3,0-0.5,0-0.8c0,0,0-0.1,0-0.1c-0.1-0.1,0-0.2,0.1-0.2c-0.1,0-0.1-0.1-0.1-0.1
			c0-0.1,0-0.1,0-0.1c0-0.2-0.1-0.3-0.1-0.5c-0.1-0.4-0.1-0.8-0.1-1.2c0-0.2,0-0.3-0.1-0.5c0-0.2,0-0.3,0-0.5c0-0.1,0-0.2-0.1-0.3
			c0-0.2,0-0.4,0-0.7c0-0.1,0-0.2-0.1-0.3c0,0-0.1-0.1-0.1-0.1c-0.2-0.1-0.5-0.1-0.7-0.1c-0.2,0-0.4,0-0.7,0c-0.3,0-0.5-0.1-0.8-0.1
			c-0.4,0-0.7-0.1-1.1-0.1c-0.4-0.1-0.7-0.1-1.1-0.2c-0.1,0-0.3,0-0.4,0c-0.3,0-0.6-0.1-0.8-0.1c-0.1,0-0.2,0-0.4,0
			c-0.3,0-0.6-0.1-1-0.2c-0.3,0-0.6-0.1-0.9-0.1c-0.5-0.1-1.1-0.1-1.6-0.2c-0.3,0-0.5-0.1-0.8-0.1c-0.2,0-0.5-0.1-0.7-0.1
			c-0.3,0-0.5,0-0.8,0c0.1,0.1,0.1,0.2,0.2,0.3c0.1,0.2,0.1,0.3,0.2,0.5c0.1,0.4,0.3,0.9,0.4,1.3c0.1,0.4,0.3,0.9,0.4,1.3
			c0.2,0.5,0.3,1,0.5,1.5c0.1,0.3,0.2,0.6,0.3,0.8c0,0,0.1,0.1,0.1,0.1c0.2,0,0.3,0,0.5,0c0.4,0,0.8,0,1.2,0.1c0.1,0,0.1,0,0.2,0
			c0.2,0,0.4,0,0.6,0c0.3,0,0.5,0.1,0.8,0.1c0.2,0,0.2-0.1,0.2-0.2c0-0.2-0.1-0.4-0.1-0.5c-0.1-0.3-0.1-0.7-0.2-1
			c0-0.1-0.1-0.3-0.1-0.4c-0.1-0.3-0.2-0.6-0.3-0.9C20,17,20,16.8,19.9,16.6C19.9,16.2,19.8,15.9,19.8,15.5z M21.1,33.1
			c-0.1,0.1-0.1,0.2-0.2,0.3c-0.2,0.4-0.4,0.7-0.6,1.1c-0.1,0.2-0.3,0.4-0.4,0.6c-0.2,0.3-0.4,0.6-0.6,1c-0.2,0.2-0.3,0.5-0.5,0.7
			c-0.2,0.4-0.5,0.8-0.7,1.2c-0.2,0.4-0.5,0.9-0.5,1.4c-0.1,0.7-0.1,1.4,0.3,2c0.1,0.2,0.2,0.3,0.3,0.4c0.1,0.2,0.2,0.3,0.3,0.4
			c0.5,0.3,1.1,0.5,1.6,0.7c0.5,0.2,1.1,0.4,1.6,0.5c0.4,0.1,0.7,0.2,1.1,0.3c0,0,0.1,0,0.1,0c0-0.1,0.1-0.1,0.2-0.2
			c0.1-0.1,0.2-0.2,0.3-0.3c0.2-0.1,0.3-0.3,0.6-0.3c0.1,0,0.2-0.1,0.2-0.1c0.2-0.1,0.4-0.2,0.6-0.3c0.1-0.1,0.3-0.1,0.3-0.2
			c0.1-0.1,0.2-0.2,0.3-0.3c0.3-0.2,0.7-0.3,1-0.5c0,0,0.1-0.1,0.1-0.1c0,0,0,0,0,0c-0.4,0.1-0.8,0.2-1.1,0.6
			c-0.2-0.1-0.3-0.1-0.1-0.3c0,0,0,0,0,0c0.2-0.1,0.4-0.3,0.6-0.4c0.2-0.1,0.5-0.1,0.7,0c0.1,0,0.2,0,0.3-0.1
			c-0.1,0-0.1-0.1-0.2-0.1c-0.2-0.1-0.5-0.2-0.7-0.3c-0.1,0-0.2-0.1-0.3-0.1c-0.1,0-0.2-0.1-0.3-0.1c-0.3-0.3-0.7-0.5-0.9-0.8
			c-0.2-0.2-0.3-0.4-0.4-0.6c-0.2-0.4-0.3-0.9-0.2-1.4c0-0.1,0-0.1,0-0.2c0-0.2,0.1-0.4,0.1-0.6c0-0.1,0-0.3,0.1-0.4
			c0.1-0.1,0-0.2,0.1-0.3c0-0.1,0-0.1,0.1-0.2c0.1-0.2,0.2-0.4,0.3-0.7c0.1-0.2,0.2-0.4,0.3-0.6c0.1-0.2,0.1-0.3,0.2-0.5
			c-0.4,0-0.8-0.1-1.2-0.1c-0.2,0-0.4,0-0.6,0c-0.2,0-0.4,0-0.7,0c-0.3,0-0.6-0.1-0.9-0.3C21.4,33.4,21.2,33.2,21.1,33.1z
			 M25.9,12.4c-0.1-0.1-0.2-0.2-0.2-0.2c-0.1-0.1-0.2-0.2-0.3-0.3c0-0.1-0.1-0.2-0.1-0.2c-0.2-0.3-0.5-0.6-0.8-0.9
			c-0.3-0.3-0.5-0.6-0.8-0.8c-0.1-0.1-0.1-0.1-0.2-0.2c-0.2-0.1-0.5-0.1-0.7-0.2c-0.4,0-0.7,0-1.1-0.1c-0.4,0-0.8-0.1-1.2-0.1
			c-0.2,0-0.4,0-0.6,0c-0.9,0-1.7,0.1-2.6,0.1c-0.3,0-0.6,0-0.9,0c-0.1,0-0.3,0-0.4,0c-0.4,0-0.8-0.1-1.2-0.1
			c-0.6,0-1.1-0.1-1.7-0.3c-0.2,0-0.4,0-0.6,0c0,0-0.1,0-0.1,0.1c0,0,0,0.1,0,0.1c0.1,0.1,0.2,0.2,0.3,0.3c0.2,0.2,0.4,0.3,0.6,0.4
			c0.1,0.1,0.3,0.3,0.5,0.3c0,0,0,0.1,0.1,0.1c0.1,0.2,0.2,0.4,0.3,0.7c0.1,0.2,0.2,0.3,0.2,0.5c0.1,0.2,0.2,0.5,0.2,0.7
			c0,0.2,0.1,0.3,0.1,0.5c0,0.3,0.1,0.6,0.2,0.8c0.1,0.2,0.2,0.3,0.4,0.2c0.3-0.1,0.5-0.1,0.8-0.2c0.3-0.1,0.5-0.1,0.8-0.2
			c0.5-0.1,1.1-0.2,1.6-0.3c0.3,0,0.5-0.1,0.8-0.1c0.3,0,0.5,0,0.8-0.1c0.3,0,0.7-0.1,1-0.1c0.1,0,0.2,0,0.3,0
			c0.5-0.1,0.9-0.2,1.4-0.2c0.1,0,0.3,0,0.4,0c0.3,0,0.6,0,1-0.1c0.3,0,0.7-0.1,1-0.1C25.5,12.4,25.7,12.4,25.9,12.4z M33.3,22.3
			c-0.1,0-0.2,0-0.3,0c-0.2,0-0.4-0.1-0.5-0.1c-0.4,0-0.7-0.1-1.1-0.1c-0.1,0-0.2,0-0.3,0c-0.1,0-0.1,0.1-0.1,0.2
			c0,0.4,0.1,0.8,0.1,1.2c0,0.3,0.1,0.7,0.1,1c0,0.2,0.1,0.5,0.1,0.7c0,0.2,0,0.4,0.1,0.6c0,0.2,0.1,0.4,0.1,0.6
			c0.1,0.5,0.2,1.1,0.3,1.6c0,0.1,0.1,0.1,0.1,0.1c0.2,0.1,0.3,0.1,0.5,0.1c0.3,0,0.6,0,0.9,0c0,0,0.1,0,0.1,0c0.1,0,0.1,0,0.2,0
			c0,0,0.1,0,0.1,0c0.4,0,0.8,0,1.2,0c0.4,0,0.7,0,1.1,0c0.4,0,0.9,0,1.3,0c0.1,0,0.1,0,0.1-0.1c0-0.1,0-0.2,0-0.2
			c0-0.3-0.1-0.7-0.1-1c0-0.1-0.1-0.3,0-0.4c0-0.2,0-0.3-0.1-0.4c0,0,0-0.1,0-0.1c0-0.1,0-0.3,0-0.4c0-0.1,0-0.2,0-0.4
			c0-0.2-0.1-0.3-0.1-0.5c-0.1-0.5-0.1-1-0.2-1.5c0-0.2,0-0.3,0-0.5c0-0.2-0.1-0.3-0.2-0.3c-0.2,0-0.4,0-0.6-0.1
			c-0.3,0-0.6-0.1-0.9-0.1c-0.1,0-0.2,0-0.3,0c-0.1,0-0.1-0.1-0.2-0.1C34.4,22.5,33.4,22.4,33.3,22.3z M52,25.1c0,0.6,0.1,1,0.1,1.5
			c0,0.1,0.1,0.2,0.2,0.1c0.1,0,0.2-0.1,0.4-0.1c0.5-0.2,1-0.3,1.4-0.5c0,0,0.1,0,0.1,0c0.1,0,0.2,0,0.2,0.1c0,0.1,0.1,0.2,0,0.3
			c-0.1,0.1-0.2,0.1-0.4,0.2c-0.1,0-0.2,0-0.3,0.1c-0.2,0.1-0.4,0.1-0.5,0.2C53,27,52.9,27,52.7,27c-0.2,0-0.3,0.1-0.5,0.1
			c0,0-0.1,0.1-0.1,0.2c0,0.1,0,0.3,0,0.4c0,0.5,0.1,1.1,0.1,1.6c0,0,0,0.1,0,0.1c0,0.1,0,0.1-0.1,0.2c-0.1,0.1-0.3,0.1-0.3,0
			c0,0,0-0.1,0-0.2c0,0,0-0.1,0-0.1c-0.1-0.4-0.1-0.8-0.2-1.2c0-0.1-0.1-0.2,0-0.4c0-0.1,0-0.2-0.1-0.3c0,0-0.1-0.1-0.1-0.1
			c-0.3,0.1-0.5,0.1-0.7,0.2c-0.2,0.1-0.4,0.1-0.5,0.2c-0.3,0.1-0.6,0.2-0.9,0.3c-0.1,0-0.1,0.1-0.1,0.2c0.1,0.3,0.1,0.6,0.1,1
			c0,0.3,0.1,0.6,0.1,0.9c0,0.1,0,0.1,0.1,0.2c0.2,0,0.4,0,0.6,0c0.2,0,0.5,0,0.7,0c0.5,0,1,0,1.5,0c0.4,0,0.7,0,1.1,0
			c0.2,0,0.3-0.1,0.3-0.3c0-0.2,0.1-0.5,0.1-0.7c0.1-0.3,0.2-0.6,0.2-1c0.1-0.4,0.1-0.8,0.2-1.2c0-0.4,0.1-0.7,0.1-1.1
			c0.1-0.5,0.2-1,0.2-1.5c0.1-0.4,0.1-0.7,0.1-1.1c0.1-0.5,0.1-1,0.2-1.4c0-0.2,0-0.3,0-0.5c0,0-0.1-0.1-0.1-0.1
			c-0.2,0-0.4,0.1-0.6,0.1c-0.3,0.1-0.5,0.2-0.9,0.2c0,0-0.1,0-0.1,0.1c0,0,0,0.1-0.1,0.1c-0.3,0.1-0.6,0.1-1,0.2
			c-0.1,0-0.3,0.1-0.4,0.2c0,0-0.1,0.1-0.1,0.2c0,0.2,0,0.5,0,0.7C52,24,52,24.6,52,25.1z M22.6,25.4c0,0.1,0.1,0.1,0.1,0.2
			c0.1,0.4,0.3,0.9,0.4,1.3c0,0.1,0.1,0.1,0.2,0.2c0.2,0.1,0.5,0.1,0.7,0.1c0.5,0.1,0.9,0.2,1.4,0.2c0.3,0,0.7,0.1,1,0.1
			c0,0,0.1,0,0.1,0c0-0.2,0-0.4-0.1-0.6c-0.1-0.2-0.1-0.5-0.2-0.7c0-0.2-0.1-0.3-0.1-0.5c-0.1-0.3-0.2-0.5-0.2-0.8c0,0,0,0,0,0
			c-0.1-0.1-0.1-0.3-0.2-0.4c-0.1-0.3-0.2-0.6-0.2-0.9c-0.1-0.3-0.1-0.6-0.2-0.9c0,0,0.1,0,0.1,0c0-0.1-0.1-0.1-0.1-0.1
			c0-0.2,0-0.3-0.1-0.5c0-0.2,0-0.3-0.1-0.5c0-0.1-0.1-0.2-0.2-0.2c-0.2,0-0.4,0-0.6-0.1c-0.2,0-0.4,0-0.5,0c-0.1,0-0.2,0-0.3,0
			c-0.2,0-0.5-0.1-0.7-0.1c-0.1,0-0.2,0-0.3-0.1c-0.1-0.1-0.1,0-0.1,0c-0.1,0-0.1-0.1-0.2-0.1c-0.2,0-0.4,0-0.6,0c0,0-0.1,0-0.1,0
			c-0.1,0-0.1,0.1-0.1,0.1c0.2,0.5,0.3,1,0.4,1.5c0.1,0.4,0.2,0.8,0.3,1.2c0.2,0.5,0.3,1,0.5,1.5C22.6,25.3,22.6,25.3,22.6,25.4
			c0.1-0.1,0.1,0,0.1,0C22.7,25.4,22.7,25.4,22.6,25.4z M18,22.9c0,0.1,0.1,0.2,0.1,0.2c0.1,0.3,0.1,0.6,0.3,0.9
			c0.1,0.2,0.1,0.4,0.2,0.7c0,0.1,0.1,0.1,0.1,0.2c0,0.1,0,0.2,0,0.3c0.1,0.2,0.2,0.5,0.3,0.7c0.1,0.2,0.1,0.4,0.2,0.6
			c0,0,0.1,0.1,0.1,0.1c0.1,0,0.3,0,0.4,0c0.1,0,0.2,0,0.3,0c0.2,0,0.4,0.1,0.5,0.1c0.4,0.1,0.7,0.1,1.1,0.2c0.2,0,0.4,0.1,0.6,0.1
			c0.1,0,0.3,0.1,0.5,0.1c-0.1-0.3-0.1-0.6-0.2-0.8c-0.1-0.3-0.2-0.6-0.3-0.9c0,0,0-0.1,0-0.1C22,25,22,24.9,21.9,24.7
			c0,0,0-0.1,0-0.1c0-0.1,0-0.2-0.1-0.3c0-0.1-0.1-0.2-0.1-0.4c0-0.1,0-0.3-0.1-0.4c0-0.1,0-0.2-0.1-0.3c0-0.1-0.1-0.2-0.1-0.3
			c0-0.1-0.1-0.2-0.1-0.3c0-0.1,0-0.2-0.1-0.3c-0.1-0.1-0.1-0.3-0.2-0.4c-0.1-0.2,0-0.5-0.2-0.7c-0.1-0.1-0.1-0.2-0.2-0.3
			c0,0-0.1,0-0.1-0.1c-0.3-0.1-0.6-0.1-1-0.2c-0.3,0-0.6-0.1-0.9-0.1c0,0,0,0-0.1,0c-0.3,0-0.6,0-0.9,0c-0.2,0-0.4,0-0.6,0
			c0,0.1,0,0.1,0.1,0.2c0.2,0.6,0.4,1.1,0.5,1.7c0,0.1,0,0.2,0.1,0.3C18,22.8,18,22.8,18,22.9z M23.3,29C23.3,29,23.4,29,23.3,29
			c0-0.1-0.1-0.2-0.1-0.4c0-0.1-0.1-0.2-0.1-0.3C23,28.1,23,28,22.9,27.8c0,0,0-0.1,0-0.1c0-0.2-0.1-0.3-0.2-0.3
			c-0.2-0.1-0.5-0.2-0.7-0.2c-0.1,0-0.2-0.1-0.4-0.1C21.3,27.1,21,27,20.7,27c-0.2,0-0.3-0.1-0.5-0.1c-0.2,0-0.5,0-0.7,0
			c-0.1,0-0.1,0-0.1,0.1c0.1,0.2,0.1,0.4,0.2,0.6c0.1,0.2,0.2,0.5,0.3,0.7c0.2,0.4,0.4,0.9,0.6,1.3c0.1,0.2,0.2,0.3,0.2,0.5
			c0.1,0.2,0.2,0.4,0.3,0.6c0.1,0.3,0.4,0.6,0.2,0.9c0,0.1,0.1,0.1,0.1,0.2c0,0.2,0,0.4,0,0.6c0,0.1,0,0.1,0.1,0.1
			c0.1,0,0.3,0,0.4,0c0.2,0,0.4-0.1,0.6-0.2c0.1,0,0.3-0.1,0.4-0.2c0.2-0.1,0.4-0.2,0.7-0.3c0.2-0.1,0.3-0.1,0.5-0.2
			c0.3-0.1,0.3-0.1,0.2-0.4c0,0,0,0,0,0c0,0,0.1,0,0.1,0c0,0,0,0,0,0c-0.2-0.1-0.3-0.3-0.3-0.5c0-0.1-0.1-0.2-0.1-0.3
			c0-0.1-0.1-0.1-0.1-0.2c0,0,0-0.1,0-0.1c-0.1-0.3-0.2-0.5-0.3-0.8C23.4,29.2,23.4,29.1,23.3,29C23.4,29,23.4,29,23.3,29z
			 M31.1,26.5c0,0-0.1-0.1-0.1-0.1c0-0.1-0.1-0.3-0.1-0.4c0-0.2,0-0.4,0-0.6c0-0.1,0-0.1,0-0.2c0-0.1,0-0.2,0-0.3
			c0-0.1,0-0.2-0.1-0.3c0-0.1,0-0.2,0-0.4c0-0.3-0.1-0.7-0.1-1c0-0.1,0-0.2,0-0.3c0-0.2-0.1-0.4-0.1-0.6c0-0.1-0.1-0.2-0.2-0.2
			c-0.3,0-0.5,0-0.8-0.1c-0.4,0-0.7-0.1-1.1-0.1c-0.1,0-0.3,0-0.4,0c0,0.2,0,0.3,0,0.5c0,0.1,0,0.2,0,0.2c-0.1,0.1,0,0.1,0,0.2
			c0,0,0,0.1,0,0.1c0.1,0.5,0.1,1,0.2,1.5c0,0.3,0.1,0.7,0.1,1c0.1,0.6,0.1,1.1,0.2,1.7c0,0.2,0,0.4,0.1,0.6c0,0.2,0.1,0.2,0.2,0.2
			c0.6,0.1,1.2,0.2,1.8,0.2c0.2,0,0.3,0,0.5,0c0-0.3,0-0.6-0.1-0.8c0-0.1-0.1-0.3-0.1-0.4C31.1,26.7,31,26.6,31.1,26.5z M51.6,22.9
			C51.6,22.9,51.6,22.9,51.6,22.9c0,0,0-0.1,0-0.1c0-0.2-0.1-0.3-0.3-0.2c-0.2,0.1-0.4,0.1-0.6,0.2c0,0,0,0,0,0
			c-0.3,0.1-0.5,0.1-0.8,0.2c-0.1,0-0.2,0-0.3,0.1c-0.2,0.1-0.4,0.1-0.6,0.2c-0.2,0.1-0.4,0.2-0.3,0.4c0,0.4,0.1,0.9,0.1,1.3
			c0,0.4,0.1,0.7,0.1,1.1c0.1,0.5,0.1,1,0.2,1.6c0,0.2,0.1,0.2,0.2,0.1c0.4-0.1,0.7-0.2,1.1-0.3c0.3-0.1,0.7-0.2,1-0.3
			c0,0,0.1-0.1,0.1-0.1c0-0.2,0-0.5,0-0.7c0-0.3-0.1-0.5,0-0.8c0.1-0.2,0-0.4,0-0.6c0-0.3,0-0.6,0-0.9
			C51.5,23.5,51.6,23.2,51.6,22.9z M53,30.8C53,30.8,53,30.8,53,30.8C52.9,30.8,52.9,30.8,53,30.8c-0.3-0.1-0.5-0.1-0.8-0.1
			c-0.1,0-0.2,0-0.2,0c-0.3,0-0.5,0-0.8,0.1c-0.3,0-0.7,0-1,0c-0.1,0-0.2,0-0.3,0c-0.2,0-0.2,0-0.2,0.2c0,0.1,0,0.2,0,0.3
			c0,0-0.1,0.1-0.2,0.1c0-0.1-0.2,0-0.2-0.2c0-0.1-0.1-0.3-0.1-0.4c0,0-0.1-0.1-0.2-0.1c-0.2,0-0.4,0-0.6,0c-0.5,0-1.1,0-1.6,0
			c-0.1,0-0.1,0-0.1,0c-0.1,0-0.1,0-0.2,0c-0.2,0-0.3,0-0.5,0c-0.1,0-0.2,0.1-0.2,0.2c0,0.5,0,0.9,0.1,1.4c0,0.5,0,1,0.2,1.4
			c0.1,0.2,0.1,0.2,0.2,0.1c0,0,0.1,0,0.1,0c0.6-0.3,1.1-0.6,1.7-0.8c0.8-0.3,1.5-0.6,2.3-1c0.6-0.3,1.2-0.6,1.8-0.8
			C52.6,31.1,52.8,31,53,30.8z M26.7,12.9c-0.2-0.2-0.5,0-0.7,0c-0.1,0-0.2,0-0.2,0c-0.1,0-0.2,0.1-0.3,0.1c-0.3,0-0.7,0.1-1,0.1
			c-0.2,0-0.3,0-0.5,0.1c-0.2,0-0.4,0.1-0.6,0.1c-0.2,0-0.4,0.1-0.6,0.1c-0.3,0-0.5,0.1-0.8,0.1c-0.3,0-0.5,0-0.8,0.1
			c-0.3,0-0.5,0.1-0.8,0.1c-0.1,0-0.1,0-0.2,0c-0.2,0-0.3,0-0.5,0c-0.1,0-0.2,0.1-0.3,0.1c-0.1,0-0.2,0-0.4,0.1
			c-0.2,0-0.5,0.1-0.7,0.2c-0.1,0-0.3,0.1-0.4,0.1c0,0,0,0,0,0.1c0.1,0,0.2,0.1,0.3,0.1c0.4,0.1,0.8,0.1,1.1,0.1
			c0.3,0,0.6,0.1,1,0.1c0.6,0.1,1.2,0.1,1.8,0.2c0.6,0.1,1.2,0.1,1.7,0.2c0.3,0,0.6,0.1,0.9,0.2c0.3,0,0.6,0.1,0.9,0.1
			c0.1,0,0.2,0,0.3,0c0.2,0,0.5,0,0.8,0.1C26.8,14.4,26.7,13.7,26.7,12.9z M28.2,26.8c0-0.1-0.1-0.1-0.1-0.2c0-0.2-0.1-0.4-0.1-0.7
			c0-0.2-0.1-0.5-0.1-0.7c0-0.2-0.1-0.5-0.1-0.7c0-0.2,0-0.5-0.1-0.7c-0.1-0.3-0.1-0.5,0-0.8c0-0.1,0-0.2,0.1-0.3c0,0,0,0,0,0
			c0-0.1-0.1-0.1-0.1-0.2c0-0.1,0-0.2,0-0.3c0-0.1,0-0.2,0-0.3c0-0.3,0-0.3-0.3-0.4c-0.5-0.1-1.1-0.2-1.6-0.2c-0.2,0-0.2,0-0.2,0.2
			c0,0.4,0.1,0.7,0.2,1.1c0.1,0.6,0.3,1.2,0.4,1.8c0,0.2,0.1,0.4,0.2,0.6c0.1,0.5,0.3,0.9,0.4,1.4c0.1,0.4,0.2,0.7,0.3,1.1
			c0,0.1,0.1,0.2,0.1,0.2c0.3,0,0.7,0.1,1,0.1c0,0,0.1,0,0.1-0.1c0-0.1,0-0.2,0-0.4C28.2,27.2,28.2,27,28.2,26.8z M23.3,27.5
			C23.3,27.6,23.3,27.6,23.3,27.5c0,0.2,0,0.3,0.1,0.4c0.2,0.5,0.3,1,0.5,1.5c0.2,0.4,0.3,0.9,0.5,1.3c0.1,0.2,0.1,0.4,0.3,0.6
			c0.1,0.1,0.2,0.1,0.3,0.1c0.4-0.1,0.8-0.3,1.2-0.4c0.1,0,0.2,0,0.3-0.1c0.1-0.1,0.3-0.1,0.4-0.2c0.2-0.1,0.4-0.2,0.6-0.3
			c0-0.2-0.1-0.3-0.1-0.5c0-0.2-0.1-0.3-0.1-0.5c-0.1-0.2-0.1-0.4-0.2-0.6c0-0.2-0.1-0.3-0.1-0.5c0-0.2-0.1-0.4-0.4-0.4
			c-0.2,0-0.4,0-0.5-0.1c-0.1,0-0.3-0.1-0.4,0c0,0-0.1,0-0.1,0c-0.2,0-0.5-0.1-0.7-0.1c-0.2,0-0.4,0-0.6-0.1
			C23.8,27.6,23.6,27.6,23.3,27.5z M37.3,30c0.3,0,0.3,0,0.2-0.3c0,0,0,0,0-0.1c0-0.3-0.1-0.5-0.1-0.8c0-0.1-0.1-0.1-0.2-0.1
			c-0.4,0-0.7,0-1.1,0c-0.1,0-0.1,0-0.2,0c-0.3,0-0.7,0-1,0c-0.3,0-0.6-0.1-1,0c0,0-0.1,0-0.1,0c-0.2-0.1-0.3-0.1-0.5,0
			c0,0-0.1,0-0.1,0c0,0-0.1,0-0.1,0c-0.2,0-0.4,0-0.6,0c-0.2,0-0.4,0-0.6,0c-0.1,0-0.1,0-0.1,0.1c0.1,0.3,0.1,0.7,0.2,1
			c0,0,0.1,0.1,0.1,0.1c0.2,0,0.3,0,0.5,0c0.4,0,0.7,0.1,1,0.1c0.5,0,1,0,1.4,0c0.4,0,0.8,0,1.2,0C36.6,30,36.9,30,37.3,30z
			 M24,43.2c-0.2,0.1-0.4,0.2-0.4,0.4c0,0,0,0.1-0.1,0.1c-0.1,0.1,0,0.1,0.1,0.1c0.4,0.1,0.7,0.2,1.1,0.3c0.1,0,0.2,0.1,0.3,0
			c0.1-0.1,0.3-0.2,0.4-0.3c0.2-0.1,0.4-0.2,0.6-0.4c0.2-0.1,0.3-0.2,0.5-0.3c0,0,0.1-0.1,0.2-0.1c0.2-0.1,0.4-0.3,0.6-0.4
			c0.2-0.1,0.3-0.2,0.5-0.3c0.3-0.2,0.7-0.4,1-0.6c0.1-0.1,0.3-0.1,0.4-0.2c0,0,0,0,0,0c-0.6-0.2-1.2-0.4-1.7-0.5c0,0-0.1,0-0.1,0
			c0,0.1-0.1,0.2-0.3,0.2c-0.1,0.1-0.2,0.2-0.3,0.3c0,0.1,0,0.2-0.1,0.2c0,0.1,0,0.2,0,0.3c0,0,0,0.1,0,0.2c0,0-0.1,0.1-0.1,0
			c0,0-0.1-0.1-0.1-0.1c0-0.2,0-0.3,0-0.5c0,0,0,0,0,0c0,0.2-0.1,0.3-0.1,0.5c0,0-0.1,0.1-0.1,0.1c0,0-0.1-0.1-0.1-0.1
			c0-0.1,0-0.2,0-0.4c-0.3,0.1-0.6,0.3-0.6,0.7c0,0.1,0,0.1,0,0.2c0,0.1,0,0.1,0,0.2c0,0-0.1,0-0.1,0c0,0-0.1-0.1-0.1-0.1
			c0-0.1,0-0.3,0-0.5c0,0.1,0,0.2-0.1,0.3c0,0.1,0,0.3-0.1,0.4c0,0,0,0.1-0.1,0.1c0,0-0.1-0.1-0.1-0.1c0-0.1,0-0.2,0-0.2
			c0-0.1,0-0.2,0-0.3c-0.2,0.1-0.3,0.2-0.3,0.4c0,0.1,0,0.3-0.1,0.4c0,0.1-0.1,0.1-0.1,0.2c0-0.1,0-0.1-0.1-0.2c0,0,0-0.1,0-0.1
			c0-0.1,0-0.2,0-0.4c-0.2,0-0.2,0.2-0.2,0.3c0,0.2-0.1,0.4-0.1,0.6c0,0-0.1,0.1-0.1,0.1c0,0-0.1-0.1-0.1-0.1c0-0.1,0-0.2,0.1-0.4
			c0-0.1,0-0.2,0.1-0.3c0,0,0,0-0.1,0c-0.1,0.1-0.2,0.2-0.2,0.3c-0.1,0.2-0.1,0.3-0.1,0.5c0,0.1,0,0.2-0.1,0.2c0,0,0-0.1,0-0.2
			C23.9,43.5,24,43.4,24,43.2z M29.1,28.2C29.1,28.2,29.1,28.2,29.1,28.2c-0.1,0-0.1,0-0.2,0c-0.1,0-0.1,0-0.1,0.1
			c0.1,0.4,0.2,0.8,0.3,1.2c0,0.1,0.1,0.1,0.2,0.1c0.4,0,0.9,0,1.3,0c0.2,0,0.5,0,0.7,0c0.1,0,0.1,0,0.1-0.1c0-0.2,0-0.4-0.1-0.5
			c0-0.1-0.1-0.3-0.1-0.4c0-0.1-0.1-0.1-0.2-0.2c-0.2,0-0.4,0-0.5-0.1c0,0-0.1,0-0.1,0c0,0-0.1,0-0.1,0c-0.2,0-0.4-0.1-0.6-0.1
			c-0.1,0-0.2,0-0.3,0C29.3,28.3,29.2,28.2,29.1,28.2z M27.4,28.1C27.4,28.1,27.4,28.1,27.4,28.1C27.4,28.1,27.4,28.1,27.4,28.1
			c-0.3,0-0.3,0-0.2,0.2c0.1,0.2,0.1,0.5,0.2,0.7c0.1,0.4,0.2,0.7,0.3,1.1c0,0.1,0.1,0.2,0.2,0.1c0.2-0.1,0.5-0.2,0.7-0.3
			c0,0,0.1-0.1,0.1-0.1c0-0.1,0-0.2,0-0.3c-0.1-0.3-0.1-0.7-0.2-1c0-0.2-0.1-0.4-0.4-0.5c-0.1,0-0.2,0-0.2,0
			C27.7,28.1,27.6,28.1,27.4,28.1z M49.8,50.5c-0.2,0-1.5,0.5-1.6,0.6c0,0,0.1,0,0.1,0c0.3-0.1,0.7-0.2,1-0.3
			C49.6,50.8,49.7,50.7,49.8,50.5z M13.1,13.9c-0.1,0.3,0.3,0.6,0.5,0.6C13.5,14.2,13.3,14.1,13.1,13.9z M9.6,9.4
			C9.6,9.4,9.6,9.4,9.6,9.4c0.2,0.2,0.4,0.3,0.7,0.4c0,0,0.1,0,0.1,0c0,0,0-0.1,0-0.1c0,0-0.1-0.1-0.1-0.1C10,9.5,9.8,9.5,9.6,9.4z
			 M50.7,49.8C50.7,49.8,50.6,49.8,50.7,49.8c-0.3,0.1-0.5,0.2-0.7,0.3c0,0,0,0,0,0.1c0.1,0,0.2,0.1,0.3,0
			C50.4,50.1,50.5,49.9,50.7,49.8z M9.8,8.5C9.8,8.5,9.8,8.5,9.8,8.5c0.1,0.1,0.2,0.1,0.4,0.2c0,0,0,0,0-0.1c0,0,0-0.1-0.1-0.1
			C10,8.4,9.9,8.4,9.8,8.5z M9.2,8.7c-0.1,0-0.1,0.1,0,0.2C9.3,9,9.3,8.8,9.4,8.8C9.3,8.8,9.3,8.8,9.2,8.7z M39.6,55.9
			C39.6,56,39.6,56,39.6,55.9c0.1,0.1,0.2,0.2,0.3,0.3c0,0,0,0,0,0C39.8,56.1,39.7,56,39.6,55.9z M10.1,8.9
			C10.2,8.9,10.2,8.9,10.1,8.9c0-0.1,0-0.1,0-0.1c0,0-0.1,0-0.2,0c0,0,0,0,0,0C10,8.9,10.1,8.9,10.1,8.9z M19.1,31.4
			c0.1,0,0.1-0.1,0.2-0.1c-0.1,0-0.2,0-0.3-0.1C19.1,31.3,19.1,31.4,19.1,31.4z M15.4,7.8c0.2,0.1,0.2,0.1,0.3,0
			C15.6,7.8,15.5,7.8,15.4,7.8z M52.7,47.6C52.7,47.6,52.7,47.6,52.7,47.6c0,0.1,0,0.1,0.1,0.1c0.1,0.1,0.1,0,0.1,0
			C52.9,47.6,52.8,47.6,52.7,47.6z M49.1,51.2C49.1,51.2,49.1,51.2,49.1,51.2c-0.1,0-0.2,0-0.3,0c0,0,0,0,0,0.1
			C48.9,51.3,49,51.3,49.1,51.2z"/>
		<path fill="#1691B2" d="M20.4,48.4c0,0-0.1,0.1-0.1,0.1c-0.2,0.1-0.4,0.3-0.6,0.2c-0.2,0-0.5,0-0.7-0.1c-0.1,0-0.2,0-0.3,0
			c-0.1,0-0.3-0.1-0.4,0.1c-0.1,0.1-0.2,0.1-0.3,0.1c-0.2-0.1-0.5-0.1-0.7-0.3c0,0-0.1-0.1-0.1-0.2c0,0,0-0.1,0-0.1
			c-0.2-0.2-0.1-0.5,0.1-0.7c0.1-0.1,0.3-0.1,0.4-0.2c0,0,0.1-0.1,0.1-0.2c0-0.2,0.3-0.5,0.4-0.5c0.2,0,0.5-0.1,0.7-0.1
			c0.1,0,0.1,0,0.2,0c0.2,0,0.3-0.1,0.3-0.3c0-0.1,0-0.3,0-0.4c0,0,0-0.1-0.1-0.1c-0.2-0.1-0.4-0.1-0.6-0.1c-0.4,0-0.9,0.1-1.2,0.4
			c-0.1,0.1-0.1,0.1,0,0.2c0,0,0,0.1,0.1,0.1c-0.2,0.1-0.3,0.3-0.6,0.2c0,0,0,0,0,0c0.1,0.1,0.2,0.3,0.3,0.4c-0.1,0.1-0.2,0.1-0.3,0
			c-0.1-0.1-0.2-0.2-0.3-0.3c-0.2,0.1-0.2,0.2,0,0.4c0.1,0.1,0.2,0.2,0.2,0.3c0,0.1,0,0.3,0.2,0.4c0,0,0,0,0,0.1c0,0-0.1,0-0.1,0
			c-0.1-0.1-0.1-0.2-0.2-0.3c-0.1-0.1-0.2-0.2-0.3-0.3c0,0,0,0-0.1,0c0,0,0,0.1,0,0.1c0.1,0.2,0.1,0.4,0.3,0.6
			c0.1,0.1,0.1,0.2,0.1,0.3c0,0,0,0,0,0c-0.2-0.2-0.3-0.4-0.5-0.6c0,0.1,0.3,0.8,0.5,0.9c-0.1,0.3,0.2,0.4,0.3,0.6
			c-0.2-0.1-0.3-0.3-0.4-0.5c0,0,0,0,0,0c0,0,0,0.1,0,0.1c0,0,0,0,0,0c0,0,0-0.1-0.1-0.1c0,0-0.1,0-0.1,0c0,0,0,0.1,0,0.1
			c0.1,0.1,0.2,0.3,0.3,0.4c0,0,0,0,0,0.1c-0.1-0.1-0.2-0.3-0.3-0.4c0,0,0,0,0,0c0.1,0.1,0.2,0.3,0.3,0.4c0.2,0.2,0.4,0.5,0.6,0.7
			c0.3,0.2,0.6,0.5,1,0.5c0.2,0,0.4,0,0.5-0.1c0.1-0.1,0.3-0.1,0.5-0.2c0.4-0.2,0.7-0.4,0.8-0.8c0-0.2,0.1-0.3,0.2-0.5
			c0-0.1,0.2-0.2,0.3-0.1c0.1,0,0.1,0.1,0.1,0.2c0,0.7-0.4,1.2-0.8,1.6c-0.4,0.4-0.9,0.4-1.5,0.4c-0.2,0-0.4-0.1-0.6-0.1
			c-0.1,0-0.2,0-0.4-0.1c-0.3-0.1-0.5-0.3-0.8-0.4c-0.3-0.2-0.5-0.5-0.7-0.8c-0.1-0.2-0.2-0.5-0.2-0.7c-0.1-0.3-0.2-0.6-0.2-1
			c0-0.4,0.1-0.7,0.3-1c0.2-0.3,0.4-0.6,0.7-0.9c0.2-0.2,0.4-0.3,0.7-0.4c0.2-0.1,0.4-0.1,0.6-0.2c0.2,0,0.4-0.1,0.5-0.1
			c0.4,0,0.8,0,1.1,0c0.1,0,0.2,0,0.3-0.2c0,0,0.1,0,0.1-0.1c0,0.1,0.1,0.1,0.1,0.2c0,0.2-0.1,0.5-0.1,0.7c0,0.2,0,0.4-0.1,0.5
			c-0.1,0.2-0.2,0.3-0.4,0.3c-0.3,0-0.5,0.1-0.7,0.1c-0.1,0-0.2,0.2-0.2,0.3c0,0.1,0,0.2,0,0.3c-0.1,0.2,0,0.3,0.2,0.4
			c0.1,0.1,0.2,0.1,0.3,0.1c0.3,0.1,0.5,0.1,0.8,0.1c0.1,0,0.1,0.1,0.2,0c0.4-0.1,0.6-0.3,0.8-0.6c0.1-0.2,0.2-0.4,0.2-0.7
			c0.1-0.2,0.1-0.3,0.2-0.5c0-0.1,0.1-0.1,0.2-0.1c0.1,0,0.2,0.1,0.1,0.2c-0.1,0.2-0.1,0.4-0.2,0.6c-0.1,0.2-0.2,0.5-0.3,0.7
			c0,0.1-0.1,0.2-0.2,0.3C20.5,48.3,20.4,48.3,20.4,48.4C20.4,48.4,20.4,48.4,20.4,48.4z M16.9,47.2C16.9,47.1,16.9,47.1,16.9,47.2
			c0-0.2-0.1-0.3-0.3-0.4c0,0,0,0,0,0C16.7,46.9,16.8,47,16.9,47.2z"/>
		<path fill="#1691B2" d="M48.5,53.4c-0.2,0-0.4-0.1-0.7-0.2c-0.1,0-0.2-0.1-0.1-0.2c0-0.1,0.2-0.1,0.2-0.1c0.1,0,0.1,0.1,0.2,0.1
			c0.6,0.1,1.2-0.1,1.6-0.5c0.2-0.2,0.4-0.4,0.4-0.7c0-0.1,0-0.1,0.1-0.2c0.1-0.1,0.2-0.2,0.3-0.1c0.1,0.1,0.1,0.2,0.1,0.3
			c-0.2,0.5-0.4,0.9-0.8,1.1c-0.3,0.2-0.6,0.4-0.9,0.4C48.8,53.3,48.7,53.4,48.5,53.4z"/>
		<path fill="#1691B2" d="M40.4,55.2c-0.1,0-0.1,0-0.2,0c-0.3-0.2-0.5-0.3-0.8-0.5c-0.1-0.1-0.1-0.2-0.1-0.3c0,0,0.1-0.1,0.1-0.1
			c0,0,0.1,0,0.1,0c0.1,0.1,0.2,0.2,0.3,0.3c0.1,0.1,0.1,0.1,0.2,0.2c0.1,0.1,0.2,0.2,0.3,0.2C40.4,55.1,40.4,55.1,40.4,55.2
			C40.4,55.2,40.4,55.2,40.4,55.2z"/>
		<path fill="#1691B2" d="M39.5,53.9c0.2,0.1,0.3,0.3,0.5,0.4c0,0,0,0.1,0,0.2C39.9,54.3,39.6,54.2,39.5,53.9z"/>
		<path fill="#1691B2" d="M39.8,53.4c0.1,0,0.2-0.1,0.3-0.1C39.9,53.5,39.9,53.5,39.8,53.4z"/>
		<path fill="#1691B2" d="M19.5,32c0.1,0,0.3,0.1,0.4,0.1c0,0,0,0,0,0.1C19.8,32.2,19.7,32.1,19.5,32C19.5,32,19.5,32,19.5,32z"/>
		<path fill="#1691B2" d="M22.2,8.2c0,0,0.1-0.1,0.1-0.1c0.1,0,0.3,0.2,0.3,0.2c0,0.1-0.1,0.1-0.2,0.1C22.3,8.5,22.2,8.3,22.2,8.2z"
			/>
		<path fill="#1691B2" d="M42.9,43.8c0.1,0,0.2,0.1,0.2,0.2c0,0-0.1,0.1-0.1,0.1c-0.1-0.1-0.1-0.1-0.2-0.2
			C42.8,43.9,42.9,43.8,42.9,43.8z"/>
		<path fill="#1691B2" d="M15.9,41.7c0,0.1,0.1,0.2,0.1,0.3c0,0-0.1,0.1-0.1,0.1c-0.1,0-0.2,0-0.1-0.1
			C15.8,41.9,15.8,41.8,15.9,41.7C15.9,41.7,15.9,41.7,15.9,41.7z"/>
		<path fill="#1691B2" d="M26.2,11.3c-0.1,0.1-0.1,0.1-0.2,0.1c0,0-0.1-0.1-0.1-0.1c0-0.1,0.1-0.1,0.1-0.2
			C26.1,11.2,26.1,11.3,26.2,11.3z"/>
		<path fill="#1691B2" d="M23,8.1c0,0.1,0.1,0.2-0.1,0.2c0,0-0.1,0-0.1,0C22.8,8.2,22.9,8.2,23,8.1z"/>
		<path fill="#1691B2" d="M29,42.8c0,0.4-0.1,0.7-0.4,1c-0.2,0.3-0.4,0.5-0.7,0.6c-0.1,0-0.2,0-0.3,0c-0.1,0-0.1-0.1,0-0.2
			c0.1-0.1,0.2-0.2,0.3-0.2c0.2-0.1,0.4-0.3,0.5-0.5c0.1-0.2,0.2-0.5,0.3-0.8c0-0.1,0.1-0.2,0.2-0.2C29.1,42.6,29,42.8,29,42.8z"/>
		<path fill="#1691B2" d="M27,41.8c0.1-0.1,0.1-0.2,0.2-0.3c0,0,0,0,0.1,0c0,0,0,0,0,0.1c0,0.1,0,0.2,0,0.2c0,0,0,0.1,0,0.1
			c0,0-0.1,0-0.1,0C27.1,41.9,27,41.9,27,41.8z"/>
	</g>
</g>
</svg>
