<?xml version="1.0" encoding="utf-8"?>
<!-- Generator: Adobe Illustrator 17.1.0, SVG Export Plug-In . SVG Version: 6.00 Build 0)  -->
<!DOCTYPE svg PUBLIC "-//W3C//DTD SVG 1.1//EN" "http://www.w3.org/Graphics/SVG/1.1/DTD/svg11.dtd">
<svg version="1.1" id="Layer_1" xmlns="http://www.w3.org/2000/svg" xmlns:xlink="http://www.w3.org/1999/xlink" x="0px" y="0px"
	 viewBox="0 0 45 155" enable-background="new 0 0 45 155" xml:space="preserve">
<path fill="#DD3C3C" stroke="#000000" stroke-miterlimit="10" d="M37.1,149c-2.3-0.6-4.7-1.1-7-1.7c-1.4-0.4-2.7-1.1-4.1-1.5
	c-2.6-0.8-4.8-2.2-6.2-4.4c-3.1-4.7-6.4-9.4-7.9-14.9c-2.6-9.7-3.8-19.5-1.5-29.5c0.2-1.1,0.3-2.2,0.4-3.3c0.2-8.8,0-17.7,0.7-26.5
	c0.9-10.7-0.5-21.4,0.1-32.1c0.5-9.3-0.6-18.4-3.8-27.5c1.5-0.6,2.8-1.1,4-1.5c2,1,2.1,2.7,2,4.3c-0.3,4.2,2,7.5,4,10.7
	c0.9,1.4,1.4,2.6,0.7,4c-2.3,4.3-2.6,8.8-1.4,13.5c0.3,1.3,0.1,3-0.4,4.3c-1.8,4.6-1.6,9.3-0.9,14.1c0.9,5.8,1.9,11.8,0.3,17.6
	c-1.3,4.7-1,9.5-1.3,14.2c-0.3,3.5,0.5,6.9,2.1,10c1.4,2.8,1.7,5.6,1.6,8.6c-0.1,3.1-0.1,6.2-0.3,9.2c-0.4,5.6,2.2,10.3,5,14.7
	c0.9,1.4,2.9,2.3,4.6,2.8c3.3,0.9,5.1,2.6,5.1,6.2c0,3.5,2.7,5.6,4.7,8.1C37.2,148.4,37.2,148.7,37.1,149z"/>
</svg>
