<?xml version="1.0" encoding="utf-8"?>
<!-- Generator: Adobe Illustrator 17.1.0, SVG Export Plug-In . SVG Version: 6.00 Build 0)  -->
<!DOCTYPE svg PUBLIC "-//W3C//DTD SVG 1.1//EN" "http://www.w3.org/Graphics/SVG/1.1/DTD/svg11.dtd">
<svg version="1.1" id="Layer_1" xmlns="http://www.w3.org/2000/svg" xmlns:xlink="http://www.w3.org/1999/xlink" x="0px" y="0px"
	 viewBox="0 0 500 500" enable-background="new 0 0 500 500" xml:space="preserve">
<g>
	
		<path fill="none" stroke="#1691B2" stroke-width="6.1143" stroke-linecap="round" stroke-linejoin="round" stroke-miterlimit="10" d="
		M93.7,191.3c0,0-19.9-15.3-23.7,11.1s36.7,51.6,37.9,17.2"/>
	
		<line fill="none" stroke="#1691B2" stroke-width="6.1143" stroke-linecap="round" stroke-linejoin="round" stroke-miterlimit="10" x1="111.7" y1="176" x2="124.3" y2="225.4"/>
	
		<line fill="none" stroke="#1691B2" stroke-width="6.1143" stroke-linecap="round" stroke-linejoin="round" stroke-miterlimit="10" x1="117.8" y1="197.8" x2="140.8" y2="191.3"/>
	
		<line fill="none" stroke="#1691B2" stroke-width="6.1143" stroke-linecap="round" stroke-linejoin="round" stroke-miterlimit="10" x1="137.7" y1="168.7" x2="148" y2="218.5"/>
	
		<ellipse fill="none" stroke="#1691B2" stroke-width="6.1143" stroke-linecap="round" stroke-linejoin="round" stroke-miterlimit="10" cx="169.6" cy="186.1" rx="12.4" ry="23.9"/>
	
		<ellipse transform="matrix(-0.9647 -0.2633 0.2633 -0.9647 362.2921 427.7215)" fill="none" stroke="#1691B2" stroke-width="6.1143" stroke-linecap="round" stroke-linejoin="round" stroke-miterlimit="10" cx="209.8" cy="189.6" rx="12.4" ry="23.9"/>
	
		<ellipse transform="matrix(-0.9999 -1.122585e-02 1.122585e-02 -0.9999 395.1267 519.6163)" fill="none" stroke="#1691B2" stroke-width="6.1143" stroke-linecap="round" stroke-linejoin="round" stroke-miterlimit="10" cx="199" cy="258.7" rx="12.9" ry="26.5"/>
	
		<path fill="none" stroke="#1691B2" stroke-width="6.1143" stroke-linecap="round" stroke-linejoin="round" stroke-miterlimit="10" d="
		M232.2,207.4c0,0-2.9,11.8,5.3,12.8c3.5,0.4,6.9-1.4,8.7-4.4c1.6-2.7,2.9-7,1.3-13.2c-2.9-11.7-6.2-21.5,3.5-26.4
		c1.4-0.7,3-0.7,4.3-0.1c1.9,0.9,3.8,3.4,1.9,9.9"/>
	
		<line fill="none" stroke="#1691B2" stroke-width="6.1143" stroke-linecap="round" stroke-linejoin="round" stroke-miterlimit="10" x1="282.2" y1="181.8" x2="259.5" y2="229.2"/>
	
		<polyline fill="none" stroke="#1691B2" stroke-width="6.1143" stroke-linecap="round" stroke-linejoin="round" stroke-miterlimit="10" points="
		286.8,236.6 306.6,192.5 316.3,245.8 337.6,204.2 	"/>
	
		<path fill="none" stroke="#1691B2" stroke-width="6.1143" stroke-linecap="round" stroke-linejoin="round" stroke-miterlimit="10" d="
		M372.3,228.3c0,0,9.8-13.8-4.9-16.1c-14.6-2.3-21.5,28.1-21.5,28.1s-6,19.2,14.3,16.1c0,0,10.6-3.2,11.8-16.4l-9.2-3.2"/>
	<g>
		
			<polyline fill="none" stroke="#1691B2" stroke-width="6.1143" stroke-linecap="round" stroke-linejoin="round" stroke-miterlimit="10" points="
			392.2,268.9 430.3,225.9 429.7,279.7 		"/>
		
			<line fill="none" stroke="#1691B2" stroke-width="6.1143" stroke-linecap="round" stroke-linejoin="round" stroke-miterlimit="10" x1="429.6" y1="251.2" x2="413.9" y2="244.8"/>
	</g>
	
		<path fill="none" stroke="#1691B2" stroke-width="6.1143" stroke-linecap="round" stroke-linejoin="round" stroke-miterlimit="10" d="
		M119.5,313.1l-28.9-54.2c0,0,16-17.2,23.3-3.5s-12.1,22-12.1,22"/>
	
		<path fill="none" stroke="#1691B2" stroke-width="6.1143" stroke-linecap="round" stroke-linejoin="round" stroke-miterlimit="10" d="
		M152.3,299.5l-17.8-62.1c0,0,17.7-9.3,22.9,4.8c5.1,14.1-12.8,18.7-12.8,18.7s24.9,31.9,33.6,27"/>
	
		<polyline fill="none" stroke="#1691B2" stroke-width="6.1143" stroke-linecap="round" stroke-linejoin="round" stroke-miterlimit="10" points="
		225.3,238 232.2,287.3 260.1,246 	"/>
	
		<line fill="none" stroke="#1691B2" stroke-width="6.1143" stroke-linecap="round" stroke-linejoin="round" stroke-miterlimit="10" x1="280" y1="256.1" x2="258.2" y2="296.4"/>
	
		<path fill="none" stroke="#1691B2" stroke-width="6.1143" stroke-linecap="round" stroke-linejoin="round" stroke-miterlimit="10" d="
		M276.2,301l23.6-40.3c0,0,20.4,13.3,9.6,31.5C298.6,310.5,286.5,308.6,276.2,301z"/>
	
		<polyline fill="none" stroke="#1691B2" stroke-width="6.1143" stroke-linecap="round" stroke-linejoin="round" stroke-miterlimit="10" points="
		332.8,324.8 318.3,319.1 332,275.5 348.9,282.3 	"/>
	
		<line fill="none" stroke="#1691B2" stroke-width="6.1143" stroke-linecap="round" stroke-linejoin="round" stroke-miterlimit="10" x1="325.5" y1="297.3" x2="339.3" y2="301.9"/>
	
		<path fill="none" stroke="#1691B2" stroke-width="6.1143" stroke-linecap="round" stroke-linejoin="round" stroke-miterlimit="10" d="
		M351.1,334l12.2-45.5c0,0,18.9,2.4,17.2,12.7c-1.7,10.3-15.3,8.3-15.3,8.3s2,27.7,9.9,28.3"/>
</g>
</svg>
