<?xml version="1.0" encoding="utf-8"?>
<!-- Generator: Adobe Illustrator 17.1.0, SVG Export Plug-In . SVG Version: 6.00 Build 0)  -->
<!DOCTYPE svg PUBLIC "-//W3C//DTD SVG 1.1//EN" "http://www.w3.org/Graphics/SVG/1.1/DTD/svg11.dtd">
<svg version="1.1" id="Layer_1" xmlns="http://www.w3.org/2000/svg" xmlns:xlink="http://www.w3.org/1999/xlink" x="0px" y="0px"
	 viewBox="0 0 347 142" enable-background="new 0 0 347 142" xml:space="preserve">
<g>
	<g>
		<path fill="none" stroke="#918D8D" stroke-width="3" stroke-linecap="round" stroke-linejoin="round" stroke-miterlimit="10" d="
			M120.4,32.7c0,0-13-10-15.5,7.2s24,33.8,24.8,11.2"/>
		
			<line fill="none" stroke="#918D8D" stroke-width="3" stroke-linecap="round" stroke-linejoin="round" stroke-miterlimit="10" x1="132.1" y1="22.7" x2="140.4" y2="55"/>
		
			<line fill="none" stroke="#918D8D" stroke-width="3" stroke-linecap="round" stroke-linejoin="round" stroke-miterlimit="10" x1="136.1" y1="37" x2="151.1" y2="32.7"/>
		
			<line fill="none" stroke="#918D8D" stroke-width="3" stroke-linecap="round" stroke-linejoin="round" stroke-miterlimit="10" x1="149.1" y1="18" x2="155.9" y2="50.5"/>
		
			<ellipse fill="none" stroke="#918D8D" stroke-width="3" stroke-linecap="round" stroke-linejoin="round" stroke-miterlimit="10" cx="170" cy="29.3" rx="8.1" ry="15.6"/>
		
			<ellipse transform="matrix(-0.9647 -0.2633 0.2633 -0.9647 377.2224 113.7188)" fill="none" stroke="#918D8D" stroke-width="3" stroke-linecap="round" stroke-linejoin="round" stroke-miterlimit="10" cx="196.2" cy="31.6" rx="8.1" ry="15.6"/>
		
			<ellipse transform="matrix(-0.9999 -1.122585e-02 1.122585e-02 -0.9999 377.4924 155.6251)" fill="none" stroke="#918D8D" stroke-width="3" stroke-linecap="round" stroke-linejoin="round" stroke-miterlimit="10" cx="189.2" cy="76.8" rx="8.4" ry="17.3"/>
		<path fill="none" stroke="#918D8D" stroke-width="3" stroke-linecap="round" stroke-linejoin="round" stroke-miterlimit="10" d="
			M210.7,43.1c0,0-1.9,7.7,3.4,8.3c2.3,0.3,4.5-0.9,5.7-2.9c1.1-1.8,1.9-4.6,0.9-8.6c-1.9-7.7-4.1-14.1,2.3-17.3
			c0.9-0.4,1.9-0.5,2.8,0c1.3,0.6,2.5,2.3,1.3,6.5"/>
		
			<line fill="none" stroke="#918D8D" stroke-width="3" stroke-linecap="round" stroke-linejoin="round" stroke-miterlimit="10" x1="243.5" y1="26.5" x2="228.7" y2="57.5"/>
		
			<polyline fill="none" stroke="#918D8D" stroke-width="3" stroke-linecap="round" stroke-linejoin="round" stroke-miterlimit="10" points="
			246.5,62.3 259.5,33.5 265.9,68.3 279.7,41.1 		"/>
		<path fill="none" stroke="#918D8D" stroke-width="3" stroke-linecap="round" stroke-linejoin="round" stroke-miterlimit="10" d="
			M302.4,56.9c0,0,6.4-9-3.2-10.5s-14.1,18.4-14.1,18.4s-3.9,12.6,9.4,10.5c0,0,6.9-2.1,7.7-10.7l-6-2.1"/>
		<g>
			
				<polyline fill="none" stroke="#918D8D" stroke-width="3" stroke-linecap="round" stroke-linejoin="round" stroke-miterlimit="10" points="
				315.4,83.4 340.3,55.3 339.9,90.5 			"/>
			
				<line fill="none" stroke="#918D8D" stroke-width="3" stroke-linecap="round" stroke-linejoin="round" stroke-miterlimit="10" x1="339.9" y1="71.9" x2="329.6" y2="67.7"/>
		</g>
		<path fill="none" stroke="#918D8D" stroke-width="3" stroke-linecap="round" stroke-linejoin="round" stroke-miterlimit="10" d="
			M137.2,112.3l-18.9-35.4c0,0,10.5-11.2,15.2-2.3c4.7,8.9-7.9,14.4-7.9,14.4"/>
		<path fill="none" stroke="#918D8D" stroke-width="3" stroke-linecap="round" stroke-linejoin="round" stroke-miterlimit="10" d="
			M158.7,103.4L147,62.8c0,0,11.6-6.1,14.9,3.1s-8.4,12.2-8.4,12.2s16.3,20.9,22,17.7"/>
		
			<polyline fill="none" stroke="#918D8D" stroke-width="3" stroke-linecap="round" stroke-linejoin="round" stroke-miterlimit="10" points="
			206.4,63.2 210.9,95.5 229.1,68.5 		"/>
		
			<line fill="none" stroke="#918D8D" stroke-width="3" stroke-linecap="round" stroke-linejoin="round" stroke-miterlimit="10" x1="242.1" y1="75" x2="227.8" y2="101.4"/>
		<path fill="none" stroke="#918D8D" stroke-width="3" stroke-linecap="round" stroke-linejoin="round" stroke-miterlimit="10" d="
			M239.6,104.4l15.5-26.3c0,0,13.3,8.7,6.3,20.6C254.3,110.6,246.4,109.4,239.6,104.4z"/>
		
			<polyline fill="none" stroke="#918D8D" stroke-width="3" stroke-linecap="round" stroke-linejoin="round" stroke-miterlimit="10" points="
			276.6,120 267.1,116.2 276.1,87.7 287.1,92.2 		"/>
		
			<line fill="none" stroke="#918D8D" stroke-width="3" stroke-linecap="round" stroke-linejoin="round" stroke-miterlimit="10" x1="271.9" y1="102" x2="280.9" y2="105"/>
		<path fill="none" stroke="#918D8D" stroke-width="3" stroke-linecap="round" stroke-linejoin="round" stroke-miterlimit="10" d="
			M288.6,126l8-29.8c0,0,12.4,1.6,11.2,8.3s-10,5.4-10,5.4s1.3,18.1,6.5,18.5"/>
	</g>
	<g>
		
			<polyline fill="none" stroke="#918D8D" stroke-width="4" stroke-linecap="round" stroke-linejoin="round" stroke-miterlimit="10" points="
			44,79 7,79 11,84.3 		"/>
		
			<line fill="none" stroke="#918D8D" stroke-width="4" stroke-linecap="round" stroke-linejoin="round" stroke-miterlimit="10" x1="7" y1="78.6" x2="11" y2="73.7"/>
	</g>
</g>
</svg>
