<?xml version="1.0" encoding="utf-8"?>
<!-- Generator: Adobe Illustrator 17.1.0, SVG Export Plug-In . SVG Version: 6.00 Build 0)  -->
<!DOCTYPE svg PUBLIC "-//W3C//DTD SVG 1.1//EN" "http://www.w3.org/Graphics/SVG/1.1/DTD/svg11.dtd">
<svg version="1.1" id="Layer_1" xmlns="http://www.w3.org/2000/svg" xmlns:xlink="http://www.w3.org/1999/xlink" x="0px" y="0px"
	 viewBox="0 0 500 500" enable-background="new 0 0 500 500" xml:space="preserve">
<rect fill="#BC8600" width="500" height="500"/>
<g>
	<path fill="none" stroke="#FFFFFF" stroke-width="8" stroke-linecap="round" stroke-linejoin="round" stroke-miterlimit="10" d="
		M45.5,173.2c0,0-26-20-31,14.5s48,67.6,49.5,22.5"/>
	
		<line fill="none" stroke="#FFFFFF" stroke-width="8" stroke-linecap="round" stroke-linejoin="round" stroke-miterlimit="10" x1="69" y1="153.2" x2="85.5" y2="217.7"/>
	
		<line fill="none" stroke="#FFFFFF" stroke-width="8" stroke-linecap="round" stroke-linejoin="round" stroke-miterlimit="10" x1="77" y1="181.7" x2="107.1" y2="173.2"/>
	
		<line fill="none" stroke="#FFFFFF" stroke-width="8" stroke-linecap="round" stroke-linejoin="round" stroke-miterlimit="10" x1="103.1" y1="143.7" x2="116.6" y2="208.7"/>
	
		<ellipse fill="none" stroke="#FFFFFF" stroke-width="8" stroke-linecap="round" stroke-linejoin="round" stroke-miterlimit="10" cx="144.9" cy="166.4" rx="16.3" ry="31.3"/>
	
		<ellipse transform="matrix(-0.9647 -0.2633 0.2633 -0.9647 342.8429 387.85)" fill="none" stroke="#FFFFFF" stroke-width="8" stroke-linecap="round" stroke-linejoin="round" stroke-miterlimit="10" cx="197.4" cy="171" rx="16.3" ry="31.3"/>
	
		<ellipse transform="matrix(-0.9999 -1.122585e-02 1.122585e-02 -0.9999 363.6532 524.8055)" fill="none" stroke="#FFFFFF" stroke-width="8" stroke-linecap="round" stroke-linejoin="round" stroke-miterlimit="10" cx="183.3" cy="261.4" rx="16.9" ry="34.7"/>
	<path fill="none" stroke="#FFFFFF" stroke-width="8" stroke-linecap="round" stroke-linejoin="round" stroke-miterlimit="10" d="
		M226.7,194.2c0,0-3.8,15.5,6.9,16.7c4.6,0.5,9.1-1.8,11.4-5.8c2.1-3.5,3.8-9.1,1.7-17.2c-3.8-15.3-8.2-28.2,4.6-34.6
		c1.8-0.9,3.9-1,5.7-0.1c2.5,1.2,5,4.5,2.5,13"/>
	
		<line fill="none" stroke="#FFFFFF" stroke-width="8" stroke-linecap="round" stroke-linejoin="round" stroke-miterlimit="10" x1="292.1" y1="160.8" x2="262.5" y2="222.8"/>
	
		<polyline fill="none" stroke="#FFFFFF" stroke-width="8" stroke-linecap="round" stroke-linejoin="round" stroke-miterlimit="10" points="
		298.1,232.5 324,174.7 336.8,244.5 364.6,190.1 	"/>
	<path fill="none" stroke="#FFFFFF" stroke-width="8" stroke-linecap="round" stroke-linejoin="round" stroke-miterlimit="10" d="
		M410,221.6c0,0,12.8-18-6.4-21c-19.1-3-28.2,36.8-28.2,36.8s-7.9,25.2,18.8,21c0,0,13.9-4.1,15.4-21.4l-12-4.1"/>
	<g>
		
			<polyline fill="none" stroke="#FFFFFF" stroke-width="8" stroke-linecap="round" stroke-linejoin="round" stroke-miterlimit="10" points="
			436,274.7 485.9,218.5 485.1,288.9 		"/>
		
			<line fill="none" stroke="#FFFFFF" stroke-width="8" stroke-linecap="round" stroke-linejoin="round" stroke-miterlimit="10" x1="485" y1="251.6" x2="464.5" y2="243.2"/>
	</g>
	<path fill="none" stroke="#FFFFFF" stroke-width="8" stroke-linecap="round" stroke-linejoin="round" stroke-miterlimit="10" d="
		M79.2,332.5l-37.8-70.9c0,0,21-22.4,30.4-4.6S56,285.8,56,285.8"/>
	<path fill="none" stroke="#FFFFFF" stroke-width="8" stroke-linecap="round" stroke-linejoin="round" stroke-miterlimit="10" d="
		M122.2,314.8l-23.3-81.3c0,0,23.2-12.2,29.9,6.3c6.7,18.5-16.8,24.4-16.8,24.4s32.5,41.8,44,35.4"/>
	
		<polyline fill="none" stroke="#FFFFFF" stroke-width="8" stroke-linecap="round" stroke-linejoin="round" stroke-miterlimit="10" points="
		217.7,234.3 226.7,298.8 263.2,244.8 	"/>
	
		<line fill="none" stroke="#FFFFFF" stroke-width="8" stroke-linecap="round" stroke-linejoin="round" stroke-miterlimit="10" x1="289.3" y1="257.9" x2="260.7" y2="310.7"/>
	<path fill="none" stroke="#FFFFFF" stroke-width="8" stroke-linecap="round" stroke-linejoin="round" stroke-miterlimit="10" d="
		M284.3,316.7l30.9-52.7c0,0,26.7,17.4,12.6,41.2C313.6,329.2,297.8,326.7,284.3,316.7z"/>
	
		<polyline fill="none" stroke="#FFFFFF" stroke-width="8" stroke-linecap="round" stroke-linejoin="round" stroke-miterlimit="10" points="
		358.3,347.9 339.3,340.4 357.3,283.3 379.3,292.3 	"/>
	
		<line fill="none" stroke="#FFFFFF" stroke-width="8" stroke-linecap="round" stroke-linejoin="round" stroke-miterlimit="10" x1="348.8" y1="311.8" x2="366.8" y2="317.8"/>
	<path fill="none" stroke="#FFFFFF" stroke-width="8" stroke-linecap="round" stroke-linejoin="round" stroke-miterlimit="10" d="
		M382.3,359.9l16-59.6c0,0,24.8,3.1,22.5,16.6c-2.3,13.5-20.1,10.9-20.1,10.9s2.6,36.2,13,37"/>
</g>
</svg>
