<?xml version="1.0" encoding="utf-8"?>
<!-- Generator: Adobe Illustrator 17.1.0, SVG Export Plug-In . SVG Version: 6.00 Build 0)  -->
<!DOCTYPE svg PUBLIC "-//W3C//DTD SVG 1.1//EN" "http://www.w3.org/Graphics/SVG/1.1/DTD/svg11.dtd">
<svg version="1.1" id="Layer_1" xmlns="http://www.w3.org/2000/svg" xmlns:xlink="http://www.w3.org/1999/xlink" x="0px" y="0px"
	 viewBox="0 0 347 122" enable-background="new 0 0 347 122" xml:space="preserve">
<g>
	<g>
		<path fill="none" stroke="#1691B2" stroke-width="3" stroke-linecap="round" stroke-linejoin="round" stroke-miterlimit="10" d="
			M20.8,23c0,0-13-10-15.5,7.2S29.3,64,30,41.5"/>
		
			<line fill="none" stroke="#1691B2" stroke-width="3" stroke-linecap="round" stroke-linejoin="round" stroke-miterlimit="10" x1="32.5" y1="13" x2="40.8" y2="45.2"/>
		
			<line fill="none" stroke="#1691B2" stroke-width="3" stroke-linecap="round" stroke-linejoin="round" stroke-miterlimit="10" x1="36.5" y1="27.2" x2="51.5" y2="23"/>
		
			<line fill="none" stroke="#1691B2" stroke-width="3" stroke-linecap="round" stroke-linejoin="round" stroke-miterlimit="10" x1="49.5" y1="8.2" x2="56.3" y2="40.7"/>
		
			<ellipse fill="none" stroke="#1691B2" stroke-width="3" stroke-linecap="round" stroke-linejoin="round" stroke-miterlimit="10" cx="70.4" cy="19.6" rx="8.1" ry="15.6"/>
		
			<ellipse transform="matrix(-0.9647 -0.2633 0.2633 -0.9647 184.114 68.34)" fill="none" stroke="#1691B2" stroke-width="3" stroke-linecap="round" stroke-linejoin="round" stroke-miterlimit="10" cx="96.6" cy="21.8" rx="8.1" ry="15.6"/>
		
			<ellipse transform="matrix(-0.9999 -1.122585e-02 1.122585e-02 -0.9999 178.4184 135.0077)" fill="none" stroke="#1691B2" stroke-width="3" stroke-linecap="round" stroke-linejoin="round" stroke-miterlimit="10" cx="89.6" cy="67" rx="8.4" ry="17.3"/>
		<path fill="none" stroke="#1691B2" stroke-width="3" stroke-linecap="round" stroke-linejoin="round" stroke-miterlimit="10" d="
			M111.3,32.8c0,0-1.9,7.7,3.4,8.3c2.3,0.3,4.5-0.9,5.7-2.9c1.1-1.8,1.9-4.6,0.9-8.6c-1.9-7.7-4.1-14.1,2.3-17.3
			c0.9-0.4,1.9-0.5,2.8,0c1.3,0.6,2.5,2.3,1.3,6.5"/>
		
			<line fill="none" stroke="#1691B2" stroke-width="3" stroke-linecap="round" stroke-linejoin="round" stroke-miterlimit="10" x1="143.9" y1="16.8" x2="129.1" y2="47.7"/>
		
			<polyline fill="none" stroke="#1691B2" stroke-width="3" stroke-linecap="round" stroke-linejoin="round" stroke-miterlimit="10" points="
			146.9,52.6 159.9,23.7 166.3,58.6 180.1,31.4 		"/>
		<path fill="none" stroke="#1691B2" stroke-width="3" stroke-linecap="round" stroke-linejoin="round" stroke-miterlimit="10" d="
			M202.8,47.1c0,0,6.4-9-3.2-10.5S185.6,55,185.6,55s-3.9,12.6,9.4,10.5c0,0,6.9-2.1,7.7-10.7l-6-2.1"/>
		<g>
			
				<polyline fill="none" stroke="#1691B2" stroke-width="3" stroke-linecap="round" stroke-linejoin="round" stroke-miterlimit="10" points="
				215.8,73.7 240.7,45.6 240.3,80.7 			"/>
			
				<line fill="none" stroke="#1691B2" stroke-width="3" stroke-linecap="round" stroke-linejoin="round" stroke-miterlimit="10" x1="240.3" y1="62.1" x2="230.1" y2="57.9"/>
		</g>
		<path fill="none" stroke="#1691B2" stroke-width="3" stroke-linecap="round" stroke-linejoin="round" stroke-miterlimit="10" d="
			M37.6,102.5L18.7,67.1c0,0,10.5-11.2,15.2-2.3S26,79.2,26,79.2"/>
		<path fill="none" stroke="#1691B2" stroke-width="3" stroke-linecap="round" stroke-linejoin="round" stroke-miterlimit="10" d="
			M59.1,93.7L47.4,53.1c0,0,11.6-6.1,14.9,3.1c3.3,9.2-8.4,12.2-8.4,12.2s16.3,20.9,22,17.7"/>
		
			<polyline fill="none" stroke="#1691B2" stroke-width="3" stroke-linecap="round" stroke-linejoin="round" stroke-miterlimit="10" points="
			106.8,53.5 111.3,85.7 129.5,58.7 		"/>
		
			<line fill="none" stroke="#1691B2" stroke-width="3" stroke-linecap="round" stroke-linejoin="round" stroke-miterlimit="10" x1="142.5" y1="65.3" x2="128.3" y2="91.6"/>
		<path fill="none" stroke="#1691B2" stroke-width="3" stroke-linecap="round" stroke-linejoin="round" stroke-miterlimit="10" d="
			M140,94.6l15.5-26.3c0,0,13.3,8.7,6.3,20.6C154.7,100.9,146.8,99.6,140,94.6z"/>
		
			<polyline fill="none" stroke="#1691B2" stroke-width="3" stroke-linecap="round" stroke-linejoin="round" stroke-miterlimit="10" points="
			177,110.2 167.5,106.5 176.5,78 187.5,82.5 		"/>
		
			<line fill="none" stroke="#1691B2" stroke-width="3" stroke-linecap="round" stroke-linejoin="round" stroke-miterlimit="10" x1="172.3" y1="92.2" x2="181.3" y2="95.2"/>
		<path fill="none" stroke="#1691B2" stroke-width="3" stroke-linecap="round" stroke-linejoin="round" stroke-miterlimit="10" d="
			M189,116.2l8-29.8c0,0,12.4,1.6,11.2,8.3s-10,5.4-10,5.4s1.3,18.1,6.5,18.5"/>
	</g>
	<g>
		
			<polyline fill="none" stroke="#1691B2" stroke-width="4" stroke-linecap="round" stroke-linejoin="round" stroke-miterlimit="10" points="
			305,61.2 341.9,61.2 338,55.9 		"/>
		
			<line fill="none" stroke="#1691B2" stroke-width="4" stroke-linecap="round" stroke-linejoin="round" stroke-miterlimit="10" x1="341.9" y1="61.6" x2="337.9" y2="66.6"/>
	</g>
</g>
</svg>
