<?xml version="1.0" encoding="utf-8"?>
<!-- Generator: Adobe Illustrator 17.1.0, SVG Export Plug-In . SVG Version: 6.00 Build 0)  -->
<!DOCTYPE svg PUBLIC "-//W3C//DTD SVG 1.1//EN" "http://www.w3.org/Graphics/SVG/1.1/DTD/svg11.dtd">
<svg version="1.1" id="Layer_1" xmlns="http://www.w3.org/2000/svg" xmlns:xlink="http://www.w3.org/1999/xlink" x="0px" y="0px"
	 viewBox="0 0 390 100" enable-background="new 0 0 390 100" xml:space="preserve">
<g>
	
		<line fill="none" stroke="#7D5E99" stroke-width="4" stroke-linecap="round" stroke-linejoin="round" stroke-miterlimit="10" x1="94.8" y1="15" x2="94.8" y2="86"/>
	<path fill="none" stroke="#7D5E99" stroke-width="4" stroke-linecap="round" stroke-linejoin="round" stroke-miterlimit="10" d="
		M221.8,86V14.3c0,0,15.9-4.8,15.3,24.4c-0.4,0.3,0.6,17.1-12.8,15.6c0,0,19.2,32.6,24.4,30.5"/>
	<g>
		
			<polyline fill="none" stroke="#7D5E99" stroke-width="4" stroke-linecap="round" stroke-linejoin="round" stroke-miterlimit="10" points="
			377.8,14 363.8,14 363.8,87 377.8,87 		"/>
		
			<line fill="none" stroke="#7D5E99" stroke-width="4" stroke-linecap="round" stroke-linejoin="round" stroke-miterlimit="10" x1="365.8" y1="50" x2="375.8" y2="50"/>
	</g>
	
		<path fill="none" stroke="#7D5E99" stroke-width="3.8547" stroke-linecap="round" stroke-linejoin="round" stroke-miterlimit="10" d="
		M33.8,28.2c0,0-0.4-16.2-12.4-14.3C8.7,16,9.4,80.3,21,85c13.8,5.6,14.8-13.6,14.6-12.9"/>
	
		<path fill="none" stroke="#7D5E99" stroke-width="3.8547" stroke-linecap="round" stroke-linejoin="round" stroke-miterlimit="10" d="
		M351.5,28.2c0,0-0.4-16.2-12.4-14.3c-12.8,2.1-12,66.3-0.4,71.1c13.8,5.6,14.8-13.6,14.6-12.9"/>
	<g>
		
			<polyline fill="none" stroke="#7D5E99" stroke-width="3.8547" stroke-linecap="round" stroke-linejoin="round" stroke-miterlimit="10" points="
			260.5,86 270.8,13.5 287.9,86.3 		"/>
		
			<line fill="none" stroke="#7D5E99" stroke-width="4" stroke-linecap="round" stroke-linejoin="round" stroke-miterlimit="10" x1="265.8" y1="52" x2="278.8" y2="52"/>
	</g>
	
		<path fill="none" stroke="#7D5E99" stroke-width="3.8547" stroke-linecap="round" stroke-linejoin="round" stroke-miterlimit="10" d="
		M73,49.9c0,20.4-5.1,35.3-11.3,35.3S50.4,70.3,50.4,49.9s5.1-35.3,11.3-35.3S73,29.5,73,49.9z"/>
	
		<path fill="none" stroke="#7D5E99" stroke-width="3.8547" stroke-linecap="round" stroke-linejoin="round" stroke-miterlimit="10" d="
		M184.3,13.5c0,0-4.4,74,10.2,73.2c14.5-0.9,12.2-73.4,12.2-73.4"/>
	<g>
		
			<line fill="none" stroke="#7D5E99" stroke-width="4" stroke-linecap="round" stroke-linejoin="round" stroke-miterlimit="10" x1="111.8" y1="15" x2="111.8" y2="86"/>
		
			<line fill="none" stroke="#7D5E99" stroke-width="4" stroke-linecap="round" stroke-linejoin="round" stroke-miterlimit="10" x1="130.8" y1="15" x2="130.8" y2="86"/>
		
			<line fill="none" stroke="#7D5E99" stroke-width="4.0513" stroke-linecap="round" stroke-linejoin="round" stroke-miterlimit="10" x1="112" y1="15.4" x2="130.6" y2="85.2"/>
	</g>
	<g>
		
			<line fill="none" stroke="#7D5E99" stroke-width="4" stroke-linecap="round" stroke-linejoin="round" stroke-miterlimit="10" x1="297.8" y1="15" x2="297.8" y2="86"/>
		
			<line fill="none" stroke="#7D5E99" stroke-width="4" stroke-linecap="round" stroke-linejoin="round" stroke-miterlimit="10" x1="316.8" y1="15" x2="316.8" y2="86"/>
		
			<line fill="none" stroke="#7D5E99" stroke-width="4.0513" stroke-linecap="round" stroke-linejoin="round" stroke-miterlimit="10" x1="298.4" y1="15.4" x2="317" y2="85.2"/>
	</g>
	
		<path fill="none" stroke="#7D5E99" stroke-width="4.0513" stroke-linecap="round" stroke-linejoin="round" stroke-miterlimit="10" d="
		M143.8,69.1c0,0,1.6,17.6,13.3,15.1c5-1.1,8.9-5.2,9.9-10.2c1-4.5,0.7-11-4.4-18.7c-9.6-14.7-18.7-26.7-7.6-38
		c1.5-1.6,3.7-2.4,5.9-2.1c3.1,0.4,6.8,3,7.3,12.8"/>
</g>
</svg>
