<?xml version="1.0" encoding="utf-8"?>
<!-- Generator: Adobe Illustrator 17.1.0, SVG Export Plug-In . SVG Version: 6.00 Build 0)  -->
<!DOCTYPE svg PUBLIC "-//W3C//DTD SVG 1.1//EN" "http://www.w3.org/Graphics/SVG/1.1/DTD/svg11.dtd">
<svg version="1.1" id="Layer_1" xmlns="http://www.w3.org/2000/svg" xmlns:xlink="http://www.w3.org/1999/xlink" x="0px" y="0px"
	 viewBox="0 0 150 100" enable-background="new 0 0 150 100" xml:space="preserve">
<g>
	<path fill="none" stroke="#7D5E99" stroke-width="4" stroke-linecap="round" stroke-linejoin="round" stroke-miterlimit="10" d="
		M71,82V18c0,0,14.6-4.2,14.1,21.4c-0.4,0.2,0.3,15.5-11.5,14.2"/>
	
		<path fill="none" stroke="#7D5E99" stroke-width="3.3805" stroke-linecap="round" stroke-linejoin="round" stroke-miterlimit="10" d="
		M32.9,30.6c0,0-0.4-14.2-10.9-12.5C10.9,20,11.5,76.3,21.7,80.4c12.1,4.9,13-11.9,12.8-11.3"/>
	
		<polyline fill="none" stroke="#7D5E99" stroke-width="3.3805" stroke-linecap="round" stroke-linejoin="round" stroke-miterlimit="10" points="
		90.1,81.4 99.1,17.7 114.2,81.6 	"/>
	
		<line fill="none" stroke="#7D5E99" stroke-width="4" stroke-linecap="round" stroke-linejoin="round" stroke-miterlimit="10" x1="94" y1="50" x2="106" y2="50"/>
	
		<path fill="none" stroke="#7D5E99" stroke-width="3.3805" stroke-linecap="round" stroke-linejoin="round" stroke-miterlimit="10" d="
		M61.7,49.7c0,17.9-4.4,30.9-9.9,30.9s-9.9-13-9.9-30.9s4.4-30.9,9.9-30.9S61.7,31.7,61.7,49.7z"/>
	<g>
		
			<polyline fill="none" stroke="#7D5E99" stroke-width="3.3805" stroke-linecap="round" stroke-linejoin="round" stroke-miterlimit="10" points="
			115,18.5 126.2,37.4 136.1,19 		"/>
		
			<line fill="none" stroke="#7D5E99" stroke-width="4" stroke-linecap="round" stroke-linejoin="round" stroke-miterlimit="10" x1="125" y1="38" x2="125" y2="81"/>
	</g>
</g>
</svg>
