<?xml version="1.0" encoding="utf-8"?>
<!-- Generator: Adobe Illustrator 17.1.0, SVG Export Plug-In . SVG Version: 6.00 Build 0)  -->
<!DOCTYPE svg PUBLIC "-//W3C//DTD SVG 1.1//EN" "http://www.w3.org/Graphics/SVG/1.1/DTD/svg11.dtd">
<svg version="1.1" id="Layer_1" xmlns="http://www.w3.org/2000/svg" xmlns:xlink="http://www.w3.org/1999/xlink" x="0px" y="0px"
	 viewBox="0 0 270 100" enable-background="new 0 0 270 100" xml:space="preserve">
<g>
	
		<line fill="none" stroke="#7D5E99" stroke-width="4" stroke-linecap="round" stroke-linejoin="round" stroke-miterlimit="10" x1="186" y1="17" x2="186" y2="84"/>
	<path fill="none" stroke="#7D5E99" stroke-width="4" stroke-linecap="round" stroke-linejoin="round" stroke-miterlimit="10" d="
		M5,84.6V16.5c0,0,15.2-2.2,18,21.8S24,84.6,5,84.6z"/>
	<path fill="none" stroke="#7D5E99" stroke-width="4" stroke-linecap="round" stroke-linejoin="round" stroke-miterlimit="10" d="
		M58,84.6V16.5c0,0,15.2-2.2,18,21.8C78.7,62.2,76,84.6,58,84.6z"/>
	<g>
		
			<polyline fill="none" stroke="#7D5E99" stroke-width="4" stroke-linecap="round" stroke-linejoin="round" stroke-miterlimit="10" points="
			48,16 35,16 35,84 48,84 		"/>
		
			<line fill="none" stroke="#7D5E99" stroke-width="4" stroke-linecap="round" stroke-linejoin="round" stroke-miterlimit="10" x1="37" y1="49" x2="46" y2="49"/>
	</g>
	<g>
		
			<polyline fill="none" stroke="#7D5E99" stroke-width="4" stroke-linecap="round" stroke-linejoin="round" stroke-miterlimit="10" points="
			264,16 252,16 252,84 264,84 		"/>
		
			<line fill="none" stroke="#7D5E99" stroke-width="4" stroke-linecap="round" stroke-linejoin="round" stroke-miterlimit="10" x1="253" y1="49" x2="262" y2="49"/>
	</g>
	
		<path fill="none" stroke="#7D5E99" stroke-width="3.6259" stroke-linecap="round" stroke-linejoin="round" stroke-miterlimit="10" d="
		M145,30.1c0,0-0.4-15.3-11.6-13.4c-12,2-11.3,62.4-0.4,66.8c13,5.3,14-12.8,13.7-12.1"/>
	
		<path fill="none" stroke="#7D5E99" stroke-width="3.6259" stroke-linecap="round" stroke-linejoin="round" stroke-miterlimit="10" d="
		M90,16.1c0,0-4.1,69.6,9.6,68.8S111,15.8,111,15.8"/>
	<g>
		
			<line fill="none" stroke="#7D5E99" stroke-width="4" stroke-linecap="round" stroke-linejoin="round" stroke-miterlimit="10" x1="162" y1="18" x2="162" y2="84"/>
		
			<line fill="none" stroke="#7D5E99" stroke-width="4" stroke-linecap="round" stroke-linejoin="round" stroke-miterlimit="10" x1="153" y1="17" x2="172" y2="17"/>
	</g>
	<g>
		<path fill="none" stroke="#7D5E99" stroke-width="4" stroke-linecap="round" stroke-linejoin="round" stroke-miterlimit="10" d="
			M199,84V16.6c0,0,15.3-4.5,14.8,22.9c-0.4,0.3,0.5,16-12.2,14.7"/>
		
			<path fill="none" stroke="#7D5E99" stroke-width="3.6259" stroke-linecap="round" stroke-linejoin="round" stroke-miterlimit="10" d="
			M202.1,55c0,0,15-3.4,14.5,17.7c-0.4,0.2,0.6,12.4-12,11.3"/>
	</g>
	
		<polyline fill="none" stroke="#7D5E99" stroke-width="4" stroke-linecap="round" stroke-linejoin="round" stroke-miterlimit="10" points="
		227,17 227,84 243,84 	"/>
</g>
</svg>
