<?xml version="1.0" encoding="utf-8"?>
<!-- Generator: Adobe Illustrator 17.1.0, SVG Export Plug-In . SVG Version: 6.00 Build 0)  -->
<!DOCTYPE svg PUBLIC "-//W3C//DTD SVG 1.1//EN" "http://www.w3.org/Graphics/SVG/1.1/DTD/svg11.dtd">
<svg version="1.1" id="Layer_1" xmlns="http://www.w3.org/2000/svg" xmlns:xlink="http://www.w3.org/1999/xlink" x="0px" y="0px"
	 viewBox="0 0 270 100" enable-background="new 0 0 270 100" xml:space="preserve">
<g>
	<path fill="none" stroke="#7D5E99" stroke-width="4" stroke-linecap="round" stroke-linejoin="round" stroke-miterlimit="10" d="
		M65.3,87V13.7c0,0,15.8-4.8,15.3,24.5c-0.4,0.3,0.7,17.8-12.7,16.3"/>
	<path fill="none" stroke="#7D5E99" stroke-width="4" stroke-linecap="round" stroke-linejoin="round" stroke-miterlimit="10" d="
		M154.3,86.2V13.6c0,0,16.2-2.3,19.2,23.2C176.4,62.4,174.3,86.2,154.3,86.2z"/>
	<path fill="none" stroke="#7D5E99" stroke-width="4" stroke-linecap="round" stroke-linejoin="round" stroke-miterlimit="10" d="
		M5.3,86.2V13.6c0,0,16.2-2.3,19.2,23.2S25.3,86.2,5.3,86.2z"/>
	<g>
		
			<polyline fill="none" stroke="#7D5E99" stroke-width="4" stroke-linecap="round" stroke-linejoin="round" stroke-miterlimit="10" points="
			203.3,15 189.3,15 189.3,87 203.3,87 		"/>
		
			<line fill="none" stroke="#7D5E99" stroke-width="4" stroke-linecap="round" stroke-linejoin="round" stroke-miterlimit="10" x1="191.3" y1="50" x2="200.3" y2="50"/>
	</g>
	<g>
		
			<polyline fill="none" stroke="#7D5E99" stroke-width="4" stroke-linecap="round" stroke-linejoin="round" stroke-miterlimit="10" points="
			53.3,15 39.3,15 39.3,87 53.3,87 		"/>
		
			<line fill="none" stroke="#7D5E99" stroke-width="4" stroke-linecap="round" stroke-linejoin="round" stroke-miterlimit="10" x1="41.3" y1="50" x2="50.3" y2="50"/>
	</g>
	<g>
		
			<line fill="none" stroke="#7D5E99" stroke-width="4" stroke-linecap="round" stroke-linejoin="round" stroke-miterlimit="10" x1="254.3" y1="16" x2="254.3" y2="87"/>
		
			<line fill="none" stroke="#7D5E99" stroke-width="4" stroke-linecap="round" stroke-linejoin="round" stroke-miterlimit="10" x1="245.3" y1="15" x2="265.3" y2="15"/>
	</g>
	<g>
		
			<polyline fill="none" stroke="#7D5E99" stroke-width="4" stroke-linecap="round" stroke-linejoin="round" stroke-miterlimit="10" points="
			105.3,15 91.3,15 91.3,87 105.3,87 		"/>
		
			<line fill="none" stroke="#7D5E99" stroke-width="4" stroke-linecap="round" stroke-linejoin="round" stroke-miterlimit="10" x1="93.3" y1="50" x2="103.3" y2="50"/>
	</g>
	<g>
		
			<line fill="none" stroke="#7D5E99" stroke-width="4" stroke-linecap="round" stroke-linejoin="round" stroke-miterlimit="10" x1="119.3" y1="15" x2="119.3" y2="87"/>
		
			<line fill="none" stroke="#7D5E99" stroke-width="4" stroke-linecap="round" stroke-linejoin="round" stroke-miterlimit="10" x1="138.3" y1="15" x2="138.3" y2="87"/>
		
			<line fill="none" stroke="#7D5E99" stroke-width="4.0624" stroke-linecap="round" stroke-linejoin="round" stroke-miterlimit="10" x1="119.4" y1="15.1" x2="138.1" y2="85.1"/>
	</g>
	<g>
		
			<line fill="none" stroke="#7D5E99" stroke-width="4" stroke-linecap="round" stroke-linejoin="round" stroke-miterlimit="10" x1="216.3" y1="15" x2="216.3" y2="87"/>
		
			<line fill="none" stroke="#7D5E99" stroke-width="4" stroke-linecap="round" stroke-linejoin="round" stroke-miterlimit="10" x1="235.3" y1="15" x2="235.3" y2="87"/>
		
			<line fill="none" stroke="#7D5E99" stroke-width="4.0624" stroke-linecap="round" stroke-linejoin="round" stroke-miterlimit="10" x1="215.8" y1="15.1" x2="234.4" y2="85.1"/>
	</g>
</g>
</svg>
