<?xml version="1.0" encoding="utf-8"?>
<!-- Generator: Adobe Illustrator 17.1.0, SVG Export Plug-In . SVG Version: 6.00 Build 0)  -->
<!DOCTYPE svg PUBLIC "-//W3C//DTD SVG 1.1//EN" "http://www.w3.org/Graphics/SVG/1.1/DTD/svg11.dtd">
<svg version="1.1" id="Layer_1" xmlns="http://www.w3.org/2000/svg" xmlns:xlink="http://www.w3.org/1999/xlink" x="0px" y="0px"
	 viewBox="0 0 80 60" enable-background="new 0 0 80 60" xml:space="preserve">
<g>
	<path fill="#FFFFFF" d="M64.3,15.8c0.9,0.1,1.9,0.1,2.8,0.2c2,0.1,3,1.5,4.2,2.7c1.9,2,3.2,4.5,4.2,7.1c0.4,1.2,0.6,2.5,0.6,3.7
		c0,1.9,0.2,3.8-0.5,5.6c-0.7,1.7-1.1,3.5-2.1,5.1c-0.7,1.1-1.9,1.9-3,2.7c-1.4,1.1-3.1,1.5-5,1.4c-1.2-0.1-2.5,0.1-3.7-0.2
		c-2.3-0.6-4-2.1-5.2-4.1c-1.1-1.8-1.9-3.8-2.4-5.8c-0.7-2.8-0.8-5.7-0.4-8.6c0.7-4.2,2.9-7.1,6.7-8.9C61.8,16,63,15.7,64.3,15.8z
		 M73.5,30.1c0.3-1.9-0.4-4-1.4-6c-1.1-2.3-2.8-4.1-4.8-5.7c-0.8-0.7-2.4-0.4-2.9,0.6c-0.5,1.1-1.1,2.2-1.4,3.3
		c-0.7,2.5-1.4,5.1-2,7.6c-0.2,0.7-0.2,1.4-0.2,2c-0.1,2.6,0.6,5,2,7.1c0.6,1,1.6,2,2.7,2.4c2.1,0.9,4.3-0.2,5.5-2.2
		C72.6,36.5,73.4,33.6,73.5,30.1z M58.4,37.3c0.1,0,0.2-0.1,0.3-0.1c-0.2-0.5-0.5-1-0.5-1.5c0-1.9-0.1-3.8,0.1-5.7
		c0.5-3.5,1.4-6.9,2.9-10.1c0.2-0.3,0.2-0.7,0.4-1.2c-0.5,0.2-0.7,0.2-0.9,0.4c-1.8,1.1-3.1,2.7-3.7,4.6c-0.9,3-1.3,6.2-0.2,9.3
		C57.3,34.4,57.8,35.9,58.4,37.3z"/>
	<path fill="#FFFFFF" d="M37.1,33.1c0.1,1.8,0.2,3.6,0.4,5.4c0.1,1.5,0.3,3.1,0.6,4.6c0.1,0.9-0.4,1.3-1.1,1.2
		c-2.3-0.1-4.6-0.2-6.8-0.4c-0.4,0-1-0.7-1-1.1c-0.2-2.7-0.2-5.4-0.3-8.1c-0.1-2.4-0.5-4.8-0.6-7.3c-0.2-3-0.4-6-0.5-9
		c0-0.8,0.7-1.8,1.6-1.9c1.5-0.2,3.1-0.3,4.6-0.5c0.3,0,0.7,0,1-0.1c2.4-0.6,4.6,0,6.6,1.3c1.6,1,3.2,1.9,4.1,3.7
		c0.2,0.4,0.4,0.8,0.4,1.2c0.1,2.9,0.2,5.9-1.5,8.5c-0.8,1.2-2,1.7-3.4,2c-0.6,0.2-1.2,0.4-1.9,0.5C38.7,33.2,38,33.1,37.1,33.1z
		 M37,31.1c1.2-0.3,2.3-0.5,3.4-0.9c0.5-0.2,1.1-0.6,1.4-1c1.3-2,1.2-4.3,1.1-6.5c0-0.5-0.4-1.1-0.7-1.6c-1.4-1.6-3.2-2.5-5.3-2.9
		c-0.9-0.2-1.3,0.1-1.2,1c0.3,2.3,0.5,4.6,0.8,6.9C36.5,27.9,36.8,29.5,37,31.1z M32,40.1C32,40.1,32.1,40.1,32,40.1
		c0.1,0.4,0.1,0.8,0.2,1.2c0,0.2,0.2,0.6,0.3,0.6c0.6,0,1.4,0.2,1.9-0.1c0.3-0.1,0.2-1,0.2-1.5c-0.1-1.1-0.3-2.1-0.4-3.2
		c-0.2-2.4-0.3-4.8-0.5-7.2c-0.3-3.5-0.8-7-1.2-10.5c-0.1-1-0.6-0.9-1.2-0.9c-0.8,0-0.8,0.5-0.7,1.1c0.2,2.5,0.5,4.9,0.7,7.4
		C31.6,31.3,31.8,35.7,32,40.1z"/>
	<path fill="#FFFFFF" d="M15.4,18.3c-0.8-0.1-1.5-0.2-2.3-0.3c-0.8-0.1-1.3,0.2-1.2,1.1c0.2,2.2,0.4,4.5,0.6,6.7
		c0.1,0.9,0.2,1.9,0.2,2.8c0,0.5,0.2,0.9,0.9,0.9c0.9,0,1.8,0.1,2.7,0.2c0.6,0.1,1.3,0.2,1.8,0.5c0.3,0.2,0.7,0.9,0.6,1.2
		c-0.1,0.4-0.7,0.9-1.1,1c-1,0.1-2,0.1-3,0c-1.5-0.2-1.5-0.1-1.3,1.4c0.4,2.1,0.8,4.1,1.1,6.2c0.1,0.7,0.4,1,1.1,1
		c1.3,0.1,2.7,0.4,4,0.6c0.8,0.2,1.2,0.8,1.2,1.6c-0.1,0.7-1.1,1.4-1.8,1.2c-3.5-1-7-0.4-10.5-0.8c-0.9-0.1-1.9-0.4-2.8-0.7
		c-0.3-0.1-0.6-0.6-0.6-0.9c-0.3-3.9-0.7-7.7-0.9-11.6C4,27.2,4.1,24.1,4,20.9c0-1.1-0.1-2.2-0.1-3.4c0-0.4-0.1-1,0.1-1.2
		c0.5-0.3,1.2-0.7,1.8-0.6c2.9,0.6,5.7-0.4,8.5-0.1c0.9,0.1,1.9,0.2,2.7,0.5c0.3,0.1,0.8,0.8,0.7,1.1c-0.2,0.5-0.6,0.9-1.1,1.1
		C16.4,18.4,15.9,18.3,15.4,18.3C15.4,18.3,15.4,18.3,15.4,18.3z M6.9,18.4c0,0.4-0.1,0.8-0.1,1.2c0.1,1.3,0.2,2.7,0.2,4
		c0.1,1.5,0,3.1,0.1,4.6c0.1,2.3,0.4,4.5,0.6,6.8c0.1,1.7,0.2,3.4,0.3,5.1c0,0.7,0.5,0.9,1,0.8c0.7-0.1,1.5-0.3,2.2-0.4
		c0,0,0-0.1,0-0.1c-0.2-1.5-0.3-3.1-0.5-4.6c-0.2-1.2-0.7-2.4-0.8-3.7c-0.2-1.8-0.3-3.7-0.4-5.5C9.3,24.4,9,22.2,9,20
		C9,18.5,8.1,18.5,6.9,18.4z"/>
</g>
</svg>
