<?xml version="1.0" encoding="utf-8"?>
<!-- Generator: Adobe Illustrator 17.1.0, SVG Export Plug-In . SVG Version: 6.00 Build 0)  -->
<!DOCTYPE svg PUBLIC "-//W3C//DTD SVG 1.1//EN" "http://www.w3.org/Graphics/SVG/1.1/DTD/svg11.dtd">
<svg version="1.1" id="Layer_1" xmlns="http://www.w3.org/2000/svg" xmlns:xlink="http://www.w3.org/1999/xlink" x="0px" y="0px"
	 viewBox="0 0 415 140" enable-background="new 0 0 415 140" xml:space="preserve">
<g>
	<g>
		<path fill="none" stroke="#BC4242" stroke-width="4" stroke-linecap="round" stroke-linejoin="round" stroke-miterlimit="10" d="
			M371.2,85.3c0,0-0.5-8.7-14-7.6c-14.4,1.1-24.6,35.5-11.4,38c15.6,3,16.8-7.3,16.5-6.9"/>
		<g>
			
				<polyline fill="none" stroke="#BC4242" stroke-width="4" stroke-linecap="round" stroke-linejoin="round" stroke-miterlimit="10" points="
				73.8,78.4 58.3,78.4 47.3,117.4 62.8,117.4 			"/>
			
				<line fill="none" stroke="#BC4242" stroke-width="4" stroke-linecap="round" stroke-linejoin="round" stroke-miterlimit="10" x1="54.8" y1="97.4" x2="65.8" y2="97.4"/>
		</g>
		<g>
			
				<line fill="none" stroke="#BC4242" stroke-width="4" stroke-linecap="round" stroke-linejoin="round" stroke-miterlimit="10" x1="177.3" y1="78.3" x2="166.3" y2="116.3"/>
			
				<line fill="none" stroke="#BC4242" stroke-width="4" stroke-linecap="round" stroke-linejoin="round" stroke-miterlimit="10" x1="168.8" y1="78.4" x2="190.8" y2="78.4"/>
		</g>
		<g>
			
				<line fill="none" stroke="#BC4242" stroke-width="4" stroke-linecap="round" stroke-linejoin="round" stroke-miterlimit="10" x1="267.3" y1="78.3" x2="256.3" y2="116.3"/>
			
				<line fill="none" stroke="#BC4242" stroke-width="4" stroke-linecap="round" stroke-linejoin="round" stroke-miterlimit="10" x1="258.8" y1="78.4" x2="280.8" y2="78.4"/>
		</g>
		<g>
			
				<line fill="none" stroke="#BC4242" stroke-width="4" stroke-linecap="round" stroke-linejoin="round" stroke-miterlimit="10" x1="297.3" y1="78.3" x2="286.3" y2="116.3"/>
			
				<line fill="none" stroke="#BC4242" stroke-width="4" stroke-linecap="round" stroke-linejoin="round" stroke-miterlimit="10" x1="288.8" y1="78.4" x2="310.8" y2="78.4"/>
		</g>
		<path fill="none" stroke="#BC4242" stroke-width="4" stroke-linecap="round" stroke-linejoin="round" stroke-miterlimit="10" d="
			M119.3,116.3l11-38.3c0,0,18.3-2.5,17.6,13.1c-0.5,0.1,0.9,9.1-14.3,8.4c0,0,10.5,17.4,16.3,16.3"/>
		<g>
			
				<polyline fill="none" stroke="#BC4242" stroke-width="4" stroke-linecap="round" stroke-linejoin="round" stroke-miterlimit="10" points="
				76,116.3 98.6,77.4 107,116.4 			"/>
			
				<line fill="none" stroke="#BC4242" stroke-width="4" stroke-linecap="round" stroke-linejoin="round" stroke-miterlimit="10" x1="87.8" y1="98.4" x2="101.8" y2="98.4"/>
		</g>
		<g>
			
				<polyline fill="none" stroke="#BC4242" stroke-width="4" stroke-linecap="round" stroke-linejoin="round" stroke-miterlimit="10" points="
				213.9,116.3 236.5,77.4 244.9,116.4 			"/>
			
				<line fill="none" stroke="#BC4242" stroke-width="4" stroke-linecap="round" stroke-linejoin="round" stroke-miterlimit="10" x1="227.8" y1="98.4" x2="241.8" y2="98.4"/>
		</g>
		<g>
			
				<polyline fill="none" stroke="#BC4242" stroke-width="4" stroke-linecap="round" stroke-linejoin="round" stroke-miterlimit="10" points="
				300.5,116.3 323.2,77.4 331.5,116.4 			"/>
			
				<line fill="none" stroke="#BC4242" stroke-width="4" stroke-linecap="round" stroke-linejoin="round" stroke-miterlimit="10" x1="312.8" y1="98.4" x2="326.8" y2="98.4"/>
		</g>
		<g>
			
				<line fill="none" stroke="#BC4242" stroke-width="4" stroke-linecap="round" stroke-linejoin="round" stroke-miterlimit="10" x1="382.3" y1="78.3" x2="371.3" y2="116.3"/>
			
				<line fill="none" stroke="#BC4242" stroke-width="4" stroke-linecap="round" stroke-linejoin="round" stroke-miterlimit="10" x1="379.8" y1="96.2" x2="404.7" y2="78.2"/>
			
				<line fill="none" stroke="#BC4242" stroke-width="4" stroke-linecap="round" stroke-linejoin="round" stroke-miterlimit="10" x1="394.7" y1="116" x2="379.8" y2="94.7"/>
		</g>
		<g>
			
				<line fill="none" stroke="#BC4242" stroke-width="4" stroke-linecap="round" stroke-linejoin="round" stroke-miterlimit="10" x1="21.3" y1="78.3" x2="10.3" y2="116.3"/>
			
				<line fill="none" stroke="#BC4242" stroke-width="4" stroke-linecap="round" stroke-linejoin="round" stroke-miterlimit="10" x1="43.3" y1="78.3" x2="32.3" y2="116.3"/>
			
				<line fill="none" stroke="#BC4242" stroke-width="4" stroke-linecap="round" stroke-linejoin="round" stroke-miterlimit="10" x1="16.8" y1="99.4" x2="37.8" y2="99.4"/>
		</g>
	</g>
	<g>
		
			<line fill="none" stroke="#BC4242" stroke-width="4" stroke-linecap="round" stroke-linejoin="round" stroke-miterlimit="10" x1="207.3" y1="23.3" x2="197.3" y2="61.3"/>
		<g>
			
				<polyline fill="none" stroke="#BC4242" stroke-width="4" stroke-linecap="round" stroke-linejoin="round" stroke-miterlimit="10" points="
				124.8,24.4 108.3,24.4 98.3,62.4 114.8,62.4 			"/>
			
				<line fill="none" stroke="#BC4242" stroke-width="4" stroke-linecap="round" stroke-linejoin="round" stroke-miterlimit="10" x1="103.8" y1="43.4" x2="113.8" y2="43.4"/>
		</g>
		<g>
			
				<line fill="none" stroke="#BC4242" stroke-width="4" stroke-linecap="round" stroke-linejoin="round" stroke-miterlimit="10" x1="146.3" y1="25.3" x2="136.3" y2="61.3"/>
			
				<line fill="none" stroke="#BC4242" stroke-width="4" stroke-linecap="round" stroke-linejoin="round" stroke-miterlimit="10" x1="136.8" y1="24.4" x2="159.8" y2="24.4"/>
		</g>
		<g>
			
				<line fill="none" stroke="#BC4242" stroke-width="4" stroke-linecap="round" stroke-linejoin="round" stroke-miterlimit="10" x1="176.3" y1="25.3" x2="166.3" y2="61.3"/>
			
				<line fill="none" stroke="#BC4242" stroke-width="4" stroke-linecap="round" stroke-linejoin="round" stroke-miterlimit="10" x1="167.8" y1="24.4" x2="189.8" y2="24.4"/>
		</g>
		<g>
			
				<polyline fill="none" stroke="#BC4242" stroke-width="4" stroke-linecap="round" stroke-linejoin="round" stroke-miterlimit="10" points="
				326.2,61.9 347.8,23 357.2,62 			"/>
			
				<line fill="none" stroke="#BC4242" stroke-width="4" stroke-linecap="round" stroke-linejoin="round" stroke-miterlimit="10" x1="336.8" y1="44.4" x2="351.8" y2="44.4"/>
		</g>
		<g>
			
				<line fill="none" stroke="#BC4242" stroke-width="4" stroke-linecap="round" stroke-linejoin="round" stroke-miterlimit="10" x1="231.3" y1="23.3" x2="221.3" y2="61.3"/>
			
				<line fill="none" stroke="#BC4242" stroke-width="4" stroke-linecap="round" stroke-linejoin="round" stroke-miterlimit="10" x1="253.3" y1="23.3" x2="243.3" y2="61.3"/>
			
				<line fill="none" stroke="#BC4242" stroke-width="4" stroke-linecap="round" stroke-linejoin="round" stroke-miterlimit="10" x1="232.1" y1="24" x2="243.2" y2="61.3"/>
		</g>
		<path fill="none" stroke="#BC4242" stroke-width="4" stroke-linecap="round" stroke-linejoin="round" stroke-miterlimit="10" d="
			M92.6,29.8c0,0-3-8.5-16-7.2C60.8,24.3,48.1,58,68.2,62.2c5.2,1.1,11-0.3,14.1-3.4c2.4-2.5,4.6-6.6,3.8-13.1l-11.5,0.6"/>
		<path fill="none" stroke="#BC4242" stroke-width="4" stroke-linecap="round" stroke-linejoin="round" stroke-miterlimit="10" d="
			M294.7,29.8c0,0-3-8.5-16-7.2c-15.8,1.7-28.5,35.3-8.4,39.5c5.2,1.1,11-0.3,14.1-3.4c2.4-2.5,4.6-6.6,3.8-13.1l-11.5,0.6"/>
	</g>
</g>
</svg>
