<?xml version="1.0" encoding="utf-8"?>
<!-- Generator: Adobe Illustrator 17.1.0, SVG Export Plug-In . SVG Version: 6.00 Build 0)  -->
<!DOCTYPE svg PUBLIC "-//W3C//DTD SVG 1.1//EN" "http://www.w3.org/Graphics/SVG/1.1/DTD/svg11.dtd">
<svg version="1.1" id="Layer_1" xmlns="http://www.w3.org/2000/svg" xmlns:xlink="http://www.w3.org/1999/xlink" x="0px" y="0px"
	 viewBox="0 0 75 75" enable-background="new 0 0 75 75" xml:space="preserve">
<g>
	<path fill="#1691B2" d="M50.4,49.2c0.5,0,1,0.1,1.4,0.1c1,0,1.5,0.8,2.1,1.4c1,1,1.7,2.3,2.2,3.6c0.2,0.6,0.3,1.3,0.3,1.9
		c0,1,0.1,1.9-0.3,2.9c-0.3,0.9-0.6,1.8-1.1,2.6c-0.3,0.6-1,1-1.5,1.4c-0.7,0.6-1.6,0.8-2.6,0.7c-0.6-0.1-1.3,0.1-1.9-0.1
		c-1.2-0.3-2-1.1-2.7-2.1c-0.6-0.9-1-1.9-1.2-3c-0.4-1.5-0.4-2.9-0.2-4.4c0.3-2.1,1.5-3.7,3.5-4.6C49.1,49.3,49.7,49.1,50.4,49.2z
		 M55.1,56.6c0.1-1-0.2-2.1-0.7-3.1c-0.6-1.2-1.5-2.1-2.5-2.9c-0.4-0.3-1.3-0.2-1.5,0.3c-0.3,0.5-0.5,1.1-0.7,1.7
		c-0.4,1.3-0.7,2.6-1,3.9c-0.1,0.3-0.1,0.7-0.1,1.1c0,1.3,0.3,2.6,1,3.6c0.3,0.5,0.8,1,1.4,1.3c1.1,0.4,2.2-0.1,2.8-1.2
		C54.6,59.9,55.1,58.4,55.1,56.6z M47.3,60.3c0.1,0,0.1-0.1,0.2-0.1c-0.1-0.3-0.2-0.5-0.2-0.8c0-1-0.1-2,0.1-2.9
		c0.2-1.8,0.7-3.5,1.5-5.2c0.1-0.2,0.1-0.4,0.2-0.6c-0.2,0.1-0.4,0.1-0.5,0.2c-0.9,0.6-1.6,1.4-1.9,2.4c-0.5,1.6-0.7,3.2-0.1,4.8
		C46.8,58.8,47,59.5,47.3,60.3z"/>
	<path fill="#1691B2" d="M50.4,11.2c0.5,0,1,0.1,1.4,0.1c1,0,1.5,0.8,2.1,1.4c1,1,1.7,2.3,2.2,3.6c0.2,0.6,0.3,1.3,0.3,1.9
		c0,1,0.1,1.9-0.3,2.9c-0.3,0.9-0.6,1.8-1.1,2.6c-0.3,0.6-1,1-1.5,1.4C52.8,25.8,52,26,51,25.9c-0.6-0.1-1.3,0.1-1.9-0.1
		c-1.2-0.3-2-1.1-2.7-2.1c-0.6-0.9-1-1.9-1.2-3c-0.4-1.5-0.4-2.9-0.2-4.4c0.3-2.1,1.5-3.7,3.5-4.6C49.1,11.4,49.7,11.2,50.4,11.2z
		 M55.1,18.6c0.1-1-0.2-2.1-0.7-3.1c-0.6-1.2-1.5-2.1-2.5-2.9c-0.4-0.3-1.3-0.2-1.5,0.3c-0.3,0.5-0.5,1.1-0.7,1.7
		c-0.4,1.3-0.7,2.6-1,3.9c-0.1,0.3-0.1,0.7-0.1,1.1c0,1.3,0.3,2.6,1,3.6c0.3,0.5,0.8,1,1.4,1.3c1.1,0.4,2.2-0.1,2.8-1.2
		C54.6,21.9,55.1,20.4,55.1,18.6z M47.3,22.3c0.1,0,0.1-0.1,0.2-0.1c-0.1-0.3-0.2-0.5-0.2-0.8c0-1-0.1-2,0.1-2.9
		c0.2-1.8,0.7-3.5,1.5-5.2c0.1-0.2,0.1-0.4,0.2-0.6c-0.2,0.1-0.4,0.1-0.5,0.2c-0.9,0.6-1.6,1.4-1.9,2.4c-0.5,1.6-0.7,3.2-0.1,4.8
		C46.8,20.8,47,21.6,47.3,22.3z"/>
	<g>
		<path fill="#1691B2" d="M40.2,32.7c-0.2,0.3-0.4,0.5-0.6,0.7c-0.5,0.8-1.1,1.5-1.9,2.1c-0.4,0.3-0.9,0.3-1.3,0
			c-0.8-0.7-1.2-1.6-1.7-2.5c-0.1-0.2-0.2-0.3-0.3-0.5c0,0-0.1,0-0.1,0c0.1,0.6,0.1,1.1,0.2,1.7c0.1,0.4,0.1,0.9,0.2,1.3
			c0.1,1.6,0.2,3.1,0.4,4.7c0.1,1,0.3,2.1,0.4,3.1c0.1,0.5-0.2,0.9-0.7,0.9c-0.6,0.1-1.3,0.1-1.9,0.2c-0.2,0-0.4,0.1-0.5,0.1
			c-0.4,0.1-0.7-0.1-0.8-0.5c-0.1-1.2-0.4-2.5-0.5-3.7c-0.1-1.1,0-2.2-0.1-3.3c0-1.2-0.1-2.4-0.2-3.6c0-1-0.1-2-0.1-3.1
			c0-0.3,0.1-0.5,0.4-0.6c0.7-0.1,1.4-0.2,2.1-0.3c0.2,0,0.3,0,0.5-0.1c0.3,0,0.6,0,0.5,0.4c0,0.1,0.1,0.3,0.2,0.4
			c0.9,0.9,1.5,2,2.1,3c0.2,0.4,0.5,0.7,0.8,1.1c0.4-0.5,0.9-0.9,1.2-1.4c0.5-0.6,1-1.3,1.5-1.9c0.1-0.1,0.2-0.3,0.3-0.4
			c0.1-0.2,0.2-0.4,0.4-0.5c0.2-0.1,0.5,0,0.7,0c0.4,0.1,0.6,0.6,0.6,1.2c0.1,1.2,0.2,2.4,0.3,3.6c0.1,1.4,0.3,2.7,0.5,4.1
			c0.2,1.1,0.4,2.3,0.6,3.4c0,0.3,0.1,0.5,0.1,0.8c0,0.4-0.1,0.7-0.5,0.8c-0.4,0.1-0.9-0.2-1-0.6c-0.3-1.7-0.5-3.3-0.8-5
			c-0.2-1.4-0.3-2.8-0.7-4.1C40.4,33.8,40.4,33.3,40.2,32.7z M32.8,30.5c-0.1,0-0.3,0-0.4,0c-0.4,0-0.7,0-0.6,0.6
			c0.1,0.4,0,0.8,0.1,1.2c0.1,2.2,0.2,4.3,0.4,6.5c0.1,1.4,0.3,2.8,0.5,4.2c0,0.2,0.1,0.5,0.5,0.4c0.3-0.1,0.7,0,0.6-0.5
			c-0.1-0.7-0.1-1.5-0.2-2.2c-0.1-1-0.3-2-0.3-3c-0.1-1,0-1.9-0.1-2.9c0-0.8-0.2-1.6-0.2-2.4C32.9,31.8,32.9,31.1,32.8,30.5z"/>
		<path fill="#1691B2" d="M50.6,29.5c0.5,0,1,0.1,1.5,0.1c1,0,1.6,0.8,2.2,1.5c1,1.1,1.7,2.4,2.2,3.8c0.2,0.6,0.3,1.3,0.3,2
			c0,1,0.1,2-0.3,3c-0.4,0.9-0.6,1.9-1.1,2.7c-0.4,0.6-1,1-1.6,1.5c-0.8,0.6-1.7,0.8-2.7,0.7c-0.7-0.1-1.4,0.1-2-0.1
			c-1.2-0.3-2.1-1.1-2.8-2.2c-0.6-1-1-2-1.3-3.1c-0.4-1.5-0.4-3-0.2-4.6c0.4-2.2,1.5-3.8,3.6-4.8C49.2,29.6,49.9,29.4,50.6,29.5z
			 M55.5,37.1c0.2-1-0.2-2.1-0.7-3.2c-0.6-1.2-1.5-2.2-2.6-3c-0.4-0.4-1.3-0.2-1.6,0.3c-0.3,0.6-0.6,1.2-0.7,1.8
			c-0.4,1.3-0.7,2.7-1.1,4.1c-0.1,0.4-0.1,0.7-0.1,1.1c0,1.4,0.3,2.7,1.1,3.8c0.3,0.5,0.9,1.1,1.4,1.3c1.1,0.5,2.3-0.1,3-1.2
			C55,40.6,55.5,39,55.5,37.1z M47.4,41c0.1,0,0.1-0.1,0.2-0.1c-0.1-0.3-0.2-0.5-0.3-0.8c0-1-0.1-2.1,0.1-3.1
			c0.3-1.9,0.8-3.7,1.6-5.4c0.1-0.2,0.1-0.4,0.2-0.7c-0.2,0.1-0.4,0.1-0.5,0.2c-0.9,0.6-1.6,1.5-2,2.5c-0.5,1.6-0.7,3.3-0.1,5
			C46.9,39.4,47.1,40.2,47.4,41z"/>
		<path fill="#1691B2" d="M18.8,44.2c-0.1-1-0.3-2.2-0.4-3.3c-0.1-1-0.1-1.9-0.2-2.9c0,0,0-0.1,0-0.1c-0.3-1.4,0.1-2.7,0.1-4.1
			c0-0.7-0.1-1.5-0.2-2.2c0-0.6-0.1-1.2,0.4-1.6c0.1-0.1,0.3-0.3,0.5-0.3c0.8-0.2,1.6-0.4,2.4-0.4c0.8-0.1,0.9,0.1,0.9,0.9
			c0,1.1,0.1,2.3,0.2,3.4c0,0.6,0.1,1.1,0.1,1.7c0,0.3,0.1,0.5,0.4,0.5c1.4,0,2.8,0,4.2,0c0.1,0,0.3-0.2,0.3-0.3c0-0.3,0-0.6,0-0.9
			c0-1.5-0.1-3-0.1-4.6c0-0.6,0.2-0.7,0.9-0.6c0.4,0,0.4,0.4,0.5,0.7c0.1,1.7,0.2,3.4,0.3,5.1c0.1,1.8,0.1,3.5,0.2,5.3
			c0.1,0.9,0.2,1.7,0.3,2.6c0.1,0.5-0.1,0.8-0.6,0.8c-0.6,0.1-0.9-0.2-1-0.7c-0.1-1.7-0.2-3.5-0.2-5.2c0-0.7-0.1-0.9-0.8-0.9
			c-0.9,0-1.8-0.1-2.6,0c-0.5,0-1,0.1-1.6,0.2c0.1,1,0.2,2.1,0.3,3.3c0.1,1,0.3,2,0.3,3c0,0.2-0.4,0.6-0.6,0.7
			c-0.5,0.2-1.1,0.1-1.6,0.3C20.2,44.7,19.5,44.9,18.8,44.2z M21.1,31c-0.4,0.1-0.6,0.2-0.8,0.2c-0.5,0.1-0.7,0.4-0.6,0.9
			c0.1,1,0.2,2.1,0.1,3.1c-0.1,1.9,0,3.9,0.1,5.8c0,0.8,0.3,1.7,0.4,2.6c0.5-0.2,0.9-0.2,1.2-0.4c0.1,0,0.2-0.2,0.2-0.3
			c0-0.7-0.1-1.5-0.1-2.2c0-0.4-0.1-0.8-0.2-1.3c0-0.6,0-1.1-0.1-1.7c0-1-0.1-1.9-0.1-2.9C21.1,33.6,21.1,32.3,21.1,31z"/>
	</g>
	<path fill="#1691B2" d="M37.7,19.9c0.1,0.9,0.1,1.8,0.2,2.7c0.1,0.8,0.2,1.6,0.3,2.3c0.1,0.5-0.2,0.6-0.6,0.6
		c-1.2,0-2.3-0.1-3.5-0.2c-0.2,0-0.5-0.4-0.5-0.6c-0.1-1.4-0.1-2.8-0.2-4.1c-0.1-1.2-0.2-2.5-0.3-3.7c-0.1-1.5-0.2-3.1-0.3-4.6
		c0-0.4,0.4-0.9,0.8-1c0.8-0.1,1.6-0.2,2.4-0.2c0.2,0,0.4,0,0.5,0c1.2-0.3,2.4,0,3.4,0.6c0.8,0.5,1.7,1,2.1,1.9
		c0.1,0.2,0.2,0.4,0.2,0.6c0.1,1.5,0.1,3-0.7,4.3c-0.4,0.6-1,0.9-1.7,1c-0.3,0.1-0.6,0.2-1,0.2C38.5,19.9,38.2,19.9,37.7,19.9z
		 M37.7,18.9c0.6-0.2,1.2-0.3,1.7-0.5c0.3-0.1,0.5-0.3,0.7-0.5c0.7-1,0.6-2.2,0.6-3.3c0-0.3-0.2-0.6-0.4-0.8
		c-0.7-0.8-1.7-1.3-2.7-1.5c-0.5-0.1-0.7,0.1-0.6,0.5c0.1,1.2,0.3,2.4,0.4,3.6C37.5,17.2,37.6,18.1,37.7,18.9z M35.1,23.5
		C35.1,23.5,35.2,23.5,35.1,23.5c0.1,0.2,0.1,0.4,0.1,0.6c0,0.1,0.1,0.3,0.2,0.3c0.3,0,0.7,0.1,1,0c0.1-0.1,0.1-0.5,0.1-0.8
		c0-0.5-0.1-1.1-0.2-1.6c-0.1-1.2-0.1-2.5-0.3-3.7c-0.2-1.8-0.4-3.6-0.6-5.4c0-0.5-0.3-0.5-0.6-0.5c-0.4,0-0.4,0.2-0.4,0.5
		c0.1,1.3,0.3,2.5,0.3,3.8C34.9,19,35,21.3,35.1,23.5z"/>
	<path fill="#1691B2" d="M23,19.9c0.1,0.9,0.1,1.8,0.2,2.7c0.1,0.8,0.2,1.6,0.3,2.3c0.1,0.5-0.2,0.6-0.6,0.6c-1.2,0-2.3-0.1-3.5-0.2
		c-0.2,0-0.5-0.4-0.5-0.6c-0.1-1.4-0.1-2.8-0.2-4.1c-0.1-1.2-0.2-2.5-0.3-3.7c-0.1-1.5-0.2-3.1-0.3-4.6c0-0.4,0.4-0.9,0.8-1
		c0.8-0.1,1.6-0.2,2.4-0.2c0.2,0,0.4,0,0.5,0c1.2-0.3,2.4,0,3.4,0.6c0.8,0.5,1.7,1,2.1,1.9c0.1,0.2,0.2,0.4,0.2,0.6
		c0.1,1.5,0.1,3-0.7,4.3c-0.4,0.6-1,0.9-1.7,1c-0.3,0.1-0.6,0.2-1,0.2C23.8,19.9,23.5,19.9,23,19.9z M23,18.9
		c0.6-0.2,1.2-0.3,1.7-0.5c0.3-0.1,0.5-0.3,0.7-0.5c0.7-1,0.6-2.2,0.6-3.3c0-0.3-0.2-0.6-0.4-0.8c-0.7-0.8-1.7-1.3-2.7-1.5
		c-0.5-0.1-0.7,0.1-0.6,0.5c0.1,1.2,0.3,2.4,0.4,3.6C22.7,17.2,22.8,18.1,23,18.9z M20.4,23.5C20.4,23.5,20.4,23.5,20.4,23.5
		c0.1,0.2,0.1,0.4,0.1,0.6c0,0.1,0.1,0.3,0.2,0.3c0.3,0,0.7,0.1,1,0c0.1-0.1,0.1-0.5,0.1-0.8c0-0.5-0.1-1.1-0.2-1.6
		c-0.1-1.2-0.1-2.5-0.3-3.7c-0.2-1.8-0.4-3.6-0.6-5.4c0-0.5-0.3-0.5-0.6-0.5c-0.4,0-0.4,0.2-0.4,0.5c0.1,1.3,0.3,2.5,0.3,3.8
		C20.2,19,20.3,21.3,20.4,23.5z"/>
	<path fill="#1691B2" d="M36.3,58c0.1,0.9,0.1,1.8,0.2,2.8c0.1,0.8,0.2,1.6,0.3,2.4c0.1,0.5-0.2,0.6-0.6,0.6c-1.2,0-2.3-0.1-3.5-0.2
		c-0.2,0-0.5-0.4-0.5-0.6c-0.1-1.4-0.1-2.8-0.2-4.2c-0.1-1.2-0.2-2.5-0.3-3.7c-0.1-1.5-0.2-3.1-0.3-4.6c0-0.4,0.4-0.9,0.8-1
		c0.8-0.1,1.6-0.2,2.4-0.2c0.2,0,0.4,0,0.5,0c1.2-0.3,2.4,0,3.4,0.7c0.8,0.5,1.7,1,2.1,1.9c0.1,0.2,0.2,0.4,0.2,0.6
		c0.1,1.5,0.1,3-0.8,4.4c-0.4,0.6-1,0.9-1.7,1c-0.3,0.1-0.6,0.2-1,0.2C37.2,58,36.8,58,36.3,58z M36.3,57c0.6-0.2,1.2-0.3,1.7-0.5
		c0.3-0.1,0.6-0.3,0.7-0.5c0.7-1,0.6-2.2,0.6-3.4c0-0.3-0.2-0.6-0.4-0.8c-0.7-0.8-1.7-1.3-2.7-1.5c-0.5-0.1-0.7,0.1-0.6,0.5
		c0.1,1.2,0.3,2.4,0.4,3.6C36.1,55.3,36.2,56.2,36.3,57z M33.7,61.6C33.7,61.6,33.8,61.6,33.7,61.6c0.1,0.2,0.1,0.4,0.1,0.6
		c0,0.1,0.1,0.3,0.2,0.3c0.3,0,0.7,0.1,1,0c0.1-0.1,0.1-0.5,0.1-0.8c0-0.5-0.1-1.1-0.2-1.6c-0.1-1.2-0.1-2.5-0.3-3.7
		c-0.2-1.8-0.4-3.6-0.6-5.4c0-0.5-0.3-0.5-0.6-0.5c-0.4,0-0.4,0.2-0.4,0.6c0.1,1.3,0.3,2.5,0.3,3.8C33.5,57.1,33.6,59.4,33.7,61.6z"
		/>
	<path fill="#1691B2" d="M25.2,50.5c-0.4,0-0.8-0.1-1.2-0.1c-0.4,0-0.7,0.1-0.6,0.6c0.1,1.2,0.2,2.3,0.3,3.5c0,0.5,0.1,1,0.1,1.4
		c0,0.3,0.1,0.5,0.4,0.5c0.5,0,0.9,0,1.4,0.1c0.3,0,0.7,0.1,0.9,0.3c0.2,0.1,0.4,0.4,0.3,0.6c-0.1,0.2-0.3,0.5-0.6,0.5
		c-0.5,0.1-1,0-1.5,0c-0.8-0.1-0.8-0.1-0.6,0.7c0.2,1.1,0.4,2.1,0.5,3.2c0.1,0.4,0.2,0.5,0.6,0.5c0.7,0.1,1.4,0.2,2,0.3
		c0.4,0.1,0.6,0.4,0.6,0.8c0,0.3-0.6,0.7-0.9,0.6c-1.8-0.5-3.6-0.2-5.4-0.4c-0.5-0.1-1-0.2-1.4-0.4c-0.2-0.1-0.3-0.3-0.3-0.5
		c-0.2-2-0.3-4-0.4-6c-0.1-1.6-0.1-3.2-0.1-4.9c0-0.6,0-1.2,0-1.7c0-0.2,0-0.5,0.1-0.6c0.3-0.2,0.6-0.4,0.9-0.3
		c1.5,0.3,2.9-0.2,4.4-0.1c0.5,0,1,0.1,1.4,0.2c0.2,0.1,0.4,0.4,0.4,0.6c-0.1,0.2-0.3,0.5-0.6,0.6C25.7,50.6,25.4,50.5,25.2,50.5
		C25.2,50.5,25.2,50.5,25.2,50.5z M20.8,50.5c0,0.2-0.1,0.4-0.1,0.6c0,0.7,0.1,1.4,0.1,2.1c0,0.8,0,1.6,0,2.4
		c0.1,1.2,0.2,2.3,0.3,3.5c0.1,0.9,0.1,1.8,0.1,2.6c0,0.4,0.3,0.5,0.5,0.4c0.4,0,0.8-0.1,1.1-0.2c0,0,0,0,0-0.1
		c-0.1-0.8-0.1-1.6-0.3-2.4c-0.1-0.6-0.3-1.3-0.4-1.9c-0.1-0.9-0.1-1.9-0.2-2.9c-0.1-1.1-0.2-2.3-0.2-3.4
		C21.9,50.6,21.4,50.6,20.8,50.5z"/>
</g>
<g>
	<g>
		<path fill="#1691B2" d="M11.5,44.8c-1.2-1.2-3-1.2-4.5-1.2c-1,0-1,1.5,0,1.5c1.1,0,2.6-0.1,3.5,0.8C11.2,46.5,12.2,45.5,11.5,44.8
			L11.5,44.8z"/>
	</g>
</g>
<g>
	<g>
		<path fill="#1691B2" d="M62.6,61.3c1.7,0.8,3.5,1.1,5.4,1.1c1,0,1-1.5,0-1.5c-1.6,0-3.2-0.2-4.6-0.9
			C62.5,59.6,61.7,60.9,62.6,61.3L62.6,61.3z"/>
	</g>
</g>
<g>
	<g>
		<path fill="#1691B2" d="M5.6,23.3c1.7,0.8,3.5,1.1,5.4,1.1c1,0,1-1.5,0-1.5c-1.6,0-3.2-0.2-4.6-0.9C5.5,21.6,4.7,22.9,5.6,23.3
			L5.6,23.3z"/>
	</g>
</g>
<g>
	<g>
		<path fill="#1691B2" d="M67.6,26c-1.5,0.7-3,0.9-4.6,0.9c-1,0-1,1.5,0,1.5c1.9,0,3.7-0.3,5.4-1.1C69.3,26.9,68.5,25.6,67.6,26
			L67.6,26z"/>
	</g>
</g>
<g>
	<g>
		<path fill="#1691B2" d="M9.7,62.6c0.7-0.4,1.4-0.7,2.2-0.9c0.9-0.3,0.5-1.7-0.4-1.4c-0.9,0.3-1.7,0.6-2.5,1.1
			C8.1,61.8,8.9,63.1,9.7,62.6L9.7,62.6z"/>
	</g>
</g>
<g>
	<g>
		<path fill="#1691B2" d="M62.7,12.6c0.7-0.4,1.4-0.7,2.2-0.9c0.9-0.3,0.5-1.7-0.4-1.4c-0.9,0.3-1.7,0.6-2.5,1.1
			C61.1,11.8,61.9,13.1,62.7,12.6L62.7,12.6z"/>
	</g>
</g>
<g>
	<g>
		<path fill="#1691B2" d="M36.9,68.7c0,0.9,0.3,1.7,0.8,2.4c0.5,0.8,1.8,0,1.3-0.8c-0.3-0.5-0.5-1-0.6-1.6
			C38.4,67.7,36.9,67.7,36.9,68.7L36.9,68.7z"/>
	</g>
</g>
<g>
	<g>
		<path fill="#1691B2" d="M35.6,4.7c0,0.6-0.2,1.1-0.6,1.6c-0.5,0.8,0.8,1.6,1.3,0.8c0.5-0.7,0.7-1.5,0.8-2.4
			C37.1,3.7,35.6,3.7,35.6,4.7L35.6,4.7z"/>
	</g>
</g>
<g>
	<g>
		<path fill="#1691B2" d="M64,45.7c0.9,0,1.7-0.2,2.4-0.7c0.8-0.5,0.1-1.8-0.8-1.3c-0.5,0.3-1,0.5-1.6,0.5C63,44.2,63,45.7,64,45.7
			L64,45.7z"/>
	</g>
</g>
<g>
	<g>
		<path fill="#1691B2" d="M12.6,7.6c0.6,0.6,1.3,1.1,2.1,1.3c0.9,0.3,1.3-1.2,0.4-1.4C14.5,7.3,14,7,13.6,6.6
			C13,5.9,11.9,6.9,12.6,7.6L12.6,7.6z"/>
	</g>
</g>
</svg>
