<?xml version="1.0" encoding="utf-8"?>
<!-- Generator: Adobe Illustrator 17.1.0, SVG Export Plug-In . SVG Version: 6.00 Build 0)  -->
<!DOCTYPE svg PUBLIC "-//W3C//DTD SVG 1.1//EN" "http://www.w3.org/Graphics/SVG/1.1/DTD/svg11.dtd">
<svg version="1.1" id="Layer_1" xmlns="http://www.w3.org/2000/svg" xmlns:xlink="http://www.w3.org/1999/xlink" x="0px" y="0px"
	 viewBox="0 0 174 58" enable-background="new 0 0 174 58" xml:space="preserve">
<g>
	<g>
		
			<polyline fill="none" stroke="#918D8D" stroke-width="4" stroke-linecap="round" stroke-linejoin="round" stroke-miterlimit="10" points="
			150,9 132,9 132,46 150,46 		"/>
		
			<line fill="none" stroke="#918D8D" stroke-width="4" stroke-linecap="round" stroke-linejoin="round" stroke-miterlimit="10" x1="134" y1="27" x2="147" y2="27"/>
	</g>
	<g>
		
			<line fill="none" stroke="#918D8D" stroke-width="4" stroke-linecap="round" stroke-linejoin="round" stroke-miterlimit="10" x1="121" y1="8" x2="121" y2="45"/>
		
			<line fill="none" stroke="#918D8D" stroke-width="4" stroke-linecap="round" stroke-linejoin="round" stroke-miterlimit="10" x1="92" y1="8" x2="92" y2="45"/>
		
			<line fill="none" stroke="#918D8D" stroke-width="4" stroke-linecap="round" stroke-linejoin="round" stroke-miterlimit="10" x1="120" y1="8.2" x2="106.9" y2="17.1"/>
		
			<line fill="none" stroke="#918D8D" stroke-width="4" stroke-linecap="round" stroke-linejoin="round" stroke-miterlimit="10" x1="92.7" y1="7.7" x2="106.4" y2="17.1"/>
	</g>
	<path fill="none" stroke="#918D8D" stroke-width="4" stroke-linecap="round" stroke-linejoin="round" stroke-miterlimit="10" d="
		M83.9,26.5c0,10.5-6.1,18.2-13.6,18.2S56.7,37,56.7,26.5S62.8,8.3,70.3,8.3S83.9,16,83.9,26.5z"/>
	<g>
		
			<line fill="none" stroke="#918D8D" stroke-width="4" stroke-linecap="round" stroke-linejoin="round" stroke-miterlimit="10" x1="24" y1="8" x2="24" y2="45"/>
		
			<line fill="none" stroke="#918D8D" stroke-width="4" stroke-linecap="round" stroke-linejoin="round" stroke-miterlimit="10" x1="48" y1="8" x2="48" y2="45"/>
		
			<line fill="none" stroke="#918D8D" stroke-width="4" stroke-linecap="round" stroke-linejoin="round" stroke-miterlimit="10" x1="26" y1="28" x2="47" y2="28"/>
	</g>
	<path fill="none" stroke="#918D8D" stroke-width="4" stroke-linecap="round" stroke-linejoin="round" stroke-miterlimit="10" d="
		M15.4,3c0,0-25.5,24.1,0,52"/>
	<path fill="none" stroke="#918D8D" stroke-width="4" stroke-linecap="round" stroke-linejoin="round" stroke-miterlimit="10" d="
		M159.3,3c0,0,25.5,24.1,0,52"/>
</g>
</svg>
