<?xml version="1.0" encoding="utf-8"?>
<!-- Generator: Adobe Illustrator 17.1.0, SVG Export Plug-In . SVG Version: 6.00 Build 0)  -->
<!DOCTYPE svg PUBLIC "-//W3C//DTD SVG 1.1//EN" "http://www.w3.org/Graphics/SVG/1.1/DTD/svg11.dtd">
<svg version="1.1" id="Layer_1" xmlns="http://www.w3.org/2000/svg" xmlns:xlink="http://www.w3.org/1999/xlink" x="0px" y="0px"
	 viewBox="0 0 174 58" enable-background="new 0 0 174 58" xml:space="preserve">
<g>
	<g>
		
			<polyline fill="none" stroke="#D84748" stroke-width="4" stroke-linecap="round" stroke-linejoin="round" stroke-miterlimit="10" points="
			150,9.3 132,9.3 132,46.3 150,46.3 		"/>
		
			<line fill="none" stroke="#D84748" stroke-width="4" stroke-linecap="round" stroke-linejoin="round" stroke-miterlimit="10" x1="134" y1="27.3" x2="147" y2="27.3"/>
	</g>
	<g>
		
			<line fill="none" stroke="#D84748" stroke-width="4" stroke-linecap="round" stroke-linejoin="round" stroke-miterlimit="10" x1="121" y1="8.3" x2="121" y2="45.3"/>
		
			<line fill="none" stroke="#D84748" stroke-width="4" stroke-linecap="round" stroke-linejoin="round" stroke-miterlimit="10" x1="92" y1="8.3" x2="92" y2="45.3"/>
		
			<line fill="none" stroke="#D84748" stroke-width="4" stroke-linecap="round" stroke-linejoin="round" stroke-miterlimit="10" x1="120" y1="8.5" x2="106.9" y2="17.5"/>
		
			<line fill="none" stroke="#D84748" stroke-width="4" stroke-linecap="round" stroke-linejoin="round" stroke-miterlimit="10" x1="92.7" y1="8" x2="106.4" y2="17.5"/>
	</g>
	<path fill="none" stroke="#D84748" stroke-width="4" stroke-linecap="round" stroke-linejoin="round" stroke-miterlimit="10" d="
		M83.9,26.8c0,10.5-6.1,18.2-13.6,18.2s-13.6-7.6-13.6-18.2S62.8,8.7,70.3,8.7S83.9,16.3,83.9,26.8z"/>
	<g>
		
			<line fill="none" stroke="#D84748" stroke-width="4" stroke-linecap="round" stroke-linejoin="round" stroke-miterlimit="10" x1="24" y1="8.3" x2="24" y2="45.3"/>
		
			<line fill="none" stroke="#D84748" stroke-width="4" stroke-linecap="round" stroke-linejoin="round" stroke-miterlimit="10" x1="48" y1="8.3" x2="48" y2="45.3"/>
		
			<line fill="none" stroke="#D84748" stroke-width="4" stroke-linecap="round" stroke-linejoin="round" stroke-miterlimit="10" x1="26" y1="28.3" x2="47" y2="28.3"/>
	</g>
	<path fill="none" stroke="#D84748" stroke-width="4" stroke-linecap="round" stroke-linejoin="round" stroke-miterlimit="10" d="
		M15.4,3.3c0,0-25.5,24.1,0,52"/>
	<path fill="none" stroke="#D84748" stroke-width="4" stroke-linecap="round" stroke-linejoin="round" stroke-miterlimit="10" d="
		M159.3,3.3c0,0,25.5,24.1,0,52"/>
</g>
</svg>
