<?xml version="1.0" encoding="utf-8"?>
<!-- Generator: Adobe Illustrator 17.1.0, SVG Export Plug-In . SVG Version: 6.00 Build 0)  -->
<!DOCTYPE svg PUBLIC "-//W3C//DTD SVG 1.1//EN" "http://www.w3.org/Graphics/SVG/1.1/DTD/svg11.dtd">
<svg version="1.1" id="Layer_1" xmlns="http://www.w3.org/2000/svg" xmlns:xlink="http://www.w3.org/1999/xlink" x="0px" y="0px"
	 viewBox="0 0 35 43" enable-background="new 0 0 35 43" xml:space="preserve">
<g>
	<path fill="#B50B0B" stroke="#B50B0B" stroke-width="0.6811" stroke-miterlimit="10" d="M6.7,30.2c-1.9-1-2-2.4-1.5-4.3
		c1,0.3,1.9,0.5,2.7,0.7C8.6,28.4,7.7,29.3,6.7,30.2z"/>
	<path fill="#B50B0B" stroke="#000000" stroke-miterlimit="10" d="M1.5,8.2L2,9.9l2.9,2.4l5.2,1.8l4.4,4.5c0,0,6.6,3.8,6.6,4.6
		s4.6,4.1,4.6,4.1l2,4h3.5l2.3-4.3l-2.8-4.3l-8.5-6.2l-3.1-3.8l-0.5-3.9L18.3,5l-1.4-0.9l-3.4-1.7L7.6,3L3.4,5.5L1.5,8.2z"/>
	<path fill="#B50B0B" stroke="#B50B0B" stroke-miterlimit="10" d="M17.7,37.2l1,2.2c0,0,2.9,0.7,2.7,0.7s2.7,0.5,2.7,0.5l0.5-0.8
		l1.4-1l0.1-2.2l-1-0.3l-2.1,0h-3.1h-1L17.8,36L17.7,37.2z"/>
</g>
</svg>
