<?xml version="1.0" encoding="utf-8"?>
<!-- Generator: Adobe Illustrator 17.1.0, SVG Export Plug-In . SVG Version: 6.00 Build 0)  -->
<!DOCTYPE svg PUBLIC "-//W3C//DTD SVG 1.1//EN" "http://www.w3.org/Graphics/SVG/1.1/DTD/svg11.dtd">
<svg version="1.1" id="Layer_1" xmlns="http://www.w3.org/2000/svg" xmlns:xlink="http://www.w3.org/1999/xlink" x="0px" y="0px"
	 viewBox="0 0 35 43" enable-background="new 0 0 35 43" xml:space="preserve">
<g>
	<path fill="#2AB79C" stroke="#2AB79C" stroke-width="0.6811" stroke-miterlimit="10" d="M7,30.6c-1.9-1-2-2.4-1.5-4.3
		c1,0.3,1.9,0.5,2.7,0.7C8.9,28.8,8,29.7,7,30.6z"/>
	<path fill="#2AB79C" stroke="#000000" stroke-miterlimit="10" d="M1.8,8.6l0.5,1.7l2.9,2.4l5.2,1.8l4.4,4.5c0,0,6.6,3.8,6.6,4.6
		c0.1,0.8,4.6,4,4.6,4l2,3.9h3.5l2.3-4.2L31,23.1l-8.5-6.2l-3.1-3.8l-0.5-3.8l-0.3-3.8l-1.4-0.9l-3.4-1.7L7.9,3.4L3.7,5.9L1.8,8.6z"
		/>
	<path fill="#2AB79C" stroke="#2AB79C" stroke-miterlimit="10" d="M18,37.6l1,2.2c0,0,2.9,0.7,2.7,0.7s2.7,0.5,2.7,0.5l0.5-0.8
		l1.4-1l0.1-2.2l-1-0.4l-2.1-0.1h-3.1h-1l-1.1-0.2L18,37.6z"/>
</g>
</svg>
