<?xml version="1.0" encoding="utf-8"?>
<!-- Generator: Adobe Illustrator 17.1.0, SVG Export Plug-In . SVG Version: 6.00 Build 0)  -->
<!DOCTYPE svg PUBLIC "-//W3C//DTD SVG 1.1//EN" "http://www.w3.org/Graphics/SVG/1.1/DTD/svg11.dtd">
<svg version="1.1" id="Layer_1" xmlns="http://www.w3.org/2000/svg" xmlns:xlink="http://www.w3.org/1999/xlink" x="0px" y="0px"
	 viewBox="0 0 44 76" enable-background="new 0 0 44 76" xml:space="preserve">
<path fill="#A80505" stroke="#000000" stroke-width="0.6811" stroke-miterlimit="10" d="M22.4,35c3.8-0.4,5.1,0.6,5.3,3.8
	c0,1,0.2,2,0,2.9c-0.6,2.6,0,5.1,1,7.5c1.2,2.9,0.8,3.7-1.9,5.4c-1.1,0.7-2.4,1.3-3.4,2.2C22,58,20.7,59.3,20,60.7
	c-1.1,2.3-2.7,3.6-5.2,4.1c-2.5,0.5-4.9,1.5-7.4,2.2c-2.4,0.7-3.8,2.1-3.7,4.8c0,0.6-0.2,1.2-0.4,1.9C-0.7,67.3,1,61,6.8,58.3
	c2.3-1.1,4.1-2.5,5.7-4.3c1.2-1.3,2.8-2.3,4.3-3.4c3.1-2.4,6.2-4.8,5.7-9.4C22.2,39.1,22.4,37,22.4,35z"/>
<path fill="#A80505" stroke="#000000" stroke-width="0.681" stroke-miterlimit="10" d="M26.6,24.3c-0.8-1.6-1.5-3-2.2-4.3
	c1.3-3.3,5-5.6,3.6-9.7c2.2,0.4,4,1.1,5.8,1c2.1-0.1,3.8-0.8,4.4-3.5C39,4.9,40,4.7,42.9,6c-0.4,0.9-0.8,1.7-1.2,2.6
	c-0.5,1.3-0.9,2.7-1.5,4c-1.1,2.3-2.3,4.5-3.6,6.7c-0.3,0.5-1.2,1-1.8,0.9c-2.9-0.3-4.9,1.1-6.5,3.3C28,23.8,27.6,23.8,26.6,24.3z"
	/>
</svg>
