<?xml version="1.0" encoding="utf-8"?>
<!-- Generator: Adobe Illustrator 17.1.0, SVG Export Plug-In . SVG Version: 6.00 Build 0)  -->
<!DOCTYPE svg PUBLIC "-//W3C//DTD SVG 1.1//EN" "http://www.w3.org/Graphics/SVG/1.1/DTD/svg11.dtd">
<svg version="1.1" id="Layer_1" xmlns="http://www.w3.org/2000/svg" xmlns:xlink="http://www.w3.org/1999/xlink" x="0px" y="0px"
	 viewBox="0 0 20 33" enable-background="new 0 0 20 33" xml:space="preserve">
<path fill="#36D8B9" stroke="#000000" stroke-miterlimit="10" d="M12.2,31.4C11.7,28,9.7,25.3,7,23c-1.5-1.4-2.6-2.9-2.4-5.1
	c0.1-1.3-0.2-2.7-0.3-4.2c-1-0.6-2-1.2-3.1-1.9c0.1-3.1,2.4-4.4,4.7-5.5c1.7-0.8,3.2-1.6,4.1-3.4c0.8-1.5,4.2-2.4,5.6-1.4
	c0.6,0.4,1,1.7,0.8,2.4c-0.4,1.3-1.2,2.4-1.9,3.5c-2.3,3.7-3.4,7.3-0.4,11.2c1.4,1.8,2.3,4.1,3.5,6.1c0.9,1.5,1.8,3.1,0.4,4.7
	C16.6,31.1,15.1,32.9,12.2,31.4z"/>
</svg>
