<?xml version="1.0" encoding="utf-8"?>
<!-- Generator: Adobe Illustrator 17.1.0, SVG Export Plug-In . SVG Version: 6.00 Build 0)  -->
<!DOCTYPE svg PUBLIC "-//W3C//DTD SVG 1.1//EN" "http://www.w3.org/Graphics/SVG/1.1/DTD/svg11.dtd">
<svg version="1.1" id="Layer_1" xmlns="http://www.w3.org/2000/svg" xmlns:xlink="http://www.w3.org/1999/xlink" x="0px" y="0px"
	 viewBox="0 0 1065 665" enable-background="new 0 0 1065 665" xml:space="preserve">
<g>
	<path stroke="#000000" stroke-width="0.6811" stroke-miterlimit="10" d="M211.9,119.8c1.2,0.6,2.3,1.4,3.5,1.6c2.9,0.6,4.8,1.9,5,5
		c0.2,2.4,1.5,3.5,3.8,3.6c1,0.1,2,0.6,2.9,0.4c3.2-0.5,5.4,1.2,7.6,3c1.8,1.4,2,2.8,1,4.9c-0.3,0.7-0.8,1.3-1.1,1.9
		c-0.3,0.5-0.4,1.1-0.8,2c1.2,0.3,2.3,0.9,3.2,0.7c2.7-0.7,4.9,0.3,7,1.5c2.5,1.5,4.6,0.5,6.8-0.7c1.8-1,3.6-2,5.4-3
		c3-1.8,5.6-0.7,7.5,1.5c3.4,3.9,7.4,3.8,11.7,2.3c1-0.4,1.9-1.5,2.4-2.5c0.8-1.5,1.3-3.2,1.7-4.8c1.2-4.8,4.8-7.5,8.5-10.2
		c1.6-1.1,3.2-2.3,4.1-2.9c1-3.3,1.7-5.9,2.5-8.4c1-3.1,3.1-5.2,6.1-6.5c3.4-1.5,7.5,0.4,8,4.2c0.2,1.4,0.3,3.1-0.3,4.3
		c-1.6,3.3-3.7,6.3-5.5,9.5c-0.7,1.3-1.6,2.5-2.1,3.8c-1.4,4.2-1.2,8.5,0.1,12.7c0.7,2.2,2.1,3.8,4.5,4.5c3.1-3.2,3.4-7,2.2-10.9
		c-1.6-5.3-1.5-10.2,2.7-14.3c0.3-0.3,0.6-0.5,0.7-0.9c1.5-4.7,5.2-6.4,9.7-7.2c0.2,0,0.3-0.2,1-0.8c-1.7-0.5-3-1-4.4-1.2
		c-2.5-0.3-4.3-1.8-5.7-3.7c-0.6-0.8-0.9-2.1-0.8-3.1c0.4-2.6,1.3-5.2,1.8-7.8c0.2-1,0.1-2.1-0.1-3.1c-0.3-1.4-0.9-2.8-1.3-4.2
		c-0.6-2.1,0-3.9,1.8-5.2c1.8-1.3,3.4-0.9,5.1,0.3c3.1,2.1,6.5,2.4,9.6,0.3c1.7-1.1,2.9-3,4.5-4.8c-0.9-1.1-1.5-2.4-2.5-3.2
		c-3.4-2.9-3.6-6.9-2.8-10.5c1.5-6.1,3.7-12,8.2-16.7c1.7-1.8,4.1-3.3,6.5-3.9c1.8-0.5,3.9,0.5,6.5,1c0.7-1.3,1.3-3.1,2.4-4.7
		c5.7-8,4.9-8,15.2-10c4.5-0.9,9-1.6,13.5-2c5.5-0.4,10.7,0.7,15.3,4c0.7,0.5,1.3,1.1,2.1,1.5c3.9,2,4.5,5.6,4.6,9.4
		c0.1,1.6-0.4,3.2-0.6,4.7c-0.8,4.4-3.4,7-7.9,7.5c-2.7,0.3-4.5,1.6-5.9,3.9c-2.9,4.6-7.1,7.3-12.2,8.8c-2.9,0.8-5.9,1.7-8.9,2.6
		c-0.7,2.2-1.3,4.4-2,6.6c-0.6,2.3-1.9,3.9-4.1,4.8c-2.3,0.9-4.3,2.3-6.5,3.4c-2.7,1.4-3.5,3.6-3.1,6.5c0.2,1.2,0.3,2.5,0.1,3.6
		c-0.8,4.1-4.9,5.9-8.5,3.7c-0.7-0.4-1.4-1-2.1-1.6c-1.2-1.1-2.5-1.5-4.1-0.8c-1.8,0.8-3.5,0.1-5.3-0.5c-1.1-0.4-2.3-0.8-3.5-0.8
		c-0.6,0-1.2,0.9-1.8,1.5c0.5,0.6,1,1.5,1.7,1.6c1.6,0.3,3.2,0.1,4.8,0.2c1.7,0.1,3.4,0.1,5,0.6c3.5,1,5.2,4.2,4.4,7.4
		c-0.9,3.3-4.1,5-7.8,4.4c-2-0.4-4-0.5-6.1-0.4c4.2,1.9,8.4,3.9,12.6,5.6c1.6,0.7,2.5,1.6,3.2,3.2c2.1,4.4,4.5,8.7,6.8,13
		c2.6,4.7,5.4,9.3,7.6,14.3c0.8,1.9,0.6,4.7,0,6.8c-1,3.6,0.7,5.5,3.2,7.4c3.8,2.9,4.4,6.2,2.3,10.3c-2,3.8-5.2,5.1-9.2,3.7
		c-0.8-0.3-1.5-0.6-3.1-1.1c1.4,2.2,2.4,3.7,3.3,5.2c1.9,3.5,1.3,5.8-1.7,8.3c-5.5,4.7-11.3,2.6-15.5-2.3c-3.6-4.2-7.5-6.5-12.9-6.4
		c-3.1,0-5.6-1.6-7.8-3.6c-2.2-2.1-1.7-4.9,0.8-6.5c2.1-1.4,4.5-1.1,6.8-1.1c3.9-0.1,4.8-1,5.7-5.3c-1.2-0.7-2.6-1.5-3.9-2.2
		c-4-2.1-4.5-3.6-2.7-7.7c0.4-0.9,0.7-1.8,1.1-2.7c-3.4-1.9-5.6-0.9-6.2,2.6c-0.2,1.1-0.6,2.1-0.7,3.2c-0.5,4.5-2.6,7.5-7,9.4
		c-4,1.7-4.8,5.4-2.2,8.8c3.7,5-0.3,10.2-5.5,10.9c-4,0.5-7.8-0.4-11.5-2c-1.7-0.7-3.4-1.3-5.2-1.8c-3.2-0.9-5.7,0.3-7.6,2.9
		c-1.8,2.3-3.9,4.5-5.5,6.9c-1.4,2-2.5,4.2-3.5,6.5c-1.6,3.8-0.9,7.3,2,10.2c2.4,2.4,5.1,4.7,7.9,6.6c3.6,2.5,6.3,5.8,9.1,9.1
		c0.6,0.7,0.7,2.1,0.5,3c-0.4,2,0.3,3.6,1.5,5.1c1,1.1,2,1.3,3.4,0.2c-0.1-1.5-0.1-3.2-0.3-4.9c-0.2-2.3,0.5-4.1,2.3-5.5
		c1.5-1.2,3.1-2.4,4.7-3.5c1-0.7,2.1-1.3,3-2.1c1.8-1.6,2.1-2.7,0.9-4.9c-1.5-2.8-1.5-5.3,0.3-7.9c1.3-2,2-4.1,2.3-6.5
		c0.4-3.5,2.1-6.5,4.4-9.2c2.3-2.6,5.5-3,8.5-2.7c6.1,0.6,12,2.2,15.7,7.7c1.2,1.8,1.8,4,2.6,6c0.4,1,0.7,2,1.1,3.3
		c1.2-0.8,2-1.3,2.8-1.8c4.4-2.8,8.9-1.3,12,2.9c3.6,5,2.5,10.5,3.1,15.8c0.4,3.1,0.9,5.8,3.6,7.7c1.4,1,2.7,2.1,4.1,3
		c5.4,3.4,6,8.5,5,14.2c-0.5,2.9-0.8,5.8-1,8.8c-0.2,2.1,0.5,4.1,1.9,5.8c1,1.3,1.8,2.7,2.5,4.1c0.5,1,0.9,2.1,1,3.1
		c0.2,2.2,0.2,4.7-2.1,5.9c-2,1.1-4.4,1.1-6.3-0.3c-3.7-2.5-7.5-4-12.1-3.6c-2.8,0.2-4.4-1.8-5.5-4.2c-0.6-1.2-0.7-3-3-2.8
		c-0.6,1.4,0.2,2.5,0.7,3.7c1,2.6,2.1,5.2,2.8,7.9c0.7,2.8,0,4.1-2.9,4.4c-4.5,0.5-8.7,2.2-13.4,2.1c-4-0.1-8.3,1.3-9.8,6.2
		c-0.7,2.3-2.7,3.1-4.7,3.7c-2.8,0.9-5.6,1.9-8.5,2.5c-6.1,1.3-8.1,5.9-9.1,11.2c-0.7,3.5-1,7-1.3,10.6c-0.3,3.6-2.3,6-5.4,7.3
		c-2.4,1-5.1,1.6-7.8,2.1c-5.1,0.8-7.5,3.9-7.1,9c0.3,3.8,0.6,7.5,0.7,11.3c0,1.5-0.5,3.1-0.7,4.6c-5.7-0.1-8.7-2.4-10.5-7.3
		c-0.9-2.4-2.2-4.7-3.7-6.7c-3.1-4-8.8-4.2-12.2-0.5c-2.4,2.6-4.8,2.8-8,1.7c-2.4-0.8-5-1.2-7.5-1.6c-1.8-0.3-3.2,0.6-4.4,2.1
		c-3.4,4.2-5.5,9-6.3,14.3c-0.2,1.1-0.1,2.3,0.3,3.3c0.9,2.5,1.9,5.1,3.1,7.5c1.2,2.5,3,3,5.9,2.5c4.3-0.8,7.5-3.6,10.9-6
		c1.1-0.7,2.3-1.4,3.6-1.6c4.8-0.5,7.7,2.9,6.6,7.6c-0.4,1.8-1.3,3.4-2,5.1c-0.5,1.3-1.1,2.6-1.8,4.5c1.9,0.2,3.3,0.6,4.7,0.5
		c6.2-0.4,12.2,4.5,12.6,11.3c0,0.9,0.1,1.7,0.3,2.6c0.7,4.4,3.2,6.5,7.6,6.3c2.5-0.1,4.8-0.5,7-1.9c3-1.9,6.2-3.5,9.4-5
		c5.1-2.4,10.4-2,15.4,0c4.5,1.8,8.9,3.3,13.9,2.8c3.8-0.3,7.6,0.6,10.7,3.2c0.4,0.3,1.2,0.7,1.5,0.5c2.1-1.1,2.8,0.3,3.2,1.8
		c1.5,5.6,6.1,7.9,10.7,10.2c3.7,1.8,7.9,2.6,11,5.6c3.5,3.4,7.1,6.9,8.5,11.8c1,3.8,3.8,5,7.2,5.8c3.6,0.8,7.1,2,10.6,3
		c5.3,1.6,10.5,3.3,15.8,4.7c3.6,0.9,6.2,2.7,7.4,6.6c-3.1-1.1-6.2-2-9.2-3.2c-4.7-1.8-9.2-4.1-14.3-4.3c-0.4,0-0.8-0.1-1-0.3
		c-3.6-2.9-8.1-3.3-12.4-4.2c-3.7-0.8-5.3-3.6-6.2-6.8c-0.4-1.4-1-2.2-2.2-3.1c-1.8-1.4-3.4-3.2-4.8-5c-2.7-3.7-6.1-6.3-10.6-7.4
		c-3.7-0.8-6.5-3.2-9.5-5.4c-1.3-0.9-2.2-2.6-2.8-4.1c-1.4-3.4-3.6-5.9-7.3-6.5c-3.2-0.6-6.6-1-9.9-1c-3.6,0.1-6.8-1.1-9.8-2.6
		c-5.9-2.8-11.2-2-16.7,1.5c-4.8,3.1-10.2,5.3-16.1,5.2c-4.5-0.1-7.2-2.4-8.3-6.9c-0.4-1.9-0.8-3.9-1.2-5.8c-1-4.3-3.6-6.4-8-6.7
		c-1.6-0.1-3.2-0.2-4.8-0.4c-3.4-0.5-4.8-3-3.6-6.1c0.9-2.3,2.1-4.4,3-6.7c1.1-2.8,0.4-4.3-2.6-4.6c-1.4-0.2-2.9,0.2-4.2,0.8
		c-1.5,0.7-3,1.7-4.3,2.8c-2.5,2.2-5.6,2.9-8.7,3.7c-2.5,0.6-5-0.5-6.2-2.9c-2.7-5.3-5.1-10.7-2.7-16.9c0.5-1.2,0.4-2.6,0.6-3.5
		c-4.2-2.9-8.1-5.7-12.2-8.4c-1.3-0.8-2.9-1.3-4.4-1.7c-1.2-0.3-2.4-0.4-3.7-0.4c-2.9,0-4.9-1.4-6.2-3.9c-1.5-2.7-3.7-4.2-6.8-4.4
		c-1.1-0.1-2.2-0.5-3.2-0.7c-1.7-0.4-3.4-0.4-5.2,0.6c2.7,7.2,5.4,14.3,8,21.5c0.7,2.1,1.1,4.3,1.4,6.4c0.9,5.5,2.8,10.4,6.5,14.9
		c4.6,5.4,10.3,7.6,17,7.9c6.4,0.2,11.9,3,17.1,6.2c2.1,1.3,4.1,3.4,5.3,5.5c2,3.6,5.4,5.3,8.8,7c5.7,2.9,11.6,5.4,18,6.3
		c2.5,0.4,5.1,1.1,7.5,1.9c3.9,1.3,4.5,3.2,4.2,7.2c-0.4,6.4-2.9,11.8-6.8,16.7c-2.3,3-3.8,6.4-3.1,10.3c0.3,1.7,0.9,3.3,1.3,4.9
		c1.3,6.2,4.5,11.2,9,15.6c5.8,5.7,11.4,11.5,16.9,17.4c1.8,1.9,3.2,4,4.7,6.1c0.4,0.6,0.5,1.6,0.7,2.4c0.2,0.9,0.3,1.8,0.5,2.9
		c3.3-0.8,6.1-4.1,9.8-0.8c0.2,1.9,0.2,4.3,0.9,6.5c0.8,2.5,1.9,5.2,3.5,7.2c2.2,2.6,2,5.1,0.2,7.3c-2.5,3.2-1.9,6.4-1.1,9.8
		c1.2,4.4-0.1,8-2.6,11c0.2,2.1,0.3,4,0.5,5.9c0.1,1,0.2,1.9,0.4,2.9c1.8,6.9,2.1,13.7-0.1,20.6c-1.6,5-0.9,10.2-0.7,15.4
		c0.1,2.1,1.3,4.2,2.2,6.2c1.6,3.5,1.8,7,1.4,10.8c-0.4,3.9-1,8-0.3,11.7c0.7,3.3,3,6.4,4.8,9.4c0.4,0.7,1.7,0.8,2.6,1.1
		c0.9,0.3,1.9,0.4,2.9,0.7c2.6,0.7,4.4,2.1,4.5,5c0.1,1.4,0.4,2.9,0.9,4.3c0.3,1,0.8,2,1.5,2.8c1.4,1.6,2.9,3.2,4.7,5.1
		c1.1-0.6,2.5-1.5,4-2.3c-1.2-3.4-3.8-5.2-6-7.3c-4.7-4.5-5.5-9.9-4.4-15.8c0.9-4.6,2.2-9.1,1.6-13.8c0-0.1,0-0.3,0-0.4
		c-1.9-6.5,1.3-11.7,4.4-16.9c0.3-0.5,0.8-1,0.9-1.6c1.6-4.8,5.4-7.6,9.2-10.6c6.1-5,11.6-10.6,15.2-18c2.6-5.4,5.3-10.9,9.8-15.3
		c3.3-3.2,4.9-7.9,5.8-12.6c0.6-3,2.3-5,4.8-6.6c1.5-1,3-2.1,4.6-3c1.1-0.6,2.4-1.2,3.7-1.4c2.9-0.7,5.2-1.9,6.2-5
		c1.4-4.3,3.1-8.5,4.5-12.7c0.3-1,0.1-2.2,0.2-3.3c0.3-2.9,0.4-5.9,1-8.7c0.4-1.5,1.6-3,2.6-4.2c2.2-2.7,5.6-4.3,7.3-7.6
		c2.2-4.1,2-9.8-0.9-13.5c-0.3-0.4-0.9-0.6-1-1c-0.1-0.5-0.1-1.3,0.2-1.6c0.3-0.3,1.3-0.2,1.6,0.1c2.8,2.5,4,5.5,4.8,9.3
		c1,5.3-1.7,8.3-5,11.3c-0.8,0.7-1.6,1.5-2.5,2.2c-4,3.4-4.7,7.9-4.9,12.8c-0.2,5.1-1.4,10.2-3.7,14.9c-0.3,0.7-0.6,1.3-0.9,2
		c-1.3,2.9-3.3,5.2-6.4,6.3c-1.3,0.5-2.6,0.8-3.8,1.3c-4.4,2-8.6,4.2-9.8,9.6c-0.6,2.4-1.4,4.7-2.3,7c-0.4,1.1-0.9,2.4-1.8,3.1
		c-4.2,3.7-6.8,8.3-9.2,13.2c-2.5,5.3-5.2,10.6-9.1,15c-3.2,3.6-6.9,6.7-10.7,9.5c-2.8,1.9-4.6,4.4-6.2,7.1
		c-0.9,1.6-1.6,3.3-2.6,4.9c-3.5,5.1-3.6,10.7-2.7,16.6c0.4,2.4-0.3,5.1-0.6,7.6c-0.2,1.5-0.6,2.9-0.9,4.3
		c-0.9,5.5,0.5,10.2,4.8,13.9c1.4,1.2,2.8,2.4,4,3.8c1.9,2.1,2.1,4,0.1,5.8c-4.4,4.1-9,7.7-15.7,5.3c-2.3-0.8-4.8-1.1-7.1-1.8
		c-5.3-1.4-8.9-4.9-11.3-9.7c-0.6-1.2-1.1-2.5-1.9-3.5c-2.8-3.3-3.5-7.5-4.8-11.4c-2-6.2-1.5-12.7-2.2-19c-0.1-0.7-0.2-1.5,0.1-2.2
		c1.4-4.3,1.4-8.7,1.4-13.1c0-4.5,0.6-9.1,0.7-13.6c0.2-8.8,0.1-17.7,0.5-26.5c0.3-5.5-0.4-11,0.1-16.5c0.6-6.1-0.2-12-1.1-17.9
		c-0.6-3.7-2-7.3-3.1-11c-0.4-1.3-0.7-2.6-1.2-3.8c-0.3-0.8-0.5-1.7-1.1-2.3c-2.2-2.5-4.5-4.8-6.8-7.2c-5.3-5.6-10.2-11.6-16-16.7
		c-6.1-5.4-6.8-12.6-8-19.6c-0.8-5.1,1.4-10,5-13.8c4-4.2,4.7-9.3,4.8-14.7c0-1.4-0.7-2.2-1.9-2.9c-3.3-1.9-7-2.2-10.6-2.9
		c-9.8-1.9-19.2-4.9-25.8-13c-4-5-9.1-7.9-14.7-10c-3.3-1.2-6.9-1.6-10.5-1.8c-4.2-0.3-8.2-1.8-11.1-4.3c-5.2-4.5-9.7-9.8-10.1-17.3
		c-0.3-5.2-1.8-10.1-3.7-15c-1.3-3.3-2.1-6.8-3.3-10.1c-0.5-1.5-1.2-3-2.1-4.3c-1.7-2.9-3-2.9-5.6-0.6c1.4,2.2,3.1,5.2,4.4,7.3
		c-1.3,1.1-2.6,0.6-3.4-0.8c-0.6-1-1-2-1.6-2.9c-1.7-2.2-2.8-4.4-0.5-6.8c-2.4-3-4.6-5.9-9.1-4.8c-0.5,1.9,0.3,3.8,1.1,5.7
		c3.3,7,6.6,14,9.9,21c0.7,1.4,1,3,1.7,4.4c0.7,1.4,1.6,2.7,2.7,3.8c0.4,0.4,1.7,0.6,2.3,0.3c0.6-0.3,1-1.3,1-2.1
		c0-1.1-0.4-2.2-0.8-3.2c-1.3-3.4-2.7-6.9-3.9-10.3c-0.4-1-3.1-5.6-3.3-6.7c-0.2-0.8,3.6,2.4,3.9,2.3c0.7,0.7,1.2,2.1,1.7,2.9
		c2.4,4.1,4.6,8.3,5.3,13.1c0.5,3.2-0.8,4.8-5,6.1c-2.6,0.9-4.6,0-5.9-2.9c-2.1-4.6-3.9-9.3-6-13.9c-2.3-5-4.9-9.9-7.1-14.9
		c-1.6-3.8-3.7-7-6.6-9.9c-3.3-3.4-6.5-7.3-8.5-11.6c-1.9-4-2.4-8.7-3.4-13.1c-1.1-5.2,0-10.5,0.3-15.7c0.3-5.6,1.6-11.1,5.4-15.8
		c2.9-3.5,3.3-7.9,3.2-12.2c0-2.8-0.8-5.6-1.2-8.4c-0.3-2.5-0.2-4.9,0.8-7.2c1.6-3.5,0.8-6.7-1.6-9.5c-3.3-3.9-5.2-8.5-7.4-13
		c-0.3-0.7-0.5-1.4-1-2c-1.6-1.9-2-4.1-1.9-6.5c0.2-5.2-1.5-9.9-4.6-14.1c-3.1-4-7.1-6.3-12.3-6.4c-2.4,0-4.9-0.3-7.3-0.2
		c-6,0.2-10.9,2.5-14.3,7.7c-3.6,5.6-9.1,5.6-14.8,4.6c-1.4-0.3-2.9-0.7-4.2-1.2c-1.5-0.6-3.1,0-3.6,1.1c-1,2.4-3.6,2.9-4.9,4.8
		c-0.4,0.6-1.1,1-1.8,1.2c-6.9,2.8-13.7,5.8-20.7,8.3c-4.1,1.5-8.5,2-12.7,3.1c-2.8,0.7-5.5,1.8-8.4,2.3c-4.7,0.8-9.4,1.3-14.1,1.9
		c-3.3,0.4-5.9-1.3-8.4-3c-1.2-0.9-1.3-2.1-0.1-3.1c0.8-0.7,1.8-1.4,2.8-1.8c4-1.5,8-2.9,12.3-3.7c7.9-1.4,16.1-1.6,23.7-4.5
		c2.3-0.9,4.3-2.3,6.5-3.4c7.2-3.5,14.2-7.2,20.4-12.3c0.3-0.2,0.6-0.4,0.9-0.7c3.7-3.4,3.8-7.2,0.8-11.4c-2.6-3.7-5.9-7.2-6.5-12.1
		c-0.2-1.4-0.3-3,0.1-4.3c1.2-4.4,2.9-8.7,7.2-11.2c1.5-0.9,3.3-1.5,5-2c2-0.6,4.1-0.8,6.1-1.4c0.7-0.2,1.5-1.1,1.5-1.7
		c0-0.5-1-1.3-1.6-1.5c-3.6-1.3-6.2-3.7-8.3-6.9c-1.1-1.7-1.2-3.3,0.1-4.7c2.3-2.5,4.5-5.3,7.3-7.1c2-1.2,4.9-1.2,7.4-1.3
		c1.9-0.1,3.9,0.6,5.8,1c0.9,0.2,1.9,0.2,2.9,0.3c0.3-3.2,0.4-6.2,0.8-9.2c0.7-5.7,4.4-9.5,9.3-11.4c8.6-3.2,17.4-5.8,26.3-8.2
		c5.4-1.4,10,0.6,13.1,5.3c1.4,2.1,3.1,3.3,5.5,3.8c5.1,1.2,8.9,4,11,8.9c2,4.5,6.2,7.2,9.6,10.4c0.7,0.7,2.4,0.9,3.4,0.6
		c2.1-0.4,4.1-0.4,6.1,0.3c1.3,0.4,2.6,0.6,4,0.7c2.7,0.3,5.2,0.4,7.7-1.4c1.4-1,3.4-1.4,5.2-1.4
		C210.7,114.4,211.3,115.1,211.9,119.8c-3.2-3.7-7-4.2-11.6-2.2c-3.8,1.6-7.9,1.8-12,0.7c-1.1-0.3-2.2-0.4-3.3-0.4
		c-1.8,0.1-3.8,0.9-5.4,0.4c-1.6-0.4-3-2-4.6-3.1c-1.8,2.5-4,4.8-5.4,7.4c-3.9,7.1-7.6,14.3-11.2,21.6c-2.6,5-5,10.1-7.5,15.1
		c-1,1.8-2.3,3.5-3.4,5.2c-2.1,3.3-4.2,6.6-6.2,10c-0.7,1.2-0.6,2.4,0.3,3.8c1.6,2.1,3.3,2.9,6,2.2c3.9-1.1,5.9,0.1,6.6,4.1
		c0.5,3,0.8,6.2,0.5,9.2c-0.3,3.3,0.6,6,2.1,8.8c2.6,4.9,3.8,10.1,1,15.5c-0.9,1.8-1.4,3.8-0.9,6c0.5,2.5,0.2,5-0.7,7.6
		c-1.4,3.9-0.3,7.6,1.1,11.3c7.4,0.3,14.3,0.5,21.3,0.9c2.1,0.1,4.1,0.5,6.2,0.9c7.9,1.4,15.7,3.1,23.6,4.1
		c7.1,0.9,14.2,0.7,21.3,1.5c7.8,0.8,15.6,1.8,23.3,3.2c3.9,0.7,7.5,2.6,8.4,7.2c0.3,1.4,1.3,1.9,2.5,2.4c4.1,1.9,4.5,2.7,3.8,7.2
		c-0.2,1.6-0.8,3.1-1.2,4.6c-0.2,0.6-0.2,1.3-0.3,2.1c2.3-1.3,2.3-1.3,4.3-4.2c1.8-2.5,4.2-3.4,5.8-1.7c3.1,3.2,6.4,6.3,7.7,11.4
		c2-1,4-1.9,6-2.8c2-0.9,3.9-2,5.9-2.9c2-0.9,4.4-1.3,6-2.6c3-2.5,6.1-3.3,9.9-2.1c2.3,0.8,4.6,0.6,6.6-1.2c0.5-0.5,1.3-0.7,2-1
		c2.7-1.3,4.6-0.7,6.1,1.8c1.2,2,2.4,3.9,3.8,5.8c0.4,0.5,1.2,0.9,1.8,1c4.7,0.3,9.1-1.2,13.5-2.1c1.3-6.1-4.5-9.4-4.9-14.5
		c4.4-2.9,5.7-2.7,8.1,1.5c0.2,0.4,0.6,0.8,0.8,1.2c0.9,1.9,2.3,2.6,4.4,2.6c4.3,0,8.3,1.1,11.8,3.6c0.3,0.2,0.6,0.4,0.9,0.6
		c1.1,0.6,2.3,1,3.5,0c1.2-1,1.4-2.3,0.9-3.7c-0.4-1-1-2-1.6-2.9c-3.6-5.6-4.8-11.5-2.7-17.9c0.4-1.2,0.6-2.4,0.8-3.6
		c0.4-2.9-0.3-5.4-2.8-7.1c-1.2-0.8-2.3-2-3.5-2.7c-4.7-2.6-6.4-6.7-6.6-11.9c-0.2-4.4-0.6-8.7-2.1-13c-1.9-5.2-7.2-6.9-11.1-3.4
		c-0.8,0.8-2,1.3-2.9,1.9c-2.2-1.7-2.9-3.8-3.3-6c-1-4.8-3.9-7.8-8.5-9.3c-1-0.3-2.1-0.8-3.1-1.1c-9.4-2.7-13.2,0.9-14.8,8.7
		c-0.1,0.2,0,0.5-0.1,0.7c-0.6,1.6-0.9,3.4-1.8,4.8c-2.1,3.4-2.3,6.6,0,10c0.3,0.4,0.4,0.9,0.4,0.9c-0.9,4.2-4.1,5.9-7.1,7.5
		c-3.6,1.9-5.3,4.2-4.6,8.5c0.7,4.6,0.3,4.9-4.7,6.9c-2.4-2.5-5.2-4.8-4.5-9.2c0.2-0.9-0.2-2.3-0.9-2.9c-2.4-2.4-4.8-5.1-7.7-6.7
		c-3.6-2-6.4-4.9-9.3-7.7c-3.2-3-4-7.2-2.6-11.2c2.3-6.4,6.7-11.6,11.6-16.3c3.2-3.1,6.7-3.8,10.7-2c2.2,1,4.5,1.9,6.8,2.8
		c3.2,1.2,6.5,1.4,9.6-0.6c2.3-1.5,2.6-2.5,1.4-5.2c-0.6-1.3-1.3-2.7-1.7-4.1c-0.3-0.9-0.5-2-0.1-2.8c1.1-2.7,2.1-5.4,5.3-6.7
		c2.9-1.1,4.8-3.4,5.3-6.6c0.2-1.6,0.4-3.2,0.7-4.7c0.5-3,2.6-4.8,5.6-4.8c1.3,0,2.6,0.4,4,0.6c2,0.3,2.4,1.5,1.9,3.2
		c-0.6,1.9-1.3,3.6-2.2,6c1.9,1.4,3.7,2.9,5.8,4.1c1.2,0.7,1.9,1.6,1.8,2.9c-0.2,3.4-3.3,6.6-6.9,7.2c-1.3,0.2-2.7,0.1-4.1,0.2
		c-1.5,0.1-2.9,0.5-3.6,1.9c1.6,3.8,2.9,4.7,6.9,4.9c5.1,0.3,9.7,1.3,13.1,6.1c1.6,2.3,5,3.5,7.8,4.6c2.5,1,4.9-0.5,6.6-2.3
		c1.8-1.9,0.5-3.9-0.5-5.8c-0.5-0.9-1.2-1.6-1.7-2.4c-0.5-0.8-1.3-1.6-1.4-2.5c-0.1-0.8,0.1-2.1,0.7-2.6c0.6-0.5,1.7-0.6,2.6-0.6
		c0.5,0,1,0.6,1.6,0.9c2.9,1.7,6.2,1,7.7-1.7c1.7-3,2.1-6.3-1.9-8c-3.1-1.3-4.1-4-4-7.3c0.1-1.2,0.1-2.5,0.4-3.7
		c0.6-2.2,0.1-4.1-1-6c-2.6-4.3-5.3-8.6-7.7-13c-2-3.5-3.7-7.2-5.6-10.7c-0.7-1.3-1.4-2.8-2.6-3.4c-3.5-1.7-7.2-3.4-10.9-4.3
		c-3.9-0.9-8.1-1.5-11.5,1.6c-1.5,1.4-2.6,3.3-3.8,4.9c-2.7,3.4-3.3,7.2-2.3,11.5c0.6,2.7,0.8,5.6,1,8.3c0.1,0.8-0.4,1.7-0.9,2.3
		c-0.9,1.3-1.9,2.5-2.9,3.7c-3.4-0.9-6.6-2.9-7.2-5.2c-1.3-5.6-3.1-11.3-0.4-16.9c1.7-3.5,4-6.6,5.9-10c0.7-1.2,1.2-2.7,1.4-4.1
		c0.3-2.2-1.6-3.6-3.8-3c-3.7,1-6.9,5.1-7,9.9c-0.1,2.6-1.1,4.4-3.1,5.9c-0.9,0.6-1.7,1.4-2.7,1.9c-4.7,2.6-8.1,6.3-9.1,11.8
		c-0.1,0.6-0.3,1.2-0.6,1.7c-0.5,1-1,2-1.8,2.7c-4.2,4.2-9.4,4.2-13.9-0.3c-4.3-4.2-5.7-3.3-10.4-1c-0.5,0.3-0.9,1-1.4,1.1
		c-2.6,0.8-5.5,2.5-7.9,2c-3.1-0.6-6.2-1.2-9.4-1.4c-3.3-0.2-4.4-2.3-3.1-5.4c0.6-1.3,1.2-2.6,1.8-4c-2.1-2.2-4-3.7-7.1-3.6
		c-3.7,0.1-7.3-0.8-8.1-5.5c-0.5-2.7-1.9-4.3-5.1-3.9C212.3,123.5,211.8,122.3,211.9,119.8z M327.8,278.8c-0.7-1.2-1.5-2.3-2.1-3.6
		c-0.7-1.6-1.8-1.9-3.3-1.4c-0.8,0.2-1.7,0.5-2.3,1c-1.7,1.5-3.7,1.7-5.8,1.3c-1.6-0.3-3.2-0.2-4.8-0.2c-1.9-0.1-3.6,0.5-5,1.9
		c-2.5,2.4-5.8,2.7-8.9,3.7c-1.2,0.4-2.6,0.7-3.6,1.5c-2.7,2-5.8,2.7-8.9,3.1c-2.9,0.4-4.5-1.8-3.7-4.7c0.7-2.6-1.8-6.5-4.5-6.8
		c-0.8-0.1-1.8,0.5-2.4,1.1c-1.5,1.6-2.8,3.4-4.3,5c-1.4,1.5-3,1.3-3.7-0.6c-0.8-2-1.5-4.2-0.3-6.4c0.5-1,0.8-2,1.1-3.1
		c0.6-2.5,0-3.7-2.4-5c-1-0.6-2.1-1.4-2.4-2.4c-1.3-3.9-4.1-5.6-8-6.1c-2.5-0.3-5.1-0.7-7.6-1.2c-5-0.9-10.1-1.9-15.1-2.7
		c-1.9-0.3-4,0.4-5.8,0c-6.1-1.2-12.6,0.6-18.5-2c-5.9,0.2-11.4-1.8-17-2.7c-3.1-0.5-6.3-1-9.4-1.4c-4-0.4-8.1-0.6-12.1-1.1
		c-3-0.3-6-0.9-9.3-1.5c-0.4,1.8-0.7,3.2-1,4.6c-0.9,3.7-0.8,7.7-3.5,10.7c-3.8,4.2-4.8,9.4-4.9,14.8c0,1,0.1,2-0.1,2.9
		c-1.2,5.2-0.5,10.3,0.6,15.4c1.4,6.8,4.3,13,9.5,17.8c3.5,3.3,7.9,4.8,12.4,6c1.2,0.3,2.9,0.8,3.4,1.8c1.3,2.3,3.3,3.2,5.7,3.5
		c3.4,0.3,6.9,0.3,10.3,0.7c3.8,0.4,7.8,0.8,10,4.5c2.3,3.8,5.7,4.7,9.7,4.7c1.6,0,3.4,0.6,4.7,1.5c2.5,1.6,4.6,3.6,7,5.3
		c2.6,1.9,5.3,1.7,7.6-0.6c0.7-0.7,1.4-1.4,1.9-2.3c1.4-2.3,3.4-3.2,5.9-2.8c2.9,0.4,5.8,0.9,8.6,1.6c1.9,0.5,3.6,0.6,5.1-1
		c2.7-2.9,6.1-3.3,9.8-3.1c2.5,0.2,4.2,1.2,5.4,3.3c1.6,2.9,3.2,5.8,4.5,8.9c1.3,3,3.7,3.9,6.6,4.6c1-4,0.4-7.8-0.2-11.5
		c-1.1-7.7,1.5-13,9.7-13.7c1.2-0.1,2.4-0.6,3.5-1c1.5-0.6,2.8-1.6,4.3-2.1c1.5-0.5,2.2-1.4,2.4-2.9c0.3-2.9,0.7-5.9,0.8-8.8
		c0.4-8,5.1-16.4,14-17.3c4.4-0.5,8.5-2.3,10.6-7c0.9-2,2.5-3.3,4.8-3.6C326.8,279.5,327.3,279,327.8,278.8z M12,207.5
		c2,3.2,2,3.1,5.1,2.7c4.3-0.5,8.5-0.9,12.8-1.4c1.8-0.2,3.7-0.4,5.5-0.8c6.2-1.3,12-4.3,18.5-4.5c0.5,0,0.9-0.4,1.3-0.6
		c4.2-1.9,8.4-4.1,12.7-5.7c4.7-1.7,8.8-4.1,12-8.2c1.8-2.3,3.5-2.5,6.1-1.2c3,1.4,6.1,1.7,9.3,1.5c2.2-0.1,4.2-0.9,5.7-3
		c1.4-2,3.1-3.9,4.8-5.5c1.1-1,2.6-1.8,4-2.4c5.5-2.1,11.2-2.7,17-1.8c5.9,0.9,10.6,3.6,13.4,9c2,3.8,3.5,7.8,3.4,12.2
		c0,1.2,0.4,2.4,0.9,3.5c1.7,3.7,3.4,7.4,5.3,11c1.2,2.2,2.7,4.3,4.2,6.6c3-4.9,2.6-9.5,0.3-13.6c-2-3.6-3.6-7.1-2.9-11.5
		c0.4-2.5,0.2-5.2,0.1-7.7c-0.2-2.4-0.6-2.6-3-2.4c-1.4,0.1-3,0.1-4.4-0.2c-5.3-1.1-7.7-6.7-4.9-11.3c4.2-6.9,8.8-13.6,11.9-21.1
		c0.4-0.9,0.8-1.8,1.3-2.7c3-5.7,6-11.5,9.2-17.2c3.1-5.6,5.3-11.6,9.9-16.3c0.5-0.5,0.5-1.3,0.6-1.6c-1.3-2.1-2.7-3.7-3.5-5.6
		c-2.2-5.3-5.8-8.8-11.6-9.6c-1.9-0.3-3.4-1.1-4.6-2.8c-0.7-1-1.6-1.8-2.5-2.8c-2-2.3-4.6-3.3-7.6-3c-2.7,0.3-5.4,0.7-8,1.4
		c-4.1,1.1-8.2,2.5-12.2,3.9c-3.7,1.3-7.5,2.5-10.8,4.5c-3.8,2.2-5.9,5.8-5.5,10.5c0.1,1.5,0.3,2.9,0.2,4.4c0,2.9-0.6,3.6-3.4,3.6
		c-2.4,0-4.9-0.3-7.3-0.7c-3.1-0.5-5.9,0.3-8.3,2.1c-1.2,0.9-2.1,2-3.2,3.1c-2.6,2.6-2.7,3.5-0.4,6.2c1,1.1,2.5,1.9,3.8,2.7
		c1.3,0.7,2.8,1.1,3.9,2c2.3,1.8,2.1,4.6-0.6,5.9c-1.7,0.9-3.7,1.2-5.6,1.8c-2.1,0.7-4.4,1-6.2,2.1c-5.5,3.3-8.7,11.7-3.5,19
		c1.9,2.6,3.4,5.4,5,8.1c1,1.7,1.8,3.8,0.7,5.6c-1.3,2.3-2.7,4.9-4.7,6.5c-4.5,3.7-9.2,7.5-14.4,10c-5.9,2.8-11.7,6.2-18.2,7.5
		c-0.6,0.1-1.2,0.4-1.7,0.5c-2.9,0.8-5.9,1.7-8.8,2.2c-3.3,0.5-6.6,0.4-9.9,0.9C19.6,204.2,15.5,204.7,12,207.5z M330.3,105.1
		c-0.9,0-1.7,0.2-2.6,0c-1.4-0.3-2.9-0.6-4-1.4c-2.4-1.7-2.3-4.4,0.2-6c1.6-1.1,3.4-1.8,5.6-1c2.3,0.9,4.6,1.4,7.2,0.7
		c1.8-0.5,3.5,0.2,5,1.7c1.4,1.4,3.3,1.7,5.2,0.9c1.9-0.9,1.3-2.6,1.1-4.2c-0.5-4.8,0.9-8.7,5.7-10.7c1.4-0.6,2.5-1.6,3.9-2
		c2.9-0.9,4.7-2.9,4.9-5.8c0.3-5.2,3.4-7.2,7.9-8c0.2,0,0.5-0.1,0.7-0.1c6.3-1.5,11.7-4.5,15.4-10.1c1.6-2.4,3.8-3.6,6.5-3.6
		c3.4,0,5-1.9,5.9-4.6c1-3.1,1.4-6-1.5-8.7c-5.1-4.8-11.1-6.9-17.8-6.4c-5.9,0.4-11.7,1.6-17.5,2.6c-3.7,0.7-6.5,2.8-8.4,6.1
		c-1,1.7-1.9,3.5-2.8,5.2c-1.4,2.5-2.1,2.8-4.7,1.6c-1.4-0.6-2.7-1.3-4.2-0.5c-3.2,1.6-6.4,3.4-8,6.8c-1.4,2.7-2.6,5.5-3.7,8.4
		c-1.6,4.3-1.3,8.2,2.5,11.4c0.6,0.5,1.1,1.3,1.5,2.1c0.9,1.9,0.9,3.6-0.2,5.6c-1.9,3.3-4,5.9-8.4,6.3c-2.3,0.2-4.2,0.6-6.1-1.2
		c-0.7-0.6-1.7-1-2.6-1.3c-1.8-0.5-3,0.3-2.7,2.2c0.2,1.4,0.6,2.9,1.3,4.2c0.9,1.7,0.9,3.3,0.5,5c-0.4,1.4-0.9,2.8-1.3,4.2
		c-1,2.8-0.4,4.3,2.3,5.5c0.9,0.4,1.9,0.7,2.8,0.8c5,0.6,10,1.2,15,1.8c0.5,0.1,1.1,0.2,1.4-0.1c0.9-0.7,2-1.4,2.6-2.3
		c0.7-1.2-0.4-1.8-1.2-2.7C335.3,105,332.9,104.9,330.3,105.1z M331.2,630.4c0.1-0.3,0.1-0.6,0.2-0.9c-2-2.4-4.7-4.5-4.7-8.1
		c0-3.5-1.8-5.3-5.1-6.2c-1.7-0.4-3.8-1.4-4.6-2.8c-2.8-4.5-5.4-9.1-5-14.7c0.2-3.1,0.2-6.1,0.3-9.2c0.1-3-0.2-5.8-1.6-8.6
		c-1.5-3.1-2.3-6.5-2.1-10c0.4-4.7,0-9.5,1.3-14.2c1.6-5.8,0.6-11.7-0.3-17.6c-0.7-4.8-0.9-9.4,0.9-14.1c0.5-1.3,0.8-3,0.4-4.3
		c-1.2-4.7-0.8-9.2,1.4-13.5c0.7-1.4,0.2-2.6-0.7-4c-2.1-3.2-4.3-6.5-4-10.7c0.1-1.6,0.1-3.3-2-4.3c-1.1,0.4-2.5,0.9-4,1.5
		c3.2,9.2,4.3,18.2,3.8,27.5c-0.5,10.7,0.8,21.3-0.1,32.1c-0.7,8.8-0.5,17.7-0.7,26.5c0,1.1-0.1,2.2-0.4,3.3
		c-2.3,10-1.1,19.7,1.5,29.5c1.5,5.6,4.8,10.2,7.9,14.9c1.4,2.2,3.6,3.6,6.2,4.4c1.4,0.4,2.7,1.1,4.1,1.5
		C326.5,629.3,328.8,629.8,331.2,630.4z"/>
	<path stroke="#000000" stroke-width="0.6811" stroke-miterlimit="10" d="M372.4,94.2c-2.6-3.3-1.7-5.7,0.1-7.4c2-1.9,4.5-3.4,6.8-5
		c0.8-0.6,1.7-1,2.6-1.4c2.9-1.3,5-3.3,6.3-6.3c1.3-2.9,3.9-4.7,6.7-6c3.5-1.7,6.5-3.8,8.5-7.3c1-1.6,2.4-3.3,4-4.2
		c2.9-1.8,6-2.6,9.4-0.6c3.7,2.3,7.9,3.2,12.1,4.2c2.1,0.5,3.5,0,4.3-1.7c0.9-1.9,1.6-3.8,2.2-5.8c0.7-2.5,3.9-5.5,6.4-5.1
		c2.6,0.4,4.5-0.7,6.6-1.6c4.4-1.8,8.9-1.9,13.7-1.4c5.1,0.5,7.7,3.3,10.7,6.8c2.3,2.7,5.3,4.7,8,7.1c0.9,0.8,1.9,1.5,3,2.3
		c-0.3,1.8-0.5,3.6-0.8,5.6c0.8,0.1,1.4,0.4,1.9,0.2c3.2-0.7,5.7,0.7,8.3,2.3c2.4,1.5,3.1,3.7,3.1,6.2c0.2,4.5-1.8,8.2-4.9,11.1
		c-4.3,4.1-7.5,8.8-9.6,14.2c-2,4.9-3.6,9.9-3.8,15.3c-0.1,2.8,1.1,5.2,1.8,7.8c0.9,3.2,1.1,5.9-2,8.1c-1.4,1-2.5,2.4-3.8,3.5
		c-2.2,1.8-3.4,4.2-3.8,7c-0.4,2.3-0.8,4.7-0.7,7c0.3,6.8-3.5,11-8.9,14.1c-6.6,3.8-13.2,7.5-19.2,12.3c-4.2,3.4-9.3,6-14.3,8.3
		c-5.5,2.4-10.1,5.8-13.5,10.5c-1.9,2.6-3,5.9-4,9c-1.6,5.4-4.5,6.7-9.1,7.1c-2,0.2-4.1-0.2-5.6-2.2c-2.1-2.8-4.5-5.5-6.9-8.1
		c-2.8-3-4.7-6.3-5.1-10.4c-0.1-1.3-0.6-2.6-0.9-3.9c-2.2-8-0.7-15.3,4.6-21.7c1.9-2.3,3.6-4.7,5.1-7.2c1.8-3.3,2-6.5-1-9.4
		c-2.1-2-3.4-4.3-2.7-7.6c0.3-1.7-0.2-3.7-0.9-5.4c-2.1-5.5-2.2-11.4-2.1-17.1c0-4.1-3.4-8.1-7.4-7.9c-2.1,0.1-4.2-0.3-6.2-0.3
		c-4.4-0.1-8.5-6.1-6.8-10.2c1.3-2.9,3.6-3.3,6.9-3.8c-2.5,2-4.3,3.5-4.1,6.3c0.2,3.5,1.7,5.4,5.3,5.9c1.7,0.2,3.4,0.3,5.2,0.3
		c7.5,0.3,11.5,5,10.7,12.3c-0.5,4.3-0.2,8.5,1.2,12.7c0.8,2.5,1.5,5.3,1.3,7.9c-0.2,2.3,0.7,3.8,2,5.2c3.6,4.2,3.9,8.8,0.7,13.4
		c-1.2,1.8-2.5,3.7-4,5.3c-2.4,2.5-3.8,5.4-4.8,8.6c-0.6,2-0.9,4.4-0.6,6.5c0.5,3.9,1.3,7.7,2.1,11.6c0.6,2.7,2,4.9,4,6.9
		c2.5,2.4,4.6,5.1,6.7,7.8c1.3,1.7,2.7,2.5,4.7,2.1c2.3-0.5,4.1-1.7,4.9-4c0.9-2.4,1.9-4.8,2.9-7.1c3.4-7.7,9.2-12.9,17-15.8
		c0.7-0.3,1.4-0.5,2-0.9c6.4-4.4,13.7-7.8,19.2-13.5c0.8-0.8,1.8-1.6,2.8-1.7c4.7-0.8,8-4,11.9-6.2c2.7-1.5,3.7-3.9,4.1-6.9
		c0.6-4.6,1.5-9.2,2.5-13.7c0.5-2.5,2-4.5,4-6c0.8-0.6,1.5-1.3,2.3-1.9c2.3-1.6,2.6-3.7,2-6.2c-0.4-1.7-0.9-3.3-1.4-5
		c-0.8-2.8-0.8-5.5-0.2-8.4c1.4-6.8,3.6-13.3,7.3-19.2c1.8-2.8,3.8-5.6,6.4-7.9c1.9-1.7,3.1-4.4,4.2-6.8c0.8-1.7,0-3.4-1.6-4.5
		c-2.5-1.8-5.2-2.7-8.3-1.9c-3.3,0.8-4.2-0.2-3.9-3.5c0.1-1,0.5-2,0.3-2.9c-0.2-1.1-0.6-2.6-1.4-3.2c-4.2-3.1-7.8-6.6-10.9-10.8
		c-0.6-0.8-1.7-1.6-2.7-1.8c-5.6-1.3-11.1-1.8-16.6,0.6c-2,0.9-4.2,1.4-6.3,1.7c-2.8,0.4-4.5,1.6-5.2,4.4c-0.5,2.1-1.4,4.2-2.4,6.2
		c-1,1.9-2.5,2.8-4.9,2.1c-2.8-0.8-5.8-1.2-8.6-1.8c-1-0.2-2.1-0.7-3-1.3c-5.3-3.6-9.5-2.8-13.1,2.5c-1.2,1.7-2.4,3.4-3.9,4.9
		c-1.2,1.2-2.7,2-4.3,2.7c-3.1,1.4-5.8,3.1-7.2,6.4c-1.2,2.8-3.3,4.7-6.2,6c-2.6,1.1-4.9,2.8-7.3,4.2
		C373.4,88,371.6,90.1,372.4,94.2z"/>
	<path stroke="#000000" stroke-width="0.6811" stroke-miterlimit="10" d="M830.8,391.8c0.8-4,2.3-4.7,6.3-3.2c2,0.8,3.6,1.8,4.7,3.8
		c3,5.3,8.3,4.7,11.8,1.6c3.9-3.3,4.1-6.2,1.5-10.7c-0.9-1.5-1.5-3.1-2.3-4.6c-1.2-2.5-2.4-5-4.6-7c-4.2-3.8-3.7-6.9-1.6-12.4
		c0.3-0.9,1.4-1.9,2.3-2.1c2.2-0.6,4.5-1.1,6.8-1.2c2.3-0.1,4.6,0.5,7,0.7c4.1,0.4,7.8-0.8,10.8-3.6c3.7-3.5,6.6-7.5,8.5-12.3
		c1.5-3.8,4.2-7.3,4.5-11.6c0.2-2.7,0.3-5.4-0.2-8c-0.4-1.9-1.6-3.9-2.9-5.4c-3.4-3.8-3.8-8.4-3.6-13.1c0-0.8,0.5-1.7,1.1-2.2
		c1.3-1.4,2.9-2.6,2.1-4.7c-0.8-2.2-3.2-2-5-2.6c-0.3-0.1-0.7,0-1.1,0c-5.5,0.7-5.5,0.7-6.8-4.5c-0.2-1-0.2-2.4,0.4-3.1
		c1.1-1.5,2.7-2.8,4.1-4.1c1.6-1.3,3.3-1.3,5.1-0.3c0.5,0.3,1.2,0,1.8,0c0.2,0.2,0.4,0.3,0.6,0.5c0.8,0.9,1,2.6,2.8,2.5
		c1.9-0.1,2-1.8,2.3-2.9c1.1-3.7,3.7-5.6,6.9-6.9c1.2-0.5,2-1.2,2.6-2.4c0.9-2.1,2.8-3,5-3.1c2.1-0.1,4.1-0.3,5.4-2.4
		c0.2-0.4,1-0.6,1.5-0.6c1.5-0.1,4-1.1,6.1-1.1c-0.7,0.9-1.4,2.2-2,2.2c-3.3,0.6-4.5,3.1-4.1,6.4c0.2,2.2-0.9,5.1-2.4,6.7
		c-2.3,2.6-1.2,4.8-0.4,7.1c0.5,1.4,1.3,2.7,2.3,3.8c1.7,1.8,2.2,3.9,2.4,6.2c0.4,4.7-5.9,9.8-10.3,8c-0.8-0.3-1.7-1.4-1.7-2.1
		c-0.3-3.8-3.2-6-5.3-8.6c-1.4-1.7-2.5-3.4-2.4-5.5c0-2-1.1-2.3-2.6-2.2c-0.9,0-1.7,0-2.6,0.2c-2.6,0.6-4.7,0.3-6.3-2.3
		c-1-1.7-3.5-1.4-5.1,0.2c-1.4,1.3-1.6,4.6-0.2,5.2c1.6,0.7,3.5,1.2,5.1,0.9c3.2-0.6,5.2,1.2,7,3.2c0.6,0.7,0.7,2.4,0.3,3.4
		c-0.5,1.5-1.4,3-2.6,4c-1.6,1.3-1.7,2.8-1.4,4.6c0.4,3,1.4,5.8,3.7,7.8c1.5,1.3,2,2.9,2.6,4.7c1.8,5.6,1.5,11.3-0.9,16.1
		c-3.6,7-6.6,14.3-12.5,20.1c-4.9,4.7-10,5.6-16.1,4.5c-2-0.4-4.2-0.6-6.2-0.5c-4.7,0.1-6.9,4.2-4.8,8.5c0.4,0.9,0.6,2.1,1.3,2.6
		c5,3.2,5.1,9.5,8.9,13.5c2.2,2.3,1,4.9,0,7.3c-1.9,4.6-5.4,7.4-10.4,8.1c-0.7,0.1-1.6,0.3-2.1-0.1c-2.3-1.6-5-2.5-6.7-5
		c-1.9-2.8-3.1-2.9-6.5-1.5C832.3,392.2,831.5,391.9,830.8,391.8L830.8,391.8z M901.6,302c2.9,1.5,4.4-0.3,5.8-2
		c1.4-1.6,0.5-3.2-0.4-4.7c-1.2-2-2.1-4.2-3.5-6.1c-3-3.9-1.9-7.5,0.4-11.2c0.7-1.1,1.6-2.3,1.9-3.5c0.2-0.7-0.2-2-0.8-2.4
		c-1.3-1-4.7-0.1-5.6,1.4c-1,1.8-2.4,2.6-4.1,3.4c-2.3,1.1-4.6,2.3-4.7,5.5c1.1,0.7,2.1,1.3,3.1,1.9c0.1,1.5,0.4,2.8,0.3,4.2
		c-0.2,2.2,0.8,3.8,2.4,5.1C899.1,295.9,901.2,298.5,901.6,302z"/>
	<path stroke="#000000" stroke-width="0.6811" stroke-miterlimit="10" d="M898.8,378.6c1.2,0.8,2.3,1.5,3.2,2.2
		c2.5,2,2.9,4.7,1.2,7.4c-1.6,2.5-1.5,4.1,0.6,6.1c1,0.9,2.3,1.7,2.8,2.9c1,2.2,0.4,4.6-1.2,6.2c-1.6,1.6-3.8,2.5-5.8,3.6
		c-1.5,0.8-3.3,1.2-4.6,2.2c-2.9,2.4-5.9,4.7-7.6,8.3c-0.6,1.2-1,2.5-1.2,3.8c-0.3,2.9-0.2,5.9-0.6,8.8c-0.5,3.8-2.6,6.9-5.3,9.4
		c-0.9,0.9-2.7,1.3-4.1,1.1c-2.8-0.3-5.4-0.9-8.3-0.7c-3.9,0.4-7.3-2.8-8.4-6.7c-1.1-4-1-7.6,1.5-11.2c1.3-1.9,2.9-2.9,5.1-3.2
		c1.6-0.2,3.1-0.5,4.7-0.9c1.4-0.4,2.4-1.4,3.2-2.8c1.6-2.7,3.8-5,5.6-7.6c0.6-0.8,1.2-2,1-2.9c-0.6-3.1,1.4-5,3-7.1
		c0.2-0.3,0.6-0.4,0.9-0.6c4.6-2.5,5.3-6.6,5-11.3c0-0.7-0.4-1.7,0-2.1c2.1-2.4,0.7-4.9,0.3-7.3c-0.8-4.2,0.1-7.7,3.6-10.4
		c1.1-0.9,2.1-1,3-0.2c2,1.8,3.9,3.8,3.3,6.9C899.2,374.5,899.1,376.5,898.8,378.6z M877.3,436.4c3.1,0.3,4.7-1.9,5.7-4.3
		c0.8-1.9,0.8-4.3,0.7-6.4c-0.1-3.9-0.5-7.8,2.2-11.2c1.2-1.4,0.7-2.7-0.7-3.8c-1.7-1.2-3.5-1.3-5,0.3c-1.5,1.7-2.9,3.7-3.8,5.7
		c-1.5,3.5-4.4,4.7-7.8,5.3c-0.5,0.1-1,0-1.5,0c-2.7,0.4-4.6,1.6-4.9,4.5c-0.1,0.6-0.2,1.2-0.4,1.8c-1,4,0.4,6.5,4.5,7
		C869.9,436,873.6,436.1,877.3,436.4z M901.5,384.5c-0.6-0.5-1.4-1.7-2.6-2.2c-2.2-1-2.7-2.7-2.8-4.8c0-1.3,0.2-2.7,0.4-4
		c0.4-2.2,0.1-4-2.2-5.8c-2.2,2.5-3,5.2-2.3,8.2c0.7,2.9,1.4,5.7,0.9,8.6c-0.2,1.3-0.8,2.6-0.8,3.9c-0.1,3.8-1.6,6.8-4.4,9.3
		c-1.4,1.2-2.5,2.7-3.6,4.2c-0.9,1.3-1.2,2.7,0.2,4c1.5,1.3,3.1,2.7,4.3,3.8c4.4-2.3,8.5-4.4,12.6-6.5c0.2-0.1,0.4-0.2,0.6-0.4
		c2.8-1.8,3-4,0.5-6.2c-1.8-1.6-3.5-3.4-3-6.1C899.8,388.7,900.7,386.9,901.5,384.5z"/>
	<path stroke="#000000" stroke-width="0.6811" stroke-miterlimit="10" d="M242.4,123.1c-1.6-0.9-3.1-2-4.7-2.5
		c-2.7-0.8-3.9-2.3-3.8-5.1c0-0.6-0.3-1.1-0.5-2c-1.1,0.3-2,0.6-2.9,0.9c-4.8,1.8-10.1-2.2-9.5-7.3c0.3-2.8,1.4-5.1,4.4-5.7
		c3.1-0.6,4.7-2.5,6-5.2c2.4-5,4.3-5.8,9.7-5c1.9,0.3,3.8,0.7,5.8,0.8c4.3,0.3,6.9,3.2,8.9,6.3c1.2,1.9,1.4,4.7,1.6,7.1
		c0.3,2.6,1.5,4.3,4,5.7c0.8-0.9,1.5-1.7,2.1-2.6c0.8-1.1,1.5-2.2,2.3-3.3c3.4-5,9.6-2.5,11.5,1.2c0.3,0.5,0.6,1.2,0.4,1.7
		c-0.9,4.1-0.6,8.6-4.1,12c-1,1-1.7,2.4-2.5,3.7c-1,1.7-1.2,3.3-0.2,5.2c1.2,2.4,2.6,5.2,0.1,7.4c-2.7,2.5-6.1,3-9.6,1.8
		c-0.7-0.2-1.3-0.6-1.9-1.1c-2.8-1.9-5.7-1.9-8.8-0.7c-1.5,0.6-3,1.1-4.6,1.4c-3.9,0.9-6.9-0.3-9.1-3.8c-1.3-2.2-2.9-4.2-2.5-7.1
		c0.3-1.6,0.9-2.4,2.5-2.5c1.7-0.1,3.4-0.4,5.1-0.6C242.2,123.7,242.3,123.4,242.4,123.1z M237.1,127c-0.7,4,1.6,6.2,3.9,8.4
		c0.6,0.5,1.9,0.6,2.8,0.4c2-0.4,4.1-1,6-1.7c3.7-1.4,7.2-1.4,10.6,0.5c1.1,0.6,2.2,1.4,3.3,1.4c1.7-0.1,3.8-0.3,5.1-1.3
		c1.4-1.2,0.8-3.2-0.2-4.7c-1.7-2.6-1.2-4.9,0.2-7.5c2-3.7,4.7-7.1,5.1-11.7c0.3-3.3,0.1-4.8-1.7-5.4c-1.7-0.6-3.2,0.4-4.8,3
		c-0.9,1.4-1.8,3-3,4.1c-2.3,2.1-5.1,1.8-7.1-0.6c-1.9-2.2-2.9-4.6-3-7.7c-0.2-5.7-4.2-9.5-9.8-10c-0.9-0.1-1.7-0.1-2.6-0.2
		c-5-0.8-6.1-0.5-8.2,3.9c-1.4,2.9-3.4,4.7-6.3,5.7c-1.8,0.6-2.8,1.9-3.5,3.6c-0.7,1.6-0.9,3,0.3,4.5c1.3,1.5,2.9,1.6,4.7,0.9
		c1.5-0.6,3-1.2,4.5-1.3c3-0.2,3.8,1.1,3.1,4.1c-0.1,0.6-0.2,1.2-0.3,2.1c1.3,0.6,2.5,1.2,3.6,1.8c1.1,0.6,2.3,1,3.2,1.8
		c1.2,0.9,2.4,2,1.8,3.7c-0.6,1.5-1.9,2.1-3.5,2.2C240,126.8,238.5,126.9,237.1,127z"/>
	<path stroke="#000000" stroke-width="0.6811" stroke-miterlimit="10" d="M915.5,326.3c-1.9-0.5-3-2-3.7-4
		c-1.3-4.1-2.5-8.1-0.4-12.4c1-2.1,2.3-3.7,4.4-4.7c1.1-0.5,2.4-0.9,3.2-1.7c3.2-3.4,6.5-6.6,10.2-9.3c0.4-0.3,0.7-0.8,0.7-1.2
		c0.5-3.5,1-7,1.3-10.5c0.2-2.6,0.2-2.9,2.8-3.3c5.2-0.8,7.4,0.3,9.6,4.6c0.3,0.7,0.6,1.7,0.4,2.4c-1.1,4.6-0.9,9,1.9,12.8
		c-1.5,4-4.1,6.5-7.8,8.1c-1.1,0.5-2.3,2-2.5,3.3c-0.7,3.6-3.3,4.6-6.2,5.2c-1.6,0.3-3.2,0.3-4.7,0.6c-2.9,0.5-4.6,2-4.8,4.8
		C919.8,323.9,918.8,325.7,915.5,326.3z M934.6,283.5c0,2-0.2,4.1,0,6.1c0.5,4.7-2.6,7-5.7,9.4c-1.4,1.1-3.1,2-4.3,3.4
		c-1.6,1.9-3.4,3.3-5.7,4.3c-5.8,2.7-7.5,9-3.4,15.4c0.1-0.7,0.4-1.3,0.4-1.9c-0.1-2.6,1.2-4.1,3.7-4.8c2.5-0.7,4.9-1.7,7.4-2.2
		c2.5-0.5,4.1-1.8,5.2-4.1c0.7-1.5,2-2.7,3.3-3.8c1-0.9,2.3-1.5,3.4-2.2c2.7-1.7,3.1-2.5,1.9-5.4c-1-2.5-1.5-4.9-1-7.5
		c0.2-0.9,0.1-2,0-2.9C939.7,284,938.4,283,934.6,283.5z"/>
	<path stroke="#000000" stroke-width="0.6811" stroke-miterlimit="10" d="M1036.2,586.6c-0.8-2.8-0.2-4.5,1.2-6.4
		c4-5.5,4.5-11.8,3-18.3c-0.3-1.3-1.4-3,0.3-3.4c1.5-0.3,4.1,0.1,5,1.2c1.5,2,3.1,4,3.5,6.8c0.4,2.7,1.3,5.3,3.9,7.2
		c3.1,2.3,2.7,5.8-0.1,8.5c-5.7,5.6-11.3,11.2-16.9,16.9c-4.2,4.4-8.5,8.6-13.4,12.3c-1.2,0.9-2.2,2.3-3.1,3.6
		c-1.7,2.5-3.7,4.6-6.4,5.9c-2.9,1.4-5.2,0.9-6.9-1.2c-1.4-1.8-1.2-6.5,0.6-8c2.5-2,5.1-3.8,7.8-5.5c4.9-3.2,9.5-6.5,11.7-12.3
		c0.5-1.3,1.2-2.4,1.9-3.6c0.8-1.4,1.8-2.2,3.5-2.3C1033.2,587.8,1034.5,587.1,1036.2,586.6z M1043.1,562.5c0.2,1.1,0.4,2.1,0.6,3.2
		c0.6,3.1,0.5,6.2-0.8,9c-1.1,2.5-2.4,4.8-3.6,7.3c-0.3,0.7-0.6,1.6-0.5,2.4c0.2,3,0.1,3.3-2.6,4.3c-1,0.4-2.2,0.5-3.2,1
		c-0.8,0.4-1.8,0.9-2.3,1.7c-1.8,2.8-3.4,5.7-5.3,8.4c-1.5,2.1-3,4.2-5,5.7c-3.1,2.4-6.6,4.2-9.8,6.3c-0.8,0.5-1.5,1.2-2.1,2
		c-1.2,1.5-0.7,3.1,0.2,4.5c1.1,1.6,2.4,0.5,3.6,0c2.4-0.9,3.8-2.9,5.5-4.8c1.6-1.8,3.3-3.6,5.2-5.1c4.8-3.7,9.4-7.5,12.9-12.4
		c0.9-1.3,2-2.4,3.2-3.5c4.4-4.2,9-8.4,13.4-12.6c0.4-0.4,0.7-1,1.1-1.6c-0.9-1-1.6-2.5-2.5-2.7c-3.1-0.7-3.6-3-4.2-5.4
		C1046.1,567.4,1045.7,564.5,1043.1,562.5z"/>
	<path stroke="#000000" stroke-width="0.6811" stroke-miterlimit="10" d="M982.3,461.7c-4.4-2-8.6-3.8-12.7-5.7
		c-1.8-0.8-3.5-0.7-5.1,0.6c-5.1,4.2-10.1,2.2-14.9-0.5c-0.6-0.3-0.9-1.7-0.9-2.5c0.3-5-1.1-7.3-5.9-9.2c-2.5-1-5-2-7.5-3
		c-2.4-1-3.1-2-2.6-4.1c0.5-1.9,2.5-4,4.1-3.5c3.5,1,5.7-0.5,8.1-2.9c2.3-2.3,7.4-2.5,10.4-0.3c4.3,3.1,9.1,4.8,13.9,6.5
		c2.6,0.9,4.7,2.3,6,4.6c2.8,4.7,5.4,9.5,8.2,14.3C984.8,458.1,984.3,460,982.3,461.7z M980.8,457.7c0.2-0.2,0.4-0.4,0.7-0.6
		c-0.5-1.1-0.8-2.3-1.4-3.3c-2-3.5-4.1-6.9-6.3-10.3c-0.6-0.9-1.6-1.6-2.5-2.1c-1.4-0.8-2.9-1.3-4.3-2c-4-1.8-8.4-2.6-12-5.4
		c-2.8-2.2-6.1-1.3-8.9,0.6c-0.7,0.5-1.4,1-1.9,1.7c-1.1,1.4-2.4,1.4-3.9,1.2c-1.1-0.2-2.3-1.1-3.6,0.2c2,2.1,4.6,2.9,7,3.9
		c5.1,2.1,7.9,6.6,7.3,12.2c2.4,1.6,5.2,2,8,2.1c0.9,0.1,2-0.3,2.7-0.9c4.1-3.6,8.3-2.7,12.6-0.5
		C976.4,455.5,978.6,456.6,980.8,457.7z"/>
	<path stroke="#000000" stroke-width="0.6811" stroke-miterlimit="10" d="M275.6,81.1c0.9-1.1,1.8-2.3,2.9-3.2
		c2.3-1.8,3.9-1.5,5.6,0.7c0.7,0.9,1.5,2.2,1.4,3.3c-0.3,2.8,0.9,5.2,1.8,7.7c1.4,4.3-0.2,6.9-4.8,7.3c-2.2,0.2-4.4,0.2-6.6-0.2
		c-2.4-0.5-4.7-0.3-6.8,0.8c-2.8,1.4-5.3,0.8-7.6-0.8c-0.9-0.6-1.9-1.9-1.9-2.9c0.1-2.1-1.2-2.8-2.7-3.4c-1.5-0.5-2.4-1.4-2.6-3.1
		c-0.3-2.6-0.8-5-2.9-7.2c-2.7-2.9-1.4-6.5,0.1-9.6c0.5-1.1,2.3-1.9,3.6-2.1c2.7-0.5,5.2-1.3,7.3-3c2.6-2.1,5.9-1.9,8.8,0
		c2.4,1.6,3.4,4.3,2.7,7.4c-0.1,0.4-0.2,0.7-0.3,1.1C272.5,78,272.5,78,275.6,81.1z M282.4,80.7c-2.3,0.4-2.3,0.4-3.7,2.5
		c-1.7,2.5-3.1,2.7-5.3,0.7c-3.8-3.5-4.4-6.1-2.4-10.9c1.2-2.8,0-5.3-2.9-5.9c-1.6-0.3-2.8,0.4-4.1,1.2c-1.9,1.1-3.9,2.3-5.9,2.6
		c-3,0.3-4.6,1.9-5.7,4.6c1.9,2.6,3.5,5.2,3.2,8.7c-0.2,1.7,1,3,2.7,3.6c1.7,0.5,2.5,1.7,3,3.3c1.2,3.8,4,5,7.7,3.1
		c2.4-1.2,4.8-1.6,7.5-1c1.7,0.3,3.4,0.5,5.1,0.4c3.4-0.2,4.4-2.2,2.6-4.9c-1.3-2-2.1-3.8-1.4-6.2C282.8,81.9,282.5,81.3,282.4,80.7
		z"/>
	<path stroke="#000000" stroke-width="0.6811" stroke-miterlimit="10" d="M637.6,135.2c0.3-4.2,0.4-7.5,0.8-10.7
		c0.6-5.1,3.2-9.4,5.9-13.6c0.7-1.1,2.2-2.1,3.5-2.5c4-1.4,7.1-4,10.1-6.9c1.7-1.7,3.9-2.5,6.4-1.4c2.5,1.1,3.2,3.5,1.6,5.7
		c-0.1,0.2-0.3,0.4-0.5,0.6c-5.7,4.7-8.8,11.4-12.5,17.6c-1.7,2.9-3.9,5.5-4.8,9c-0.8,3-0.5,5.8,0.5,8.6c0.5,1.6,1.4,3,3.4,3.5
		c1.4,0.4,2.8,1.4,2.7,3.1c-0.1,1.7-1,3-2.8,3.5c-0.2,0.1-0.4,0.2-0.7,0.3c-2,0.4-4.3,1.5-6,0.9c-1.9-0.8-3.5-2.9-4.8-4.8
		C637.6,143.9,638.6,138.8,637.6,135.2z M650.9,148.1c-0.5-0.2-1-0.3-1.4-0.6c-4.4-3.5-6.2-9.9-3.2-15.6c2-3.9,4.2-7.8,6-11.8
		c2.4-5.2,5.6-9.8,10-13.5c0.3-0.2,0.7-0.5,0.7-0.8c0.2-0.9,0.5-2.1,0.1-2.6c-0.5-0.6-1.7-0.9-2.5-0.8c-0.9,0.2-1.7,1-2.3,1.7
		c-2.1,2.4-4.6,4-7.7,4.9c-1.8,0.5-3.3,1.5-4.4,3.2c-2.4,3.7-5.2,7.2-4.7,12.1c0.1,0.7-0.2,1.4-0.4,2.2c-0.8,5.5-0.6,11,0.9,16.4
		c0.5,1.9,1.9,3.6,3.1,5.3C646.6,150.1,648.4,150,650.9,148.1z"/>
	<path stroke="#000000" stroke-width="0.6811" stroke-miterlimit="10" d="M566.4,96.8c1.3,1.9,2.7,3.6,3.8,5.5c1.7,3,0.3,6-2.9,7
		c-2.6,0.8-3.9,0.2-5-2.3c-0.9-1.8-1.1-4.1-4.2-4.8c0.4,2.3,0.5,4.4,1,6.3c1.2,4.2,0.5,7.7-2.7,10.8c-2.6,2.5-5.7,2.3-7.1-1
		c-2.6-6.3-6.7-11.7-10.1-17.5c-1.5-2.6-1.4-4.6,0.6-7.1c0.5-0.6,1.1-1.1,1.4-1.7c0.7-1.6,1.8-2.2,3.5-2.2c1.6,0,2.8-0.5,3.7-1.9
		c0.4-0.6,1-1.2,1.7-1.4c4.6-1.1,8.9-3.5,13.9-3.2c2.4,0.1,4.6,1,6.4,2.6c0.6,0.5,0.8,1.4,1,2.2c0.2,0.8-0.1,1.7,0.1,2.6
		c0.4,2.3-0.3,3.8-2.6,4.5C567.9,95.6,567.3,96.2,566.4,96.8z M555.1,106.5c0.3-1.4,0.6-2.7,0.9-4c0.5-1.8,1.5-3.3,3.4-3.4
		c1.9-0.1,3.1,1.3,4,2.8c0.7,1.2,1.1,2.5,1.7,3.7c0.4,0.9,1.3,1.4,2.1,0.7c0.5-0.4,0.8-1.6,0.5-2.1c-0.5-1.1-1.4-2-2.3-2.8
		c-1.8-1.8-2.2-3.4-0.7-5.5c0.8-1.2,2.1-2.1,3.2-3c2-1.7,1.9-3.5-0.1-5.2c-3-2.4-6.2-2.5-9.7-1c-1.8,0.8-3.6,1.5-5.4,2.2
		c-0.5,0.2-1.2,0.2-1.3,0.5c-1.1,2.7-3.5,2.6-5.8,3.2c-1.2,0.3-2.3,0.9-3.3,1.6c-1.8,1.1-2.2,2.4-1.2,4.3c0.7,1.4,1.6,2.8,2.6,4
		c2.9,3.9,6.2,7.7,7.4,12.6c0.1,0.5,0.4,0.9,0.7,1.3c1.3,1.8,2.9,1.8,4.1-0.1c1.1-1.8,1.1-3.7,0.5-5.7
		C555.8,109.3,555.5,107.9,555.1,106.5z"/>
	<path stroke="#000000" stroke-width="0.6811" stroke-miterlimit="10" d="M899.1,459.4c-3.6,5.6-8.3,3.8-12.9,2.7
		c-1.9-0.5-3.8-1-5.6-1.7c-2.4-1-4.7-1-7.4-0.8c-4.5,0.3-9.2-0.7-13.8-1.2c-0.7-0.1-1.4-0.5-2.1-0.5c-1.9-0.1-3.6-0.5-4.6-2.4
		c-0.4-0.6-1.4-0.9-2.1-1.2c-0.1-0.4-0.2-0.6-0.2-0.8c1-5.4,2.7-7,8.3-7.1c5.5-0.1,10.7,1.3,15.9,2.9c3.7,1.1,7.4,2.5,11.2,3.6
		c1.6,0.5,3.4,0.6,5.1,0.5C894.6,453.3,898,455.7,899.1,459.4z M896.2,458.9c-0.7-2.4-2.4-2.6-4.3-2.6c-2.2,0-4.5,0.5-6.6,0
		c-4.8-1.4-9.4-3.3-14.1-4.9c-0.8-0.3-1.6-0.4-2.5-0.6c-1.9-0.4-3.9-0.7-5.7-1.1c-3.3-0.8-6.2-0.2-9,1.7c0.7,2.3,1.9,4,4.2,4.3
		c3.1,0.4,6.3,0.9,9.4,0.7c5.7-0.4,11.2-0.3,16.6,1.9c2,0.9,4,1.8,6.1,2.3C892.4,461.2,894.5,460.6,896.2,458.9z"/>
	<path stroke="#000000" stroke-width="0.6811" stroke-miterlimit="10" d="M717.3,63.4c0.4-0.6,0.8-1.5,1.3-2.3
		c2.8,0.2,5.6,0.2,8.2,0.5c1.1,0.1,2.4,0.8,3.1,1.6c3,3.4,2.7,6-1.1,8.5c-1.6,1-3.6,1.8-5.4,2c-1.1,0.1-2.4-0.9-3.4-1.8
		c-1.1-1.1-1.9-2.5-3.1-4.1c-0.5,0.6-0.8,1-1.1,1.5c-2,3-4.8,4.1-8.3,3.2c-2.9-0.8-5.4-2.3-7.7-4.3c-2.1-1.8-4.4-3.5-6.8-5
		c-3.6-2.2-4.7-7.9-2-11.2c1-1.2,2.1-2.4,3.4-3.3c1.8-1.4,7.2-0.4,8.9,1.3c3.2,3.2,6.4,6.4,9.6,9.5
		C714.3,60.9,715.7,62.1,717.3,63.4z M691.8,56.1c0,2.3,0.6,3,2.6,4.4c2.6,1.8,4.9,4,7.6,5.6c2.5,1.5,5.1,2.8,7.8,3.8
		c1.6,0.6,3.6-0.6,4.2-2.1c0.7-1.6,0.6-3.1-0.9-4.3c-0.8-0.6-1.6-1.2-2.3-1.8c-2.4-2.3-5.2-4.2-6.9-6.9c-1.5-2.4-3.4-3.3-5.8-3.9
		C694.4,49.9,691.7,52.9,691.8,56.1z M719.6,64.1c0.2,1.5,0.2,2.8,0.5,4c0.9,2.9,2.2,3.5,4.9,2.1c1.5-0.7,2.8-1.8,4.7-3.1
		C726.6,64.1,723.4,64,719.6,64.1z"/>
	<path stroke="#000000" stroke-width="0.6811" stroke-miterlimit="10" d="M658.1,509.8c-2.6,0.4-4.4-0.5-5.5-2.8
		c-0.7-1.5-1.6-3-2.5-4.5c-2-3.4-1.6-6.9,0.1-10.2c0.9-1.9,2.1-3.6,3.2-5.4c1.6-2.4,2.8-4.7,2.5-7.8c-0.3-2.7,2.1-5.7,4.7-6.7
		c1.6-0.6,3.3-1.1,4.8-1.9c1-0.5,2.1-1.3,2.7-2.2c1.3-2,3-2.3,5.1-2.1c1.9,0.2,3.4,0.9,4.3,2.9c1.8,3.9,3.1,7.8,1.7,12
		c-0.7,2.2-1.6,4.4-2.9,6.3c-2.1,3.2-3.7,6.6-4.9,10.2c-1.1,3.4-2.1,7.1-5.2,9.5C663.8,509,661.1,510,658.1,509.8z M657.8,507.7
		c4.1-0.2,7.2-2.2,9-5.9c1.2-2.3,2.1-4.7,2.8-7.2c1.1-3.9,3.1-7.1,5.4-10.4c2.9-4.1,3.7-8.5,1-13.1c-1.4-2.4-2.2-2.7-4.7-1.5
		c-3,1.6-6.1,3.1-9.1,4.7c-2.2,1.2-3.9,2.9-3.3,5.6c0.8,3.6-1.1,6.1-3,8.7c-0.6,0.9-1.5,1.7-2.1,2.5c-2.5,3.4-3.5,7-1.4,11
		c0.5,0.9,0.8,1.8,1.2,2.7C654.2,506.9,655.5,507.9,657.8,507.7z"/>
	<path stroke="#000000" stroke-width="0.6811" stroke-miterlimit="10" d="M848.7,444.3c-0.1,4.4-1.7,5.4-5.1,3.4
		c-4.2-2.4-7.5-5.5-9.9-9.9c-3.5-6.4-6.5-13.1-12.3-17.9c-1.6-1.3-2.7-3.2-4-4.8c-1.6-2-1.1-3.3,1.4-3.8c5.2-0.9,8.8,2.1,12.2,5.3
		c0.8,0.7,1.5,1.7,2,2.6c2.5,5.6,7,9.6,11,14C847.3,436.6,848.2,440.6,848.7,444.3z M820.2,413.4c-0.2,0.3-0.4,0.6-0.5,0.8
		c1.2,1.2,2.3,2.5,3.5,3.6c4.4,4,8.4,8.2,10.5,14c0.9,2.5,2.8,4.6,3.9,7.1c1.6,3.5,4.6,4.8,8.2,6.6c-0.2-3.9-0.5-7.2-3-9.8
		c-4.8-5-9.7-9.9-12.9-16.2C828,415.9,824.1,414.4,820.2,413.4z"/>
	<path stroke="#000000" stroke-width="0.6811" stroke-miterlimit="10" d="M931.7,246.2c-4.1-3.3-4-8.4-5.5-12.8
		c-1.1-3.5-1.9-7.2-3.8-10.2c-1.9-2.9-3.1-6-4.4-9.2c-0.8-2-0.9-4.1,0-6.1c1.2-2.5,3.7-2.8,5.1-0.5c1.8,3,3.1,6.3,4.8,9.4
		c1.5,2.9,3.2,5.7,4.9,8.6c0.7,1.2,1.5,2.2,2,3.5c0.3,0.7,0.4,1.9,0,2.4c-1.3,1.3-0.9,2.7-0.9,4.1c0,2.4,0.1,4.9,0,7.3
		C933.8,244.5,933.8,244.5,931.7,246.2z M921.3,210.5c-0.3,0.1-0.6,0.2-0.9,0.2c-0.5,2.8,0.5,5.5,2.1,7.5c3.9,5,5.7,10.9,7.8,16.6
		c0.3-1.4,0.3-3,0.8-4.3c0.7-1.8,0.2-3-1.1-4.2c-2.3-2.2-4.1-4.7-5-7.9C924.3,215.6,922.6,213.1,921.3,210.5z"/>
	<path stroke="#000000" stroke-width="0.6811" stroke-miterlimit="10" d="M903.7,421.4c2.1-0.3,3.6,0.4,4.7,2.1
		c1.1,1.7,0.8,3.4-0.4,4.8c-1.1,1.3-2.6,2.2-3.9,3.2c-0.7,0.5-1.5,0.7-2.3,1.1c0,2.5,1.1,4.4,2.1,6.3c1.3,2.3,1,3.8-0.8,5.1
		c-1.9,1.3-3.6,1.1-5.2-0.7c-0.6-0.7-1.2-1.4-2.2-2.5c-0.4,2.3-0.6,4.1-1,5.8c-0.2,0.7-0.9,1.6-1.6,1.8c-0.5,0.1-1.4-0.7-1.9-1.3
		c-3.1-3.7-3.5-7.7-1.5-12c0.2-0.4,0.6-0.9,0.6-1.3c-0.2-3.2,2.2-4.7,4.2-6.5c1.9-1.6,4.2-1.8,6.6-1.8c0.7,0,1.4-0.1,2.4-0.2
		C903.7,423.8,903.7,422.7,903.7,421.4z M900.6,440.5c0.2-0.2,0.4-0.3,0.6-0.5c-0.9-1.8-2.2-3.5-2.7-5.4c-0.5-1.8-0.1-3.9-0.1-6.1
		c-2.5,1.1-4.4,2.3-5.1,5.1C897.5,434.3,897.9,438.6,900.6,440.5z M892.8,438.7c-2.5,3.6-2.4,4,0,6.1
		C892.8,442.5,892.8,440.6,892.8,438.7z"/>
	<path stroke="#000000" stroke-width="0.6811" stroke-miterlimit="10" d="M946.6,254.5c0.9-3.8,2.9-6.1,6.4-6.5
		c1.9-0.2,3.1,0.3,6.1,2.7c-0.4,0.9-0.9,1.8-1.4,2.8c-0.9,1.5-1.6,2.9-1.4,4.8c0.1,1.2-0.6,2.6-1.1,3.8c-1.6,3.9-3.8,7-8.7,6.7
		c-0.7,0-1.6,1-2.3,1.7c-2.1,1.9-5.9,2-8,0.3c-2.4-2-2.9-5.6-1.1-8.2c1.6-2.4,2.9-4.7,2.5-7.8c-0.3-3,1.7-4.2,4.5-2.8
		C943.5,252.6,944.7,253.4,946.6,254.5z M938.9,269.8c1-0.5,1.4-0.6,1.6-0.8c1.7-2.2,3.6-3.6,6.5-3.3c0.6,0.1,1.5-0.4,1.8-0.9
		c1.3-2.2,2.5-4.4,3.6-6.7c0.6-1.3,1-2.7,1.5-4c0.3-0.9,0.8-1.7,1.2-2.6c-2.9-1.3-3.9-1.1-4.5,1.9c-0.6,2.7-2.3,3.4-4.4,3.5
		c-1.8,0.1-3.6-0.6-5.8-1c1.3,4.1-2.3,6.3-3.6,9.7C937.4,266.9,938.1,268.2,938.9,269.8z"/>
	<path stroke="#000000" stroke-width="0.6811" stroke-miterlimit="10" d="M466.1,200.6c-4.2,0-5.5-1-6.8-3.8c-0.9-2-2.2-3.8-3.4-5.6
		c-1.3-1.9-1.2-4.3,0.2-6.4c1.2-1.7,3.8-2.9,5.8-2.4c1.1,0.3,2,0.9,3,1.3c1.7,0.7,3.4,1.4,5.2,1.9c2,0.6,3.9,0.3,5.5-1.2
		c1.6-1.5,3.3-1.4,5-0.3c1.9,1.1,2.8,3.2,2.5,5.3c-0.6,4-3.1,6.8-6.6,8.3C472.9,199.1,468.9,199.8,466.1,200.6z M457.3,187.8
		c1.5,2.5,2.8,5,4.4,7.3c0.6,0.9,1.9,1.4,3,1.8c3.6,1.1,6.7-0.7,10-1.7c1.8-0.6,3.4-1.8,5-2.9c1.2-0.9,1.4-2.3,0.8-3.7
		c-0.6-1.4-1.8-2-3.3-1.8c-0.9,0.1-1.9,0.4-2.7,0.9c-3.2,1.8-6.4,1.4-9.4-0.4c-0.7-0.4-1.4-1.1-2.1-1.5
		C460.2,184.5,458.6,185.2,457.3,187.8z"/>
	<path stroke="#000000" stroke-width="0.6811" stroke-miterlimit="10" d="M830.8,391.8c1.9,0.8,45,2.5,2.8,4.3
		c0,5.1,2.4,9.1,5.7,12.7c2.7,3,5.2,6.2,7.7,9.3c0.6,0.8,0.9,1.8,1.3,2.7c0.1,0.1,0,0.2,0,0.4c-2.5,3.5-3.1,3.6-6.7,1.6
		c-2.7-1.5-4.8-3.6-6-6.6c-1.4-3.2-3.4-6.2-5.3-9.1c-1.7-2.5-3.9-4.7-5.3-7.4c-1.3-2.5-4.9-14.7-3.1-19c0.1-0.3,0.6-0.3,0.7,0.1
		c0.5,3.1,2.8,12,2.9,12.6c0.1,1.4-0.1,3.1,0.6,4.2c1.9,2.9,4.1,5.4,6.3,8.1c0.2,0.2,0.6,0.1,1.5,0.3
		C831.1,401.4,831.2,396.5,830.8,391.8C830.8,391.8,830.8,391.8,830.8,391.8z M844.6,421.1c0.3,0.1,0.6-0.2,0.4-0.5
		c-2.9-5-6.4-8.7-9.9-12.9c0,0.9-0.1,1.4,0,1.7c1.2,2.5,2.4,5,3.7,7.5C839.9,419.1,841.7,420.3,844.6,421.1z"/>
	<path stroke="#000000" stroke-width="0.6811" stroke-miterlimit="10" d="M822,75.6c-5.6-0.2-9.7-5.9-8.1-10.8
		c0.4-1.2,0.7-2.4,1.2-3.5c1.1-2.2,2.3-2.6,4.7-2.3c1.2,0.1,2.7-0.1,3.8-0.5c4.9-2.1,9.4-0.6,11.7,4.1c0.3,0.6,0.4,1.5,0.1,2
		c-1.5,2.7-3.1,5.3-4.6,7.9c-0.1,0.1-0.2,0.2-0.3,0.2C827.5,73.8,824.5,74.8,822,75.6z M817.9,61.5c-0.6,2-1.2,3.5-1.6,5
		c-0.7,2.9,3,6.5,5.9,5.7c1.9-0.5,3.9-1,5.5-2c2.4-1.6,4.7-3.4,5.7-6.1c-2.8-3.2-5.7-3.9-9.1-1.8C822.3,63.5,820.4,63.2,817.9,61.5z
		"/>
	<path stroke="#000000" stroke-width="0.6811" stroke-miterlimit="10" d="M280.2,61.3c1-0.5,2-0.9,2.9-1.6c3.4-2.6,8.4-2.2,11.4,0.8
		c2.2,2.3,1.4,6.6-1.6,8.2c-1.1,0.6-2.3,0.8-3.5,1.1c-1.4,0.3-2.4,0.8-3.2,2.1c-2.4,3.7-6.9,3.6-9.1-0.3c-0.9-1.6-1.5-3.4-1.9-5.1
		C274.5,63.1,276.5,60.8,280.2,61.3z M278.6,63.4c-0.9,5.6,0.5,8.1,5,9.2c0.9-3.2,3.5-4.3,6.5-5c0.7-0.1,1.6-0.4,1.9-0.9
		c0.6-1,1.4-2.2,1.2-3.2c-0.4-2.7-6.6-4.3-8.3-2C283.2,63.9,281.4,65,278.6,63.4z"/>
	<path stroke="#000000" stroke-width="0.6811" stroke-miterlimit="10" d="M42.9,374.3c-2.9-1.9-4.6-6.3-3.6-8.9
		c0.5-1.3,2.6-2.3,4.4-1.9c1.9,0.3,3.3,1.9,3.3,3.8C47.1,370.4,45.6,372.8,42.9,374.3z M43.4,371c1.8-3.2,1.4-4.2-2.2-5.1
		C41.2,367.9,41.7,369.5,43.4,371z"/>
	<path stroke="#000000" stroke-width="0.6811" stroke-miterlimit="10" d="M35.5,352.3c2.3,0.9,3.6,2.3,4.3,4.5
		c0.5,1.7,0.1,2.9-1.3,3.8c-1.4,0.9-4.1,0.7-5.1-0.3C30.8,357.6,31.5,354.7,35.5,352.3z M34.5,354.8c-0.2,2.6,0.5,3.4,3.2,3.1
		C36.5,356.7,35.7,356,34.5,354.8z"/>
	<path stroke="#000000" stroke-width="0.6811" stroke-miterlimit="10" d="M29.6,355.2c0,1.3-1.3,2.5-2.6,2.6
		c-1.4,0.1-4.1-2.7-4.1-4.1c0-1.4,1.5-2.7,2.9-2.7C27.6,351.1,29.7,353.4,29.6,355.2z M27,355.3c0.2-0.3,0.4-0.6,0.6-1
		c-0.4-1-1-1.6-3-0.7C25.7,354.4,26.4,354.8,27,355.3z"/>
	<path stroke="#000000" stroke-width="0.6811" stroke-miterlimit="10" d="M18.7,351.4c0.6,1.1,1.5,2.1,1.8,3.3
		c0.2,0.7-0.5,2-1.1,2.3c-0.7,0.4-2,0.2-2.7-0.3c-0.4-0.3-0.5-1.5-0.4-2.3c0.2-1,0.8-1.9,1.3-2.9C18,351.5,18.4,351.5,18.7,351.4z"
		/>
	<path fill="#FFFFFF" stroke="#000000" stroke-width="0.6811" stroke-miterlimit="10" d="M211.9,119.8c-0.1,2.5,0.4,3.8,2.1,3.6
		c3.2-0.3,4.7,1.2,5.1,3.9c0.8,4.7,4.3,5.6,8.1,5.5c3.2-0.1,5,1.4,7.1,3.6c-0.6,1.4-1.2,2.7-1.8,4c-1.3,3.1-0.2,5.2,3.1,5.4
		c3.2,0.2,6.3,0.8,9.4,1.4c2.4,0.4,5.3-1.2,7.9-2c0.5-0.2,0.9-0.9,1.4-1.1c4.7-2.3,6.1-3.3,10.4,1c4.5,4.4,9.8,4.4,13.9,0.3
		c0.8-0.8,1.2-1.8,1.8-2.7c0.3-0.5,0.5-1.1,0.6-1.7c1-5.5,4.3-9.2,9.1-11.8c1-0.5,1.8-1.3,2.7-1.9c2-1.4,3-3.2,3.1-5.9
		c0.1-4.8,3.3-8.9,7-9.9c2.2-0.6,4.1,0.8,3.8,3c-0.2,1.4-0.7,2.8-1.4,4.1c-1.9,3.4-4.2,6.5-5.9,10c-2.7,5.6-0.9,11.3,0.4,16.9
		c0.5,2.3,3.8,4.3,7.2,5.2c1-1.2,2-2.4,2.9-3.7c0.5-0.7,0.9-1.6,0.9-2.3c-0.2-2.8-0.4-5.6-1-8.3c-0.9-4.2-0.4-8,2.3-11.5
		c1.3-1.6,2.3-3.5,3.8-4.9c3.4-3.1,7.6-2.5,11.5-1.6c3.8,0.9,7.4,2.6,10.9,4.3c1.1,0.6,1.9,2.1,2.6,3.4c1.9,3.5,3.6,7.2,5.6,10.7
		c2.5,4.4,5.2,8.6,7.7,13c1.1,1.9,1.6,3.8,1,6c-0.3,1.2-0.3,2.4-0.4,3.7c-0.2,3.2,0.9,5.9,4,7.3c4,1.7,3.6,5,1.9,8
		c-1.5,2.7-4.8,3.4-7.7,1.7c-0.5-0.3-1-0.9-1.6-0.9c-0.9,0-2.1,0-2.6,0.6c-0.6,0.5-0.8,1.8-0.7,2.6c0.2,0.9,0.9,1.7,1.4,2.5
		c0.5,0.8,1.2,1.5,1.7,2.4c1,1.8,2.4,3.9,0.5,5.8c-1.7,1.8-4.1,3.3-6.6,2.3c-2.8-1.1-6.2-2.3-7.8-4.6c-3.4-4.8-8-5.7-13.1-6.1
		c-4-0.3-5.4-1.2-6.9-4.9c0.7-1.5,2.1-1.8,3.6-1.9c1.4-0.1,2.7,0,4.1-0.2c3.6-0.5,6.7-3.7,6.9-7.2c0.1-1.3-0.6-2.2-1.8-2.9
		c-2-1.3-3.9-2.8-5.8-4.1c0.9-2.3,1.6-4.1,2.2-6c0.5-1.7,0-2.9-1.9-3.2c-1.3-0.2-2.6-0.6-4-0.6c-3,0-5.1,1.8-5.6,4.8
		c-0.3,1.6-0.5,3.2-0.7,4.7c-0.5,3.2-2.3,5.5-5.3,6.6c-3.2,1.2-4.2,3.9-5.3,6.7c-0.3,0.8-0.1,1.9,0.1,2.8c0.4,1.4,1.1,2.8,1.7,4.1
		c1.2,2.6,1,3.7-1.4,5.2c-3.1,2-6.3,1.8-9.6,0.6c-2.3-0.8-4.5-1.8-6.8-2.8c-4.1-1.8-7.6-1.1-10.7,2c-4.9,4.7-9.3,9.9-11.6,16.3
		c-1.5,4-0.6,8.2,2.6,11.2c2.9,2.8,5.7,5.6,9.3,7.7c2.9,1.6,5.3,4.3,7.7,6.7c0.6,0.6,1.1,2,0.9,2.9c-0.7,4.4,2.1,6.7,4.5,9.2
		c5-2,5.4-2.3,4.7-6.9c-0.7-4.3,1-6.6,4.6-8.5c3-1.6,6.2-3.3,7.1-7.5c0-0.1-0.2-0.5-0.4-0.9c-2.2-3.3-2.1-6.6,0-10
		c0.9-1.4,1.2-3.2,1.8-4.8c0.1-0.2,0.1-0.5,0.1-0.7c1.6-7.8,5.4-11.4,14.8-8.7c1.1,0.3,2.1,0.8,3.1,1.1c4.6,1.5,7.5,4.6,8.5,9.3
		c0.5,2.2,1.2,4.3,3.3,6c1-0.6,2.1-1.1,2.9-1.9c3.8-3.5,9.2-1.8,11.1,3.4c1.5,4.3,1.9,8.6,2.1,13c0.3,5.2,1.9,9.3,6.6,11.9
		c1.3,0.7,2.3,1.8,3.5,2.7c2.6,1.7,3.3,4.2,2.8,7.1c-0.2,1.2-0.4,2.4-0.8,3.6c-2,6.4-0.9,12.4,2.7,17.9c0.6,0.9,1.2,1.9,1.6,2.9
		c0.6,1.4,0.3,2.7-0.9,3.7c-1.1,0.9-2.3,0.6-3.5,0c-0.3-0.2-0.6-0.4-0.9-0.6c-3.5-2.5-7.6-3.6-11.8-3.6c-2.1,0-3.5-0.7-4.4-2.6
		c-0.2-0.4-0.6-0.8-0.8-1.2c-2.4-4.2-3.7-4.4-8.1-1.5c0.4,5,6.2,8.4,4.9,14.5c-4.3,0.9-8.8,2.3-13.5,2.1c-0.6,0-1.4-0.5-1.8-1
		c-1.4-1.9-2.6-3.8-3.8-5.8c-1.5-2.5-3.3-3.1-6.1-1.8c-0.7,0.3-1.4,0.5-2,1c-2,1.8-4.3,2-6.6,1.2c-3.8-1.2-6.8-0.4-9.9,2.1
		c-1.6,1.3-4,1.7-6,2.6c-2,0.9-3.9,1.9-5.9,2.9c-2,0.9-3.9,1.9-6,2.8c-1.3-5-4.6-8.1-7.7-11.4c-1.6-1.7-4.1-0.8-5.8,1.7
		c-2,2.9-2,2.9-4.3,4.2c0.1-0.9,0.2-1.5,0.3-2.1c0.4-1.5,1-3,1.2-4.6c0.7-4.4,0.2-5.2-3.8-7.2c-1.2-0.6-2.2-1-2.5-2.4
		c-0.9-4.6-4.4-6.5-8.4-7.2c-7.7-1.4-15.5-2.4-23.3-3.2c-7.1-0.7-14.3-0.6-21.3-1.5c-7.9-1-15.7-2.7-23.6-4.1
		c-2.1-0.4-4.1-0.8-6.2-0.9c-7-0.4-14-0.6-21.3-0.9c-1.4-3.7-2.4-7.4-1.1-11.3c0.9-2.6,1.2-5.1,0.7-7.6c-0.5-2.2-0.1-4.2,0.9-6
		c2.8-5.4,1.6-10.5-1-15.5c-1.5-2.8-2.4-5.5-2.1-8.8c0.3-3,0-6.2-0.5-9.2c-0.7-4-2.6-5.2-6.6-4.1c-2.7,0.7-4.4,0-6-2.2
		c-1-1.3-1-2.5-0.3-3.8c2-3.4,4.1-6.7,6.2-10c1.1-1.8,2.5-3.4,3.4-5.2c2.6-5,5-10.1,7.5-15.1c3.7-7.2,7.3-14.5,11.2-21.6
		c1.5-2.6,3.6-4.9,5.4-7.4c1.7,1.2,3,2.7,4.6,3.1c1.7,0.4,3.6-0.4,5.4-0.4c1.1-0.1,2.2,0.1,3.3,0.4c4.1,1,8.2,0.9,12-0.7
		C204.8,115.6,208.6,116,211.9,119.8C211.9,119.9,211.9,119.8,211.9,119.8z"/>
	<path fill="#FFFFFF" stroke="#000000" stroke-width="0.6811" stroke-miterlimit="10" d="M327.8,278.8c-0.5,0.3-1,0.7-1.5,0.8
		c-2.3,0.3-4,1.6-4.8,3.6c-2.1,4.7-6.2,6.5-10.6,7c-8.9,0.9-13.5,9.3-14,17.3c-0.2,2.9-0.6,5.9-0.8,8.8c-0.1,1.5-0.8,2.4-2.4,2.9
		c-1.5,0.5-2.8,1.4-4.3,2.1c-1.1,0.5-2.3,0.9-3.5,1c-8.2,0.7-10.8,6-9.7,13.7c0.6,3.8,1.2,7.5,0.2,11.5c-2.9-0.7-5.4-1.6-6.6-4.6
		c-1.3-3-2.9-6-4.5-8.9c-1.1-2.1-2.9-3.1-5.4-3.3c-3.8-0.3-7.1,0.2-9.8,3.1c-1.5,1.6-3.1,1.5-5.1,1c-2.8-0.7-5.7-1.2-8.6-1.6
		c-2.5-0.3-4.6,0.5-5.9,2.8c-0.5,0.8-1.2,1.6-1.9,2.3c-2.3,2.3-5,2.5-7.6,0.6c-2.4-1.7-4.5-3.8-7-5.3c-1.4-0.9-3.1-1.5-4.7-1.5
		c-4-0.1-7.5-1-9.7-4.7c-2.2-3.7-6.2-4.1-10-4.5c-3.4-0.4-6.9-0.4-10.3-0.7c-2.4-0.2-4.4-1.2-5.7-3.5c-0.5-0.9-2.2-1.4-3.4-1.8
		c-4.6-1.2-8.9-2.8-12.4-6c-5.2-4.8-8.1-11-9.5-17.8c-1-5.1-1.7-10.2-0.6-15.4c0.2-0.9,0.1-2,0.1-2.9c0.1-5.4,1.1-10.6,4.9-14.8
		c2.7-3,2.6-7.1,3.5-10.7c0.4-1.4,0.6-2.8,1-4.6c3.3,0.5,6.3,1.1,9.3,1.5c4,0.5,8.1,0.6,12.1,1.1c3.2,0.3,6.3,0.9,9.4,1.4
		c5.7,0.9,11.2,2.9,17,2.7c6,2.6,12.4,0.8,18.5,2c1.9,0.4,3.9-0.3,5.8,0c5.1,0.8,10.1,1.8,15.1,2.7c2.5,0.4,5,0.9,7.6,1.2
		c3.8,0.5,6.6,2.2,8,6.1c0.3,1,1.4,1.9,2.4,2.4c2.3,1.3,3,2.5,2.4,5c-0.3,1.1-0.6,2.2-1.1,3.1c-1.2,2.2-0.5,4.4,0.3,6.4
		c0.8,1.9,2.4,2.1,3.7,0.6c1.5-1.6,2.8-3.4,4.3-5c0.6-0.6,1.7-1.2,2.4-1.1c2.7,0.3,5.2,4.2,4.5,6.8c-0.7,2.9,0.8,5.1,3.7,4.7
		c3.1-0.4,6.3-1.1,8.9-3.1c1-0.8,2.3-1.1,3.6-1.5c3.1-0.9,6.5-1.3,8.9-3.7c1.4-1.4,3.1-1.9,5-1.9c1.6,0,3.2,0,4.8,0.2
		c2.2,0.4,4.1,0.2,5.8-1.3c0.6-0.5,1.5-0.8,2.3-1c1.5-0.4,2.6-0.1,3.3,1.4C326.3,276.4,327.1,277.5,327.8,278.8z"/>
	<path fill="#FFFFFF" stroke="#000000" stroke-width="0.6811" stroke-miterlimit="10" d="M12,207.5c3.5-2.8,7.6-3.3,11.5-4
		c3.3-0.5,6.6-0.4,9.9-0.9c3-0.5,5.9-1.4,8.8-2.2c0.6-0.2,1.2-0.4,1.7-0.5c6.6-1.3,12.3-4.7,18.2-7.5c5.2-2.5,9.8-6.3,14.4-10
		c2-1.6,3.4-4.2,4.7-6.5c1.1-1.9,0.3-3.9-0.7-5.6c-1.6-2.7-3.2-5.5-5-8.1c-5.2-7.3-2-15.7,3.5-19c1.8-1.1,4.1-1.5,6.2-2.1
		c1.9-0.6,3.8-0.9,5.6-1.8c2.6-1.3,2.9-4.1,0.6-5.9c-1.1-0.9-2.7-1.2-3.9-2c-1.3-0.8-2.8-1.5-3.8-2.7c-2.4-2.7-2.2-3.6,0.4-6.2
		c1-1,2-2.2,3.2-3.1c2.5-1.8,5.2-2.7,8.3-2.1c2.4,0.4,4.9,0.7,7.3,0.7c2.8,0,3.4-0.7,3.4-3.6c0-1.5-0.1-2.9-0.2-4.4
		c-0.4-4.7,1.8-8.3,5.5-10.5c3.3-2,7.1-3.2,10.8-4.5c4-1.5,8.1-2.8,12.2-3.9c2.6-0.7,5.3-1.1,8-1.4c3-0.4,5.6,0.7,7.6,3
		c0.8,0.9,1.8,1.7,2.5,2.8c1.1,1.7,2.7,2.5,4.6,2.8c5.8,0.9,9.4,4.3,11.6,9.6c0.8,1.9,2.2,3.5,3.5,5.6c-0.1,0.3-0.2,1.1-0.6,1.6
		c-4.6,4.7-6.8,10.8-9.9,16.3c-3.1,5.7-6.1,11.5-9.2,17.2c-0.5,0.9-0.9,1.8-1.3,2.7c-3.1,7.5-7.7,14.2-11.9,21.1
		c-2.8,4.6-0.5,10.2,4.9,11.3c1.4,0.3,2.9,0.3,4.4,0.2c2.4-0.2,2.9,0,3,2.4c0.2,2.6,0.4,5.2-0.1,7.7c-0.7,4.4,0.9,7.9,2.9,11.5
		c2.3,4.1,2.7,8.7-0.3,13.6c-1.5-2.3-3-4.4-4.2-6.6c-1.9-3.6-3.6-7.3-5.3-11c-0.5-1.1-0.9-2.4-0.9-3.5c0.1-4.4-1.4-8.4-3.4-12.2
		c-2.8-5.4-7.4-8.2-13.4-9c-5.9-0.8-11.5-0.3-17,1.8c-1.4,0.5-2.9,1.3-4,2.4c-1.8,1.7-3.5,3.5-4.8,5.5c-1.4,2.1-3.5,2.8-5.7,3
		c-3.1,0.2-6.3-0.1-9.3-1.5c-2.7-1.3-4.4-1-6.1,1.2c-3.2,4.1-7.3,6.4-12,8.2c-4.4,1.6-8.5,3.8-12.7,5.7c-0.4,0.2-0.9,0.6-1.3,0.6
		c-6.5,0.2-12.3,3.2-18.5,4.5c-1.8,0.4-3.6,0.6-5.5,0.8c-4.3,0.5-8.5,0.9-12.8,1.4C14,210.6,14,210.7,12,207.5z"/>
	<path fill="#FFFFFF" stroke="#000000" stroke-width="0.6811" stroke-miterlimit="10" d="M330.3,105.1c2.6-0.2,5.1-0.2,7.1,2
		c0.8,0.8,1.9,1.5,1.2,2.7c-0.6,0.9-1.6,1.6-2.6,2.3c-0.3,0.2-1,0.1-1.4,0.1c-5-0.6-10-1.1-15-1.8c-1-0.1-1.9-0.4-2.8-0.8
		c-2.7-1.2-3.2-2.7-2.3-5.5c0.5-1.4,1-2.8,1.3-4.2c0.4-1.7,0.4-3.3-0.5-5c-0.7-1.3-1.1-2.8-1.3-4.2c-0.2-1.9,0.9-2.8,2.7-2.2
		c0.9,0.3,2,0.6,2.6,1.3c1.8,1.8,3.7,1.4,6.1,1.2c4.3-0.4,6.4-2.9,8.4-6.3c1.1-2,1.1-3.7,0.2-5.6c-0.4-0.8-0.9-1.5-1.5-2.1
		c-3.8-3.2-4-7.1-2.5-11.4c1.1-2.9,2.3-5.7,3.7-8.4c1.7-3.3,4.8-5.2,8-6.8c1.5-0.7,2.8-0.1,4.2,0.5c2.6,1.2,3.3,1,4.7-1.6
		c1-1.7,1.9-3.5,2.8-5.2c1.9-3.3,4.7-5.4,8.4-6.1c5.8-1,11.6-2.3,17.5-2.6c6.7-0.4,12.7,1.7,17.8,6.4c2.9,2.7,2.6,5.7,1.5,8.7
		c-0.9,2.7-2.5,4.7-5.9,4.6c-2.7,0-4.9,1.2-6.5,3.6c-3.7,5.5-9,8.5-15.4,10.1c-0.2,0.1-0.5,0.1-0.7,0.1c-4.5,0.8-7.7,2.8-7.9,8
		c-0.2,2.9-2,4.9-4.9,5.8c-1.4,0.4-2.6,1.5-3.9,2c-4.8,2-6.3,5.8-5.7,10.7c0.2,1.6,0.8,3.3-1.1,4.2c-1.8,0.8-3.8,0.5-5.2-0.9
		c-1.5-1.4-3.2-2.2-5-1.7c-2.6,0.7-4.9,0.2-7.2-0.7c-2.1-0.8-3.9-0.1-5.6,1c-2.5,1.6-2.6,4.3-0.2,6c1.1,0.8,2.7,1.1,4,1.4
		C328.5,105.3,329.4,105.1,330.3,105.1z"/>
	<path fill="#FFFFFF" stroke="#000000" stroke-width="0.6811" stroke-miterlimit="10" d="M331.2,630.4c-2.3-0.6-4.7-1.1-7-1.7
		c-1.4-0.4-2.7-1.1-4.1-1.5c-2.6-0.8-4.8-2.2-6.2-4.4c-3.1-4.7-6.4-9.4-7.9-14.9c-2.6-9.7-3.8-19.5-1.5-29.5
		c0.2-1.1,0.3-2.2,0.4-3.3c0.2-8.8,0-17.7,0.7-26.5c0.9-10.7-0.5-21.4,0.1-32.1c0.5-9.3-0.6-18.4-3.8-27.5c1.5-0.6,2.8-1.1,4-1.5
		c2,1,2.1,2.7,2,4.3c-0.3,4.2,2,7.5,4,10.7c0.9,1.4,1.4,2.6,0.7,4c-2.3,4.3-2.6,8.8-1.4,13.5c0.3,1.3,0.1,3-0.4,4.3
		c-1.8,4.6-1.6,9.3-0.9,14.1c0.9,5.8,1.9,11.8,0.3,17.6c-1.3,4.7-1,9.5-1.3,14.2c-0.3,3.5,0.5,6.9,2.1,10c1.4,2.8,1.7,5.6,1.6,8.6
		c-0.1,3.1-0.1,6.2-0.3,9.2c-0.4,5.6,2.2,10.3,5,14.7c0.9,1.4,2.9,2.3,4.6,2.8c3.3,0.9,5.1,2.6,5.1,6.2c0,3.5,2.7,5.6,4.7,8.1
		C331.3,629.8,331.2,630.1,331.2,630.4z"/>
	<path fill="#FFFFFF" stroke="#000000" stroke-width="0.6811" stroke-miterlimit="10" d="M547,309c-0.1,1.4,0,2.6-0.2,3.8
		c-0.6,4.3,1,7.4,5,8.9c2.9,1.1,5.9,1.7,8.7,3c2.7,1.3,5.3,3.1,7.8,4.8c3.8,2.6,7.6,3.4,11.7,0.9c1-0.6,1.9-1.5,2.6-2.5
		c1.2-1.8,2.9-2.8,5-2.6c2.6,0.2,5.1,0.6,7.6,1.1c5.1,1,10.1,2.2,15.1,3.1c1.6,0.3,3.4,0.2,5.1-0.1c1.3-0.2,2.1,0,2.8,1.1
		c2.6,3.7,5.3,7.3,5.3,12.1c0,0.9,0.5,1.9,1,2.7c2.5,4.1,4.4,8.4,5.5,13.1c0.5,2.3,2.2,4.4,3.1,6.7c2.1,5.5,6.5,9.4,9.6,14.3
		c1.6,2.5,3.2,4.9,5.1,7.2c1.7,2.1,3.6,4,5.6,5.8c2.2,2,4.8,2.8,7.8,1.7c2.7-1,5.6-0.6,8.4,0.2c1.4,0.4,2.2,1.3,2.1,2.6
		c-0.2,2.4-0.5,4.8-2,7c-2.9,4.4-5.4,9-8.3,13.5c-1.3,2-2.8,3.7-4.3,5.5c-2.6,3.1-5.4,6.1-8,9.2c-4.5,5.4-5.3,11.4-3.4,18.3
		c1.3,4.9,1.4,10.2,1.3,15.3c-0.1,3.2-2.8,5.6-5.4,7.6c-2.7,2.1-5.6,4-8.1,6.4c-2.5,2.4-4.3,5.3-4.8,8.9c-1,6.1-2.6,12.1-5.1,17.7
		c-1.5,3.2-3.6,6.1-5.9,8.8c-3.4,4-7.3,7.6-11,11.4c-4.7,5-10.3,8.6-16.9,10.7c-4.3,1.3-8.5,0.6-12.8,0.4c-1.5-0.1-2.6-1.1-3.3-2.6
		c-1-2.2-1.3-4.4-1.4-6.8c-0.1-6.4-1.5-12.7-4.4-18.4c-1.5-3-3.7-5.8-6-8.3c-1.7-1.8-3-3.7-3.4-5.9c-1-5.1-2.5-10.3-0.7-15.6
		c0.5-1.4,0.8-2.9,0.9-4.3c0.4-4.5,1.4-8.9,3.1-13.1c0.4-1.1,0.2-2.4,0.1-3.6c-0.3-4.1-1.6-8.2-1.2-12.4c0.2-2.2-0.9-3.8-2.7-5.3
		c-2.8-2.4-5.2-5.2-7.5-8c-2.8-3.4-3.2-7.6-3.4-11.8c-0.1-2.1-0.1-4.2-0.3-6.2c-0.4-3.9-1.3-4.8-5.3-5.2c-4.3-0.4-8.6-0.9-12.8-1.3
		c-6.3-0.6-12.7-1.2-19-1.7c-2.4-0.2-4.9,0.3-7.4,0.1c-2-0.1-4.3-0.1-6-1.1c-3.9-2.2-7.7-4.8-11.3-7.5c-5-3.7-8.7-8.7-12.1-13.8
		c-2.8-4-2.5-8.9-2.3-13.6c0.1-1.8,0.5-3.6,0.7-5.5c1.2-7.7,4.6-14.3,10.4-19.4c2.7-2.4,4.5-5,5.8-8.3c1.6-4.3,3.5-8.6,5.4-12.8
		c1-2.3,2.7-4,4.5-5.6c2.1-1.8,3.9-4.1,5.2-6.5c1.5-2.7-0.2-5.2-1.9-7.4c-1.2-1.5-2.8-2.8-4.1-4.2c-3.5-3.6-4.6-11.2-2-15.5
		c0.6-1,2-1.9,3.2-2.2c1.7-0.5,3.6-0.5,5.5-0.5c2.8,0,5.6,0.1,8.4,0.2c0.7,0,1.6,0,2.1,0.4c4,2.4,8.5,3.7,13.1,4.2
		c0.1,0,0.1,0.2,0.2,0.3c-0.9,4.8-3.4,8.3-7.9,10.7c-3.1,1.7-5.9,3.9-8.6,6.2c-1.9,1.6-2.2,4.1-1.7,6.5c0.2,0.8,1.5,1.8,2.4,1.9
		c3.7,0.4,7.5,1.4,10.6-2.2c2-2.4,5.1-3.1,8-3.2c5.1-0.2,10.3,0,15.4,0.1C545.6,308.4,546.1,308.7,547,309z"/>
	<path fill="#FFFFFF" stroke="#000000" stroke-width="0.6811" stroke-miterlimit="10" d="M591.9,162.4c-2.8,0-4.9,0.2-6.9-0.1
		c-2.5-0.3-4.4,0.4-5.9,2.3c-1.8,2.3-4.1,3.2-6.9,3.7c-4.3,0.7-8.1,2.6-11,6.1c-1.4,1.7-3,3.3-4.7,4.6c-2.8,2-3.5,4.9-3.8,8
		c-0.2,1.6-0.1,3.2-0.5,4.8c-0.3,1.2-0.9,2.7-1.8,3.5c-4.7,3.8-3.8,8.7-2.9,13.5c0.1,0.8,0.7,1.6,0.9,2.4c0.8,2.7,0.2,4.1-2.3,5.5
		c-2.1,1.2-4.2,2.6-6.3,3.8c-2.9,1.5-4.3,1.1-5.4-2c-1-2.7-1.4-5.7-1.8-8.6c-0.3-2.8,1.4-4.9,3.1-6.9c3.1-3.8,6.4-7.5,9.3-11.4
		c3.1-4.1,5.4-8.7,6.8-13.7c0.4-1.5,0.5-3.1,0.5-4.7c-0.1-2.3,0.5-4.1,2.5-5.3c5-3.2,9.7-6.7,14.9-9.5c4-2.2,8.4-3.2,13.2-2.8
		C587.2,155.8,589.6,158.3,591.9,162.4z"/>
	<path fill="#FFFFFF" stroke="#000000" stroke-width="0.6811" stroke-miterlimit="10" d="M512.9,280.9c2.5-5.2-0.2-9.5-2.2-13.7
		c1.6-1.1,3-2.2,4.5-3.1c3.3-1.9,6.6-3.8,9.9-5.6c0.8-0.4,2-0.4,2.9-0.1c2.5,0.9,4.9,2,7.3,3.2c1.4,0.7,2.1,2.1,1.4,3.7
		c-0.3,0.8-0.7,1.6-0.8,2.4c-0.2,1.3-0.7,2.7-0.4,3.9c0.6,3.1,1.5,6.1,2.4,9.1c0.4,1.5-0.2,2.2-1.6,2.2c-1.1,0-2.2-0.3-3.3-0.3
		c-1.9,0-3.7-0.4-5.4,1.4c-0.8,0.9-3.1,1-4.5,0.7C519.7,284.2,516.1,283.8,512.9,280.9z"/>
	<path fill="#FFFFFF" stroke="#000000" stroke-width="0.6811" stroke-miterlimit="10" d="M541.2,264.1c0.6-2.6-0.7-4.3-2.7-5.7
		c-1.5-1.1-1.7-2.6-1.5-4.3c0.4-2.4,0.6-5,1.7-7.1c1-2.1,2.5-4.6,4.5-5.5c2.3-1,5.3-0.4,8-0.4c1.1,0,2.1,0.6,3.2,0.9
		c2.2,0.6,3.1,2.1,3.5,4.3c0.7,3.8,0.8,3.8-2.8,5.6c-2,1-2.7,3.5-1.4,5.5c1.7,2.8,1.6,3-1.1,5C548.9,264.9,545.2,265.5,541.2,264.1z
		"/>
	<path fill="#FFFFFF" stroke="#000000" stroke-width="0.6811" stroke-miterlimit="10" d="M554.9,272.5c-2.5,5-2.3,6.4,0.9,10.2
		c3.8,4.4,7.6,8.7,12.9,11.3c-0.8,1.6-1.5,3.1-2.5,5.1c-1.4-6.2-6.2-8.6-10.6-11.5c-0.9-0.6-2-1.1-2.6-2c-3.2-4.5-8-5.6-12.8-6.8
		c-0.4-3.1-0.3-3,2.1-3.6c2.2-0.6,4.5-1.2,6.5-2.2C550.7,271.9,552.5,272.7,554.9,272.5z"/>
	<path fill="#FFFFFF" stroke="#000000" stroke-width="0.6811" stroke-miterlimit="10" d="M573.9,292.2c-5.5-3.5-11.7-6.2-16.1-11.4
		c-0.3-0.3-0.1-1.1-0.2-2.4c1.4,0.9,2.2,1.4,3.1,2c2.1,1.4,4.1,3.1,6.3,4.2C571.1,286.6,573.1,288.4,573.9,292.2z"/>
	<path fill="#FFFFFF" stroke="#000000" stroke-width="0.6811" stroke-miterlimit="10" d="M625.3,335.6c-1.7-2.6-3.1-4.5-4.3-6.6
		c-0.9-1.6-0.1-3.2,1.8-4c1.4-0.6,2.9,0.1,3,2.1C626,329.7,625.5,332.3,625.3,335.6z"/>
	<path fill="#FFFFFF" stroke="#000000" stroke-width="0.6811" stroke-miterlimit="10" d="M534.4,249.2c-0.3,2.2-0.6,4.5-1,7.3
		c-2.2-0.9-4.2-1.8-6.5-2.8c2.4-1.8,4.5-3.4,6.6-5C533.8,248.9,534.1,249,534.4,249.2z"/>
	<path fill="#FFFFFF" d="M901.5,301.8c-0.5-3.4-2.5-6.1-5.2-8.4c-1.5-1.4-2.6-2.9-2.4-5.1c0.1-1.3-0.2-2.7-0.3-4.2
		c-1-0.6-2-1.2-3.1-1.9c0.1-3.1,2.4-4.4,4.7-5.5c1.7-0.8,3.2-1.6,4.1-3.4c0.8-1.5,4.2-2.4,5.6-1.4c0.6,0.4,1,1.7,0.8,2.4
		c-0.4,1.3-1.2,2.4-1.9,3.5c-2.3,3.7-3.4,7.3-0.4,11.2c1.4,1.8,2.3,4.1,3.5,6.1c0.9,1.5,1.8,3.1,0.4,4.7
		C905.9,301.5,904.3,303.3,901.5,301.8z"/>
	<path fill="#FFFFFF" stroke="#000000" stroke-width="0.6811" stroke-miterlimit="10" d="M877.3,436.4c-3.7-0.3-7.3-0.4-11-0.9
		c-4.1-0.6-5.6-3-4.5-7c0.2-0.6,0.3-1.2,0.4-1.8c0.3-2.9,2.3-4.2,4.9-4.5c0.5-0.1,1,0,1.5,0c3.3-0.7,6.3-1.8,7.8-5.3
		c0.9-2.1,2.3-4,3.8-5.7c1.5-1.6,3.3-1.5,5-0.3c1.5,1.1,1.9,2.3,0.7,3.8c-2.8,3.4-2.3,7.3-2.2,11.2c0.1,2.2,0,4.5-0.7,6.4
		C882,434.5,880.4,436.7,877.3,436.4z"/>
	<path fill="#FFFFFF" stroke="#000000" stroke-width="0.6811" stroke-miterlimit="10" d="M901.5,384.5c-0.8,2.3-1.7,4.2-2.1,6.1
		c-0.5,2.6,1.2,4.4,3,6.1c2.5,2.2,2.3,4.3-0.5,6.2c-0.2,0.1-0.4,0.2-0.6,0.4c-4.1,2.1-8.2,4.2-12.6,6.5c-1.2-1.1-2.8-2.4-4.3-3.8
		c-1.4-1.2-1.1-2.7-0.2-4c1.1-1.5,2.3-2.9,3.6-4.2c2.8-2.5,4.3-5.5,4.4-9.3c0-1.3,0.6-2.6,0.8-3.9c0.5-3-0.2-5.8-0.9-8.6
		c-0.7-3,0.1-5.7,2.3-8.2c2.2,1.8,2.6,3.6,2.2,5.8c-0.3,1.3-0.5,2.7-0.4,4c0.1,2,0.6,3.8,2.8,4.8C900.1,382.9,901,384,901.5,384.5z"
		/>
	<path fill="#FFFFFF" stroke="#000000" stroke-width="0.6811" stroke-miterlimit="10" d="M237.1,127c1.5-0.1,2.9-0.2,4.4-0.3
		c1.6,0,3-0.7,3.5-2.2c0.6-1.7-0.6-2.8-1.8-3.7c-1-0.7-2.1-1.2-3.2-1.8c-1.2-0.6-2.4-1.2-3.6-1.8c0.1-0.9,0.2-1.5,0.3-2.1
		c0.7-3-0.1-4.2-3.1-4.1c-1.5,0.1-3.1,0.7-4.5,1.3c-1.8,0.7-3.3,0.7-4.7-0.9c-1.2-1.4-1-2.9-0.3-4.5c0.7-1.7,1.7-3,3.5-3.6
		c2.9-1,4.9-2.8,6.3-5.7c2.1-4.4,3.2-4.7,8.2-3.9c0.8,0.1,1.7,0.2,2.6,0.2c5.6,0.4,9.6,4.3,9.8,10c0.1,3,1.1,5.4,3,7.7
		c2,2.4,4.8,2.7,7.1,0.6c1.2-1.1,2.1-2.7,3-4.1c1.6-2.7,3.1-3.6,4.8-3c1.8,0.6,2,2.1,1.7,5.4c-0.4,4.5-3.1,7.9-5.1,11.7
		c-1.4,2.6-2,4.9-0.2,7.5c1,1.5,1.6,3.6,0.2,4.7c-1.3,1-3.4,1.3-5.1,1.3c-1.1,0-2.3-0.8-3.3-1.4c-3.5-1.8-7-1.9-10.6-0.5
		c-1.9,0.8-4,1.3-6,1.7c-0.9,0.2-2.2,0.1-2.8-0.4C238.7,133.3,236.3,131,237.1,127z"/>
	<path fill="#FFFFFF" stroke="#000000" stroke-width="0.6811" stroke-miterlimit="10" d="M934.7,283.3c3.8-0.4,5.1,0.6,5.3,3.8
		c0,1,0.2,2,0,2.9c-0.6,2.6,0,5.1,1,7.5c1.2,2.9,0.8,3.7-1.9,5.4c-1.1,0.7-2.4,1.3-3.4,2.2c-1.2,1.1-2.6,2.4-3.3,3.8
		c-1.1,2.3-2.7,3.6-5.2,4.1c-2.5,0.5-4.9,1.5-7.4,2.2c-2.4,0.7-3.8,2.1-3.7,4.8c0,0.6-0.2,1.2-0.4,1.9c-4.1-6.5-2.4-12.8,3.4-15.4
		c2.3-1.1,4.1-2.5,5.7-4.3c1.2-1.3,2.8-2.3,4.3-3.4c3.1-2.4,6.2-4.8,5.7-9.4C934.5,287.4,934.7,285.3,934.7,283.3z"/>
	<path fill="#FFFFFF" stroke="#000000" stroke-width="0.6811" stroke-miterlimit="10" d="M1043.1,562.5c2.6,2,3.1,4.9,3.8,7.7
		c0.6,2.4,1.1,4.7,4.2,5.4c1,0.2,1.6,1.7,2.5,2.7c-0.4,0.7-0.7,1.2-1.1,1.6c-4.5,4.2-9,8.3-13.4,12.6c-1.1,1.1-2.2,2.3-3.2,3.5
		c-3.6,4.9-8.1,8.7-12.9,12.4c-1.9,1.5-3.6,3.2-5.2,5.1c-1.6,1.9-3,3.9-5.5,4.8c-1.2,0.5-2.5,1.6-3.6,0c-0.9-1.4-1.3-3-0.2-4.5
		c0.6-0.8,1.3-1.5,2.1-2c3.3-2.1,6.7-3.9,9.8-6.3c2-1.5,3.6-3.6,5-5.7c1.9-2.7,3.4-5.7,5.3-8.4c0.5-0.7,1.4-1.3,2.3-1.7
		c1-0.5,2.1-0.6,3.2-1c2.7-1,2.8-1.3,2.6-4.3c-0.1-0.8,0.2-1.7,0.5-2.4c1.1-2.4,2.5-4.8,3.6-7.3c1.3-2.9,1.4-6,0.8-9
		C1043.4,564.7,1043.3,563.6,1043.1,562.5z"/>
	<path fill="#FFFFFF" stroke="#000000" stroke-width="0.6811" stroke-miterlimit="10" d="M980.8,457.7c-2.2-1.1-4.3-2.2-6.5-3.3
		c-4.3-2.2-8.5-3.1-12.6,0.5c-0.7,0.6-1.8,1-2.7,0.9c-2.8-0.2-5.6-0.5-8-2.1c0.6-5.6-2.3-10.1-7.3-12.2c-2.4-1-5-1.8-7-3.9
		c1.3-1.3,2.5-0.3,3.6-0.2c1.6,0.2,2.9,0.3,3.9-1.2c0.5-0.7,1.2-1.2,1.9-1.7c2.9-1.9,6.1-2.8,8.9-0.6c3.6,2.9,8,3.7,12,5.4
		c1.5,0.6,3,1.2,4.3,2c0.9,0.5,1.9,1.2,2.5,2.1c2.2,3.4,4.2,6.8,6.3,10.3c0.6,1,0.9,2.2,1.4,3.3C981.2,457.3,981,457.5,980.8,457.7z
		"/>
	<path fill="#FFFFFF" stroke="#000000" stroke-width="0.6811" stroke-miterlimit="10" d="M504.5,258.1c-0.6-2.8-0.2-4.6,0.9-6.3
		c1.2-1.7,2.4-3.4,3.5-5.2c1.5-2.4,0.7-5.6-1.9-6.3c-2.2-0.6-4.6-0.3-6.8-0.4c-0.8,0-1.5,0.1-2.3,0.2c-0.1-0.9-0.1-1.8-0.2-2.8
		c1-0.1,1.6-0.2,2.2-0.2c3.3-0.1,3.8-0.9,2.8-4.2c-0.8-2.5-2.2-4.9-1.9-8.1c1.5-0.4,2.9-0.8,4.4-1.2c1,3.8,1,3.8,5.4,5.5
		c-0.2,0.9-0.3,1.8-0.7,2.7c-1.1,2.3-0.4,4,1.4,5.5c0.6,0.5,1.2,0.9,1.7,1.4c2.2,1.8,4.1,3.8,4.6,6.8c0.3,1.5,1.2,2.9,1.9,4.6
		c-1.6,2.9-3.7,5.1-7.5,5.3c-1.3,0.1-2.6,0.8-3.8,1.2C507,257,506,257.5,504.5,258.1z"/>
	<path fill="#FFFFFF" stroke="#000000" stroke-width="0.6811" stroke-miterlimit="10" d="M500.1,243.2c-0.6,1.9-1.1,3.6-1.8,5.3
		c-0.7,1.6-2.3,2.3-3.9,2.1c-1.5-0.1-2.6-1.2-2.9-2.9c-0.4-2.1,0.4-4.1,1.8-4.8C494.9,242.2,497.3,242.2,500.1,243.2z"/>
	<path fill="#FFFFFF" stroke="#000000" stroke-width="0.6811" stroke-miterlimit="10" d="M282.4,80.7c0.1,0.6,0.4,1.2,0.2,1.7
		c-0.7,2.4,0.1,4.3,1.4,6.2c1.8,2.8,0.8,4.7-2.6,4.9c-1.7,0.1-3.4,0-5.1-0.4c-2.7-0.6-5.1-0.2-7.5,1c-3.6,1.8-6.5,0.7-7.7-3.1
		c-0.5-1.7-1.3-2.8-3-3.3c-1.7-0.5-2.8-1.9-2.7-3.6c0.3-3.5-1.3-6.1-3.2-8.7c1.1-2.7,2.7-4.2,5.7-4.6c2.1-0.2,4.1-1.5,5.9-2.6
		c1.3-0.8,2.5-1.5,4.1-1.2c2.9,0.6,4.1,3,2.9,5.9c-2.1,4.9-1.5,7.5,2.4,10.9c2.2,2,3.6,1.8,5.3-0.7
		C280.1,81.1,280.1,81.1,282.4,80.7z"/>
	<path fill="#FFFFFF" stroke="#000000" stroke-width="0.6811" stroke-miterlimit="10" d="M650.9,148.1c-2.5,2-4.3,2-5.7,0
		c-1.1-1.7-2.5-3.4-3.1-5.3c-1.5-5.4-1.7-10.9-0.9-16.4c0.1-0.7,0.4-1.5,0.4-2.2c-0.5-4.9,2.3-8.4,4.7-12.1c1.1-1.6,2.6-2.7,4.4-3.2
		c3.1-0.8,5.6-2.5,7.7-4.9c0.6-0.7,1.5-1.5,2.3-1.7c0.8-0.2,2.1,0.2,2.5,0.8c0.4,0.5,0,1.7-0.1,2.6c-0.1,0.3-0.4,0.6-0.7,0.8
		c-4.4,3.7-7.6,8.3-10,13.5c-1.9,4-4,7.8-6,11.8c-2.9,5.7-1.2,12.1,3.2,15.6C649.9,147.8,650.5,147.9,650.9,148.1z"/>
	<path fill="#FFFFFF" stroke="#000000" stroke-width="0.6811" stroke-miterlimit="10" d="M555.1,106.5c0.4,1.4,0.8,2.8,1.2,4.2
		c0.6,2,0.6,3.9-0.5,5.7c-1.2,1.9-2.8,1.9-4.1,0.1c-0.3-0.4-0.6-0.8-0.7-1.3c-1.3-4.9-4.5-8.7-7.4-12.6c-0.9-1.3-1.8-2.6-2.6-4
		c-1-2-0.6-3.2,1.2-4.3c1-0.6,2.1-1.3,3.3-1.6c2.2-0.6,4.7-0.5,5.8-3.2c0.1-0.3,0.9-0.4,1.3-0.5c1.8-0.7,3.7-1.4,5.4-2.2
		c3.4-1.6,6.7-1.4,9.7,1c2.1,1.6,2.1,3.4,0.1,5.2c-1.1,1-2.3,1.9-3.2,3c-1.5,2.1-1.2,3.7,0.7,5.5c0.9,0.8,1.8,1.7,2.3,2.8
		c0.3,0.5,0,1.7-0.5,2.1c-0.8,0.7-1.6,0.2-2.1-0.7c-0.6-1.2-1-2.5-1.7-3.7c-0.9-1.5-2.1-2.9-4-2.8c-2,0.1-2.9,1.6-3.4,3.4
		C555.7,103.8,555.4,105.1,555.1,106.5z"/>
	<path fill="#FFFFFF" stroke="#000000" stroke-width="0.6811" stroke-miterlimit="10" d="M896.2,458.9c-1.7,1.8-3.7,2.3-5.9,1.7
		c-2.1-0.6-4.1-1.5-6.1-2.3c-5.4-2.3-10.9-2.3-16.6-1.9c-3.1,0.2-6.3-0.3-9.4-0.7c-2.3-0.3-3.5-2-4.2-4.3c2.8-2,5.7-2.6,9-1.7
		c1.9,0.5,3.8,0.8,5.7,1.1c0.8,0.2,1.7,0.3,2.5,0.6c4.7,1.7,9.4,3.6,14.1,4.9c2,0.6,4.4,0.1,6.6,0
		C893.8,456.2,895.5,456.5,896.2,458.9z"/>
	<path fill="#FFFFFF" stroke="#000000" stroke-width="0.6811" stroke-miterlimit="10" d="M691.8,56.1c-0.1-3.2,2.6-6.1,6.2-5.2
		c2.4,0.6,4.3,1.5,5.8,3.9c1.7,2.7,4.6,4.7,6.9,6.9c0.7,0.7,1.5,1.2,2.3,1.8c1.5,1.2,1.6,2.7,0.9,4.3c-0.6,1.5-2.6,2.7-4.2,2.1
		c-2.7-1-5.4-2.3-7.8-3.8c-2.7-1.7-5-3.8-7.6-5.6C692.4,59.1,691.8,58.3,691.8,56.1z"/>
	<path fill="#FFFFFF" stroke="#000000" stroke-width="0.6811" stroke-miterlimit="10" d="M719.6,64.1c3.8-0.1,7,0,10.1,3
		c-1.9,1.3-3.2,2.4-4.7,3.1c-2.8,1.4-4,0.8-4.9-2.1C719.7,66.9,719.7,65.5,719.6,64.1z"/>
	<path fill="#FFFFFF" stroke="#000000" stroke-width="0.6811" stroke-miterlimit="10" d="M657.8,507.7c-2.3,0.2-3.6-0.8-4.3-2.8
		c-0.4-0.9-0.8-1.8-1.2-2.7c-2.1-4-1.1-7.6,1.4-11c0.7-0.9,1.5-1.6,2.1-2.5c1.9-2.6,3.8-5.1,3-8.7c-0.6-2.7,1.2-4.4,3.3-5.6
		c3-1.6,6.1-3.2,9.1-4.7c2.4-1.2,3.2-0.9,4.7,1.5c2.7,4.6,1.9,9-1,13.1c-2.3,3.2-4.3,6.5-5.4,10.4c-0.7,2.5-1.6,4.9-2.8,7.2
		C664.9,505.5,661.9,507.5,657.8,507.7z"/>
	<path fill="#FFFFFF" stroke="#000000" stroke-width="0.6811" stroke-miterlimit="10" d="M820.2,413.4c3.9,0.9,7.9,2.4,9.7,6.1
		c3.2,6.4,8.2,11.2,12.9,16.2c2.5,2.7,2.8,6,3,9.8c-3.6-1.8-6.7-3.1-8.2-6.6c-1.1-2.5-3-4.6-3.9-7.1c-2.1-5.8-6.1-10-10.5-14
		c-1.3-1.1-2.4-2.4-3.5-3.6C819.8,414,820,413.7,820.2,413.4z"/>
	<path fill="#FFFFFF" stroke="#000000" stroke-width="0.6811" stroke-miterlimit="10" d="M921.3,210.5c1.3,2.6,3,5.1,3.7,7.9
		c0.9,3.3,2.7,5.7,5,7.9c1.3,1.2,1.9,2.4,1.1,4.2c-0.5,1.3-0.6,2.8-0.8,4.3c-2.1-5.7-3.9-11.5-7.8-16.6c-1.6-2-2.6-4.7-2.1-7.5
		C920.7,210.7,921,210.6,921.3,210.5z"/>
	<path fill="#FFFFFF" stroke="#000000" stroke-width="0.6811" stroke-miterlimit="10" d="M900.6,440.5c-2.7-1.9-3.1-6.3-7.2-6.8
		c0.6-2.8,2.6-4.1,5.1-5.1c0,2.2-0.4,4.2,0.1,6.1c0.5,1.9,1.8,3.6,2.7,5.4C901,440.2,900.8,440.4,900.6,440.5z"/>
	<path fill="#FFFFFF" stroke="#000000" stroke-width="0.6811" stroke-miterlimit="10" d="M892.8,438.7c0,1.9,0,3.9,0,6.1
		C890.4,442.7,890.4,442.3,892.8,438.7z"/>
	<path fill="#FFFFFF" d="M938.9,269.6c-0.8-1.6-1.5-3-2.2-4.3c1.3-3.3,5-5.6,3.6-9.7c2.2,0.4,4,1.1,5.8,1c2.1-0.1,3.8-0.8,4.4-3.5
		c0.7-3,1.6-3.2,4.5-1.9c-0.4,0.9-0.8,1.7-1.2,2.6c-0.5,1.3-0.9,2.7-1.5,4c-1.1,2.3-2.3,4.5-3.6,6.7c-0.3,0.5-1.2,1-1.8,0.9
		c-2.9-0.3-4.9,1.1-6.5,3.3C940.3,269,939.9,269.1,938.9,269.6z"/>
	<path fill="#FFFFFF" stroke="#000000" stroke-width="0.6811" stroke-miterlimit="10" d="M457.3,187.8c1.3-2.7,2.9-3.4,5.6-2.1
		c0.8,0.4,1.4,1,2.1,1.5c3.1,1.7,6.2,2.2,9.4,0.4c0.8-0.5,1.8-0.7,2.7-0.9c1.5-0.2,2.7,0.4,3.3,1.8c0.6,1.4,0.4,2.8-0.8,3.7
		c-1.6,1.1-3.2,2.4-5,2.9c-3.2,1-6.4,2.8-10,1.7c-1.1-0.3-2.4-0.9-3-1.8C460.1,192.8,458.8,190.3,457.3,187.8z"/>
	<path fill="#FFFFFF" stroke="#000000" stroke-width="0.6811" stroke-miterlimit="10" d="M845.4,421.3c-3.4-0.8-5.4-2-6.6-4.3
		c-1.3-2.5-2.5-5-3.7-7.5c-0.2-0.3,0-0.8,0-1.7C838.8,412.1,842.4,416,845.4,421.3z"/>
	<path fill="#FFFFFF" stroke="#000000" stroke-width="0.6811" stroke-miterlimit="10" d="M817.9,61.5c2.5,1.7,4.4,2,6.4,0.8
		c3.4-2.1,6.3-1.4,9.1,1.8c-1,2.8-3.3,4.6-5.7,6.1c-1.6,1-3.6,1.5-5.5,2c-2.9,0.8-6.5-2.9-5.9-5.7C816.7,64.9,817.3,63.5,817.9,61.5
		z"/>
	<path fill="#FFFFFF" stroke="#000000" stroke-width="0.6811" stroke-miterlimit="10" d="M278.6,63.4c2.8,1.6,4.6,0.5,6.4-2
		c1.6-2.3,7.8-0.7,8.3,2c0.2,1-0.6,2.2-1.2,3.2c-0.3,0.5-1.2,0.8-1.9,0.9c-3,0.6-5.6,1.8-6.5,5C279.1,71.5,277.7,69,278.6,63.4z"/>
	<path fill="#FFFFFF" stroke="#000000" stroke-width="0.6811" stroke-miterlimit="10" d="M947.3,586.1c7-2.5,9.2-2.1,11.4,2.1
		c-1.9,1.8-3.9,3.5-5.8,5.3c-1.2,1.1-2.6,1.8-4,1c-0.9-0.6-1.6-2.1-1.8-3.2C946.9,589.6,947.2,587.9,947.3,586.1z"/>
	<path fill="#FFFFFF" stroke="#000000" stroke-width="0.6811" stroke-miterlimit="10" d="M43.4,371c-1.7-1.5-2.1-3.1-2.2-5.1
		C44.7,366.9,45.2,367.8,43.4,371z"/>
	<path fill="#FFFFFF" stroke="#000000" stroke-width="0.6811" stroke-miterlimit="10" d="M34.5,354.8c1.2,1.1,2,1.9,3.2,3.1
		C35,358.3,34.3,357.4,34.5,354.8z"/>
	<path fill="#FFFFFF" stroke="#000000" stroke-width="0.6811" stroke-miterlimit="10" d="M27,355.3c-0.7-0.5-1.4-0.9-2.4-1.7
		c1.9-0.9,2.6-0.3,3,0.7C27.4,354.7,27.2,355,27,355.3z"/>
	<path stroke="#000000" stroke-width="0.6811" stroke-miterlimit="10" d="M545.1,292.9c0.3,0.2,0.7,0.5,1.1,0.7
		c1.9,1.1,2.9,4.1,2.1,6.2c-0.7,1.5-3.6,2.6-5.5,1.8c-0.7-0.3-1.4-1-1.7-1.7c-0.4-1-0.5-2.1-0.6-3.2C540,293.3,545,291,545.1,292.9z
		 M544.6,299.4c1-0.9,1.9-1.8,1.2-3.6c-0.8-0.2-1.7-0.5-2.7-0.7C542.6,297,542.7,298.4,544.6,299.4z"/>
	<path fill="#FFFFFF" stroke="#000000" stroke-width="0.6811" stroke-miterlimit="10" d="M544.6,299.4c-1.9-1-2-2.4-1.5-4.3
		c1,0.3,1.9,0.5,2.7,0.7C546.5,297.5,545.6,298.4,544.6,299.4z"/>
	<path fill="#FFFFFF" stroke="#000000" stroke-miterlimit="10" d="M886.3,498.1c0,0-25.9-2.2-17.9,27.8c0,0-1.7,18.6-4.7,20.7
		c-3,2.1,9.2,4.1,12.9,1.6s22-7.3,22-7.3l7.9-1.8l10.2,0.2l5.2,4.3l4.3,3.6l5.2,5.2l5.7,3.9l1.8,4.5l2,4.2l7.5,4.6h6.1l7,1.3
		c0,0,4.3-1.4,5.7-6.7c1.4-5.2,11.6-18.7,13.8-18.9s8.2-20.7,8.2-20.7l0.7-7.5l-1.8-4.8l-3.9-4.8l-7.7-14.3l-4.5-9.3l-3.6-7.7
		l-3.2-5.9c0,0-3.6-6.4-8.2-0.5s-1.8,7.9-1.8,7.9l-0.5,4.5l-1.6,3l-6.4-2.3l-4.3-3.9l-1.8-3.9v-3.9l-1.7-1.4l-4.1-1.4l-5.7-1.1
		c0,0-5.5,1.6-7.5,7c-2,5.4-5,0.7-5,0.7l-6.4-0.5l-4,2l-3.1,1.3l-4.9,4.5l-4.1,8l-3.8,4.6L886.3,498.1z"/>
	<path stroke="#000000" stroke-width="0.6811" stroke-miterlimit="10" d="M953.7,483.7c0.3-2.6,0.8-5.1,0.8-7.6
		c-0.1-3,1.1-5.5,2.5-7.9c1.5-2.6,4.2-2.9,6.9-1.3c1.9,1.1,2.9,2.8,4,4.6c3.5,5.3,4.5,11.6,7.4,17.1c1.9,3.5,4,6.9,6,10.4
		c3,5.1,6,10.1,8.9,15.2c0.7,1.2,1.1,2.9,0.9,4.3c-0.7,6.6-0.8,13.3-4.4,19.2c-0.7,1.1-1.2,2.4-1.6,3.7c-1.1,3.6-4.1,5.8-6.4,8.4
		c-4.4,4.8-8.1,10.1-9.7,16.3c-1.4,5.3-7.5,7.2-11.7,6.4c-3.5-0.7-7-1.5-10.5-2.2c-4-0.9-6.9-3-8.1-7.2c-0.7-2.7-2-4.9-4.7-6.2
		c-4-1.9-7.1-4.9-9.6-8.5c-3-4.4-7.2-6.5-12.2-7.5c-5.2-1.1-10.2-0.2-15.1,1.8c-3,1.2-5.6,2.4-9.2,1c0.6-0.5,3.7-2.3,4.3-2.5
		c3.1-1.1,6.2-2.2,9.4-3.1c4.9-1.4,9.9-1.5,14.9-0.1c4.1,1.1,7.3,3.4,9.6,7c2,3.3,4.9,5.7,8.1,7.8c2.6,1.7,4.8,3.5,5.8,6.7
		c1.3,4.4,4.3,7.3,9.1,8c3.3,0.4,6.5,1.4,9.8,1.8c4.1,0.5,5.7-0.7,7.3-4.6c1.2-2.8,2.2-5.8,3.9-8.3c2.4-3.7,4.8-7.5,7.9-10.6
		c5.6-5.6,8.1-12.5,9.8-19.9c0.5-2,0.6-4.1,1-6.2c0.5-2.5-0.3-4.6-1.6-6.6c-3.1-5-6.2-10.1-9.5-15c-3.8-5.7-6-12.1-8.7-18.3
		c-1.4-3.1-3.1-6.1-5-9c-1.7-2.6-3.6-2.4-5.7-0.1c-2.3,2.5-1.9,5.5-1.8,8.4c0.1,2.3-0.3,4.4-1.3,6.4c-0.2,0.4-0.6,0.7-0.9,1.1
		c-9.1-0.9-14.5-6.6-13.3-14.4c-1.2-0.5-2.5-1.2-3.8-1.6c-1.8-0.5-3.6-0.9-5.4-1.3c-3.4-0.8-5.6,0.3-7.3,3.4
		c-3.2,6-4.4,6.4-10.5,3.3c-0.6-0.3-1.4-0.6-2-0.5c-4.7,1.4-8.8,3.4-11.6,7.8c-2.8,4.5-6.1,8.6-9.3,12.8c-2,2.6-4.5,3.5-7.9,3.5
		c-7.3,0-12.2,2.7-14,8.9c-1.4,4.6-1.8,9.2-1,13.8c0.9,5.3,1.2,10.5,0.1,15.7c-0.7,3.1-1.8,6.1-2.7,9.1c2.2,1.9,4.5,1.5,6.6,1
		c4.3-1.1,8.5-2.5,12.8-3.6c1.9-0.5,8.2-3.5,10.8-1.7c-1.2,0.7-6.4,3.2-7.4,3.5c-5.2,1.5-10.4,3-15.6,4.1c-2.1,0.4-4.4,0-6.5-0.4
		c-2.5-0.5-2.9-1.1-2.5-3.6c0.4-2.3,0.8-4.6,1.6-6.8c1.7-5,2.3-9.9,1.1-15.1c-1.3-6.1-1.1-12.2,1.4-18.1c2.1-5.1,6-7.9,11.3-8.9
		c1.8-0.3,3.7-0.7,5.5-0.6c2.1,0.1,3.5-0.7,4.7-2.3c3.2-4.2,6.8-7.9,9.4-12.7c2.6-4.8,7.4-7.5,12.8-8.6c1.9-0.4,4.1,0.2,6.1,0.7
		c3.6,1,4,1,5.8-2.3c2.8-5.1,6.3-6.5,11.8-4.9c1.7,0.5,3.4,0.7,5,1.1c3.1,0.8,3.4,1.3,3.7,4.6c0,0.1,0,0.2,0,0.4
		c0,2.2-0.4,4.4,1.4,6.2C947.5,481.5,949.6,483.5,953.7,483.7z"/>
	<polygon fill="#FFFFFF" stroke="#000000" stroke-miterlimit="10" points="952.6,582.9 949.7,583.4 946.9,586.1 945.9,588.9 
		945.9,592.3 948.4,594.9 952,595 956.5,592.7 958.5,590.2 959.1,587.3 957.2,584.3 955.8,583.9 	"/>
	<path stroke="#000000" stroke-width="0.6811" stroke-miterlimit="10" d="M946,587.9c-0.2-4.9,3.3-6.5,8.2-5.8c2.7,0.4,5.2,1,6.3,4
		c0.9,2.7,0.5,4.3-1.8,6c-1.8,1.3-3.4,2.8-5.1,4.2c-1.4,1.2-2.9,2.2-5,1.4c-1.6-0.6-2.7-1.5-2.5-3.5
		C946.6,590.4,946.1,591,946,587.9z M947.3,586.1c-0.1,1.8-0.4,3.5-0.2,5.1c0.2,1.2,0.9,2.6,1.8,3.2c1.3,0.9,2.8,0.1,4-1
		c1.9-1.8,3.9-3.6,5.8-5.3C956.5,584.1,954.3,583.6,947.3,586.1z"/>
	<path fill="#FFFFFF" stroke="#000000" stroke-miterlimit="10" d="M538.8,276.6l0.5,1.7l2.9,2.4l5.2,1.8l4.4,4.5
		c0,0,6.6,3.8,6.6,4.6c0.1,0.8,4.6,3.7,4.6,3.7l2,3.5h3.5l2.3-3.9l-2.8-4l-8.5-6.1l-3.1-3.7l-0.5-3.8l-0.3-3.8l-1.4-0.9l-3.4-1.7
		l-5.9,0.6l-4.2,2.6L538.8,276.6z"/>
	<path fill="#FFFFFF" stroke="#000000" stroke-miterlimit="10" d="M555,305.6l1,2.2c0,0,2.9,0.7,2.7,0.7s2.7,0.5,2.7,0.5l0.4-0.8
		l2-0.8l-1.1-2.8l-0.2-0.5l-2.2-0.4h-3.1h-1l-1.1,0.2L555,305.6z"/>
	<path stroke="#000000" stroke-width="0.6811" stroke-miterlimit="10" d="M563.3,304.7c-1.4,0.3-7.1-1.2-8,0.3
		c1.5,1.6,5.1,0.1,5.1,3.6c1.8,0.5,2.9-1.6,3.2-4.1c0.7,0.7,1.3,1.1,1.5,1.5c0.5,1,1.8,1.9,0.8,3.3c-0.9,1.3-2.1,0.9-3.3,0.7
		c-2.3-0.5-4.6-0.7-6.7-1.4c-1-0.3-1.9-1.5-2.4-2.6c-0.9-2.1,0-3.1,2.4-2.9c1.6,0.1,5.7,0.8,7.2,0.9
		C563.1,304.3,563.3,304.5,563.3,304.7z"/>
	<polygon fill="#FFFFFF" stroke="#000000" stroke-width="0.6811" stroke-miterlimit="10" points="619.8,326.9 621.4,331.9 
		624.8,334.5 627.6,332.4 627.5,328.1 626.1,324.7 623.1,323.7 620.1,325 	"/>
	<path fill="#FFFFFF" stroke="#000000" stroke-miterlimit="10" d="M499,241.8h6.1h2l0.2,2.2l-0.9,4.4l-2.3,2.3l-0.5,5.7l2,1.8
		c0,0,2.5,0.7,3.6,0c1.1-0.7,2-0.7,2-0.7l3.6-1.6l2.7-1.9l2.5-3.8l-1.1-3.6l-2-5l-2.9-3.9l-4.4-1.8v-2.7l0.9-3.9l-1.2-2.5l-2.3-0.9
		l-1-3.2l-2-0.7l-4,1.1l-2.4,1.6v3.6l1.5,2.5l0.5,1.4v2.3l0.7,0.9l-1.6,0.2l-2,0.2l-0.3,0.9l-0.8,3.2l0.9,1.2L499,241.8z"/>
	<path stroke="#000000" stroke-width="0.6811" stroke-miterlimit="10" d="M500.6,234.5c-0.7-2.2-1.3-4.6-2-6.9
		c-0.9-3.2-0.3-4.4,2.8-5.7c0.6-0.2,1.1-0.5,1.7-0.6c3.9-1.2,5.4,0,5.2,4.1c0.2,0.1,0.4,0.3,0.6,0.4c4.5,1.4,4.5,1.4,3.3,5.8
		c-0.7,2.7-0.6,3,1.8,4.5c2.9,1.8,5,4.2,5.9,7.6c0.4,1.4,1.2,2.6,2.1,3.8c1,1.4,1.1,2.6,0.1,4c-2.4,3.6-5.1,6.4-9.9,6.8
		c-2.7,0.3-5.3,1.8-7.9,2.8c-4.1-2.5-3.5-6.4-1-11.3c0.5-1,1.4-1.7,2.1-2.6c0.8-1.1,2-2.1,1-3.6c-0.9-1.3-2.2-1.9-4.2-1
		c-0.2,1.2-0.6,2.6-0.8,4c-0.6,4.2-5.4,7.5-9.5,6.3c-2.4-0.7-3.6-2.1-3.3-4.5c0.4-3.1,1.2-6,4.5-7.5c0.8-0.3,1.8-1.2,1.9-1.9
		c0.4-2.9,2.1-4,4.8-4C500.1,235,500.3,234.7,500.6,234.5z M504.5,258.1c1.5-0.6,2.6-1.1,3.7-1.5c1.3-0.5,2.5-1.1,3.8-1.2
		c3.8-0.2,6-2.4,7.5-5.3c-0.7-1.7-1.6-3.1-1.9-4.6c-0.5-3-2.4-5-4.6-6.8c-0.6-0.5-1.2-0.9-1.7-1.4c-1.9-1.5-2.5-3.2-1.4-5.5
		c0.4-0.8,0.5-1.8,0.7-2.7c-4.4-1.7-4.4-1.7-5.4-5.5c-1.5,0.4-2.9,0.8-4.4,1.2c-0.3,3.2,1.1,5.6,1.9,8.1c1,3.2,0.5,4-2.8,4.2
		c-0.6,0-1.2,0.1-2.2,0.2c0.1,1.1,0.1,2,0.2,2.8c0.8-0.1,1.5-0.2,2.3-0.2c2.3,0.1,4.7-0.2,6.8,0.4c2.7,0.7,3.5,3.8,1.9,6.3
		c-1.1,1.8-2.4,3.5-3.5,5.2C504.3,253.5,503.9,255.3,504.5,258.1z M500.1,243.2c-2.8-1.1-5.2-1.1-6.9-0.2c-1.5,0.7-2.2,2.7-1.8,4.8
		c0.3,1.7,1.5,2.7,2.9,2.9c1.6,0.1,3.2-0.5,3.9-2.1C499,246.9,499.4,245.1,500.1,243.2z"/>
	<path fill="#FFFFFF" stroke="#000000" stroke-miterlimit="10" d="M509.7,265.2c0,0,4.8,14.2,2.6,15.5c-2.2,1.4,13.3,4.6,13.3,4.6
		l5.3-2.2l5.4-0.1l3.4-1l-1.5-5.4l-0.7-6.5l0.9-8.2l-2.2-3.4l-5.8-2l-4.3-0.5l-4.1,1.7l-3.9,2.9h-5.4l-2.7,1.3L509.7,265.2z"/>
	<path fill="#FFFFFF" stroke="#000000" stroke-miterlimit="10" d="M534.9,256.5v-8.2l4.3-5.2l3.4-2.8l6.6-0.1l5.6,1l4.1,2.5l0.7,5.4
		c0,0-5.9,4.8-5.7,6.4s5,5.3-0.7,8.3c-5.7,3-11.6,1.5-11.6,1.5l-2.7-3.9l-2.7-1.1L534.9,256.5z"/>
	<path fill="#FFFFFF" stroke="#000000" stroke-miterlimit="10" d="M551.1,171c0,0-2.2,19.2-15.8,28.6l-5.4,8.8v5.2l1.8,4.5l3,1.8
		l2,2.5l6.5-1.8l5.7-4.1l0.5-4.5l-0.2-6.4l-0.4-3.9l0.5-4.1l1.8-1.6l1.3-1.6l-0.5-5.4v-6.1l4-2.7l3.6-3.9l4.5-3.2l4.9-2.3l6.2-0.9
		l5-4.9l6.2-1.3h6.1l2.5-2.7l-3.9-3.4c0,0-10.9-10.9-28.6,4.1s-9.3,5.7-9.3,5.7L551.1,171z"/>
	<path stroke="#000000" stroke-width="0.6811" stroke-miterlimit="10" d="M823.3,384.3c-0.3-1.7-2.8-4.7-4-7.7
		c-0.8-2.2-3.1-3.4-5.8-3.2c-4.1,0.3-6.8-1.6-8.3-5.3c-0.8-2-1.5-4.1-2.4-6.2c-0.5-1.2-1-2.5-1.9-3.5c-1.7-1.8-3.6-3.3-6.5-2.2
		c-1,0.4-2.2,0.2-3.8,0.3c-1.3,2.2-2.9,4.7-4.2,7.2c-2.5,4.7-5.3,8.9-10.1,11.8c-3.6,2.2-6.1,6.2-6,10.5c0.1,2.7-0.2,5.2-0.4,7.8
		c-0.1,0.7-0.1,1.5-0.3,2.2c-1,3.7-2.9,4.7-6.5,3.5c-2.2-0.7-3.8-1.8-4.8-4c-1-2.4-2.2-4.7-3.1-7.1c-2.3-6.1-4.4-12.2-6.6-18.4
		c-0.2-0.7-0.6-1.3-0.8-2.1c-1.4-5.8-1.3-5.8-5.9-9.7c-3.8,2.3-7.6,2-11.4-0.1c-0.9-0.5-1.8-1.3-2.5-2.1c-0.8-0.9-1.6-1.9-2.2-2.9
		c-2.2-3.6-5.2-5.1-9.5-5.7c-4.8-0.7-9.5-0.3-14.2-0.7c-2.5-0.3-5-1.2-7.4-1.9c-0.7-0.2-1.4-0.6-2.1-0.6c-5.3-0.1-9.2-2.8-12.9-6.3
		c-1.8-1.7-3.5-3.5-5.4-5.1c-1.5-1.2-3.1-2.5-5.5-1.6c-0.1,0.8-0.4,1.7-0.2,2.5c1,4.5,3.5,8,7.2,10.7c0.6,0.5,1.9,0.2,2.8,0.1
		c2.2-0.1,4.4-0.3,6.6-0.4c2.3-0.1,4.4,0.6,5.9,2.4c0.1,0.1,0.2,0.2,0.3,0.2c5.9,1.9,6.6,7,7.2,12.1c0.1,0.7,0.1,1.5-0.2,2.1
		c-1,2.4-1.9,4.8-3.1,7.1c-1.3,2.6-3.2,4.7-5.7,6.6c-4.8,3.5-10.1,5.8-15.6,8.1c-4.7,2-9.5,3.2-14.5,3.4c-1,0-2-0.1-2.9-0.2
		c-3.5-0.3-6.9-3-6.2-7.6c0.8-5.4-1.1-9.5-4.7-13.3c-3.3-3.4-5.3-7.6-7.5-11.7c-1.9-3.6-4-7-6.4-10.3c-1-1.4-2.8-2.2-4.7-3.6
		c-0.2,1.4-0.6,2.2-0.3,2.7c4,6.7,5.5,14.5,8.8,21.4c1,2.1,2.3,4,3.7,5.9c3.3,4.6,6.7,9.1,10.1,13.6c2,2.8,3.8,5.7,7.1,7.3
		c1.5,0.7,2.9,1.1,4.6,0.6c4-1,8-0.5,11.9,0.8c1.3,0.4,1.9,1.2,1.9,2.7c-0.1,4.3-1.7,8.2-3.9,11.8c-3.6,5.8-7.3,11.7-11.2,17.3
		c-2.9,4.1-6.3,7.9-9.6,11.6c-2.3,2.6-3.6,8.3-2.4,11.4c0.5,1.3,0.8,2.7,0.9,4.1c0.4,3,0.5,6.1,0.9,9.1c0.6,5-0.5,9.2-4.2,13.1
		c-2.4,2.6-4.8,4.8-7.7,6.7c-3.5,2.3-5.4,5.6-6.4,9.6c-2.3,9-4.9,17.9-10,25.8c-0.3,0.5-0.6,1.2-1,1.5c-5.2,3.7-8.3,9.3-12.8,13.6
		c-1.8,1.7-3.7,3.2-5.8,4.5c-2.8,1.7-5.8,3.2-8.7,4.8c-6,3.3-12.2,2.2-18.3,0.8c-2.2-0.5-3.8-2.4-4.2-4.8c-0.7-3.8-1.9-7.6-1.6-11.6
		c0.3-4.2-0.8-8.2-3.2-11.9c-2.1-3.2-4.5-6.2-6.8-9.3c-2.2-2.9-3.3-6.1-3.9-9.7c-1.8-9.5,0.4-18.6,3-27.6c1.1-3.8,2.1-7.5,1.1-11.5
		c-0.5-2-0.7-4.1-0.9-6.2c-0.2-2.1-1.1-3.7-2.8-5c-2.9-2.3-5.2-5.2-7.4-8.1c-2.6-3.5-3.4-7.2-3.3-11.4c0-2.1,0.1-4.2-0.2-6.3
		c-0.4-2.5-1.1-3.1-3.6-3.4c-2.7-0.3-5.4-0.5-8.1-0.8c-8.3-0.9-16.6-1.9-24.9-2.7c-3.2-0.3-6.4,0.1-9.6-0.2
		c-1.5-0.1-3.2-0.6-4.4-1.4c-2.1-1.4-3.9-3.3-6-4.8c-1.5-1-3.2-1.6-4.7-2.6c-4.2-2.7-6.9-7-10.1-10.6c-0.9-1-1.6-2.1-2.3-3.2
		c-2.9-4.4-3.9-9.6-3-14.4c1-5,1.1-10.1,3.3-15c1.6-3.3,2.5-6.9,4.8-9.8c1.7-2,3.4-4.1,5.4-5.9c1.6-1.5,2.8-3.1,3.7-5.3
		c2.6-6.1,5.1-12.2,9.2-17.5c1.3-1.7,3.2-3.1,4.7-4.6c2.6-2.6,2.6-5.5-0.2-8c-1.5-1.3-3.2-2.4-4.5-3.7c-0.9-0.9-1.8-2.1-2.2-3.3
		c-1.4-5-1.2-9.9,0.5-14.8c0.7-2,1.9-3.5,4.1-3.8c3.6-0.6,7.1-1.7,10.9-0.8c2.5,0.6,2.9,0.1,3.3-2.5c0.7-3.9,0-7.2-3.1-10
		c-2.2-2-1-6.2,1.9-7.2c0.9-0.3,1.9-0.4,2.9-0.4c5.6,0,9.2-3,12.3-7.3c3.3-4.5,6.8-8.9,12.3-11.2c3.7-1.5,4.6-3.1,4-7.1
		c-0.5-3.4,0.3-6.2,3.1-8.1c1.3-0.9,2.9-1.3,4.4-1.9c0.2-3.3-1.9-4.7-5.4-3.3c-1.7,0.7-3.4,1.4-5.2,1.8c-2.6,0.6-3.4-0.1-5.2-2.2
		c-3-3.5-2.1-8-3.2-11.9c1.3-2.6,2.3-5.4,4-7.8c3.2-4.5,6.7-8.8,10.3-13c2.7-3.2,3.9-7,5.5-10.7c0.5-1.2,0.6-2.7,0.4-4
		c-0.9-4.3,1.7-6.7,4.7-8.8c4.1-2.9,8.1-6.1,12.6-8.1c6.2-2.8,12.7-5.2,19.9-2.9c2.6,0.8,4.6,2.5,6.3,4.3c2.4,2.5,5.6,3.2,8.6,3.6
		c3.1,0.3,6.1,0.6,9,1.6c1.7,0.6,3.6,0.7,5.4,1.1c2.9,0.6,3.9,1.9,4.2,4.8c0.3,2.9,0.1,5.6-1.5,8.2c-2,3.2-4.6,4.2-8.1,3.3
		c-2.2-0.6-4-0.1-5.8,1.9c1.5,1.5,2.9,3.2,4.5,4.4c2,1.6,4,1.2,5.3-1c2.7-4.3,6.5-7.2,10.7-9.9c2.5-1.6,4.5-4.1,6.5-6.4
		c3.3-3.8,6.9-6.8,12.3-7.3c5.7-0.5,10.5-3,14.5-7.2c1.9-2,4.4-3,7.3-3c4.1,0,8,0.8,12,1.9c1.1,0.3,2.3,0.6,3.8,0.9
		c-0.3-0.7-0.3-1-0.5-1.3c-0.4-0.4-1-0.8-1.4-1.2c-0.6-0.6-1.5-1.2-1.5-1.9c-0.1-3.1-3.7-5.2-2.1-8.9c1-2.2,1-4.8,2-7.1
		c0.9-2.2,2.6-4,3.7-5.8c5.5,0.4,5.7,0.7,6.6,5.6c0.2,1.4,0.8,2.7,1.4,4.6c0.9-1.1,1.6-1.6,1.7-2.1c0.4-3.6,3-5.1,5.8-6.6
		c1.4-0.7,2.9-1.4,4.1-2.5c0.7-0.6,1.4-1.8,1.4-2.7c0.1-1.9-0.2-3.9-0.3-5.8c-0.1-2.2,0.3-4.3,1.6-6.3c1.8-2.7,3.4-5.6,5.1-8.4
		c0.3-0.4,0.5-0.9,0.9-1.1c4.5-3.5,9-7,13.6-10.4c2.8-2.1,5.7-4,5.5-8.3c-0.1-1.9,0.8-3.8,1.3-5.6c0.7-2.9,3.2-3.9,5.5-5
		c1.6-0.8,2.8,0.1,4,1.1c3.2,2.9,3.2,2.9,7.2,0.7c0.6-0.3,1.4-0.6,2.1-0.6c1.7,0.1,3.4,0.3,5.1,0.5c2.2,0.3,4.2,1.2,5.8,3
		c1.1,1.2,2.3,2.1,3.3,3.3c1,1.1,1.8,2.3,2.7,3.6c-0.2,2.3-0.3,4.7-0.5,7.2c-0.2,3.8,1.1,6.7,4.9,8.1c2.9-1.2,5.9-2.2,8.8-3.5
		c2.4-1.1,4.7-1.3,7.1-0.4c3.1,1.2,5.6,0.9,7.6-2.2c1-1.5,2.5-2.5,4.5-2.9c2-0.3,3.9-1.4,5.8-2.1c1.5-0.6,2.9-0.2,4.1,0.8
		c1.3,1.1,3,1.9,4,3.3c2.3,3.1,5.5,4.9,8.6,6.7c1.9,1.1,12.7,0.9,14.6-0.2c3.2-1.9,4.8-4.6,4.7-8.5c-0.1-3,1.3-5.4,4.1-6.7
		c1.9-0.9,4-1.5,5.6-2.8c3.3-2.6,7.2-2.3,10.9-2c1.9,0.2,3.7,1.7,5.4,2.8c1.2,0.8,2.2,2,3.2,3.1c3.1,3.2,7.1,4,11.3,2.1
		c4.9-2.2,10-3.5,15.3-1.5c2.2,0.8,4.1,2.1,6.2,3.2c3.7,2,4.9,1.9,8-0.7c0.4-0.3,0.7-0.7,1.1-1c3.8-3.1,7.6-5.9,12.9-3.2
		c1.4,0.7,3.3,0.4,5.5,0.7c-0.5-1.4-0.8-2.4-1.1-3.4c-0.7-2.9,0.6-5.2,3.5-6.4c2.3-0.9,4.7-1.1,7.2-0.9c5.3,0.4,10.5,0.4,15.8,0.9
		c4.3,0.4,8.3,1.8,12.2,3.9c4,2.2,8.1,3.4,12.9,0.8c4.7-2.6,11.5,0,12.6,4.5c0.2,0.9,0.9,1.8,1.7,2.3c4,2.3,3.7,6.6,5.1,10.1
		c0.8,1.9-1.9,5.1-4.5,6.1c-2,0.7-4,1.3-6,1.9c-2.7,0.7-4.4,2.6-5.4,5.1c-0.4,1-1,2-1.4,3c-0.7,1.9,0,4,1.8,5
		c1.1,0.7,2.5,1.1,3.5,1.9c3.7,2.8,3.4,6.8,2.7,10.8c-0.5,3.1-2.7,5-5,6.5c-2.4,1.5-3.3,3.6-2.9,6.2c0.7,5.7-2.1,9.6-6.3,12.8
		c-0.6,0.4-1.2,0.9-1.8,1.2c-5.6,2.2-7.3,9.9-5.4,15.5c1.2,3.3,2.6,6.5,4.7,9.5c2.1,3.1,3.6,6.7,3.7,10.6c0,0.2,0,0.5,0,0.7
		c0.1,3,2.1,5.8,0.3,9.2c-1.4,2.8-1.5,6.2-2.8,9.1c-1.4,3.1-4.2,5.1-7.5,6c-2.1,0.6-3.4-0.4-4.2-2.5c-0.6-1.5-1-3-1.3-4.6
		c-0.7-3.1-2.1-5.7-3.9-8.2c-3.3-4.9-7.3-9.5-9.4-14.9c-2-5.4-3.8-11.4-0.6-17.5c2.4-4.6,3.3-9.7,2.9-14.9c-0.3-3.6-0.6-3.9-4.1-3.8
		c-1.7,0.1-3.4-0.1-5.1,0c-1.8,0.2-3,1.1-3,3.1c-0.1,3.8-0.4,7.6-0.2,11.4c0.1,2.1-0.3,3.7-1.7,5c-2.9,2.6-6.2,4.4-10.3,4.3
		c-1.5,0-3-0.1-4.4-0.3c-4.6-0.7-8.5,0.6-11.9,3.6c-4.9,4.3-8.1,9.8-10.7,15.7c-1.8,4.2-0.5,8.2,1.8,11.9c1,1.7,2.5,2.5,4.6,2.6
		c2.1,0.1,4.1,0.6,6.1,1.2c1,0.3,2,1.1,2.5,1.9c1.2,2.4,2.2,4.9,3.1,7.4c0.8,2.3,1,4.9,2.1,7c2,4.1,3.2,8.5,3.5,13
		c0.2,3.3-0.2,6.6-0.8,9.9c-0.9,4.7-5.5,10.1-7.5,14.4c-0.8,1.2-0.1,0.3-0.9,0.4c1.3-3.4,4-7.5,5.1-11c2.6-8.1,2.5-16.1-1-24.1
		c-1.5-3.5-2.2-7.3-3.4-10.9c-2.1-6.3-1.4-5.6-8.4-6.9c-2.8-0.5-5.5-1-6.9-3.6c-2.1-3.8-4-7.6-2.7-12.5c1.4-5.4,4.6-9.7,7.7-14.1
		c1.1-1.5,2.1-3.1,3.5-4.2c4.3-3.4,9.1-5.3,14.6-4.5c4.1,0.6,8,0.8,11.6-1.8c1.3-1,1.9-2,2-3.6c0.2-4.2,0.5-8.3,1.1-12.5
		c0.6-4.1,2.8-5.6,6.9-5.2c0.9,0.1,1.9,0.1,2.7-0.2c2.5-0.7,5,0.2,5.9,2.6c0.9,2.5,1.6,5.1,0.7,7.9c-1,3-1.8,6-2.9,8.9
		c-1.6,4.1-1.4,8.2-0.9,12.6c0.7,5.5,3.4,9.8,6.5,14.1c2.4,3.3,5.5,6.3,6.7,10.4c0.6,2.1,1.2,4.2,1.9,6.3c1,3.2,2.3,3.7,5.1,2
		c1-0.6,2.1-1.5,2.6-2.5c2-3.9,3.4-7.9,3.1-12.6c-0.3-7.4-3.9-13.3-6.9-19.6c-1.4-3.1-2.3-6.5-3.4-9.7c-0.2-0.5-0.3-1-0.2-1.4
		c1.4-5,2.7-9.9,7.9-12.7c4.2-2.2,6.7-5.6,6.5-10.9c-0.1-3.7,1.3-7.1,4.9-9.3c3.5-2.2,6.1-8.3,2.7-12c-1-1.1-2.4-2-3.8-2.6
		c-3.8-1.7-4.8-5.2-2.9-9c1.2-2.4,1.9-5,4.5-6.4c1.9-1.1,3.8-2.2,5.7-3.1c1.2-0.6,2.6-0.8,3.8-1.4c2.2-1.2,2.4-2.6,2.3-5.2
		c-0.3-5.2-4-8.3-7.1-11.7c-1.6-1.7-3.8-2-6.4-1.3c-5,1.4-10.1,2-15.1-0.5c-6.9-3.6-14.3-5-22.1-4.6c-2.4,0.1-4.9-0.1-7.3-0.4
		c-3.6-0.4-5,0.1-7.8,3.2c0.7,1.9,1.3,3.8,2,5.8c-1.3,2-2.9,2.8-5.1,1.9c-1-0.4-2.2-0.4-3.2-0.7c-4.5-1.5-8.2-0.2-11.5,2.9
		c-1.3,1.2-2.7,2.1-4.2,3c-2.1,1.3-4.1,1.2-6.2-0.1c-2.9-1.8-5.8-3.3-8.8-4.9c-2.3-1.2-4.6-0.7-6.8,0.2c-2.4,0.9-4.8,2-7.1,3.1
		c-4.4,2-8.2,1.6-12.8-3.4c-1.5-1.7-3.3-3.3-5.3-4.4c-2.6-1.5-5.5-1.3-8.2-0.2c-2,0.8-4,2-6.1,2.7c-3,1.1-4.4,3.4-4.4,6.2
		c0,7.6-7,11.9-13.2,12c-1,0-2,0-2.9,0.2c-3.2,0.6-6.1,0.5-8.4-2.2c-0.5-0.6-1.4-1.1-2.2-1.4c-2-0.7-3.2-2-4.3-3.8
		c-2.4-3.9-6.2-5.1-10.5-3.7c-2.4,0.8-4.8,1.6-6.3,4.1c-1.8,2.9-5.1,3-8,2.3c-4.1-1-7.8-0.1-11.4,1.6c-0.8,0.4-1.6,0.7-2.4,1.1
		c-4.5,2-6.8,0.9-9-3.6c-1.4-2.9-2.2-5.7-1.4-8.7c1.1-4.6-1.5-7.2-4.7-9.5c-2.6-1.9-5.8-2.1-8.9-2c-1.1,0-2.3,0.8-3.2,1.6
		c-1.6,1.3-3,1.4-4.6,0.2c-1.5-1.1-3-2-4.6-3.1c-4,1.4-5.5,2.8-4.9,6.9c0.7,4.7-1.8,7.1-5.2,9.1c-5,2.9-9.8,6.1-14,10.1
		c-6,5.6-9.2,12.3-7.9,20.8c0.3,2.2-0.5,3.9-2.3,5c-2.1,1.3-4.1,2.8-6.4,3.7c-1.8,0.7-2.6,1.8-2.9,3.4c-0.4,1.7-0.5,3.4-0.9,5.1
		c-0.2,0.7-0.8,1.3-1.2,2c-0.7-0.5-1.6-0.8-1.9-1.4c-1.2-1.9-2.6-3.7-2.8-6.2c-0.1-1.9-0.6-4.6-3.3-4.7c-2.5-0.1-2.7,2.5-3.6,4.2
		c-0.3,0.6-0.3,1.5-0.6,2.1c-2.8,6.4,0.4,11.2,4.5,15.5c1.4,1.5,2.2,2.8,2.3,4.6c-1.1,1.4-2.4,1.4-3.7,0.6c-5-3.1-10.8-3.2-16.3-4
		c-2.5-0.4-4.3,0.8-5.8,2.5c-3.5,3.8-7.9,6.1-12.8,6.7c-6,0.8-10.4,3.8-14.2,8.2c-1.8,2.1-3.9,4.2-6.2,5.7c-3.7,2.6-6.4,6.1-9.3,9.4
		c-3.9,4.6-7,4.8-11.3,0.4c-1.6-1.6-3.1-3.5-4.2-5.5c-1-1.7-0.5-2.9,1.3-3.4c1.9-0.6,4.1-0.9,6.1-0.8c5.1,0.3,9-3.5,8.3-8.3
		c-0.3-1.9-1.2-2.9-3-3.2c-5.3-0.9-10.6-1.9-16-2.8c-0.9-0.1-1.9,0.1-2.8,0.4c-3.8,1.4-7.7,2.6-11.9,2c-1.9-0.3-3.3,0.2-4.5,1.8
		c-1.7,2.2-4,3.2-6.7,3.4c-4.4,0.2-8,2-11,5.3c-1.3,1.5-2.8,2.8-4.2,4.1c-2.2,2.1-3,4.8-2.8,7.7c0.2,3.4-0.7,6.3-3.2,8.6
		c-3.3,2.9-3.5,6.5-2.1,10.1c1.2,3.1,1.2,6,0.2,8.9c-0.6,1.9-1,3.5,0.6,5.5c1.6,2,0.5,4.5-1.9,5.7c-0.4,0.2-0.9,0.4-1.4,0.6
		c-4.3,1.6-5.2,3.4-4.2,7.8c0.2,0.8,0.5,1.6,0.8,2.5c0.7-0.1,1.4,0,1.9-0.2c5-1.8,8.8,1,12.6,3.3c2.2,1.3,2.3,4,2.6,6.3
		c0.3,2.6-0.6,4.4-3.2,5.6c-2.1,0.9-2.2,1.7-1.4,3.8c1.5,3.8,1.3,3.6-1.6,6.1c-3,2.6-6.2,3.7-10.1,3.3c-1.3-0.1-2.7,0.2-3.9,0.6
		c-2.7,0.9-3.1,2-1.8,5.1c3.4-0.6,6.8-0.8,10-3c3.6-2.5,7.1-0.9,8.7,3.3c0.5,1.4,1.4,2.4,2.5,3.5c3.5,3.1,7,6.1,11.3,8.2
		c2.9,1.4,4.6,3.9,5.4,7.1c0.7,2.6,1.6,5.1,2.5,7.7c0.3,0.8,0.7,1.6,1.1,2.3c0.9,1.7,2.4,2,4.1,1.7c1.6-0.3,2.1-1.6,2.2-3
		c0.3-2.7,0.8-5.3,3-7.2c1.1-1,2.2-1.4,3.7-1.1c3.1,0.6,6,3.6,6.4,6.7c0.2,1.3,0.2,2.7,0.3,4c0.4,3.1,2.6,4.9,4.7,6.8
		c0.5,0.4,1.4,0.4,2.1,0.4c3.2-0.1,6.4-0.4,9.6-0.6c0.5,0,1-0.2,1.5-0.2c7.8-0.9,10,2.1,9.3,10.7c-0.1,1.6-0.4,2.9,0.4,4.5
		c0.7,1.5,0.5,3.5,0.6,5.3c0,1.1-0.3,2.2-0.4,3.3c-0.2,2.8,0.6,5.2,3.1,6.9c2.9,2,4.5,5.1,6.2,8.1c3.1,5.6,5.8,11.5,10.8,15.9
		c3.8,3.3,4.9,8.1,5.1,13c0.2,5.9,2.4,8,8.2,6.9c3-0.5,5.9-1.7,8.8-2.6c1.8-0.6,3.4-1.5,5.2-1.8c5.6-1.2,10.5-3.9,14.4-7.8
		c4.2-4.1,6.8-9.3,5.8-15.5c-0.2-0.9-0.6-2-1.2-2.6c-4.3-3.5-8.8-7.1-14.9-5.3c-4.2,1.3-6.9-0.8-9.2-3.6c-1.8-2.1-2.9-4.8-4.2-7.3
		c-0.3-0.5-0.2-1.2-0.3-1.8c-0.6-3.7,0-5.6,2-6.5c2.7-1.3,5.9-0.8,8.2,1.4c2.1,2,4.2,4.1,6.2,6.3c1.7,1.9,3.7,3.1,6.2,3.7
		c2.1,0.6,4.2,1.4,6.4,1.8c3.2,0.6,6.5,1,9.8,1.4c5.4,0.6,10.8,1.2,16.2,1.6c2.9,0.3,4.1,2.3,5.3,4.5c1.9,3.8,4.6,6.7,9,7.5
		c1.5,0.3,2.9,0.5,4.1-0.7c1.6-1.5,3.1-0.9,4.7,0.2c3.2,2.2,4.8,5.3,5.9,9c1.2,4.3,3.2,8.4,4.7,12.6c1.5,4,3.1,8,4.3,12.1
		c1,3.7,2.6,6.5,6.8,7.8c1.5-2.9,2.7-5.7,2.2-9c-1.2-7.4,2.5-12.6,7.7-16.8c4-3.3,7.4-6.8,9.5-11.5c0.2-0.4,0.3-0.9,0.5-1.4
		c2.4-5.2,7-7.5,12.6-6.3c3.1,0.6,6,3.9,6.3,7.8c0.2,2.5,1.2,4.5,2.4,6.5c1.1,1.9,2.8,3.3,5.2,2.9c4-0.7,6.4,1.6,8.3,4.3
		C822.2,376.8,823.3,384.3,823.3,384.3z M547.4,308.5c-1-0.3-1.4-0.6-1.9-0.6c-5.1-0.1-10.3-0.2-15.4-0.1c-3,0.1-6,0.8-8,3.2
		c-3,3.6-6.9,2.6-10.6,2.2c-0.9-0.1-2.2-1.1-2.4-1.9c-0.5-2.3-0.2-4.9,1.7-6.5c2.7-2.3,5.5-4.6,8.6-6.2c4.5-2.4,7-5.9,7.9-10.7
		c-0.1-0.1-0.2-0.3-0.2-0.3c-4.7-0.5-9.1-1.8-13.1-4.2c-0.6-0.4-1.4-0.3-2.1-0.4c-2.8-0.1-5.6-0.2-8.4-0.2c-1.8,0-3.7,0-5.5,0.5
		c-1.2,0.3-2.6,1.2-3.2,2.2c-2.6,4.3-1.6,11.9,2,15.5c1.4,1.4,2.9,2.7,4.1,4.2c1.7,2.1,3.4,4.6,1.9,7.4c-1.3,2.4-3.1,4.7-5.2,6.5
		c-1.9,1.7-3.5,3.3-4.5,5.6c-1.8,4.3-3.7,8.5-5.4,12.8c-1.3,3.3-3.1,5.9-5.8,8.3c-5.7,5.2-9.2,11.7-10.4,19.4
		c-0.3,1.8-0.7,3.6-0.7,5.5c-0.3,4.7-0.5,9.5,2.3,13.6c3.5,5,7.2,10.1,12.1,13.8c3.6,2.7,7.4,5.3,11.3,7.5c1.7,0.9,4,1,6,1.1
		c2.4,0.1,4.9-0.3,7.4-0.1c6.3,0.5,12.7,1.1,19,1.7c4.3,0.4,8.6,0.9,12.8,1.3c4,0.4,4.9,1.2,5.3,5.2c0.2,2.1,0.2,4.2,0.3,6.2
		c0.2,4.2,0.6,8.4,3.4,11.8c2.3,2.8,4.8,5.6,7.5,8c1.8,1.5,2.8,3.1,2.7,5.3c-0.3,4.2,0.9,8.3,1.2,12.4c0.1,1.2,0.3,2.6-0.1,3.6
		c-1.7,4.2-2.6,8.6-3.1,13.1c-0.1,1.5-0.4,2.9-0.9,4.3c-1.8,5.3-0.3,10.5,0.7,15.6c0.4,2.3,1.7,4.2,3.4,5.9c2.4,2.4,4.5,5.3,6,8.3
		c2.9,5.7,4.2,12,4.4,18.4c0,2.4,0.3,4.6,1.4,6.8c0.7,1.5,1.8,2.5,3.3,2.6c4.3,0.3,8.5,1,12.8-0.4c6.6-2.1,12.2-5.7,16.9-10.7
		c3.6-3.8,7.5-7.4,11-11.4c2.3-2.7,4.4-5.6,5.9-8.8c2.6-5.6,4.1-11.6,5.1-17.7c0.6-3.6,2.3-6.5,4.8-8.9c2.5-2.4,5.4-4.3,8.1-6.4
		c2.6-2,5.3-4.4,5.4-7.6c0.2-5.1,0-10.4-1.3-15.3c-1.8-6.9-1.1-12.8,3.4-18.3c2.6-3.1,5.3-6.1,8-9.2c1.5-1.8,3.1-3.5,4.3-5.5
		c2.8-4.4,5.4-9.1,8.3-13.5c1.4-2.2,1.7-4.6,2-7c0.1-1.3-0.7-2.2-2.1-2.6c-2.8-0.8-5.6-1.2-8.4-0.2c-3.1,1.1-5.6,0.3-7.8-1.7
		c-2-1.8-3.9-3.7-5.6-5.8c-1.9-2.3-3.5-4.7-5.1-7.2c-3.1-4.8-7.5-8.7-9.6-14.3c-0.8-2.3-2.5-4.3-3.1-6.7c-1.1-4.7-2.9-9-5.5-13.1
		c-0.5-0.8-1-1.8-1-2.7c0-4.8-2.7-8.4-5.3-12.1c-0.7-1.1-1.6-1.3-2.8-1.1c-1.7,0.3-3.5,0.4-5.1,0.1c-5.1-0.9-10.1-2.1-15.1-3.1
		c-2.5-0.5-5.1-0.9-7.6-1.1c-2.1-0.1-3.7,0.8-5,2.6c-0.6,1-1.6,1.9-2.6,2.5c-4.1,2.5-7.9,1.7-11.7-0.9c-2.5-1.7-5-3.5-7.8-4.8
		c-2.8-1.3-5.8-1.9-8.7-3c-3.9-1.4-5.6-4.6-5-8.9C547.4,311.1,547.3,309.9,547.4,308.5z M576.6,296.5c-2.6,0.9-4.4,1.6-6.4,2.3
		c-0.6,1-1.3,2.2-2,3.3c-2.8-0.8-4.7-2.3-5.4-4.7c-0.9-2.8-2.8-4.4-5.1-6c-3.1-2.2-6.2-4.4-9-6.9c-3.2-2.8-5.6-3-9.1-0.5
		c-0.9,0.6-2.2,1.1-3.3,1c-3.8-0.5-5-0.1-6.8,3.1c-0.5,0.8-0.8,1.8-1.1,2.7c-0.9,4-3.3,6.7-6.8,8.7c-2.8,1.7-5.4,3.8-8.1,5.8
		c-1.7,1.2-2.8,2.8-2.2,5.4c2.7,1.1,5.4,1.8,8-0.6c0.9-0.8,2-1.5,2.9-2.3c3-2.5,6.6-3.4,10.3-3.4c4.7,0,9.3,0.6,14,0.9
		c3,0.3,4.1,1.7,3.8,4.6c-0.1,0.7-0.4,1.4-0.5,2.1c-0.8,3.5-0.4,4.7,2.9,6.2c2.9,1.3,6.1,2,9.1,3c1.3,0.4,2.5,1,3.6,1.7
		c2.3,1.4,4.4,3.1,6.7,4.4c4.1,2.2,6.2,1.8,8.9-1.9c2.6-3.4,6-4.2,9.8-3.4c5.1,1,10.1,2.2,15.1,3.3c1.4,0.3,2.9,0.7,4.4,0.7
		c2.5,0.1,4.9,0,7-1.6c1-0.7,1.9-1.4,2.9-2c1.1-0.6,2.3-1,3.3-1.6c2-1.2,2.5-3.5,1.9-6.6c-0.5-2.1-1.8-2.8-3.7-2.8
		c-2.2,0-4.4,0-6.5,0.1c-2.8,0.1-5.7,0.3-8.5,0.2c-1.3-0.1-2.8-0.5-3.7-1.4c-2.7-2.8-5.6-5.6-5.6-10c0-0.8-0.1-1.7-0.3-2.5
		c-0.5-2-2.4-4-3.8-4c-1.5-0.1-2.3,1.3-3,4.1c-0.5,1.9-1,3.8-2,5.5c-1.2,2-3.6,2.3-5.5,0.9c-1.7-1.3-3.5-2.6-4.3-4.8
		C578.2,298.4,577.2,297.4,576.6,296.5z M592.3,161.9c-2.2-4.1-4.7-6.5-9.1-6.9c-4.7-0.4-9.2,0.6-13.2,2.8
		c-5.2,2.8-9.9,6.4-14.9,9.5c-2,1.3-2.6,3.1-2.5,5.3c0.1,1.6-0.1,3.2-0.5,4.7c-1.4,5-3.7,9.6-6.8,13.7c-2.9,3.9-6.2,7.6-9.3,11.4
		c-1.6,2-3.4,4.1-3.1,6.9c0.3,2.9,0.8,5.8,1.8,8.6c1.1,3.1,2.5,3.5,5.4,2c2.2-1.1,4.2-2.5,6.3-3.8c2.4-1.4,3-2.8,2.3-5.5
		c-0.2-0.8-0.7-1.6-0.9-2.4c-0.9-4.9-1.8-9.8,2.9-13.5c0.9-0.8,1.5-2.2,1.8-3.5c0.4-1.5,0.3-3.2,0.5-4.8c0.4-3.1,1-6,3.8-8
		c1.8-1.3,3.4-2.9,4.7-4.6c2.9-3.5,6.7-5.4,11-6.1c2.8-0.4,5.1-1.4,6.9-3.7c1.5-1.9,3.4-2.6,5.9-2.3
		C587.4,162.1,589.5,161.9,592.3,161.9z M513.3,280.4c3.1,2.9,6.8,3.2,10.2,4c1.4,0.3,3.7,0.2,4.5-0.7c1.7-1.9,3.5-1.5,5.4-1.4
		c1.1,0,2.2,0.4,3.3,0.3c1.3,0,2-0.7,1.6-2.2c-0.8-3-1.8-6-2.4-9.1c-0.2-1.2,0.2-2.6,0.4-3.9c0.2-0.8,0.5-1.6,0.8-2.4
		c0.6-1.7,0-3-1.4-3.7c-2.4-1.2-4.8-2.3-7.3-3.2c-0.8-0.3-2.1-0.3-2.9,0.1c-3.4,1.7-6.7,3.6-9.9,5.6c-1.5,0.9-2.9,2-4.5,3.1
		C513.1,270.9,515.8,275.2,513.3,280.4z M541.6,263.6c3.9,1.5,7.7,0.9,11.2-1.7c2.7-2,2.8-2.2,1.1-5c-1.2-2-0.6-4.5,1.4-5.5
		c3.5-1.8,3.4-1.8,2.8-5.6c-0.4-2.1-1.3-3.7-3.5-4.3c-1.1-0.3-2.1-0.9-3.2-0.9c-2.7-0.1-5.7-0.6-8,0.4c-2,0.8-3.5,3.4-4.5,5.5
		c-1,2.2-1.2,4.7-1.7,7.1c-0.3,1.6-0.1,3.2,1.5,4.3C540.9,259.3,542.2,261,541.6,263.6z M555.3,272c-2.4,0.1-4.2-0.6-6.2,0.4
		c-2,1-4.3,1.7-6.5,2.2c-2.3,0.6-2.4,0.6-2.1,3.6c4.8,1.2,9.7,2.4,12.8,6.8c0.6,0.9,1.7,1.4,2.6,2c4.4,2.9,9.1,5.3,10.6,11.5
		c1-2,1.7-3.4,2.5-5.1c-5.3-2.6-9.1-6.9-12.9-11.3C552.9,278.5,552.7,277,555.3,272z M574.3,291.7c-0.8-3.7-2.8-5.5-6.9-7.6
		c-2.2-1.1-4.2-2.8-6.3-4.2c-0.8-0.6-1.7-1.1-3.1-2c0.1,1.3-0.1,2.1,0.2,2.4C562.6,285.4,568.7,288.2,574.3,291.7z M625.6,335.1
		c0.2-3.3,0.7-5.9,0.5-8.5c-0.1-1.9-1.6-2.7-3-2.1c-1.9,0.8-2.7,2.4-1.8,4C622.5,330.6,623.9,332.5,625.6,335.1z M534.7,248.7
		c-0.3-0.2-0.6-0.4-0.9-0.5c-2.1,1.6-4.2,3.1-6.6,5c2.4,1,4.4,1.9,6.5,2.8C534.1,253.2,534.4,251,534.7,248.7z"/>
	<path fill="#FFFFFF" stroke="#000000" stroke-width="0.6811" stroke-miterlimit="10" d="M293.8,85.9c0,0,7.5-8.7,12.9,0.9l-0.2,1.8
		l-2,3.5l-1.6,3.6l-1.4,3.2l-1.2,1.9l-4.9-0.5l-1.2-1.9l-0.4-3.1l-1.6-1.5l-2-1.8l0.3-2.6l0.6-2.3L293.8,85.9z"/>
	<path stroke="#000000" stroke-width="0.6811" stroke-miterlimit="10" d="M293.6,84c-0.2,1.3-2.2,3.9-2.4,5.2
		c-0.2,1.4,0,2.5,1.4,3.1c2.6,1.1,4,2.7,2.9,5.7c-0.2,0.5,0.4,1.6,0.8,1.7c0.9,0.3,2.1,0.4,2.8-0.1c0.9-0.5,1.7-1.6,1.9-2.5
		c0.9-3.3,2.3-6.2,4.5-8.7c0.3-0.3,0.3-0.9,0.5-1.3c-3.5-4.4-7.6-3.8-13.8,0.1c-1.1-1,0.6-2.6,1.5-3.4c1.7-1.6,3.7-2.8,6.2-2.9
		c2.4-0.1,4.4,0.3,6.2,2.3c2.2,2.6,3,4.2,1.1,6.9c-1.8,2.5-2.7,5.1-3.5,8c-1,3.8-5.2,5.9-8.7,4.5c-2.1-0.9-2.9-1.8-2.6-4.3
		c0.2-1.8-0.4-2.7-1.6-3.7C287.8,92.2,289.8,86.8,293.6,84z"/>
</g>
</svg>
