<?xml version="1.0" encoding="utf-8"?>
<!-- Generator: Adobe Illustrator 17.1.0, SVG Export Plug-In . SVG Version: 6.00 Build 0)  -->
<!DOCTYPE svg PUBLIC "-//W3C//DTD SVG 1.1//EN" "http://www.w3.org/Graphics/SVG/1.1/DTD/svg11.dtd">
<svg version="1.1" id="Layer_1" xmlns="http://www.w3.org/2000/svg" xmlns:xlink="http://www.w3.org/1999/xlink" x="0px" y="0px"
	 viewBox="0 0 153 70" enable-background="new 0 0 153 70" xml:space="preserve">
<g>
	<g>
		
			<line fill="none" stroke="#000000" stroke-linecap="round" stroke-linejoin="round" stroke-miterlimit="10" x1="31.2" y1="27.9" x2="31.2" y2="40.9"/>
		
			<line fill="none" stroke="#000000" stroke-linecap="round" stroke-linejoin="round" stroke-miterlimit="10" x1="24.2" y1="27.9" x2="24.2" y2="40.9"/>
		
			<line fill="none" stroke="#000000" stroke-linecap="round" stroke-linejoin="round" stroke-miterlimit="10" x1="24.3" y1="34.8" x2="30.7" y2="34.8"/>
	</g>
	<polyline fill="none" stroke="#000000" stroke-linecap="round" stroke-linejoin="round" stroke-miterlimit="10" points="57.2,27.9 
		57.2,41.4 63.7,41.4 	"/>
	<g>
		<path fill="none" stroke="#000000" stroke-linecap="round" stroke-linejoin="round" stroke-miterlimit="10" d="M111.2,40.9V28.4
			c0,0,5.9-0.9,5.7,4.5c-0.2,0.1,0.3,3.2-4.7,2.9c0,0,7,5.7,8.9,5.3"/>
	</g>
	<g>
		<polyline fill="none" stroke="#000000" stroke-linecap="round" stroke-linejoin="round" stroke-miterlimit="10" points="
			40.7,27.4 35.2,27.4 35.2,41.4 40.7,41.4 		"/>
		
			<line fill="none" stroke="#000000" stroke-linecap="round" stroke-linejoin="round" stroke-miterlimit="10" x1="35.7" y1="34.4" x2="39.7" y2="34.4"/>
	</g>
	<g>
		<polyline fill="none" stroke="#000000" stroke-linecap="round" stroke-linejoin="round" stroke-miterlimit="10" points="
			129.7,27.4 124.2,27.4 124.2,41.4 129.7,41.4 		"/>
		
			<line fill="none" stroke="#000000" stroke-linecap="round" stroke-linejoin="round" stroke-miterlimit="10" x1="124.7" y1="34.4" x2="127.7" y2="34.4"/>
	</g>
	<g>
		
			<line fill="none" stroke="#000000" stroke-linecap="round" stroke-linejoin="round" stroke-miterlimit="10" x1="68.2" y1="27.9" x2="68.2" y2="40.9"/>
		
			<line fill="none" stroke="#000000" stroke-linecap="round" stroke-linejoin="round" stroke-miterlimit="10" x1="64.7" y1="27.4" x2="72.7" y2="27.4"/>
	</g>
	<g>
		
			<line fill="none" stroke="#000000" stroke-linecap="round" stroke-linejoin="round" stroke-miterlimit="10" x1="76.2" y1="27.9" x2="76.2" y2="40.9"/>
		
			<line fill="none" stroke="#000000" stroke-linecap="round" stroke-linejoin="round" stroke-miterlimit="10" x1="83.2" y1="27.9" x2="83.2" y2="40.9"/>
		
			<line fill="none" stroke="#000000" stroke-linecap="round" stroke-linejoin="round" stroke-miterlimit="10" x1="76.3" y1="35.8" x2="82.7" y2="35.8"/>
	</g>
	<path fill="none" stroke="#000000" stroke-linecap="round" stroke-linejoin="round" stroke-miterlimit="10" d="M94.6,31
		c0,0-0.2-3-4.5-2.7c-4.7,0.4-4.4,12.4-0.1,13.2c5.1,1,5.4-2.5,5.3-2.4"/>
	<g>
		<polyline fill="none" stroke="#000000" stroke-linecap="round" stroke-linejoin="round" stroke-miterlimit="10" points="
			44.8,41.8 48.6,28.3 54.9,41.9 		"/>
		
			<line fill="none" stroke="#000000" stroke-linecap="round" stroke-linejoin="round" stroke-miterlimit="10" x1="46.7" y1="34.8" x2="51.4" y2="34.8"/>
	</g>
	<g>
		<polyline fill="none" stroke="#000000" stroke-linecap="round" stroke-linejoin="round" stroke-miterlimit="10" points="98,41.4 
			101.8,27.8 108.1,41.4 		"/>
		
			<line fill="none" stroke="#000000" stroke-linecap="round" stroke-linejoin="round" stroke-miterlimit="10" x1="100.2" y1="34.8" x2="104.7" y2="34.8"/>
	</g>
	
		<line fill="none" stroke="#000000" stroke-linecap="round" stroke-linejoin="round" stroke-miterlimit="10" x1="33.9" y1="22.2" x2="29.7" y2="9.1"/>
	
		<line fill="none" stroke="#000000" stroke-linecap="round" stroke-linejoin="round" stroke-miterlimit="10" x1="37.8" y1="9" x2="34.1" y2="22.2"/>
	<g>
		
			<line fill="none" stroke="#000000" stroke-linecap="round" stroke-linejoin="round" stroke-miterlimit="10" x1="74.2" y1="8.9" x2="74.2" y2="21.9"/>
		
			<line fill="none" stroke="#000000" stroke-linecap="round" stroke-linejoin="round" stroke-miterlimit="10" x1="70.7" y1="8.4" x2="77.7" y2="8.4"/>
	</g>
	<g>
		<polyline fill="none" stroke="#000000" stroke-linecap="round" stroke-linejoin="round" stroke-miterlimit="10" points="19,22.4 
			22.8,8.8 29.1,22.4 		"/>
		
			<line fill="none" stroke="#000000" stroke-linecap="round" stroke-linejoin="round" stroke-miterlimit="10" x1="21.2" y1="15.8" x2="25.8" y2="15.8"/>
	</g>
	<g>
		<polyline fill="none" stroke="#000000" stroke-linecap="round" stroke-linejoin="round" stroke-miterlimit="10" points="
			59.5,22.4 63.3,8.8 69.6,22.4 		"/>
		
			<line fill="none" stroke="#000000" stroke-linecap="round" stroke-linejoin="round" stroke-miterlimit="10" x1="61.7" y1="15.8" x2="66.2" y2="15.8"/>
	</g>
	
		<line fill="none" stroke="#000000" stroke-linecap="round" stroke-linejoin="round" stroke-miterlimit="10" x1="43.2" y1="8.9" x2="43.2" y2="21.9"/>
	
		<line fill="none" stroke="#000000" stroke-linecap="round" stroke-linejoin="round" stroke-miterlimit="10" x1="82.2" y1="8.9" x2="82.2" y2="21.9"/>
	<g>
		
			<line fill="none" stroke="#000000" stroke-linecap="round" stroke-linejoin="round" stroke-miterlimit="10" x1="9.2" y1="8.9" x2="9.2" y2="21.9"/>
		
			<line fill="none" stroke="#000000" stroke-linecap="round" stroke-linejoin="round" stroke-miterlimit="10" x1="16.2" y1="8.9" x2="16.2" y2="21.9"/>
		
			<line fill="none" stroke="#000000" stroke-linecap="round" stroke-linejoin="round" stroke-miterlimit="10" x1="9.3" y1="9" x2="16.2" y2="22.2"/>
	</g>
	<g>
		
			<line fill="none" stroke="#000000" stroke-linecap="round" stroke-linejoin="round" stroke-miterlimit="10" x1="87.2" y1="8.9" x2="87.2" y2="21.9"/>
		
			<line fill="none" stroke="#000000" stroke-linecap="round" stroke-linejoin="round" stroke-miterlimit="10" x1="94.2" y1="8.9" x2="94.2" y2="21.9"/>
		
			<line fill="none" stroke="#000000" stroke-linecap="round" stroke-linejoin="round" stroke-miterlimit="10" x1="87.3" y1="9" x2="94.2" y2="22.2"/>
	</g>
	<path fill="none" stroke="#000000" stroke-linecap="round" stroke-linejoin="round" stroke-miterlimit="10" d="M55.8,11.7
		c0,0-0.3-3.1-4.7-2.7c-4.7,0.4-4.5,12.4-0.2,13.3c5.1,1,5.4-4.8,5.2-4.8h-3.5"/>
	<path fill="none" stroke="#000000" stroke-linecap="round" stroke-linejoin="round" stroke-miterlimit="10" d="M106.8,11.7
		c0,0-0.3-3.1-4.7-2.7c-4.7,0.4-4.5,12.4-0.2,13.3c5.1,1,5.4-4.8,5.2-4.8h-3.5"/>
	<g>
		<g>
			
				<line fill="none" stroke="#000000" stroke-linecap="round" stroke-linejoin="round" stroke-miterlimit="10" x1="122.2" y1="8.9" x2="122.2" y2="21.9"/>
			
				<line fill="none" stroke="#000000" stroke-linecap="round" stroke-linejoin="round" stroke-miterlimit="10" x1="118.7" y1="8.4" x2="125.7" y2="8.4"/>
		</g>
		<g>
			
				<line fill="none" stroke="#000000" stroke-linecap="round" stroke-linejoin="round" stroke-miterlimit="10" x1="128.2" y1="8.9" x2="128.2" y2="21.9"/>
			
				<line fill="none" stroke="#000000" stroke-linecap="round" stroke-linejoin="round" stroke-miterlimit="10" x1="136.2" y1="8.9" x2="136.2" y2="21.9"/>
			
				<line fill="none" stroke="#000000" stroke-linecap="round" stroke-linejoin="round" stroke-miterlimit="10" x1="128.7" y1="15.4" x2="135.7" y2="15.4"/>
		</g>
		<g>
			<polyline fill="none" stroke="#000000" stroke-linecap="round" stroke-linejoin="round" stroke-miterlimit="10" points="
				144.7,8.4 140.2,8.4 140.2,22.4 144.7,22.4 			"/>
			
				<line fill="none" stroke="#000000" stroke-linecap="round" stroke-linejoin="round" stroke-miterlimit="10" x1="140.7" y1="15.4" x2="143.7" y2="15.4"/>
		</g>
	</g>
	<g>
		<polyline fill="none" stroke="#000000" stroke-linecap="round" stroke-linejoin="round" stroke-miterlimit="10" points="
			142.7,46.4 137.2,46.4 137.2,60.4 142.7,60.4 		"/>
		
			<line fill="none" stroke="#000000" stroke-linecap="round" stroke-linejoin="round" stroke-miterlimit="10" x1="137.7" y1="53.4" x2="140.7" y2="53.4"/>
	</g>
	<path fill="none" stroke="#000000" stroke-linecap="round" stroke-linejoin="round" stroke-miterlimit="10" d="M90.2,60.9V47.3
		c0,0,5.8-0.9,5.6,4.5c-0.2,0.1,0.3,3.3-4.6,3"/>
	<g>
		<g>
			<polyline fill="none" stroke="#000000" stroke-linecap="round" stroke-linejoin="round" stroke-miterlimit="10" points="
				25.9,60.8 29.7,47.2 36,60.8 			"/>
		</g>
		
			<line fill="none" stroke="#000000" stroke-linecap="round" stroke-linejoin="round" stroke-miterlimit="10" x1="28.7" y1="53.4" x2="32.7" y2="53.4"/>
	</g>
	<g>
		<path fill="none" stroke="#000000" stroke-linecap="round" stroke-linejoin="round" stroke-miterlimit="10" d="M42.2,59.9V47.4
			c0,0,5.5-0.9,5.2,4.5c-0.2,0.1,0,3.2-4.9,2.9c0,0,7.3,5.7,9.2,5.3"/>
	</g>
	<path fill="none" stroke="#000000" stroke-linecap="round" stroke-linejoin="round" stroke-miterlimit="10" d="M131.8,50
		c0,0-0.2-3-4.5-2.7c-4.7,0.4-4.4,12.4-0.1,13.2c5.1,1,5.4-2.5,5.3-2.4"/>
	<polyline fill="none" stroke="#000000" stroke-linecap="round" stroke-linejoin="round" stroke-miterlimit="10" points="
		100.2,46.9 100.2,60.4 106.7,60.4 	"/>
	<g>
		<polyline fill="none" stroke="#000000" stroke-linecap="round" stroke-linejoin="round" stroke-miterlimit="10" points="
			110.1,60.8 113.9,47.2 120.2,60.8 		"/>
		
			<line fill="none" stroke="#000000" stroke-linecap="round" stroke-linejoin="round" stroke-miterlimit="10" x1="112.2" y1="53.8" x2="116.7" y2="53.7"/>
	</g>
	<g>
		
			<line fill="none" stroke="#000000" stroke-linecap="round" stroke-linejoin="round" stroke-miterlimit="10" x1="12.2" y1="46.9" x2="12.2" y2="59.9"/>
		
			<line fill="none" stroke="#000000" stroke-linecap="round" stroke-linejoin="round" stroke-miterlimit="10" x1="20.2" y1="46.9" x2="20.2" y2="59.9"/>
		
			<line fill="none" stroke="#000000" stroke-linecap="round" stroke-linejoin="round" stroke-miterlimit="10" x1="12.4" y1="47" x2="15.7" y2="50.3"/>
		
			<line fill="none" stroke="#000000" stroke-linecap="round" stroke-linejoin="round" stroke-miterlimit="10" x1="20.1" y1="46.9" x2="16" y2="50.4"/>
	</g>
	<g>
		
			<line fill="none" stroke="#000000" stroke-linecap="round" stroke-linejoin="round" stroke-miterlimit="10" x1="81.2" y1="46.9" x2="81.2" y2="60.9"/>
		
			<line fill="none" stroke="#000000" stroke-linecap="round" stroke-linejoin="round" stroke-miterlimit="10" x1="77.7" y1="46.4" x2="84.7" y2="46.4"/>
	</g>
	<g>
		<polyline fill="none" stroke="#000000" stroke-linecap="round" stroke-linejoin="round" stroke-miterlimit="10" points="
			73.7,46.4 69.2,46.4 69.2,60.4 73.7,60.4 		"/>
		
			<line fill="none" stroke="#000000" stroke-linecap="round" stroke-linejoin="round" stroke-miterlimit="10" x1="69.7" y1="53.4" x2="72.7" y2="53.4"/>
	</g>
	<g>
		
			<line fill="none" stroke="#000000" stroke-linecap="round" stroke-linejoin="round" stroke-miterlimit="10" x1="56.2" y1="46.9" x2="56.2" y2="59.9"/>
		
			<line fill="none" stroke="#000000" stroke-linecap="round" stroke-linejoin="round" stroke-miterlimit="10" x1="56.8" y1="53.8" x2="62.6" y2="47.5"/>
		
			<line fill="none" stroke="#000000" stroke-linecap="round" stroke-linejoin="round" stroke-miterlimit="10" x1="62.9" y1="60.7" x2="56.8" y2="53.2"/>
	</g>
</g>
</svg>
