<?xml version="1.0" encoding="utf-8"?>
<!-- Generator: Adobe Illustrator 17.1.0, SVG Export Plug-In . SVG Version: 6.00 Build 0)  -->
<!DOCTYPE svg PUBLIC "-//W3C//DTD SVG 1.1//EN" "http://www.w3.org/Graphics/SVG/1.1/DTD/svg11.dtd">
<svg version="1.1" id="Layer_1" xmlns="http://www.w3.org/2000/svg" xmlns:xlink="http://www.w3.org/1999/xlink" x="0px" y="0px"
	 viewBox="0 0 80 150" enable-background="new 0 0 80 150" xml:space="preserve">
<g>
	<path fill="#C91212" stroke="#000000" stroke-miterlimit="10" d="M33.5,27.5c0.4,1.4,0.8,2.8,1.2,4.2c0.6,2,0.6,3.9-0.5,5.7
		c-1.2,1.9-2.8,1.9-4.1,0.1c-0.3-0.4-0.6-0.8-0.7-1.3c-1.3-4.9-4.5-8.7-7.4-12.6c-0.9-1.3-1.8-2.6-2.6-4c-1-2-0.6-3.2,1.2-4.3
		c1-0.6,2.1-1.3,3.3-1.6c2.2-0.6,4.7-0.5,5.8-3.2c0.1-0.3,0.9-0.4,1.3-0.5c1.8-0.7,3.7-1.4,5.4-2.2c3.4-1.6,6.7-1.4,9.7,1
		c2.1,1.6,2.1,3.4,0.1,5.2c-1.1,1-2.3,1.9-3.2,3c-1.5,2.1-1.2,3.7,0.7,5.5c0.9,0.8,1.8,1.7,2.3,2.8c0.3,0.5,0,1.7-0.5,2.1
		c-0.8,0.7-1.6,0.2-2.1-0.7c-0.6-1.2-1-2.5-1.7-3.7c-0.9-1.5-2.1-2.9-4-2.8c-2,0.1-2.9,1.6-3.4,3.4C34.1,24.8,33.8,26.1,33.5,27.5z"
		/>
	<path fill="#C91212" stroke="#000000" stroke-miterlimit="10" d="M29,92c0,0-2.6,19.2-16.2,28.6L7,129.3v5.2l2.2,4.5l3.2,1.8
		l2.1,2.5l6.5-1.8l5.8-4.1l0.5-4.5l-0.2-6.4l-0.4-3.9l0.5-4.1l1.8-1.6l1.3-1.6l1.5-3.6l0.7-6l1.3-4.7l3.6-3.9l4.5-3.2l4.9-2.3
		l6.2-0.9l5-4.3l6.2-0.7h6.1l2.5-3.3L68.9,79c0,0-10.9-11-28.6,3.9S29,92,29,92z"/>
</g>
</svg>
