<?xml version="1.0" encoding="utf-8"?>
<!-- Generator: Adobe Illustrator 17.1.0, SVG Export Plug-In . SVG Version: 6.00 Build 0)  -->
<!DOCTYPE svg PUBLIC "-//W3C//DTD SVG 1.1//EN" "http://www.w3.org/Graphics/SVG/1.1/DTD/svg11.dtd">
<svg version="1.1" id="Layer_1" xmlns="http://www.w3.org/2000/svg" xmlns:xlink="http://www.w3.org/1999/xlink" x="0px" y="0px"
	 viewBox="0 0 80 150" enable-background="new 0 0 80 150" xml:space="preserve">
<g>
	<path fill="#146053" stroke="#000000" stroke-width="0.6811" stroke-miterlimit="10" d="M32.9,27.4c0.4,1.4,0.8,2.8,1.2,4.2
		c0.6,2,0.6,3.9-0.5,5.7c-1.2,1.9-2.8,1.9-4.1,0.1c-0.3-0.4-0.6-0.8-0.7-1.3c-1.3-4.9-4.5-8.7-7.4-12.6c-0.9-1.3-1.8-2.6-2.6-4
		c-1-2-0.6-3.2,1.2-4.3c1-0.6,2.1-1.3,3.3-1.6c2.2-0.6,4.7-0.5,5.8-3.2c0.1-0.3,0.9-0.4,1.3-0.5c1.8-0.7,3.7-1.4,5.4-2.2
		c3.4-1.6,6.7-1.4,9.7,1c2.1,1.6,2.1,3.4,0.1,5.2c-1.1,1-2.3,1.9-3.2,3c-1.5,2.1-1.2,3.7,0.7,5.5c0.9,0.8,1.8,1.7,2.3,2.8
		c0.3,0.5,0,1.7-0.5,2.1c-0.8,0.7-1.6,0.2-2.1-0.7c-0.6-1.2-1-2.5-1.7-3.7c-0.9-1.5-2.1-2.9-4-2.8c-2,0.1-2.9,1.6-3.4,3.4
		C33.5,24.7,33.3,26,32.9,27.4z"/>
	<path fill="#146053" stroke="#000000" stroke-miterlimit="10" d="M29,91.5c0,0-2.3,19.2-15.9,28.6l-5.5,8.8v5.2l1.9,4.5l3,1.8
		l2.1,2.5l6.5-1.8l5.7-4.1l0.5-4.5l-0.2-6.4l-0.4-3.9l0.5-4.1l1.8-1.6l1.4-1.6l0.8-4.7l1.5-5.2l1.2-4.3l3.6-3.9l4.5-3.2l4.9-2.3
		l6.2-0.9l5-4.5L64,85h6.1l2.5-3.1l-3.9-3.6c0,0-10.9-11-28.6,4S29,91.5,29,91.5z"/>
</g>
</svg>
