<?xml version="1.0" encoding="utf-8"?>
<!-- Generator: Adobe Illustrator 17.1.0, SVG Export Plug-In . SVG Version: 6.00 Build 0)  -->
<!DOCTYPE svg PUBLIC "-//W3C//DTD SVG 1.1//EN" "http://www.w3.org/Graphics/SVG/1.1/DTD/svg11.dtd">
<svg version="1.1" id="Layer_1" xmlns="http://www.w3.org/2000/svg" xmlns:xlink="http://www.w3.org/1999/xlink" x="0px" y="0px"
	 viewBox="0 0 300 39" enable-background="new 0 0 300 39" xml:space="preserve">
<g id="_x37_ERY7M_1_">
	<g>
		<path fill="#1691B2" d="M151.5,12.6c-0.4,0.2-0.9,0.3-1.3,0.5c-0.4,0.3-0.8,0.1-1.1-0.1c-0.3-0.1-0.5-0.5-0.4-0.9
			c0-0.4,0.3-0.6,0.6-0.7c0.9-0.3,1.9-0.6,2.9-0.9c0.3-0.1,0.6-0.1,0.9-0.2c0.2-0.1,0.4-0.4,0.5-0.7c0.3-0.4,0.5-0.9,0.9-1.3
			c0.3-0.4,1.3-0.2,1.5,0.2c0.1,0.3,0,0.8-0.2,1.1c-0.2,0.4-0.5,0.7-0.8,1.1c-0.1,0.1-0.1,0.1-0.2,0.2c-0.2,0.5-0.1,0.8,0.4,0.8
			c0.9,0,1.7-0.1,2.5-0.7c0.5-0.4,0.5-0.3,1,0c0.2,0.1,0.4,0.2,0.3,0.5c-0.1,0.4,0.1,0.9-0.5,1.1c-0.6,0.2-1.1,0.5-1.7,0.7
			c-0.8,0.2-1.6,0.4-2.4-0.1c-0.2-0.1-0.4-0.1-0.6-0.2c-0.6,0.7-0.7,1.5-1,2.3c-0.2,0.5-0.3,1.1-0.5,1.6c0,0.1-0.1,0.3-0.1,0.4
			c-0.1,0.8-0.1,1.5-0.2,2.3c0,0.3,0.1,0.5,0.4,0.4c0.5-0.1,1-0.3,1.4-0.6c0.5-0.3,0.9-0.8,1.4-1.2c0.1-0.1,0.5-0.2,0.6-0.1
			c0.2,0.1,0.5,0.3,0.3,0.7c-0.1,0.3-0.2,0.6-0.3,0.9c-0.1,0.2-0.3,0.5-0.5,0.7c-0.2,0.2-0.4,0.4-0.7,0.6c0,0-0.1,0.1-0.1,0.1
			c-0.8,0.3-1.5,0.8-2.3,0.9c-0.4,0-0.7-0.2-1-0.4c-0.8-0.7-0.9-1.7-0.9-2.7c0-0.2,0-0.3,0-0.5c0,0-0.1,0-0.1-0.1
			c-0.2,0.2-0.3,0.4-0.5,0.7c-0.8,1.2-1.7,2.3-3.1,2.9c-0.6,0.2-1.2,0.2-1.8-0.3c-0.5-0.4-0.6-1-0.6-1.5c0-1,0.3-1.9,0.7-2.7
			c0.2-0.4,0.3-0.8,0.5-1.2c0,0-0.1-0.1-0.1-0.1c-0.3,0.1-0.5,0.2-0.8,0.3c-0.7,0.5-1.5,1-2,1.8c-0.2,0.4-0.5,0.7-1,0.7
			c-0.1,0-0.2,0.1-0.2,0.2c-0.2,0.3-0.3,0.6-0.4,0.9c-0.1,0.5-0.3,1-0.3,1.5c-0.1,0.4-0.3,0.8-0.5,0.9c-0.5,0.1-0.9-0.1-1.1-0.5
			c-0.3-0.5-0.1-1,0-1.4c0.3-0.9,0.7-1.8,1.1-2.7c0.2-0.5,0.4-0.9,0.7-1.5c-0.2,0-0.3,0-0.4,0c-0.5,0.3-0.9,0.7-1.3,1
			c-0.1,0.1-0.3,0.2-0.4,0.3c-0.3,0.4-0.6,0.9-0.9,1.3c-0.3,0.4-0.6,0.8-0.9,1.2c-0.4,0.5-0.7,1-1.2,1.5c-0.2,0.2-0.5,0.3-0.8,0.4
			c-0.7,0.4-1.1-0.1-1.6-0.4c-0.5-0.3-0.8-0.8-1-1.4c0,0-0.1-0.1-0.1-0.1c-0.1,0.1-0.2,0.3-0.3,0.4c-0.4,0.4-0.8,0.7-1.2,1.1
			c-0.1,0.1-0.2,0.2-0.4,0.3c0,0-0.1,0.1-0.2,0.1c-1,0.1-1.9,0-2.2-1.3c-0.1-0.2-0.1-0.5-0.2-0.8c-0.1,0.7-0.7,1.2-1.2,1.6
			c-1,0.8-2,1.4-3.4,1.3c-0.8-0.1-1.4-0.7-1.5-1.5c0-0.1,0-0.1,0-0.2c-0.3-0.8-0.2-1.6-0.3-2.4c0-0.3,0.1-0.6,0.2-0.8
			c0-0.1,0-0.2,0-0.4c-0.3,0.3-0.5,0.4-0.7,0.6c-0.4,0.4-0.7,0.8-1.1,1.1c-0.3,0.3-0.6,0.4-0.9,0.7c-0.4,0.3-0.9,0.7-1.3,1
			c-0.3,0.2-0.6,0.4-1,0.4c-0.3,0-0.6,0.1-1,0.2c-0.8,0-1.7-1-1.8-1.8c-0.2-1.3,0.1-2.6,0.8-3.7c0.2-0.3,0.4-0.6,0.6-1
			c0.2-0.3,0.1-0.4-0.2-0.4c-0.7,0.1-1.4,0.3-1.7,1.1c-0.2,0.3-0.3,0.7-0.6,1c-0.5,0.7-1.3,1-2.1,1c-0.6,0-1,0.2-1.5,0.7
			c-0.7,0.9-1.4,1.8-2.5,2.4c-1.4,0.7-3,0.1-3.8-1.1c-0.6-0.9-0.9-1.9-0.8-3c0-0.1,0-0.3,0-0.4c0,0,0-0.1-0.1-0.2
			c-0.2,0.1-0.5,0.1-0.6,0.4c-0.1,0.3-0.4,0.5-0.7,0.7c-0.9,0.7-1.8,1.4-2.8,2c-0.4,0.3-0.8,0.5-1.3,0.5c-1,0.1-2,0.1-3,0.1
			c0,0,0,0,0,0c-0.6,0.2-1.1-0.2-1.7-0.5c-0.2,0.6-0.3,1.2-0.5,1.7c0,0,0,0.1,0,0.1c-0.6,0.7-0.3,1.5-0.4,2.3
			c-0.2,0.8-0.3,1.6-0.4,2.4c0,0.3,0,0.5-0.1,0.8c0,0.2-0.1,0.4-0.2,0.6c0,0,0,0.1-0.1,0.1c-0.1,0.6-0.2,1.2-0.3,1.7
			c-0.2,1.1-0.5,2.2-0.8,3.2c-0.3,1-1.6,1.2-2.4,0.8c-0.3-0.1-0.6-0.2-0.8-0.4c-0.6-0.5-0.8-1.2-0.7-1.9c0.1-0.7,0.2-1.3,0.6-2
			c0.3-0.6,0.5-1.2,0.8-1.8c0.3-0.7,0.7-1.4,1.1-2.2c0.4-0.9,0.9-1.8,1.3-2.7c0.5-1.1,0.5-2.3,0.5-3.5c0,0,0,0-0.1-0.1
			c-0.3,0.1-0.6,0.3-0.8,0.5c-0.8,0.6-1.7,0.9-2.6,1c-0.7,0.1-1.2-0.4-1.7-0.8c-0.9-0.8-0.8-1.8-0.7-2.8c0-0.3,0.1-0.6,0.2-0.9
			c0,0-0.1,0-0.1-0.1c-0.3,0.4-0.7,0.7-1,1.1c-0.5,0.5-0.7,1.2-1,1.8c-0.4,0.9-0.6,1.8-0.9,2.8c-0.1,0.2-0.6,0.5-0.9,0.5
			c-0.7-0.1-1-0.7-0.9-1.5c0.2-0.9,0.3-1.9,0.5-2.8c0.1-0.7,0.2-1.5,0.3-2.2c0-0.1,0-0.3-0.1-0.4c-0.1,0.1-0.3,0.1-0.4,0.2
			c-0.7,0.6-1.2,1.4-1.7,2.2c-0.3,0.5-0.7,0.9-0.9,1.5c-0.2,0.5-0.4,1-0.5,1.5c-0.1,0.3-0.2,0.7-0.3,1c-0.1,0.3-0.9,0.5-1.1,0.3
			c-0.2-0.1-0.3-0.2-0.5-0.4c-0.3-0.2-0.3-0.6-0.2-1.1c0.1-0.5,0.3-1,0.4-1.5c0.1-0.9,0.2-1.8,0.4-2.6c0-0.3,0.1-0.7,0.2-1
			c-0.3-0.1-0.5,0-0.6,0.3c-0.2,0.4-0.5,0.7-0.8,1.1c-0.9,1.1-1.8,2.2-2.8,3.3c-0.5,0.5-1,1.1-1.6,1.5c-1,0.7-2,0.6-2.5-0.8
			c-0.2-0.5-0.1-1.1-0.2-1.6c0-0.2,0-0.3-0.1-0.6c-0.3,0.3-0.5,0.4-0.7,0.6c-0.6,0.6-1.2,1.1-1.8,1.7c-0.4,0.3-0.8,0.6-1.2,0.8
			c-0.6,0.4-1.4,0.3-1.9-0.2c-0.1-0.1-0.1-0.3-0.1-0.5c0-0.2,0.2-0.4,0.3-0.4c0.9-0.1,1.6-0.6,2.2-1.2c0.9-0.8,1.7-1.7,2.5-2.6
			c0.5-0.6,0.7-1.3,1-2c0.1-0.5,0.3-1,0.6-1.5c0.3-0.6,0.9-0.6,1.3-0.1c0.3,0.3,0.3,0.5,0.3,0.9c-0.2,1.4-0.4,2.9-0.5,4.3
			c0,0.5,0,1,0,1.4c0,0,0.1,0,0.1,0c0.5-0.6,1.1-1.1,1.6-1.7c0.3-0.3,0.4-0.7,0.7-0.9c0.6-0.6,1-1.3,1.5-2c0.4-0.6,0.9-1.1,1.6-1.5
			c0.1-0.1,0.3-0.1,0.5,0c0.7,0.1,1.4,0,1.8,0.7c0.2,0.3,0.2,0.7,0.3,1.1c0,0.1,0,0.2,0.1,0.5c0.3-0.3,0.4-0.5,0.6-0.7
			c0.5-0.6,1-1.1,1.7-1.5c0.2-0.1,0.4-0.1,0.6-0.1c1.1,0.1,1.7,0.8,1.8,1.8c0,0.1,0.1,0.2,0.2,0.3c0.1-0.1,0.2-0.1,0.3-0.2
			c0.7-0.6,1.4-1.2,2.1-1.8c0.1-0.1,0.3-0.1,0.4-0.1c0.4,0,0.9,0.5,1.1,0.8c0.4,0.7,0,1.4,0,2.1c0,0.6-0.1,1.1-0.1,1.7
			c0,0.6,0.4,0.8,0.9,0.6c0.8-0.3,1.5-0.6,2-1.1c0.5-0.4,1.1-0.8,1-1.6c0,0,0-0.1,0-0.1c0.5-0.6,0.5-1.4,0.7-2.1
			c0.1-0.6,0.3-0.9,0.9-0.9c0.4,0,1.1,0.6,1,0.9c0,0.4-0.2,0.7-0.2,1.1c-0.1,0.6-0.2,1.3-0.3,1.9c0,0,0.1,0,0.1,0.1
			c0.1-0.1,0.2-0.2,0.2-0.2c0.2-0.3,0.4-0.6,0.7-0.9c0.5-0.6,1.1-1.3,1.7-1.9c0.4-0.4,0.9-0.7,1.3-1c0.1-0.1,0.4-0.1,0.5-0.1
			c0.7,0.3,1.5,0.6,1.7,1.5c0.1,0.5,0.3,1,0.4,1.5c0.1,0.3,0,0.7,0,1c0,0.1,0,0.1,0,0.3c0.4-0.3,0.7-0.5,1-0.7
			c0.4-0.3,0.8-0.7,1.3-1c0.8-0.5,1.6-1,2.5-1.3c0.8-0.3,1.7-0.7,2.5-0.2c0,0,0,0,0,0c0.5,0.4,0.8,0.1,1.1-0.2
			c0.1-0.1,0.2-0.1,0.3-0.1c0.5,0,1.1,0.1,1.6,0c0.5-0.1,0.9,0.2,1.3,0.3c0.4,0.1,0.6,0.7,0.6,1.1c0.1,0.4,0.1,0.8,0.1,1.3
			c0.2-0.1,0.4-0.1,0.5-0.3c0.3-0.4,0.6-0.7,0.7-1.1c0.3-0.6,0.7-0.9,1.2-1.2c0.8-0.4,1.5-0.5,2.3-0.3c0.8,0.2,1.6,0.5,1.9,1.4
			c0.1,0.4,0,0.9-0.2,1.3c-0.2,0.6-0.6,1.1-0.9,1.7c-0.2,0.4-0.3,0.8-0.5,1.1c0,0.1-0.1,0.2-0.1,0.3c0.1,0.3,0.1,0.7,0.2,0.7
			c0.2,0.1,0.6,0,0.8-0.2c0.5-0.4,1-0.9,1.5-1.3c0.2-0.2,0.4-0.2,0.7-0.3c0.1,0,0.2-0.1,0.2-0.1c0.6-0.6,1.2-1.3,1.8-2
			c0.5-0.6,1-1.2,1.4-1.9c0.3-0.5,0.5-1,0.8-1.6c0.2-0.6,0.1-0.7-0.4-0.6c-0.6,0.1-1.2,0.3-1.7,0.6c-0.3,0.1-0.5,0.3-0.8,0.3
			c-0.3,0-0.8-0.3-0.8-0.6c-0.1-0.3,0.1-0.7,0.4-0.9c0.7-0.6,1.7-0.6,2.5-0.8c0.5-0.1,1-0.1,1.5-0.1c0.5,0.1,0.7-0.2,0.9-0.5
			c0.3-0.5,0.5-1.1,0.7-1.7c0.1-0.4,0.4-0.5,0.7-0.6c0.7-0.3,1.4,0.1,1.4,0.9c0,0.4,0,0.7-0.3,1c-0.3,0.3-0.3,0.7-0.5,1.1
			c0,0.1,0.1,0.2,0.1,0.3c0.3,0.1,0.5,0.2,0.8,0.3c0.3,0.1,0.6,0.2,0.9,0.2c0.1,0,0.2,0,0.3-0.1c0.3-0.2,0.5-0.4,0.8-0.6
			c0.3-0.2,0.7-0.2,0.9,0c0.3,0.2,0.3,0.6,0,0.9c-0.4,0.4-0.9,0.8-1.4,1.2c-0.5,0.3-1,0.1-1.5-0.1c-0.3-0.1-0.6-0.2-0.9-0.3
			c-0.2,0-0.4-0.1-0.5-0.1c-0.1,0-0.3,0.1-0.3,0.1c-0.2,0.4-0.4,0.9-0.6,1.3c-0.3,0.8-0.5,1.7-0.8,2.5c-0.2,0.8-0.5,1.7-0.7,2.5
			c-0.1,0.6-0.2,1.2,0,1.8c0,0.1,0,0.1,0.1,0.2c0.1,0.5,0.1,0.6,0.6,0.3c0.9-0.4,1.6-1.1,2.1-1.9c0.5-0.8,1.1-1.5,1.5-2.3
			c0.4-0.9,1.2-1.5,1.8-2.1c0.6-0.6,1.4-1.1,2.4-0.9c0.5,0.1,0.9,0.2,1.3,0.6c0.2,0.2,0.5,0.3,0.5,0.6c0,0.1,0.2,0.1,0.3,0.2
			c0.7,0.1,1,0.6,0.8,1.2c-0.2,0.6-0.5,1.2-0.7,1.8c-0.2,0.5-0.3,1-0.3,1.6c0,0.3,0.2,0.5,0.4,0.8c0,0,0.1,0,0.1,0
			c0.4-0.5,0.7-1,1.1-1.6c0.3-0.4,0.5-0.8,0.8-1.2c0.2-0.3,0.5-0.6,0.8-0.9c0.9-1,2.1-1.8,3.4-2.2c0.8-0.3,1.5-0.1,2,0.5
			c0.1,0.2,0.1,0.5,0.1,0.8c0.1,0,0.2-0.1,0.3-0.1c0.6-0.4,1.2-0.8,2-0.9c0.1,0,0.3-0.1,0.4-0.2c0.7-0.1,1.2,0.2,1.7,0.5
			c0.2,0.1,0.3,0.6,0.2,0.9c-0.2,0.7-0.5,1.4-0.7,2.1c-0.2,0.6-0.4,1.2-0.6,1.8c0,0.1,0,0.3,0,0.6c0.3-0.2,0.5-0.3,0.7-0.5
			c0.4-0.4,0.9-0.8,1.3-1.3c0.5-0.6,1-1.3,1.4-2c0.6-0.9,1.1-1.9,1.6-2.9c0.2-0.4,0.4-0.7,0.6-1.1C151.6,12.7,151.5,12.6,151.5,12.6
			z M129.5,19.9C129.6,19.9,129.6,19.9,129.5,19.9c0.1,0.1,0,0.3,0.1,0.3c0.1,0.1,0.3,0.2,0.3,0.1c0.5-0.4,1-0.7,1.4-1.2
			c0.6-0.8,1.3-1.6,1.6-2.6c0.1-0.1,0.1-0.3,0-0.5c0-0.2-0.2-0.3-0.2-0.5c-0.2-0.5-0.8-0.6-1.1-0.2c-0.3,0.3-0.6,0.6-0.8,1
			c-0.3,0.5-0.6,1-0.8,1.5C129.7,18.6,129.7,19.3,129.5,19.9z M107.8,17.7c-1.1-0.6-2.1-1-2.8-2.1c-0.3,0.4-0.6,0.7-0.9,1.1
			c-0.2,0.4-0.4,0.9-0.1,1.4c0.1,0.1,0.1,0.2,0.1,0.3c0.1,0.7,1,1.2,1.6,0.8C106.5,18.8,107.1,18.3,107.8,17.7z M92.7,18
			c0.3,0.1,0.5,0.2,0.7,0.2c0.7-0.1,1.4-0.2,2.1-0.6c0.3-0.1,0.4-0.5,0.6-0.7c0.4-0.5,0.2-1.1,0.3-1.6c0-0.4-0.3-0.7-0.6-1
			C94.6,15.4,93.6,16.6,92.7,18z M86.8,31.6c0,0.1,0.1,0.2,0.2,0.3c0.1-0.1,0.2-0.2,0.3-0.3c0.1-0.4,0.3-0.9,0.4-1.3
			c0.1-0.6,0.3-1.2,0.4-1.8c0-0.1-0.1-0.1-0.1-0.2c0,0-0.1,0.1-0.1,0.1c-0.2,0.4-0.2,0.8-0.5,1.2C86.9,30.1,87,30.8,86.8,31.6z
			 M107.2,15.1c0.2,0.4,0.4,0.8,1,0.7c0.3,0,0.4,0,0.5-0.3c0-0.3-0.2-0.9-0.4-0.8C107.9,14.7,107.4,14.4,107.2,15.1z"/>
		<path fill="#1691B2" d="M182.2,11.2c0.4-0.3,0.8-0.5,1.1-0.8c0.5-0.5,0.9-1,1.3-1.5c0.3-0.4,0.7-0.5,1.1-0.3
			c0.3,0.2,0.6,0.3,0.5,0.7c-0.1,0.3,0,0.6-0.3,0.9c-0.2,0.2-0.3,0.5-0.5,0.8c0,0,0,0.1-0.1,0.1c-0.7,0.6-1.5,1.1-2.2,1.7
			c-0.5-0.1-0.6,0.5-1,0.6c-0.1,0-0.2,0.2-0.2,0.3c0,0.3-0.1,0.7-0.1,1c0,0.7-0.1,1.4-0.1,2.1c0,0.2,0,0.5,0.1,0.7
			c0,0.3,0.6,0.3,0.8,0c0.2-0.2,0.3-0.4,0.4-0.6c0.7-1,1.3-2.1,1.4-3.4c0-0.4,0.2-0.8,0.3-1.2c0.1-0.1,0.2-0.3,0.4-0.3
			c0.3-0.1,0.6-0.1,0.9-0.2c0.4,0,0.9,0.7,0.8,1.1c-0.1,0.7-0.3,1.3-0.3,2c0,0.5,0.2,1.1,0.4,1.6c0.1,0.4,0.8,0.5,1.3,0.3
			c0.5-0.3,0.8-0.7,1.1-1.3c0.1-0.3,0.4-0.6,0.5-0.9c0.1-0.4,0.3-0.9,0.3-1.3c0.1-0.7,0.5-1.1,1-0.9c0.1,0,0.1,0,0.2,0
			c0.7,0,0.9,0.2,0.9,0.9c0,0.5,0,1.1-0.1,1.6c0,1,0.3,2,0.7,2.9c0.2,0.4,0.6,0.5,1,0.3c0.1,0,0.2-0.1,0.3-0.1
			c0.8-0.1,0.9-0.6,1-1.3c0.3-1.6,0.5-3.1,0.9-4.7c0.1-0.5,0.4-1,0.6-1.5c0.4-0.7,0.8-1.3,1.2-1.9c0.7-1,1.5-1,2.5-0.6
			c0.3,0.2,0.5,0.7,0.7,1.1c0.5,1.1,0.4,2.2,0,3.3c-0.2,0.7-0.6,1.3-1,1.9c-0.5,0.7-1,1.5-1.5,2.2c-0.1,0.2-0.1,0.3,0.1,0.3
			c0.7,0,1.5,0.1,2.2,0.1c0.5,0,0.9-0.3,1.4-0.4c0.7-0.2,1-0.5,1-1.3c0.1-1.1,0.4-2.1,0.7-3.2c0.2-0.7,0.5-1.3,0.7-2
			c0.3-0.9,0.9-1.3,1.6-1.8c0.7-0.4,1.4-0.3,2,0c0.4,0.2,0.6,0.8,0.5,1.2c-0.1,1,0.2,2.1-0.2,3c-0.2,0.6-0.4,1.2-0.7,1.8
			c-0.3,0.5-0.7,0.9-1.1,1.3c-0.3,0.3-0.5,0.7-0.9,1.1c0.2,0,0.5,0,0.7,0c0.4-0.1,0.9-0.3,1.3-0.5c0.4-0.2,1-0.1,1.2,0.3
			c0.2,0.3,0.1,1-0.2,1.2c-0.4,0.4-0.9,0.6-1.5,0.6c-0.3,0-0.6,0.1-0.9,0.2c-0.1,0-0.2,0.3-0.2,0.4c0.1,1.1,0.2,2.1,0.4,3.2
			c0.2,0.8,0.5,1.5,0.7,2.3c0.1,0.4,0,0.9,0.1,1.4c0,1-0.4,1.9-0.7,2.8c-0.2,0.5-0.4,1-0.7,1.5c-0.2,0.3-0.5,0.6-0.8,0.9
			c-0.6,0.5-1.5,0.1-1.9-0.2c-0.6-0.5-0.8-1.2-0.9-1.9c-0.4-1.7-0.3-3.4,0-5.1c0.1-0.9,0.2-1.8,0.2-2.6c0.1-0.7,0.1-1.5,0.2-2.2
			c0-0.1,0-0.3,0-0.5c-0.4,0.1-0.7,0.2-1,0.4c-0.6,0.2-1.3,0.1-2,0.1c-0.5,0-1-0.1-1.5-0.1c0.1,0.3,0.3,0.6,0.3,0.9
			c0.1,0.8,0.1,1.6,0.2,2.3c0,0.4,0.2,0.8,0.3,1.1c0,0.2,0,0.5,0,0.8c0,0.2-0.1,0.4-0.1,0.7c0,1-0.2,1.8-0.5,2.7
			c-0.2,0.5-0.2,1-0.4,1.5c-0.2,0.7-0.5,1.3-1.2,1.6c-0.4,0.2-0.9,0.2-1.3,0.1c-1.1-0.3-1.6-1-1.6-2.2c0-1.4,0.1-2.7,0.2-4.1
			c0-0.9,0.1-1.7,0.2-2.6c0-0.4,0.1-0.8,0.2-1.1c0-0.2,0-0.4,0.1-0.6c-0.4,0.1-0.8,0.2-1.2,0.2c-0.7,0-1.2-0.3-1.6-0.8
			c-0.5-0.5-0.8-1-1-1.6c0-0.1-0.1-0.1-0.2-0.1c-0.2,0.1-0.5,0.2-0.7,0.3c-0.2,0.1-0.3,0.3-0.5,0.3c-1.1,0.6-2.1,0.5-3.1-0.2
			c-0.3-0.2-0.6-0.6-0.9-0.9c-0.1-0.1-0.1-0.2-0.1-0.3c-0.1,0-0.1,0.1-0.2,0.1c-0.1,0.1-0.1,0.3-0.2,0.4c-0.3,0.5-0.7,1-1,1.5
			c0,0-0.1,0.1-0.1,0.1c-0.8,0-1.5,0.4-2.3,0.1c-1-0.5-1.4-1.2-1.5-2.2c0-0.3,0-0.7-0.1-1.1c-0.1,0.1-0.2,0.1-0.2,0.1
			c-0.3,0.7-0.6,1.4-1.1,2.1c-0.5,0.8-1.3,1.3-2.1,1.5c-0.6,0.2-1.3,0.3-1.9,0.1c0,0,0,0,0,0c-0.4-0.2-0.8-0.4-1.1,0.2
			c-0.5,0.1-0.9,0.2-1.4,0.1c-0.7-0.1-1.3-0.3-2-0.5c-0.3-0.1-0.5-0.5-0.7-0.7c-0.1-0.1-0.2-0.3-0.3-0.5c-0.1-0.2-0.2-0.2-0.4,0
			c-0.6,0.5-1.2,1-1.8,1.4c-0.3,0.2-0.5,0.5-0.8,0.7c-0.1,0.1-0.3,0.2-0.5,0.1c-0.4-0.1-0.8-0.3-1.1-0.5c-0.3-0.2-0.2-0.6,0.1-0.9
			c0.7-0.5,1.5-1,2.2-1.6c1-0.8,1.9-1.7,2.7-2.6c0.7-0.7,1.2-1.5,1.8-2.3c0.3-0.4,0.5-0.8,0.8-1.1c0.1-0.1,0.2-0.3,0.3,0
			c0,0,0.2,0,0.2,0c0.6,0,0.9,0.3,1.2,0.9c0.4,1,0.4,2.1,0.5,3.2c0,0.5,0,0.9-0.1,1.4c-0.1,0.6,0.6,1.2,1.2,1
			c0.7-0.2,1.2-0.6,1.6-1.2c0.7-1,1.2-2.2,1.6-3.3c0.1-0.3,0.3-0.7,0.4-1c0-0.1,0-0.3-0.1-0.4c-0.8-0.6-2-0.7-2.9-0.1
			c-0.1,0.1-0.3,0.1-0.4,0c-0.3-0.2-0.7,0-1-0.4c-0.1-0.2-0.3-0.4-0.4-0.7c-0.1-0.4,0.2-0.6,0.5-0.6c0.6-0.2,1.2-0.3,1.9-0.4
			c0.7-0.1,1.4,0.1,2,0.3c0.3,0.1,0.6,0.2,0.9,0.3c0.1,0,0.3-0.1,0.3-0.2c0.1-0.6,0.3-1.2,0.4-1.8c0.1-0.7,0.4-1.1,1.2-1.1
			c0.6,0,1,0.5,0.9,1.1c-0.1,0.7-0.1,1.5-0.1,2.2C182.2,11.2,182.2,11.2,182.2,11.2z M196.7,19.7c0,0-0.1,0-0.1,0
			c0,0.1-0.1,0.2-0.1,0.3c-0.1,0.7-0.3,1.4-0.3,2.1c-0.1,1.2-0.2,2.5-0.3,3.7c0,0.4-0.1,0.9-0.1,1.3c0,0.6,0,1.2,0,1.9
			c0.1-0.1,0.2-0.1,0.3-0.1c0.3-0.6,0.7-1.2,0.9-1.8c0.2-0.5,0.2-1,0.3-1.6c0.1-0.4,0.1-0.8,0.1-1.2c0-0.6-0.1-1.2-0.2-1.9
			c-0.1-0.7-0.1-1.3-0.2-2C197,20.2,196.8,19.9,196.7,19.7z M204.4,29.2c0.1-0.1,0.2-0.1,0.2-0.1c0.5-0.8,0.8-1.7,0.9-2.5
			c0.2-0.9,0.1-1.7-0.3-2.6c-0.2-0.5-0.3-1.1-0.4-1.7c0-0.1-0.1-0.2-0.2-0.3c-0.1,0.1-0.1,0.2-0.2,0.3c-0.1,1.7-0.3,3.5-0.3,5.2
			C204.1,28,204.3,28.6,204.4,29.2z M197.3,15.1c0.1,0,0.1,0,0.2,0.1c0.2-0.3,0.4-0.5,0.5-0.8c0.5-0.9,1.1-1.8,1.4-2.9
			c0.1-0.3,0-0.7,0-1c0-0.1-0.1-0.2-0.2-0.2c0,0-0.2,0.1-0.2,0.1c-0.1,0.1-0.1,0.2-0.2,0.3c-0.2,0.4-0.5,0.8-0.7,1.2
			c-0.1,0.2-0.2,0.3-0.3,0.5c-0.1,0.4-0.3,0.9-0.4,1.3C197.4,14.1,197.4,14.6,197.3,15.1z M205.2,14.6c0.1,0,0.1,0.1,0.2,0.1
			c0.3-0.4,0.6-0.7,0.8-1.1c0.4-0.7,0.9-1.5,0.8-2.4c0-0.2-0.1-0.4-0.2-0.6c-0.1,0-0.1,0-0.2,0C206.1,12,205.7,13.3,205.2,14.6z
			 M171.1,15.9c0.5,0.3,0.9,0.6,1.4,0.4c-0.1-0.6-0.1-1.2-0.1-1.7c0,0-0.1,0-0.1,0C171.9,15,171.5,15.4,171.1,15.9z M170.4,17.9
			c0.2,0.6,0.8,1,1.4,0.9c0.3,0,0.4-0.4,0.2-0.6C171.7,17.8,170.9,17.6,170.4,17.9z"/>
		<path fill="#1691B2" d="M18.8,15.8c0.8,0,3.8-2.5,4.4-3.7C23.1,12,23,12,22.9,12c-0.4,0-0.8,0-1.2,0c-0.3,0-0.7-0.1-1-0.2
			c-0.2-0.1-0.4-0.5-0.2-0.7c0.2-0.2,0.5-0.4,0.8-0.5c0.9,0,1.7,0,2.6,0c0.2,0,0.4-0.1,0.5-0.3c0.4-0.8,0.8-1.7,1.2-2.5
			c0.5-0.9,1-1.8,1.5-2.8c0-0.1,0.2-0.2,0.2-0.2c0.4,0,0.8,0,1.2,0.1C28.9,5,29,5.7,28.9,6c-0.1,0.4-0.3,0.7-0.5,1.1
			c-0.1,0.4-0.2,0.7-0.4,1.1c-0.1,0.4-0.3,0.8-0.4,1.2c-0.1,0.4-0.3,0.7-0.4,1.1c-0.1,0.3,0.1,0.5,0.4,0.4c0.8-0.1,1.6-0.1,2.3-0.2
			c0.3,0,0.6-0.1,0.9-0.1c0.2,0,0.4,0.2,0.5,0.4c0.1,0.2-0.1,0.3-0.2,0.5c-1.1,0.8-2.3,0.7-3.6,0.7c-1-0.1-0.7-0.2-1.1,0.7
			c-0.3,0.7-0.5,1.4-0.7,2.2c-0.2,0.8-0.4,1.5-0.6,2.3c-0.3,0.8-0.3,1.5-0.4,2.3c0,0.4,0.3,0.7,0.7,0.6c0.2,0,0.5-0.1,0.7-0.3
			c1-0.5,1.8-1.2,2.5-2c0.2-0.3,0.6-0.5,0.8-0.8c0.5-0.7,0.9-1.4,1.5-2.1c0.6-0.7,0.8-1.5,1.2-2.2c0.5-0.9,1.1-1.9,1.6-2.8
			c0.4-0.7,0.9-1.4,1.2-2.2c0.3-0.5,0.6-1.1,0.7-1.7c0-0.5,0.6-0.8,1.1-0.7c0.1,0,0.3,0.1,0.4,0.1c0.4,0,0.6,0.3,0.6,0.7
			c0,0.3-0.1,0.6-0.2,0.8c-0.2,0.5-0.4,1-0.5,1.4c-0.3,0.9-0.7,1.8-1,2.7c-0.4,1.1-0.8,2.2-1.2,3.2c0,0,0,0.1,0,0.1
			c0.5-0.1,0.9-0.3,1.3-0.4c0.6-0.1,1.2-0.1,1.8,0.1c0.4,0.2,0.9,0.3,1.4,0.5c0.5,0.1,0.7,0.4,0.6,0.9c0,0.9-0.3,1.8-0.6,2.6
			c-0.1,0.4-0.3,0.9-0.4,1.3c-0.1,0.3-0.1,0.6,0.2,0.7c0.2,0.1,0.5,0,0.7,0c0.4-0.2,0.7-0.4,1.1-0.6c0.2-0.1,0.3-0.3,0.3-0.5
			c0-1.2,0.1-2.4,0.4-3.5c0.2-0.8,0.8-1.4,1.4-2c0.3-0.3,0.5-0.5,0.8-0.8c0.4-0.4,1.3-0.2,1.7,0.2c0.9,1,0.7,2.1,0.3,3.2
			c-0.2,0.5-0.3,1-0.5,1.4c-0.1,0.2-0.2,0.3-0.4,0.5c-0.4,0.5-0.9,1-1.3,1.5c0,0,0.1,0.3,0.2,0.3c0.7,0.4,1.3,0.3,1.8-0.4
			c0.5-0.7,1-1.5,1.5-2.2c0.1-0.1,0.1-0.2,0.2-0.3c0.5-0.6,0.6-1.4,0.7-2.2c0.1-0.5,0.2-0.9,0.6-1.3c0.3-0.3,0.6-0.3,0.9-0.3
			c0.5,0.1,1,0.3,1.5,0.4c0.6,0.2,1.1,0.3,1.6,0.5c0.3,0.1,0.6,0.4,0.8,0.7c0.1,0.3-0.1,0.6-0.3,0.9c-0.2,0.2-0.3,0.5-0.5,0.8
			c0,0,0,0.1-0.1,0.1c-0.6,0.6-0.9,1.5-1,2.3c-0.1,0.5,0.3,0.8,0.7,0.6c0.5-0.3,1-0.7,1.5-1.1c0.2-0.1,0.3-0.3,0.4-0.5
			c0.1-0.1,0.4-0.2,0.5-0.1c0.2,0.1,0.4,0.2,0.4,0.4c0,0.3,0,0.7-0.1,0.9c-0.3,0.5-0.6,1-1.2,1.3c-0.2,0.1-0.5,0.3-0.7,0.5
			c-0.8,0.5-1.6,0.4-2.4,0c-0.2-0.1-0.4-0.1-0.5-0.3c-0.6-0.4-0.7-0.9-0.7-1.6c0-1,0.5-1.9,0.9-2.8c0.2-0.3,0.4-0.6,0.5-0.9
			c0.1-0.2,0.1-0.3-0.2-0.3c-0.3,0-0.5-0.1-0.8-0.1c-0.1,0-0.2,0.1-0.2,0.2c-0.1,0.3-0.1,0.6-0.2,0.9c-0.2,0.6-0.3,1.1-0.7,1.6
			c-0.3,0.4-0.6,0.8-0.8,1.2c-0.2,0.2-0.3,0.5-0.4,0.7c-0.1,0.5-0.6,0.7-0.9,1.1c-0.9,1.1-2.1,1-3.3,0.6c0,0-0.1,0-0.1-0.1
			c-0.6-0.4-1.2-0.3-1.8,0.1c-0.7,0.5-1.6,0.6-2.5,0.4c-0.3-0.1-0.7-0.1-1-0.3c-0.2-0.2-0.5-0.5-0.6-0.8c-0.2-0.9-0.1-1.8,0.2-2.6
			c0.1-0.4,0.2-0.9,0.3-1.3c0.1-0.2,0.1-0.4,0.2-0.7c0.1-0.3,0-0.5-0.3-0.5c-0.4,0-0.9-0.1-1.3,0.1c-0.4,0.1-0.7,0.5-1,0.8
			c-1,1-1.6,2.4-2.3,3.6c-0.2,0.3-0.3,0.7-0.4,1.1c-0.1,0.6-0.7,0.9-1.2,0.5c-0.1-0.1-0.2-0.2-0.3-0.2c-0.6,0-0.5-0.4-0.5-0.8
			c0-1,0.3-2,0.7-3c0-0.1,0.1-0.2,0.1-0.3c0,0,0-0.1,0-0.3c-0.4,0.4-0.7,0.7-1,1c-0.5,0.5-1,1-1.5,1.5c-0.2,0.2-0.5,0.4-0.7,0.6
			c-1,0.8-2.1,1.4-3.3,1.2c-0.6-0.1-1.2-0.4-1.6-0.8c-0.6-0.4-0.6-1.2-0.5-1.8c0.2-1.2,0.4-2.3,0.8-3.4c0.2-0.6,0.4-1.2,0.5-1.8
			c0-0.1,0-0.1,0-0.3c-0.2,0.2-0.4,0.4-0.6,0.5c-0.8,0.7-1.6,1.4-2.4,2c-0.6,0.4-1.2,0.8-1.8,1.1c-0.9,0.5-1.5,1.2-1.9,2.1
			c-0.3,0.7-0.7,1.4-1.3,2c-0.4,0.4-0.7,0.8-1.1,1.1c-0.9,0.8-1.9,0.8-3,0.5c-0.8-0.2-1.2-0.8-1.4-1.5c-0.2-0.8-0.4-1.6-0.3-2.4
			c0-0.9,0.2-1.9,0.4-2.8c0.4-1.4,1-2.7,2.1-3.8c0.3-0.3,0.6-0.5,0.9-0.7c0.1,0,0.2-0.1,0.3-0.1c0.5,0.2,0.7-0.1,1-0.4
			c0.2-0.2,0.5-0.2,0.7-0.2c0.7,0,1.4,0.2,2,0.6c0.4,0.2,0.6,0.6,0.8,1C18.8,13.7,18.9,14.7,18.8,15.8z M13.5,14.4c0,0-0.1,0-0.1,0
			c-0.2,0.3-0.4,0.7-0.6,1c-0.5,1-0.7,2.1-0.8,3.2c-0.1,1,0.3,1.9,0.4,2.9c0.1,0.3,0.3,0.5,0.6,0.4c0.3,0,0.5-0.1,0.7-0.2
			c0.5-0.4,1-0.8,1.4-1.3c0.5-0.5,0.8-1.1,1-1.8c-0.4-0.1-0.7-0.1-1-0.2c-0.5-0.1-0.8-0.4-1.1-0.8c-0.6-0.9-0.6-1.8-0.6-2.8
			C13.4,14.6,13.5,14.5,13.5,14.4z M17.2,14.9c0-0.7-0.1-1.3-0.5-1.9c-0.2-0.4-0.6-0.5-0.9-0.2c-0.3,0.3-0.5,0.6-0.6,1
			c-0.2,0.9-0.3,1.9,0.2,2.8c0.1,0.3,0.3,0.6,0.7,0.6c0.5-0.1,0.8-0.3,0.8-0.6C17.1,16,17.1,15.5,17.2,14.9z M44.1,15.6
			c-0.5,0.4-0.6,1-0.8,1.6C43.8,17,44.1,16.1,44.1,15.6z"/>
		<path fill="#1691B2" d="M270.7,12.4c-0.3,0-0.5,0-0.8,0.1c-0.6,0-1.3,0.1-1.9,0.1c-0.3,0-1-0.6-1-0.9c-0.1-0.4,0.3-0.8,0.7-0.8
			c0.4,0,0.8,0,1.2-0.1c0.8-0.1,1.6-0.2,2.4-0.4c0.2,0,0.3-0.1,0.3-0.3c0-0.3,0.1-0.6,0.3-0.9c0.4-0.8,1-0.8,1.6-0.4
			c0.2,0.1,0.3,0.3,0.4,0.4c0.2,0.2,0.3,0.4,0.1,0.7c-0.1,0.3,0,0.5,0.4,0.5c0.7,0,1.5,0.1,2.2,0.1c0.3,0,0.6,0,0.8,0.1
			c0.4,0.1,0.7,0.5,0.8,0.9c0.1,0.4-0.1,0.8-0.4,0.9c-0.2,0.1-0.6,0.1-0.8,0.1c-0.8-0.1-1.5-0.3-2.3-0.4c-0.2,0-0.4,0-0.6,0
			c-0.4,0-0.7,0.1-0.8,0.6c-0.4,1.3-0.9,2.6-1.3,4c-0.2,0.7-0.2,1.4-0.2,2.1c0,0.3,0.1,0.6,0.1,1c0.1,0.3,0.3,0.3,0.6,0.3
			c0.8,0,1.5-0.4,2.2-0.8c0.1-0.1,0.2-0.3,0.2-0.4c-0.1-1,0-1.9,0.4-2.9c0.3-0.6,0.8-1.2,1.3-1.6c0.2-0.1,0.4-0.3,0.5-0.4
			c0.3-0.3,0.7-0.1,1-0.2c0.2,0,0.4,0.1,0.6,0.1c0.6,0.1,1.2,1,1.2,1.7c0,0.7-0.4,1.3-0.8,1.9c-0.6,0.7-1.2,1.5-1.7,2.2
			c-0.2,0.2-0.1,0.5,0.2,0.7c0.7,0.4,1.4,0.2,2.1,0c0.9-0.3,1.4-1,2-1.6c0.1-0.1,0.1-0.1,0.1-0.2c0-0.1,0.1-0.4,0.1-0.4
			c0.4,0,0.8-0.1,1.1,0c0.3,0.2,0.8,0.5,0.7,1.1c0,0.2-0.1,0.5-0.2,0.6c-0.5,0.6-1.1,1.2-1.7,1.7c-1.2,0.8-2.6,1.3-4,0.9
			c-0.7-0.2-1.4-0.6-1.9-1.2c-0.1-0.1-0.2-0.2-0.2-0.2c-0.4,0.2-0.9,0-1.2,0.4c-0.3,0.4-0.7,0.5-1.2,0.5c-0.5,0-1,0-1.4,0
			c-0.2,0-0.5-0.1-0.7-0.3c-0.7-0.6-1.3-1.3-1.3-2.3c0-0.7,0-1.4-0.1-2.1c0-0.1,0-0.2,0-0.3c-0.2,0.1-0.3,0.2-0.4,0.3
			c-0.4,0.3-0.8,0.7-1.2,1c-0.2,0.2-0.5,0.3-0.7,0.4c-0.4,0.2-0.8,0.5-1.1,0.7c-0.3,0.2-0.6,0.3-0.9,0.5c-0.4,0.4-0.8,0.8-1.2,1.2
			c-0.5,0.6-1.1,1-1.8,1.1c-0.5,0.1-0.9,0.3-1.4,0.1c-0.3-0.1-0.6-0.3-0.9-0.5c-0.1-0.1-0.2-0.2-0.3-0.2c-0.8-0.4-1-1.3-1.2-2
			c-0.1-0.2,0-0.4,0-0.7c-0.2,0.1-0.3,0.2-0.3,0.2c-0.1,0.6-0.6,0.8-0.9,1.2c-0.3,0.4-0.6,0.7-0.9,1c-0.5,0.6-1.7,0.9-2.3,0.6
			c-1.2-0.6-1.8-1.6-1.6-2.9c0.1-0.6,0.3-1.1,0.4-1.7c0.1-0.4,0.2-0.7,0.3-1.1c0,0-0.1-0.1-0.1-0.1c-0.1,0.1-0.3,0.2-0.4,0.4
			c-0.7,0.6-1.2,1.3-1.7,2c-0.4,0.6-0.9,1.2-1.3,1.9c-0.2,0.3-0.5,0.7-0.7,1c-0.2,0.3-0.8,0.4-1.1,0.2c-0.3-0.2-0.5-0.4-0.7-0.7
			c-0.1-0.2-0.1-0.6,0-0.8c0.4-1,0.8-2.1,1.2-3.1c0.1-0.2,0.1-0.5,0.1-0.7c0-0.1-0.1-0.2-0.1-0.3c0,0-0.2,0-0.2,0.1
			c-0.9,0.4-1.5,1.1-2.2,1.7c-0.4,0.3-0.7,0.7-1,1.1c-0.1,0.1-0.3,0.2-0.4,0.4c-0.7,0.7-1.4,1.4-2.1,2.1c-0.4,0.4-1.2,0.3-1.7-0.1
			c-0.1-0.1-0.2-0.1-0.3-0.2c-0.3-0.2-0.6-0.6-0.4-0.9c0.1-0.2,0.4-0.3,0.5-0.3c0.6,0.1,1-0.2,1.4-0.7c0.5-0.6,1.1-1.2,1.7-1.9
			c0.7-0.9,1.7-1.6,2.6-2.3c0.6-0.4,1.2-0.8,1.9-1c0.3-0.1,0.6,0,1,0.1c0.7,0.2,1.1,0.7,1.2,1.4c0,0.4,0.2,0.3,0.4,0.1
			c0.5-0.4,1-0.7,1.4-1.1c0.5-0.4,1.1-0.5,1.7-0.4c0.9,0.1,1.6,1.1,1.4,1.9c-0.1,0.4,0,0.7-0.1,1.1c-0.1,0.5-0.3,1.1-0.4,1.6
			c-0.1,0.4-0.1,0.8-0.2,1.3c0,0.1,0,0.2,0.1,0.2c0.1,0,0.2,0,0.3-0.1c0.3-0.3,0.6-0.6,0.9-0.9c0.8-0.7,1.4-1.6,1.9-2.5
			c0.5-0.9,1.2-1.7,2-2.3c0.4-0.3,0.8-0.5,1.2-0.6c0.5-0.2,1.1-0.3,1.7-0.3c0.7,0,1.3,0.3,1.7,0.9c0.1,0.1,0.2,0.3,0.4,0.3
			c0.3,0.1,0.5,0.4,0.7,0.7c0.2,0.5,0.5,1,0.4,1.6c0,0.3,0.2,0.3,0.4,0.2c0.3-0.1,0.6-0.3,0.9-0.5c0.7-0.5,1.5-1.1,2.1-1.7
			c0.6-0.6,1-1.4,1.5-2.1c0.2-0.2,0.3-0.4,0.5-0.6C270.7,12.4,270.7,12.4,270.7,12.4z M261.5,16.2c-0.2,0.2-0.3,0.2-0.3,0.3
			c-0.4,0.6-0.8,1.1-0.9,1.8c0,0.3,0,0.6,0,0.9c-0.2,0.7,0.4,1.5,1.1,1.4c0.7-0.1,1.2-0.5,1.6-1.1c0.1-0.2,0.1-0.5-0.1-0.7
			C262.2,18.1,261.5,17.4,261.5,16.2z"/>
		<path fill="#1691B2" d="M235.9,15.3c0.2-0.1,0.4-0.2,0.5-0.3c0.3-0.4,0.7-0.8,0.9-1.2c0.2-0.3,0.2-0.6,0.3-0.9
			c0.2-0.4,0.6-0.6,0.9-0.3c0.3,0.2,0.5,0.5,0.7,0.8c0,0.1,0,0.2,0,0.3c-0.1,0.5-0.4,0.8-0.8,1.2c-0.1,0.1-0.1,0.2-0.2,0.3
			c-0.1,0.2-0.2,0.5-0.4,0.8c-0.3,0.3-0.6,0.7-0.9,0.9c-0.4,0.3-1,0.5-1.4,0.8c-0.1,0.1-0.3,0.2-0.3,0.3c-0.5,0.8-1,1.6-1.4,2.5
			c-0.2,0.4-0.4,0.9-0.9,1.1c-0.3,0.1-0.7,0.2-1.1,0.1c-0.9-0.2-1.5-0.8-2.2-1.3c-0.6-0.4-0.9-1-1.2-1.7c-0.1-0.1,0-0.3-0.1-0.5
			c0-0.1-0.1-0.2-0.2-0.2c-0.1,0.1-0.2,0.2-0.2,0.2c0,1-0.5,1.8-0.9,2.6c-0.4,0.7-1.5,1.4-2.2,1.2c-0.7-0.2-1.1-0.6-1.5-1.1
			c-0.6-0.8-0.6-1.7-0.8-2.7c-0.1-0.7-0.1-1.5-0.2-2.2c0-0.1,0-0.2-0.1-0.3c-0.2,0.3-0.3,0.6-0.5,0.9c-0.5,0.7-0.9,1.5-1.4,2.2
			c-0.3,0.4-0.6,0.9-1,1.2c-0.4,0.4-0.9,0.8-1.4,1.1c-0.2,0.1-0.6,0.1-0.9,0c-0.2-0.1-0.4-0.2-0.6-0.4c-0.3-0.2-0.2-0.6,0.2-0.8
			c1.3-0.6,2.1-1.7,2.8-2.9c0.5-0.9,1.1-1.8,1.6-2.8c0.2-0.4,0.3-0.8,0.5-1.2c-0.1,0-0.2-0.1-0.2,0c-0.5,0.1-0.9,0.2-1.3,0.3
			c-0.2,0.1-1.1-0.2-1.2-0.4c-0.1-0.2-0.1-0.6,0.1-0.8c0.1-0.2,0.5-0.3,0.7-0.4c0.8-0.2,1.7-0.3,2.5-0.5c0.4-0.1,0.5-0.6,0.6-1
			c0.1-0.4,0.1-0.8,0.3-1.2c0.2-0.5,0.9-0.8,1.4-0.4c0.1,0,0.1,0.1,0.2,0.1c0.5,0.3,0.6,0.5,0.5,1.2c-0.1,0.4-0.2,0.9-0.2,1.3
			c0,0.4,0.1,0.4,0.5,0.4c0.6-0.1,1.2-0.3,1.7-0.6c0.3-0.2,0.8,0.1,1.1,0.4c0.2,0.3,0.1,0.6-0.2,0.8c-0.8,0.9-1.9,0.9-3,1
			c-0.3,0-0.3,0.1-0.3,0.3c0,0.9,0,1.8,0,2.7c0,0.5,0,1,0.1,1.5c0.1,0.8,0.3,1.6,0.4,2.4c0,0,0.1,0,0.1,0.1c0.2-0.2,0.4-0.3,0.5-0.5
			c0.2-0.4,0.4-0.9,0.6-1.4c0.3-0.9,0.6-1.8,0.9-2.7c0.3-0.8,1-1.4,1.8-1.8c0.8-0.4,1.6-0.5,2.4-0.2c0.1,0,0.3,0,0.4-0.1
			c0.5-0.2,0.9-0.6,1.5-0.6c0.8-0.1,1.5,0.2,2,0.7c0.2,0.2,0.3,0.7,0.4,1C235.7,14.6,235.8,14.9,235.9,15.3z M230.2,17.1
			c0,0,0.1,0,0.1,0c-0.1,1.1,0.3,2,1.3,2.6c0.3,0.2,0.5,0.2,0.7-0.2c0.3-0.4,0.6-0.9,0.9-1.3c0.3-0.5,0.3-0.8-0.2-1.1
			c-0.3-0.2-0.6-0.3-0.8-0.5c-0.4-0.4-0.7-0.9-1-1.3c-0.2-0.2-0.3-0.2-0.4,0C230.5,16,230.4,16.6,230.2,17.1z M234,15.2
			C234,15.2,234.1,15.2,234,15.2c0-0.2,0-0.4-0.1-0.5c-0.1-0.2-0.2-0.3-0.3-0.5c-0.2,0.1-0.4,0.2-0.5,0.4c-0.3,0.4-0.1,0.7,0.2,0.9
			c0.1,0.1,0.3,0.2,0.5,0.4c0.1-0.2,0.1-0.3,0.2-0.5C234,15.3,234,15.3,234,15.2z"/>
		<path fill="#1691B2" d="M289.3,13.7c0.7,0,1.4,0.5,1.4,1c0,0.7-0.3,1.1-1,1.1c-0.5,0-1-0.7-1.1-1.3
			C288.6,14.1,288.9,13.7,289.3,13.7z"/>
		<path fill="#1691B2" d="M289.1,20.7c-0.1,0.1-0.2,0.3-0.3,0.3c-0.5,0.3-0.9,0.4-1.2-0.2c-0.1-0.1-0.2-0.2-0.3-0.4
			c-0.1-0.2-0.2-0.4-0.1-0.6c0.1-0.2,0.3-0.5,0.5-0.6c0.1-0.1,0.4-0.1,0.6,0C288.6,19.6,289,20,289.1,20.7z"/>
		<path fill="#1691B2" d="M69.8,10c-0.2-0.2-0.5-0.4-0.6-0.7C69,9.1,69,8.8,69.1,8.6c0.1-0.3,0.4-0.4,0.7-0.3c0.8,0.2,0.9,0.1,1,1
			c0,0.3-0.1,0.5-0.4,0.5c-0.2,0-0.4,0.1-0.6,0.1C69.8,9.9,69.8,10,69.8,10z"/>
	</g>
</g>
<g>
	<g>
		<path fill="#1691B2" d="M11.8,29.4c11,0,22-1.4,33-1c5.2,0.2,10.4-0.9,15.6-1.4c6.4-0.6,12.8-0.7,19.2-0.7
			c24.2,0,48.5,1.3,72.7,0.4c5.5-0.2,11.1-1.1,16.6-1c5.1,0.1,10.3,0.6,15.5,0.8c11.7,0.4,23.2-0.8,34.9-1.4
			c5.7-0.3,11.4-0.5,16.9,1c5.4,1.5,10,2,15.6,1.9c5.5,0,10.9,0.4,16.4,0.3c6.3-0.1,12.4-1.4,18.7-1.3c1,0,1-1.5,0-1.5
			c-5.6-0.1-11.2,0.8-16.8,1.2c-5.5,0.4-11-0.1-16.4-0.2c-5.9-0.1-11.3-0.1-17-1.9c-5-1.5-10.4-1.4-15.5-1.2
			c-11.7,0.5-23.3,2-35,1.6c-5.2-0.2-10.3-0.2-15.4-0.7c-6-0.6-12.3,0.6-18.3,0.8c-23.5,1-47.2-0.1-70.8-0.4
			c-5.8-0.1-11.5,0.1-17.3,0.4c-5.9,0.3-11.8,1.6-17.8,1.7c-11.5,0.3-23.1,1-34.7,1C10.9,27.9,10.9,29.4,11.8,29.4L11.8,29.4z"/>
	</g>
</g>
</svg>
