<?xml version="1.0" encoding="utf-8"?>
<!-- Generator: Adobe Illustrator 17.1.0, SVG Export Plug-In . SVG Version: 6.00 Build 0)  -->
<!DOCTYPE svg PUBLIC "-//W3C//DTD SVG 1.1//EN" "http://www.w3.org/Graphics/SVG/1.1/DTD/svg11.dtd">
<svg version="1.1" id="Layer_1" xmlns="http://www.w3.org/2000/svg" xmlns:xlink="http://www.w3.org/1999/xlink" x="0px" y="0px"
	 viewBox="0 0 300 640" enable-background="new 0 0 300 640" xml:space="preserve">
<g id="_x33_fAhbz_1_">
	<g>
		<path fill="#7A7A7A" d="M89.8,455.5c-0.3,0-0.6,0-1.1,0c0.3,5.5,0.4,10.9,0.8,16.3c0.4,4.8,1.2,9.6,2,14.3
			c0.7,4.1,1.5,8.1,2.5,12.2c0.5,2.2,1,4.3,1.2,6.5c0.1,1.4,0.5,2.8,0.6,4.2c0.2,1.8,1.4,3.1,2.2,4.6c0.5,0.9,0.7,1.7,0.2,2.7
			c-0.2,0.4,0,0.9,0.2,1.3c0.4,0.9,0.9,1.7,1.4,2.5c0.1,0.2,0.2,0.4,0.2,0.6c-0.4,1.9,0.9,3.1,1.8,4.4c0.6,0.8,1,1.7,1.5,2.6
			c-1.4,0.6-4.6-1.6-6.4-4.2c-0.1,1.3-0.2,2.3-0.3,3.3c0,0.2,0.1,0.4,0.2,0.5c0.9,0.9,1.8,1.7,2.9,2.6c0-0.6-0.1-1.1-0.1-1.6
			c0.1-0.1,0.2-0.1,0.3-0.2c0.5,0.5,1,0.9,1.4,1.5c1,1.3,1.9,2.6,2.8,3.9c0.2,0.3,0.4,0.6,0.4,0.9c0,0.3,0,0.8-0.3,1
			c-0.1,0.1-0.7,0-0.9-0.1c-1.3-0.9-2.5-1.9-3.8-2.9c-0.5-0.4-1-0.8-1.7-1.4c0.2,1.7,0.7,3.1,1.7,4.3c1,1.2,1.8,2.5,2.6,3.7
			c0.3,0.4,0.3,1,0.6,1.7c-1.9,0.3-2.4-1.4-3.7-2c0.4,2.6,3.1,4.1,3.3,6.8c-0.1,0.1-0.2,0.2-0.3,0.3c-1.3-0.9-2.6-1.7-4.1-2.8
			c0.2,0.5,0.3,0.8,0.5,1c0.7,1,1,2,0.6,3.2c-0.2,0.5,0.3,1.2,0.5,1.9c0.3,0.8,0.6,1.6,0.9,2.4c-1.5,0.8-2.2-0.3-3.3-0.8
			c-0.1,0.5-0.2,1-0.4,1.5c-0.4,0.7-0.6,1.7-1.3,2c-1.1,0.7-1.1,1.6-1.1,2.6c0.1,1.3,0.2,2.6,0.4,3.9c0.2,2.1-0.3,2.5-2.4,1.8
			c-0.1,0.8-0.3,1.6-0.3,2.4c0,2.6,0.1,5.1,0.3,7.7c0.1,1.3,0.7,2.3,1.9,3.1c4.5,2.8,9.5,3.9,14.7,4.6c2.1,0.3,4.2,0.9,6.4,1
			c2.2,0.1,4.4-0.2,6.6-0.4c1.9-0.2,3.8-0.5,5.8-0.8c1.1-0.2,2.2-0.5,3.2-0.8c1.3-0.4,2.7-0.8,4-1.3c0.4-0.1,0.8-0.6,0.9-1
			c0.5-1.6,1-3.1,1.2-4.7c0.4-3.4,1.4-6.7,1-10.2c-0.2-1.9-0.3-3.8-0.7-5.6c-0.3-1.2-1-2.2-1.5-3.3c-0.9-1.8-2.3-3.2-3.5-4.7
			c-0.1-0.2-0.3-0.4-0.3-0.6c0.7-2.2-0.9-3.6-1.8-5.3c-0.7-1.3-1.6-2.4-2.3-3.7c-0.2-0.3-0.2-1,0-1.2c0.3-0.3,0.9-0.4,1.4-0.4
			c0.6,0.1,1.1,0.5,1.8,0.6c-0.6-0.8-1.2-1.5-1.9-2.3c-0.8-0.9-0.5-2.2,0.7-2.6c0.5-0.2,1.1-0.3,1.6-0.4c1.2-0.3,1.5-0.5,1-1.6
			c-1.2-2.7-1.1-5.5-0.8-8.2c0.2-1.7-0.4-2.7-1.7-3.6c-1.1-0.8-2.3-1.5-3.5-2.2c-0.5-0.4-1-0.8-1.4-1.3c0.1-0.1,0.1-0.2,0.2-0.3
			c0.4,0,0.8,0,1.1,0.2c2.2,1.1,4.4,2.3,6.6,3.4c1,0.5,1,1.2,1,2.2c-0.2,2.2-0.2,4.5-0.2,6.7c0,0.3,0.2,0.5,0.5,0.8
			c0.4-2.4,1-4.9,1.1-7.3c0.3-4.8,0.3-9.7,0.5-14.5c0.1-1.7,0.3-3.5,0.4-5.2c0-1.7-0.1-3.3-0.1-5c0-3.2-0.1-6.5,0-9.7
			c0.1-2.5,0.5-4.9,0.6-7.3c0.1-0.8,0-1.6-0.1-2.5c-0.2-3.1-0.3-6.2-0.5-9.3c-0.1-1.4-0.3-2.9-0.3-4.3c-0.2-5.1-0.5-10.3-0.4-15.4
			c0.1-4.2,0.6-8.3,1-12.5c0.2-1.7,0.4-3.5,0.9-5.2c0.5-1.8,1.4-3.5,2-5.3c0.4-1.3,0.4-2.6,0.4-4c0-4.6-0.6-9.2,0.2-13.7
			c0.5-2.6,0.2-5.2,0.2-7.8c0.1-3.4,0.5-6.8,0.7-10.1c0.1-2.1,0.1-4.2,0.3-6.3c0.3-2.9,0.7-5.8,0.9-8.8c0.3-3.2,0.4-6.4,0.7-9.6
			c0.3-3.4,0.7-6.9,1.2-10.3c0.2-1.7,0.8-3.3,1.1-5c1.2-6.3,2.3-12.6,3.5-18.9c0.2-0.9,0.2-1.8,0.2-2.7c0.2-3,0.4-5.9,0.5-8.9
			c0.1-1.8,1-2.5,2.6-1.9c0.2,0.1,0.4,0.5,0.5,0.8c0.1,0.6,0.1,1.3,0,1.9c-0.4,1.8,0,3.5,0.3,5.2c0.2,1.5,0.5,3,0.5,4.4
			c0,2,1,3.6,1.8,5.3c0.5,1.1,0.9,2.2,1.3,3.3c0.1,0.3,0.2,0.9,0,1.1c-0.8,1.1-0.1,1.9,0.3,2.8c0.5,1.2,1.1,2.4,1.6,3.6
			c0.2,0.4,0.3,1.1,0.1,1.4c-0.1,0.2-0.9,0.2-1.3,0.2c-0.1,0-0.3,0-0.7-0.1c0.7,1.3,1.3,2.5,1.8,3.6c0.4,0.8,0.8,1.6,1,2.4
			c0.1,0.3-0.2,0.7-0.3,1.1c-0.3-0.2-0.7-0.3-0.9-0.6c-0.9-1.4-1.8-2.8-2.7-4.2c-0.1,0-0.3,0.1-0.4,0.1c0.3,3.4,0.5,6.8,1,10.2
			c0.6,4.6,1.4,9.1,2.1,13.7c0.1,0.7,0.1,1.4,1.1,1.6c0.6,0.1,0.8,1.4,0.3,2c-0.7,0.8-0.7,1.7-0.3,2.6c0.2,0.5,0.5,1,0.4,1.5
			c-0.2,1.9,0.8,3.3,1.8,4.6c0.3,0.4,0.7,1,0.5,1.3c-0.6,1.7,0.6,2.8,1.3,4c0.3,0.4,0.5,0.8,0.6,1.3c0.2,1,0,1.4-1.3,1.6
			c1,1.3,1.9,2.6,2.8,3.9c0.1,0.2,0.3,0.3,0.4,0.5c0.1,0.5,0.2,1,0.2,1.5c-0.5,0-0.9,0.1-1.4,0.1c-0.2,0-0.4-0.1-0.8-0.1
			c0.5,0.6,0.9,1.3,1.4,1.8c1,1.2,2.1,2.4,3.1,3.7c0.3,0.4,0.2,1,0.3,1.5c-0.4,0-0.9,0.1-1.3,0c-0.8-0.3-1.5-0.8-2.4-1
			c0.5,0.6,1,1.2,1.5,1.9c1.4,1.9,2.8,3.8,4.1,5.7c0.3,0.4,0.2,0.9,0.4,1.4c-0.5,0-1.1,0.2-1.5,0c-0.7-0.3-1.3-0.8-2-1.2
			c1,1.1,2,2.2,2.9,3.3c0.5,0.6,1.6,1.2,1,2.1c-0.6,0.9-1.4-0.2-2.2-0.3c-0.1,0-0.1,0-0.4-0.1c0.2,0.4,0.5,0.7,0.5,1
			c0.1,0.4-0.1,0.8-0.1,1.2c-0.4-0.1-0.8-0.1-1.1-0.3c-1.2-1.1-2.3-2.2-3.5-3.3c-0.4-0.4-1-0.7-1.5-1c-0.6,1.1-0.4,1.7,0.5,2.4
			c2,1.6,4.2,2.9,5.6,5.1c0.2,0.3,0,0.8,0,1.2c-0.4-0.1-0.9-0.1-1.1-0.3c-1-0.9-2-1.8-2.9-2.7c-0.3-0.3-0.7-0.4-1-0.6
			c-0.1,0.1-0.2,0.2-0.3,0.3c0.4,0.5,0.8,1.1,1.3,1.6c0.6,0.6,1.2,1.2,1.8,1.8c0.3,0.3,0.5,0.8,0.5,1.2c0,0.3-0.2,0.6-0.4,0.8
			c-0.1,0.1-0.5-0.1-0.7-0.3c-0.9-0.8-1.8-1.6-2.7-2.5c-0.1,0.1-0.3,0.2-0.4,0.3c0.2,0.6,0.3,1.2,0.7,1.6c0.7,0.8,1.8,1.2,2.4,2.1
			c0.7,0.9,1.2,2,1.7,3.1c0.1,0.2-0.1,0.6-0.2,0.7c-0.9,0.4-0.5,1.1-0.4,1.7c0.2,0.7,0.5,1.4,0.4,2.1c-0.3,1.9,0.7,3.2,1.7,4.5
			c0.4,0.6,1.2,1.4,0.4,1.9c-0.8,0.6-1.3-0.4-1.7-1c-0.6-0.8-1.2-1.6-1.9-2.7c-0.2,0.6-0.4,1-0.5,1.3c-0.6,2.8-0.6,5.6,0.1,8.3
			c0.6,2.1,0.3,4.1,0,6.2c-0.1,0.8-0.8,1.6-0.8,2.4c0,1.4,0.3,2.8,0.4,4.2c0.1,1.1-0.1,2.3,0.1,3.4c0.5,3.5,1,6.9,1.6,10.4
			c0.4,2.6,1.1,5.1,1.4,7.7c0.3,3.1,0.3,6.2,0.4,9.3c0.1,1.6,0.2,3.2,0.1,4.8c-0.3,4,0,8,0.1,12.1c0,0.8-0.2,1.6-0.3,2.4
			c0,0.3,0,0.5,0,0.8c0.1,0,0.2,0,0.3,0c0.2-0.8,0.4-1.7,0.7-2.5c0.9-2,1.6-4.2,2.7-6c1.4-2.2,3.3-4.2,4.9-6.2c0,0,0-0.1,0.1-0.1
			c1.1-1.1,2.2-2.1,2.6-3.8c0.3-1.4,1.1-1.5,2.5-0.6c0.2-0.1,0.3-0.3,0.5-0.4c0.5-0.3,1-0.8,1.6-0.1c0.5,0.6,0.4,1.2,0.1,1.9
			c-0.6,1.1-1.2,2.3-1.9,3.4c-0.8,1.2-1.6,2.4-2.5,3.5c-1.1,1.4-2.3,2.7-3.4,4c-1.1,1.2-1.5,3.2-2.1,4.9c-0.4,1.2-0.4,2.5-0.7,3.7
			c-0.1,0.5-0.7,1.1-1.1,1.1c-0.7,0-1.1-0.6-1-1.4c0.1-0.7,0-1.4,0-2.1c-0.1,0-0.2,0-0.3,0c-0.1,0.3-0.2,0.6-0.3,0.9
			c-0.1,1.1-0.2,2.2-0.3,3.3c-0.1,0.6,0.1,0.9,0.8,1.2c1.1,0.4,1.2,1.1,0.6,2.1c-0.3,0.6-0.6,1.3-0.8,1.9c-0.6,2.5-1.2,5-1.8,7.5
			c-0.2,0.8-0.2,1.5-0.3,2.3c0,0.4,0,0.8-0.2,1.1c-0.4,0.6-1,1-1.5,1.5c-0.2-0.6-0.5-1.1-0.7-1.7c-0.1-0.2-0.2-0.5-0.3-1
			c-0.2,0.5-0.4,0.8-0.5,1.2c-0.4,1.4-0.7,2.9-1,4.4c-0.1,0.6-0.4,1.1,0.2,1.8c0.3,0.3-0.2,1.4-0.4,2.1c-0.4,1.5-1.2,3-1.4,4.6
			c-0.2,2.5-0.2,5.1-0.1,7.7c0.2,5.9,1.4,11.6,2.9,17.3c0.9,3.4,2.3,6.6,5.6,8.5c1,0.6,1.7,1.6,2.6,2.2c1.7,1.2,3.7,0.9,5.6,0.7
			c2.6-0.3,5.1-0.8,7.6-1.2c0.3-0.1,0.7,0,1,0c4.1,0.1,8.3,0,12.4-0.9c1.4-0.3,2.7-0.7,4.1-1.2c1.9-0.6,3.7-0.2,5.5,0.4
			c1.3,0.5,1.5,0.3,1.7-1.1c0.3-3.4-0.6-6.7-1-10c-0.3-2.5-0.6-5-0.9-7.4c-0.1-0.6-0.4-1.2-0.7-1.7c-0.6-1.2-1.2-2.4-1.7-3.6
			c-0.5-1.1-0.8-2.2-1.2-3.3c0.1-0.1,0.2-0.1,0.3-0.2c0.8,0.9,1.6,1.8,2.6,2.9c0-0.9,0.2-1.6,0.1-2.4c-0.3-3.6-0.6-7.3-0.8-10.9
			c-0.1-1.9-0.2-3.9-0.4-5.8c0-0.8-0.3-1.2-1-1.8c-1.5-1.3-2.7-2.9-4-4.5c-0.2-0.2,0-0.7,0-1c0.3,0.1,0.8,0,1,0.2
			c1.1,1,2.2,2.1,3.4,3.1c0.1-2.5,0.6-5-1.4-7c-0.7-0.7-1.5-1.4-2.2-2.3c-0.6-0.7-1.1-1.6-1.6-2.4c0.1-0.1,0.3-0.3,0.4-0.4
			c1.5,1.3,3.1,2.5,4.8,3.9c0-1.7,0-3.3,0-5c-1.2,0.3-1.7-0.3-2.3-1.1c-0.4-0.6-1-1.1-1.4-1.8c-0.7-1-1.2-2-1.7-3.2
			c2.1,1,3.2,3.2,5.4,4.4c0.1-1,0.2-1.8,0.3-2.5c0.1-1.6,0.1-3.2,0.1-4.8c0-3,0-6-0.1-9.1c-0.1-6.7-0.3-13.4-0.4-20.1
			c-0.1-4-0.1-8.1-0.1-12.1c0.1-3.9,0.3-7.8,0.5-11.7c0.4-5.1,0.8-10.2,1.4-15.3c0.5-4.7,1.3-9.3,1.9-14c0.9-6.7,1.9-13.4,2.8-20.1
			c0.8-6.5,0.8-13,0.8-19.5c0.1-6,0.4-11.9,0.8-17.9c0.2-4.2,0.7-8.4,1.1-12.6c0.2-2.5,0.6-5,0.9-7.4c0.4-3.9,0.7-7.9,1.1-11.8
			c0.5-4.9,1-9.8,1.6-14.7c0.4-3.2,0.9-6.4,1.2-9.5c0.3-2.9,0.4-5.9,0.5-8.8c0-0.6,0.2-1.2,0.6-2.1c-1.9-0.8-3.9-1.6-5.8-2.3
			c-0.2-0.1-0.4,0-0.5,0c-1.1,0-1.5-0.7-1.1-1.7c0.2-0.3,0.4-0.6,0.6-1c-1.4-0.6-1.5-0.9-1-2.3c0.4-0.9,0.8-1.8,1.1-2.7
			c0-0.1,0-0.2,0-0.5c-1.9,2.8-4.5,2.6-7.2,2c-1.7-0.4-2.8-1.9-2.4-3.6c0.6-2.6,1.3-5.3,2.3-7.8c2-4.6,4.2-9,5.5-13.9
			c1.3-4.9,2.6-9.7,3.8-14.5c1.7-6.8,2.6-13.6,1.9-20.6c-0.4-4-1-8-1.6-12c-0.6-4.2-1.2-8.4-1.9-12.6c-0.9-5.6-1.8-11.2-2.9-16.7
			c-0.7-3.6-1.8-7.2-2.4-10.8c-0.6-3.8-0.8-7.7-1.1-11.6c-0.2-2.6,0-5.3,0-7.9c-0.2,0-0.4,0-0.6-0.1c-0.4,2.3-1,4.6-1.2,6.9
			c-0.5,5.7,0.9,11.1,2,16.6c0.4,1.8,0.7,3.6,1.1,5.4c0.1,0.4,0.4,0.8,0.5,1c0.1,0.6,0.1,1,0.2,1.3c0,0.3,0.2,0.5,0.2,0.8
			c-0.1,0.9-0.2,1.8-0.2,2.8c0.1,3.6,0.4,7.2,0.4,10.7c0,2.7-0.4,5.3-0.7,8c0,0.2,0.2,0.5,0.3,0.7c-0.2,1.1-0.6,2.2-0.7,3.3
			c-0.1,1.1,0.1,2.2,0.2,3.3c0,0-0.2-0.1-0.3-0.2c-0.1,0-0.2,0-0.3,0c0.2,0.9,0.3,1.8,0.5,2.7c0,0.1,0.1,0.3,0.1,0.4
			c-0.7,2,0.1,3.9,0.6,5.8c1.5,4.7,3.3,9.3,4.9,14c0.5,1.4,0.8,2.8,1,4.3c0.1,0.8,0,1.6-1.2,1.8c-1.1,0.2-1.5-0.2-1.8-1.1
			c-1.1-3.1-2.2-6.3-3.3-9.4c-0.8-2.3-1.7-4.5-2.6-6.8c-0.1-0.3-0.5-0.8-0.7-0.7c-1.1,0.1-1.4-0.6-1.7-1.4c-0.2-0.4-0.6-0.8-0.7-1.2
			c-0.2-0.6-0.4-1.3-0.5-1.9c-0.1-0.4-0.1-0.8-0.2-1.2c-0.5-1.9-1.2-3.9-1.5-5.8c-0.2-1.2,0-2.4,0.1-3.6c0.1-2,0.1-4,0.2-5.9
			c0-0.7,0.2-1.5,0.6-2.1c1-1.7,1.6-3.3,1.5-5.3c-0.1-1.9,0.1-3.7-0.1-5.6c-0.1-1-0.6-2-0.9-3c-0.5-1.5-0.9-2.9-1.4-4.4
			c-0.3-1.1-0.8-2.1-1.1-3.1c-0.3-1-0.4-2-0.5-3c-0.1-0.5-0.1-1.1-0.2-1.6c-0.4-1.3-0.9-2.7-1.4-4c-0.4-1.1,0.2-1.7,0.8-2.5
			c0.2-0.3,0.4-0.7,0.3-1.1c-0.2-0.9-0.5-1.7-0.7-2.6c-0.1-1,0.4-1.7,1.2-2c0.5-0.2,1.2,0.2,1.9,0.3c0-0.8,0-1.9,0.2-2.9
			c0.4-2.7,0.8-5.4,1.4-8c0.5-2.4,1.3-4.8,1.8-7.2c0.7-3.7,1.2-7.4,1.8-11.1c0.3-2.3,0.5-4.6,0.8-6.9c0.3-1.9,0.4-3.9,1.4-5.7
			c1.5-2.8,1.3-5.9,1.7-8.9c0.2-1.4,0.4-2.9,0.4-4.3c0-0.6-0.3-1.3-0.5-1.9c-0.1-0.4-0.3-0.8-0.3-1.2c0.1-1.6,0.3-3.3,0.6-4.9
			c0.1-0.6,0.5-1.2,0.8-1.8c0.3-0.7,0.4-1.2-0.2-1.8c-1.4-1.4-1-4.6,0.5-5.8c0.4-0.3,0.5-1,0.6-1.5c0.1-0.4,0.1-0.8,0.3-1.2
			c0.4-0.8,1.2-1.1,2-0.8c0.5,0.2,1,0.9,1,1.4c0.1,1.9,0.1,3.8,0,5.7c-0.6,7.1-1.2,14.1-2,21.2c-0.3,2.7-1.1,5.3-1.8,7.9
			c-0.2,1,0.2,1.8,1.3,1.6c6.2-0.9,12.5-1.3,18.7-2.8c3.7-0.9,7.4-1.5,11.2-2.2c1.7-0.3,2-0.5,1.8-2.2c-0.6-5-1.3-10-2-15
			c-0.3-2.3-0.5-4.5-0.8-6.8c-0.6-3.8-1.1-7.6-1.8-11.4c-0.9-5-2-10-3.1-14.9c-0.5-2-1.3-4-1.8-6c-0.8-2.8-1.4-5.7-2.2-8.6
			c-0.6-2.1-1.4-4.1-2.2-6.1c-1-2.3-2-4.6-3.2-6.9c-1-2-2.6-3.4-4.7-4.4c-2.3-1.1-4.4-2.7-6.7-3.9c-2.4-1.3-4.9-2.4-7.5-3.5
			c-3.6-1.5-7.2-2.8-10.9-4.1c-3.3-1.1-6.6-2.1-9.9-3.2c-2.2-0.7-4.4-1.5-6.6-2.2c-0.5-0.2-1.1-0.1-1.6-0.1c-0.6,0-1.2,0-1.8-0.2
			c-1.3-0.3-2.4-0.4-3.3,1.1c-0.8,1.3-2,2.4-2.9,3.6c1.2,1.4,0.6,2.4-0.6,3.1c-0.6,0.4-1.2,0.7-1.7,1c-0.7,0.4-1.3,0.7-1.1,1.9
			c0.2,1.4-1,2.1-2.2,2.6c-1.2,0.5-2.5,0.9-3.7,1.4c-1.5,0.7-2.8,1.6-4.2,2.4c1,2,0.1,3.4-2.1,3.3c-3.8-0.1-7.6-0.3-11.4-0.5
			c-3.7-0.2-7.2-1.4-10.3-3.3c-3.3-2-6.4-4.4-9.5-6.8c-2.7-2-4.7-4.5-6.2-7.5c-0.4-0.9-0.9-0.8-1.7-0.4c-2,1.1-4,2.1-6.1,3
			c-1.2,0.5-2.5,0.7-3.7,1.3c-2.1,1.1-4,2.4-6.1,3.5c-1.1,0.6-2.2,1.2-3.3,1.5c-4.8,1.5-9.5,3.4-14.1,5.7c-1.2,0.6-2.7,0.7-3.9,1.4
			c-2.5,1.6-5,3.3-7.3,5.1c-2.3,1.8-4.5,3.7-6.7,5.7c-1.3,1.1-2.1,2.5-2.1,4.3c0,5.9,1.8,11.5,4.1,16.8c0.7,1.6,1.7,3,2.6,4.4
			c1.1,1.8,0.1,2.6-1.5,3.5c-0.3,0.1-0.9-0.1-1.2-0.4c-0.6-0.7-1.2-1.6-1.6-2.4c-1.1-2.6-2.2-5.3-3.2-7.9c-0.3-0.7-0.6-1.2-1.4-1.1
			c-0.1,0-0.1,0-0.2,0c-2-0.4-2-0.4-2.3,1.6c-0.5,3.9-1.1,7.7-1.6,11.6c-0.1,0.5,0.1,1.1,0.3,1.6c1,1.5,2.1,3,3.1,4.5
			c0.8,1.2,0.8,1.8-0.4,2.6c-1.1,0.8-1.7,0.7-2.5-0.5c-0.4-0.6-0.9-0.8-1.5-0.5c-0.3,0.2-0.7,0.6-0.8,1c-0.3,3-0.5,5.9-0.7,8.9
			c0,0.6,0.3,1.1,0.4,1.7c0,0.4-0.3,0.8-0.2,1.1c0.3,1.9,0.9,3.9,1.1,5.8c0.1,1.3,0,2.7-0.3,4.1c-0.2,0.9,0.1,1.2,0.8,1.4
			c0.7,0.1,1.5,0.1,2.2,0.1c0.4,0,0.8-0.2,1.1-0.2c0.6,0.1,1.1,0.3,1.7,0.5c-0.2,0.6-0.3,1.5-0.8,1.8c-0.8,0.5-1.7,0.8-2.6,1.1
			c-1.1,0.3-2.3,0.4-3.4,0.7c-0.5,0.2-1,0.6-1.3,1c-0.1,0.2,0.4,0.8,0.8,1.1c1.4,1.3,3.2,1.2,5,1.2c1,0,2.1-0.3,3.1-0.5
			c4-1,8-1.4,12.2-0.9c1.2,0.1,2.5-0.2,3.7-0.4c0.3-0.1,0.7-0.5,0.9-0.8c1.2-1.8,2.4-3.6,3.6-5.3c0.1-0.1,0.1-0.2,0.1-0.3
			c-1-1.2-1.1-2.6-1-4c0.2-2.5,0.6-5,0.9-7.6c0.1-0.7-0.3-1.5-0.3-2.2c0-1.4,0-2.7,0.1-4.1c0.2-1.7,0.7-3.3,0.8-5
			c0.1-1.1-0.2-2.2-0.2-3.3c0-0.8,0-1.6,0.2-2.3c0.3-0.9,1-1.1,1.9-0.8c0.9,0.3,1.1,0.9,1.1,1.7c0,0.8,0.2,1.6,0.4,2.4
			c0.1,0.6,0.4,1.2,0.4,1.7c0,2.2-0.2,4.4-0.3,6.7c0,0.4,0.2,0.8,0.2,1.2c0.1,0.3,0.2,0.7,0.1,1c-1.4,4.7-1.3,9.4-0.7,14.2
			c0.1,0.9,0.3,1.9-1.2,1.7c-0.1,0-0.5,0.4-0.5,0.6c-0.1,2.2-0.3,4.4,0,6.6c0.3,2.3,1,4.6,1.6,6.8c0.2,1,0.6,1.9,0.8,2.9
			c0.1,0.5,0,1-0.2,1.5c-0.1,0.1-0.8,0-1.2-0.1c-0.1,0-0.3-0.1-0.6-0.2c0.1,0.8,0.2,1.4,0.4,2c0.5,2.1,1.1,4.1,1.6,6.2
			c0.1,0.3-0.2,0.7-0.3,1c-0.3-0.2-0.8-0.3-1-0.5c-0.6-1.2-1-2.6-1.6-3.8c-0.7-1.5-1.2-2.9-0.5-4.6c0.2-0.6,0-1.4-0.1-2.1
			c-0.1-1.5-0.2-3-0.3-4.6c0-0.2,0-0.5,0.1-0.7c1.2-1.6,0.5-3.5,0.6-5.2c0-1.4-0.2-2.9-0.3-4.3c-0.1,0-0.2-0.1-0.3-0.1
			c-0.5,1.2-1,2.5-1.5,3.7c-0.1,0.2-0.1,0.4,0,0.5c1,1.4,0.5,2.9,0.4,4.5c-0.1,4.1-0.2,8.3-0.3,12.4c0,0.8,0,1.5,0,2.4
			c1.4,0.1,1.8,1,2.2,2c0.5,1.5,1,3,1.5,4.6c0.2,0.6,0.2,1.3,0.2,2c-0.2,0.1-0.3,0.1-0.5,0.2c-0.6-0.9-1.3-1.8-1.9-2.7
			c-0.1,0-0.2,0.1-0.3,0.1c0.1,0.7,0.1,1.3,0.2,2c0.6,3.2,1.3,6.4,1.9,9.6c0,0.1,0.1,0.2,0.1,0.3c-0.1,0.4-0.2,0.9-0.4,1.3
			c-0.4-0.3-0.9-0.4-1.1-0.8c-0.6-1.3-1-2.6-1.8-3.9c0.3,1.7,0.4,3.5,0.8,5.2c1,4.2,2,8.4,3.1,12.6c1,3.6,3.3,6.4,5.5,9.3
			c1,1.3,2.1,2.5,3.1,3.8c0.3,0.4,0.3,1,0.4,1.6c-0.5,0.1-1,0.2-1.5,0.3c-0.1,0-0.3-0.1-0.4-0.1c0.9,3.4,0.7,3.8-2.2,3.8
			c0.4,1.4,0.8,2.8,1.3,4.2c0,0.1,0.1,0.2,0.1,0.3c-0.1,0.5-0.2,1.1-0.3,1.6c-0.4-0.4-0.9-0.7-1.1-1.1c-0.7-1.2-1.1-2.5-1.9-3.6
			c-0.6-0.9-1.6-1.6-2.4-2.3c-0.4,0.1-0.9,0.3-1.2,0.2c-0.3-0.2-0.3-0.8-0.4-1.2c-0.5-2.3-1-4.6-1.6-6.9c-0.2,0-0.3,0-0.5,0
			c-0.3,1.6-0.8,3.2-1,4.9c-0.3,3,1.7,5.4,2.6,8.1c0.6,1.6,1.4,3.1,2,4.6c0.2,0.6,0.4,1.3,0.3,2c-0.1,0.4-0.5,0.8-0.8,1.2
			c-0.2,0.3-0.6,0.6-0.6,0.9c0.1,0.7,0.3,1.5,0.6,2.1c0.1,0.2,0.5,0.4,0.7,0.4c0.9-0.1,1.3,0.4,1.5,1.2c0.4,1.6,0.8,3.2,1.3,4.8
			c0.3,0.9,0.7,1.7,1.2,2.5c0.3,0.6,0.7,1.3,0,1.7c-0.3,0.2-1.2-0.2-1.5-0.6c-1.2-1.7-2.2-3.4-3.4-5.1c-1-1.5-2-2.9-3.1-4.4
			c-0.2-0.2-0.5-0.3-1-0.6c0.2,1.5-0.8,2.8,0.2,4.1c0.1,0.2-0.2,0.7-0.3,1.1c-0.4-0.2-1-0.2-1.1-0.5c-0.9-2-1.8-4.1-2.6-6.2
			c-0.3-0.8-0.2-1.5,0.7-2c0.2-0.1,0.4-0.4,0.4-0.6c-0.4-1.4-0.8-2.8-1.2-4.3c-0.1,0-0.2,0-0.3,0c-0.1,0.4-0.3,0.7-0.4,1.1
			c-0.9,3.2-0.8,6.3,0.7,9.4c0.8,1.7,1.5,3.6,2.1,5.4c0.2,0.4,0.2,1.1,0,1.4c-1,1.6,0,2.9,0.6,4.1c1.4,2.7,3,5.4,4.4,8.2
			c0.3,0.6,0.4,1.4,0.5,2.2c0.1,0.6-0.4,0.9-1,0.6c-0.7-0.3-1.4-0.7-2.1-1.1c-0.1-0.1-0.2-0.2-0.3-0.2c-1.3,0.2-2-0.4-2.5-1.5
			c-2.1,1.3-1,2.9-0.6,4.4c0.3,0.8,0.3,1.4-0.3,2c-0.1,0.1-0.3,0.4-0.2,0.6c0.4,1.3,0.9,2.7,1.3,4c0.1,0.3,0.5,0.6,0.6,0.9
			c0.1,0.3-0.1,0.7-0.2,1.1c-0.4-0.1-0.8-0.1-1.1-0.3c-1.6-1.1-2.1-2.9-2.4-4.7c-0.3-1.7-0.3-3.4-0.5-5.1c-0.2-1.4-0.5-2.8-0.8-4.2
			c-0.2,0-0.3,0-0.5,0c-0.2,1-0.5,2-0.5,3c0.1,2.1,0.5,4.1,0.7,6.2c0.1,1.1,0.3,2.2,0.4,3.3c0.1,0.7,0.4,1.1,1.1,1.3
			c4.9,1.8,10,2.6,15.1,3.5c1.5,0.3,3,0.8,4.6,1.1c4.6,0.8,9.2,1.6,13.9,1.9c2.4,0.1,4.7,0.8,7.1,1c2.8,0.2,5.7,0.2,8.5,0.4
			c4,0.3,8.1,0.8,12.1,1.1c1.5,0.1,3,0.2,4.5,0.4c2.4,0.2,4.8,0.7,7.1,0.6c4.3-0.1,8.5-0.4,12.7-0.6c4.5-0.2,8.9-0.5,13.4-0.7
			c1.7-0.1,3.3-0.3,5-0.5c1.2-0.1,2.5-0.2,3.7-0.1c0.3,0,0.8,0.6,0.9,1c0.1,0.2-0.5,0.8-0.9,0.8c-3.1,0.1-6.2,0.1-9.3,0.3
			c-3.8,0.2-7.6,0.6-11.3,0.9c-3.2,0.3-6.4,0.7-9.6,1c-1.5,0.1-3.1,0.3-4.6,0.2c-2.2-0.1-4.5-0.3-6.7-0.5
			c-5.1-0.5-10.1-1.2-15.2-1.6c-2.3-0.2-4.6,0.1-6.8-0.1c-3.6-0.3-7.2-0.9-10.8-1.4c-3.1-0.4-6.2-0.6-9.2-1.1
			c-2.3-0.4-4.7-0.5-6.9-1.6c-1-0.5-2.4-0.4-3.5-0.6c-3.7-0.7-7.4-1.4-10.9-3c-1.1-0.5-2.3-0.9-3.6-1.4c0,0.3-0.1,0.5-0.1,0.8
			c0.1,0.5,0.3,1,0.3,1.5c-0.3,2.2,1.2,3.1,2.9,3.6c2.2,0.8,4.4,1.4,6.6,2c2.3,0.6,4.6,1.2,6.9,1.8c0.7,0.2,1.5-0.1,2.2,0.1
			c2.6,0.5,5.2,1.1,7.8,1.5c2.5,0.5,5,1,7.5,1.3c5.8,0.8,11.7,1.5,17.5,2.2c1.5,0.2,3,0.2,4.6,0.3c2.4,0.1,4.9,0.3,7.3,0.2
			c2.7-0.2,5.4,0.4,8.1,0.3c0.6,0,1.2-0.2,1.7-0.3c0.2,0,0.4,0,0.7,0c1,0.1,2,0.1,3,0.1c0.2,0,0.3-0.4,0.5-0.7
			c1.1,1.4,2.7,0.6,4.3,0.5c3.3-0.3,6.7-0.5,10-0.5c3.3,0,6.6,0.2,9.9,0.3c0.9,0,1.7-0.1,2.6,0c3,0.1,6,0.4,9,0.5
			c1.4,0.1,2.7,0,4.1-0.1c1.2-0.1,2.4-0.2,3.6-0.3c3.3-0.1,6.5-0.5,9.6-1.7c0.8-0.3,1.2,0.1,1.4,0.8c0.3,1-0.3,2.4-1.3,2.7
			c-2.3,0.6-4.6,1.1-7,1.5c-1.3,0.2-2.7,0.1-4,0.3c-2.8,0.5-5.5,0.6-8.3,0.3c-2.9-0.3-5.9-0.4-8.8-0.5c-4-0.1-8-0.2-12-0.2
			c-3.1,0.1-6.2,0.5-9.3,0.7c-1.9,0.1-3.8,0.1-5.7,0.1c-2,0-4,0.1-6,0.1c-0.3,0-0.7,0-1,0c-1.3-0.2-1.6,0.1-1.5,1.3
			c0.5,5.3,0.9,10.6,1.5,15.9c0.3,3.2,0.7,6.4,1,9.6c0.1,1.5-1.1,2.5-2.6,1.9c-0.3-0.1-0.7-0.7-0.7-1.1c-0.4-2.1-0.7-4.2-1-6.3
			c0-0.2-0.1-0.4-0.2-0.6c-0.5,0.1-1,0.3-1.3,0.1c-0.4-0.2-0.6-0.7-0.8-1.1c-0.4-0.9-0.8-1.8-1.1-2.8c-0.2-0.5-0.1-1.2-0.3-1.7
			c-0.3-0.7-0.5-1.6-1.1-2.1c-3.7-3.8-7.2-7.8-10.1-12.2c-0.1-0.2-0.3-0.4-0.4-0.6c-0.4-1.7-1.7-1.6-3-1.8c-3.2-0.3-6.5-0.6-9.7-1.1
			c-3.4-0.5-6.9-1-10.3-1.6c-1.7-0.3-3.3-1-5-1.3c-2.6-0.5-5.3-0.7-7.9-1.2c-3.7-0.8-7.4-1.6-10.9-2.7c-2.1-0.7-4-2.1-6-3.3
			c-0.2-0.1-0.4-0.5-0.4-0.8c-0.2-2.2-0.2-4.5-0.4-6.7c-0.2-2.4-0.5-4.9-1-7.3c-0.7-3.4-0.4-6.6,1.1-9.7c1.2-2.3,2.1-4.7,2.6-7.2
			c0.1-0.4,0.2-0.9,0.5-1.1c1.1-1.1,0.6-2.2,0.2-3.3c-0.8-1.9-1.6-3.8-2.4-5.8c-0.3-0.6-0.3-1.3-0.7-2.1c-0.2,0.5-0.4,1-0.5,1.5
			c-0.3,2.2-0.5,4.4-0.7,6.5c-0.3,3-0.4,6.1-0.7,9.1c-0.3,3.1-0.6,6.3-1.1,9.4c-0.6,4.2-1.3,8.3-1.8,12.5c-0.4,3.4-0.5,6.9-0.7,10.4
			c-0.1,1.5-0.2,3-0.3,4.5c0,0.3-0.2,0.6,0,0.9c0.8,1.8,1.6,3.5,3.3,5c0.3-2.4,0.5-4.6,0.7-6.8c0.2-1.6,0.4-3.3,0.6-4.9
			c0.2-0.9,0.9-1.3,1.8-1.1c0.9,0.2,1.2,0.7,1.1,1.7c-0.2,2.4-0.2,4.8-0.4,7.3c-0.2,2.1,0.2,4.3-0.9,6.4c-0.1,0.2,0.1,0.6,0.3,0.8
			c1.3,1.3,2.3,2.7,3.5,4.2c1.1,1.4,1.4,2.8,1.9,4.3c0.7,2,1.6,3.9,2.4,5.9c0.5,1.1,1,2.3,1.3,3.4c0.2,0.8,0,1.8-0.1,2.8
			c2.1,0.9,2.1,2.7,1.7,4.8c-0.2,1.1-0.3,2.3-0.4,3.4c-0.1,1.1-0.7,1.6-1.8,1.8c-1.5,0.2-3,0.6-4.5,0.9c-0.6,0.1-1.2,0.2-1.7-0.5
			c-0.9-1.5-1.9-3-3.1-4.5c0.1,0.9,0.1,1.8,0.2,2.8c0.2,1-0.2,1.5-1.1,1.7c-1,0.2-1.5-0.2-1.6-1.4c-0.2-1.8-0.4-3.6-0.6-5.3
			c-0.1-1.4,0.4-2.1,1.7-2.5c1.5-0.5,2.8-0.1,3.4,1c0.8,1.3,1.5,2.7,2.2,4c0.5,1,2.3,1.6,3.3,1.2c0.3-0.2,0.6-0.7,0.6-1
			c0.3-2,0.6-4,0.9-6.1c-1.9,0-1.8-1.4-2.2-2.4c-0.9-2.2-1.5-4.6-2.8-6.6c-0.6-0.9-1-2.1-1.1-3.2c-0.3-1.9-1.4-3.1-2.7-4.4
			c-2.5-2.6-5-5.1-7.3-7.8c-1.2-1.4-1.9-3.2-2.8-4.8c-0.2-0.3,0-1,0.3-1.3c0.7-0.7,0.9-1.5,0.9-2.5c0.1-4.9-0.2-9.8,0.9-14.6
			c1.1-4.7,1.4-9.5,2-14.3c0.4-3.1,0.5-6.3,0.8-9.5c0.4-3.9,0.9-7.9,1.3-11.8c0.4-3.5,0.8-7,1.2-10.6c0.2-1.5,0.5-2.9,0.8-4.4
			c0-0.2,0.1-0.4,0.1-0.7c0.3-2.8,0.6-5.6,0.9-8.4c0.3-2.2,0.7-4.5,0.9-6.7c0.4-2.9,0.7-5.8,1-8.7c0.6-4.5,1.2-8.9,1.8-13.4
			c0.2-1.2,0.3-2.4,0.5-3.5c0.1-0.4,0.1-0.7,0.3-1.1c1.8-3.4,2.5-7,2.1-10.8c-0.3-3.9-0.3-7.9,0.4-11.8c0.1-0.6,0-1.2-0.8-0.9
			c-2.5,0.8-5.1,0.2-7.6,0.2c-2.1,0-4.3,0.3-6.4,0.6c-2.2,0.3-4.4,0.9-6.6,1.2c-1,0.1-2.1-0.1-3.1-0.3c-0.9-0.2-1.3,0.2-1.3,1
			c0,1.8-0.1,3.5-0.2,5.3c-0.1,1.8-0.4,3.7-0.3,5.5c0,2.1-0.6,4.2-1,6.2c-0.1,0.5,0.1,1.1,0.3,1.7c0.2,0.8,0.8,1.5-0.4,2.1
			c-0.2,0.1-0.2,1-0.1,1.5c0.2,0.8,0.3,1.2-0.3,2c-0.6,0.8-0.5,2.2-0.5,3.3c0,0.7,0.3,1.2-0.2,1.9c-0.2,0.3,0,1,0,1.6
			c0.1,0.8,0.1,1.3-0.4,2.1c-0.6,0.9-0.9,2.2-0.2,3.5c0.5,0.9,0.4,1-0.3,2.1c-0.4-0.5-0.8-1-1.2-1.4c0,0-0.2,0-0.2,0
			c-0.5,2.4-1.7,4.7-1.2,7.3c0.1,0.7-0.3,1.5-0.5,2.3c-0.1,0.6-0.3,1.3-0.4,2c-0.3,5.1-0.5,10.2-0.7,15.3c0,0.8,0,1.4,0.9,1.7
			c0.2,0.1,0.5,0.7,0.4,1c-0.1,0.5-0.5,1.1-0.9,1.2c-0.7,0.2-0.8,0.6-0.8,1.1c0,0.9,0,1.9-0.2,2.8c-0.4,1.7,0.6,2.5,1.8,3.3
			c0.4,0.2,0.7,0.7,0.8,1.1c0.2,0.8-0.2,1.1-1,0.8c-0.3-0.1-0.6-0.3-0.9-0.4c-0.2,0-0.5,0-0.6,0.1c-0.6,0.5-0.3,2.4,0.3,2.9
			c0.8,0.6,1.5,1.3,2.2,1.9c0.2,0.2,0.5,0.6,0.5,0.9c0,0.4-0.1,0.8-0.3,1.1c-0.1,0.1-0.6,0-0.9-0.2c-0.7-0.4-1.4-0.9-2.4-1.5
			c0,2.3-0.6,4.4,1.6,6c0.8,0.6,1.4,1.6,2,2.5c0.2,0.3-0.1,0.9-0.1,1.4c-0.4-0.2-0.8-0.2-1.1-0.5c-0.6-0.6-1.2-1.3-1.8-2
			c-0.7,1.4-0.4,3.3,0.5,4.2c1.1,1.1,2.2,2.2,3.2,3.4c0.3,0.3,0.4,0.7,0.5,1.1c0.1,0.8-0.3,1.2-1,0.8c-0.9-0.5-1.6-1.2-2.4-1.9
			c-0.2-0.2-0.3-0.4-0.5-0.7c-0.7,1.9-0.4,3.4,0.9,4.5c0.6,0.5,1.3,1.1,1.8,1.7c0.3,0.4,0.7,0.8,0.8,1.3c0.1,0.3-0.2,0.7-0.3,1.1
			c-0.3-0.1-0.7-0.2-1-0.4c-0.6-0.5-1.1-1-1.6-1.5c-0.2-0.2-0.5-0.4-0.9-0.6c-0.2,1.8-0.6,3.5,1.3,4.7c1,0.6,1.7,1.8,2.5,2.7
			c0.2,0.2,0.5,0.6,0.5,0.9c0,0.5-0.2,1-0.3,1.4c-0.4-0.2-1-0.4-1.3-0.7c-0.8-0.9-1.5-1.9-2.4-3c-0.4,1.4-0.1,2.4,1.1,3.1
			c1.6,0.9,2.4,2.4,3.3,3.9c0.2,0.2,0.3,0.6,0.2,0.8c-0.1,0.4-0.3,0.7-0.5,1.1c-0.4-0.2-0.8-0.3-1.1-0.6c-0.8-0.8-1.4-1.7-2.3-2.5
			c-0.3,1.5-0.5,2.9,0.9,4.1c1,0.9,2,1.9,2.8,3c0.3,0.3,0.1,1,0.1,1.6c-0.4-0.1-0.9-0.2-1.3-0.5c-0.9-0.6-1.7-1.3-2.5-1.9
			c0.3,0.5,0.5,1.2,0.9,1.8c0.7,1,1.5,1.9,2.2,2.9c0.2,0.3,0.4,0.9,0.3,1.1c-0.6,0.9,0.2,1.3,0.6,1.9c0.4,0.6,0.8,1.3,0.8,2
			c0,0.9-0.6,1.2-1.3,0.6c-0.7-0.6-1.4-1.3-2-1.9c-0.2-0.2-0.4-0.4-0.7-0.5c-0.1,0-0.2,0.1-0.3,0.1c0.2,0.8,0.3,1.7,0.5,2.5
			c0.3,1.2,0.7,2.2,1.9,2.9c0.7,0.4,1.3,1,1.9,1.5c0.3,0.3,0.7,0.7,0.8,1.2c0.1,0.3,0,0.7-0.2,1c-0.1,0.1-0.6,0-0.9-0.1
			c-0.3-0.1-0.5-0.3-0.6-0.4c0.2,1.7,0.5,3.4,0.8,5.1c0,0.3,0.3,0.5,0.5,0.7c0.3,0.3,0.6,0.6,0.8,0.9c0.1,0.2,0,0.6,0,0.9
			c-0.3,0-0.6,0.1-0.8,0c-0.2,0-0.5-0.2-0.8-0.3c-0.8,1.3-0.8,2.7-0.7,4.1c0,0.3,0.4,0.5,0.7,0.7c0.5,0.4,1.2,0.6,1.7,1.1
			c0.2,0.2,0.2,0.7,0.1,1c-0.1,0.2-0.6,0.3-0.9,0.2c-1.9-0.5-1.9-0.5-1.9,1.5c0,0.2,0.1,0.5,0,0.7c-0.6,2,0.7,2.8,2.2,3.5
			c0.6,0.3,1.7,0.5,1.1,1.5c-0.5,0.9-1.3,0.1-1.8-0.2c-0.5-0.2-0.9-0.5-1.3-0.8c-0.6,1.9-0.2,3.6,1.3,4.8c1,0.8,2.1,1.5,3.1,2.3
			c0.3,0.2,0.6,0.5,0.6,0.7c0.1,0.4,0,0.9,0,1.4c-0.4-0.1-0.9,0-1.2-0.3c-0.7-0.5-1.3-1.2-2-1.8c-0.4-0.4-0.9-0.8-1.3-1.2
			c-0.6,1.3-0.3,2.4,0.6,3.3c1.8,1.8,3.5,3.7,5.2,5.6c0.8,1,0.7,1.6-0.5,2.5c1.3,1.4,2.6,2.7,4,4c1.4,1.3,2.8,2.5,4.4,3.6
			c1.6,1.1,3.4,1.9,5.1,2.8c0.2,0.1,0.6,0.2,0.8,0.1c1.5-0.5,3-1,4.5-1.6c0.7-0.3,1.4-0.8,2.2-1.3c-0.5-0.4-0.7-0.6-0.9-0.8
			c-0.6-0.6-0.9-1.1-0.4-2c0.5-0.8,1.2-1.2,2-0.8c0.8,0.4,1.7,1.1,2.2,1.8c0.8,1,0.3,2-0.8,2.6c-0.5,0.3-1,0.8-1.3,1.3
			c-0.5,1-1.1,1.4-2.2,1.7c-1.2,0.3-2.6,0.5-3.7,1.6c-1.3,1.4-3.1,0.7-4.5,0.1c-2.5-1.2-5-2.7-7.4-4.1c-0.2-0.1-0.3-0.4-0.5-0.6
			c-0.4-0.4-0.9-0.7-1.3-1c-0.5-0.4-1.1-0.7-1.5-1.1c-2.1-2.6-4.4-5.1-6.3-7.8c-1.6-2.3-3.5-4.6-3.8-7.6c0-0.3,0-0.5,0-0.8
			c-0.2,0-0.3,0-0.6,0.1c0.1-0.2,0.1-0.4,0.2-0.5c0.4-0.4,0.6-0.7,0.2-1.5c-0.4-0.7-0.1-1.8-0.1-2.7c0-0.6,0.2-1.2,0.2-1.7
			c0-1.9-0.1-3.9,0-5.8c0.1-2.6,0.3-5.2,0.5-7.8c0.1-1.1,0.4-2.3,0.6-3.4c0.2-1.8-0.6-3.4-1.4-5c-0.7-1.5-1.2-3-1.8-4.5
			c-1-2.3-0.8-4.5-0.5-6.9c0.2-1.3-0.5-2.6-0.6-3.9c-0.2-1.6-0.3-3.2-0.4-4.7c-0.2-2.5-0.7-5-0.7-7.6c-0.1-3.6,0-7.2,0-10.8
			c-0.1-3.7-0.3-7.5-0.3-11.2c0-3.2,0.1-6.3,0.2-9.5c0.2-3.9,0.4-7.8,0.6-11.7c0.2-2.8,0.4-5.5,0.6-8.2c0.2-2.7,0.3-5.4,0.4-8.1
			c0.2-4.5,1.2-8.8,2-13.1c1.1-6,2.8-11.9,3.1-18.1c0.1-2.5,0.9-5,1.1-7.5c0.3-2.8,0.3-5.6,0.5-8.5c0-0.8,0.1-1.6,0.1-2.3
			c0-1.2,0.2-2.3,1.6-2.6c-0.1-0.2-0.1-0.2-0.2-0.2c-2.1-1.6-2.4-2.5-1.4-5c0.7-1.6,1.3-3.3,2-4.9c0.7-1.5,0.5-3,0-4.6
			c-0.3-0.8-0.2-1.6-0.4-2.4c-0.7-2.8-0.6-5.6-0.3-8.4c0.5-3.7,0.8-7.5,1.4-11.2c0.7-4.6,1.6-9.1,2.4-13.6c0.4-2,0.9-3.9,1.2-5.9
			c0.4-2.2,0.4-4.5,1-6.6c0.9-3.5,2-7,4.9-9.4c3.7-3,7.5-5.9,11-9.1c2.3-2,4.9-3.1,7.7-4.1c2.1-0.8,4-2,6-2.9
			c1.5-0.7,3.1-1.3,4.7-1.7c3-0.8,5.8-1.9,8.6-3.5c2.9-1.6,6-2.9,8.9-4.4c2.7-1.4,5.2-3,7.9-4.4c0.8-0.4,1.5-1,2.5-0.2
			c0.1,0.1,0.4,0.2,0.5,0.1c1.1-0.8,1.6,0.1,2.2,0.7c1.9,2,3.7,4.2,5.8,5.9c4.2,3.5,9,5.8,14.4,6.6c2.5,0.4,5.2,0.2,7.7-0.2
			c2.9-0.4,5.9-1,8.7-1.9c1.8-0.6,3.5-1.6,4.9-2.8c2.7-2.3,5.3-4.8,7-8.1c0.7-1.4,2-2.4,3.9-2.2c0.2,0,0.5,0,0.5-0.1
			c0.7-1.2,1.7-0.7,2.6-0.4c2.4,0.9,4.7,2,7.1,2.9c1.1,0.4,2.2,0.6,3.3,0.9c4.4,1.4,8.8,2.7,13.1,4.1c2.8,0.9,5.4,2.1,8.2,3.2
			c3.2,1.3,6.4,2.6,9.3,4.5c2.1,1.4,4.3,2.6,6.5,3.7c1.6,0.8,2.6,2.2,3.6,3.6c1.5,2.2,3,4.5,3.9,7.1c0.2,0.7,1,1.1,1.4,1.7
			c0.4,0.7,0.8,1.6,1,2.4c0.6,2.8,1,5.6,1.6,8.3c0.4,1.8,1.2,3.6,1.7,5.4c0.9,3.2,1.6,6.4,2.4,9.6c1.8,7.1,3,14.2,4,21.4
			c0.7,5.1,1.5,10.1,2.2,15.2c0.4,2.7,0.6,5.4,0.9,8.1c0.1,1,0.6,2,0.9,3c0.4,1.1,0.3,2.1-0.7,2.9c-2.4,1.9-4.8,3.7-7.6,5
			c-0.3,0.1-0.6,0.8-0.6,1.1c0.2,3.8,0.3,7.7,0.6,11.5c0.4,4.9,1.2,9.8,1.6,14.7c0.3,4,0.4,8,0.5,11.9c0.2,5.7,0.6,11.3,0.7,17
			c0.1,5,0,10.1-0.4,15.1c-0.5,5.7-1.5,11.4-2.1,17.1c-0.7,6.2-1.3,12.4-1.8,18.6c-0.3,3.9-0.2,7.8-0.5,11.7
			c-0.2,3.1-0.7,6.2-1.6,9.2c-0.4,1.3-0.6,2.7-0.9,4c0,0.2-0.1,0.5,0,0.6c1.4,1.6,1.3,3.6,1.5,5.5c0.3,2.1,0.4,4.2,0.5,6.2
			c0,0.3,0,0.7,0.2,1c1.2,2.2-0.1,3.8-1.2,5.4c-1,1.5-2.2,2.9-3.1,4.5c-1.4,2.3-2.8,4.6-4.1,6.9c-0.7,1.2-1.2,2.4-1.9,3.5
			c-0.2,0.4-0.8,0.8-1.2,0.7c-2.1-0.2-4.1-0.4-5.7-2.2c0,1.5,0,2.9,0,4.3c0.1,7.1-1,14-1.8,21c-0.4,4.1-1,8.2-1.4,12.3
			c-0.5,5.1-0.9,10.2-1.4,15.4c-0.7,7.7-1.4,15.5-1.9,23.2c-0.3,5-0.1,10-0.1,15c-0.1,7-0.8,13.8-2,20.7c-1,5.9-1.9,11.8-2.8,17.7
			c-0.3,2.1-0.4,4.2-0.6,6.3c-0.5,4.8-1.1,9.6-1.5,14.3c-0.2,2.9-0.2,5.9-0.4,8.8c-0.1,2.7-0.4,5.4-0.4,8.1
			c-0.1,1.7,0.1,3.4,0.1,5.1c0.1,4.2,0.1,8.4,0.2,12.5c0.1,5.1,0.4,10.1,0.5,15.2c0.1,2.6-0.2,5.3-0.3,7.9c-0.1,3.2-0.2,6.5-0.2,9.7
			c0,2.3,0,4.6,0.1,6.9c0.1,2.3,0.4,4.7,0.5,7c0.4,5.9,0.7,11.7,1.1,17.6c0.2,2.7,0.6,5.4,0.8,8.1c0.1,1.5,0.1,3.1,0.3,4.6
			c0.3,2.7,1,5.5,1.2,8.2c0.1,2.4-0.1,4.7-0.3,7.1c-0.1,1.4-1.5,2.5-3.2,2.6c-0.5,0-0.9,0.1-1.7,0.2c0.4,0.6,0.5,1.1,0.8,1.3
			c2,1.4,4,2.8,6,4.2c0.1,0,0.1,0.1,0.2,0.1c2.8-0.1,4.5,2.1,6.7,3.2c0.8,0.4,1.6,0.9,2.3,1.4c1.8,1.4,3.4,3.1,3.5,5.6
			c0,1.1,0.1,2.2,0.1,3.2c0,0.9,0.1,1.7,0.9,2.2c0.3,0.2,0.5,0.9,0.4,1.4c-0.1,1.3-0.8,2.3-1.9,3c-1.5,0.9-2.9,1.8-4,3.3
			c-0.5,0.8-1.6,1.3-2.5,1.6c-2.4,0.8-4.8,1.4-7.3,1.3c-3.3-0.1-6.6,0.1-9.9,0c-3.9-0.1-7.9-0.3-11.8-0.4c-1.4,0-2.7-0.1-4.1-0.1
			c-3.3-0.1-6.2-1.5-9.1-2.9c-2.9-1.4-5.7-2.9-8.9-3.5c-1.9-0.4-3.6-3-3.7-5.2c-0.1-1.8-0.3-3.5-0.5-5.3c0-0.4-0.1-0.7,0-1.1
			c0.5-4,1-7.9,1.5-11.9c0.1-0.5,0.3-1.1,0.5-1.6c0.4-0.8,0-1.2-0.7-1c-1.5,0.4-2-0.4-2.5-1.6c-1.1-2.9-2.6-5.6-3.3-8.5
			c-1.2-4.7-2.1-9.4-2.6-14.2c-0.7-5.5-1.2-11.1,0.2-16.7c0.4-1.7,0.9-3.5,1.3-5.2c0.6-2.9,1-5.9,1.6-8.8c1.1-5.2,1-10.5,1.3-15.7
			c0.2-5.1,0.4-10.2,0.4-15.3c0-2.8-0.4-5.6-0.6-8.5c0-0.5,0-1.1,0.1-1.7c-0.2,0-0.4-0.1-0.4-0.1c0.1-1,0.2-2,0.2-2.9
			c-0.1,0-0.3-0.1-0.4-0.1c-0.1,0.1-0.3,0.2-0.4,0.4c-0.1,0-0.2-0.1-0.2-0.1c0.1-0.3,0.2-0.6,0.4-1c-0.8-0.2-0.2-0.7-0.2-1.3
			c0.1-1.3-0.2-2.5-0.4-3.8c-0.5-3.3-1.2-6.6-1.4-9.9c-0.4-5.7-0.3-11.3-0.6-17c-0.1-3.1-0.6-6.1-0.9-9.2c-0.3-3.3-0.4-6.5-0.7-9.8
			c-0.4-4.7-0.7-9.5-1.2-14.2c-0.3-3-1-6-1.5-8.9c-0.8-5.3-1.4-10.7-1.6-16.1c-0.1-3.2-0.5-6.5-0.8-9.7c-0.3-3.5-0.4-7.1-0.8-10.6
			c-0.4-3.2-1.2-6.4-1.6-9.6c-0.4-3.1-0.6-6.2-0.9-9.4c-0.4-4.3-0.8-8.5-1.3-12.8c0-0.1-0.1-0.2-0.3-0.5c-0.3,1.7-0.6,3.3-0.9,4.8
			c-0.9,4.3-1.8,8.6-2.6,12.9c-0.4,2.2-0.5,4.4-0.8,6.7c-0.3,2.9-0.4,5.8-0.8,8.7c-0.3,2.6-0.8,5.2-1,7.9c-0.3,3.5-0.3,7.1-0.5,10.6
			c-0.3,5.9-0.8,11.8-1.1,17.8c-0.2,3.1-0.1,6.2-0.1,9.2c0,2.3,0.2,4.6-0.1,6.8c-0.2,1.9-1,3.6-1.5,5.5c-0.6,2.2-1.3,4.4-1.6,6.7
			c-0.4,3.1-0.6,6.3-0.7,9.5c-0.1,2.9,0.1,5.9,0.2,8.8c0,2.9-0.1,5.8,0,8.7c0.2,4.4,0.6,8.9,0.8,13.3c0.1,2.2-0.1,4.4-0.2,6.6
			c-0.1,2.3-0.1,4.7-0.1,7c-0.1,2.5-0.1,5.1-0.2,7.6c-0.1,3.5-0.2,7.1-0.3,10.6c-0.1,4.2-0.1,8.5-0.3,12.7c-0.2,2.7-0.8,5.5-0.9,8.2
			c-0.2,3.6-0.1,7.3,0.8,10.9c0.2,0.8,0.2,1.7,0.4,2.5c0.4,2.7,0.7,5.4,1.1,8.1c0.2,1.5,0.1,3.1,0.4,4.5c0.9,4,0.8,7.9,0.4,11.9
			c-0.2,1.7-0.6,3.4-0.9,5.1c-0.1,0.4-0.4,0.8-0.5,1.2c-0.3,1.2-0.7,2.4-0.7,3.6c0,2-0.6,3.6-2.5,4.5c-3.1,1.5-6.4,2.6-9.9,2.9
			c-1.4,0.1-2.8,0.3-4.1,0.6c-2.5,0.5-5.1,0.7-7.6,0.2c-1.7-0.3-3.4-0.4-5.1-0.6c-3.3-0.5-6.6-1-9.9-1.5c-0.9-0.1-1.8-0.3-2.7-0.7
			c-0.9-0.4-1.5,0-2.1,0.6c-4,3.9-8.3,7.5-11.8,11.9c-1.4,1.7-3,3.3-4.4,5c-0.4,0.5-0.6,1.1-0.8,1.7c-0.6,2.4-0.8,4.8-0.2,7.2
			c0.2,0.7,0.5,1,1.2,1c0.1,0,0.2,0,0.2,0c3.8-0.7,7.5,0.3,11.3,0.7c2.4,0.2,4.9,0.3,7.4,0.4c0.3,0,0.5,0,0.8,0.1
			c3.3,1,6.6,0.8,9.9,0.4c2-0.2,4.1-1.1,5.9-2.1c2.9-1.7,5.6-3.8,8.5-5.5c2.2-1.3,4.7-2.2,7-3.3c0.1-0.1,0.3-0.2,0.4-0.2
			c2.1-0.1,2.3-1.5,2.4-3.1c0.1-2.3,0.2-4.7,0.3-7c0.1-1.5,0.3-3.1,0.5-4.6c0.1-0.6,1.2-1.3,1.9-1.1c0.8,0.2,1.4,0.6,1.2,1.6
			c-0.6,2.1-0.4,4.3-0.5,6.4c-0.1,3.7-0.6,7.4-0.9,11.1c-0.1,1.1-0.8,1.5-1.6,1.9c-0.5,0.2-0.9,0.5-1.4,0.7c-2.2,0.8-3.3,3.1-5.4,4
			c-1.4,0.7-2.9,1.4-4.2,2.2c-2.2,1.2-4.4,2.5-6.6,3.8c-1.8,1-3.6,1.8-5.7,1.5c-1-0.1-2,0.2-3,0.1c-1-0.1-2.1-0.6-3.1-0.8
			c-1.5-0.4-3.1-0.8-4.6-1.1c-2.9-0.5-5.7,0.4-8.5,0.8c-1.2,0.2-2.5,0.2-3.8,0.3c-2.1,0.1-4.2,0.3-6.3,0.5c-0.7,0.1-1.2-0.1-1.8-0.6
			c-1.5-1.2-3.1-2.3-3.9-4.1c-0.6-1.3-1-2.7-1.2-4.1c-0.4-3.2-0.1-6.4,1.5-9.2c0.6-1.1,1.7-2.1,2.6-3.1c2.9-3.1,5.7-6.2,8.7-9.2
			c2.1-2.1,4.4-4,6.7-6.2c-0.4-0.2-0.8-0.4-1.2-0.5c-2-0.6-3.5-1.8-4.9-3.2c-0.3-0.3-0.4-0.9-0.4-1.3c0.1-1.7,0.4-3.3,0.5-5
			c0.2-2.6,0.3-5.3,0.5-7.9c0-0.4,0.4-0.7,0.6-1.1c0.2-0.5,0.6-0.9,0.7-1.4c0.5-4.3,1-8.5,1.5-12.8c0.2-1.8,0.5-3.7,0.8-5.5
			c0.7-5.7,1.5-11.4,2.1-17.1c0.2-1.7,0-3.5,0-5.2c0-1.3,0-2.7,0-4c0-0.4-0.2-0.9-0.5-1.3c-0.3-0.5-0.8-1-1.3-1.5
			c1-0.6,0.8-1.5,0.7-2.4c-0.4-2.4-0.5-4.9-1-7.3c-0.7-4-1.6-7.9-2.3-11.8c-1-5.2-1.9-10.5-2.4-15.8c-0.5-5-0.6-10-0.9-15
			c-0.3-4.4-0.4-8.9-0.8-13.3c-0.3-3.5-0.7-7-1.3-10.5c-0.8-4.4-1.8-8.8-2.6-13.3c-0.7-3.6-1.1-7.2-1.9-10.8
			c-1-4.6-2.3-9.1-3.3-13.7c-0.8-3.5-1.4-7.1-2-10.6c-0.3-1.9-0.7-3.9-0.8-5.9c-0.4-4.6-0.6-9.2-0.9-13.8c-0.2-3.1-0.4-6.1-0.4-9.2
			c0-3.9-0.1-7.8,0.2-11.6c0.4-4.6,1.2-9.1,1.8-13.6c0.2-1.7,0.1-3.5,0.2-5.2c0.1-2-0.2-4.1,1.1-5.9c1.3,0.2,1.6,0.9,1.5,2.1
			c-0.1,1.2,0.1,2.3,0.7,3.5c0.6,1.2,0.5,2.8,0.7,4.3c0,0.3,0,0.7,0.2,0.9c1.4,1.8,0.8,3.8,0.5,5.6c-0.3,1.9,0,3.7,0.7,5.5
			c2.5,6.3,5.1,12.7,7.7,19c0.2,0.4,0.3,0.9,0.4,1.4c0.2,1-0.2,1.6-1.2,1.9c-0.9,0.2-1.6,0.1-1.9-0.9c-1.6-4.7-4.5-8.6-7.4-12.5
			c-1.1-1.4-1.2-3.1-1.5-4.7c-0.1-0.3-0.1-0.7-0.1-1c-0.1,0-0.2,0-0.3,0c0,0.8-0.1,1.6-0.1,2.4c0,1.4,0.2,2.7,0.1,4.1
			c0,1.5-0.3,3-0.3,4.5c0,0.9,0.2,1.9,0.2,2.8c0.1,2.2,0.1,4.5,0.2,6.7c0.3,4.1,0.5,8.2,0.9,12.2c0.3,3.4,0.6,6.8,1.1,10.2
			c0.3,1.8,1,3.6,1.4,5.5c0.1,0.5,0.2,0.9,0.2,1.4c0.1,1.7,0.5,2.2,2.1,2.9c0.3,0.1,0.4,0.5,0.5,0.9c-0.2-0.2-0.4-0.3-0.6-0.5
			c-0.1,0-0.2,0.1-0.2,0.1c0.2,0.5,0.4,0.9,0.6,1.4c-0.1,0-0.1,0-0.2,0c0.1,0.5,0.2,1,0.4,1.4c2,3.2,4,6.3,5.9,9.5
			c1,1.7,2,3.4,3,5.1c0.2,0.4,0.4,0.9,0.6,1.3c0.2,0.7,0.4,1.4-0.6,1.8c-0.9,0.3-1.6,0.5-2.1-0.6c-0.4-0.9-1-1.6-1.5-2.5
			c0-0.1-0.1-0.2-0.1-0.2c-2.1-0.7-2.1-2.8-3-4.3c-0.2-0.4-0.5-0.7-0.8-1c-0.1,0-0.2,0.1-0.3,0.1c0.1,0.8,0.1,1.6,0.3,2.4
			c1,5.1,2,10.1,3,15.1c0.2,1.1,0.6,2.3,0.6,3.4c0,2.7,1.6,4.3,3.4,5.9c1,0.9,2.1,1.7,3.1,2.6c0.4,0.3,0.5,0.9,0.6,1.5
			c-2.5-0.8-3.8-3.2-6.1-4.7c0.1,1.5,0.2,2.7,0.2,3.5c1.2,1.1,2.1,2,3,2.9c1.2,1.1,2.5,2.3,3.8,3.3c0.6,0.5,0.8,1,0.5,1.9
			c-3.1-1.5-4.8-4.3-7.1-6.9c0.4,1.9-0.4,3.7,1.6,5c1.6,1.1,2.9,2.7,4.2,4.2c0.3,0.3,0.3,0.9,0.5,1.4c-1.6-0.1-2.1-1.4-2.9-2.2
			c-0.8-0.8-1.5-1.8-2.4-3c-0.1,0.5-0.3,0.8-0.2,1.1c0.1,0.8,0.3,1.6,0.4,2.3c0,0.2,0.1,0.4,0.3,0.5c1.5,1.3,3,2.5,4.5,3.8
			c0.4,0.3,0.5,1,0.6,1.6c-2.3-0.5-2.9-2.8-4.7-3.9C89.6,455,89.7,455.2,89.8,455.5L89.8,455.5z M225,218.7c0.1,0.2,0.1,0.4,0.2,0.6
			c0.4,0.7,0.9,1.4,1,2.2c0.1,0.6-0.2,1.6-0.6,1.9c-0.6,0.5-1.2-0.1-1.5-0.9c-0.1-0.2-0.3-0.4-0.5-0.7c0.1,1.8,0.1,3.6,1.4,5.1
			c1.3,1.5,1.3,2.3,0.2,3.6c0.3,1.7,2.2,3,1,5.1c-0.5-0.3-0.9-0.6-1.3-0.9c-0.4,2.4-0.2,3.2,1,5c0.2,0.3,0.4,0.5,0.6,0.8
			c0.4,0.9,0,1.6-1,1.7c-0.2,0-0.5,0-0.9,0c0.4,0.8,0.8,1.5,1.1,2.2c0.5,1.1,0.3,2.2-0.7,2.3c-0.8,0.1-0.9,0.6-1.1,1.2
			c-0.4,1.2,0,2.1,0.8,2.9c0.6,0.6,1,1.3,0.3,2c-0.7,0.7-1.3,0-1.8-0.5c0,0-0.1,0-0.2,0c-0.4,0.8-0.3,1.5,0.3,2.3
			c0.3,0.5,0.2,1.3,0.3,1.9c-0.4-0.1-0.8-0.3-1.2-0.4c-0.1,0-0.1,0-0.3,0c-0.4,1.4-1,2.8-0.2,4.3c0.6,1.1,1,2.4,1.4,3.6
			c0.1,0.3-0.2,0.8-0.4,1.2c-0.4-0.3-0.9-0.5-1.1-0.9c-0.4-0.7-0.7-1.5-1.1-2.6c-0.8,1.5-0.8,2.6-0.3,3.9c0.4,0.9,0.5,1.9,0.7,2.8
			c0,0.3-0.2,0.8-0.5,0.9c-0.2,0.1-0.6-0.2-0.9-0.4c-0.3-0.3-0.4-0.7-0.7-1.2c-0.5,1.3-0.9,2.5-1.3,3.6c-1.2,3-2.4,6-3.8,8.9
			c-1.3,2.7-2.4,5.5-3,8.5c-0.2,1.1,0.7,1.3,1.4,1.6c0.6,0.3,1.1,0.2,1.5-0.5c0.8-1.3,1.7-2.5,2.6-3.7c0.9-1.2,2.1-1.4,3.1-0.7
			c0.4-1.1,0.8-2.2,1.3-3.2c0.3-0.7,1.8-1.6,2.4-1.3c0.9,0.5,0.6,1.3,0.3,2c-0.7,2.2-1.4,4.5-2.2,6.7c-0.7,1.8-1.5,3.5-2.2,5.2
			c-0.5,1.2-0.3,1.5,0.9,1.8c1.3,0.4,2.7,0.6,3.8,1.3c0.9,0.5,1.3,0.6,2.1,0.1c1.2-0.8,1.5-0.7,2.3,0.5c0.2,0.4,0.5,0.8,0.7,1.1
			c0.9,1.2,1.6,1.1,2.4-0.1c2.4-3.9,4.9-7.9,7.4-11.8c0.8-1.2,1.4-2.4,1.3-4c-0.3-2.9-0.4-5.8-0.7-8.7c-0.1-1-0.4-2.3-1.1-2.9
			c-0.8-0.7-0.9-1.3-0.7-2.1c0.6-2.6,1.4-5.3,1.8-7.9c0.6-3.7,0.9-7.5,1.2-11.2c0.2-3.5,0.3-7.1,0.4-10.6c0-1,0.1-2,0.2-3
			c0.3-3.2,0.7-6.5,1.1-9.7c0.5-3.4,1.3-6.7,1.7-10.1c0.4-3.3,0.8-6.7,0.9-10c0.1-4,0-8-0.1-12c-0.2-5.6-0.4-11.1-0.6-16.6
			c-0.2-4.7-0.4-9.5-0.7-14.2c-0.1-2.2-0.4-4.4-0.6-6.6c-0.3-3-0.6-6-0.8-9c-0.2-2.9-0.4-5.9-0.5-8.8c0-0.9-0.4-1.7-0.2-2.8
			c0.4-1.6,0.1-3.4,0.1-5.1c-0.9,0.1-1.8,0.2-2.6,0.4c-2.5,0.5-5,1.1-7.5,1.5c-1.7,0.3-3.4,0.5-5.1,0.8c-1.2,0.2-2.5,0.4-3.7,0.6
			c-2.2,0.3-4.4,0.6-6.6,1c-0.4,0.1-0.8,0.6-0.9,1c-0.3,1.5-0.4,3-0.6,4.4c0,0.2,0,0.5,0.1,0.6c1.1,0.8,1.1,2,1.1,3.2c0,1,0,2,0,3.1
			c0.9,0.1,0.7-0.5,0.8-1c0.2-0.6,0.7-1.3,1.1-1.4c0.8-0.2,0.9,0.7,0.9,1.3c0,0.4,0,0.7,0,1.1c-0.2,1.4-0.8,2-2.3,2.2
			c-0.7,0.1-1,0.5-1,1.2c0,1.8-0.1,3.5-0.1,5.3c0,0.8,0.4,1.1,1.1,0.9c0.3-0.1,0.7-0.3,0.9-0.2c0.9,0.2,2.4,2.3,2.2,3.1
			c-0.4,1.3,0.3,2,0.9,2.9c0.2,0.2,0.4,0.5,0.4,0.8c0,0.5-0.1,1-0.4,1.3c-0.2,0.2-0.9,0.3-1.2,0.1c-0.7-0.4-1.4-1-2.1-1.6
			c-0.6-0.6-1.2-1.2-1.7-1.8c-0.1,0.1-0.2,0.1-0.3,0.2c0,0.9,0,1.8,0,3c0.4-0.3,0.7-0.5,1-0.7c0.8,0.8,1.7,1.4,2.3,2.2
			c1.2,1.6,2.3,3.3,3.4,5.1c0.3,0.6,1,1.3,0.1,2c-0.8,0.6-1.5,0.5-2.1-0.3c-0.4-0.4-0.7-0.9-1.1-1.3c-0.1,0.1-0.2,0.1-0.3,0.2
			c0,0.1,0,0.3,0.1,0.4c0.9,1.4,1.9,2.8,2.8,4.1c0.6,0.8,1.2,1.5,1.7,2.4c0.4,0.7,0.4,1.5-0.3,1.9c-0.7,0.4-1.4,0.2-1.8-0.6
			c-0.2-0.2-0.4-0.4-0.6-0.7c0,0.5,0.2,0.8,0.4,1.1c1.3,1.9,2.5,3.8,3.8,5.7c0.5,0.8,0.4,1.5-0.1,2.1c-0.7,0.7-1.3,0.2-1.8-0.4
			c-1.1-1.7-2.2-3.3-3.4-5c-0.7-1-1.4-2-2.2-2.9c-0.1,0.1-0.2,0.2-0.3,0.2c0.1,0.8-0.3,1.8,1.1,2c0.1,0,0.3,0.2,0.3,0.4
			c1,1.8,1.9,3.6,3,5.3c0.9,1.5,2,2.9,3,4.3c0.5,0.7,0.3,1.4-0.2,1.8c-0.5,0.4-1.2,0.4-1.7-0.2c-0.4-0.5-0.7-0.9-1.1-1.4
			c-0.7-0.9-1.4-1.8-2.1-2.7c-0.1,0.1-0.3,0.1-0.4,0.2c0.4,1.2,0.5,2.6,1.2,3.7c1.6,2.5,3.5,4.9,5.2,7.4c0.3,0.5,0.6,1.1,0.5,1.6
			c-0.1,0.5-0.7,0.8-1.1,1.3c0.4,0.7,0.8,1.5,1.3,2.3c0.6,1.2,0.7,2.2,0,2.5c-1.1,0.5-1.6-0.4-2.1-1.1c-0.7-0.9-1.2-1.9-1.9-2.8
			c0.2,1.8,0.1,3.6,1.5,5.1c1,1.1,1.9,2.4,2.7,3.7C226.6,216.8,226.4,217.7,225,218.7z M209,580.8c-0.7-0.1-1.6-0.5-2.5-0.3
			c-1.3,0.2-2.6,0.8-3.9,1c-3.6,0.6-7.2,1.1-10.8,1.7c-0.2,0-0.4,0-0.6,0c-1.2-0.1-2.5-0.3-3.6-0.1c-2.8,0.3-5.6,0.9-8.4,1.2
			c-2.1,0.2-4.2,0.5-6-1c-0.3-0.2-0.7-0.2-1.1-0.3c-0.4,3.6-0.8,7-1.3,10.4c-0.2,1.7-0.2,3.2,1.1,4.4c0.6,0.6,1.4,1.1,2.1,1.7
			c0.4,0.3,0.9,0.5,1.2,0.9c0.6,0.8,2.4,1,2.9,0.3c0.2,0.3,0.3,0.7,0.6,0.8c1,0.5,2,0.8,3,1.2c1,0.4,2.1,0.7,2.9,1.3
			c3.3,2.4,7,3.5,11,3.7c0.4,0,0.8-0.2,1.3-0.4c0,0.1,0.2,0.3,0.4,0.8c0.1-0.7,0.2-1.2,0.3-1.8c0.6,1,1.2,0.9,1.8,0.5
			c0.2-0.1,0.5-0.1,0.7-0.1c-0.1,0.2-0.2,0.6-0.4,0.7c-0.5,0.2-1.1,0.3-1.7,0.4c1.9,0.6,4.5,0.7,5-1.1c0.1,0.1,0.2,0.1,0.2,0.2
			c0.2-0.2,0.3-0.4,0.5-0.5c0.1,1.5,0.9,1.9,2.3,1.2c0.1-0.1,0.3-0.2,0.4-0.2c1.5-0.1,3-0.2,4.5-0.4c2.8-0.3,5.5-0.7,8.3-0.4
			c1.5,0.2,3.1,0.4,4.7,0.5c1.8,0,2.6-0.8,2.9-2.6c0.2-1.1,0.5-2.2,0.8-3.2c0.8-2.2-0.2-4.5-1.6-5.7c-1.7-1.4-3.7-2.3-5.5-3.6
			c-1.3-1-3.3-1.3-3.6-3.7c-0.7,1.1-1.4,0.8-2.1,0.4c-2-1.3-4.1-2.6-6.1-3.9c-0.2-0.1-0.4-0.5-0.3-0.8
			C208.7,582.9,208.9,582,209,580.8z M82.7,169.1c-1.6,5.8-1.7,11.8-2.5,17.6c-0.8,5.9-1.6,11.7-2.3,17.6c0.1,0,0.2,0,0.4,0.1
			c0.1-0.3,0.3-0.5,0.4-0.8c1.4-3.5,3-7,4.3-10.6c1.2-3.3,2-6.7,3-10c0.4-1.2,0.5-2.2-0.1-3.4c-0.6-1.1-1-2.3-1.3-3.5
			C83.9,173.7,83.3,171.4,82.7,169.1z M106.7,614.1c0.6,0.2,1.2,0.5,1.9,0.5c2.5-0.1,5.1-0.1,7.3-1.7c1.9-1.4,4.2-2.4,6.3-3.6
			c1-0.5,2-1,2.9-1.7c2-1.4,3.9-3,5.9-4.4c0.4-0.3,0.9-0.6,1.3-0.9c0-0.1-0.1-0.2-0.1-0.4c-0.6,0.1-1.2,0.1-1.7,0.4
			c-2.4,1-4.8,2.1-7.1,3.2c-0.2,0.1-0.3,0.2-0.5,0.3c-2.9,1.9-5.9,3.9-8.8,5.8c-0.2,0.1-0.4,0.2-0.6,0.3
			C111.1,612.5,108.9,613.3,106.7,614.1z M133.9,268.5c0.1,0,0.2-0.1,0.3-0.1c0-0.1-0.1-0.3-0.1-0.4c0-0.4,0-0.8,0.1-1.2
			c0.3,0.2,0.7,0.4,1,0.7c0.8,1,1.4,2.2,2.3,3.2c1.2,1.4,2.5,2.7,3.7,4.1c0.8-0.9,0.6-2.2-0.3-2.8c-1.8-1.1-2.4-2.9-3.1-4.7
			c-0.1-0.1,0.1-0.3,0.1-0.5c0.1-0.1,0.2-0.1,0.3-0.2c1.1,1.4,2.2,2.8,3.4,4.2c0.2-1.8-2.1-2.8-0.9-4.8c-3-0.2-5.8-0.4-8.6-0.6
			c-0.1,0.1-0.1,0.2-0.2,0.3C132.6,266.6,133.2,267.6,133.9,268.5z M131,541.4c1.6,2.6,3,4.9,4.6,7.4c0.7-1.8-0.7-12.4-1.7-14
			c-0.8,0.2-1.5,0.3-2.5,0.5c0.4,0.5,0.6,0.9,0.9,1.2c0.5,0.6,1.2,1.2,1.6,1.9c0.3,0.6,0.5,1.4,0.3,2c-0.1,0.4-1,0.6-1.5,0.8
			C132.2,541.4,131.7,541.4,131,541.4z M171.5,601.3c0,1.5,1.1,2.7,2.5,3c0.9,0.2,1.9,0.4,2.8,0.8c2.6,1.2,5.3,2.5,7.9,3.7
			c2,0.9,4.1,1.7,6.5,1.5c-0.2-0.1-0.4-0.1-0.6-0.2c-2.2-1-4.5-1.9-6.7-3c-2.3-1-4.4-2.3-6.8-3c-1.3-0.4-2.6-0.8-3.7-1.6
			C172.8,602.1,172.2,601.7,171.5,601.3z M160.3,397.4c-0.2,0.1-0.4,0.2-0.5,0.3c0.4,2.8,0.8,5.6,1.2,8.5c0,0.2,0.4,0.4,0.6,0.4
			c0.8-0.2,1.3,0.2,1.8,0.8c0.8,0.9,1.7,1.7,2.5,2.5c0.1-0.1,0.1-0.1,0.2-0.2c-0.2-0.3-0.3-0.7-0.5-1c-1.5-2.3-3.1-4.6-4.6-6.9
			c-0.2-0.3-0.3-0.7-0.2-1c0.1-0.2,0.6-0.3,0.8-0.3c0.5,0,0.9,0.2,1.7,0.5C162.2,399.6,161.3,398.5,160.3,397.4z M90.5,613.1
			c-3.6-0.8-7.1-1.6-11-1.1c1,1,1.8,1.7,3,1.6c2.1-0.1,4.2-0.1,6.3-0.2C89.3,613.3,89.9,613.2,90.5,613.1z M221.1,610
			c-4.6-1.1-9.2-0.1-13.7,0.7C212,611,216.6,611,221.1,610z M245.3,134.5c1.6-1.2,3.1-2.3,4.5-3.4c-0.1-0.1-0.1-0.2-0.2-0.3
			c-0.2,0-0.5,0-0.7,0c-0.4,0-0.7,0.1-1.1,0.2c-3.4,0.8-2.6,0.2-2.7,3.1C245.1,134.1,245.2,134.2,245.3,134.5z M94.2,545.9
			c-0.9,2.2-0.9,5.3,0,6.3C95.5,550.2,95.5,547.3,94.2,545.9z M165.4,434.8c-0.1-1.4-0.4-2.6-0.3-3.8c0-1-0.3-1.4-1.2-1.8
			c0,1,0,1.9,0.1,2.8c0.1,0.9,0.3,1.8,0.5,2.7C164.7,434.6,165,434.7,165.4,434.8z M85.1,203.5c0.1-0.8,1.5-1.2,0.7-2.3
			c-0.5-0.6-0.7-1.5-1.1-2.2C83.4,200.7,84.8,202,85.1,203.5z M217.4,172.3c-0.8-1.1-1.4-1.9-2-2.7c-0.1,0.1-0.3,0.1-0.4,0.2
			c0.1,0.8,0,1.7,0.3,2.5C215.4,172.5,216.5,172.3,217.4,172.3z M215.5,175.2c-0.3,2.9-0.3,3,2.3,2.7
			C217,177,216.2,176.1,215.5,175.2z M97.6,534c-0.5-1.1-0.9-2-1.3-3c-0.1,0-0.2,0-0.3,0c-0.1,0.6-0.2,1.3-0.2,1.9
			C96.3,533.3,96.8,533.6,97.6,534z M161.8,395.7c-0.6-0.8-1.3-1.7-2-2.6C159.5,394.4,160.1,395.2,161.8,395.7z M87.4,205.6
			c-0.1,0-0.2,0-0.3,0.1c0.3,1.3,0.7,2.5,1,3.8c0.1,0,0.3-0.1,0.4-0.1C89,207.9,87.6,206.9,87.4,205.6z M154.6,340.8
			c-0.1,0-0.2,0.1-0.3,0.1c0.1,0.7,0.1,1.3,0.2,2c0,0.2,0.3,0.3,0.5,0.4c0.1-0.2,0.3-0.4,0.3-0.6C155.1,342,154.8,341.4,154.6,340.8
			z M147.1,44.9c0.3,1,1,0.9,1.6,0.8c0-0.1,0.1-0.2,0.1-0.4C148.2,45.2,147.6,45.1,147.1,44.9z M163.1,410.1
			c-0.6-0.6-0.9-0.9-1.3-1.3C161.6,409.7,161.6,410.5,163.1,410.1z M176.2,502.2c0.1,0.1,0.3,0.2,0.4,0.3c0.4-0.6,0.9-1.2,1.3-1.9
			c-0.1-0.1-0.2-0.1-0.3-0.2C177.2,501,176.7,501.6,176.2,502.2z"/>
		<path fill="#7A7A7A" d="M216.9,82.9c0.2-1,0.5-1.9,0.6-2.9c0.2-1.9,0.2-3.7,0.5-5.6c0.3-2.2,1.8-3.8,3.6-5c0.2-0.1,0.9,0.1,1,0.4
			c0.1,0.5,0.2,1.1,0,1.5c-0.2,0.5-0.7,0.8-1.2,1.2c-1.3,1.2-1.2,2.9-1.5,4.4c-0.5,2.2-0.5,4.4-0.5,6.7c0,1.4,0.4,2.9,0.8,4.2
			c0.4,1.5,0.4,1.8-0.9,2.5c-0.3,0.2-0.7,0.5-0.8,0.7c-0.1,0.9-0.6,1.3-1.5,1.5c-1.1,0.3-1.3,0.2-1.3-0.9c-0.1-2.4-0.2-4.8-1.3-7.1
			c-0.4-0.8,0-1.5,0.6-1.9c0.4-0.3,1.1-0.1,1.7-0.2C216.7,82.7,216.8,82.8,216.9,82.9z"/>
		<path fill="#7A7A7A" d="M106.2,571.5c0.3-0.1,0.7-0.2,1-0.2c2.6,0.3,5.2,0.6,7.9,0.8c0.3,0,0.6-0.1,0.9-0.1
			c3.3-0.9,6.6-0.6,9.9,0.3c0.5,0.1,0.9,0.4,1.3,0.7c0.3,0.2,0.6,0.8,0.5,1c-0.2,0.4-0.7,0.9-1.1,0.9c-0.5,0-1.2-0.2-1.7-0.5
			c-1.7-0.9-3.6-0.8-5.5-0.8c-2,0-3.9,0.3-5.9-0.1c-1.7-0.3-3.5-0.3-5.2-0.2c-1.1,0-1.9-0.5-2.6-1.2c-0.3-0.3-0.6-0.7-0.8-1
			c-1.4,1-2.8,1.2-4.2,0.7c-1.5-0.6-3-1.4-4.3-2.3c-0.4-0.3-0.5-1.1-0.8-1.7c0.1-0.1,0.2-0.2,0.3-0.3c0.4,0.1,0.8,0.2,1.2,0.4
			c1.6,0.7,3.2,1.6,4.9,2.2c0.8,0.3,1.8,0.2,2.7,0.2C105.8,570.4,106.3,570.7,106.2,571.5z"/>
		<path fill="#7A7A7A" d="M133.4,274.8c-0.2-0.6-0.5-1.2-0.7-1.9c1.8,0.1,5.7,5,5.6,7.2c-1-1-1.9-1.8-2.8-2.6
			c-0.9,0.9-1.7,0.6-2.4-0.2c-0.6-0.6-1.2-1.2-2.1-2c0,0.6,0,0.9,0,1.1c-0.1,0.3-0.2,0.9-0.4,1c-0.4,0.1-0.9-0.1-1.2-0.3
			c-0.5-0.4-0.8-1-1.2-1.2c-0.5,0-1.3,0.2-1.5-0.1c-0.3-0.5-0.3-1.2-0.4-1.8c0.6,0,1.2,0,1.7-0.1c0.2-0.7,0.6-1.5,0.9-2.3
			c0.1-0.2-0.1-0.4-0.1-0.7c0-0.3,0.1-0.6,0.2-0.9c0.3,0.2,0.7,0.3,0.9,0.5c0.9,1.2,1.8,2.4,2.7,3.7c0.2,0.3,0.5,0.5,0.7,0.8
			C133.3,274.9,133.4,274.8,133.4,274.8z"/>
		<path fill="#7A7A7A" d="M93.1,463.3c0.6,0.5,1.3,0.9,1.9,1.5c1.6,1.7,3.3,3.4,4.8,5.1c0.3,0.3,0.2,0.9,0.3,1.4
			c-0.4-0.1-0.9-0.1-1.3-0.2c-0.2-0.1-0.4-0.3-0.6-0.5c-1.7-2.1-3.4-4.3-5.1-6.4c-0.1-0.1-0.2-0.3-0.3-0.5
			C92.9,463.5,93,463.4,93.1,463.3z"/>
		<path fill="#7A7A7A" d="M208.2,503.6c-0.9,0.7-1.5,0.9-2.2,0.2c-1.2-1.3-2.4-2.6-3.6-3.9c-0.3-0.3-0.2-0.9-0.3-1.3
			c0.1,0,0.2-0.1,0.3-0.1C204.4,500.1,206.3,501.8,208.2,503.6z"/>
		<path fill="#7A7A7A" d="M89.8,455.5c-0.2,1,0.4,1.5,1.1,2.1c1.5,1.3,2.8,2.8,4.2,4.3c0.3,0.4,0.4,1,0.6,1.6
			c-0.1,0.1-0.2,0.2-0.3,0.2c-0.5-0.5-1.1-1-1.6-1.6c-0.9-1-1.7-2-2.6-3.1c-0.1-0.1-0.2-0.2-0.3-0.3
			C89.3,457.9,89.1,457.3,89.8,455.5C89.8,455.5,89.8,455.5,89.8,455.5z"/>
		<path fill="#7A7A7A" d="M205.5,496.6c-0.4-0.3-0.9-0.4-1.2-0.8c-0.8-1-1.6-2-2.4-3.1c-0.2-0.3-0.1-0.9-0.1-1.3
			c0.4,0.2,0.9,0.3,1.2,0.6c1.1,1,2.2,1.9,3.3,3c0.3,0.2,0.4,0.7,0.6,1C206.5,496.2,206.1,496.4,205.5,496.6z"/>
		<path fill="#7A7A7A" d="M204.1,532.4c0.2,0.1,0.4,0.1,0.5,0.2c1.2,1.2,2.4,2.4,3.6,3.7c0.2,0.2,0.2,0.6,0.3,1
			c-0.4,0.1-0.9,0.4-1.2,0.2C205.5,536.9,204,534.5,204.1,532.4z"/>
		<path fill="#7A7A7A" d="M212,357.2c0.2,0.1,0.4,0.2,0.6,0.4c0.6,0.5,1.3,1.1,1.8,1.7c0.3,0.4,0.6,1,0.5,1.4
			c-0.1,0.3-0.7,0.7-1.1,0.7c-0.5,0-1.4-0.2-1.5-0.6c-0.4-1.1-0.4-2.3-0.6-3.5C211.8,357.3,211.9,357.3,212,357.2z"/>
		<path fill="#7A7A7A" d="M202.3,483.8c0.4,0.3,0.8,0.5,1.2,0.8c1.1,0.8,2.1,1.6,3.1,2.5c0.3,0.2,0.6,0.7,0.5,0.9
			c-0.1,0.3-0.6,0.6-0.9,0.6c-0.4,0-0.9-0.2-1.1-0.4c-1.1-1.3-2.1-2.7-3.1-4C202.1,484.1,202.2,484,202.3,483.8z"/>
		<path fill="#7A7A7A" d="M206.2,431.3c-0.5-0.4-1-0.8-1.4-1.4c-0.4-0.6-0.7-1.3-1-2c-0.1-0.2,0-0.5,0-0.8c0.3,0,0.6,0,0.8,0.1
			c0.9,0.9,1.8,1.7,2.7,2.7c0.2,0.2,0.2,0.7,0.1,0.8C207.1,431,206.7,431,206.2,431.3z"/>
		<path fill="#7A7A7A" d="M215.9,335.8c0.4,0.4,0.9,0.8,1.2,1.3c0.5,0.7,0.5,1.5,0,2.1c-0.4,0.3-1,0.5-1.6,0.5c-0.2,0-0.5-0.7-0.5-1
			C215.1,337.6,214.8,336.5,215.9,335.8z"/>
		<path fill="#7A7A7A" d="M208,410.1c0.9,0.7,1.7,1.3,2.5,2c0.3,0.3,0.3,0.8,0.5,1.3c-0.4,0-1,0.2-1.3,0c-0.7-0.5-1.5-1-2-1.7
			C207.2,411.2,207,410.5,208,410.1z"/>
		<path fill="#7A7A7A" d="M209.7,421.8c-2.5,0.6-3.3,0.3-3.8-1.4c-0.1-0.4,0.2-0.8,0.2-1.2c0.3,0.2,0.7,0.3,1,0.5
			c0.4,0.3,0.8,0.6,1.2,0.9C208.8,420.9,209.2,421.3,209.7,421.8z"/>
		<path fill="#7A7A7A" d="M88.5,433.3c0.4,0.2,0.9,0.4,1.3,0.7c0.7,0.6,1.4,1.2,2,1.9c0.2,0.3,0.2,0.9,0.3,1.3c-0.4-0.1-1,0-1.3-0.3
			c-0.9-1.1-1.7-2.2-2.5-3.4C88.3,433.6,88.4,433.5,88.5,433.3z"/>
		<path fill="#7A7A7A" d="M204.3,476.9c0.9,0.6,1.8,1.1,2.7,1.8c0.3,0.2,0.4,0.6,0.6,1c-0.4,0.2-0.8,0.6-1.2,0.5
			C205.1,480.1,204,478.1,204.3,476.9z"/>
		<path fill="#7A7A7A" d="M220.6,308.9c0.1,0.2,0.6,0.5,0.6,0.9c0,1-1.1,2.3-1.8,2c-0.3-0.1-0.8-0.6-0.8-1
			C218.5,309.9,219.5,308.8,220.6,308.9z"/>
		<path fill="#7A7A7A" d="M205.2,539.8c1.1,1.1,2.1,2.1,3,3c0.1,0.1,0.1,0.7-0.1,0.8c-0.3,0.2-0.7,0.3-1,0.1
			C206.1,543.3,205,541.3,205.2,539.8z"/>
		<path fill="#7A7A7A" d="M207.8,398.9c1.1,0,2.6,0.9,2.9,1.9c0.1,0.3-0.3,0.9-0.5,0.9C209.1,401.9,207.6,400,207.8,398.9z"/>
		<path fill="#7A7A7A" d="M210,394.2c-1.3,0-2.3-1.2-2.1-2.2c0.1-0.2,0.3-0.5,0.5-0.6c0.2-0.1,0.4,0.1,0.6,0.3
			c0.4,0.2,0.7,0.5,1,0.8c0.3,0.3,0.8,0.8,0.7,1.1C210.7,393.8,210.1,394,210,394.2z"/>
		<path fill="#7A7A7A" d="M209.6,382.2c0.1-0.2,0.2-0.6,0.5-0.7c0.2-0.1,0.7,0.1,0.9,0.3c0.4,0.6,0.8,1.2,1.1,1.8
			c0.1,0.2-0.3,0.8-0.6,1c-0.5,0.3-1.1,0.2-1.4-0.4C209.8,383.6,209.7,383,209.6,382.2z"/>
		<path fill="#7A7A7A" d="M217,329.4c-0.6,0.1-1-0.2-1-0.9c0-0.9,1-2.3,1.4-2.1c0.4,0.2,0.8,0.8,0.9,1.3
			C218.5,328.8,218,329.4,217,329.4z"/>
		<path fill="#7A7A7A" d="M204.1,458.8c0.3,0.1,0.7,0.2,1,0.4c0.4,0.2,0.9,0.5,1.3,0.9c0.3,0.3,0.5,0.7,0.6,1.1
			c0,0.2-0.4,0.6-0.6,0.6c-0.4,0-1,0-1.2-0.3c-0.6-0.7-1-1.5-1.4-2.3C204,459,204,458.9,204.1,458.8z"/>
		<path fill="#7A7A7A" d="M212.6,369.2c-0.2-0.2-0.9-0.5-1-0.9c-0.2-0.7,0.5-1,1.1-1c0.1,0,0.1,0,0.2,0c0.7-0.2,1.5-0.4,1.8,0.6
			C214.9,368.6,214.1,369.2,212.6,369.2z"/>
		<path fill="#7A7A7A" d="M218.3,317.2c0.9,1,1.2,1.9,0.6,2.8c-0.2,0.3-1,0.7-1.2,0.6c-0.4-0.3-0.8-0.9-0.7-1.3
			C217.3,318.5,217.9,317.9,218.3,317.2z"/>
		<path fill="#7A7A7A" d="M210.8,373.7c0.2,0.3,0.6,0.5,0.8,0.9c0.3,0.6,0.4,1.2,0.5,1.9c0,0.1-0.3,0.4-0.4,0.3
			c-0.5-0.2-1.2-0.3-1.3-0.7c-0.3-0.7-1-1.4-0.2-2.2C210.3,373.8,210.5,373.8,210.8,373.7z"/>
		<path fill="#7A7A7A" d="M87.4,430.5c1.8-0.2,3.3,1.2,3,2.3c-0.2,0.8-0.7,0.8-1.1,0.3C88.6,432.3,88,431.4,87.4,430.5z"/>
		<path fill="#7A7A7A" d="M210.4,407.9c-1.2-0.2-2.4-1.8-2.2-2.8c0.1-0.3,0.7-0.6,0.9-0.6C209.6,404.8,210.5,407.3,210.4,407.9z"/>
		<path fill="#7A7A7A" d="M204.5,439.8c-0.9,0-1.6-0.7-1.4-1.4c0.1-0.3,0.8-0.3,1.2-0.4c0.4-0.1,0.8-0.1,1.1,0.1
			c0.3,0.2,0.5,0.6,0.8,1c-0.3,0.2-0.5,0.5-0.8,0.6C205.1,439.8,204.7,439.8,204.5,439.8z"/>
		<path fill="#7A7A7A" d="M214.9,344.2c0.7,0.2,1.3,0.2,1.4,0.5c0.4,0.7,0.6,1.5,0.8,2.2c0,0.1-0.5,0.5-0.9,0.5
			c-0.2,0-0.5-0.3-0.6-0.6C215.4,346.2,215.2,345.4,214.9,344.2z"/>
		<path fill="#7A7A7A" d="M205.2,507.1c0.8,0.7,1.5,1.3,2.1,1.9c0.1,0.1-0.2,0.6-0.4,0.7c-0.3,0.1-0.9,0.2-1,0
			c-0.5-0.5-0.9-1.2-1.2-1.8C204.7,507.8,205,507.5,205.2,507.1z"/>
		<path fill="#7A7A7A" d="M205.7,444.8c0.6,0.4,0.9,0.7,1.3,1c-0.4,0.4-0.9,1-1.3,1c-0.3,0-0.8-0.7-1.2-1.1
			C204.9,445.4,205.2,445.1,205.7,444.8z"/>
		<path fill="#7A7A7A" d="M203.4,453.6c0.3-0.2,0.7-0.6,0.8-0.6c0.4,0.2,0.8,0.6,1.1,0.9c0.1,0.1-0.3,0.7-0.4,0.6
			c-0.5-0.1-1-0.4-1.5-0.6C203.4,453.9,203.4,453.7,203.4,453.6z"/>
		<path fill="#7A7A7A" d="M206,468.5c0.5,0.5,0.9,1,1.3,1.4c-0.4,0.1-0.9,0.3-1.3,0.2C205.3,469.8,205.4,469.3,206,468.5z"/>
		<path fill="#7A7A7A" d="M53.7,174.7c-0.3-0.5-0.7-1.1-1.1-1.7c1.5-0.4,1.7-0.1,1.4,1.5C53.9,174.6,53.8,174.6,53.7,174.7z"/>
		<path fill="#7A7A7A" d="M215.8,154.7c0.8,0,1.6,0,2.3,0c1,0,1.3,0.7,1.2,1.5c0,0.7-0.4,1.3-1.3,1.3c-0.3,0-0.7,0-1,0
			c-1.2,0-1.8-0.8-1.5-1.8C215.7,155.3,215.8,154.9,215.8,154.7z"/>
		<path fill="#7A7A7A" d="M194.5,605.9c0.7,0.3,1.4,0.5,2.1,0.8C195.7,607.2,194.5,606.8,194.5,605.9z"/>
	</g>
</g>
</svg>
