<?xml version="1.0" encoding="utf-8"?>
<!-- Generator: Adobe Illustrator 17.1.0, SVG Export Plug-In . SVG Version: 6.00 Build 0)  -->
<!DOCTYPE svg PUBLIC "-//W3C//DTD SVG 1.1//EN" "http://www.w3.org/Graphics/SVG/1.1/DTD/svg11.dtd">
<svg version="1.1" id="Layer_1" xmlns="http://www.w3.org/2000/svg" xmlns:xlink="http://www.w3.org/1999/xlink" x="0px" y="0px"
	 viewBox="0 0 396 100" enable-background="new 0 0 396 100" xml:space="preserve">
<g>
	<path fill="none" stroke="#7D5E99" stroke-width="4" stroke-linecap="round" stroke-linejoin="round" stroke-miterlimit="10" d="
		M215.3,86V14.8c0,0,15.5-4.6,14.9,23.7c-0.4,0.3,0.7,17.3-12.4,15.9"/>
	
		<path fill="none" stroke="#7D5E99" stroke-width="3.7478" stroke-linecap="round" stroke-linejoin="round" stroke-miterlimit="10" d="
		M28.7,49.8c0,19.9-4.9,34.3-11,34.3s-11-14.4-11-34.3s4.9-34.3,11-34.3S28.7,30,28.7,49.8z"/>
	
		<path fill="none" stroke="#7D5E99" stroke-width="3.7478" stroke-linecap="round" stroke-linejoin="round" stroke-miterlimit="10" d="
		M150.2,49.8c0,19.9-4.9,34.3-11,34.3s-11-14.4-11-34.3s4.9-34.3,11-34.3S150.2,30,150.2,49.8z"/>
	
		<path fill="none" stroke="#7D5E99" stroke-width="3.7478" stroke-linecap="round" stroke-linejoin="round" stroke-miterlimit="10" d="
		M269.5,49.8c0,19.9-4.9,34.3-11,34.3s-11-14.4-11-34.3s4.9-34.3,11-34.3S269.5,30,269.5,49.8z"/>
	<g>
		
			<line fill="none" stroke="#7D5E99" stroke-width="4" stroke-linecap="round" stroke-linejoin="round" stroke-miterlimit="10" x1="83.3" y1="16" x2="83.3" y2="85"/>
		
			<line fill="none" stroke="#7D5E99" stroke-width="4" stroke-linecap="round" stroke-linejoin="round" stroke-miterlimit="10" x1="74.3" y1="15" x2="93.3" y2="15"/>
	</g>
	<g>
		
			<line fill="none" stroke="#7D5E99" stroke-width="4" stroke-linecap="round" stroke-linejoin="round" stroke-miterlimit="10" x1="379.3" y1="16" x2="379.3" y2="85"/>
		
			<line fill="none" stroke="#7D5E99" stroke-width="4" stroke-linecap="round" stroke-linejoin="round" stroke-miterlimit="10" x1="370.3" y1="15" x2="389.3" y2="15"/>
	</g>
	<g>
		
			<line fill="none" stroke="#7D5E99" stroke-width="4" stroke-linecap="round" stroke-linejoin="round" stroke-miterlimit="10" x1="164.3" y1="16" x2="164.3" y2="85"/>
		
			<line fill="none" stroke="#7D5E99" stroke-width="4" stroke-linecap="round" stroke-linejoin="round" stroke-miterlimit="10" x1="164.3" y1="15" x2="179.3" y2="15"/>
		
			<line fill="none" stroke="#7D5E99" stroke-width="4" stroke-linecap="round" stroke-linejoin="round" stroke-miterlimit="10" x1="164.3" y1="37" x2="179.3" y2="37"/>
	</g>
	<g>
		
			<polyline fill="none" stroke="#7D5E99" stroke-width="4" stroke-linecap="round" stroke-linejoin="round" stroke-miterlimit="10" points="
			358.3,15 345.3,15 345.3,84 358.3,84 		"/>
		
			<line fill="none" stroke="#7D5E99" stroke-width="4" stroke-linecap="round" stroke-linejoin="round" stroke-miterlimit="10" x1="347.3" y1="50" x2="356.3" y2="50"/>
	</g>
	
		<path fill="none" stroke="#7D5E99" stroke-width="3.7478" stroke-linecap="round" stroke-linejoin="round" stroke-miterlimit="10" d="
		M301.7,28.8c0,0-0.4-15.8-12-13.9c-12.4,2-11.7,64.5-0.4,69.1c13.4,5.5,14.4-13.2,14.2-12.5"/>
	
		<path fill="none" stroke="#7D5E99" stroke-width="3.7478" stroke-linecap="round" stroke-linejoin="round" stroke-miterlimit="10" d="
		M40.6,14.4c0,0-4.2,72,9.9,71.1c14.1-0.8,11.9-71.4,11.9-71.4"/>
	<g>
		
			<line fill="none" stroke="#7D5E99" stroke-width="4" stroke-linecap="round" stroke-linejoin="round" stroke-miterlimit="10" x1="315.3" y1="16" x2="315.3" y2="85"/>
		
			<line fill="none" stroke="#7D5E99" stroke-width="3.9389" stroke-linecap="round" stroke-linejoin="round" stroke-miterlimit="10" x1="316.1" y1="48.4" x2="334.1" y2="15.8"/>
		
			<line fill="none" stroke="#7D5E99" stroke-width="3.9389" stroke-linecap="round" stroke-linejoin="round" stroke-miterlimit="10" x1="334.9" y1="84.4" x2="316.1" y2="45.6"/>
	</g>
</g>
</svg>
