<?xml version="1.0" encoding="utf-8"?>
<!-- Generator: Adobe Illustrator 17.1.0, SVG Export Plug-In . SVG Version: 6.00 Build 0)  -->
<!DOCTYPE svg PUBLIC "-//W3C//DTD SVG 1.1//EN" "http://www.w3.org/Graphics/SVG/1.1/DTD/svg11.dtd">
<svg version="1.1" id="Layer_1" xmlns="http://www.w3.org/2000/svg" xmlns:xlink="http://www.w3.org/1999/xlink" x="0px" y="0px"
	 viewBox="0 0 396 100" enable-background="new 0 0 396 100" xml:space="preserve">
<g>
	<path fill="none" stroke="#7D5E99" stroke-width="4" stroke-linecap="round" stroke-linejoin="round" stroke-miterlimit="10" d="
		M5,87V13.4c0,0,16.7-4.8,16.2,24.6c-0.4,0.3,0.3,17.9-13.2,16.4"/>
	
		<path fill="none" stroke="#7D5E99" stroke-width="3.8837" stroke-linecap="round" stroke-linejoin="round" stroke-miterlimit="10" d="
		M56.1,49.7c0,20.6-5.1,35.5-11.4,35.5S33.3,70.3,33.3,49.7s5.1-35.5,11.4-35.5S56.1,29.1,56.1,49.7z"/>
	
		<path fill="none" stroke="#7D5E99" stroke-width="3.8837" stroke-linecap="round" stroke-linejoin="round" stroke-miterlimit="10" d="
		M247.3,49.7c0,20.6-5.1,35.5-11.4,35.5c-6.3,0-11.4-14.9-11.4-35.5s5.1-35.5,11.4-35.5C242.2,14.2,247.3,29.1,247.3,49.7z"/>
	<g>
		
			<polyline fill="none" stroke="#7D5E99" stroke-width="3.8837" stroke-linecap="round" stroke-linejoin="round" stroke-miterlimit="10" points="
			154.6,13.8 167.4,35.5 178.9,14.4 		"/>
		
			<line fill="none" stroke="#7D5E99" stroke-width="4" stroke-linecap="round" stroke-linejoin="round" stroke-miterlimit="10" x1="166" y1="35" x2="166" y2="86"/>
	</g>
	
		<line fill="none" stroke="#7D5E99" stroke-width="4" stroke-linecap="round" stroke-linejoin="round" stroke-miterlimit="10" x1="107" y1="14" x2="107" y2="86"/>
	<path fill="none" stroke="#7D5E99" stroke-width="4" stroke-linecap="round" stroke-linejoin="round" stroke-miterlimit="10" d="
		M296,86.2V13.3c0,0,16.3-2.3,19.2,23.3C318.2,62.3,316,86.2,296,86.2z"/>
	<g>
		
			<polyline fill="none" stroke="#7D5E99" stroke-width="4" stroke-linecap="round" stroke-linejoin="round" stroke-miterlimit="10" points="
			345,13 331,13 331,86 345,86 		"/>
		
			<line fill="none" stroke="#7D5E99" stroke-width="4" stroke-linecap="round" stroke-linejoin="round" stroke-miterlimit="10" x1="333" y1="49" x2="342" y2="49"/>
	</g>
	
		<path fill="none" stroke="#7D5E99" stroke-width="3.8837" stroke-linecap="round" stroke-linejoin="round" stroke-miterlimit="10" d="
		M144.3,27.9c0,0-0.4-16.4-12.5-14.4c-12.9,2.1-12.1,66.8-0.4,71.6c13.9,5.7,15-13.7,14.7-13"/>
	
		<polyline fill="none" stroke="#7D5E99" stroke-width="4" stroke-linecap="round" stroke-linejoin="round" stroke-miterlimit="10" points="
		73,14 73,86 90,86 	"/>
	
		<polyline fill="none" stroke="#7D5E99" stroke-width="4" stroke-linecap="round" stroke-linejoin="round" stroke-miterlimit="10" points="
		264,14 264,86 282,86 	"/>
	<path fill="none" stroke="#7D5E99" stroke-width="4" stroke-linecap="round" stroke-linejoin="round" stroke-miterlimit="10" d="
		M363,86V13.9c0,0,16.2-4.8,15.6,24.6c-0.4,0.3,0.7,17.2-12.8,15.7c0,0,19.2,32.8,24.4,30.7"/>
	<g>
		
			<line fill="none" stroke="#7D5E99" stroke-width="4" stroke-linecap="round" stroke-linejoin="round" stroke-miterlimit="10" x1="192" y1="14" x2="192" y2="86"/>
		
			<line fill="none" stroke="#7D5E99" stroke-width="4" stroke-linecap="round" stroke-linejoin="round" stroke-miterlimit="10" x1="211" y1="14" x2="211" y2="86"/>
		
			<line fill="none" stroke="#7D5E99" stroke-width="4" stroke-linecap="round" stroke-linejoin="round" stroke-miterlimit="10" x1="192" y1="52" x2="211" y2="52"/>
	</g>
</g>
</svg>
