<?xml version="1.0" encoding="utf-8"?>
<!-- Generator: Adobe Illustrator 17.1.0, SVG Export Plug-In . SVG Version: 6.00 Build 0)  -->
<!DOCTYPE svg PUBLIC "-//W3C//DTD SVG 1.1//EN" "http://www.w3.org/Graphics/SVG/1.1/DTD/svg11.dtd">
<svg version="1.1" id="Layer_1" xmlns="http://www.w3.org/2000/svg" xmlns:xlink="http://www.w3.org/1999/xlink" x="0px" y="0px"
	 viewBox="0 0 80 60" enable-background="new 0 0 80 60" xml:space="preserve">
<g>
	<path fill="#FFFFFF" d="M65.4,16c0.9,0.1,1.9,0.1,2.8,0.2c2,0.1,3,1.5,4.2,2.7c1.9,2,3.2,4.5,4.2,7.1c0.4,1.2,0.6,2.5,0.6,3.7
		c0,1.9,0.2,3.8-0.5,5.6c-0.7,1.7-1.1,3.5-2.1,5.1c-0.7,1.1-1.9,1.9-3,2.7c-1.4,1.1-3.1,1.5-5,1.4c-1.2-0.1-2.5,0.1-3.7-0.2
		c-2.3-0.6-4-2.1-5.2-4.1c-1.1-1.8-1.9-3.8-2.4-5.8c-0.7-2.8-0.8-5.7-0.4-8.6c0.7-4.2,2.9-7.1,6.7-8.9C62.9,16.2,64.1,15.9,65.4,16z
		 M74.5,30.3c0.3-1.9-0.4-4-1.4-6c-1.1-2.3-2.8-4.1-4.8-5.7c-0.8-0.7-2.4-0.4-2.9,0.6c-0.5,1.1-1.1,2.2-1.4,3.3
		c-0.7,2.5-1.4,5.1-2,7.6c-0.2,0.7-0.2,1.4-0.2,2c-0.1,2.6,0.6,5,2,7.1c0.6,1,1.6,2,2.7,2.4c2.1,0.9,4.3-0.2,5.5-2.2
		C73.6,36.7,74.5,33.8,74.5,30.3z M59.4,37.5c0.1,0,0.2-0.1,0.3-0.1c-0.2-0.5-0.5-1-0.5-1.5c0-1.9-0.1-3.8,0.1-5.7
		c0.5-3.5,1.4-6.9,2.9-10.1c0.2-0.3,0.2-0.7,0.4-1.2C62.2,19,62,19,61.8,19.2c-1.8,1.1-3.1,2.7-3.7,4.6c-0.9,3-1.3,6.2-0.2,9.3
		C58.4,34.6,58.9,36.1,59.4,37.5z"/>
	<path fill="#FFFFFF" d="M40.8,32.8c0.1,1.7,0.2,3.5,0.4,5.3c0.1,1.5,0.3,3,0.6,4.5c0.1,0.9-0.4,1.2-1.1,1.2
		c-2.3-0.1-4.5-0.2-6.8-0.4c-0.4,0-1-0.7-1-1.1c-0.2-2.7-0.2-5.4-0.3-8c-0.1-2.4-0.5-4.8-0.6-7.2c-0.2-3-0.4-5.9-0.5-8.9
		c0-0.8,0.7-1.8,1.6-1.9c1.5-0.2,3.1-0.3,4.6-0.5c0.3,0,0.7,0,1-0.1c2.4-0.5,4.6,0,6.6,1.3c1.6,1,3.2,1.9,4.1,3.7
		c0.2,0.4,0.4,0.8,0.4,1.1c0.1,2.9,0.2,5.8-1.4,8.4c-0.8,1.2-2,1.7-3.3,2c-0.6,0.2-1.2,0.4-1.9,0.5C42.4,32.9,41.8,32.8,40.8,32.8z
		 M40.8,30.8c1.2-0.3,2.3-0.5,3.3-0.9c0.5-0.2,1.1-0.5,1.3-1c1.3-2,1.2-4.2,1.1-6.5c0-0.5-0.4-1.1-0.7-1.5c-1.4-1.6-3.2-2.4-5.3-2.8
		c-0.9-0.2-1.3,0.1-1.2,1c0.3,2.3,0.5,4.6,0.8,6.9C40.3,27.6,40.6,29.2,40.8,30.8z M35.8,39.7C35.8,39.7,35.9,39.7,35.8,39.7
		c0.1,0.4,0.1,0.8,0.2,1.2c0,0.2,0.2,0.6,0.3,0.6c0.6,0,1.4,0.2,1.9-0.1c0.3-0.1,0.2-1,0.2-1.5c-0.1-1-0.3-2.1-0.4-3.1
		c-0.2-2.4-0.3-4.8-0.5-7.2c-0.3-3.5-0.8-6.9-1.1-10.4c-0.1-1-0.6-0.9-1.2-0.9c-0.7,0-0.8,0.5-0.7,1.1c0.2,2.5,0.5,4.9,0.7,7.4
		C35.4,31.1,35.6,35.4,35.8,39.7z"/>
	<path fill="#FFFFFF" d="M12.2,32.8c0.1,1.7,0.2,3.5,0.4,5.3c0.1,1.5,0.3,3,0.6,4.5c0.1,0.9-0.4,1.2-1.1,1.2
		c-2.3-0.1-4.5-0.2-6.8-0.4c-0.4,0-1-0.7-1-1.1c-0.2-2.7-0.2-5.4-0.3-8c-0.1-2.4-0.5-4.8-0.6-7.2c-0.2-3-0.4-5.9-0.5-8.9
		c0-0.8,0.7-1.8,1.6-1.9C5.9,16.1,7.5,16,9,15.9c0.3,0,0.7,0,1-0.1c2.4-0.5,4.6,0,6.6,1.3c1.6,1,3.2,1.9,4.1,3.7
		c0.2,0.4,0.4,0.8,0.4,1.1c0.1,2.9,0.2,5.8-1.4,8.4c-0.8,1.2-2,1.7-3.3,2c-0.6,0.2-1.2,0.4-1.9,0.5C13.8,32.9,13.1,32.8,12.2,32.8z
		 M12.2,30.8c1.2-0.3,2.3-0.5,3.3-0.9c0.5-0.2,1.1-0.5,1.3-1c1.3-2,1.2-4.2,1.1-6.5c0-0.5-0.4-1.1-0.7-1.5c-1.4-1.6-3.2-2.4-5.3-2.8
		c-0.9-0.2-1.3,0.1-1.2,1c0.3,2.3,0.5,4.6,0.8,6.9C11.7,27.6,11.9,29.2,12.2,30.8z M7.2,39.7C7.2,39.7,7.2,39.7,7.2,39.7
		c0.1,0.4,0.1,0.8,0.2,1.2c0,0.2,0.2,0.6,0.3,0.6c0.6,0,1.4,0.2,1.9-0.1c0.3-0.1,0.2-1,0.2-1.5c-0.1-1-0.3-2.1-0.4-3.1
		c-0.2-2.4-0.3-4.8-0.5-7.2c-0.3-3.5-0.8-6.9-1.1-10.4c-0.1-1-0.6-0.9-1.2-0.9c-0.7,0-0.8,0.5-0.7,1.1c0.2,2.5,0.5,4.9,0.7,7.4
		C6.8,31.1,6.9,35.4,7.2,39.7z"/>
</g>
</svg>
