<?xml version="1.0" encoding="utf-8"?>
<!-- Generator: Adobe Illustrator 17.1.0, SVG Export Plug-In . SVG Version: 6.00 Build 0)  -->
<!DOCTYPE svg PUBLIC "-//W3C//DTD SVG 1.1//EN" "http://www.w3.org/Graphics/SVG/1.1/DTD/svg11.dtd">
<svg version="1.1" id="Layer_1" xmlns="http://www.w3.org/2000/svg" xmlns:xlink="http://www.w3.org/1999/xlink" x="0px" y="0px"
	 viewBox="0 0 215 100" enable-background="new 0 0 215 100" xml:space="preserve">
<g>
	
		<line fill="none" stroke="#7D5E99" stroke-width="4" stroke-linecap="round" stroke-linejoin="round" stroke-miterlimit="10" x1="133.5" y1="17" x2="133.5" y2="83"/>
	<path fill="none" stroke="#7D5E99" stroke-width="4" stroke-linecap="round" stroke-linejoin="round" stroke-miterlimit="10" d="
		M36.5,83V16.9c0,0,14.7-4.4,14.2,22.5c-0.4,0.3,0.6,15.7-11.8,14.4c0,0,17.7,30.1,22.4,28.1"/>
	<path fill="none" stroke="#7D5E99" stroke-width="4" stroke-linecap="round" stroke-linejoin="round" stroke-miterlimit="10" d="
		M9.5,83V16.8c0,0,15.1-4.4,14.6,22.5c-0.4,0.3,0.4,15.8-12,14.5"/>
	<g>
		
			<polyline fill="none" stroke="#7D5E99" stroke-width="4" stroke-linecap="round" stroke-linejoin="round" stroke-miterlimit="10" points="
			83.5,16 71.5,16 71.5,83 83.5,83 		"/>
		
			<line fill="none" stroke="#7D5E99" stroke-width="4" stroke-linecap="round" stroke-linejoin="round" stroke-miterlimit="10" x1="73.5" y1="49" x2="81.5" y2="49"/>
	</g>
	<g>
		
			<line fill="none" stroke="#7D5E99" stroke-width="4" stroke-linecap="round" stroke-linejoin="round" stroke-miterlimit="10" x1="95.5" y1="17" x2="95.5" y2="83"/>
		
			<line fill="none" stroke="#7D5E99" stroke-width="4" stroke-linecap="round" stroke-linejoin="round" stroke-miterlimit="10" x1="117.5" y1="17" x2="117.5" y2="83"/>
		
			<line fill="none" stroke="#7D5E99" stroke-width="3.7346" stroke-linecap="round" stroke-linejoin="round" stroke-miterlimit="10" x1="95.5" y1="17.3" x2="105.9" y2="31.5"/>
		
			<line fill="none" stroke="#7D5E99" stroke-width="3.7346" stroke-linecap="round" stroke-linejoin="round" stroke-miterlimit="10" x1="116.5" y1="17.3" x2="106.2" y2="31.5"/>
	</g>
	<g>
		
			<line fill="none" stroke="#7D5E99" stroke-width="4" stroke-linecap="round" stroke-linejoin="round" stroke-miterlimit="10" x1="184.5" y1="17" x2="184.5" y2="83"/>
		
			<line fill="none" stroke="#7D5E99" stroke-width="4" stroke-linecap="round" stroke-linejoin="round" stroke-miterlimit="10" x1="206.5" y1="17" x2="206.5" y2="83"/>
		
			<line fill="none" stroke="#7D5E99" stroke-width="3.7346" stroke-linecap="round" stroke-linejoin="round" stroke-miterlimit="10" x1="184.6" y1="17.3" x2="195" y2="31.5"/>
		
			<line fill="none" stroke="#7D5E99" stroke-width="3.7346" stroke-linecap="round" stroke-linejoin="round" stroke-miterlimit="10" x1="205.6" y1="17.3" x2="195.3" y2="31.5"/>
	</g>
	
		<path fill="none" stroke="#7D5E99" stroke-width="3.5534" stroke-linecap="round" stroke-linejoin="round" stroke-miterlimit="10" d="
		M151.5,16.4c0,0-4,68.2,9.4,67.4c13.4-0.8,11.2-67.7,11.2-67.7"/>
</g>
</svg>
