<?xml version="1.0" encoding="utf-8"?>
<!-- Generator: Adobe Illustrator 17.1.0, SVG Export Plug-In . SVG Version: 6.00 Build 0)  -->
<!DOCTYPE svg PUBLIC "-//W3C//DTD SVG 1.1//EN" "http://www.w3.org/Graphics/SVG/1.1/DTD/svg11.dtd">
<svg version="1.1" id="Layer_1" xmlns="http://www.w3.org/2000/svg" xmlns:xlink="http://www.w3.org/1999/xlink" x="0px" y="0px"
	 viewBox="0 0 270 100" enable-background="new 0 0 270 100" xml:space="preserve">
<g>
	<g>
		
			<polyline fill="none" stroke="#7D5E99" stroke-width="4" stroke-linecap="round" stroke-linejoin="round" stroke-miterlimit="10" points="
			204.1,87.2 214.7,12.3 232.4,87.5 		"/>
		
			<line fill="none" stroke="#7D5E99" stroke-width="4" stroke-linecap="round" stroke-linejoin="round" stroke-miterlimit="10" x1="211" y1="49" x2="223" y2="49"/>
	</g>
	<g>
		
			<polyline fill="none" stroke="#7D5E99" stroke-width="4" stroke-linecap="round" stroke-linejoin="round" stroke-miterlimit="10" points="
			90,13 77,13 77,88 		"/>
		
			<line fill="none" stroke="#7D5E99" stroke-width="4" stroke-linecap="round" stroke-linejoin="round" stroke-miterlimit="10" x1="79" y1="49" x2="88" y2="49"/>
	</g>
	<g>
		
			<polyline fill="none" stroke="#7D5E99" stroke-width="4" stroke-linecap="round" stroke-linejoin="round" stroke-miterlimit="10" points="
			64,13 49,13 49,87 64,87 		"/>
		
			<line fill="none" stroke="#7D5E99" stroke-width="4" stroke-linecap="round" stroke-linejoin="round" stroke-miterlimit="10" x1="51" y1="49" x2="61" y2="49"/>
	</g>
	<g>
		
			<polyline fill="none" stroke="#7D5E99" stroke-width="4" stroke-linecap="round" stroke-linejoin="round" stroke-miterlimit="10" points="
			119,13 105,13 105,87 119,87 		"/>
		
			<line fill="none" stroke="#7D5E99" stroke-width="4" stroke-linecap="round" stroke-linejoin="round" stroke-miterlimit="10" x1="107" y1="49" x2="117" y2="49"/>
	</g>
	
		<polyline fill="none" stroke="#7D5E99" stroke-width="4" stroke-linecap="round" stroke-linejoin="round" stroke-miterlimit="10" points="
		245,14 245,87 262,87 	"/>
	<path fill="none" stroke="#7D5E99" stroke-width="4" stroke-linecap="round" stroke-linejoin="round" stroke-miterlimit="10" d="
		M12,87V13.4c0,0,16.9-4.9,16.3,25.2c-0.4,0.3,0.9,17.6-13,16.1c0,0,19.5,33.5,24.8,31.3"/>
	<path fill="none" stroke="#7D5E99" stroke-width="4" stroke-linecap="round" stroke-linejoin="round" stroke-miterlimit="10" d="
		M131,87V13.4c0,0,16.3-4.9,15.7,25.2c-0.4,0.3,0.6,17.6-13.3,16.1c0,0,19.9,33.5,25.2,31.3"/>
	<path fill="none" stroke="#7D5E99" stroke-width="4" stroke-linecap="round" stroke-linejoin="round" stroke-miterlimit="10" d="
		M167,87V13.4c0,0,16.5-4.9,15.9,25.2c-0.4,0.3,0.7,17.6-13.2,16.1c0,0,19.8,33.5,25.1,31.3"/>
</g>
</svg>
