<?xml version="1.0" encoding="utf-8"?>
<!-- Generator: Adobe Illustrator 17.1.0, SVG Export Plug-In . SVG Version: 6.00 Build 0)  -->
<!DOCTYPE svg PUBLIC "-//W3C//DTD SVG 1.1//EN" "http://www.w3.org/Graphics/SVG/1.1/DTD/svg11.dtd">
<svg version="1.1" id="Layer_1" xmlns="http://www.w3.org/2000/svg" xmlns:xlink="http://www.w3.org/1999/xlink" x="0px" y="0px"
	 viewBox="0 0 65 65" enable-background="new 0 0 65 65" xml:space="preserve">
<g id="rzaeiP_1_">
	<g>
		<path fill="#1691B2" d="M27,6.9c0.5-0.1,0.9-0.2,1.4-0.2c0.3,0,0.5,0,0.8-0.1c0.5-0.1,0.9-0.1,1.4-0.2c0.6-0.1,1.2-0.2,1.8-0.3
			c0.5-0.1,0.9-0.2,1.4-0.3c0.5-0.2,1-0.2,1.5-0.1c0.5,0,0.9,0.1,1.4,0.1c0.8,0.1,1.5,0.1,2.3,0.2c0.2,0,0.4,0.1,0.6,0.1
			c0.1,0,0.3,0,0.4,0c0.1,0,0.2,0,0.2,0c0.3,0.2,0.5,0.4,0.9,0.4c0.5,0,1.1,0.2,1.6,0.3c0.5,0.1,1,0.2,1.5,0.4
			c0.3,0.1,0.6,0.3,0.9,0.4c0.4,0.2,0.9,0.3,1.3,0.5c0.6,0.2,1.2,0.5,1.7,0.7c0.3,0.1,0.6,0.2,0.8,0.3c0.2,0.1,0.3,0.2,0.5,0.3
			c0.2,0.1,0.4,0.2,0.6,0.3c0.1,0.1,0.2,0.2,0.3,0.3c0.2,0.2,0.4,0.4,0.7,0.6c0.2,0.1,0.4,0.3,0.6,0.5c0.6,0.6,1.3,1.2,1.9,1.9
			c0.1,0.1,0.2,0.3,0.4,0.3c0,0,0.1,0,0.1,0.1c0,0.4,0.4,0.5,0.6,0.9c0,0.1,0.2,0.1,0.3,0.2c0.3,0.3,0.6,0.6,0.8,0.9
			c0.2,0.3,0.4,0.5,0.4,0.9c0,0,0,0,0,0.1c0.4,0.2,0.5,0.7,0.7,1c0.1,0.1,0.1,0.2,0.2,0.4c0.2,0.6,0.5,1.1,0.7,1.7
			c0.1,0.2,0.3,0.3,0.4,0.5c0.3,0.7,0.7,1.4,0.9,2.2c0.1,0.5,0.3,1,0.4,1.5c0.1,0.2,0,0.5,0,0.7c0,0.3,0.1,0.6,0.1,0.9
			c0,0.2,0,0.3,0,0.5c0,0.5,0.1,1.1,0.1,1.6c0.1,1,0.1,2,0.1,3c0,0.4-0.1,0.7-0.2,1.1c0,0,0,0.1,0,0.1c-0.1,0.6-0.2,1.3-0.2,1.9
			c0,0.5-0.1,0.9-0.1,1.4c0,0.1,0,0.3-0.1,0.4c-0.1,0.3-0.1,0.6-0.1,0.9c0,0.6-0.1,1.1-0.3,1.7c-0.1,0.6-0.2,1.1-0.4,1.7
			c-0.1,0.3-0.1,0.6-0.2,0.9c-0.1,0.3-0.2,0.7-0.3,1c-0.3,0.6-0.4,1.2-0.7,1.8c-0.1,0.3-0.2,0.6-0.4,0.8c-0.4,0.7-0.8,1.4-1.1,2.1
			c-0.1,0.1-0.1,0.2-0.2,0.3c0,0-0.1,0.1-0.1,0.1c0.1,0.3-0.1,0.3-0.2,0.4c-0.2,0.2-0.3,0.4-0.5,0.7c-0.3,0.4-0.6,0.7-0.9,1.1
			c-0.1,0.1-0.2,0.3-0.3,0.5c-0.3,0.3-0.5,0.6-0.8,0.9c-0.2,0.2-0.4,0.3-0.6,0.4c0,0-0.1,0-0.1,0.1c-0.1,0.3-0.4,0.4-0.7,0.6
			c-0.2,0.1-0.4,0.3-0.5,0.4c-0.4,0.4-1,0.6-1.6,0.8c0,0-0.1,0-0.1,0c-0.5,0.6-1.2,0.8-1.8,1.1c-0.2,0.1-0.3,0.2-0.5,0.3
			c-0.3,0.2-0.7,0.4-1,0.6c-0.2,0.1-0.4,0.3-0.6,0.5c-0.2,0.3-0.5,0.4-0.9,0.5c-0.3,0.1-0.5,0.3-0.7,0.5c-0.3,0.2-0.6,0.3-0.9,0.5
			c-0.2,0.1-0.3,0.2-0.5,0.3c0,0-0.1,0.1-0.1,0.1c-0.3,0.1-0.7,0.3-1,0.4c-0.3,0.2-0.7,0.3-1,0.5c-0.1,0-0.1,0-0.2,0.1
			c-0.1,0-0.2,0-0.2,0c-0.4,0.1-0.8,0.3-1.1,0.4c-0.3,0.1-0.7,0.2-1,0.3c-0.8,0.2-1.6,0.4-2.5,0.4c-0.4,0-0.7,0-1.1,0
			c-0.4,0-0.7,0-1.1,0c-0.2,0-0.4-0.1-0.7-0.1c-0.5,0-1-0.1-1.5-0.1c-0.1,0-0.2,0.1-0.4,0.1c-0.4,0-0.7-0.1-1.1-0.1
			c-0.2,0-0.4,0-0.6,0c-0.4,0-0.8,0-1.1,0c-0.1,0-0.1,0-0.2,0c-0.8,0.2-1.6,0.1-2.4,0c-0.5,0-0.9-0.2-1.4-0.3
			c-0.7-0.1-1.2-0.6-1.7-0.9c-0.5-0.3-1.1-0.5-1.6-0.8c-0.4-0.2-0.8-0.4-1.2-0.6c-0.3-0.1-0.6-0.3-0.8-0.5c-0.3-0.3-0.8-0.3-0.9-0.8
			c0,0-0.1-0.1-0.2-0.1c-0.1,0-0.2,0-0.2-0.1c-0.4-0.4-0.9-0.6-1.3-1c-0.7-0.6-1.4-1.2-2.1-1.9c-0.4-0.4-0.8-0.7-1.2-1.1
			c-0.4-0.4-0.7-0.8-1-1.2c-0.4-0.4-0.5-1.1-0.8-1.5c-0.2-0.3-0.2-0.7-0.5-1c0,0,0,0,0,0c-0.1-0.4-0.4-0.8-0.6-1.2
			C9.2,45,8.9,44.5,8.6,44c-0.1-0.1,0-0.2-0.1-0.3c-0.2-0.4-0.3-0.8-0.5-1.1c0-0.1,0-0.2,0-0.3c-0.2-0.6-0.4-1.2-0.6-1.8
			c-0.1-0.2-0.2-0.4-0.3-0.6C7,39.6,7,39.3,6.9,39.1c-0.1-0.5-0.2-0.9-0.3-1.4c-0.1-0.4-0.2-0.8-0.2-1.1c-0.1-0.5-0.2-1.1-0.3-1.6
			c-0.1-0.3-0.1-0.7-0.2-1c-0.1-0.6-0.2-1.3-0.3-1.9c0-0.2,0-0.4-0.1-0.6c0-0.2,0.1-0.4-0.2-0.5c0,0,0,0,0-0.1
			c0-0.6-0.1-1.2-0.1-1.8c0-0.4,0-0.8,0-1.2c0.1-0.7,0.1-1.4,0.2-2.1c0.1-0.5,0.1-1.1,0.5-1.6c0,0,0-0.1,0-0.1
			c0-0.8,0.3-1.6,0.6-2.3c0.2-0.5,0.6-1,0.9-1.5c0.1-0.1,0.1-0.3,0.2-0.4c0.4-0.6,0.9-1.1,1.3-1.7c0.2-0.4,0.6-0.7,0.7-1.1
			c0,0,0.1-0.1,0.1-0.1c0.5-0.4,0.8-0.9,1.1-1.4c0.1-0.1,0.1-0.2,0.2-0.3c0.3-0.4,0.6-0.9,1-1.3c0.2-0.3,0.6-0.5,0.9-0.7
			c0.3-0.2,0.6-0.5,1-0.7c0.4-0.3,0.8-0.5,1.2-0.8c0.5-0.3,1.1-0.6,1.7-0.9c0.7-0.3,1.4-0.6,2.1-0.9c0.4-0.2,0.9-0.5,1.3-0.7
			C20.5,9.1,20.8,9,21,8.9c0.2-0.1,0.3-0.2,0.5-0.2c0.5-0.2,1-0.4,1.6-0.6c0.6-0.2,1.1-0.5,1.7-0.7C25.4,7,26.2,6.9,27,6.9z
			 M12.9,16.7c-0.1,0.1-0.2,0.1-0.2,0.2c-0.1,0.2-0.3,0.4-0.4,0.6c-0.4,0.5-0.8,1-1.3,1.5c-0.3,0.4-0.6,0.7-0.9,1.1
			c0,0-0.1,0.1-0.1,0.1c0.1,0.3-0.1,0.4-0.2,0.5c-0.1,0.1-0.2,0.2-0.2,0.3c-0.1,0.2-0.2,0.4-0.3,0.6c-0.2,0.3-0.4,0.6-0.6,0.9
			c-0.2,0.4-0.2,0.8-0.4,1.2C8.2,24.3,8,24.7,8,25.1c-0.1,0.8-0.2,1.5-0.3,2.3c0,0.3,0,0.6,0,1c0,0.1,0,0.2,0,0.2
			c-0.2,0.3-0.1,0.7,0,1c0.1,0.5,0.2,1.1,0.1,1.6c0,0.1,0,0.2,0.1,0.3C8,31.6,8,31.7,8,31.9c-0.1,0.4,0.1,0.8,0.1,1.2
			c0.1,0.5,0.3,1,0.2,1.5c0,0,0,0.1,0,0.1c0.1,0.4,0.3,0.9,0.4,1.3c0.1,0.3,0.1,0.5,0.2,0.8c0.1,0.4,0.2,0.8,0.2,1.2
			c0,0.1,0,0.1,0,0.2c0.1,0.4,0.3,0.8,0.4,1.2c0.1,0.5,0.1,1.1,0.5,1.5c0,0,0,0.1,0,0.2c0.1,0.4,0.1,0.9,0.4,1.3
			c0.1,0.1,0.1,0.3,0.2,0.4c0.1,0.1,0.1,0.3,0.2,0.4c0.2,0.3,0.4,0.5,0.5,0.8c0.1,0.4,0.3,0.7,0.6,1c0,0,0.1,0.1,0.1,0.2
			c0.1,0.2,0.1,0.4,0.2,0.6c0.2,0.5,0.5,0.9,0.6,1.5c0,0,0.1,0.1,0.2,0.1c0.2,0.1,0.3,0.3,0.4,0.5c0.1,0.3,0.2,0.6,0.3,0.7
			c0.4,0.5,0.9,0.9,1.4,1.3c0.4,0.4,0.7,0.8,1.1,1.3c0.1,0.1,0.1,0.1,0.2,0.2c0.4,0.3,0.8,0.6,1.3,0.9c0.7,0.5,1.5,1.1,2.3,1.6
			c0.5,0.3,1,0.6,1.5,0.9c0.2,0.1,0.3,0.1,0.5,0.2c0.4,0.2,0.7,0.4,1.1,0.6c0.5,0.2,0.9,0.5,1.4,0.7c0.5,0.2,0.9,0.5,1.4,0.4
			c0,0,0.1,0,0.1,0c0.7,0.1,1.5,0.1,2.2,0c0.4-0.1,0.8-0.1,1.1-0.1c0.5,0,1.1,0,1.6,0.1c1.1,0,2.3,0.1,3.4,0.1c0.1,0,0.3,0,0.4,0
			c0.4,0,0.7,0.1,1.1-0.1c0,0,0.1,0,0.1,0c0.5-0.1,1-0.1,1.5-0.3c0.5-0.1,1-0.4,1.6-0.5c1.1-0.3,2-0.8,3-1.3c0.6-0.3,1.1-0.7,1.7-1
			c0.4-0.2,0.7-0.5,1.1-0.8c0.4-0.3,0.8-0.6,1.2-0.8c0.7-0.4,1.3-0.8,2-1.2c0.2-0.1,0.4-0.2,0.6-0.3c0.4-0.3,0.8-0.5,1.2-0.8
			c0.1-0.1,0.3-0.2,0.4-0.3c0.2-0.2,0.4-0.3,0.6-0.5c0.4-0.3,0.7-0.7,1-1.1c0.2-0.2,0.3-0.5,0.5-0.7c0.2-0.3,0.5-0.6,0.7-0.9
			c0.4-0.6,0.8-1.2,1.1-1.9c0.3-0.6,0.7-1.2,1-1.8c0.2-0.4,0.4-0.9,0.5-1.3c0.1-0.3,0.2-0.7,0.3-1c0.1-0.3,0.2-0.6,0.1-0.8
			c0.1-0.1,0.2-0.2,0.3-0.3c0.1-0.4,0.1-0.9,0.2-1.3c0-0.2,0-0.4,0.1-0.6c0.1-0.6,0.3-1.3,0.4-1.9c0.1-0.8,0.2-1.6,0.2-2.4
			c0.1-0.6,0.2-1.2,0.2-1.7c0-0.5,0.2-0.9,0-1.4c0,0,0-0.1,0-0.1c0-0.3,0.1-0.6,0.1-0.9c0-0.5-0.1-1.1-0.1-1.6
			c0-0.4-0.1-0.9-0.1-1.3c0-0.4-0.1-0.8-0.1-1.2c0-0.3,0-0.6-0.1-0.9c-0.1-0.5-0.2-0.9-0.3-1.4c-0.1-0.4-0.2-0.8-0.4-1.2
			c-0.2-0.6-0.5-1.1-0.8-1.7c-0.2-0.3-0.3-0.7-0.5-1c-0.3-0.5-0.6-1-0.8-1.5c-0.3-0.6-0.8-1.1-1.3-1.7c-0.1-0.1-0.3-0.3-0.4-0.4
			c-0.3-0.3-0.6-0.5-0.8-0.7c-0.5-0.5-0.9-0.9-1.4-1.4c-0.3-0.3-0.6-0.6-1-0.9c-0.2-0.2-0.5-0.4-0.8-0.6c-0.3-0.2-0.5-0.3-0.8-0.4
			c-0.1-0.1-0.2-0.1-0.3-0.1c-0.2-0.1-0.5-0.1-0.7-0.2c-0.3-0.1-0.5-0.3-0.8-0.4c-0.3-0.1-0.7-0.2-1-0.4C44.1,9.1,43.6,9,43,8.8
			c-0.4-0.1-0.8-0.2-1.1-0.4c-0.2-0.1-0.3-0.2-0.6-0.2c-0.1,0-0.3-0.1-0.5,0c0,0-0.1,0-0.2,0c-0.1,0-0.3,0-0.4-0.1
			c-0.1,0-0.1,0-0.2,0c-0.4-0.3-0.8-0.2-1.2-0.3c-0.4-0.1-0.8-0.1-1.2-0.1c-0.3,0-0.7,0-1,0c-0.4,0-0.8,0-1.2,0
			c-0.2,0-0.4,0-0.6,0.1C34.7,7.9,34.7,8,34.6,8c-0.1-0.1-0.3-0.1-0.4-0.2C34,7.8,33.8,7.9,33.6,8c-0.6,0.2-1.1,0.3-1.7,0.4
			c-0.7,0.1-1.4,0.2-2.1,0.3c-0.3,0-0.5,0.1-0.7,0.4c-0.1,0.1-0.3,0.1-0.3,0.1c-0.2-0.1-0.3-0.1-0.4,0c-0.2,0-0.5,0-0.6,0
			c-0.2-0.1-0.3-0.3-0.5-0.6c-0.2,0-0.3,0-0.5,0.1c-0.3,0.1-0.7,0.3-1,0.3c-0.1,0-0.1,0-0.2,0.1C25.2,9,25,9.3,24.7,9.3
			c0,0-0.1,0-0.1,0c-0.5,0.4-1.1,0.6-1.7,0.8c-0.3,0.1-0.6,0.1-0.8,0.3c-0.5,0.3-1,0.6-1.6,0.8c-0.2,0.1-0.5,0.2-0.7,0.3
			c-0.2,0.1-0.4,0.3-0.6,0.4c-0.8,0.4-1.6,0.9-2.4,1.2c0,0-0.1,0-0.1,0.1c-0.3,0.2-0.5,0.4-0.8,0.6c-0.4,0.3-0.9,0.6-1.3,0.9
			c-0.5,0.4-0.9,0.9-1.3,1.3C13.2,16.2,13,16.4,12.9,16.7z"/>
		<path fill="#1691B2" d="M48.5,32.4c0.1,0,0.3-0.1,0.4-0.1c0.4,0.1,0.7,0.2,1.1,0.2c0,0,0.1,0,0.1,0c-0.1,0.3,0.4,0.5,0.2,0.9
			c-0.1,0.2,0,0.5,0,0.7c0,0.2-0.1,0.3-0.2,0.5C50,34.9,50,35,49.9,35.1c-0.1,0.2-0.2,0.3-0.3,0.5c-0.1,0.3-0.2,0.5-0.3,0.8
			c-0.1,0.1-0.1,0.3-0.2,0.4c-0.3,0.7-0.7,1.4-1,2.2c-0.1,0.4-0.5,0.8-0.7,1.2c-0.2,0.3-0.5,0.6-0.7,1c-0.2,0.3-0.3,0.5-0.5,0.8
			c-0.2,0.4-0.6,0.7-1,1.1c-0.2,0.2-0.3,0.4-0.5,0.6c-0.6,0.7-1.2,1.5-1.9,2.1c-0.4,0.4-0.9,0.6-1.3,1c0,0-0.1,0-0.1,0.1
			c-0.7,0.7-1.6,1-2.4,1.5c-0.4,0.2-0.7,0.3-1.1,0.5c-0.1,0-0.1,0-0.2,0c-0.1,0-0.3,0-0.4,0c-0.4,0.3-0.8,0.3-1.2,0.4
			c-0.7,0.1-1.3,0.3-2,0.3c-0.9,0-1.7,0-2.6-0.1c-0.7,0-1.3-0.1-1.9-0.2c-0.5-0.1-1-0.2-1.5-0.3c-0.7-0.1-1.3-0.3-2-0.5
			c-0.4-0.1-0.8-0.2-1.2-0.4c-0.7-0.3-1.4-0.7-2.2-1c-0.5-0.2-1-0.6-1.4-0.9c-0.4-0.3-0.8-0.6-1.1-1c-0.4-0.5-0.8-1-1.2-1.5
			c-0.2-0.3-0.4-0.7-0.6-1.1c-0.3-0.6-0.5-1.2-0.8-1.8c-0.1-0.4-0.2-0.8-0.3-1.2c-0.1-0.5-0.3-1-0.4-1.5c0-0.1,0-0.3,0-0.4
			c0-0.1,0.1-0.2,0.1-0.3c0-0.3,0.1-0.5,0.5-0.5c0,0,0.1,0,0.1,0c0.1-0.1,0.2-0.2,0.4-0.1c0.1,0.1,0.3,0.1,0.4,0.2
			c0.1,0,0.1,0.1,0.2,0.1c0.5,0.1,0.6,0.3,0.8,0.9c0.1,0.5,0.2,1,0.4,1.4c0.2,0.5,0.2,1,0.4,1.4c0.1,0.3,0.2,0.5,0.3,0.8
			c0.1,0.1,0.1,0.3,0.2,0.4c0.3,0.6,0.7,1.1,1.1,1.7c0.4,0.4,0.8,0.7,1.2,1.1c0.4,0.4,0.9,0.5,1.4,0.8c0.5,0.3,1,0.5,1.5,0.7
			c0.6,0.2,1.3,0.5,1.9,0.6c0.7,0.2,1.5,0.4,2.2,0.5c0.6,0.1,1.1,0.1,1.7,0.1c0.1,0,0.1,0,0.2,0c0.5,0.2,0.9,0.1,1.4,0.1
			c0.4,0,0.8,0,1.2-0.1c0.5-0.1,1-0.2,1.5-0.3c0.5-0.1,1-0.3,1.5-0.5c0.6-0.3,1.2-0.6,1.7-0.9c0.7-0.4,1.3-0.9,1.8-1.5
			c0.4-0.4,0.8-0.7,1.1-1.1c0.4-0.4,0.7-0.9,1.1-1.3c0.3-0.3,0.6-0.7,0.9-1c0.1-0.1,0.1-0.2,0.2-0.3c0.3-0.4,0.6-0.9,0.9-1.3
			c0.1-0.2,0.2-0.5,0.4-0.8c0.2-0.3,0.3-0.6,0.5-0.9c0,0,0.1-0.1,0.1-0.1c0.1-0.3,0.2-0.6,0.3-1c0,0,0-0.1,0-0.1
			c0.4-0.7,0.5-1.5,0.8-2.2c-0.1-0.5,0.3-0.8,0.3-1.2C47.9,32.5,48.2,32.3,48.5,32.4z"/>
		<path fill="#1691B2" d="M24.8,28c-0.5,0-0.9-0.2-1.3-0.5c-0.7-0.5-0.8-1.2-0.9-2c0-0.2,0.1-0.3,0.1-0.5c0-0.1,0-0.3,0-0.4
			c0-0.2,0.1-0.4,0.2-0.6c0.1-0.5,0.3-1,0.5-1.5c0.1-0.3,0.4-0.6,0.6-0.9c0-0.1,0.1-0.1,0.1-0.2c0.3-0.8,1.3-0.8,1.8-0.3
			c0,0.1,0.1,0.1,0.2,0.1c0.4,0.1,0.7,0.2,1.1,0.4c0.3,0.2,0.6,0.5,0.6,0.9c0,0.2,0.1,0.5,0.2,0.7c0.2,0.3,0.1,0.6,0.1,0.9
			c0,0.3,0.1,0.6,0.1,1c0,0,0,0.1,0,0.1c-0.1,0.5-0.2,0.9-0.5,1.2c-0.3,0.3-0.6,0.5-0.8,0.7C26.3,27.7,25.7,28,24.8,28z"/>
		<path fill="#1691B2" d="M45.6,27.8c-0.5-0.1-0.9-0.2-1.3-0.5c-0.7-0.6-0.7-1.3-0.7-2.1c0-0.5,0-1.1,0.1-1.6
			c0.1-0.5,0.2-0.9,0.4-1.3c0-0.1,0.1-0.1,0.2-0.1c0.3,0,0.7,0,1,0c0.2,0,0.5-0.1,0.7-0.2c0,0,0.1,0,0.1,0c0.2,0.3,0.8,0.2,0.8,0.7
			c0,0.1,0.1,0.1,0.2,0.1c0.3,0,0.3,0.2,0.3,0.4c-0.1,0.3,0.1,0.5,0.2,0.7c0,0.1,0,0.2,0.1,0.3c0.1,0.1,0.1,0.2,0.2,0.3
			c0.1,0.1,0.3,0.3,0.5,0.4c0.1,0.1,0.2,0.3,0.4,0.4c0.1,0.1,0.1,0.2-0.1,0.3c-0.1,0.1-0.3,0.2-0.4,0.4c-0.1,0.2-0.2,0.2-0.4,0.3
			c-0.2,0-0.3,0.1-0.4,0.3c-0.1,0.3-0.4,0.5-0.5,0.8c-0.2,0.5-0.7,0.5-1.1,0.6C45.7,27.8,45.6,27.8,45.6,27.8z"/>
	</g>
</g>
</svg>
