<?xml version="1.0" encoding="utf-8"?>
<!-- Generator: Adobe Illustrator 17.1.0, SVG Export Plug-In . SVG Version: 6.00 Build 0)  -->
<!DOCTYPE svg PUBLIC "-//W3C//DTD SVG 1.1//EN" "http://www.w3.org/Graphics/SVG/1.1/DTD/svg11.dtd">
<svg version="1.1" id="Layer_1" xmlns="http://www.w3.org/2000/svg" xmlns:xlink="http://www.w3.org/1999/xlink" x="0px" y="0px"
	 viewBox="0 0 678 166.5" enable-background="new 0 0 678 166.5" xml:space="preserve">
<g>
	<path fill="#1691B2" stroke="#FFFFFF" stroke-width="0.5622" stroke-miterlimit="10" d="M38.9,41.5c0.3,0.5,0.6,1.1,0.8,1.7
		c0.1,0.3,0.1,0.8-0.1,1.1c-0.5,1-1.4,1.8-2.5,2.1c-0.4,0.1-0.9,0-1.2-0.2c-1.1-0.8-2.1-1.7-3.1-2.6c-0.6-0.5-1-1.3-1.5-1.9
		c-0.4-0.6-0.9-1.1-1.3-1.7c-0.2-0.3-0.1-0.7-0.1-1c0-0.2,0.1-0.4,0.1-0.5c0.1-0.5,0.1-1.2,0.4-1.4c0.6-0.5,1.4-0.8,2.2-1
		c0.3-0.1,0.8,0.1,1.1,0.4c1,0.8,1.8,1.8,2.8,2.6C37.4,39.8,38.3,40.5,38.9,41.5z M32.5,39.7c0,0.1-0.1,0.1-0.1,0.2
		c0.5,0.7,1,1.4,1.6,2c0.8,0.8,1.8,1.6,2.7,2.4c0.1,0.1,0.5,0,0.7,0c0.1,0,0.3-0.3,0.2-0.4c-0.1-0.2-0.3-0.3-0.5-0.5
		c-0.3-0.2-0.5-0.4-0.8-0.7c0,0,0.1-0.1,0.1-0.1c-1-0.2-1.3-0.5-0.5-1.5c-0.4,0-0.6-0.1-0.9,0c-0.2,0-0.5,0.2-0.7,0.2
		c-0.2,0-0.5-0.1-0.6-0.2c-0.1-0.1,0-0.4,0.1-0.6c0.1-0.2,0.4-0.3,0.6-0.5C33.7,39.1,33.1,39.9,32.5,39.7z"/>
	<path fill="#1691B2" stroke="#FFFFFF" stroke-width="0.5622" stroke-miterlimit="10" d="M165.1,134.5c0.3,0.5,0.6,1.1,0.8,1.7
		c0.1,0.3,0.1,0.8-0.1,1.1c-0.5,1-1.4,1.8-2.5,2.1c-0.4,0.1-0.9,0-1.2-0.2c-1.1-0.8-2.1-1.7-3.1-2.6c-0.6-0.5-1-1.3-1.5-1.9
		c-0.4-0.6-0.9-1.1-1.3-1.7c-0.2-0.3-0.1-0.7-0.1-1c0-0.2,0.1-0.4,0.1-0.5c0.1-0.5,0.1-1.2,0.4-1.4c0.6-0.5,1.4-0.8,2.2-1
		c0.3-0.1,0.8,0.1,1.1,0.4c1,0.8,1.8,1.8,2.8,2.6C163.6,132.7,164.5,133.4,165.1,134.5z M158.6,132.7c0,0.1-0.1,0.1-0.1,0.2
		c0.5,0.7,1,1.4,1.6,2c0.8,0.8,1.8,1.6,2.7,2.4c0.1,0.1,0.5,0,0.7,0c0.1,0,0.3-0.3,0.2-0.4c-0.1-0.2-0.3-0.3-0.5-0.5
		c-0.3-0.2-0.5-0.4-0.8-0.7c0,0,0.1-0.1,0.1-0.1c-1-0.2-1.3-0.5-0.5-1.5c-0.4,0-0.6-0.1-0.9,0c-0.2,0-0.5,0.2-0.7,0.2
		c-0.2,0-0.5-0.1-0.6-0.2c-0.1-0.1,0-0.4,0.1-0.6c0.1-0.2,0.4-0.3,0.6-0.5C159.9,132.1,159.2,132.8,158.6,132.7z"/>
	<path fill="#1691B2" stroke="#FFFFFF" stroke-width="0.5622" stroke-miterlimit="10" d="M439,139.8c0.2-0.6,0.6-1.5,1-2.4
		c0.5-1.1,0.9-2.1,1.4-3.2c0.3-0.7,0.6-1.4,1-2.1c0.4-0.8,1.6-1.1,2.6-0.7c0.1,0,0.2,0.1,0.3,0.2c0.6,0.3,1.4,0.2,1.6,0.9
		c0.2,0.9,0.4,1.8,0,2.7c-0.7,1.5-1.5,3-2.2,4.5c-0.2,0.5-0.5,1-0.7,1.5c-0.4,0.8-1,1.3-1.9,1.3c-0.6,0-1.1-0.1-1.7-0.2
		C439.5,141.9,439.1,141.3,439,139.8z M445.1,133.9c0.1-0.6-0.3-0.9-0.7-0.9c-0.2,0-0.5,0.3-0.6,0.5c-0.6,1.3-1.2,2.6-1.9,3.9
		c-0.4,0.8-0.8,1.6-1.2,2.4c-0.1,0.3-0.1,0.8,0.1,1.1c0.2,0.2,0.7,0.2,1,0.3c0-0.1,0.1-0.1,0.1-0.2c-0.1-0.2-0.2-0.4-0.3-0.6
		c-0.1-0.3-0.3-0.8-0.1-1c0.3-0.4,0.6,0,0.9,0.3c0,0,0.1,0,0.3,0c-0.2-0.6-0.4-1.1-0.6-1.7c0.4-0.4,0.8-0.4,1.1,0.1
		c0.4-0.4,0.4-0.7,0.1-1.1c-0.1-0.2-0.2-0.6-0.1-0.8c0.1-0.4,0.3-0.6,0.7-0.3c0.1,0.1,0.2,0.1,0.3,0.2c0.1,0,0.1-0.1,0.2-0.1
		c-0.2-0.5-0.5-1.1-0.8-1.6c0.1-0.2,0.2-0.4,0.3-0.6C444.5,133.7,444.8,133.8,445.1,133.9z"/>
	<path fill="#1691B2" stroke="#FFFFFF" stroke-width="0.5622" stroke-miterlimit="10" d="M296.8,33.6c0.2-0.6,0.6-1.5,1-2.4
		c0.5-1.1,0.9-2.1,1.4-3.2c0.3-0.7,0.6-1.4,1-2.1c0.4-0.8,1.6-1.1,2.6-0.7c0.1,0,0.2,0.1,0.3,0.2c0.6,0.3,1.4,0.2,1.6,0.9
		c0.2,0.9,0.4,1.8,0,2.7c-0.7,1.5-1.5,3-2.2,4.5c-0.2,0.5-0.5,1-0.7,1.5c-0.4,0.8-1,1.3-1.9,1.3c-0.6,0-1.1-0.1-1.7-0.2
		C297.2,35.7,296.8,35.1,296.8,33.6z M302.9,27.7c0.1-0.6-0.3-0.9-0.7-0.9c-0.2,0-0.5,0.3-0.6,0.5c-0.6,1.3-1.2,2.6-1.9,3.9
		c-0.4,0.8-0.8,1.6-1.2,2.4c-0.1,0.3-0.1,0.8,0.1,1.1c0.2,0.2,0.7,0.2,1,0.3c0-0.1,0.1-0.1,0.1-0.2c-0.1-0.2-0.2-0.4-0.3-0.6
		c-0.1-0.3-0.3-0.8-0.1-1c0.3-0.4,0.6,0,0.9,0.3c0,0,0.1,0,0.3,0c-0.2-0.6-0.4-1.1-0.6-1.7c0.4-0.4,0.8-0.4,1.1,0.1
		c0.4-0.4,0.4-0.7,0.1-1.1c-0.1-0.2-0.2-0.6-0.1-0.8c0.1-0.4,0.3-0.6,0.7-0.3c0.1,0.1,0.2,0.1,0.3,0.2c0.1,0,0.1-0.1,0.2-0.1
		c-0.2-0.5-0.5-1.1-0.8-1.6c0.1-0.2,0.2-0.4,0.3-0.6C302.3,27.5,302.5,27.6,302.9,27.7z"/>
	<path fill="#1691B2" stroke="#FFFFFF" stroke-width="0.5622" stroke-miterlimit="10" d="M225.4,134.5c0.5-0.3,1.3-0.9,2.1-1.4
		c1-0.6,1.9-1.3,2.9-1.9c0.7-0.4,1.3-0.9,2-1.2c0.8-0.4,1.9,0,2.6,0.9c0.1,0.1,0.1,0.2,0.2,0.3c0.3,0.5,1,0.9,0.8,1.6
		c-0.3,0.8-0.7,1.7-1.5,2.2c-1.4,0.9-2.9,1.7-4.4,2.6c-0.5,0.3-0.9,0.6-1.4,0.9c-0.8,0.5-1.5,0.5-2.3,0c-0.5-0.3-0.9-0.7-1.3-1.1
		C224.6,136.5,224.6,135.8,225.4,134.5z M233.8,132.9c0.4-0.5,0.2-0.9-0.1-1.1c-0.1-0.1-0.5,0-0.7,0.1c-1.2,0.7-2.5,1.5-3.7,2.2
		c-0.8,0.5-1.6,0.8-2.3,1.3c-0.3,0.2-0.5,0.7-0.5,1c0,0.3,0.4,0.5,0.7,0.8c0.1,0,0.1-0.1,0.2-0.1c0-0.2,0-0.5,0.1-0.7
		c0.1-0.3,0.2-0.8,0.5-0.9c0.5-0.1,0.5,0.4,0.6,0.7c0,0,0.1,0,0.2,0.2c0.2-0.6,0.3-1.1,0.4-1.7c0.6-0.1,0.9,0.1,0.9,0.7
		c0.5-0.1,0.7-0.3,0.7-0.8c0-0.2,0.2-0.6,0.4-0.7c0.3-0.3,0.6-0.3,0.8,0.2c0,0.1,0.1,0.2,0.1,0.3c0.1,0,0.1,0,0.2,0
		c0.1-0.6,0.2-1.1,0.3-1.8c0.1-0.1,0.4-0.2,0.6-0.4C233.3,132.5,233.5,132.7,233.8,132.9z"/>
	<path fill="#1691B2" stroke="#FFFFFF" stroke-width="0.5622" stroke-miterlimit="10" d="M383.2,142.2c-1-0.4-1.9-0.9-2.9-1.1
		c-0.7-0.2-1.2-0.5-1.5-1.1c-0.3-0.6-0.3-1.2-0.5-1.9c0-0.1,0-0.1,0.1-0.2c0.3-0.6,0.5-1.2,0.9-1.7c0.2-0.3,0.6-0.6,1-0.6
		c0.7,0.1,1.5,0.2,2.1,0.5c1.5,0.8,3.1,1.6,4.5,2.5c1.2,0.7,1.7,1.8,0.8,3.1c-0.6,0.8-1.3,1.1-2.6,1.1
		C384.6,142.7,383.9,142.5,383.2,142.2z M385.2,139.5c-0.4-0.2-1-0.5-1.5-0.7c-0.8-0.4-1.5-0.9-2.3-1.3c-0.2-0.1-0.4-0.1-0.6-0.2
		c-0.1,0.3-0.2,0.6-0.2,0.8c0,0.4,0.2,0.7,0.4,1.1c0.1,0.2,0.2,0.3,0.4,0.5c0.1-0.4,0.1-0.7,0.2-0.8c0.2-0.2,0.5-0.3,0.7-0.4
		c0.1,0.3,0.3,0.6,0.4,0.8c0,0-0.1,0.1,0,0.2c0.1,0.3,0.1,0.6,0.2,0.8c0.1-0.2,0.1-0.5,0.3-0.7c0.1-0.2,0.3-0.4,0.5-0.6
		c0.2,0.2,0.4,0.4,0.5,0.6c0.1,0.3,0.1,0.6,0.1,0.9c0,0.4,0.1,0.6,0.5,0.6C384.9,140.6,385,140.1,385.2,139.5z"/>
	<path fill="#1691B2" stroke="#FFFFFF" stroke-width="0.5622" stroke-miterlimit="10" d="M172.7,26.3c-0.2,0.6-0.6,1.5-1,2.4
		c-0.5,1.1-0.9,2.1-1.4,3.2c-0.3,0.7-0.6,1.4-1,2.1c-0.4,0.8-1.6,1.1-2.7,0.7c-0.1,0-0.2-0.1-0.3-0.2c-0.6-0.3-1.4-0.2-1.5-1
		c-0.2-0.9-0.4-1.8,0-2.7c0.7-1.5,1.5-3,2.3-4.5c0.2-0.5,0.5-1,0.7-1.5c0.4-0.8,1-1.3,1.9-1.2c0.6,0,1.1,0.1,1.7,0.3
		C172.3,24.2,172.7,24.9,172.7,26.3z M166.6,32.2c-0.1,0.6,0.3,0.9,0.7,0.9c0.2,0,0.5-0.3,0.6-0.5c0.7-1.3,1.3-2.6,1.9-3.9
		c0.4-0.8,0.9-1.6,1.2-2.4c0.1-0.3,0.1-0.8-0.1-1.1c-0.2-0.2-0.7-0.2-1-0.3c0,0.1-0.1,0.1-0.1,0.2c0.1,0.2,0.2,0.4,0.3,0.6
		c0.1,0.3,0.2,0.8,0.1,1c-0.4,0.4-0.6-0.1-0.9-0.3c0,0-0.1,0-0.3,0c0.2,0.6,0.4,1.1,0.5,1.7c-0.4,0.4-0.8,0.4-1.1-0.1
		c-0.4,0.4-0.4,0.7-0.1,1.1c0.1,0.2,0.2,0.6,0.1,0.8c-0.1,0.4-0.3,0.6-0.7,0.2c-0.1-0.1-0.2-0.1-0.3-0.2c-0.1,0-0.1,0.1-0.2,0.1
		c0.2,0.5,0.5,1.1,0.7,1.7c-0.1,0.2-0.2,0.4-0.3,0.6C167.2,32.3,166.9,32.3,166.6,32.2z"/>
	<path fill="#1691B2" stroke="#FFFFFF" stroke-width="0.5622" stroke-miterlimit="10" d="M245.8,33.7c-0.5,0.3-1.3,0.9-2.2,1.4
		c-1,0.6-2,1.2-2.9,1.9c-0.7,0.4-1.3,0.8-2,1.2c-0.8,0.4-1.9,0-2.6-0.9c-0.1-0.1-0.1-0.2-0.2-0.3c-0.3-0.5-1-0.9-0.7-1.7
		c0.3-0.8,0.7-1.7,1.5-2.2c1.5-0.8,2.9-1.7,4.4-2.5c0.5-0.3,0.9-0.5,1.4-0.8c0.8-0.5,1.5-0.5,2.3,0c0.5,0.3,0.9,0.7,1.2,1.2
		C246.6,31.7,246.6,32.4,245.8,33.7z M237.5,35.1c-0.4,0.5-0.2,0.9,0.1,1.1c0.1,0.1,0.5,0,0.7-0.1c1.3-0.7,2.5-1.4,3.7-2.2
		c0.8-0.4,1.6-0.8,2.3-1.3c0.3-0.2,0.5-0.7,0.5-1c0-0.3-0.4-0.6-0.7-0.8c-0.1,0-0.1,0.1-0.2,0.1c0,0.2,0,0.5-0.1,0.7
		c-0.1,0.3-0.3,0.8-0.5,0.9c-0.5,0.1-0.5-0.4-0.6-0.8c0,0-0.1,0-0.2-0.2c-0.2,0.6-0.3,1.1-0.5,1.7c-0.6,0.1-0.9-0.1-0.9-0.7
		c-0.5,0.1-0.7,0.3-0.7,0.8c0,0.2-0.2,0.6-0.4,0.7c-0.3,0.3-0.6,0.3-0.8-0.2c0-0.1-0.1-0.2-0.1-0.3c-0.1,0-0.1,0-0.2,0
		c-0.1,0.6-0.2,1.1-0.3,1.8c-0.1,0.1-0.4,0.2-0.6,0.3C237.9,35.6,237.7,35.4,237.5,35.1z"/>
	<path fill="#1691B2" stroke="#FFFFFF" stroke-width="0.5622" stroke-miterlimit="10" d="M446.8,33.7c-0.5,0.3-1.3,0.9-2.2,1.4
		c-1,0.6-2,1.2-2.9,1.9c-0.7,0.4-1.3,0.8-2,1.2c-0.8,0.4-1.9,0-2.6-0.9c-0.1-0.1-0.1-0.2-0.2-0.3c-0.3-0.5-1-0.9-0.7-1.7
		c0.3-0.8,0.7-1.7,1.5-2.2c1.5-0.8,2.9-1.7,4.4-2.5c0.5-0.3,0.9-0.5,1.4-0.8c0.8-0.5,1.5-0.5,2.3,0c0.5,0.3,0.9,0.7,1.2,1.2
		C447.6,31.7,447.6,32.4,446.8,33.7z M438.4,35.1c-0.4,0.5-0.2,0.9,0.1,1.1c0.1,0.1,0.5,0,0.7-0.1c1.3-0.7,2.5-1.4,3.7-2.2
		c0.8-0.4,1.6-0.8,2.3-1.3c0.3-0.2,0.5-0.7,0.5-1c0-0.3-0.4-0.6-0.7-0.8c-0.1,0-0.1,0.1-0.2,0.1c0,0.2,0,0.5-0.1,0.7
		c-0.1,0.3-0.3,0.8-0.5,0.9c-0.5,0.1-0.5-0.4-0.6-0.8c0,0-0.1,0-0.2-0.2c-0.2,0.6-0.3,1.1-0.5,1.7c-0.6,0.1-0.9-0.1-0.9-0.7
		c-0.5,0.1-0.7,0.3-0.7,0.8c0,0.2-0.2,0.6-0.4,0.7c-0.3,0.3-0.6,0.3-0.8-0.2c0-0.1-0.1-0.2-0.1-0.3c-0.1,0-0.1,0-0.2,0
		c-0.1,0.6-0.2,1.1-0.3,1.8c-0.1,0.1-0.4,0.2-0.6,0.3C438.9,35.6,438.7,35.4,438.4,35.1z"/>
	<path fill="#1691B2" stroke="#FFFFFF" stroke-width="0.5622" stroke-miterlimit="10" d="M83.7,127.9c1.3,0,2.1,0.3,2.6,1.2
		c0.8,1.3,0.4,2.4-0.8,3.1c-1.5,0.9-3,1.7-4.6,2.4c-0.6,0.3-1.4,0.4-2.1,0.5c-0.3,0-0.7-0.3-0.9-0.6c-0.4-0.5-0.6-1.1-0.9-1.7
		c0-0.1-0.1-0.1-0.1-0.2c0.1-0.6,0.2-1.3,0.5-1.8c0.3-0.6,0.8-0.9,1.5-1.1c1-0.3,2-0.7,2.9-1.1C82.6,128.3,83.3,128.1,83.7,127.9z
		 M83.5,129.6c-0.4,0-0.6,0.2-0.6,0.6c0,0.3,0,0.6-0.1,0.9c-0.1,0.2-0.3,0.4-0.5,0.6c-0.2-0.2-0.4-0.4-0.5-0.6
		c-0.1-0.2-0.2-0.5-0.2-0.7c-0.1,0.3-0.1,0.6-0.2,0.8c0,0.1,0.1,0.1,0,0.2c-0.1,0.3-0.3,0.6-0.4,0.8c-0.2-0.1-0.5-0.2-0.7-0.4
		c-0.1-0.2-0.1-0.5-0.2-0.9c-0.2,0.2-0.3,0.3-0.4,0.5c-0.2,0.4-0.3,0.7-0.4,1.1c0,0.3,0.1,0.6,0.1,0.8c0.2-0.1,0.4-0.1,0.6-0.2
		c0.8-0.4,1.5-0.9,2.3-1.3c0.5-0.3,1-0.5,1.5-0.7C83.7,130.7,83.6,130.2,83.5,129.6z"/>
	<path fill="#1691B2" stroke="#FFFFFF" stroke-width="0.5622" stroke-miterlimit="10" d="M101,38.3c-0.5,0.2-1.1,0.2-1.7,0.2
		c-0.9,0-1.5-0.4-1.9-1.3c-0.2-0.5-0.5-1-0.7-1.5c-0.7-1.5-1.5-3-2.2-4.5c-0.4-0.9-0.2-1.8,0-2.7c0.2-0.7,1-0.7,1.6-0.9
		c0.1-0.1,0.2-0.1,0.3-0.2c1-0.4,2.2-0.1,2.6,0.7c0.4,0.7,0.7,1.4,1,2.1c0.5,1.1,0.9,2.1,1.4,3.2c0.4,0.9,0.8,1.8,1,2.4
		C102.4,37.3,102,38,101,38.3z M97.3,29.8c0.1,0.2,0.2,0.5,0.3,0.6c-0.3,0.6-0.5,1.1-0.8,1.6c0.1,0,0.1,0.1,0.2,0.1
		c0.1-0.1,0.2-0.1,0.3-0.2c0.4-0.3,0.6-0.1,0.7,0.3c0.1,0.3,0,0.6-0.1,0.8c-0.3,0.4-0.2,0.7,0.1,1.1c0.3-0.5,0.7-0.5,1.1-0.1
		c-0.2,0.5-0.4,1.1-0.6,1.7c0.2,0,0.2,0,0.3,0c0.3-0.2,0.6-0.7,0.9-0.3c0.2,0.2,0,0.7-0.1,1c0,0.2-0.2,0.4-0.3,0.6
		c0,0.1,0.1,0.1,0.1,0.2c0.4-0.1,0.8-0.1,1-0.3c0.2-0.3,0.3-0.8,0.1-1.1c-0.3-0.8-0.8-1.6-1.2-2.4c-0.6-1.3-1.2-2.6-1.9-3.9
		c-0.1-0.2-0.4-0.5-0.6-0.5c-0.4,0-0.8,0.2-0.7,0.9C96.7,29.9,97,29.8,97.3,29.8z"/>
	<path fill="#1691B2" stroke="#FFFFFF" stroke-width="0.5622" stroke-miterlimit="10" d="M368.4,32.3c0.6,1.2,0.7,2,0.2,2.9
		c-0.7,1.3-1.9,1.4-3.1,0.7c-1.5-0.9-2.9-1.9-4.3-2.9c-0.6-0.4-1.1-1-1.4-1.6c-0.2-0.3-0.1-0.8,0.1-1.1c0.3-0.6,0.7-1.1,1.1-1.6
		c0-0.1,0.1-0.1,0.1-0.1c0.6-0.2,1.2-0.4,1.9-0.4c0.6,0,1.2,0.3,1.7,0.8c0.7,0.8,1.6,1.4,2.4,2.1C367.6,31.5,368.1,32.1,368.4,32.3z
		 M366.8,32.9c-0.2-0.3-0.5-0.4-0.8-0.2c-0.3,0.2-0.6,0.3-0.9,0.4c-0.2,0-0.5-0.1-0.8-0.2c0.1-0.3,0.2-0.5,0.3-0.7
		c0.1-0.2,0.3-0.4,0.5-0.5c-0.3,0.1-0.6,0.1-0.8,0.2c-0.1,0-0.1,0.1-0.1,0.1c-0.3,0-0.6,0-0.9,0c0-0.3,0-0.6,0.1-0.8
		c0.1-0.2,0.4-0.4,0.6-0.6c-0.3,0-0.4-0.1-0.6-0.1c-0.4,0-0.8,0.1-1.1,0.2c-0.3,0.1-0.4,0.3-0.7,0.5c0.2,0.2,0.3,0.3,0.5,0.5
		c0.7,0.5,1.5,1,2.2,1.4c0.5,0.3,0.9,0.7,1.3,1C366,33.6,366.4,33.3,366.8,32.9z"/>
	<path fill="#1691B2" stroke="#FFFFFF" stroke-width="0.5622" stroke-miterlimit="10" d="M309.1,133.3c1,0.4,1.9,0.9,2.9,1.1
		c0.7,0.2,1.2,0.5,1.5,1.1c0.3,0.5,0.3,1.2,0.5,1.8c0,0.1,0,0.1-0.1,0.2c-0.3,0.6-0.5,1.2-0.9,1.7c-0.2,0.3-0.6,0.6-0.9,0.6
		c-0.7,0-1.5-0.2-2.1-0.5c-1.6-0.7-3.1-1.6-4.6-2.4c-1.2-0.7-1.7-1.8-0.8-3.1c0.6-0.8,1.3-1.1,2.6-1.2
		C307.6,132.8,308.4,133,309.1,133.3z M307.1,136c0.4,0.2,1,0.5,1.5,0.7c0.8,0.4,1.5,0.9,2.3,1.3c0.2,0.1,0.4,0.1,0.6,0.2
		c0.1-0.3,0.2-0.6,0.1-0.8c-0.1-0.4-0.2-0.7-0.4-1.1c-0.1-0.2-0.2-0.3-0.4-0.5c-0.1,0.4-0.1,0.7-0.2,0.9c-0.2,0.2-0.4,0.3-0.7,0.4
		c-0.1-0.3-0.3-0.6-0.4-0.8c0,0,0.1-0.1,0-0.2c-0.1-0.3-0.1-0.6-0.2-0.8c-0.1,0.2-0.1,0.5-0.2,0.7c-0.1,0.2-0.3,0.4-0.5,0.6
		c-0.2-0.2-0.4-0.4-0.5-0.6c-0.1-0.3-0.1-0.6-0.1-0.9c0-0.4-0.2-0.6-0.6-0.6C307.4,134.9,307.2,135.4,307.1,136z"/>
	<path fill="#1691B2" stroke="#FFFFFF" stroke-width="0.5622" stroke-miterlimit="10" d="M27.7,94.5c1,0.4,1.9,0.9,2.9,1.2
		c0.7,0.2,1.2,0.5,1.5,1.1c0.3,0.6,0.3,1.2,0.4,1.9c0,0.1,0,0.1-0.1,0.2c-0.3,0.6-0.5,1.2-0.9,1.7c-0.2,0.3-0.7,0.6-1,0.6
		c-0.7-0.1-1.5-0.2-2.1-0.5c-1.5-0.8-3-1.6-4.5-2.6c-1.2-0.7-1.6-1.8-0.8-3.1c0.6-0.8,1.3-1.1,2.6-1.1C26.3,94,27,94.2,27.7,94.5z
		 M25.7,97.1c0.4,0.2,0.9,0.5,1.4,0.8c0.8,0.4,1.5,0.9,2.3,1.3c0.2,0.1,0.4,0.1,0.6,0.2c0.1-0.3,0.2-0.6,0.2-0.8
		c0-0.4-0.2-0.8-0.3-1.1c-0.1-0.2-0.2-0.3-0.4-0.5c-0.1,0.4-0.1,0.7-0.3,0.8c-0.2,0.2-0.5,0.3-0.7,0.4c-0.1-0.3-0.3-0.6-0.4-0.9
		c0,0,0.1-0.1,0-0.2c0-0.3-0.1-0.6-0.2-0.8c-0.1,0.2-0.1,0.5-0.3,0.7c-0.1,0.2-0.3,0.4-0.5,0.6c-0.2-0.2-0.4-0.4-0.5-0.6
		c-0.1-0.3-0.1-0.6,0-0.9c0-0.4-0.1-0.6-0.5-0.6C26,96,25.8,96.5,25.7,97.1z"/>
	<path fill="#1691B2" stroke="#FFFFFF" stroke-width="0.5622" stroke-miterlimit="10" d="M641.4,39c1-0.8,1.8-1.7,2.8-2.6
		c0.3-0.2,0.8-0.5,1.1-0.4c0.8,0.2,1.6,0.5,2.2,1c0.3,0.2,0.3,0.9,0.4,1.4c0.1,0.2,0.1,0.4,0.1,0.5c0,0.3,0,0.7-0.1,1
		c-0.4,0.6-0.9,1.1-1.3,1.7c-0.5,0.6-0.9,1.3-1.5,1.9c-1,0.9-2,1.8-3.1,2.6c-0.3,0.2-0.9,0.3-1.2,0.2c-1.1-0.3-2-1-2.5-2.1
		c-0.1-0.3-0.2-0.8-0.1-1.1c0.2-0.6,0.5-1.1,0.8-1.7C639.7,40.5,640.5,39.8,641.4,39z M643.6,40c0.2,0.2,0.4,0.3,0.6,0.5
		c0.1,0.2,0.2,0.5,0.1,0.6c-0.1,0.1-0.4,0.2-0.6,0.2c-0.2,0-0.5-0.2-0.7-0.2c-0.2,0-0.5,0-0.9,0c0.8,1,0.5,1.3-0.5,1.5
		c0,0,0.1,0.1,0.1,0.1c-0.3,0.2-0.5,0.4-0.8,0.7c-0.2,0.2-0.4,0.3-0.5,0.5c0,0,0.1,0.3,0.2,0.4c0.2,0.1,0.6,0.1,0.7,0
		c0.9-0.8,1.8-1.5,2.7-2.4c0.6-0.6,1.1-1.3,1.6-2c0-0.1-0.1-0.1-0.1-0.2C644.9,39.9,644.2,39.1,643.6,40z"/>
	<path fill="#1691B2" stroke="#FFFFFF" stroke-width="0.5622" stroke-miterlimit="10" d="M515.3,132c1-0.8,1.8-1.7,2.8-2.6
		c0.3-0.2,0.8-0.5,1.1-0.4c0.8,0.2,1.6,0.5,2.2,1c0.3,0.2,0.3,0.9,0.4,1.4c0.1,0.2,0.1,0.4,0.1,0.5c0,0.3,0,0.7-0.1,1
		c-0.4,0.6-0.9,1.1-1.3,1.7c-0.5,0.6-0.9,1.3-1.5,1.9c-1,0.9-2,1.8-3.1,2.6c-0.3,0.2-0.9,0.3-1.2,0.2c-1.1-0.3-2-1-2.5-2.1
		c-0.1-0.3-0.2-0.8-0.1-1.1c0.2-0.6,0.5-1.1,0.8-1.7C513.5,133.4,514.4,132.7,515.3,132z M517.4,132.9c0.2,0.2,0.4,0.3,0.6,0.5
		c0.1,0.2,0.2,0.5,0.1,0.6c-0.1,0.1-0.4,0.2-0.6,0.2c-0.2,0-0.5-0.2-0.7-0.2c-0.2,0-0.5,0-0.9,0c0.8,1,0.5,1.3-0.5,1.5
		c0,0,0.1,0.1,0.1,0.1c-0.3,0.2-0.5,0.4-0.8,0.7c-0.2,0.2-0.4,0.3-0.5,0.5c0,0,0.1,0.3,0.2,0.4c0.2,0.1,0.6,0.1,0.7,0
		c0.9-0.8,1.8-1.5,2.7-2.4c0.6-0.6,1.1-1.3,1.6-2c0-0.1-0.1-0.1-0.1-0.2C518.7,132.8,518,132.1,517.4,132.9z"/>
	<path fill="#1691B2" stroke="#FFFFFF" stroke-width="0.5622" stroke-miterlimit="10" d="M506.6,23.9c0.5-0.2,1.1-0.2,1.7-0.3
		c0.9,0,1.5,0.4,1.9,1.2c0.2,0.5,0.5,1,0.7,1.5c0.8,1.5,1.5,3,2.3,4.5c0.4,0.9,0.3,1.8,0,2.7c-0.2,0.7-1,0.7-1.5,1
		c-0.1,0.1-0.2,0.1-0.3,0.2c-1,0.4-2.2,0.1-2.7-0.7c-0.4-0.7-0.7-1.4-1-2.1c-0.5-1.1-0.9-2.1-1.4-3.2c-0.4-0.9-0.8-1.8-1-2.4
		C505.3,24.9,505.7,24.2,506.6,23.9z M510.5,32.4c-0.1-0.2-0.2-0.5-0.3-0.6c0.3-0.6,0.5-1.1,0.7-1.7c-0.1,0-0.1-0.1-0.2-0.1
		c-0.1,0.1-0.2,0.1-0.3,0.2c-0.4,0.3-0.6,0.1-0.7-0.2c-0.1-0.3,0-0.6,0.1-0.8c0.3-0.4,0.2-0.7-0.1-1.1c-0.3,0.5-0.7,0.5-1.1,0.1
		c0.2-0.5,0.4-1.1,0.5-1.7c-0.2,0-0.2,0-0.3,0c-0.3,0.2-0.6,0.7-0.9,0.3c-0.2-0.2,0-0.7,0.1-1c0-0.2,0.2-0.4,0.3-0.6
		c0-0.1-0.1-0.1-0.1-0.2c-0.3,0.1-0.8,0.1-1,0.3c-0.2,0.3-0.2,0.8-0.1,1.1c0.3,0.8,0.8,1.6,1.2,2.4c0.6,1.3,1.3,2.6,1.9,3.9
		c0.1,0.2,0.4,0.5,0.6,0.5c0.4,0,0.8-0.3,0.7-0.9C511.1,32.3,510.8,32.3,510.5,32.4z"/>
	<path fill="#1691B2" stroke="#FFFFFF" stroke-width="0.5622" stroke-miterlimit="10" d="M596.1,128.6c1,0.4,1.9,0.9,2.9,1.1
		c0.7,0.2,1.2,0.5,1.5,1.1c0.3,0.5,0.3,1.2,0.5,1.8c0,0.1,0,0.1-0.1,0.2c-0.3,0.6-0.5,1.2-0.9,1.7c-0.2,0.3-0.6,0.6-0.9,0.6
		c-0.7,0-1.5-0.2-2.1-0.5c-1.6-0.7-3.1-1.6-4.6-2.4c-1.2-0.7-1.7-1.8-0.8-3.1c0.6-0.8,1.3-1.1,2.6-1.2
		C594.6,128.1,595.4,128.3,596.1,128.6z M594.1,131.3c0.4,0.2,1,0.5,1.5,0.7c0.8,0.4,1.5,0.9,2.3,1.3c0.2,0.1,0.4,0.1,0.6,0.2
		c0.1-0.3,0.2-0.6,0.1-0.8c-0.1-0.4-0.2-0.7-0.4-1.1c-0.1-0.2-0.2-0.3-0.4-0.5c-0.1,0.4-0.1,0.7-0.2,0.9c-0.2,0.2-0.4,0.3-0.7,0.4
		c-0.1-0.3-0.3-0.6-0.4-0.8c0,0,0.1-0.1,0-0.2c-0.1-0.3-0.1-0.6-0.2-0.8c-0.1,0.2-0.1,0.5-0.2,0.7c-0.1,0.2-0.3,0.4-0.5,0.6
		c-0.2-0.2-0.4-0.4-0.5-0.6c-0.1-0.3-0.1-0.6-0.1-0.9c0-0.4-0.2-0.6-0.6-0.6C594.4,130.2,594.2,130.7,594.1,131.3z"/>
	<path fill="#1691B2" stroke="#FFFFFF" stroke-width="0.5622" stroke-miterlimit="10" d="M575.5,35.9c0.2-0.6,0.6-1.5,1-2.4
		c0.5-1.1,0.9-2.1,1.4-3.2c0.3-0.7,0.6-1.4,1-2.1c0.4-0.8,1.6-1.1,2.6-0.7c0.1,0,0.2,0.1,0.3,0.2c0.6,0.3,1.4,0.2,1.6,0.9
		c0.2,0.9,0.4,1.8,0,2.7c-0.7,1.5-1.5,3-2.2,4.5c-0.2,0.5-0.5,1-0.7,1.5c-0.4,0.8-1,1.3-1.9,1.3c-0.6,0-1.1-0.1-1.7-0.2
		C575.9,38,575.5,37.3,575.5,35.9z M581.6,29.9c0.1-0.6-0.3-0.9-0.7-0.9c-0.2,0-0.5,0.3-0.6,0.5c-0.6,1.3-1.2,2.6-1.9,3.9
		c-0.4,0.8-0.8,1.6-1.2,2.4c-0.1,0.3-0.1,0.8,0.1,1.1c0.2,0.2,0.7,0.2,1,0.3c0-0.1,0.1-0.1,0.1-0.2c-0.1-0.2-0.2-0.4-0.3-0.6
		c-0.1-0.3-0.3-0.8-0.1-1c0.3-0.4,0.6,0,0.9,0.3c0,0,0.1,0,0.3,0c-0.2-0.6-0.4-1.1-0.6-1.7c0.4-0.4,0.8-0.4,1.1,0.1
		c0.4-0.4,0.4-0.7,0.1-1.1c-0.1-0.2-0.2-0.6-0.1-0.8c0.1-0.4,0.3-0.6,0.7-0.3c0.1,0.1,0.2,0.1,0.3,0.2c0.1,0,0.1-0.1,0.2-0.1
		c-0.2-0.5-0.5-1.1-0.8-1.6c0.1-0.2,0.2-0.4,0.3-0.6C581,29.8,581.2,29.9,581.6,29.9z"/>
	<path fill="#1691B2" stroke="#FFFFFF" stroke-width="0.5622" stroke-miterlimit="10" d="M652,93.8c1.3,0,2.1,0.3,2.6,1.1
		c0.9,1.2,0.4,2.4-0.8,3.1c-1.5,0.9-3,1.8-4.5,2.6c-0.6,0.3-1.4,0.5-2.1,0.5c-0.3,0-0.8-0.3-1-0.6c-0.4-0.5-0.6-1.1-0.9-1.7
		c0-0.1-0.1-0.1-0.1-0.2c0.1-0.6,0.2-1.3,0.4-1.9c0.3-0.6,0.8-0.9,1.5-1.1c1-0.3,1.9-0.8,2.9-1.2C650.9,94.2,651.6,94,652,93.8z
		 M651.8,95.5c-0.4,0-0.6,0.3-0.5,0.6c0,0.3,0,0.6,0,0.9c-0.1,0.2-0.3,0.4-0.5,0.6c-0.2-0.2-0.4-0.4-0.5-0.6
		c-0.1-0.2-0.2-0.5-0.3-0.7c-0.1,0.3-0.1,0.6-0.2,0.8c0,0.1,0.1,0.1,0,0.2c-0.1,0.3-0.3,0.6-0.4,0.9c-0.2-0.1-0.5-0.2-0.7-0.4
		c-0.2-0.2-0.2-0.5-0.3-0.8c-0.2,0.2-0.3,0.3-0.4,0.5c-0.1,0.4-0.3,0.7-0.3,1.1c0,0.3,0.1,0.6,0.2,0.8c0.2-0.1,0.4-0.1,0.6-0.2
		c0.8-0.4,1.5-0.9,2.3-1.3c0.5-0.3,1-0.5,1.4-0.8C652.1,96.5,652,96,651.8,95.5z"/>
</g>
</svg>
