<?xml version="1.0" encoding="utf-8"?>
<!-- Generator: Adobe Illustrator 17.1.0, SVG Export Plug-In . SVG Version: 6.00 Build 0)  -->
<!DOCTYPE svg PUBLIC "-//W3C//DTD SVG 1.1//EN" "http://www.w3.org/Graphics/SVG/1.1/DTD/svg11.dtd">
<svg version="1.1" id="Layer_1" xmlns="http://www.w3.org/2000/svg" xmlns:xlink="http://www.w3.org/1999/xlink" x="0px" y="0px"
	 viewBox="0 0 300 140" enable-background="new 0 0 300 140" xml:space="preserve">
<g>
	<g>
		
			<path fill="none" stroke="#4B6FF7" stroke-width="1.8448" stroke-linecap="round" stroke-linejoin="round" stroke-miterlimit="10" d="
			M219.6,29.8c0.1,7.2-2.7,12.4-6.1,12.4c-3.5,0-6.3-5.1-6.3-12.3c-0.1-7.2,2.7-12.4,6.1-12.4C216.7,17.5,219.6,22.6,219.6,29.8z"/>
		
			<path fill="none" stroke="#4B6FF7" stroke-width="1.8448" stroke-linecap="round" stroke-linejoin="round" stroke-miterlimit="10" d="
			M201.7,22.4c0,0-0.3-5.7-6.9-4.9c-7,0.8-6.4,23.3,0,24.9c7.6,1.9,8.2-4.8,8-4.6"/>
		<g>
			
				<polyline fill="none" stroke="#4B6FF7" stroke-width="1.8448" stroke-linecap="round" stroke-linejoin="round" stroke-miterlimit="10" points="
				16.6,19 23.7,26.4 29.9,19.1 			"/>
			
				<line fill="none" stroke="#4B6FF7" stroke-width="1.8448" stroke-linecap="round" stroke-linejoin="round" stroke-miterlimit="10" x1="23.1" y1="26.5" x2="23.2" y2="43.7"/>
		</g>
		
			<path fill="none" stroke="#4B6FF7" stroke-width="1.8448" stroke-linecap="round" stroke-linejoin="round" stroke-miterlimit="10" d="
			M72.4,43.3l-0.2-24.7c0,0,9.4-1.7,9.1,8.5c-0.2,0.1,0.7,6-6.7,5.5c0,0,10.3,11.1,13.1,10.4"/>
		
			<path fill="none" stroke="#4B6FF7" stroke-width="1.8448" stroke-linecap="round" stroke-linejoin="round" stroke-miterlimit="10" d="
			M54,18.4c0,0-2.2,25.9,5.8,25.6c8-0.4,6.5-25.8,6.5-25.8"/>
		
			<path fill="none" stroke="#4B6FF7" stroke-width="1.8448" stroke-linecap="round" stroke-linejoin="round" stroke-miterlimit="10" d="
			M48.3,31.2c0.1,7.2-2.7,12.4-6.1,12.4c-3.5,0-6.3-5.1-6.3-12.3s2.7-12.4,6.1-12.4C45.4,18.9,48.3,24,48.3,31.2z"/>
		
			<path fill="none" stroke="#4B6FF7" stroke-width="1.8448" stroke-linecap="round" stroke-linejoin="round" stroke-miterlimit="10" d="
			M127.1,30.5c0.1,7.2-2.7,12.4-6.1,12.4c-3.5,0-6.3-5.1-6.3-12.3c-0.1-7.2,2.7-12.4,6.1-12.4S127,23.4,127.1,30.5z"/>
		<g>
			
				<line fill="none" stroke="#4B6FF7" stroke-width="1.8448" stroke-linecap="round" stroke-linejoin="round" stroke-miterlimit="10" x1="240.7" y1="17.3" x2="240.9" y2="41.9"/>
			
				<line fill="none" stroke="#4B6FF7" stroke-width="1.8448" stroke-linecap="round" stroke-linejoin="round" stroke-miterlimit="10" x1="236.7" y1="17.7" x2="247.8" y2="17.6"/>
		</g>
		<g>
			
				<line fill="none" stroke="#4B6FF7" stroke-width="1.8448" stroke-linecap="round" stroke-linejoin="round" stroke-miterlimit="10" x1="103.6" y1="18.4" x2="103.8" y2="43"/>
			
				<line fill="none" stroke="#4B6FF7" stroke-width="1.8448" stroke-linecap="round" stroke-linejoin="round" stroke-miterlimit="10" x1="99.6" y1="18.8" x2="110.7" y2="18.7"/>
		</g>
		<g>
			
				<line fill="none" stroke="#4B6FF7" stroke-width="1.8448" stroke-linecap="round" stroke-linejoin="round" stroke-miterlimit="10" x1="136.8" y1="18.2" x2="137" y2="42.8"/>
			
				<line fill="none" stroke="#4B6FF7" stroke-width="1.8448" stroke-linecap="round" stroke-linejoin="round" stroke-miterlimit="10" x1="132.8" y1="18.5" x2="143.9" y2="18.4"/>
		</g>
		<g>
			
				<polyline fill="none" stroke="#4B6FF7" stroke-width="1.8448" stroke-linecap="round" stroke-linejoin="round" stroke-miterlimit="10" points="
				146.3,43.1 151.8,17.6 161.4,43 			"/>
			
				<line fill="none" stroke="#4B6FF7" stroke-width="1.8448" stroke-linecap="round" stroke-linejoin="round" stroke-miterlimit="10" x1="149.5" y1="31.3" x2="156.3" y2="31.2"/>
		</g>
		
			<polyline fill="none" stroke="#4B6FF7" stroke-width="1.8448" stroke-linecap="round" stroke-linejoin="round" stroke-miterlimit="10" points="
			166.9,17.9 167.1,43.4 177.9,43.4 		"/>
		
			<path fill="none" stroke="#4B6FF7" stroke-width="1.8448" stroke-linecap="round" stroke-linejoin="round" stroke-miterlimit="10" d="
			M224,37.2c0,0,0.7,6.8,5.1,5.7c1.9-0.4,3.4-2,3.8-3.9c0.4-1.7,0.2-4.2-1.7-7.2c-3.7-5.6-7.3-10.2-3-14.5c0.6-0.6,1.4-0.9,2.3-0.8
			c1.2,0.1,2.6,1.1,2.9,4.9"/>
		
			<path fill="none" stroke="#4B6FF7" stroke-width="1.8448" stroke-linecap="round" stroke-linejoin="round" stroke-miterlimit="10" d="
			M249.8,37c0,0,0.7,6.8,5.1,5.7c1.9-0.4,3.4-2,3.8-3.9c0.4-1.7,0.2-4.2-1.7-7.2c-3.7-5.6-7.3-10.2-3-14.5c0.6-0.6,1.4-0.9,2.3-0.8
			c1.2,0.1,2.6,1.1,2.9,4.9"/>
	</g>
	<circle fill="#4B6FF7" cx="276.1" cy="21.6" r="3.2"/>
	<circle fill="#4B6FF7" cx="276.7" cy="39.5" r="3.2"/>
	<g>
		<path fill="none" stroke="#4B6FF7" stroke-width="2" stroke-linecap="round" stroke-linejoin="round" stroke-miterlimit="10" d="
			M40.3,72.2c0,0,25.9-15.7-1,43.3H58"/>
		<path fill="none" stroke="#4B6FF7" stroke-width="2" stroke-linecap="round" stroke-linejoin="round" stroke-miterlimit="10" d="
			M82,70.4H66v21.4c0,0,16.9-7.5,16.6,9.7c0,0,0.5,19.8-16.7,13.9"/>
		
			<path fill="none" stroke="#4B6FF7" stroke-width="2.3396" stroke-linecap="round" stroke-linejoin="round" stroke-miterlimit="10" d="
			M106.4,92.3c0,12.7-3.9,23-10.2,23S86,105,86,92.3s3.9-23,10.2-23S106.4,79.6,106.4,92.3z"/>
		
			<path fill="none" stroke="#4B6FF7" stroke-width="2.3396" stroke-linecap="round" stroke-linejoin="round" stroke-miterlimit="10" d="
			M131,91.7c0,12.7-3.9,23-10.2,23s-10.2-10.3-10.2-23s3.9-23,10.2-23S131,79.1,131,91.7z"/>
		<path fill="none" stroke="#4B6FF7" stroke-width="2" stroke-linecap="round" stroke-linejoin="round" stroke-miterlimit="10" d="
			M237,70.4h-16v21.4c0,0,16.6-7.5,16.3,9.7c0,0,0.6,19.8-16.6,13.9"/>
		
			<line fill="none" stroke="#4B6FF7" stroke-width="2.3396" stroke-linecap="round" stroke-linejoin="round" stroke-miterlimit="10" x1="213.5" y1="121.1" x2="215.5" y2="115.7"/>
		
			<line fill="none" stroke="#4B6FF7" stroke-width="2.3396" stroke-linecap="round" stroke-linejoin="round" stroke-miterlimit="10" x1="60.9" y1="121.1" x2="62.8" y2="115.7"/>
		
			<path fill="none" stroke="#4B6FF7" stroke-width="2.3396" stroke-linecap="round" stroke-linejoin="round" stroke-miterlimit="10" d="
			M260.8,92.3c0,12.7-3.9,23-10.2,23s-10.2-10.3-10.2-23s3.9-23,10.2-23S260.8,79.6,260.8,92.3z"/>
		
			<path fill="none" stroke="#4B6FF7" stroke-width="2.3396" stroke-linecap="round" stroke-linejoin="round" stroke-miterlimit="10" d="
			M285.4,91.7c0,12.7-3.9,23-10.2,23c-6.3,0-10.2-10.3-10.2-23s3.9-23,10.2-23C281.5,68.8,285.4,79.1,285.4,91.7z"/>
		<path fill="none" stroke="#4B6FF7" stroke-width="2" stroke-linecap="round" stroke-linejoin="round" stroke-miterlimit="10" d="
			M193,70.4h17.6l-13.3,20.6c0,0,15.2-0.3,14.6,10.5s-2.4,16.6-18.9,13.3"/>
		
			<path fill="none" stroke="#4B6FF7" stroke-width="2.3396" stroke-linecap="round" stroke-linejoin="round" stroke-miterlimit="10" d="
			M14.6,106c0,0,1.1,12.4,9.3,10.6c3.5-0.8,6.2-3.6,7-7.1c0.7-3.2,0.5-7.7-3.1-13.1C21.1,86,14.7,77.6,22.5,69.7
			c1.1-1.1,2.6-1.7,4.2-1.5c2.2,0.3,4.8,2.1,5.2,9"/>
		
			<line fill="none" stroke="#4B6FF7" stroke-width="2" stroke-linecap="round" stroke-linejoin="round" stroke-miterlimit="10" x1="24" y1="61.4" x2="24" y2="123.4"/>
		
			<path fill="none" stroke="#4B6FF7" stroke-width="2.3396" stroke-linecap="round" stroke-linejoin="round" stroke-miterlimit="10" d="
			M167.3,106c0,0,1.1,12.4,9.3,10.6c3.5-0.8,6.2-3.6,7-7.1c0.7-3.2,0.5-7.7-3.1-13.1c-6.7-10.3-13.1-18.7-5.3-26.7
			c1.1-1.1,2.6-1.7,4.2-1.5c2.2,0.3,4.8,2.1,5.2,9"/>
		
			<line fill="none" stroke="#4B6FF7" stroke-width="2" stroke-linecap="round" stroke-linejoin="round" stroke-miterlimit="10" x1="177" y1="61.4" x2="177" y2="123.4"/>
		
			<line fill="none" stroke="#4B6FF7" stroke-width="2.3396" stroke-linecap="round" stroke-linejoin="round" stroke-miterlimit="10" x1="145.1" y1="91.7" x2="155.7" y2="91.7"/>
	</g>
</g>
</svg>
