<?xml version="1.0" encoding="utf-8"?>
<!-- Generator: Adobe Illustrator 17.1.0, SVG Export Plug-In . SVG Version: 6.00 Build 0)  -->
<!DOCTYPE svg PUBLIC "-//W3C//DTD SVG 1.1//EN" "http://www.w3.org/Graphics/SVG/1.1/DTD/svg11.dtd">
<svg version="1.1" id="Layer_1" xmlns="http://www.w3.org/2000/svg" xmlns:xlink="http://www.w3.org/1999/xlink" x="0px" y="0px"
	 viewBox="0 0 340 140" enable-background="new 0 0 340 140" xml:space="preserve">
<g>
	<g>
		
			<path fill="none" stroke="#FF7BAC" stroke-width="1.8233" stroke-linecap="round" stroke-linejoin="round" stroke-miterlimit="10" d="
			M241.3,34.3c0.1,7.1-2.7,12.2-6.1,12.3c-3.4,0-6.2-5.1-6.3-12.2c-0.1-7.1,2.7-12.2,6.1-12.3S241.2,27.2,241.3,34.3z"/>
		
			<path fill="none" stroke="#FF7BAC" stroke-width="1.8233" stroke-linecap="round" stroke-linejoin="round" stroke-miterlimit="10" d="
			M223.5,26.9c0,0-0.3-5.6-6.8-4.9c-7,0.8-6.4,23,0,24.6c7.5,1.9,8.1-4.8,7.9-4.5"/>
		<g>
			
				<polyline fill="none" stroke="#FF7BAC" stroke-width="1.8233" stroke-linecap="round" stroke-linejoin="round" stroke-miterlimit="10" points="
				40.6,23.6 47.6,31 53.7,23.7 			"/>
			
				<line fill="none" stroke="#FF7BAC" stroke-width="1.8233" stroke-linecap="round" stroke-linejoin="round" stroke-miterlimit="10" x1="47" y1="31" x2="47.2" y2="48"/>
		</g>
		
			<path fill="none" stroke="#FF7BAC" stroke-width="1.8233" stroke-linecap="round" stroke-linejoin="round" stroke-miterlimit="10" d="
			M95.8,47.6l-0.2-24.4c0,0,9.2-1.7,9,8.4c-0.2,0.1,0.7,5.9-6.7,5.5c0,0,10.1,11,12.9,10.3"/>
		
			<path fill="none" stroke="#FF7BAC" stroke-width="1.8233" stroke-linecap="round" stroke-linejoin="round" stroke-miterlimit="10" d="
			M77.6,23c0,0-2.2,25.6,5.7,25.3c7.9-0.4,6.4-25.5,6.4-25.5"/>
		
			<path fill="none" stroke="#FF7BAC" stroke-width="1.8233" stroke-linecap="round" stroke-linejoin="round" stroke-miterlimit="10" d="
			M72,35.7c0.1,7.1-2.7,12.2-6.1,12.3c-3.4,0-6.2-5.1-6.3-12.2s2.7-12.2,6.1-12.3C69.1,23.5,71.9,28.6,72,35.7z"/>
		
			<path fill="none" stroke="#FF7BAC" stroke-width="1.8233" stroke-linecap="round" stroke-linejoin="round" stroke-miterlimit="10" d="
			M149.8,35c0.1,7.1-2.7,12.2-6.1,12.3c-3.4,0-6.2-5.1-6.3-12.2c-0.1-7.1,2.7-12.2,6.1-12.3S149.7,28,149.8,35z"/>
		<g>
			
				<line fill="none" stroke="#FF7BAC" stroke-width="1.8233" stroke-linecap="round" stroke-linejoin="round" stroke-miterlimit="10" x1="262.1" y1="22" x2="262.3" y2="46.3"/>
			
				<line fill="none" stroke="#FF7BAC" stroke-width="1.8233" stroke-linecap="round" stroke-linejoin="round" stroke-miterlimit="10" x1="258.2" y1="22.3" x2="269.1" y2="22.2"/>
		</g>
		<g>
			
				<line fill="none" stroke="#FF7BAC" stroke-width="1.8233" stroke-linecap="round" stroke-linejoin="round" stroke-miterlimit="10" x1="126.6" y1="23.1" x2="126.8" y2="47.4"/>
			
				<line fill="none" stroke="#FF7BAC" stroke-width="1.8233" stroke-linecap="round" stroke-linejoin="round" stroke-miterlimit="10" x1="122.7" y1="23.4" x2="133.6" y2="23.3"/>
		</g>
		<g>
			
				<line fill="none" stroke="#FF7BAC" stroke-width="1.8233" stroke-linecap="round" stroke-linejoin="round" stroke-miterlimit="10" x1="159.4" y1="22.8" x2="159.6" y2="47.1"/>
			
				<line fill="none" stroke="#FF7BAC" stroke-width="1.8233" stroke-linecap="round" stroke-linejoin="round" stroke-miterlimit="10" x1="155.5" y1="23.1" x2="166.4" y2="23"/>
		</g>
		<g>
			
				<polyline fill="none" stroke="#FF7BAC" stroke-width="1.8233" stroke-linecap="round" stroke-linejoin="round" stroke-miterlimit="10" points="
				168.8,47.4 174.2,22.2 183.8,47.4 			"/>
			
				<line fill="none" stroke="#FF7BAC" stroke-width="1.8233" stroke-linecap="round" stroke-linejoin="round" stroke-miterlimit="10" x1="172" y1="35.8" x2="178.7" y2="35.7"/>
		</g>
		
			<polyline fill="none" stroke="#FF7BAC" stroke-width="1.8233" stroke-linecap="round" stroke-linejoin="round" stroke-miterlimit="10" points="
			189.2,22.6 189.4,47.8 200,47.7 		"/>
		
			<path fill="none" stroke="#FF7BAC" stroke-width="1.8233" stroke-linecap="round" stroke-linejoin="round" stroke-miterlimit="10" d="
			M245.6,41.6c0,0,0.7,6.7,5.1,5.7c1.9-0.4,3.3-2,3.7-3.9c0.3-1.7,0.2-4.2-1.7-7.1c-3.7-5.6-7.2-10.1-3-14.4
			c0.6-0.6,1.4-0.9,2.2-0.8c1.2,0.1,2.6,1.1,2.8,4.8"/>
		
			<path fill="none" stroke="#FF7BAC" stroke-width="1.8233" stroke-linecap="round" stroke-linejoin="round" stroke-miterlimit="10" d="
			M271.1,41.4c0,0,0.7,6.7,5.1,5.7c1.9-0.4,3.3-2,3.7-3.9c0.3-1.7,0.2-4.2-1.7-7.1c-3.7-5.6-7.2-10.1-3-14.4
			c0.6-0.6,1.4-0.9,2.2-0.8c1.2,0.1,2.6,1.1,2.8,4.8"/>
	</g>
	<circle fill="#FF7BAC" cx="297.1" cy="26.2" r="3.2"/>
	<circle fill="#FF7BAC" cx="296.9" cy="43.9" r="3.2"/>
</g>
<g>
	
		<path fill="none" stroke="#FF7BAC" stroke-width="2.3123" stroke-linecap="round" stroke-linejoin="round" stroke-miterlimit="10" d="
		M142,90.2c0,12.5-3.9,22.7-10.1,22.7c-6.2,0-10.1-10.2-10.1-22.7s3.9-22.7,10.1-22.7C138.1,67.6,142,77.7,142,90.2z"/>
	
		<path fill="none" stroke="#FF7BAC" stroke-width="2.3123" stroke-linecap="round" stroke-linejoin="round" stroke-miterlimit="10" d="
		M59.3,90.2c0,12.5-3.9,22.7-10.1,22.7s-10.1-10.2-10.1-22.7s3.9-22.7,10.1-22.7S59.3,77.7,59.3,90.2z"/>
	
		<line fill="none" stroke="#FF7BAC" stroke-width="2.3123" stroke-linecap="round" stroke-linejoin="round" stroke-miterlimit="10" x1="64" y1="113.6" x2="66" y2="108.2"/>
	
		<line fill="none" stroke="#FF7BAC" stroke-width="2.3123" stroke-linecap="round" stroke-linejoin="round" stroke-miterlimit="10" x1="231.7" y1="113.6" x2="233.6" y2="108.2"/>
	
		<path fill="none" stroke="#FF7BAC" stroke-width="2.3123" stroke-linecap="round" stroke-linejoin="round" stroke-miterlimit="10" d="
		M91.7,90.2c0,12.5-3.9,22.7-10.1,22.7c-6.2,0-10.1-10.2-10.1-22.7s3.9-22.7,10.1-22.7C87.8,67.6,91.7,77.7,91.7,90.2z"/>
	
		<path fill="none" stroke="#FF7BAC" stroke-width="2.3123" stroke-linecap="round" stroke-linejoin="round" stroke-miterlimit="10" d="
		M117.1,90.2c0,12.5-3.9,22.7-10.1,22.7c-6.2,0-10.1-10.2-10.1-22.7s3.9-22.7,10.1-22.7C113.3,67.6,117.1,77.7,117.1,90.2z"/>
	
		<path fill="none" stroke="#FF7BAC" stroke-width="2.3123" stroke-linecap="round" stroke-linejoin="round" stroke-miterlimit="10" d="
		M308.5,90.2c0,12.5-3.9,22.7-10.1,22.7s-10.1-10.2-10.1-22.7s3.9-22.7,10.1-22.7S308.5,77.7,308.5,90.2z"/>
	
		<path fill="none" stroke="#FF7BAC" stroke-width="2.3123" stroke-linecap="round" stroke-linejoin="round" stroke-miterlimit="10" d="
		M258.2,90.2c0,12.5-3.9,22.7-10.1,22.7S238,102.8,238,90.2s3.9-22.7,10.1-22.7S258.2,77.7,258.2,90.2z"/>
	
		<path fill="none" stroke="#FF7BAC" stroke-width="2.3123" stroke-linecap="round" stroke-linejoin="round" stroke-miterlimit="10" d="
		M283.6,90.2c0,12.5-3.9,22.7-10.1,22.7s-10.1-10.2-10.1-22.7s3.9-22.7,10.1-22.7S283.6,77.7,283.6,90.2z"/>
	<g>
		
			<path fill="none" stroke="#FF7BAC" stroke-width="2.3123" stroke-linecap="round" stroke-linejoin="round" stroke-miterlimit="10" d="
			M3,100.4c0,0,1.1,12.2,9.2,10.5c3.5-0.8,6.2-3.6,6.9-7c0.7-3.1,0.5-7.6-3-13c-6.6-10.2-13-18.5-5.2-26.4c1.1-1.1,2.6-1.7,4.1-1.5
			c2.2,0.3,4.7,2.1,5.1,8.9"/>
		
			<line fill="none" stroke="#FF7BAC" stroke-width="2" stroke-linecap="round" stroke-linejoin="round" stroke-miterlimit="10" x1="10.8" y1="57.4" x2="10.8" y2="117.4"/>
	</g>
	
		<line fill="none" stroke="#FF7BAC" stroke-width="2" stroke-linecap="round" stroke-linejoin="round" stroke-miterlimit="10" x1="322.8" y1="87.4" x2="337.8" y2="87.4"/>
	
		<line fill="none" stroke="#FF7BAC" stroke-width="2" stroke-linecap="round" stroke-linejoin="round" stroke-miterlimit="10" x1="152.8" y1="87.4" x2="166.8" y2="87.4"/>
	
		<line fill="none" stroke="#FF7BAC" stroke-width="2" stroke-linecap="round" stroke-linejoin="round" stroke-miterlimit="10" x1="330.8" y1="80.4" x2="330.8" y2="94.4"/>
	
		<line fill="none" stroke="#FF7BAC" stroke-width="2" stroke-linecap="round" stroke-linejoin="round" stroke-miterlimit="10" x1="28.8" y1="67.4" x2="28.8" y2="114.4"/>
	<path fill="none" stroke="#FF7BAC" stroke-width="2" stroke-linecap="round" stroke-linejoin="round" stroke-miterlimit="10" d="
		M227.8,67.4h-17v20.7c0,0,16.6-7.4,16.3,9.6c0,0,1.1,19.8-15.9,14"/>
	<path fill="none" stroke="#FF7BAC" stroke-width="2" stroke-linecap="round" stroke-linejoin="round" stroke-miterlimit="10" d="
		M183.8,67.4h17.1l-13.1,20.1c0,0,15-0.4,14.5,10.2s-2.2,16.6-18.6,13.4"/>
</g>
</svg>
