<?xml version="1.0" encoding="utf-8"?>
<!-- Generator: Adobe Illustrator 17.1.0, SVG Export Plug-In . SVG Version: 6.00 Build 0)  -->
<!DOCTYPE svg PUBLIC "-//W3C//DTD SVG 1.1//EN" "http://www.w3.org/Graphics/SVG/1.1/DTD/svg11.dtd">
<svg version="1.1" id="Layer_1" xmlns="http://www.w3.org/2000/svg" xmlns:xlink="http://www.w3.org/1999/xlink" x="0px" y="0px"
	 viewBox="0 0 300 140" enable-background="new 0 0 300 140" xml:space="preserve">
<g>
	<g>
		
			<path fill="none" stroke="#BC4242" stroke-width="1.8351" stroke-linecap="round" stroke-linejoin="round" stroke-miterlimit="10" d="
			M221.3,29.9c0.1,7.1-2.7,12.3-6.1,12.3c-3.4,0-6.3-5.1-6.3-12.2s2.7-12.3,6.1-12.3C218.4,17.7,221.3,22.8,221.3,29.9z"/>
		
			<path fill="none" stroke="#BC4242" stroke-width="1.8351" stroke-linecap="round" stroke-linejoin="round" stroke-miterlimit="10" d="
			M203.5,22.5c0,0-0.3-5.7-6.8-4.9c-7,0.8-6.4,23.2,0,24.8c7.6,1.9,8.1-4.8,8-4.5"/>
		<g>
			
				<polyline fill="none" stroke="#BC4242" stroke-width="1.8351" stroke-linecap="round" stroke-linejoin="round" stroke-miterlimit="10" points="
				19.3,19.2 26.4,26.6 32.5,19.3 			"/>
			
				<line fill="none" stroke="#BC4242" stroke-width="1.8351" stroke-linecap="round" stroke-linejoin="round" stroke-miterlimit="10" x1="25.8" y1="26.6" x2="26" y2="43.7"/>
		</g>
		
			<path fill="none" stroke="#BC4242" stroke-width="1.8351" stroke-linecap="round" stroke-linejoin="round" stroke-miterlimit="10" d="
			M74.9,43.3l-0.2-24.6c0,0,9.3-1.7,9.1,8.4c-0.2,0.1,0.7,5.9-6.7,5.5c0,0,10.2,11.1,13,10.3"/>
		
			<path fill="none" stroke="#BC4242" stroke-width="1.8351" stroke-linecap="round" stroke-linejoin="round" stroke-miterlimit="10" d="
			M56.6,18.6c0,0-2.2,25.8,5.8,25.4s6.5-25.6,6.5-25.6"/>
		
			<path fill="none" stroke="#BC4242" stroke-width="1.8351" stroke-linecap="round" stroke-linejoin="round" stroke-miterlimit="10" d="
			M50.9,31.3c0.1,7.1-2.7,12.3-6.1,12.3s-6.3-5.1-6.3-12.2s2.7-12.3,6.1-12.3C48,19.1,50.8,24.2,50.9,31.3z"/>
		
			<path fill="none" stroke="#BC4242" stroke-width="1.8351" stroke-linecap="round" stroke-linejoin="round" stroke-miterlimit="10" d="
			M129.2,30.7c0.1,7.1-2.7,12.3-6.1,12.3s-6.3-5.1-6.3-12.2s2.7-12.3,6.1-12.3S129.2,23.6,129.2,30.7z"/>
		<g>
			
				<line fill="none" stroke="#BC4242" stroke-width="1.8351" stroke-linecap="round" stroke-linejoin="round" stroke-miterlimit="10" x1="242.3" y1="17.5" x2="242.5" y2="42"/>
			
				<line fill="none" stroke="#BC4242" stroke-width="1.8351" stroke-linecap="round" stroke-linejoin="round" stroke-miterlimit="10" x1="238.3" y1="17.9" x2="249.3" y2="17.8"/>
		</g>
		<g>
			
				<line fill="none" stroke="#BC4242" stroke-width="1.8351" stroke-linecap="round" stroke-linejoin="round" stroke-miterlimit="10" x1="105.9" y1="18.6" x2="106.1" y2="43.1"/>
			
				<line fill="none" stroke="#BC4242" stroke-width="1.8351" stroke-linecap="round" stroke-linejoin="round" stroke-miterlimit="10" x1="101.9" y1="19" x2="112.9" y2="18.9"/>
		</g>
		<g>
			
				<line fill="none" stroke="#BC4242" stroke-width="1.8351" stroke-linecap="round" stroke-linejoin="round" stroke-miterlimit="10" x1="138.9" y1="18.4" x2="139.1" y2="42.8"/>
			
				<line fill="none" stroke="#BC4242" stroke-width="1.8351" stroke-linecap="round" stroke-linejoin="round" stroke-miterlimit="10" x1="135" y1="18.7" x2="146" y2="18.6"/>
		</g>
		<g>
			
				<polyline fill="none" stroke="#BC4242" stroke-width="1.8351" stroke-linecap="round" stroke-linejoin="round" stroke-miterlimit="10" points="
				148.4,43.1 153.8,17.8 163.4,43.1 			"/>
			
				<line fill="none" stroke="#BC4242" stroke-width="1.8351" stroke-linecap="round" stroke-linejoin="round" stroke-miterlimit="10" x1="151.6" y1="31.4" x2="158.3" y2="31.4"/>
		</g>
		
			<polyline fill="none" stroke="#BC4242" stroke-width="1.8351" stroke-linecap="round" stroke-linejoin="round" stroke-miterlimit="10" points="
			168.9,18.1 169.1,43.5 179.8,43.4 		"/>
		
			<path fill="none" stroke="#BC4242" stroke-width="1.8351" stroke-linecap="round" stroke-linejoin="round" stroke-miterlimit="10" d="
			M225.7,37.3c0,0,0.7,6.7,5.1,5.7c1.9-0.4,3.4-2,3.8-3.9c0.4-1.7,0.2-4.2-1.7-7.1c-3.7-5.6-7.2-10.1-3-14.5
			c0.6-0.6,1.4-0.9,2.2-0.8c1.2,0.1,2.6,1.1,2.8,4.8"/>
		
			<path fill="none" stroke="#BC4242" stroke-width="1.8351" stroke-linecap="round" stroke-linejoin="round" stroke-miterlimit="10" d="
			M251.3,37.1c0,0,0.7,6.7,5.1,5.7c1.9-0.4,3.4-2,3.8-3.9c0.4-1.7,0.2-4.2-1.7-7.1c-3.7-5.6-7.2-10.1-3-14.5
			c0.6-0.6,1.4-0.9,2.2-0.8c1.2,0.1,2.6,1.1,2.8,4.8"/>
	</g>
	<circle fill="#BC4242" cx="277.5" cy="21.8" r="3.2"/>
	<circle fill="#BC4242" cx="277.3" cy="39.6" r="3.2"/>
	<g>
		
			<path fill="none" stroke="#BC4242" stroke-width="2.3272" stroke-linecap="round" stroke-linejoin="round" stroke-miterlimit="10" d="
			M119.6,95.6c0,12.6-3.9,22.8-10.1,22.8s-10.1-10.2-10.1-22.8s3.9-22.8,10.1-22.8S119.6,82.9,119.6,95.6z"/>
		
			<path fill="none" stroke="#BC4242" stroke-width="2.3272" stroke-linecap="round" stroke-linejoin="round" stroke-miterlimit="10" d="
			M227.8,95.6c0,12.6-3.9,22.8-10.1,22.8c-6.2,0-10.1-10.2-10.1-22.8s3.9-22.8,10.1-22.8C223.9,72.7,227.8,82.9,227.8,95.6z"/>
		
			<path fill="none" stroke="#BC4242" stroke-width="2.3272" stroke-linecap="round" stroke-linejoin="round" stroke-miterlimit="10" d="
			M144.6,95.6c0,12.6-3.9,22.8-10.1,22.8s-10.1-10.2-10.1-22.8s3.9-22.8,10.1-22.8S144.6,82.9,144.6,95.6z"/>
		
			<line fill="none" stroke="#BC4242" stroke-width="2.3272" stroke-linecap="round" stroke-linejoin="round" stroke-miterlimit="10" x1="149.3" y1="119" x2="151.3" y2="113.6"/>
		
			<path fill="none" stroke="#BC4242" stroke-width="2.3272" stroke-linecap="round" stroke-linejoin="round" stroke-miterlimit="10" d="
			M177.2,95.6c0,12.6-3.9,22.8-10.1,22.8c-6.2,0-10.1-10.2-10.1-22.8s3.9-22.8,10.1-22.8C173.3,72.7,177.2,82.9,177.2,95.6z"/>
		
			<path fill="none" stroke="#BC4242" stroke-width="2.3272" stroke-linecap="round" stroke-linejoin="round" stroke-miterlimit="10" d="
			M202.8,95.6c0,12.6-3.9,22.8-10.1,22.8c-6.2,0-10.1-10.2-10.1-22.8s3.9-22.8,10.1-22.8C198.9,72.7,202.8,82.9,202.8,95.6z"/>
		<g>
			
				<path fill="none" stroke="#BC4242" stroke-width="2.3272" stroke-linecap="round" stroke-linejoin="round" stroke-miterlimit="10" d="
				M48.1,105.8c0,0,1.1,12.3,9.3,10.5c3.5-0.8,6.2-3.6,6.9-7.1c0.7-3.1,0.5-7.6-3.1-13.1c-6.7-10.3-13.1-18.6-5.3-26.5
				c1.1-1.1,2.6-1.7,4.1-1.5c2.2,0.3,4.8,2.1,5.1,8.9"/>
			
				<line fill="none" stroke="#BC4242" stroke-width="3" stroke-linecap="round" stroke-linejoin="round" stroke-miterlimit="10" x1="57.5" y1="61.4" x2="57.5" y2="123.4"/>
		</g>
		<path fill="none" stroke="#BC4242" stroke-width="2" stroke-linecap="round" stroke-linejoin="round" stroke-miterlimit="10" d="
			M75,73.4h22.2c0,0-19.6,31.4-19.6,45"/>
		
			<line fill="none" stroke="#BC4242" stroke-width="3" stroke-linecap="round" stroke-linejoin="round" stroke-miterlimit="10" x1="238" y1="93.9" x2="252" y2="93.9"/>
		
			<line fill="none" stroke="#BC4242" stroke-width="3" stroke-linecap="round" stroke-linejoin="round" stroke-miterlimit="10" x1="245.5" y1="86.4" x2="245.5" y2="101.4"/>
	</g>
</g>
</svg>
