<?xml version="1.0" encoding="utf-8"?>
<!-- Generator: Adobe Illustrator 17.1.0, SVG Export Plug-In . SVG Version: 6.00 Build 0)  -->
<!DOCTYPE svg PUBLIC "-//W3C//DTD SVG 1.1//EN" "http://www.w3.org/Graphics/SVG/1.1/DTD/svg11.dtd">
<svg version="1.1" id="Layer_1" xmlns="http://www.w3.org/2000/svg" xmlns:xlink="http://www.w3.org/1999/xlink" x="0px" y="0px"
	 viewBox="0 0 153 70" enable-background="new 0 0 153 70" xml:space="preserve">
<g>
	<path fill="none" stroke="#000000" stroke-linecap="round" stroke-linejoin="round" stroke-miterlimit="10" d="M113.9,21.2
		c0,0-0.1-3.3-5.6-2.9c-5.9,0.4-5.5,12.4-0.1,13.3c6.4,1.1,6.9-3.2,6.8-3.2h-5.5"/>
	
		<line fill="none" stroke="#000000" stroke-linecap="round" stroke-linejoin="round" stroke-miterlimit="10" x1="42" y1="19" x2="42" y2="32"/>
	
		<line fill="none" stroke="#000000" stroke-linecap="round" stroke-linejoin="round" stroke-miterlimit="10" x1="38.5" y1="18.5" x2="47.5" y2="18.5"/>
	<path fill="none" stroke="#000000" stroke-linecap="round" stroke-linejoin="round" stroke-miterlimit="10" d="M52.1,18.7
		c0,0-2.4,13.6,2.7,13.3c5.2-0.4,3.4-13.3,3.4-13.3"/>
	
		<line fill="none" stroke="#000000" stroke-linecap="round" stroke-linejoin="round" stroke-miterlimit="10" x1="88" y1="19" x2="88" y2="32"/>
	<polyline fill="none" stroke="#000000" stroke-linecap="round" stroke-linejoin="round" stroke-miterlimit="10" points="83,19 
		83,32 75,18.7 75,19 75,32 	"/>
	<polyline fill="none" stroke="#000000" stroke-linecap="round" stroke-linejoin="round" stroke-miterlimit="10" points="101,19 
		101,32 93,18.7 93,19 93,32 	"/>
	<polyline fill="none" stroke="#000000" stroke-linecap="round" stroke-linejoin="round" stroke-miterlimit="10" points="70,38 
		70,51 62,37.7 62,38 62,51 	"/>
	<path fill="none" stroke="#000000" stroke-linecap="round" stroke-linejoin="round" stroke-miterlimit="10" d="M62,32V19.1
		c0,0,6.1-0.9,5.9,4.5c-0.2,0.1,0.4,3.2-4.6,2.9c0,0,6.9,5.9,8.8,5.5"/>
	<polyline fill="none" stroke="#000000" stroke-linecap="round" stroke-linejoin="round" stroke-miterlimit="10" points="59.5,37.5 
		54,37.5 54,51.5 59.5,51.5 	"/>
	
		<line fill="none" stroke="#000000" stroke-linecap="round" stroke-linejoin="round" stroke-miterlimit="10" x1="54.5" y1="44.5" x2="58.5" y2="44.5"/>
	
		<line fill="none" stroke="#000000" stroke-linecap="round" stroke-linejoin="round" stroke-miterlimit="10" x1="75" y1="38" x2="75" y2="51"/>
	
		<line fill="none" stroke="#000000" stroke-linecap="round" stroke-linejoin="round" stroke-miterlimit="10" x1="71.5" y1="37.5" x2="78.5" y2="37.5"/>
	
		<line fill="none" stroke="#000000" stroke-linecap="round" stroke-linejoin="round" stroke-miterlimit="10" x1="36" y1="38" x2="36" y2="51"/>
	
		<line fill="none" stroke="#000000" stroke-linecap="round" stroke-linejoin="round" stroke-miterlimit="10" x1="32.5" y1="37.5" x2="39.5" y2="37.5"/>
	<polyline fill="none" stroke="#000000" stroke-linecap="round" stroke-linejoin="round" stroke-miterlimit="10" points="51,38 
		51,51 47.4,48.5 47.3,48.5 43,51 43,38 	"/>
	<polyline fill="none" stroke="#000000" stroke-linecap="round" stroke-linejoin="round" stroke-miterlimit="10" points="84,51 
		84,42.1 81.3,37.4 	"/>
	
		<line fill="none" stroke="#000000" stroke-linecap="round" stroke-linejoin="round" stroke-miterlimit="10" x1="84.2" y1="41.9" x2="87.4" y2="37.4"/>
	
		<line fill="none" stroke="#000000" stroke-linecap="round" stroke-linejoin="round" stroke-miterlimit="10" x1="107" y1="38" x2="107" y2="51"/>
	
		<line fill="none" stroke="#000000" stroke-width="1.0725" stroke-linecap="round" stroke-linejoin="round" stroke-miterlimit="10" x1="118.7" y1="37.5" x2="109.8" y2="51"/>
	
		<line fill="none" stroke="#000000" stroke-width="1.0725" stroke-linecap="round" stroke-linejoin="round" stroke-miterlimit="10" x1="120.8" y1="50.9" x2="112.1" y2="37.5"/>
	<path fill="none" stroke="#000000" stroke-linecap="round" stroke-linejoin="round" stroke-miterlimit="10" d="M95.7,48.8
		c0,0-0.1,3.6,4.3,2.7c1.9-0.4,2.7-1.1,3.1-2.1c0.3-1,0.7-2.6-1.3-4c-3.9-2.7-6.3-5.1-3.4-7.6c0.5-0.5,1.4-0.6,2.2-0.6
		c1.2,0,2.7,0.4,3,2.4"/>
	
		<line fill="none" stroke="#000000" stroke-linecap="round" stroke-linejoin="round" stroke-miterlimit="10" x1="89.6" y1="43.7" x2="92.9" y2="43.8"/>
</g>
</svg>
