<?xml version="1.0" encoding="utf-8"?>
<!-- Generator: Adobe Illustrator 17.1.0, SVG Export Plug-In . SVG Version: 6.00 Build 0)  -->
<!DOCTYPE svg PUBLIC "-//W3C//DTD SVG 1.1//EN" "http://www.w3.org/Graphics/SVG/1.1/DTD/svg11.dtd">
<svg version="1.1" id="Layer_1" xmlns="http://www.w3.org/2000/svg" xmlns:xlink="http://www.w3.org/1999/xlink" x="0px" y="0px"
	 viewBox="0 0 45 45" enable-background="new 0 0 45 45" xml:space="preserve">
<path fill="#D82525" stroke="#000000" stroke-miterlimit="10" d="M13.5,25.5h6.1h2l0.2,1.6l-0.9,4.1l-2.3,2.2L18.2,39l2,1.8
	c0,0,2.5,0.7,3.6,0c1.1-0.7,2-0.7,2-0.7l3.6-1.6l2.7-1.9l2.5-3.8l-1.1-3.6l-2-5l-3.3-3.9l-4.9-1.8v-2.7l1.3-3.9l-1-2.5l-2.2-0.9
	l-1-3.2l-2-0.7l-4.3,1.1l-2.8,1.6V11l1.5,2.5l0.5,1.4v2.3l1.1,0.9l-1.4,0.2l-1.9,0.2L11,19.4l-0.8,3.2l1,1.8L13.5,25.5z"/>
</svg>
