<?xml version="1.0" encoding="utf-8"?>
<!-- Generator: Adobe Illustrator 17.1.0, SVG Export Plug-In . SVG Version: 6.00 Build 0)  -->
<!DOCTYPE svg PUBLIC "-//W3C//DTD SVG 1.1//EN" "http://www.w3.org/Graphics/SVG/1.1/DTD/svg11.dtd">
<svg version="1.1" id="Layer_1" xmlns="http://www.w3.org/2000/svg" xmlns:xlink="http://www.w3.org/1999/xlink" x="0px" y="0px"
	 viewBox="0 0 325 325" enable-background="new 0 0 325 325" xml:space="preserve">
<g>
	<path stroke="#000000" stroke-width="0.6811" stroke-miterlimit="10" d="M36.6,304.8c-2.9-1.9-4.6-6.3-3.6-8.9
		c0.5-1.3,2.6-2.3,4.4-1.9c1.9,0.3,3.3,1.9,3.3,3.8C40.7,300.9,39.3,303.3,36.6,304.8z M37,301.5c1.8-3.2,1.4-4.2-2.2-5.1
		C34.9,298.4,35.4,300,37,301.5z"/>
	<path stroke="#000000" stroke-width="0.6811" stroke-miterlimit="10" d="M29.1,282.8c2.3,0.9,3.6,2.3,4.3,4.5
		c0.5,1.7,0.1,2.9-1.3,3.8c-1.4,0.9-4.1,0.7-5.1-0.3C24.4,288.1,25.1,285.2,29.1,282.8z M28.2,285.3c-0.2,2.6,0.5,3.4,3.2,3.1
		C30.1,287.2,29.4,286.5,28.2,285.3z"/>
	<path stroke="#000000" stroke-width="0.6811" stroke-miterlimit="10" d="M23.3,285.7c0,1.3-1.3,2.5-2.6,2.6
		c-1.4,0.1-4.1-2.7-4.1-4.1c0-1.4,1.5-2.7,2.9-2.7C21.3,281.6,23.3,283.9,23.3,285.7z M20.7,285.8c0.2-0.3,0.4-0.6,0.6-1
		c-0.4-1-1-1.6-3-0.7C19.3,284.9,20,285.3,20.7,285.8z"/>
	<path stroke="#000000" stroke-width="0.6811" stroke-miterlimit="10" d="M12.4,281.9c0.6,1.1,1.5,2.1,1.8,3.3
		c0.2,0.7-0.5,2-1.1,2.3c-0.7,0.4-2,0.2-2.7-0.3c-0.4-0.3-0.5-1.5-0.4-2.3c0.2-1,0.8-1.9,1.3-2.9C11.6,282,12,282,12.4,281.9z"/>
	<path fill="#F25C5C" stroke="#000000" stroke-miterlimit="10" d="M321.4,209.3c-0.5,0.3-1,0.7-1.5,0.8c-2.3,0.3-4,1.6-4.8,3.6
		c-2.1,4.7-6.2,6.5-10.6,7c-8.9,0.9-13.5,9.3-14,17.3c-0.2,2.9-0.6,5.9-0.8,8.8c-0.1,1.5-0.8,2.4-2.4,2.9c-1.5,0.5-2.8,1.4-4.3,2.1
		c-1.1,0.5-2.3,0.9-3.5,1c-8.2,0.7-10.8,6-9.7,13.7c0.6,3.8,1.2,7.5,0.2,11.5c-2.9-0.7-5.4-1.6-6.6-4.6c-1.3-3-2.9-6-4.5-8.9
		c-1.1-2.1-2.9-3.1-5.4-3.3c-3.8-0.3-7.1,0.2-9.8,3.1c-1.5,1.6-3.1,1.5-5.1,1c-2.8-0.7-5.7-1.2-8.6-1.6c-2.5-0.3-4.6,0.5-5.9,2.8
		c-0.5,0.8-1.2,1.6-1.9,2.3c-2.3,2.3-5,2.5-7.6,0.6c-2.4-1.7-4.5-3.8-7-5.3c-1.4-0.9-3.1-1.5-4.7-1.5c-4-0.1-7.5-1-9.7-4.7
		c-2.2-3.7-6.2-4.1-10-4.5c-3.4-0.4-6.9-0.4-10.3-0.7c-2.4-0.2-4.4-1.2-5.7-3.5c-0.5-0.9-2.2-1.4-3.4-1.8c-4.6-1.2-8.9-2.8-12.4-6
		c-5.2-4.8-8.1-11-9.5-17.8c-1-5.1-1.7-10.2-0.6-15.4c0.2-0.9,0.1-2,0.1-2.9c0.1-5.4,1.1-10.6,4.9-14.8c2.7-3,2.6-7.1,3.5-10.7
		c0.4-1.4,0.6-2.8,1-4.6c3.3,0.5,6.3,1.1,9.3,1.5c4,0.5,8.1,0.6,12.1,1.1c3.2,0.3,6.3,0.9,9.4,1.4c5.7,0.9,11.2,2.9,17,2.7
		c6,2.6,12.4,0.8,18.5,2c1.9,0.4,3.9-0.3,5.8,0c5.1,0.8,10.1,1.8,15.1,2.7c2.5,0.4,5,0.9,7.6,1.2c3.8,0.5,6.6,2.2,8,6.1
		c0.3,1,1.4,1.9,2.4,2.4c2.3,1.3,3,2.5,2.4,5c-0.3,1.1-0.6,2.2-1.1,3.1c-1.2,2.2-0.5,4.4,0.3,6.4c0.8,1.9,2.4,2.1,3.7,0.6
		c1.5-1.6,2.8-3.4,4.3-5c0.6-0.6,1.7-1.2,2.4-1.1c2.7,0.3,5.2,4.2,4.5,6.8c-0.7,2.9,0.8,5.1,3.7,4.7c3.1-0.4,6.3-1.1,8.9-3.1
		c1-0.8,2.3-1.1,3.6-1.5c3.1-0.9,6.5-1.3,8.9-3.7c1.4-1.4,3.1-1.9,5-1.9c1.6,0,3.2,0,4.8,0.2c2.2,0.4,4.1,0.2,5.8-1.3
		c0.6-0.5,1.5-0.8,2.3-1c1.5-0.4,2.6-0.1,3.3,1.4C319.9,206.9,320.7,208,321.4,209.3z"/>
	<path fill="#F25C5C" stroke="#000000" stroke-miterlimit="10" d="M5.7,138c3.5-2.8,7.6-3.3,11.5-4c3.3-0.5,6.6-0.4,9.9-0.9
		c3-0.5,5.9-1.4,8.8-2.2c0.6-0.2,1.2-0.4,1.7-0.5c6.6-1.3,12.3-4.7,18.2-7.5c5.2-2.5,9.8-6.3,14.4-10c2-1.6,3.4-4.2,4.7-6.5
		c1.1-1.9,0.3-3.9-0.7-5.6c-1.6-2.7-3.2-5.5-5-8.1c-5.2-7.3-2-15.7,3.5-19c1.8-1.1,4.1-1.5,6.2-2.1c1.9-0.6,3.8-0.9,5.6-1.8
		c2.6-1.3,2.9-4.1,0.6-5.9c-1.1-0.9-2.7-1.2-3.9-2c-1.3-0.8-2.8-1.5-3.8-2.7c-2.4-2.7-2.2-3.6,0.4-6.2c1-1,2-2.2,3.2-3.1
		c2.5-1.8,5.2-2.7,8.3-2.1c2.4,0.4,4.9,0.7,7.3,0.7c2.8,0,3.4-0.7,3.4-3.6c0-1.5-0.1-2.9-0.2-4.4c-0.4-4.7,1.8-8.3,5.5-10.5
		c3.3-2,7.1-3.2,10.8-4.5c4-1.5,8.1-2.8,12.2-3.9c2.6-0.7,5.3-1.1,8-1.4c3-0.4,5.6,0.7,7.6,3c0.8,0.9,1.8,1.7,2.5,2.8
		c1.1,1.7,2.7,2.5,4.6,2.8c5.8,0.9,9.4,4.3,11.6,9.6c0.8,1.9,2.2,3.5,3.5,5.6c-0.1,0.3-0.2,1.1-0.6,1.6c-4.6,4.7-6.8,10.8-9.9,16.3
		c-3.1,5.7-6.1,11.5-9.2,17.2c-0.5,0.9-0.9,1.8-1.3,2.7c-3.1,7.5-7.7,14.2-11.9,21.1c-2.8,4.6-0.5,10.2,4.9,11.3
		c1.4,0.3,2.9,0.3,4.4,0.2c2.4-0.2,2.9,0,3,2.4c0.2,2.6,0.4,5.2-0.1,7.7c-0.7,4.4,0.9,7.9,2.9,11.5c2.3,4.1,2.7,8.7-0.3,13.6
		c-1.5-2.3-3-4.4-4.2-6.6c-1.9-3.6-3.6-7.3-5.3-11c-0.5-1.1-0.9-2.4-0.9-3.5c0.1-4.4-1.4-8.4-3.4-12.2c-2.8-5.4-7.4-8.2-13.4-9
		c-5.9-0.8-11.5-0.3-17,1.8c-1.4,0.5-2.9,1.3-4,2.4c-1.8,1.7-3.5,3.5-4.8,5.5c-1.4,2.1-3.5,2.8-5.7,3c-3.1,0.2-6.3-0.1-9.3-1.5
		c-2.7-1.3-4.4-1-6.1,1.2c-3.2,4.1-7.3,6.4-12,8.2c-4.4,1.6-8.5,3.8-12.7,5.7c-0.4,0.2-0.9,0.6-1.3,0.6c-6.5,0.2-12.3,3.2-18.5,4.5
		c-1.8,0.4-3.6,0.6-5.5,0.8c-4.3,0.5-8.5,0.9-12.8,1.4C7.6,141.1,7.6,141.2,5.7,138z"/>
	<path fill="#F25C5C" stroke="#000000" stroke-miterlimit="10" d="M37,301.5c-1.7-1.5-2.1-3.1-2.2-5.1
		C38.4,297.4,38.8,298.3,37,301.5z"/>
	<path fill="#F25C5C" stroke="#000000" stroke-miterlimit="10" d="M28.2,285.3c1.2,1.1,2,1.9,3.2,3.1
		C28.6,288.8,27.9,287.9,28.2,285.3z"/>
	<path fill="#F25C5C" stroke="#000000" stroke-miterlimit="10" d="M20.7,285.8c-0.7-0.5-1.4-0.9-2.4-1.7c1.9-0.9,2.6-0.3,3,0.7
		C21.1,285.2,20.9,285.5,20.7,285.8z"/>
</g>
</svg>
