<?xml version="1.0" encoding="utf-8"?>
<!-- Generator: Adobe Illustrator 17.1.0, SVG Export Plug-In . SVG Version: 6.00 Build 0)  -->
<!DOCTYPE svg PUBLIC "-//W3C//DTD SVG 1.1//EN" "http://www.w3.org/Graphics/SVG/1.1/DTD/svg11.dtd">
<svg version="1.1" id="Layer_1" xmlns="http://www.w3.org/2000/svg" xmlns:xlink="http://www.w3.org/1999/xlink" x="0px" y="0px"
	 viewBox="0 0 500 500" enable-background="new 0 0 500 500" xml:space="preserve">
<g>
	
		<line fill="none" stroke="#7D5E99" stroke-width="7" stroke-linecap="round" stroke-linejoin="round" stroke-miterlimit="10" x1="77.5" y1="158" x2="77.5" y2="243"/>
	
		<line fill="none" stroke="#7D5E99" stroke-width="7" stroke-linecap="round" stroke-linejoin="round" stroke-miterlimit="10" x1="103.5" y1="158" x2="103.5" y2="243"/>
	
		<line fill="none" stroke="#7D5E99" stroke-width="7" stroke-linecap="round" stroke-linejoin="round" stroke-miterlimit="10" x1="80" y1="199.5" x2="102" y2="199.5"/>
	
		<polyline fill="none" stroke="#7D5E99" stroke-width="7" stroke-linecap="round" stroke-linejoin="round" stroke-miterlimit="10" points="
		135,156.5 116.5,156.5 116.5,243.5 135,243.5 	"/>
	
		<polyline fill="none" stroke="#7D5E99" stroke-width="7" stroke-linecap="round" stroke-linejoin="round" stroke-miterlimit="10" points="
		187.5,158 187.5,243.5 209,243.5 	"/>
	
		<polyline fill="none" stroke="#7D5E99" stroke-width="7" stroke-linecap="round" stroke-linejoin="round" stroke-miterlimit="10" points="
		292.5,257 292.5,342.5 314,342.5 	"/>
	
		<line fill="none" stroke="#7D5E99" stroke-width="7" stroke-linecap="round" stroke-linejoin="round" stroke-miterlimit="10" x1="222.5" y1="158" x2="222.5" y2="243"/>
	
		<line fill="none" stroke="#7D5E99" stroke-width="7" stroke-linecap="round" stroke-linejoin="round" stroke-miterlimit="10" x1="247.5" y1="158" x2="247.5" y2="243"/>
	
		<line fill="none" stroke="#7D5E99" stroke-width="7" stroke-linecap="round" stroke-linejoin="round" stroke-miterlimit="10" x1="270.5" y1="158" x2="270.5" y2="243"/>
	<g>
		
			<line fill="none" stroke="#7D5E99" stroke-width="6.7263" stroke-linecap="round" stroke-linejoin="round" stroke-miterlimit="10" x1="90.9" y1="340.6" x2="77.3" y2="256.4"/>
		
			<line fill="none" stroke="#7D5E99" stroke-width="6.7263" stroke-linecap="round" stroke-linejoin="round" stroke-miterlimit="10" x1="103.6" y1="256.3" x2="91.7" y2="340.7"/>
	</g>
	<path fill="none" stroke="#7D5E99" stroke-width="7" stroke-linecap="round" stroke-linejoin="round" stroke-miterlimit="10" d="
		M362.5,243v-86c0,0,19.2-5.7,18.5,29.1c-0.5,0.3,0.9,20.4-15.2,18.7c0,0,22.8,39.1,28.9,36.6"/>
	<path fill="none" stroke="#7D5E99" stroke-width="7" stroke-linecap="round" stroke-linejoin="round" stroke-miterlimit="10" d="
		M366.5,342v-86.5c0,0,19.3-5.7,18.6,29.1c-0.5,0.3,0.9,20.4-15.2,18.7c0,0,22.7,39.4,28.9,36.9"/>
	<path fill="none" stroke="#7D5E99" stroke-width="7" stroke-linecap="round" stroke-linejoin="round" stroke-miterlimit="10" d="
		M223.5,343v-86.4c0,0,19.5-5.7,18.9,29.1c-0.5,0.3,0.5,20.8-15.5,19.1"/>
	
		<line fill="none" stroke="#7D5E99" stroke-width="7" stroke-linecap="round" stroke-linejoin="round" stroke-miterlimit="10" x1="118" y1="199.5" x2="130" y2="199.5"/>
	
		<polyline fill="none" stroke="#7D5E99" stroke-width="7" stroke-linecap="round" stroke-linejoin="round" stroke-miterlimit="10" points="
		420,156.5 403.5,156.5 403.5,243.5 420,243.5 	"/>
	
		<line fill="none" stroke="#7D5E99" stroke-width="7" stroke-linecap="round" stroke-linejoin="round" stroke-miterlimit="10" x1="406" y1="199.5" x2="417" y2="199.5"/>
	
		<line fill="none" stroke="#7D5E99" stroke-width="7" stroke-linecap="round" stroke-linejoin="round" stroke-miterlimit="10" x1="213" y1="156.5" x2="237" y2="156.5"/>
	
		<line fill="none" stroke="#7D5E99" stroke-width="7" stroke-linecap="round" stroke-linejoin="round" stroke-miterlimit="10" x1="248" y1="202.5" x2="271" y2="202.5"/>
	
		<path fill="none" stroke="#7D5E99" stroke-width="6.7263" stroke-linecap="round" stroke-linejoin="round" stroke-miterlimit="10" d="
		M308.5,173.8c0,0-0.5-19.4-14.8-17.1c-15.2,2.5-14.3,79.2-0.5,84.8c16.5,6.7,17.7-16.2,17.4-15.4"/>
	
		<path fill="none" stroke="#7D5E99" stroke-width="6.7263" stroke-linecap="round" stroke-linejoin="round" stroke-miterlimit="10" d="
		M173.4,272.3c0,0-0.5-19.4-14.8-17.1c-15.2,2.5-14.3,79.2-0.5,84.8c16.5,6.7,17.7-16.2,17.4-15.4"/>
	
		<polyline fill="none" stroke="#7D5E99" stroke-width="6.7263" stroke-linecap="round" stroke-linejoin="round" stroke-miterlimit="10" points="
		146.6,243.3 158.9,156.7 179.3,243.7 	"/>
	
		<line fill="none" stroke="#7D5E99" stroke-width="7" stroke-linecap="round" stroke-linejoin="round" stroke-miterlimit="10" x1="154" y1="199.5" x2="169" y2="199.5"/>
	
		<polyline fill="none" stroke="#7D5E99" stroke-width="6.7263" stroke-linecap="round" stroke-linejoin="round" stroke-miterlimit="10" points="
		319.2,243.3 331.5,156.7 352,243.7 	"/>
	
		<line fill="none" stroke="#7D5E99" stroke-width="7" stroke-linecap="round" stroke-linejoin="round" stroke-miterlimit="10" x1="327" y1="199.5" x2="340" y2="199.5"/>
	
		<polyline fill="none" stroke="#7D5E99" stroke-width="6.7263" stroke-linecap="round" stroke-linejoin="round" stroke-miterlimit="10" points="
		324.4,341.8 336.7,255.2 357.2,342.2 	"/>
	
		<line fill="none" stroke="#7D5E99" stroke-width="7" stroke-linecap="round" stroke-linejoin="round" stroke-miterlimit="10" x1="331" y1="298.5" x2="346" y2="298.5"/>
	
		<polyline fill="none" stroke="#7D5E99" stroke-width="6.7263" stroke-linecap="round" stroke-linejoin="round" stroke-miterlimit="10" points="
		183,341.8 195.3,255.2 215.8,342.2 	"/>
	
		<line fill="none" stroke="#7D5E99" stroke-width="7" stroke-linecap="round" stroke-linejoin="round" stroke-miterlimit="10" x1="190" y1="298.5" x2="204" y2="298.5"/>
	
		<path fill="none" stroke="#7D5E99" stroke-width="6.7263" stroke-linecap="round" stroke-linejoin="round" stroke-miterlimit="10" d="
		M139.7,298.5c0,24.4-6.1,42.1-13.5,42.1c-7.5,0-13.5-17.7-13.5-42.1c0-24.4,6.1-42.1,13.5-42.1
		C133.7,256.4,139.7,274.1,139.7,298.5z"/>
	
		<path fill="none" stroke="#7D5E99" stroke-width="6.7263" stroke-linecap="round" stroke-linejoin="round" stroke-miterlimit="10" d="
		M227.6,305.3c0,0,19-4.4,18.4,22.4c-0.5,0.3,0.8,15.7-15.3,14.4"/>
	
		<path fill="none" stroke="#7D5E99" stroke-width="6.7263" stroke-linecap="round" stroke-linejoin="round" stroke-miterlimit="10" d="
		M253.9,254.8c0,0-5.2,88.4,12.1,87.3c17.3-1,14.6-87.7,14.6-87.7"/>
	<g>
		
			<polyline fill="none" stroke="#7D5E99" stroke-width="6.7263" stroke-linecap="round" stroke-linejoin="round" stroke-miterlimit="10" points="
			394,255.5 409.2,281.2 422.7,256.2 		"/>
		
			<line fill="none" stroke="#7D5E99" stroke-width="7" stroke-linecap="round" stroke-linejoin="round" stroke-miterlimit="10" x1="408.5" y1="281" x2="408.5" y2="340"/>
	</g>
</g>
</svg>
