<?xml version="1.0" encoding="utf-8"?>
<!-- Generator: Adobe Illustrator 17.1.0, SVG Export Plug-In . SVG Version: 6.00 Build 0)  -->
<!DOCTYPE svg PUBLIC "-//W3C//DTD SVG 1.1//EN" "http://www.w3.org/Graphics/SVG/1.1/DTD/svg11.dtd">
<svg version="1.1" id="Layer_1" xmlns="http://www.w3.org/2000/svg" xmlns:xlink="http://www.w3.org/1999/xlink" x="0px" y="0px"
	 viewBox="0 0 500 500" enable-background="new 0 0 500 500" xml:space="preserve">
<g>
	
		<line fill="none" stroke="#7D5E99" stroke-width="9" stroke-linecap="round" stroke-linejoin="round" stroke-miterlimit="10" x1="19.5" y1="127" x2="19.5" y2="240"/>
	
		<line fill="none" stroke="#7D5E99" stroke-width="9" stroke-linecap="round" stroke-linejoin="round" stroke-miterlimit="10" x1="53.5" y1="127" x2="53.5" y2="240"/>
	
		<line fill="none" stroke="#7D5E99" stroke-width="9" stroke-linecap="round" stroke-linejoin="round" stroke-miterlimit="10" x1="22" y1="182.5" x2="52" y2="182.5"/>
	
		<polyline fill="none" stroke="#7D5E99" stroke-width="9" stroke-linecap="round" stroke-linejoin="round" stroke-miterlimit="10" points="
		96,125.5 71.5,125.5 71.5,241.5 96,241.5 	"/>
	
		<polyline fill="none" stroke="#7D5E99" stroke-width="9" stroke-linecap="round" stroke-linejoin="round" stroke-miterlimit="10" points="
		166.5,127 166.5,241.5 195,241.5 	"/>
	
		<polyline fill="none" stroke="#7D5E99" stroke-width="9" stroke-linecap="round" stroke-linejoin="round" stroke-miterlimit="10" points="
		307.5,259 307.5,373.5 336,373.5 	"/>
	
		<line fill="none" stroke="#7D5E99" stroke-width="9" stroke-linecap="round" stroke-linejoin="round" stroke-miterlimit="10" x1="213.5" y1="127" x2="213.5" y2="240"/>
	
		<line fill="none" stroke="#7D5E99" stroke-width="9" stroke-linecap="round" stroke-linejoin="round" stroke-miterlimit="10" x1="246.5" y1="127" x2="246.5" y2="240"/>
	
		<line fill="none" stroke="#7D5E99" stroke-width="9" stroke-linecap="round" stroke-linejoin="round" stroke-miterlimit="10" x1="277.5" y1="127" x2="277.5" y2="240"/>
	<g>
		
			<line fill="none" stroke="#7D5E99" stroke-width="9" stroke-linecap="round" stroke-linejoin="round" stroke-miterlimit="10" x1="37.2" y1="371.2" x2="18.9" y2="258.6"/>
		
			<line fill="none" stroke="#7D5E99" stroke-width="9" stroke-linecap="round" stroke-linejoin="round" stroke-miterlimit="10" x1="54.1" y1="258.4" x2="38.1" y2="371.4"/>
	</g>
	<path fill="none" stroke="#7D5E99" stroke-width="9" stroke-linecap="round" stroke-linejoin="round" stroke-miterlimit="10" d="
		M400.5,240V125.6c0,0,25.7-7.6,24.8,39c-0.7,0.4,1.2,27.2-20.3,25c0,0,30.5,52,38.7,48.7"/>
	<path fill="none" stroke="#7D5E99" stroke-width="9" stroke-linecap="round" stroke-linejoin="round" stroke-miterlimit="10" d="
		M406.5,373V257.4c0,0,25.5-7.6,24.5,39c-0.7,0.4,1,27.2-20.4,25c0,0,30.7,52.6,38.9,49.3"/>
	<path fill="none" stroke="#7D5E99" stroke-width="9" stroke-linecap="round" stroke-linejoin="round" stroke-miterlimit="10" d="
		M214.5,375V258.8c0,0,26.2-7.6,25.2,39c-0.7,0.4,0.7,28.1-20.8,25.8"/>
	
		<line fill="none" stroke="#7D5E99" stroke-width="9" stroke-linecap="round" stroke-linejoin="round" stroke-miterlimit="10" x1="73" y1="182.5" x2="90" y2="182.5"/>
	
		<polyline fill="none" stroke="#7D5E99" stroke-width="9" stroke-linecap="round" stroke-linejoin="round" stroke-miterlimit="10" points="
		477,125.5 455.5,125.5 455.5,241.5 477,241.5 	"/>
	
		<line fill="none" stroke="#7D5E99" stroke-width="9" stroke-linecap="round" stroke-linejoin="round" stroke-miterlimit="10" x1="459" y1="182.5" x2="474" y2="182.5"/>
	
		<line fill="none" stroke="#7D5E99" stroke-width="9" stroke-linecap="round" stroke-linejoin="round" stroke-miterlimit="10" x1="200" y1="125.5" x2="232" y2="125.5"/>
	
		<line fill="none" stroke="#7D5E99" stroke-width="9" stroke-linecap="round" stroke-linejoin="round" stroke-miterlimit="10" x1="247" y1="186.5" x2="278" y2="186.5"/>
	<path fill="none" stroke="#7D5E99" stroke-width="9" stroke-linecap="round" stroke-linejoin="round" stroke-miterlimit="10" d="
		M328.3,148.1c0,0-0.7-26-19.8-22.8c-20.4,3.3-19.2,106-0.6,113.5c22.1,9,23.7-21.7,23.3-20.5"/>
	<path fill="none" stroke="#7D5E99" stroke-width="9" stroke-linecap="round" stroke-linejoin="round" stroke-miterlimit="10" d="
		M147.4,279.9c0,0-0.7-26-19.8-22.8c-20.4,3.3-19.2,106-0.6,113.5c22.1,9,23.7-21.7,23.3-20.5"/>
	
		<polyline fill="none" stroke="#7D5E99" stroke-width="9" stroke-linecap="round" stroke-linejoin="round" stroke-miterlimit="10" points="
		111.6,241.1 128.1,125.1 155.4,241.5 	"/>
	
		<line fill="none" stroke="#7D5E99" stroke-width="9" stroke-linecap="round" stroke-linejoin="round" stroke-miterlimit="10" x1="121" y1="182.5" x2="141" y2="182.5"/>
	
		<polyline fill="none" stroke="#7D5E99" stroke-width="9" stroke-linecap="round" stroke-linejoin="round" stroke-miterlimit="10" points="
		342.6,241.1 359,125.1 386.4,241.5 	"/>
	
		<line fill="none" stroke="#7D5E99" stroke-width="9" stroke-linecap="round" stroke-linejoin="round" stroke-miterlimit="10" x1="353" y1="182.5" x2="371" y2="182.5"/>
	
		<polyline fill="none" stroke="#7D5E99" stroke-width="9" stroke-linecap="round" stroke-linejoin="round" stroke-miterlimit="10" points="
		349.6,372.9 366,256.9 393.4,373.3 	"/>
	
		<line fill="none" stroke="#7D5E99" stroke-width="9" stroke-linecap="round" stroke-linejoin="round" stroke-miterlimit="10" x1="358" y1="315.5" x2="379" y2="315.5"/>
	
		<polyline fill="none" stroke="#7D5E99" stroke-width="9" stroke-linecap="round" stroke-linejoin="round" stroke-miterlimit="10" points="
		160.4,372.9 176.8,256.9 204.2,373.3 	"/>
	
		<line fill="none" stroke="#7D5E99" stroke-width="9" stroke-linecap="round" stroke-linejoin="round" stroke-miterlimit="10" x1="170" y1="315.5" x2="189" y2="315.5"/>
	<path fill="none" stroke="#7D5E99" stroke-width="9" stroke-linecap="round" stroke-linejoin="round" stroke-miterlimit="10" d="
		M102.5,314.9c0,32.7-8.1,56.3-18.1,56.3s-18.1-23.7-18.1-56.3s8.1-56.3,18.1-56.3S102.5,282.2,102.5,314.9z"/>
	<path fill="none" stroke="#7D5E99" stroke-width="9" stroke-linecap="round" stroke-linejoin="round" stroke-miterlimit="10" d="
		M220,324.1c0,0,25.5-5.9,24.6,30c-0.7,0.3,1.1,21-20.4,19.2"/>
	<path fill="none" stroke="#7D5E99" stroke-width="9" stroke-linecap="round" stroke-linejoin="round" stroke-miterlimit="10" d="
		M255.3,256.5c0,0-7,118.3,16.2,116.9S291,256,291,256"/>
	<g>
		
			<polyline fill="none" stroke="#7D5E99" stroke-width="9" stroke-linecap="round" stroke-linejoin="round" stroke-miterlimit="10" points="
			442.6,257.4 463,291.7 481.1,258.3 		"/>
		
			<line fill="none" stroke="#7D5E99" stroke-width="9" stroke-linecap="round" stroke-linejoin="round" stroke-miterlimit="10" x1="461.5" y1="291" x2="461.5" y2="371"/>
	</g>
</g>
</svg>
