<?xml version="1.0" encoding="utf-8"?>
<!-- Generator: Adobe Illustrator 17.1.0, SVG Export Plug-In . SVG Version: 6.00 Build 0)  -->
<!DOCTYPE svg PUBLIC "-//W3C//DTD SVG 1.1//EN" "http://www.w3.org/Graphics/SVG/1.1/DTD/svg11.dtd">
<svg version="1.1" id="Layer_1" xmlns="http://www.w3.org/2000/svg" xmlns:xlink="http://www.w3.org/1999/xlink" x="0px" y="0px"
	 viewBox="0 0 350 126" enable-background="new 0 0 350 126" xml:space="preserve">
<g>
	<g>
		
			<line fill="none" stroke="#7D5E99" stroke-width="3" stroke-linecap="round" stroke-linejoin="round" stroke-miterlimit="10" x1="10.5" y1="5" x2="10.5" y2="60"/>
		
			<line fill="none" stroke="#7D5E99" stroke-width="3" stroke-linecap="round" stroke-linejoin="round" stroke-miterlimit="10" x1="26.5" y1="5" x2="26.5" y2="60"/>
		
			<line fill="none" stroke="#7D5E99" stroke-width="3" stroke-linecap="round" stroke-linejoin="round" stroke-miterlimit="10" x1="11" y1="31.5" x2="26" y2="31.5"/>
		
			<polyline fill="none" stroke="#7D5E99" stroke-width="3" stroke-linecap="round" stroke-linejoin="round" stroke-miterlimit="10" points="
			47,4.5 35.5,4.5 35.5,60.5 47,60.5 		"/>
		
			<polyline fill="none" stroke="#7D5E99" stroke-width="3" stroke-linecap="round" stroke-linejoin="round" stroke-miterlimit="10" points="
			81.5,5 81.5,60.5 95,60.5 		"/>
		
			<polyline fill="none" stroke="#7D5E99" stroke-width="3" stroke-linecap="round" stroke-linejoin="round" stroke-miterlimit="10" points="
			150.5,65 150.5,120.5 164,120.5 		"/>
		
			<line fill="none" stroke="#7D5E99" stroke-width="3" stroke-linecap="round" stroke-linejoin="round" stroke-miterlimit="10" x1="104.5" y1="5" x2="104.5" y2="60"/>
		
			<line fill="none" stroke="#7D5E99" stroke-width="3" stroke-linecap="round" stroke-linejoin="round" stroke-miterlimit="10" x1="120.5" y1="5" x2="120.5" y2="60"/>
		
			<line fill="none" stroke="#7D5E99" stroke-width="3" stroke-linecap="round" stroke-linejoin="round" stroke-miterlimit="10" x1="135.5" y1="5" x2="135.5" y2="60"/>
		<g>
			
				<line fill="none" stroke="#7D5E99" stroke-width="3" stroke-linecap="round" stroke-linejoin="round" stroke-miterlimit="10" x1="18.1" y1="120.2" x2="9.2" y2="65.3"/>
			
				<line fill="none" stroke="#7D5E99" stroke-width="3" stroke-linecap="round" stroke-linejoin="round" stroke-miterlimit="10" x1="26.4" y1="65.2" x2="18.6" y2="120.3"/>
		</g>
		<path fill="none" stroke="#7D5E99" stroke-width="3" stroke-linecap="round" stroke-linejoin="round" stroke-miterlimit="10" d="
			M195.5,60V4.4c0,0,12.3-3.7,11.9,19c-0.3,0.2,0.5,13.3-10,12.2c0,0,15,25.3,19,23.7"/>
		<path fill="none" stroke="#7D5E99" stroke-width="3" stroke-linecap="round" stroke-linejoin="round" stroke-miterlimit="10" d="
			M198.5,121V64.7c0,0,12.2-3.7,11.7,19c-0.3,0.2,0.4,13.3-10.1,12.2c0,0,15.1,25.6,19.1,24"/>
		<path fill="none" stroke="#7D5E99" stroke-width="3" stroke-linecap="round" stroke-linejoin="round" stroke-miterlimit="10" d="
			M105.5,122V65.4c0,0,12.2-3.7,11.8,19c-0.3,0.2,0.6,13.7-9.9,12.6"/>
		
			<line fill="none" stroke="#7D5E99" stroke-width="3" stroke-linecap="round" stroke-linejoin="round" stroke-miterlimit="10" x1="36" y1="31.5" x2="44" y2="31.5"/>
		
			<polyline fill="none" stroke="#7D5E99" stroke-width="3" stroke-linecap="round" stroke-linejoin="round" stroke-miterlimit="10" points="
			233,4.5 222.5,4.5 222.5,60.5 233,60.5 		"/>
		
			<line fill="none" stroke="#7D5E99" stroke-width="3" stroke-linecap="round" stroke-linejoin="round" stroke-miterlimit="10" x1="224" y1="31.5" x2="231" y2="31.5"/>
		
			<line fill="none" stroke="#7D5E99" stroke-width="3" stroke-linecap="round" stroke-linejoin="round" stroke-miterlimit="10" x1="98" y1="4.5" x2="113" y2="4.5"/>
		
			<line fill="none" stroke="#7D5E99" stroke-width="3" stroke-linecap="round" stroke-linejoin="round" stroke-miterlimit="10" x1="120" y1="33.5" x2="136" y2="33.5"/>
		<path fill="none" stroke="#7D5E99" stroke-width="3" stroke-linecap="round" stroke-linejoin="round" stroke-miterlimit="10" d="
			M159.9,15.4c0,0-0.3-12.6-9.6-11.1c-9.9,1.6-9.3,51.6-0.3,55.3c10.7,4.4,11.6-10.6,11.3-10"/>
		<path fill="none" stroke="#7D5E99" stroke-width="3" stroke-linecap="round" stroke-linejoin="round" stroke-miterlimit="10" d="
			M71.8,75.7c0,0-0.3-12.6-9.6-11.1c-9.9,1.6-9.3,51.6-0.3,55.3c10.7,4.4,11.6-10.6,11.3-10"/>
		
			<polyline fill="none" stroke="#7D5E99" stroke-width="3" stroke-linecap="round" stroke-linejoin="round" stroke-miterlimit="10" points="
			54.4,60.7 62.4,4.2 75.7,60.9 		"/>
		
			<line fill="none" stroke="#7D5E99" stroke-width="3" stroke-linecap="round" stroke-linejoin="round" stroke-miterlimit="10" x1="59" y1="31.5" x2="69" y2="31.5"/>
		
			<polyline fill="none" stroke="#7D5E99" stroke-width="3" stroke-linecap="round" stroke-linejoin="round" stroke-miterlimit="10" points="
			166.9,60.7 174.9,4.2 188.3,60.9 		"/>
		
			<line fill="none" stroke="#7D5E99" stroke-width="3" stroke-linecap="round" stroke-linejoin="round" stroke-miterlimit="10" x1="171" y1="31.5" x2="182" y2="31.5"/>
		
			<polyline fill="none" stroke="#7D5E99" stroke-width="3" stroke-linecap="round" stroke-linejoin="round" stroke-miterlimit="10" points="
			170.3,121 178.3,64.5 191.6,121.2 		"/>
		
			<line fill="none" stroke="#7D5E99" stroke-width="3" stroke-linecap="round" stroke-linejoin="round" stroke-miterlimit="10" x1="175" y1="92.5" x2="185" y2="92.5"/>
		
			<polyline fill="none" stroke="#7D5E99" stroke-width="3" stroke-linecap="round" stroke-linejoin="round" stroke-miterlimit="10" points="
			78.1,121 86.1,64.5 99.5,121.2 		"/>
		
			<line fill="none" stroke="#7D5E99" stroke-width="3" stroke-linecap="round" stroke-linejoin="round" stroke-miterlimit="10" x1="83" y1="92.5" x2="92" y2="92.5"/>
		<path fill="none" stroke="#7D5E99" stroke-width="3" stroke-linecap="round" stroke-linejoin="round" stroke-miterlimit="10" d="
			M49.9,92.7c0,15.9-3.9,27.4-8.8,27.4s-8.8-11.5-8.8-27.4s3.9-27.4,8.8-27.4S49.9,76.8,49.9,92.7z"/>
		<path fill="none" stroke="#7D5E99" stroke-width="3" stroke-linecap="round" stroke-linejoin="round" stroke-miterlimit="10" d="
			M107.2,97.2c0,0,12.4-2.9,12,14.6c-0.3,0.2,0.5,10.2-10,9.4"/>
		<path fill="none" stroke="#7D5E99" stroke-width="3" stroke-linecap="round" stroke-linejoin="round" stroke-miterlimit="10" d="
			M124.4,64.3c0,0-3.4,57.6,7.9,56.9c11.3-0.7,9.5-57.2,9.5-57.2"/>
		<g>
			
				<polyline fill="none" stroke="#7D5E99" stroke-width="3" stroke-linecap="round" stroke-linejoin="round" stroke-miterlimit="10" points="
				215.6,64.7 225.6,81.4 234.4,65.2 			"/>
			
				<line fill="none" stroke="#7D5E99" stroke-width="3" stroke-linecap="round" stroke-linejoin="round" stroke-miterlimit="10" x1="225.5" y1="81" x2="225.5" y2="120"/>
		</g>
	</g>
	<g>
		
			<polyline fill="none" stroke="#7D5E99" stroke-width="4" stroke-linecap="round" stroke-linejoin="round" stroke-miterlimit="10" points="
			304,63 340.8,63 336.9,57.7 		"/>
		
			<line fill="none" stroke="#7D5E99" stroke-width="4" stroke-linecap="round" stroke-linejoin="round" stroke-miterlimit="10" x1="340.8" y1="63.4" x2="336.8" y2="68.3"/>
	</g>
</g>
</svg>
