<?xml version="1.0" encoding="utf-8"?>
<!-- Generator: Adobe Illustrator 17.1.0, SVG Export Plug-In . SVG Version: 6.00 Build 0)  -->
<!DOCTYPE svg PUBLIC "-//W3C//DTD SVG 1.1//EN" "http://www.w3.org/Graphics/SVG/1.1/DTD/svg11.dtd">
<svg version="1.1" id="Layer_1" xmlns="http://www.w3.org/2000/svg" xmlns:xlink="http://www.w3.org/1999/xlink" x="0px" y="0px"
	 viewBox="0 0 500 500" enable-background="new 0 0 500 500" xml:space="preserve">
<rect fill="#7D5E99" width="500" height="500"/>
<g>
	
		<line fill="none" stroke="#FFFFFF" stroke-width="7" stroke-linecap="round" stroke-linejoin="round" stroke-miterlimit="10" x1="76.5" y1="158" x2="76.5" y2="243"/>
	
		<line fill="none" stroke="#FFFFFF" stroke-width="7" stroke-linecap="round" stroke-linejoin="round" stroke-miterlimit="10" x1="102.5" y1="158" x2="102.5" y2="243"/>
	
		<line fill="none" stroke="#FFFFFF" stroke-width="7" stroke-linecap="round" stroke-linejoin="round" stroke-miterlimit="10" x1="79" y1="199.5" x2="101" y2="199.5"/>
	
		<polyline fill="none" stroke="#FFFFFF" stroke-width="7" stroke-linecap="round" stroke-linejoin="round" stroke-miterlimit="10" points="
		134,156.5 115.5,156.5 115.5,243.5 134,243.5 	"/>
	
		<polyline fill="none" stroke="#FFFFFF" stroke-width="7" stroke-linecap="round" stroke-linejoin="round" stroke-miterlimit="10" points="
		186.5,158 186.5,243.5 208,243.5 	"/>
	
		<polyline fill="none" stroke="#FFFFFF" stroke-width="7" stroke-linecap="round" stroke-linejoin="round" stroke-miterlimit="10" points="
		291.5,257 291.5,342.5 313,342.5 	"/>
	
		<line fill="none" stroke="#FFFFFF" stroke-width="7" stroke-linecap="round" stroke-linejoin="round" stroke-miterlimit="10" x1="221.5" y1="158" x2="221.5" y2="243"/>
	
		<line fill="none" stroke="#FFFFFF" stroke-width="7" stroke-linecap="round" stroke-linejoin="round" stroke-miterlimit="10" x1="246.5" y1="158" x2="246.5" y2="243"/>
	
		<line fill="none" stroke="#FFFFFF" stroke-width="7" stroke-linecap="round" stroke-linejoin="round" stroke-miterlimit="10" x1="269.5" y1="158" x2="269.5" y2="243"/>
	<g>
		
			<line fill="none" stroke="#FFFFFF" stroke-width="6.7263" stroke-linecap="round" stroke-linejoin="round" stroke-miterlimit="10" x1="89.9" y1="340.8" x2="76.3" y2="256.7"/>
		
			<line fill="none" stroke="#FFFFFF" stroke-width="6.7263" stroke-linecap="round" stroke-linejoin="round" stroke-miterlimit="10" x1="102.6" y1="256.5" x2="90.7" y2="341"/>
	</g>
	<path fill="none" stroke="#FFFFFF" stroke-width="7" stroke-linecap="round" stroke-linejoin="round" stroke-miterlimit="10" d="
		M361.5,243v-85.7c0,0,19.2-5.7,18.5,29.1c-0.5,0.3,0.9,20.4-15.2,18.7c0,0,22.8,39,28.9,36.5"/>
	<path fill="none" stroke="#FFFFFF" stroke-width="7" stroke-linecap="round" stroke-linejoin="round" stroke-miterlimit="10" d="
		M365.5,342v-86.2c0,0,19.3-5.7,18.6,29.1c-0.5,0.3,0.9,20.4-15.2,18.7c0,0,22.7,39.3,28.9,36.7"/>
	<path fill="none" stroke="#FFFFFF" stroke-width="7" stroke-linecap="round" stroke-linejoin="round" stroke-miterlimit="10" d="
		M222.5,343v-86.2c0,0,19.5-5.7,18.9,29.1c-0.5,0.3,0.5,20.6-15.5,18.9"/>
	
		<line fill="none" stroke="#FFFFFF" stroke-width="7" stroke-linecap="round" stroke-linejoin="round" stroke-miterlimit="10" x1="117" y1="199.5" x2="129" y2="199.5"/>
	
		<polyline fill="none" stroke="#FFFFFF" stroke-width="7" stroke-linecap="round" stroke-linejoin="round" stroke-miterlimit="10" points="
		419,156.5 402.5,156.5 402.5,243.5 419,243.5 	"/>
	
		<line fill="none" stroke="#FFFFFF" stroke-width="7" stroke-linecap="round" stroke-linejoin="round" stroke-miterlimit="10" x1="405" y1="199.5" x2="416" y2="199.5"/>
	
		<line fill="none" stroke="#FFFFFF" stroke-width="7" stroke-linecap="round" stroke-linejoin="round" stroke-miterlimit="10" x1="212" y1="156.5" x2="236" y2="156.5"/>
	
		<line fill="none" stroke="#FFFFFF" stroke-width="7" stroke-linecap="round" stroke-linejoin="round" stroke-miterlimit="10" x1="247" y1="202.5" x2="270" y2="202.5"/>
	
		<path fill="none" stroke="#FFFFFF" stroke-width="6.7263" stroke-linecap="round" stroke-linejoin="round" stroke-miterlimit="10" d="
		M307.5,174.1c0,0-0.5-19.4-14.8-17.1c-15.2,2.5-14.3,79.2-0.5,84.8c16.5,6.7,17.7-16.2,17.4-15.4"/>
	
		<path fill="none" stroke="#FFFFFF" stroke-width="6.7263" stroke-linecap="round" stroke-linejoin="round" stroke-miterlimit="10" d="
		M172.4,272.6c0,0-0.5-19.4-14.8-17.1c-15.2,2.5-14.3,79.2-0.5,84.8c16.5,6.7,17.7-16.2,17.4-15.4"/>
	
		<polyline fill="none" stroke="#FFFFFF" stroke-width="6.7263" stroke-linecap="round" stroke-linejoin="round" stroke-miterlimit="10" points="
		145.6,243.6 157.9,156.9 178.3,243.9 	"/>
	
		<line fill="none" stroke="#FFFFFF" stroke-width="7" stroke-linecap="round" stroke-linejoin="round" stroke-miterlimit="10" x1="153" y1="199.5" x2="168" y2="199.5"/>
	
		<polyline fill="none" stroke="#FFFFFF" stroke-width="6.7263" stroke-linecap="round" stroke-linejoin="round" stroke-miterlimit="10" points="
		318.2,243.6 330.5,156.9 351,243.9 	"/>
	
		<line fill="none" stroke="#FFFFFF" stroke-width="7" stroke-linecap="round" stroke-linejoin="round" stroke-miterlimit="10" x1="326" y1="199.5" x2="339" y2="199.5"/>
	
		<polyline fill="none" stroke="#FFFFFF" stroke-width="6.7263" stroke-linecap="round" stroke-linejoin="round" stroke-miterlimit="10" points="
		323.4,342.1 335.7,255.4 356.2,342.4 	"/>
	
		<line fill="none" stroke="#FFFFFF" stroke-width="7" stroke-linecap="round" stroke-linejoin="round" stroke-miterlimit="10" x1="330" y1="298.5" x2="345" y2="298.5"/>
	
		<polyline fill="none" stroke="#FFFFFF" stroke-width="6.7263" stroke-linecap="round" stroke-linejoin="round" stroke-miterlimit="10" points="
		182,342.1 194.3,255.4 214.8,342.4 	"/>
	
		<line fill="none" stroke="#FFFFFF" stroke-width="7" stroke-linecap="round" stroke-linejoin="round" stroke-miterlimit="10" x1="189" y1="298.5" x2="203" y2="298.5"/>
	
		<path fill="none" stroke="#FFFFFF" stroke-width="6.7263" stroke-linecap="round" stroke-linejoin="round" stroke-miterlimit="10" d="
		M138.7,298.8c0,24.4-6.1,42.1-13.5,42.1c-7.5,0-13.5-17.7-13.5-42.1c0-24.4,6.1-42.1,13.5-42.1
		C132.7,256.6,138.7,274.3,138.7,298.8z"/>
	
		<path fill="none" stroke="#FFFFFF" stroke-width="6.7263" stroke-linecap="round" stroke-linejoin="round" stroke-miterlimit="10" d="
		M226.6,305.6c0,0,19-4.4,18.4,22.4c-0.5,0.3,0.8,15.7-15.3,14.4"/>
	
		<path fill="none" stroke="#FFFFFF" stroke-width="6.7263" stroke-linecap="round" stroke-linejoin="round" stroke-miterlimit="10" d="
		M252.9,255.1c0,0-5.2,88.4,12.1,87.3c17.3-1,14.6-87.7,14.6-87.7"/>
	<g>
		
			<polyline fill="none" stroke="#FFFFFF" stroke-width="6.7263" stroke-linecap="round" stroke-linejoin="round" stroke-miterlimit="10" points="
			393,255.8 408.2,281.4 421.7,256.5 		"/>
		
			<line fill="none" stroke="#FFFFFF" stroke-width="7" stroke-linecap="round" stroke-linejoin="round" stroke-miterlimit="10" x1="407.5" y1="281" x2="407.5" y2="340"/>
	</g>
</g>
</svg>
