<?xml version="1.0" encoding="utf-8"?>
<!-- Generator: Adobe Illustrator 17.1.0, SVG Export Plug-In . SVG Version: 6.00 Build 0)  -->
<!DOCTYPE svg PUBLIC "-//W3C//DTD SVG 1.1//EN" "http://www.w3.org/Graphics/SVG/1.1/DTD/svg11.dtd">
<svg version="1.1" id="Layer_1" xmlns="http://www.w3.org/2000/svg" xmlns:xlink="http://www.w3.org/1999/xlink" x="0px" y="0px"
	 viewBox="0 0 500 500" enable-background="new 0 0 500 500" xml:space="preserve">
<g>
	<g>
		
			<line fill="none" stroke="#409B89" stroke-width="8" stroke-linecap="round" stroke-linejoin="round" stroke-miterlimit="10" x1="14.6" y1="213.7" x2="56.4" y2="254.2"/>
		
			<line fill="none" stroke="#409B89" stroke-width="8" stroke-linecap="round" stroke-linejoin="round" stroke-miterlimit="10" x1="32.6" y1="195.1" x2="74.4" y2="235.6"/>
		
			<line fill="none" stroke="#409B89" stroke-width="8" stroke-linecap="round" stroke-linejoin="round" stroke-miterlimit="10" x1="36.3" y1="233.2" x2="52.6" y2="216.2"/>
	</g>
	
		<polyline fill="none" stroke="#409B89" stroke-width="8" stroke-linecap="round" stroke-linejoin="round" stroke-miterlimit="10" points="
		152.2,118.9 171.8,172.5 195.1,164 	"/>
	<g>
		<path fill="none" stroke="#409B89" stroke-width="8" stroke-linecap="round" stroke-linejoin="round" stroke-miterlimit="10" d="
			M389.4,201l35.4-48.2c0,0,19.6,9.4,4.4,28.7c-0.6-0.2-7.9,12-21.9,0.2c0,0,5.2,37.5,11.9,40.2"/>
	</g>
	<g>
		
			<polyline fill="none" stroke="#409B89" stroke-width="8" stroke-linecap="round" stroke-linejoin="round" stroke-miterlimit="10" points="
			70.4,163.5 57.5,173.2 92.3,219.8 105.3,210.1 		"/>
		
			<line fill="none" stroke="#409B89" stroke-width="8" stroke-linecap="round" stroke-linejoin="round" stroke-miterlimit="10" x1="76.3" y1="196.4" x2="86.8" y2="189"/>
	</g>
	<g>
		
			<polyline fill="none" stroke="#409B89" stroke-width="8" stroke-linecap="round" stroke-linejoin="round" stroke-miterlimit="10" points="
			485.4,201.8 471.6,189.7 433.2,233.5 447,245.6 		"/>
		
			<line fill="none" stroke="#409B89" stroke-width="8" stroke-linecap="round" stroke-linejoin="round" stroke-miterlimit="10" x1="452.5" y1="213.1" x2="462.2" y2="221.7"/>
	</g>
	<g>
		
			<line fill="none" stroke="#409B89" stroke-width="8" stroke-linecap="round" stroke-linejoin="round" stroke-miterlimit="10" x1="207.2" y1="108" x2="219.3" y2="164.9"/>
		
			<line fill="none" stroke="#409B89" stroke-width="8" stroke-linecap="round" stroke-linejoin="round" stroke-miterlimit="10" x1="193.3" y1="109.8" x2="218.6" y2="104.5"/>
	</g>
	<g>
		
			<line fill="none" stroke="#409B89" stroke-width="8" stroke-linecap="round" stroke-linejoin="round" stroke-miterlimit="10" x1="248.7" y1="102.2" x2="246.9" y2="160.5"/>
		
			<line fill="none" stroke="#409B89" stroke-width="8" stroke-linecap="round" stroke-linejoin="round" stroke-miterlimit="10" x1="274.6" y1="103" x2="272.8" y2="161.3"/>
		
			<line fill="none" stroke="#409B89" stroke-width="8" stroke-linecap="round" stroke-linejoin="round" stroke-miterlimit="10" x1="250.9" y1="133.6" x2="273.6" y2="134.4"/>
	</g>
	<path fill="none" stroke="#409B89" stroke-width="8" stroke-linecap="round" stroke-linejoin="round" stroke-miterlimit="10" d="
		M339.7,127.6c0,0,4.6-12.9-11.1-17.5c-16.7-4.9-36.1,45.6-22.9,55.2c15.6,11.4,23-3,22.4-2.6"/>
	<g>
		
			<polyline fill="none" stroke="#409B89" stroke-width="8" stroke-linecap="round" stroke-linejoin="round" stroke-miterlimit="10" points="
			121.7,199.5 102.2,140 153.8,180.5 		"/>
		
			<line fill="none" stroke="#409B89" stroke-width="8" stroke-linecap="round" stroke-linejoin="round" stroke-miterlimit="10" x1="111.7" y1="170.3" x2="128.4" y2="160.3"/>
	</g>
	<g>
		
			<polyline fill="none" stroke="#409B89" stroke-width="8" stroke-linecap="round" stroke-linejoin="round" stroke-miterlimit="10" points="
			343.1,174.8 387,130.1 374.8,194.5 		"/>
		
			<line fill="none" stroke="#409B89" stroke-width="8" stroke-linecap="round" stroke-linejoin="round" stroke-miterlimit="10" x1="366" y1="153.5" x2="378.8" y2="161.4"/>
	</g>
	
		<polyline fill="none" stroke="#409B89" stroke-width="8" stroke-linecap="round" stroke-linejoin="round" stroke-miterlimit="10" points="
		149,248.2 160.4,203.4 173.6,247.8 	"/>
	
		<line fill="none" stroke="#409B89" stroke-width="8" stroke-linecap="round" stroke-linejoin="round" stroke-miterlimit="10" x1="156" y1="232" x2="166" y2="232"/>
	<path fill="none" stroke="#409B89" stroke-width="8" stroke-linecap="round" stroke-linejoin="round" stroke-miterlimit="10" d="
		M191.8,248.3l0.1-44.9c0,0,18.8-5.7,18.5,11c0,0,0.8,13.6-14.4,9.7c0,0,9.7,26.4,16.4,24.1"/>
	
		<ellipse fill="none" stroke="#409B89" stroke-width="8" stroke-linecap="round" stroke-linejoin="round" stroke-miterlimit="10" cx="239" cy="225.7" rx="13.6" ry="22.3"/>
	<path fill="none" stroke="#409B89" stroke-width="8" stroke-linecap="round" stroke-linejoin="round" stroke-miterlimit="10" d="
		M267.1,203.4c0,0-4.3,45.3,11.8,45.1s11.8-44.8,11.8-44.8"/>
	
		<polyline fill="none" stroke="#409B89" stroke-width="8" stroke-linecap="round" stroke-linejoin="round" stroke-miterlimit="10" points="
		305,250 305,203.4 336,247.8 336,203 	"/>
	<path fill="none" stroke="#409B89" stroke-width="8" stroke-linecap="round" stroke-linejoin="round" stroke-miterlimit="10" d="
		M349,248.8v-45.4c0,0,16.1-1.3,17.7,20.8S353,249.7,349,248.8z"/>
	<path fill="none" stroke="#409B89" stroke-width="8" stroke-linecap="round" stroke-linejoin="round" stroke-miterlimit="10" d="
		M236.4,270.1c0,0-11.9,44.1,3.3,40.8c15.2-3.3,16.3-41.5,16.3-41.5l-6.1,42.3c0,0,0.7-12,5.4-19.2c3.2-4.9,10.8-2.5,10.6,3.4
		c-0.4,9.6,0.7,22.7,12.2,8.9"/>
	<path fill="none" stroke="#409B89" stroke-width="8" stroke-linecap="round" stroke-linejoin="round" stroke-miterlimit="10" d="
		M281.9,298.2c0,0,5.8,0.1,8.3-3.9c1.9-3.1,0-8.6-3.6-7.9c-2,0.4-6.6,1.5-8.4,11c-0.7,3.5,0,8.1,1.7,11.2c2.8,5,9.5,9.2,21.7-6.2"/>
	<path fill="none" stroke="#409B89" stroke-width="8" stroke-linecap="round" stroke-linejoin="round" stroke-miterlimit="10" d="
		M214.6,286.3c0,0,8.7-13.3,36.1-6.7c27.5,6.6,27.2-4.2,27.2-4.2"/>
	
		<polyline fill="none" stroke="#409B89" stroke-width="8" stroke-linecap="round" stroke-linejoin="round" stroke-miterlimit="10" points="
		103.5,335.7 123.3,394.3 143,368.5 163.2,391.7 178.2,335 	"/>
	
		<ellipse transform="matrix(0.9999 1.695777e-02 -1.695777e-02 0.9999 6.2136 -3.6378)" fill="none" stroke="#409B89" stroke-width="8" stroke-linecap="round" stroke-linejoin="round" stroke-miterlimit="10" cx="217.6" cy="364.6" rx="20.9" ry="32.6"/>
	<path fill="none" stroke="#409B89" stroke-width="8" stroke-linecap="round" stroke-linejoin="round" stroke-miterlimit="10" d="
		M260.4,393.8l-1-59.1c0,0,28.8-7.4,31.1,8.9c3.3,22.7-23.7,18.5-23.7,18.5s20.3,32.6,35.2,28.7"/>
	
		<polyline fill="none" stroke="#409B89" stroke-width="8" stroke-linecap="round" stroke-linejoin="round" stroke-miterlimit="10" points="
		322.7,330.7 324,391.4 361.3,391.4 	"/>
	<path fill="none" stroke="#409B89" stroke-width="8" stroke-linecap="round" stroke-linejoin="round" stroke-miterlimit="10" d="
		M379,393l-1.4-63c0,0,35.8-6.2,37.2,30.8C416,396.4,379,393,379,393z"/>
</g>
</svg>
