<?xml version="1.0" encoding="utf-8"?>
<!-- Generator: Adobe Illustrator 17.1.0, SVG Export Plug-In . SVG Version: 6.00 Build 0)  -->
<!DOCTYPE svg PUBLIC "-//W3C//DTD SVG 1.1//EN" "http://www.w3.org/Graphics/SVG/1.1/DTD/svg11.dtd">
<svg version="1.1" id="Layer_1" xmlns="http://www.w3.org/2000/svg" xmlns:xlink="http://www.w3.org/1999/xlink" x="0px" y="0px"
	 viewBox="0 0 350 159.5" enable-background="new 0 0 350 159.5" xml:space="preserve">
<g>
	<g>
		<g>
			
				<line fill="none" stroke="#409B89" stroke-width="3" stroke-linecap="round" stroke-linejoin="round" stroke-miterlimit="10" x1="5.2" y1="61.3" x2="26.6" y2="82.1"/>
			
				<line fill="none" stroke="#409B89" stroke-width="3" stroke-linecap="round" stroke-linejoin="round" stroke-miterlimit="10" x1="14.4" y1="51.8" x2="35.9" y2="72.5"/>
			
				<line fill="none" stroke="#409B89" stroke-width="3" stroke-linecap="round" stroke-linejoin="round" stroke-miterlimit="10" x1="16.3" y1="71.3" x2="25.5" y2="61.8"/>
		</g>
		
			<polyline fill="none" stroke="#409B89" stroke-width="3" stroke-linecap="round" stroke-linejoin="round" stroke-miterlimit="10" points="
			75.7,12.7 85.7,40.2 97.7,35.8 		"/>
		<g>
			<path fill="none" stroke="#409B89" stroke-width="3" stroke-linecap="round" stroke-linejoin="round" stroke-miterlimit="10" d="
				M197.2,54.8l18.1-24.7c0,0,10,4.8,2.3,14.7c-0.3-0.1-4,6.1-11.2,0.1c0,0,2.7,19.2,6.1,20.6"/>
		</g>
		<g>
			
				<polyline fill="none" stroke="#409B89" stroke-width="3" stroke-linecap="round" stroke-linejoin="round" stroke-miterlimit="10" points="
				33.8,35.6 27.2,40.5 45,64.4 51.7,59.5 			"/>
			
				<line fill="none" stroke="#409B89" stroke-width="3" stroke-linecap="round" stroke-linejoin="round" stroke-miterlimit="10" x1="36" y1="53.3" x2="42.2" y2="48.6"/>
		</g>
		<g>
			
				<polyline fill="none" stroke="#409B89" stroke-width="3" stroke-linecap="round" stroke-linejoin="round" stroke-miterlimit="10" points="
				246.4,55.2 239.3,49 219.7,71.4 226.7,77.6 			"/>
			
				<line fill="none" stroke="#409B89" stroke-width="3" stroke-linecap="round" stroke-linejoin="round" stroke-miterlimit="10" x1="229.5" y1="61" x2="234.5" y2="65.4"/>
		</g>
		<g>
			
				<line fill="none" stroke="#409B89" stroke-width="3" stroke-linecap="round" stroke-linejoin="round" stroke-miterlimit="10" x1="103.9" y1="7.1" x2="110.1" y2="36.3"/>
			
				<line fill="none" stroke="#409B89" stroke-width="3" stroke-linecap="round" stroke-linejoin="round" stroke-miterlimit="10" x1="96.7" y1="8.1" x2="109.7" y2="5.3"/>
		</g>
		<g>
			
				<line fill="none" stroke="#409B89" stroke-width="3" stroke-linecap="round" stroke-linejoin="round" stroke-miterlimit="10" x1="125.1" y1="4.2" x2="124.2" y2="34"/>
			
				<line fill="none" stroke="#409B89" stroke-width="3" stroke-linecap="round" stroke-linejoin="round" stroke-miterlimit="10" x1="138.4" y1="4.6" x2="137.5" y2="34.5"/>
			
				<line fill="none" stroke="#409B89" stroke-width="3" stroke-linecap="round" stroke-linejoin="round" stroke-miterlimit="10" x1="126.3" y1="20.3" x2="139.5" y2="20.7"/>
		</g>
		<path fill="none" stroke="#409B89" stroke-width="3" stroke-linecap="round" stroke-linejoin="round" stroke-miterlimit="10" d="
			M171.8,17.2c0,0,2.3-6.6-5.7-8.9c-8.6-2.5-18.5,23.3-11.7,28.3c8,5.9,11.8-1.5,11.5-1.3"/>
		<g>
			
				<polyline fill="none" stroke="#409B89" stroke-width="3" stroke-linecap="round" stroke-linejoin="round" stroke-miterlimit="10" points="
				60.1,54 50.1,23.5 76.5,44.3 			"/>
			
				<line fill="none" stroke="#409B89" stroke-width="3" stroke-linecap="round" stroke-linejoin="round" stroke-miterlimit="10" x1="55" y1="39.1" x2="63.5" y2="34"/>
		</g>
		<g>
			
				<polyline fill="none" stroke="#409B89" stroke-width="3" stroke-linecap="round" stroke-linejoin="round" stroke-miterlimit="10" points="
				173.5,41.4 196,18.5 189.7,51.5 			"/>
			
				<line fill="none" stroke="#409B89" stroke-width="3" stroke-linecap="round" stroke-linejoin="round" stroke-miterlimit="10" x1="185.2" y1="30.5" x2="191.8" y2="34.5"/>
		</g>
		
			<polyline fill="none" stroke="#409B89" stroke-width="3" stroke-linecap="round" stroke-linejoin="round" stroke-miterlimit="10" points="
			74.1,79 79.9,56 86.7,78.8 		"/>
		
			<line fill="none" stroke="#409B89" stroke-width="3" stroke-linecap="round" stroke-linejoin="round" stroke-miterlimit="10" x1="77.5" y1="68" x2="82.5" y2="68"/>
		<path fill="none" stroke="#409B89" stroke-width="3" stroke-linecap="round" stroke-linejoin="round" stroke-miterlimit="10" d="
			M96,79l0-23c0,0,9.6-2.9,9.5,5.7c0,0,0.4,7-7.4,5c0,0,5,13.5,8.4,12.3"/>
		
			<ellipse fill="none" stroke="#409B89" stroke-width="3" stroke-linecap="round" stroke-linejoin="round" stroke-miterlimit="10" cx="120.1" cy="67.4" rx="7" ry="11.4"/>
		<path fill="none" stroke="#409B89" stroke-width="3" stroke-linecap="round" stroke-linejoin="round" stroke-miterlimit="10" d="
			M134.6,56c0,0-2.2,23.2,6.1,23.1c8.2-0.1,6.1-22.9,6.1-22.9"/>
		
			<polyline fill="none" stroke="#409B89" stroke-width="3" stroke-linecap="round" stroke-linejoin="round" stroke-miterlimit="10" points="
			153,79.5 153,56 169,78.8 169,55.5 		"/>
		<path fill="none" stroke="#409B89" stroke-width="3" stroke-linecap="round" stroke-linejoin="round" stroke-miterlimit="10" d="
			M175,79.3V56c0,0,8.2-0.6,9,10.7S177,79.8,175,79.3z"/>
		<path fill="none" stroke="#409B89" stroke-width="3" stroke-linecap="round" stroke-linejoin="round" stroke-miterlimit="10" d="
			M118.9,90c0,0-6.1,22.6,1.7,20.9c7.8-1.7,8.3-21.2,8.3-21.2l-3.1,21.7c0,0,0.4-6.2,2.8-9.8c1.6-2.5,5.5-1.3,5.4,1.7
			c-0.2,4.9,0.4,11.6,6.3,4.5"/>
		<path fill="none" stroke="#409B89" stroke-width="3" stroke-linecap="round" stroke-linejoin="round" stroke-miterlimit="10" d="
			M142.1,104.4c0,0,3,0,4.2-2c1-1.6,0-4.4-1.8-4.1c-1,0.2-3.4,0.8-4.3,5.6c-0.3,1.8,0,4.1,0.9,5.7c1.5,2.6,4.9,4.7,11.1-3.2"/>
		<path fill="none" stroke="#409B89" stroke-width="3" stroke-linecap="round" stroke-linejoin="round" stroke-miterlimit="10" d="
			M107.7,98.5c0,0,4.4-6.8,18.5-3.4s14-2.2,14-2.2"/>
		
			<polyline fill="none" stroke="#409B89" stroke-width="3" stroke-linecap="round" stroke-linejoin="round" stroke-miterlimit="10" points="
			50.7,123.8 60.9,153.8 71,140.6 81.3,152.5 89,123.4 		"/>
		
			<ellipse transform="matrix(0.9999 1.695777e-02 -1.695777e-02 0.9999 2.3659 -1.8319)" fill="none" stroke="#409B89" stroke-width="3" stroke-linecap="round" stroke-linejoin="round" stroke-miterlimit="10" cx="109.2" cy="138.6" rx="10.7" ry="16.7"/>
		<path fill="none" stroke="#409B89" stroke-width="3" stroke-linecap="round" stroke-linejoin="round" stroke-miterlimit="10" d="
			M131.1,153.6l-0.5-30.3c0,0,14.8-3.8,16,4.6c1.7,11.6-12.1,9.5-12.1,9.5s10.4,16.7,18,14.7"/>
		
			<polyline fill="none" stroke="#409B89" stroke-width="3" stroke-linecap="round" stroke-linejoin="round" stroke-miterlimit="10" points="
			163,121.2 163.7,152.4 182.8,152.3 		"/>
		<path fill="none" stroke="#409B89" stroke-width="3" stroke-linecap="round" stroke-linejoin="round" stroke-miterlimit="10" d="
			M191.9,153.2l-0.7-32.3c0,0,18.3-3.2,19,15.8C210.8,154.9,191.9,153.2,191.9,153.2z"/>
	</g>
	<g>
		
			<polyline fill="none" stroke="#409B89" stroke-width="4" stroke-linecap="round" stroke-linejoin="round" stroke-miterlimit="10" points="
			307.5,79.5 344.8,79.5 340.6,74.2 		"/>
		
			<line fill="none" stroke="#409B89" stroke-width="4" stroke-linecap="round" stroke-linejoin="round" stroke-miterlimit="10" x1="344.8" y1="79.9" x2="340.8" y2="84.9"/>
	</g>
</g>
</svg>
