<?xml version="1.0" encoding="utf-8"?>
<!-- Generator: Adobe Illustrator 17.1.0, SVG Export Plug-In . SVG Version: 6.00 Build 0)  -->
<!DOCTYPE svg PUBLIC "-//W3C//DTD SVG 1.1//EN" "http://www.w3.org/Graphics/SVG/1.1/DTD/svg11.dtd">
<svg version="1.1" id="Layer_1" xmlns="http://www.w3.org/2000/svg" xmlns:xlink="http://www.w3.org/1999/xlink" x="0px" y="0px"
	 viewBox="0 0 500 500" enable-background="new 0 0 500 500" xml:space="preserve">
<rect fill="#409B89" width="500" height="500"/>
<g>
	<g>
		
			<line fill="none" stroke="#FFFFFF" stroke-width="6.0017" stroke-linecap="round" stroke-linejoin="round" stroke-miterlimit="10" x1="73.4" y1="223" x2="104.8" y2="253.4"/>
		
			<line fill="none" stroke="#FFFFFF" stroke-width="6.0017" stroke-linecap="round" stroke-linejoin="round" stroke-miterlimit="10" x1="86.9" y1="209.1" x2="118.3" y2="239.4"/>
		
			<line fill="none" stroke="#FFFFFF" stroke-width="6.0017" stroke-linecap="round" stroke-linejoin="round" stroke-miterlimit="10" x1="89.7" y1="237.6" x2="101.9" y2="224.9"/>
	</g>
	
		<polyline fill="none" stroke="#FFFFFF" stroke-width="6.0017" stroke-linecap="round" stroke-linejoin="round" stroke-miterlimit="10" points="
		176.6,151.8 191.3,192.1 208.8,185.7 	"/>
	<g>
		
			<path fill="none" stroke="#FFFFFF" stroke-width="6.0017" stroke-linecap="round" stroke-linejoin="round" stroke-miterlimit="10" d="
			M354.6,213.5l26.5-36.2c0,0,14.7,7,3.3,21.5c-0.5-0.1-5.9,9-16.5,0.2c0,0,3.9,28.1,8.9,30.2"/>
	</g>
	<g>
		
			<polyline fill="none" stroke="#FFFFFF" stroke-width="6.0017" stroke-linecap="round" stroke-linejoin="round" stroke-miterlimit="10" points="
			115.3,185.3 105.6,192.6 131.7,227.6 141.4,220.3 		"/>
		
			<line fill="none" stroke="#FFFFFF" stroke-width="6.0017" stroke-linecap="round" stroke-linejoin="round" stroke-miterlimit="10" x1="119.7" y1="210" x2="127.5" y2="204.4"/>
	</g>
	<g>
		
			<polyline fill="none" stroke="#FFFFFF" stroke-width="6.0017" stroke-linecap="round" stroke-linejoin="round" stroke-miterlimit="10" points="
			426.6,214.1 416.3,205 387.5,237.8 397.8,246.9 		"/>
		
			<line fill="none" stroke="#FFFFFF" stroke-width="6.0017" stroke-linecap="round" stroke-linejoin="round" stroke-miterlimit="10" x1="401.9" y1="222.6" x2="409.2" y2="229"/>
	</g>
	<g>
		
			<line fill="none" stroke="#FFFFFF" stroke-width="6.0017" stroke-linecap="round" stroke-linejoin="round" stroke-miterlimit="10" x1="217.9" y1="143.7" x2="227" y2="186.4"/>
		
			<line fill="none" stroke="#FFFFFF" stroke-width="6.0017" stroke-linecap="round" stroke-linejoin="round" stroke-miterlimit="10" x1="207.5" y1="145.1" x2="226.4" y2="141"/>
	</g>
	<g>
		
			<line fill="none" stroke="#FFFFFF" stroke-width="6.0017" stroke-linecap="round" stroke-linejoin="round" stroke-miterlimit="10" x1="249" y1="139.3" x2="247.6" y2="183.1"/>
		
			<line fill="none" stroke="#FFFFFF" stroke-width="6.0017" stroke-linecap="round" stroke-linejoin="round" stroke-miterlimit="10" x1="268.4" y1="139.9" x2="267.1" y2="183.7"/>
		
			<line fill="none" stroke="#FFFFFF" stroke-width="6.0017" stroke-linecap="round" stroke-linejoin="round" stroke-miterlimit="10" x1="250.7" y1="162.9" x2="267.7" y2="163.5"/>
	</g>
	
		<path fill="none" stroke="#FFFFFF" stroke-width="6.0017" stroke-linecap="round" stroke-linejoin="round" stroke-miterlimit="10" d="
		M317.3,158.4c0,0,3.4-9.7-8.3-13.1c-12.6-3.7-27.1,34.2-17.2,41.4c11.7,8.6,17.2-2.3,16.8-1.9"/>
	<g>
		
			<polyline fill="none" stroke="#FFFFFF" stroke-width="6.0017" stroke-linecap="round" stroke-linejoin="round" stroke-miterlimit="10" points="
			153.7,212.3 139.1,167.7 177.8,198 		"/>
		
			<line fill="none" stroke="#FFFFFF" stroke-width="6.0017" stroke-linecap="round" stroke-linejoin="round" stroke-miterlimit="10" x1="146.3" y1="190.4" x2="158.8" y2="182.9"/>
	</g>
	<g>
		
			<polyline fill="none" stroke="#FFFFFF" stroke-width="6.0017" stroke-linecap="round" stroke-linejoin="round" stroke-miterlimit="10" points="
			319.9,193.8 352.8,160.3 343.6,208.6 		"/>
		
			<line fill="none" stroke="#FFFFFF" stroke-width="6.0017" stroke-linecap="round" stroke-linejoin="round" stroke-miterlimit="10" x1="337" y1="177.8" x2="346.6" y2="183.7"/>
	</g>
	
		<polyline fill="none" stroke="#FFFFFF" stroke-width="6.0017" stroke-linecap="round" stroke-linejoin="round" stroke-miterlimit="10" points="
		174.2,248.8 182.7,215.2 192.7,248.6 	"/>
	
		<line fill="none" stroke="#FFFFFF" stroke-width="6" stroke-linecap="round" stroke-linejoin="round" stroke-miterlimit="10" x1="180" y1="236" x2="187" y2="236"/>
	
		<path fill="none" stroke="#FFFFFF" stroke-width="6.0017" stroke-linecap="round" stroke-linejoin="round" stroke-miterlimit="10" d="
		M206.4,248.9l0.1-33.7c0,0,14.1-4.3,13.8,8.3c0,0,0.6,10.2-10.8,7.3c0,0,7.3,19.8,12.3,18"/>
	
		<ellipse fill="none" stroke="#FFFFFF" stroke-width="6.0017" stroke-linecap="round" stroke-linejoin="round" stroke-miterlimit="10" cx="241.7" cy="232" rx="10.2" ry="16.7"/>
	
		<path fill="none" stroke="#FFFFFF" stroke-width="6.0017" stroke-linecap="round" stroke-linejoin="round" stroke-miterlimit="10" d="
		M262.9,215.2c0,0-3.2,34,8.9,33.8c12.1-0.1,8.9-33.6,8.9-33.6"/>
	
		<polyline fill="none" stroke="#FFFFFF" stroke-width="6" stroke-linecap="round" stroke-linejoin="round" stroke-miterlimit="10" points="
		291,250 291,215.2 314,248.6 314,215 	"/>
	<path fill="none" stroke="#FFFFFF" stroke-width="6" stroke-linecap="round" stroke-linejoin="round" stroke-miterlimit="10" d="
		M324,249.3v-34.1c0,0,12.1-0.9,13.3,15.6C338.4,247.4,327,250,324,249.3z"/>
	
		<path fill="none" stroke="#FFFFFF" stroke-width="6.0017" stroke-linecap="round" stroke-linejoin="round" stroke-miterlimit="10" d="
		M239.8,265.3c0,0-9,33.1,2.4,30.6c11.4-2.4,12.2-31.1,12.2-31.1l-4.6,31.7c0,0,0.6-9,4.1-14.4c2.4-3.7,8.1-1.8,7.9,2.5
		c-0.3,7.2,0.6,17,9.2,6.7"/>
	
		<path fill="none" stroke="#FFFFFF" stroke-width="6.0017" stroke-linecap="round" stroke-linejoin="round" stroke-miterlimit="10" d="
		M273.9,286.4c0,0,4.4,0.1,6.2-2.9c1.4-2.3,0-6.4-2.7-6c-1.5,0.3-4.9,1.2-6.3,8.2c-0.5,2.6,0,6.1,1.3,8.4c2.1,3.7,7.1,6.9,16.3-4.7"
		/>
	
		<path fill="none" stroke="#FFFFFF" stroke-width="6.0017" stroke-linecap="round" stroke-linejoin="round" stroke-miterlimit="10" d="
		M223.5,277.4c0,0,6.5-10,27.1-5c20.6,5,20.4-3.2,20.4-3.2"/>
	
		<polyline fill="none" stroke="#FFFFFF" stroke-width="6.0017" stroke-linecap="round" stroke-linejoin="round" stroke-miterlimit="10" points="
		140.1,314.5 154.9,358.5 169.7,339.1 184.9,356.5 196.2,314 	"/>
	
		<ellipse transform="matrix(0.9999 1.695777e-02 -1.695777e-02 0.9999 5.7331 -3.7791)" fill="none" stroke="#FFFFFF" stroke-width="6.0017" stroke-linecap="round" stroke-linejoin="round" stroke-miterlimit="10" cx="225.7" cy="336.2" rx="15.7" ry="24.5"/>
	
		<path fill="none" stroke="#FFFFFF" stroke-width="6.0017" stroke-linecap="round" stroke-linejoin="round" stroke-miterlimit="10" d="
		M257.8,358.1l-0.7-44.4c0,0,21.6-5.5,23.4,6.7c2.4,17-17.8,13.8-17.8,13.8s15.2,24.4,26.4,21.5"/>
	
		<polyline fill="none" stroke="#FFFFFF" stroke-width="6.0017" stroke-linecap="round" stroke-linejoin="round" stroke-miterlimit="10" points="
		304.5,310.7 305.5,356.3 333.5,356.3 	"/>
	
		<path fill="none" stroke="#FFFFFF" stroke-width="6.0017" stroke-linecap="round" stroke-linejoin="round" stroke-miterlimit="10" d="
		M346.7,357.5l-1.1-47.3c0,0,26.8-4.7,27.9,23.1C374.6,360,346.7,357.5,346.7,357.5z"/>
</g>
</svg>
